<?xml version="1.0" encoding="UTF-8" standalone="no"?><!-- Generator: Adobe Illustrator 19.0.0, SVG Export Plug-In . SVG Version: 6.00 Build 0)  --><svg xmlns="http://www.w3.org/2000/svg" xmlns:xlink="http://www.w3.org/1999/xlink" contentScriptType="text/ecmascript" zoomAndPan="magnify" contentStyleType="text/css" id="图层_1" style="enable-background:new 0 0 1000 1000;" mapName="内蒙古自治区" mapType="省市地图" version="1.1" xml:space="preserve" preserveAspectRatio="xMidYMid meet" viewBox="0 0 1000 1000" x="0px" y="0px">
	<g>
		<path name="呼伦贝尔市" d="M969.9511823564035 346.04265484887264L971.0937229512165 346.80434857874866L971.0937229512165 351.1771630370806L970.3320292213411 352.31970363189384L968.8121040058168 350.98673960461156L967.6695634110029 351.7484333344871L968.4312571408791 352.88751168507406L971.4745698161541 354.03005227988774L971.4745698161541 355.7404009278814L970.7128760862788 355.5534397396391L972.6136481667418 358.78371360315737L971.0937229512165 367.5328047640478L966.9078696811266 370.00484714191725L963.8645570058516 368.2944984939236L960.0630128449257 368.1040750614545L956.638853304712 370.3856940068549L957.4005470345874 372.66731295225554L953.5955406294361 377.043589654814L953.2146937644975 378.94436173527674L951.3139216840354 380.4677491950281L949.7905342242839 386.5509123013535L946.7472215490079 389.7846484090985L947.5089152788833 390.73676557144313L946.7472215490079 395.6808503271818L949.0323027386348 398.53373956998894L946.3698369282965 404.42994148807225L943.3265242530206 405.94986670359685L945.2272963334835 403.2874008932588L942.9456773880829 402.3387459751409L943.3265242530206 400.6249350829205L939.902364712806 397.01381435446433L939.5215178478684 391.30803586884986L937.6207457674063 390.5463421389743L929.2525014714538 395.490426894713L914.0359380950731 407.47325416334843L904.5286154485339 410.70699027109345L900.342762178444 416.22234532423886L889.3120520721532 420.0238894851641L879.8012671813867 424.78101305266046L877.1388013710484 429.72509780839914L861.5448533739564 437.52207180694495L855.4582280234044 434.0979122667311L850.5141432676664 434.0979122667311L848.6133711872035 434.85960599660666L848.2325243222658 435.0500294290757L847.8516774573272 435.24045286154455L847.0899837274519 437.3316483744761L844.8083647820522 437.3316483744761L840.6259737561886 437.14122494200706L840.245126891251 437.14122494200706L834.1585015406981 439.6132673198765L828.0718761901462 438.4741889692898L823.5086382993459 440.18453761728347L811.7162344631788 434.6691825641378L811.7162344631788 434.478759131669L811.7162344631788 433.33968078108205L814.3787002735171 432.1971401862686L814.7595471384548 432.00671675379954L815.521240868331 430.4867915382747L815.521240868331 430.10594467333704L810.9545407333035 426.6817851331232L810.5736938683649 426.49136170065435L810.9545407333035 424.78101305266046L810.9545407333035 424.5905896201916L805.6296091126269 424.01931932278467L805.2487622476892 424.01931932278467L800.3046774919503 421.3568535124464L799.542983762075 420.9760066475087L799.1621368971364 420.9760066475087L791.5555863310601 424.2097427552537L788.5122736557832 423.6384724578468L787.7540421701342 424.01931932278467L787.3731953051965 423.82889589031583L786.2306547103835 424.9714364851295L783.9490357649829 426.30093826818506L782.4256483052313 428.2017103486478L782.04826368452 428.58255721358546L778.2432572793687 429.72509780839914L777.4815635494924 430.4867915382747L774.4382508742165 431.62586988886187L772.5374787937544 432.00671675379954L767.2125471730778 428.9634040785236L767.5933940380155 426.872208565592L761.1259218225259 424.78101305266046L759.9868434719383 420.404736350102L747.4327459058968 416.7936156216456L740.9652736904063 409.56444967628L731.0771041789285 408.61233251393537L727.6529446387149 407.2828307308796L722.3280130180383 408.42537132569305L714.3406155870234 408.61233251393537L699.885745940519 420.9760066475087L689.2358826991654 414.88938129695634L678.9668663227503 412.22691548661805L667.1744624865842 414.3181109995496L661.0878371360313 412.98860921649407L656.1437523802929 415.0798047294252L649.2954332998652 419.6430426202262L637.5064917079249 411.8460686216804L635.6022573832361 403.85867119066575L645.4938891389397 400.0571270297405L645.113042274002 390.35591870650546L654.2429802998304 381.0355572482081L653.4812865699546 378.3730914378698L676.6852473773502 344.9001142540594L688.4741889692896 350.4154693072046L696.0842017795935 352.31970363189384L702.9290586157945 352.5101270643629L714.3406155870234 356.31167122528814L716.6222345324236 353.8396288474187L723.4705536128517 353.0779351175429L729.934563584115 348.5146972267423L734.501263719143 347.37215663192865L734.501263719143 345.8522314164038L737.9219610151295 345.2809611189971L740.9652736904063 342.2376484437211L753.138524391511 340.14645293078956L758.8443028771253 340.14645293078956L762.2684624173389 337.1031402555136L765.6926219575525 335.7736384724576L768.3550877678908 332.5399023647126L766.8317003081402 331.58778520236797L768.3550877678908 327.97320222968506L762.2684624173389 327.78624104144296L760.3642280926497 326.45327701416045L761.8876155524013 325.12031298687793L763.026693902988 325.5011598518156L764.5500813627395 323.6003877713533L764.169234497801 322.45784717653964L766.0700065782639 318.4658795831456L771.7757850638782 315.04172004293173L773.6800193885674 312.37925423259344L772.5374787937544 309.5263649897861L782.04826368452 301.9198144237091L782.4256483052313 297.54353772115064L784.3298826299206 297.54353772115064L783.1873420351067 296.4044593705639L783.9490357649829 295.4523422082191L788.5122736557832 292.59945296541196L787.3731953051965 292.02818266800523L789.6548142505972 290.8891043174183L792.3172800609354 283.0921303188725L806.3913028425022 275.6725409410378L807.1529965723785 274.34303915798205L809.0537686528405 274.5334625904509L809.8154623827159 273.58134542810626L813.2361596787041 272.8196516982305L815.1403940033924 270.34760932036124L814.3787002735171 268.82768410483664L817.422012948793 265.2131011321537L815.8986254890415 262.9314821867531L816.6603192189177 261.7889415919399L812.477928193055 259.6977460790083L811.7162344631788 258.55520548419463L813.9978534085794 255.7023162413875L814.3787002735171 252.47204237786923L815.521240868331 251.51992521552438L806.3913028425022 248.09576567531053L796.4996710867981 250.37738462071115L792.3172800609354 249.99653775577303L791.5555863310601 248.47661254024842L792.6981269258731 246.0045701623792L791.5555863310601 243.7229512169788L800.3046774919503 240.67963854170262L806.0104559775646 235.54513035349487L812.477928193055 232.12097081328102L814.3787002735171 229.83935186788062L821.6044039746566 225.84392203025982L828.0718761901462 225.2726517328531L829.2144167849601 226.2247688951977L832.6351140809475 226.2247688951977L836.4401204860987 224.7048436796731L842.145898971713 224.32399681473498L848.6133711872035 227.74469411072255L847.8516774573272 229.83935186788062L850.8949901326041 230.7880067859985L852.7957622130671 233.4504725963368L852.0340684831908 235.16428348855698L849.7524495377902 235.925977218433L847.8516774573272 238.7788664612401L846.3317522418029 239.53709794688893L845.5700585119275 241.81871689228933L838.3408925665617 246.76626389225476L831.4960357303607 249.6191531350621L831.8768825952984 250.18696118824187L836.0592736211611 250.56780805318L842.9075927015892 254.5632378908008L847.4708305923896 255.13450818820752L849.7524495377902 259.3168992140704L853.9383028078801 260.6498632413527L857.3624623480937 260.6498632413527L865.3498597791086 252.66246581033806L866.4889381296953 254.18239102586267L869.9130976699098 253.99196759339384L873.7181040750611 257.4161271336079L874.8571824256478 257.03528026867L877.1388013710484 260.4594398088839L887.0304331267525 261.7889415919399L884.7488141813528 265.40352456462256L881.705501506076 265.9747948620295L881.3246546411383 267.68514351002295L882.8445798566627 271.10930305023703L884.7488141813528 271.8709967801126L883.9871204514766 274.152615725513L885.8878925319395 277.9541598864382L885.5070456670019 279.0967004812517L889.3120520721532 283.8503618045215L888.5503583422769 285.18332583180404L890.4545926669671 285.9450195616796L889.3120520721532 288.41706193954883L892.7362116123668 291.6507980472941L894.2561368278912 294.31326385763236L899.9619153135063 294.6906484783435L904.1477685835962 296.4044593705639L914.4167849600108 294.88107191081235L916.6984039054114 293.93241699269447L918.980022850812 291.2699511823562L923.5467229858396 292.59945296541196L926.2091887961778 294.6906484783435L936.0973583076548 292.7898763978808L939.5215178478684 295.0714953432812L942.9456773880829 295.6427656406879L943.7073711179582 293.1707232628187L945.6081431984212 291.8377592355364L950.5522279541601 293.74199356022564L954.7380812242491 292.7898763978808L955.8771595748367 291.46037461482524L959.3013191150503 291.6507980472941L961.5829380604509 289.74656372260483L960.8212443305747 288.03621507461116L965.3879444656022 286.70325104732865L965.3879444656022 284.2312086694592L967.2887165460652 282.14001315652786L968.0504102759405 283.0921303188725L975.6569608420177 283.46951493958363L980.9818924626943 287.46494477720444L987.8302115431225 293.74199356022564L990.1118304885231 297.3531142886818L992.0126025689851 297.3531142886818L993.5359900287367 300.01558009901987L997.7183810545994 301.15812069383355L997.7183810545994 302.300661288647L1000 303.630163071703L999.241768514351 304.9631270989855L1000 306.67347574697897L997.7183810545994 309.5263649897861L996.956687324724 308.57424782744147L996.198455839075 310.09763528719304L994.6750683793234 309.9072118547242L995.0559152442611 311.04975244953744L992.7742962988605 312.1888308001246L992.3934494339228 313.5217948274069L990.1118304885231 313.5217948274069L991.6317557040475 315.23214347540056L990.8735242183984 317.3233389883321L992.0126025689851 320.3666516636081L985.5451303534946 324.3620815012289L982.8826645431573 324.3620815012289L983.6443582730326 325.6915832842849L981.362739327632 325.5011598518156L982.1244330575082 327.214970744036L979.0811203822313 330.44870685178125L979.0811203822313 332.34947893224376L972.6136481667418 336.1544853373955L974.8952671121415 337.4839871204513L972.6136481667418 338.055257417858L973.3753418966171 339.57518263338284L969.9511823564035 341.0985700931342L971.8519544368655 343.95145933594154L969.9511823564035 346.04265484887264Z" stroke="#FFFFFF" stroke-opacity="0.75" stroke-width="1" stroke-linecap="round" stroke-linejoin="round" fill="#D3D3D3"/>
		<path name="阿拉善盟" d="M279.19191219748654 625.428452723055L277.67198698196216 631.1307689644425L278.4336807118375 638.1695114773393L284.5168438181631 648.6289512862234L286.04023127791424 653.9538829068999L294.7893224388049 657.187619014645L296.6900945192674 659.0883910951077L298.9717134646676 658.7110064743963L300.87594778935727 660.0405082574521L312.284042516359 661.5638957172034L317.61243638126234 664.7941695807219L317.61243638126234 667.4566353910602L319.89405532666296 671.8329120936189L328.2622996226155 673.7336841740812L335.86885018869225 680.0107329571024L332.4446906484782 683.0540456323788L330.9247654329538 684.5739708479032L330.9247654329538 688.3789772530552L330.163071703078 689.3310944153998L331.6864591628291 691.4222899283311L331.6864591628291 695.4142575217254L333.2063843783544 696.9376449814768L332.0638437835405 697.8862998995946L332.8255375134163 699.600110791815L327.5006058927397 700.7391891424018L326.35806529792626 702.643423467091L331.30561229789146 705.4963127098981L331.30561229789146 707.016237925423L329.02053110826455 708.3492019527055L326.7389121628639 707.3970847903609L322.17567427206313 710.8212443305749L316.0890489215112 711.2020911955126L315.7082020565731 715.5749056538446L311.1449641657723 715.3844822213757L309.62157670602073 717.6661011667759L308.1016514904959 721.8519544368655L305.0583388152204 724.514420247204L305.8200325450957 725.6569608420175L302.7767198698198 728.5063878405979L302.7767198698198 730.0297753003495L301.25333241006865 733.0730879756254L301.25333241006865 736.8746321365506L300.114254059481 743.1516809195718L301.25333241006865 744.8654918117923L300.114254059481 747.7183810545994L298.5908665997299 748.0957656753105L298.213481979019 750.9486549181177L300.4951009244196 755.5153550531452L299.3525603296057 756.844856836201L299.3525603296057 759.6977460790081L297.83263511408086 762.5506353218152L292.88508811411566 762.7410587542843L291.3651628985913 765.5939479970914L282.9969186026383 765.2131011321535L263.5979642003945 771.6805733476435L250.6664820136416 772.2518436450503L250.28563514870348 773.9621922930439L242.6756223384 775.6760031852643L232.02575909704683 769.0181075373052L225.18090226084541 762.7410587542843L215.67011737007942 760.078592943946L214.1501921545546 753.2337361077446L214.90842364020364 751.900772080462L220.23681750510696 749.238306270124L219.47512377523117 745.4332998649722L216.43181109995476 741.4413322715782L224.03836166603196 740.1083682442957L233.5491465567984 731.7401239483431L233.5491465567984 729.4585050029427L237.3506907177234 724.3239968147352L242.6756223384 721.8519544368655L243.43731606827532 717.6661011667759L238.1123844475992 710.6308208981059L239.63577190735032 706.0675830073051L231.26752761139824 704.5441955475537L214.1501921545546 708.9204722501122L210.7260326143405 711.9603226811616L202.35778831838797 716.9078696811268L187.90291867188307 714.6227884914999L182.19714018626883 711.9603226811616L176.11051483571646 714.2454038707888L161.27826056850063 717.288716546065L169.2656579995155 724.514420247204L159.7548731087495 732.1209708132808L155.95332894782405 731.359277083405L153.29086313748576 732.1209708132808L151.00578194785885 730.2201987328183L143.39923138178165 727.9385797874179L144.16092511165743 726.4151923276663L141.11761243638148 725.6569608420175L139.21684035591852 722.6136481667413L140.3559187065057 719.9511823564033L131.2294429249041 722.6136481667413L130.46774919502832 718.8086417615896L127.42443651975236 720.1381435446451L127.0435896548147 716.717446248658L128.1861302496277 715.7653290863134L125.90104906000079 706.0675830073051L115.63203268358575 706.0675830073051L113.35041373818513 703.7825018176777L109.16456046809571 703.0242703320289L108.78717584738433 699.600110791815L106.50209465775743 696.9376449814768L102.3197036318943 696.175951251601L87.48398712045173 690.4701727659867L80.63913028425077 690.6605961984556L89.00737458020285 686.0973583076548L93.57061247100364 685.526088010248L95.4713845514666 681.7210816050961L101.93885676695618 677.1578437142953L101.93885676695618 668.5991759858737L104.98216944223259 664.6037461482529L104.2204757123568 660.8022019873279L100.4189315514318 655.6676937991203L95.85223141640427 652.0531108264374L89.7656060658519 651.4818405290307L73.40996433888449 657.5684658795828L68.8467264480837 656.6163487172382L68.8467264480837 660.8022019873279L65.80341377280774 662.5125506353213L63.52179482740712 661.7508569054457L61.62102274694507 658.5205830419275L55.53439739639225 662.5125506353213L55.91524426133037 665.1750164456598L52.11023785617817 662.8933975002594L50.96769726136472 660.0405082574521L47.54699996537738 660.2309316899209L49.44777204584034 662.8933975002594L39.559602534362966 668.4087525534048L39.559602534362966 654.144306339369L29.667970778658855 648.8193747186922L27.386351833258686 646.347332340823L11.411556971228492 636.4591628293456L11.411556971228492 635.1261988020633L23.20049856316882 628.6587265865733L0 589.1025862964373L35.373749264273556 594.0466710521757L80.63913028425077 597.0899837274519L96.99477201121772 594.2370944846448L107.26378838763276 594.6179413495825L108.78717584738433 592.9041304573623L127.42443651975236 593.4754007547688L159.7548731087495 599.1811792403832L170.02735172939083 608.8789253193918L182.57798705120695 611.5448533739566L191.70792507703527 611.3544299414878L215.67011737007942 620.4809057230893L231.26752761139824 623.5242183983655L238.87407817747453 623.3337949658965L254.46802617456615 621.0521760204961L254.46802617456615 628.090918533393L268.16120209119526 628.6587265865733L270.823667901534 630.7533843437313L279.19191219748654 625.428452723055Z" stroke="#FFFFFF" stroke-opacity="0.75" stroke-width="1" stroke-linecap="round" stroke-linejoin="round" fill="#D3D3D3"/>
		<path name="锡林郭勒盟" d="M483.8347817055019 568.9419381643179L494.4846449468546 564.9465083266971L497.90880448706866 565.1369317591659L505.8962019180831 559.0503064086138L511.98282726863545 557.720804625558L511.98282726863545 553.7253747879372L509.32036145829716 549.923830627012L501.3329640272823 544.9762836270468L497.90880448706866 540.9843160336529L496.76626389225476 537.7505799259077L493.7229512169788 536.2306547103831L493.34210435204113 535.0881141155694L495.62718554166804 530.3344527922998L498.28965135200633 527.4815635494926L499.0478828376554 522.537478793754L504.7536613232696 514.3561956860435L512.3636741335736 509.98338122771156L528.3384689956029 510.36422809264945L534.4250943461552 515.3083128483879L540.8891043174185 517.7803552262574L570.179690475366 521.5853616314091L579.6870131219052 515.6891597133258L586.5353322023334 514.3561956860435L588.8169511477336 511.50330644323617L598.7085829034381 505.2297199044417L602.129280199425 499.3335179863584L607.8350586850397 497.8101305266073L616.5841498459299 499.7143648512965L629.5156320326832 499.3335179863584L641.3080358688503 496.8614756084892L653.1004397050165 489.2514627981857L658.0445244607558 488.8740781774743L661.8495308659071 486.0211889346672L661.4686840009695 483.3587231243291L660.326143406156 482.40660596198427L661.4686840009695 479.1728698542395L672.4993941072603 467.9517363154796L678.5860194578127 466.8126579648924L680.8676384032133 464.9084236402032L698.7466675899313 465.6701173700792L701.4091334002701 460.3451857494024L701.028286535332 458.2539902364708L703.3099054807321 457.49229650659527L707.8731433715334 457.49229650659527L711.2973029117475 460.3451857494024L715.8605408025483 459.58349201952683L718.1456219921756 457.1114496416576L731.8387979088047 452.5482117508566L737.1637295294804 453.6872901014435L741.346120555344 454.0681369663814L743.2503548800332 453.30644323650563L748.5752865007098 454.2585603988505L748.1944396357721 453.6872901014435L750.0952117162342 451.786518020981L751.9959837966971 451.4056711560431L753.5193712564487 453.1160198040368L756.1818370667861 452.35778831838775L759.9868434719383 455.7819478586016L763.4075407679256 455.59152442613276L766.0700065782639 456.92102620918854L774.8190977391541 456.15933247931275L780.1440293598307 457.49229650659527L782.806495170169 456.3497559117816L783.5681889000443 454.63940726378814L786.9923484402589 455.21067756119487L794.5988990063361 459.20264515458894L790.7938926011839 463.57892185714763L788.8931205207218 463.76934528961647L785.4689609805073 468.903853477824L786.2306547103835 470.99504899075555L785.4689609805073 472.13758958556923L786.6115015753212 473.65751480109384L784.3298826299206 476.89125090883886L785.4689609805073 478.6015995568325L790.0356611155348 480.50583388152177L788.8931205207218 483.3587231243291L789.6548142505972 485.06907177232256L785.849807845445 487.5411141501918L784.3298826299206 490.2035799605301L775.961638333968 489.2514627981857L774.8190977391541 491.5365439878126L773.2991725236297 491.5365439878126L771.0175535782291 494.3894332306197L766.8317003081402 496.4806287435513L763.7883876328633 502.7576775265725L768.3550877678908 504.46802617456615L766.8317003081402 507.32091541737327L766.4508534432016 510.5546515251183L765.3117750926149 511.3163452549941L766.0700065782639 512.6458470380499L763.026693902988 513.2171173354566L761.8876155524013 514.9274659834502L759.6059966070006 514.3561956860435L758.0826091472491 515.3083128483879L758.4634560121867 517.5899317937885L761.8876155524013 519.8715507391889L762.2684624173389 521.966208496347L759.6059966070006 523.295710279403L759.225149742063 525.1999446040923L757.7017622823114 525.3869057923343L754.281064986324 528.6206419000794L747.4327459058968 532.0448014402934L742.488661150157 531.2831077104177L738.6836547450057 533.1873420351069L737.544576394419 535.2785375480385L735.2594952047921 536.608039331094L730.6962573139908 536.9888861960321L729.934563584115 539.0835439531902L726.13301942319 540.413045736246L724.9904788283766 542.8850881141152L723.4705536128517 543.83720527646L717.7647751272375 543.2659349790531L714.3406155870234 545.5475539244535L712.0589966416228 544.2180521413977L708.6348371014092 545.1667070595156L697.6041269951179 542.8850881141152L694.9416611847801 546.1188242218605L685.050029429076 548.5908665997297L686.9542637537652 552.9671433022884L686.1925700238894 553.9157982204063L686.1925700238894 556.9591108956822L683.9109510784888 559.0503064086138L680.4867915382747 560.0024235709584L678.9668663227503 561.7127722189521L679.347713187688 564.188276841048L674.0193193227851 564.5656614617594L672.4993941072603 565.327355191635L672.1185472423226 567.4185507045665L668.3170030813972 568.751514731849L664.5119966762454 575.4094103798079L664.8928435411835 578.6396842433262L669.836928296922 580.9247654329533L675.1618599175986 584.9167330263474L675.1618599175986 589.6703943496173L673.2610878371361 593.4754007547688L674.0193193227851 596.5187134300452L679.7250978083994 596.5187134300452L682.3875636187377 598.8003323754456L683.1492573486134 603.176609078004L683.5301042135511 609.8310424817362L680.4867915382747 609.6406190492673L679.347713187688 610.5927362116122L682.7684104836753 613.0647785894814L682.0101789980267 616.6793615621643L679.347713187688 617.6280164802822L677.4434788629992 616.8697849946334L676.6852473773502 618.5801336426268L672.1185472423226 619.1514039400338L669.0752345670462 617.4375930478134L665.6510750268321 618.5801336426268L666.0319218917703 616.8697849946334L663.7503029463701 616.2985146972264L659.9487587854446 618.7705570750957L658.8062181906312 621.2425994529654L656.1437523802929 621.2425994529654L655.3820586504171 622.1947166153097L656.1437523802929 623.5242183983655L654.2429802998304 624.2859121282413L652.3387459751411 624.2859121282413L649.2954332998652 618.5801336426268L646.6329674895269 618.7705570750957L635.6022573832361 624.4763355607101L628.7574005470346 626.3771076411729L628.3765536820965 627.5196482359861L629.8964788976214 630.1821140463244L628.3765536820965 630.7533843437313L626.4757816016345 629.9916906138556L625.3332410068206 631.3211923969113L620.7700031160198 629.8012671813867L612.7791434407786 630.5629609112625L613.9216840355921 627.7100716684552L612.7791434407786 623.7146418308346L615.4450714953432 622.3851400477786L614.3025309005297 621.623446317903L614.3025309005297 616.6793615621643L610.497524495378 611.5448533739566L609.739293009729 609.6406190492673L606.3151334695149 608.6919641311495L606.3151334695149 607.1685766713981L602.8909739293013 606.5973063739914L596.8043485787489 610.2118893466743L598.7085829034381 611.3544299414878L598.7085829034381 612.6839317245435L593.7610359034725 610.2118893466743L590.3403386074856 611.1640065090189L589.5786448776098 612.3030848596059L586.1544853373957 612.3030848596059L585.0119447425823 613.4456254544193L585.7736384724581 614.584703805006L584.6345601218713 615.155974102413L585.7736384724581 616.4889381296955L584.2537132569328 618.1992867776889L580.0678599868434 617.4375930478134L578.9287816362566 614.7751272374751L575.504622096043 614.3942803725372L572.4613094207666 612.1126614271368L569.4179967454902 612.8743551570126L565.9938372052761 611.5448533739566L561.8114461794135 611.5448533739566L559.1489803690752 612.3030848596059L553.0623550185232 618.3897102101578L550.3998892081845 618.9609805075647L549.2573486133715 617.0602084271022L546.9757296679704 617.0602084271022L544.3132638576326 614.7751272374751L543.9324169926949 613.2552020219503L540.8891043174185 612.6839317245435L538.2266385070802 610.5927362116122L538.2266385070802 609.4501956167985L535.5641726967419 606.978153238929L535.94501956168 605.0773811584668L534.4250943461552 605.0773811584668L534.8024789668666 602.9861856455352L523.7717688605753 602.7957622130664L522.2518436450509 600.1332964027279L513.5027524841603 595.1857494027627L508.1778208634837 588.1504691340924L508.55866772842137 585.4880033237541L500.5712702974065 580.5439185680154L498.28965135200633 576.9293355953325L496.0045701623794 575.4094103798079L491.4413322715782 574.838140082401L483.8347817055019 568.9419381643179Z" stroke="#FFFFFF" stroke-opacity="0.75" stroke-width="1" stroke-linecap="round" stroke-linejoin="round" fill="#D3D3D3"/>
		<path name="鄂尔多斯市" d="M339.2930097289063 718.9990651940584L343.47540075476945 718.8086417615896L345.37963507945824 714.8132119239688L345.7570197001696 710.4403974656368L340.0512412145554 711.2020911955126L339.2930097289063 710.4403974656368L339.2930097289063 702.643423467091L337.7696222691552 697.8862998995946L337.38877540421663 693.5134854412627L339.673856593844 689.5180556036419L331.6864591628291 691.4222899283311L330.163071703078 689.3310944153998L330.9247654329538 688.3789772530552L330.9247654329538 684.5739708479032L332.4446906484782 683.0540456323788L335.86885018869225 680.0107329571024L340.8129349444307 676.9674202818264L341.9554755392446 674.495377903957L345.7570197001696 672.5946058234945L344.9987882145206 669.9321400131562L347.66125402485886 668.4087525534048L346.1378665651073 667.6470588235293L346.1378665651073 665.9367101755354L347.2804071599212 666.3175570404733L351.4627981857843 663.4646677976662L355.64865145587373 662.8933975002594L360.211889346675 660.611778554859L360.59273621161265 659.2788145275765L364.77858948170206 659.0883910951077L365.5368209673511 656.6163487172382L369.3418273725033 655.6676937991203L378.8526122632693 656.9971955821761L381.13423120866946 655.2868469341824L383.4158501540701 657.9493127445207L389.8833223695601 657.7588893120517L392.16494131496074 660.4213551223902L394.0657133954228 660.8022019873279L395.58910085517437 663.0838209327283L399.77149188103704 665.1750164456598L401.6722639615 664.7941695807219L401.2914170965619 666.6984039054112L405.4772703666513 666.5079804729421L408.5205830419277 667.6470588235293L410.04050825745253 667.0792507703491L409.2822767718035 665.9367101755354L409.6596613925144 665.9367101755354L412.7029740677908 667.2662119585912L413.4646677976666 666.6984039054112L414.22636152754194 668.027905688467L417.650521067756 668.9800228508116L419.93214001315664 668.027905688467L420.3129868780943 669.3608697157495L423.35629955337026 669.9321400131562L424.87622476889555 669.3608697157495L424.87622476889555 668.027905688467L429.06207803898496 666.8888273378802L431.72454384932325 667.2662119585912L432.48277533497185 668.5991759858737L434.38700965966154 669.5512931482185L441.61271336080017 667.6470588235293L448.8384170619397 668.4087525534048L450.7426513866285 666.8888273378802L452.2625766021538 667.6470588235293L453.40511719696724 669.5512931482185L454.1633486826163 668.9800228508116L454.9250424124916 670.1191012013985L456.8292767371813 670.1191012013985L459.1108956825815 672.2137589585566L460.63082089810587 672.0233355260877L461.01166776304444 673.1624138766745L462.15420835785744 672.7850292559633L466.7174462486587 675.2570716338328L468.99906519405886 675.0666482013637L468.99906519405886 675.8248796870128L470.14160578887277 675.6344562545439L471.66153100439715 676.7769968493576L473.9431499497973 676.0153031194816L475.847384274487 677.5386905792332L479.648928435412 675.6344562545439L489.5405601911161 680.7724266869782L492.9647197313302 684.5739708479032L494.1037980819169 689.3310944153998L491.0604854066405 695.2238340892563L493.7229512169788 697.5089152788835L493.7229512169788 698.2671467645325L494.86549181179225 699.4096873593462L494.1037980819169 699.2192639268771L493.7229512169788 702.4530000346222L490.67963854170284 705.8771595748362L484.5964754353772 705.8771595748362L483.07308797562564 707.9683550877676L481.9340096250389 707.7779316552985L481.9340096250389 706.6353910604851L480.4106221652878 706.0675830073051L483.8347817055019 701.8817297372154L483.07308797562564 700.3618045216906L475.0856905446112 702.8338468995598L470.14160578887277 707.9683550877676L468.23737146418307 711.3925146279817L464.4358273032576 710.6308208981059L462.5315929785688 707.3970847903609L461.01166776304444 708.3492019527055L458.73004881764336 707.016237925423L457.58750822283037 709.8691271682301L451.50088287227754 704.9250424124914L448.8384170619397 705.1154658449605L448.8384170619397 707.016237925423L451.50088287227754 710.4403974656368L444.6560260360766 713.2932867084442L440.0927881452758 711.3925146279817L439.7119412803381 712.3411695460995L442.7552539556141 713.8645570058509L435.52608801024826 718.9990651940584L431.34369698438513 725.2761139770796L429.06207803898496 726.7960391926044L427.1578437142957 726.2247688951975L424.87622476889555 727.9385797874179L423.35629955337026 730.4106221652871L421.07121836374336 731.359277083405L421.83291209361914 733.8347817055012L418.78959941834273 733.8347817055012L411.183048852266 740.2987916767645L411.183048852266 741.631755704047L409.6596613925144 742.7708340546337L407.37804244711424 748.8574594051861L411.183048852266 751.900772080462L411.94474258214177 753.9919675933936L407.37804244711424 757.6065505660765L404.3347297718383 754.1823910258624L402.4339576913758 753.611120728456L403.57649828618923 755.8962019180829L402.0531108264381 757.4161271336077L402.4339576913758 765.7843714295605L400.15233874597516 765.9747948620293L399.39064501609937 767.1173354568427L394.8274071252986 767.3077588893116L394.4465602603609 766.1652182944981L392.9231728006098 765.9747948620293L386.0783159644079 767.8755669424918L383.4158501540701 766.9269120243739L379.991690613856 768.4468372398987L375.4284527230552 766.9269120243739L375.8092995879929 765.5939479970914L373.9050652633041 762.3602118893464L365.9176678322892 760.4594398088836L364.39774261676394 759.3168992140704L359.07281099608736 758.5586677284214L357.16857667139857 757.0352802686698L354.5061108610603 757.0352802686698L354.12526399612216 754.5632378908006L346.51871343004495 749.8095765675307L341.19378180936883 751.1390783505865L324.45729321746376 746.3854170273169L322.17567427206313 743.5325277845097L326.7389121628639 740.4892151092333L327.88145275767783 738.398019596302L329.78222483814034 730.0297753003495L338.91216286396866 722.4232247342725L339.2930097289063 718.9990651940584Z" stroke="#FFFFFF" stroke-opacity="0.75" stroke-width="1" stroke-linecap="round" stroke-linejoin="round" fill="#D3D3D3"/>
		<path name="赤峰市" d="M768.3550877678908 504.46802617456615L777.8624104144301 508.8408406328979L781.6674168195823 515.498736280857L785.0915763597968 516.4508534432016L791.5555863310601 521.0140913340024L794.2180521413984 525.0095211716232L796.1222864660867 525.5773292248034L800.685524356888 529.9536059273619L806.0104559775646 538.5122736557832L811.7162344631788 538.8931205207214L815.1403940033924 542.1233943842396L815.8986254890415 544.2180521413977L813.9978534085794 545.3571304919847L817.0411660838554 549.5429837620743L817.422012948793 552.7767198698193L824.6477166499326 559.2407298410826L823.1277914344073 560.5736938683651L814.3787002735171 564.3752380292904L812.0970813281174 566.8507426513863L804.8679153827507 568.9419381643179L817.0411660838554 567.6089741370354L806.7721497074408 575.7867950005191L806.3913028425022 577.3101824602704L804.4905307620402 578.2588373783885L804.8679153827507 578.6396842433262L802.2054495724124 579.9726482706089L804.4905307620402 583.7776546757605L804.1096838971016 585.868850188692L806.7721497074408 587.9600457016236L806.0104559775646 590.6225115119616L811.7162344631788 599.75244953779L816.2794723539791 602.9861856455352L820.8461724890076 607.549423536336L807.1529965723785 612.6839317245435L807.5303811930899 614.7751272374751L806.3913028425022 616.2985146972264L801.828064951701 617.4375930478134L800.3046774919503 620.2904822906205L796.8805179517358 621.8138697503719L793.8372052764607 627.1388013710484L791.5555863310601 626.7579545061105L791.9364331959978 622.9529481009588L784.7107294948582 613.0647785894814L784.7107294948582 609.4501956167985L781.2865699546446 609.4501956167985L777.1007166845548 607.9302704012739L774.4382508742165 606.4068829415223L774.8190977391541 604.5061108610598L772.9183256586921 603.5539936987152L770.6367067132915 605.8390748883423L765.6926219575525 607.549423536336L764.169234497801 609.6406190492673L766.0700065782639 612.3030848596059L769.1133192535399 613.826472319357L765.6926219575525 624.0954886957725L766.8317003081402 625.8058373437659L766.4508534432016 629.0395734515109L769.8750129834152 630.7533843437313L768.3550877678908 631.7020392618492L769.4941661184776 634.5549285046563L768.3550877678908 636.6461240175879L766.4508534432016 637.4078177474635L767.2125471730778 639.6894366928639L763.026693902988 641.4032475850843L751.9959837966971 641.0224007201464L750.8569054461095 640.4511304227397L750.4760585811719 637.9790880448704L746.6710521760206 640.070283557802L744.3894332306199 639.1216286396839L740.5878890696949 638.931205207215L734.501263719143 640.4511304227397L733.3587231243291 639.8798601253332L732.9778762593915 636.2687393968768L730.6962573139908 635.3166222345321L732.2196447737424 633.6062735865385L731.8387979088047 631.7020392618492L729.176332098466 631.3211923969113L726.13301942319 626.1866842087038L726.8912509088386 623.1433715334276L728.7954852335283 623.1433715334276L730.3154104490527 624.857182425648L732.9778762593915 622.1947166153097L730.3154104490527 619.1514039400338L731.4579510438666 618.7705570750957L731.4579510438666 616.8697849946334L729.5537167191774 616.2985146972264L731.0771041789285 614.584703805006L729.5537167191774 613.4456254544193L728.0337915036525 615.3463975348818L725.3713256933142 615.3463975348818L726.5138662881282 614.0168957518263L724.2287850985008 612.8743551570126L724.6096319634385 610.4023127791431L720.0463940726377 608.3111172662116L723.0897067479141 606.7877298064602L721.5663192881625 605.0773811584668L721.9471661531002 603.176609078004L716.6222345324236 599.1811792403832L714.3406155870234 595.7570197001694L708.6348371014092 596.8995602949828L703.6907523456707 595.9474431326382L702.5482117508568 598.8003323754456L700.6474396703943 598.6099089429767L699.885745940519 600.7011044559079L689.616729564103 599.942872970259L683.1492573486134 603.176609078004L682.3875636187377 598.8003323754456L679.7250978083994 596.5187134300452L674.0193193227851 596.5187134300452L673.2610878371361 593.4754007547688L675.1618599175986 589.6703943496173L675.1618599175986 584.9167330263474L669.836928296922 580.9247654329533L664.8928435411835 578.6396842433262L664.5119966762454 575.4094103798079L668.3170030813972 568.751514731849L672.1185472423226 567.4185507045665L672.4993941072603 565.327355191635L674.0193193227851 564.5656614617594L679.347713187688 564.188276841048L678.9668663227503 561.7127722189521L680.4867915382747 560.0024235709584L683.9109510784888 559.0503064086138L686.1925700238894 556.9591108956822L686.1925700238894 553.9157982204063L686.9542637537652 552.9671433022884L685.050029429076 548.5908665997297L694.9416611847801 546.1188242218605L697.6041269951179 542.8850881141152L708.6348371014092 545.1667070595156L712.0589966416228 544.2180521413977L714.3406155870234 545.5475539244535L717.7647751272375 543.2659349790531L723.4705536128517 543.83720527646L724.9904788283766 542.8850881141152L726.13301942319 540.413045736246L729.934563584115 539.0835439531902L730.6962573139908 536.9888861960321L735.2594952047921 536.608039331094L737.544576394419 535.2785375480385L738.6836547450057 533.1873420351069L742.488661150157 531.2831077104177L747.4327459058968 532.0448014402934L754.281064986324 528.6206419000794L757.7017622823114 525.3869057923343L759.225149742063 525.1999446040923L759.6059966070006 523.295710279403L762.2684624173389 521.966208496347L761.8876155524013 519.8715507391889L758.4634560121867 517.5899317937885L758.0826091472491 515.3083128483879L759.6059966070006 514.3561956860435L761.8876155524013 514.9274659834502L763.026693902988 513.2171173354566L766.0700065782639 512.6458470380499L765.3117750926149 511.3163452549941L766.4508534432016 510.5546515251183L766.8317003081402 507.32091541737327L768.3550877678908 504.46802617456615Z" stroke="#FFFFFF" stroke-opacity="0.75" stroke-width="1" stroke-linecap="round" stroke-linejoin="round" fill="#D3D3D3"/>
		<path name="巴彦淖尔市" d="M279.19191219748654 625.428452723055L281.0961465221758 625.428452723055L295.54755392445395 618.9609805075647L326.7389121628639 608.3111172662116L349.1811792403837 604.1252639961219L350.32371983519715 602.6053387805971L356.02949832081185 600.8915278883771L360.211889346675 602.4149153481283L372.3851400477788 602.7957622130664L383.4158501540701 600.7011044559079L403.9573451511269 602.9861856455352L410.4213551223902 600.8915278883771L422.9754526884326 601.2723747533148L425.6379184987709 604.6965342935287L427.1578437142957 610.783159644081L425.6379184987709 613.6360488868881L422.9754526884326 615.7272443998197L421.83291209361914 619.3418273725026L418.40875255340507 620.8617525880272L424.1145310390193 628.6587265865733L425.6379184987709 633.2254267216008L432.86362219990997 633.7966970190073L432.1019284700342 636.8365474500567L433.24446906484764 639.8798601253332L431.34369698438513 640.4511304227397L431.34369698438513 641.9745178824912L434.38700965966154 646.9186026382299L432.86362219990997 647.4898729356366L433.24446906484764 649.3906450160991L435.9069348751859 651.2914170965619L437.8077069556484 651.2914170965619L439.7119412803381 654.144306339369L440.4701727659867 655.8581172315892L436.28778174012405 659.6596613925142L431.34369698438513 660.611778554859L426.7769968493576 659.6596613925142L423.73368417408165 661.5638957172034L422.9754526884326 663.4646677976662L424.49537790395743 664.984593013191L424.87622476889555 668.027905688467L424.87622476889555 669.3608697157495L423.35629955337026 669.9321400131562L420.3129868780943 669.3608697157495L419.93214001315664 668.027905688467L417.650521067756 668.9800228508116L414.22636152754194 668.027905688467L413.4646677976666 666.6984039054112L412.7029740677908 667.2662119585912L409.6596613925144 665.9367101755354L409.2822767718035 665.9367101755354L410.04050825745253 667.0792507703491L408.5205830419277 667.6470588235293L405.4772703666513 666.5079804729421L401.2914170965619 666.6984039054112L401.6722639615 664.7941695807219L399.77149188103704 665.1750164456598L395.58910085517437 663.0838209327283L394.0657133954228 660.8022019873279L392.16494131496074 660.4213551223902L389.8833223695601 657.7588893120517L383.4158501540701 657.9493127445207L381.13423120866946 655.2868469341824L378.8526122632693 656.9971955821761L369.3418273725033 655.6676937991203L365.5368209673511 656.6163487172382L364.77858948170206 659.0883910951077L360.59273621161265 659.2788145275765L360.211889346675 660.611778554859L355.64865145587373 662.8933975002594L351.4627981857843 663.4646677976662L347.2804071599212 666.3175570404733L346.1378665651073 665.9367101755354L346.1378665651073 667.6470588235293L347.66125402485886 668.4087525534048L344.9987882145206 669.9321400131562L345.7570197001696 672.5946058234945L341.9554755392446 674.495377903957L340.8129349444307 676.9674202818264L335.86885018869225 680.0107329571024L328.2622996226155 673.7336841740812L319.89405532666296 671.8329120936189L317.61243638126234 667.4566353910602L317.61243638126234 664.7941695807219L312.284042516359 661.5638957172034L300.87594778935727 660.0405082574521L298.9717134646676 658.7110064743963L296.6900945192674 659.0883910951077L294.7893224388049 657.187619014645L286.04023127791424 653.9538829068999L284.5168438181631 648.6289512862234L278.4336807118375 638.1695114773393L277.67198698196216 631.1307689644425L279.19191219748654 625.428452723055Z" stroke="#FFFFFF" stroke-opacity="0.75" stroke-width="1" stroke-linecap="round" stroke-linejoin="round" fill="#D3D3D3"/>
		<path name="通辽市" d="M763.7883876328633 502.7576775265725L766.8317003081402 496.4806287435513L771.0175535782291 494.3894332306197L773.2991725236297 491.5365439878126L774.8190977391541 491.5365439878126L775.961638333968 489.2514627981857L784.3298826299206 490.2035799605301L790.7938926011839 492.29477547346164L801.0663712218256 493.62773950074416L804.8679153827507 495.3380881487376L805.2487622476892 496.6710521760201L807.5303811930899 496.6710521760201L809.4346155177782 498.381400824014L809.4346155177782 500.47259633694534L813.9978534085794 502.9481009590413L815.521240868331 504.84887303950404L818.9419381643183 504.6584496070352L823.8894851642835 506.36879825502865L823.1277914344073 508.4634560121867L825.4094103798079 510.7450749575871L825.7902572447465 512.6458470380499L838.7217394314994 517.2090849288506L840.245126891251 521.2045147664714L842.145898971713 521.7757850638782L842.5267458366507 523.4861337118718L845.5700585119275 524.6286743066853L852.0340684831908 532.2352248727623L857.3624623480937 533.9455735207557L858.5015406986813 535.0881141155694L856.981615483156 535.6593844129761L860.024928158432 536.9888861960321L864.9690129141709 538.5122736557832L868.7705570750959 538.3218502233144L870.6747913997851 539.4609285739014L874.8571824256478 539.4609285739014L883.2254267216003 537.3697330609698L885.5070456670019 534.8976906831006L895.3986774227051 530.1440293598307L898.4419900979819 529.763182494893L898.8228369629196 534.8976906831006L901.1044559083193 535.4689609805073L904.9060000692452 541.3651628985906L907.1910812588712 541.5555863310597L906.0485406640582 545.7379773569226L907.5719281238098 549.1621368971364L910.6117785548595 552.3958730048817L910.6117785548595 556.1974171658067L912.8968597444864 559.6215767060207L911.3734722847348 561.7127722189521L909.0918533393342 561.3353875982407L909.8535470692104 562.8553128137655L906.4293875289959 562.4744659488279L904.9060000692452 563.4265831111722L905.2868469341829 564.5656614617594L909.0918533393342 567.2281272720975L910.9926254197972 565.7082020565726L914.4167849600108 568.9419381643179L918.6026382301006 569.8905930824358L918.980022850812 571.0331336772495L917.4600976352876 572.9339057577117L915.5593255548247 580.3534951355466L913.6550912301354 581.8734203510712L910.2343939341481 580.7343420004845L903.0052279887823 582.2542672160093L900.7236090433817 584.5358861614095L899.9619153135063 586.6270816743411L901.8661496381956 587.9600457016236L896.5377557732918 589.8608177820861L890.0737458020285 590.0512412145551L889.3120520721532 591.7650521067753L884.3679673164143 589.4799709171484L880.1821140463244 589.4799709171484L878.2813419658623 587.9600457016236L872.1947166153104 587.7696222691545L872.5755634802481 589.8608177820861L875.2380292905855 590.241664647024L872.5755634802481 593.0945538898311L870.6747913997851 593.4754007547688L866.8697849946338 591.3842052418377L866.4889381296953 593.0945538898311L861.5448533739564 591.7650521067753L858.5015406986813 592.3328601599555L856.2199217532807 594.6179413495825L856.981615483156 595.7570197001694L855.8390748883421 597.2804071599207L849.7524495377902 601.2723747533148L847.8516774573272 601.4627981857839L845.9509053768652 598.8003323754456L843.2884395665269 599.942872970259L839.4834331613756 599.75244953779L827.3101824602709 607.549423536336L820.8461724890076 607.549423536336L816.2794723539791 602.9861856455352L811.7162344631788 599.75244953779L806.0104559775646 590.6225115119616L806.7721497074408 587.9600457016236L804.1096838971016 585.868850188692L804.4905307620402 583.7776546757605L802.2054495724124 579.9726482706089L804.8679153827507 578.6396842433262L804.4905307620402 578.2588373783885L806.3913028425022 577.3101824602704L806.7721497074408 575.7867950005191L817.0411660838554 567.6089741370354L804.8679153827507 568.9419381643179L812.0970813281174 566.8507426513863L814.3787002735171 564.3752380292904L823.1277914344073 560.5736938683651L824.6477166499326 559.2407298410826L817.422012948793 552.7767198698193L817.0411660838554 549.5429837620743L813.9978534085794 545.3571304919847L815.8986254890415 544.2180521413977L815.1403940033924 542.1233943842396L811.7162344631788 538.8931205207214L806.0104559775646 538.5122736557832L800.685524356888 529.9536059273619L796.1222864660867 525.5773292248034L794.2180521413984 525.0095211716232L791.5555863310601 521.0140913340024L785.0915763597968 516.4508534432016L781.6674168195823 515.498736280857L777.8624104144301 508.8408406328979L768.3550877678908 504.46802617456615L763.7883876328633 502.7576775265725Z" stroke="#FFFFFF" stroke-opacity="0.75" stroke-width="1" stroke-linecap="round" stroke-linejoin="round" fill="#D3D3D3"/>
		<path name="乌兰察布市" d="M455.6867361423674 591.1937818093684L465.9557525187829 584.1550392964716L468.61821832912074 579.9726482706089L478.1290032198872 571.4139805421871L483.8347817055019 568.9419381643179L491.4413322715782 574.838140082401L496.0045701623794 575.4094103798079L498.28965135200633 576.9293355953325L500.5712702974065 580.5439185680154L508.55866772842137 585.4880033237541L508.1778208634837 588.1504691340924L513.5027524841603 595.1857494027627L522.2518436450509 600.1332964027279L523.7717688605753 602.7957622130664L534.8024789668666 602.9861856455352L534.4250943461552 605.0773811584668L535.94501956168 605.0773811584668L535.5641726967419 606.978153238929L538.2266385070802 609.4501956167985L538.2266385070802 610.5927362116122L540.8891043174185 612.6839317245435L543.9324169926949 613.2552020219503L544.3132638576326 614.7751272374751L546.9757296679704 617.0602084271022L549.2573486133715 617.0602084271022L550.3998892081845 618.9609805075647L553.0623550185232 618.3897102101578L559.1489803690752 612.3030848596059L561.8114461794135 611.5448533739566L565.9938372052761 611.5448533739566L569.4179967454902 612.8743551570126L572.4613094207666 612.1126614271368L575.504622096043 614.3942803725372L578.9287816362566 614.7751272374751L580.0678599868434 617.4375930478134L584.2537132569328 618.1992867776889L585.7736384724581 616.4889381296955L584.6345601218713 615.155974102413L585.7736384724581 614.584703805006L585.0119447425823 613.4456254544193L586.1544853373957 612.3030848596059L589.5786448776098 612.3030848596059L590.3403386074856 611.1640065090189L593.7610359034725 610.2118893466743L598.7085829034381 612.6839317245435L598.7085829034381 611.3544299414878L596.8043485787489 610.2118893466743L602.8909739293013 606.5973063739914L606.3151334695149 607.1685766713981L606.3151334695149 608.6919641311495L609.739293009729 609.6406190492673L610.497524495378 611.5448533739566L608.9775992798532 612.6839317245435L600.6093549839006 612.4935082920747L599.0859675241495 615.155974102413L600.2285081189625 617.2471696153445L593.7610359034725 619.1514039400338L589.5786448776098 624.2859121282413L590.7177232281965 631.1307689644425L590.7177232281965 633.4158501540696L583.8728663919951 632.8445798566629L580.4487068517815 634.3645050721875L578.1670879063809 636.6461240175879L580.4487068517815 637.5982411799325L579.3096285011943 640.8319772876775L583.1111726621193 643.1135962330779L582.7303257971816 644.8274071252984L579.6870131219052 645.3952151784783L578.5479347713185 647.1090260706987L576.6437004466297 647.6802963681055L581.2104005816573 651.4818405290307L585.0119447425823 656.4259252847694L584.2537132569328 657.3780424471138L586.1544853373957 659.4692379600453L584.2537132569328 664.6037461482529L585.0119447425823 667.2662119585912L580.8295537167191 668.027905688467L578.5479347713185 670.1191012013985L575.8854689609807 668.218329120936L566.3746840702147 674.3049544714881L559.1489803690752 674.8762247688949L556.1056676937988 671.8329120936189L546.5948828030328 673.9241076065505L544.3132638576326 674.685801336426L542.4124917771696 679.058615794758L539.3691791018941 680.2011563895715L529.4775473461896 675.6344562545439L524.152615725513 677.1578437142953L520.7319184295261 670.4999480663364L515.4035245646228 666.6984039054112L516.5460651594367 665.3654398781289L514.6452930789737 662.8933975002594L516.9269120243744 663.2742443651973L517.6886057542497 661.3734722847346L516.5460651594367 660.4213551223902L518.4468372398987 659.6596613925142L519.5893778347122 657.187619014645L518.0694526191878 653.1956514212511L515.0261399439114 652.4339576913751L513.5027524841603 649.0097981511615L509.7012083232348 647.1090260706987L507.41612713360837 642.3519025032024L503.9954298376206 640.6415538552087L493.34210435204113 640.2607069902708L492.20302600145396 638.3599349098083L494.1037980819169 634.3645050721875L491.4413322715782 629.0395734515109L489.159713326178 628.8491500190421L481.55316276010126 624.4763355607101L471.66153100439715 610.5927362116122L468.61821832912074 599.75244953779L462.15420835785744 595.1857494027627L460.63082089810587 592.9041304573623L455.6867361423674 591.1937818093684Z" stroke="#FFFFFF" stroke-opacity="0.75" stroke-width="1" stroke-linecap="round" stroke-linejoin="round" fill="#D3D3D3"/>
		<path name="兴安盟" d="M774.4382508742165 431.62586988886187L776.7233320638434 431.245023023924L777.4815635494924 430.4867915382747L782.04826368452 428.58255721358546L782.04826368452 428.3921337811166L782.4256483052313 428.2017103486478L786.2306547103835 424.9714364851295L787.7540421701342 424.01931932278467L791.1747394661215 424.4001661877228L799.542983762075 420.9760066475087L800.3046774919503 421.3568535124464L801.4472180867633 422.6863552955024L805.2487622476892 424.01931932278467L805.6296091126269 424.01931932278467L810.9545407333035 424.5905896201916L810.5736938683649 426.49136170065435L810.9545407333035 426.6817851331232L815.521240868331 430.4867915382747L814.3787002735171 432.1971401862686L811.7162344631788 433.33968078108205L811.7162344631788 433.5301042135511L811.7162344631788 434.478759131669L811.7162344631788 434.6691825641378L811.7162344631788 434.85960599660666L823.5086382993459 440.18453761728347L828.0718761901462 438.4741889692898L834.1585015406981 439.6132673198765L840.245126891251 437.14122494200706L844.8083647820522 437.3316483744761L847.0899837274519 437.3316483744761L847.4708305923896 437.3316483744761L847.8516774573272 435.24045286154455L848.6133711872035 434.85960599660666L850.5141432676664 434.0979122667311L855.0773811584668 434.0979122667311L861.5448533739564 437.52207180694495L872.9564103451858 431.8162933213307L880.9438077762006 439.2324204549386L888.9312052072155 441.7079250770346L886.2687393968772 444.3703908873729L887.7921268566279 445.69989267042865L890.4545926669671 445.12862237302215L890.8354395319047 450.07616937298735L895.0178305577674 453.30644323650563L899.9619153135063 452.35778831838775L902.243534258906 448.74320534570484L907.9493127445203 447.41370356264906L906.8102343939336 444.56081431984194L904.5286154485339 444.74777550808403L905.2868469341829 443.41827372502826L909.4727002042728 445.12862237302215L912.5160128795487 445.12862237302215L910.9926254197972 449.3144756431118L913.6550912301354 449.69532250804946L914.4167849600108 447.2232801301802L915.178478689887 447.2232801301802L914.7976318249484 449.5048990755806L916.3175570404737 450.07616937298735L915.178478689887 454.0681369663814L904.1477685835962 455.21067756119487L902.243534258906 457.6827199390641L896.1603711525813 456.7306027767197L896.1603711525813 458.063566804002L894.2561368278912 458.82179828965127L894.6369836928297 463.57892185714763L900.342762178444 469.2847003427619L897.6802963681057 472.13758958556923L898.0611432330434 473.65751480109384L887.0304331267525 475.7487103140254L887.7921268566279 480.3154104490527L885.8878925319395 483.73610774504004L887.0304331267525 486.0211889346672L884.7488141813528 488.49323131253664L877.5196482359861 485.83076550219835L875.9997230204617 482.21618252951544L872.1947166153104 481.83533566457754L872.1947166153104 483.16829969185983L868.3931724543845 485.2594952047914L866.8697849946338 483.3587231243291L862.6873939687703 482.21618252951544L860.4023127791434 479.55371671917715L853.5574559429424 477.4625212062456L851.6566838624794 478.22075269189463L853.1766090780047 480.8832185022329L850.8949901326041 485.2594952047914L847.4708305923896 486.5889969878474L851.2758369975418 488.8740781774743L857.7398469688051 488.3028078800678L859.6440812934943 491.1556971228749L858.5015406986813 492.67562233839953L860.024928158432 495.5285115812069L865.3498597791086 497.4327459058961L865.7307066440462 498.57182425648284L864.5881660492332 502.3768306616346L867.2506318595715 503.13506214728363L868.0123255894468 505.2297199044417L863.4456254544193 507.70176228231117L863.826472319357 510.5546515251183L862.3065471038326 512.6458470380499L862.6873939687703 514.5466191185124L861.1640065090187 516.4508534432016L862.6873939687703 520.0619741716578L864.9690129141709 520.4428210365957L863.0682408337079 521.3949381989403L864.9690129141709 522.1566319288158L863.0682408337079 524.0574040092786L863.4456254544193 526.1485995222101L866.4889381296953 528.4302184676105L867.6314787245092 530.9057230897065L869.5322508049712 531.4735311428865L869.5322508049712 536.7984627635633L868.7705570750959 538.3218502233144L864.9690129141709 538.5122736557832L860.024928158432 536.9888861960321L856.981615483156 535.6593844129761L858.5015406986813 535.0881141155694L857.3624623480937 533.9455735207557L852.0340684831908 532.2352248727623L845.5700585119275 524.6286743066853L842.5267458366507 523.4861337118718L842.145898971713 521.7757850638782L840.245126891251 521.2045147664714L838.7217394314994 517.2090849288506L825.7902572447465 512.6458470380499L825.4094103798079 510.7450749575871L823.1277914344073 508.4634560121867L823.8894851642835 506.36879825502865L818.9419381643183 504.6584496070352L815.521240868331 504.84887303950404L813.9978534085794 502.9481009590413L809.4346155177782 500.47259633694534L809.4346155177782 498.381400824014L807.5303811930899 496.6710521760201L805.2487622476892 496.6710521760201L804.8679153827507 495.3380881487376L801.0663712218256 493.62773950074416L790.7938926011839 492.29477547346164L784.3298826299206 490.2035799605301L785.849807845445 487.5411141501918L789.6548142505972 485.06907177232256L788.8931205207218 483.3587231243291L790.0356611155348 480.50583388152177L785.4689609805073 478.6015995568325L784.3298826299206 476.89125090883886L786.6115015753212 473.65751480109384L785.4689609805073 472.13758958556923L786.2306547103835 470.99504899075555L785.4689609805073 468.903853477824L788.8931205207218 463.76934528961647L790.7938926011839 463.57892185714763L794.5988990063361 459.20264515458894L786.9923484402589 455.21067756119487L788.1314267908456 453.30644323650563L786.9923484402589 447.9815116158293L787.7540421701342 446.8424332652421L785.4689609805073 446.2711629678354L785.849807845445 445.12862237302215L783.1873420351067 443.0374268600906L783.1873420351067 440.946231347159L780.1440293598307 436.7603780770694L775.1999446040927 435.0500294290757L775.1999446040927 433.1492573486132L772.9183256586921 432.38756361873743L774.4382508742165 431.62586988886187Z" stroke="#FFFFFF" stroke-opacity="0.75" stroke-width="1" stroke-linecap="round" stroke-linejoin="round" fill="#D3D3D3"/>
		<path name="包头市" d="M422.9754526884326 601.2723747533148L428.3003843091092 600.3237198351969L433.62531592978576 597.0899837274519L440.4701727659867 594.8083647820515L447.699338711353 594.4275179171136L455.6867361423674 591.1937818093684L460.63082089810587 592.9041304573623L462.15420835785744 595.1857494027627L468.61821832912074 599.75244953779L471.66153100439715 610.5927362116122L481.55316276010126 624.4763355607101L489.159713326178 628.8491500190421L491.4413322715782 629.0395734515109L494.1037980819169 634.3645050721875L492.20302600145396 638.3599349098083L493.34210435204113 640.2607069902708L488.77886646124034 641.0224007201464L487.2589412457155 642.9231728006091L477.74815635494906 639.3120520721529L475.847384274487 640.4511304227397L471.66153100439715 637.9790880448704L468.99906519405886 638.1695114773393L466.33659938372057 640.2607069902708L464.05498043831994 639.8798601253332L462.5315929785688 641.0224007201464L463.2932867084446 643.304019665547L466.33659938372057 645.7760620434162L467.479139978534 649.581068448568L465.9557525187829 653.382612609493L466.33659938372057 654.144306339369L468.99906519405886 653.382612609493L469.7607589239342 654.5251532043067L469.3799120589965 657.3780424471138L468.61821832912074 657.7588893120517L471.2806841394595 658.8979676626386L471.66153100439715 664.7941695807219L473.9431499497973 665.7462867430665L473.56576532908593 667.8374822559981L481.55316276010126 671.4520652286808L483.07308797562564 673.1624138766745L479.648928435412 675.6344562545439L475.847384274487 677.5386905792332L473.9431499497973 676.0153031194816L471.66153100439715 676.7769968493576L470.14160578887277 675.6344562545439L468.99906519405886 675.8248796870128L468.99906519405886 675.0666482013637L466.7174462486587 675.2570716338328L462.15420835785744 672.7850292559633L461.01166776304444 673.1624138766745L460.63082089810587 672.0233355260877L459.1108956825815 672.2137589585566L456.8292767371813 670.1191012013985L454.9250424124916 670.1191012013985L454.1633486826163 668.9800228508116L453.40511719696724 669.5512931482185L452.2625766021538 667.6470588235293L450.7426513866285 666.8888273378802L448.8384170619397 668.4087525534048L441.61271336080017 667.6470588235293L434.38700965966154 669.5512931482185L432.48277533497185 668.5991759858737L431.72454384932325 667.2662119585912L429.06207803898496 666.8888273378802L424.87622476889555 668.027905688467L424.49537790395743 664.984593013191L422.9754526884326 663.4646677976662L423.73368417408165 661.5638957172034L426.7769968493576 659.6596613925142L431.34369698438513 660.611778554859L436.28778174012405 659.6596613925142L440.4701727659867 655.8581172315892L439.7119412803381 654.144306339369L437.8077069556484 651.2914170965619L435.9069348751859 651.2914170965619L433.24446906484764 649.3906450160991L432.86362219990997 647.4898729356366L434.38700965966154 646.9186026382299L431.34369698438513 641.9745178824912L431.34369698438513 640.4511304227397L433.24446906484764 639.8798601253332L432.1019284700342 636.8365474500567L432.86362219990997 633.7966970190073L425.6379184987709 633.2254267216008L424.1145310390193 628.6587265865733L418.40875255340507 620.8617525880272L421.83291209361914 619.3418273725026L422.9754526884326 615.7272443998197L425.6379184987709 613.6360488868881L427.1578437142957 610.783159644081L425.6379184987709 604.6965342935287L422.9754526884326 601.2723747533148Z" stroke="#FFFFFF" stroke-opacity="0.75" stroke-width="1" stroke-linecap="round" stroke-linejoin="round" fill="#D3D3D3"/>
		<path name="呼和浩特市" d="M493.34210435204113 640.2607069902708L503.9954298376206 640.6415538552087L507.41612713360837 642.3519025032024L509.7012083232348 647.1090260706987L513.5027524841603 649.0097981511615L515.0261399439114 652.4339576913751L518.0694526191878 653.1956514212511L519.5893778347122 657.187619014645L518.4468372398987 659.6596613925142L516.5460651594367 660.4213551223902L517.6886057542497 661.3734722847346L516.9269120243744 663.2742443651973L514.6452930789737 662.8933975002594L516.5460651594367 665.3654398781289L515.4035245646228 666.6984039054112L520.7319184295261 670.4999480663364L524.152615725513 677.1578437142953L517.307758889312 686.6686286050615L512.3636741335736 693.5134854412627L510.840286673822 699.4096873593462L507.79697399854604 699.0288404944081L505.8962019180831 700.1713810892218L496.76626389225476 697.6993387113523L493.7229512169788 698.2671467645325L493.7229512169788 697.5089152788835L491.0604854066405 695.2238340892563L494.1037980819169 689.3310944153998L492.9647197313302 684.5739708479032L489.5405601911161 680.7724266869782L479.648928435412 675.6344562545439L483.07308797562564 673.1624138766745L481.55316276010126 671.4520652286808L473.56576532908593 667.8374822559981L473.9431499497973 665.7462867430665L471.66153100439715 664.7941695807219L471.2806841394595 658.8979676626386L468.61821832912074 657.7588893120517L469.3799120589965 657.3780424471138L469.7607589239342 654.5251532043067L468.99906519405886 653.382612609493L466.33659938372057 654.144306339369L465.9557525187829 653.382612609493L467.479139978534 649.581068448568L466.33659938372057 645.7760620434162L463.2932867084446 643.304019665547L462.5315929785688 641.0224007201464L464.05498043831994 639.8798601253332L466.33659938372057 640.2607069902708L468.99906519405886 638.1695114773393L471.66153100439715 637.9790880448704L475.847384274487 640.4511304227397L477.74815635494906 639.3120520721529L487.2589412457155 642.9231728006091L488.77886646124034 641.0224007201464L493.34210435204113 640.2607069902708Z" stroke="#FFFFFF" stroke-opacity="0.75" stroke-width="1" stroke-linecap="round" stroke-linejoin="round" fill="#D3D3D3"/>
		<path name="乌海市" d="M331.6864591628291 691.4222899283311L339.673856593844 689.5180556036419L337.38877540421663 693.5134854412627L337.7696222691552 697.8862998995946L339.2930097289063 702.643423467091L339.2930097289063 710.4403974656368L340.0512412145554 711.2020911955126L345.7570197001696 710.4403974656368L345.37963507945824 714.8132119239688L343.47540075476945 718.8086417615896L339.2930097289063 718.9990651940584L334.7263095938788 716.9078696811268L335.10715645881646 715.5749056538446L332.8255375134163 712.5315929785684L333.2063843783544 708.3492019527055L331.30561229789146 707.016237925423L331.30561229789146 705.4963127098981L326.35806529792626 702.643423467091L327.5006058927397 700.7391891424018L332.8255375134163 699.600110791815L332.0638437835405 697.8862998995946L333.2063843783544 696.9376449814768L331.6864591628291 695.4142575217254L331.6864591628291 691.4222899283311Z" stroke="#FFFFFF" stroke-opacity="0.75" stroke-width="1" stroke-linecap="round" stroke-linejoin="round" fill="#D3D3D3"/>
	</g>
</svg>