<?xml version="1.0" encoding="UTF-8" standalone="no"?><!-- Generator: Adobe Illustrator 19.0.0, SVG Export Plug-In . SVG Version: 6.00 Build 0)  --><svg xmlns="http://www.w3.org/2000/svg" xmlns:xlink="http://www.w3.org/1999/xlink" contentScriptType="text/ecmascript" zoomAndPan="magnify" contentStyleType="text/css" id="图层_1" style="enable-background:new 0 0 1000 1000;" mapName="吉林省" mapType="省市地图" version="1.1" xml:space="preserve" preserveAspectRatio="xMidYMid meet" viewBox="0 0 1000 1000" x="0px" y="0px">
	<g>
		<path name="延边朝鲜族自治州" d="M657.9540752999565 482.94890359950386L656.8163011998331 480.1148117501034L644.3214729002884 476.7014894497315L642.0459247000399 472.1607364501451L642.0459247000399 468.74741414977234L632.9540752999583 463.63777410012426L634.0918494000816 459.6555647496898L635.2296235002068 459.6555647496898L635.2296235002068 456.82147290029025L643.1836988001651 450.56371534960726L661.3673976003302 446.02296235002086L667.0459247000381 443.17852709971066L665.9081505999147 440.3444352503102L662.4948282995447 439.20666115018685L665.9081505999147 438.0688870500626L665.9081505999147 434.6555647496898L667.0459247000381 433.51779064956645L663.632602399668 430.1148117501034L667.0459247000381 426.7014894497306L663.632602399668 424.9948282995456L662.4948282995447 420.4540752999592L663.632602399668 418.17852709971066L665.9081505999147 419.8851882498966L673.8622258998766 421.02296235002086L679.5407529995846 410.79333884981406L682.9540752999583 410.79333884981406L692.0459247000399 404.5459247000417L695.448903599503 403.97703764998005L704.5407529995846 411.9311129499383L703.4029788994612 413.63777410012426L705.6785270997079 417.6096400496481L706.8163011998313 422.7296235002068L703.4029788994612 430.1148117501034L705.6785270997079 440.3444352503102L711.3673976003302 445.4540752999583L715.9081505999166 452.2703764997941L717.0459247000399 457.3800165494422L722.7244517997515 463.0688870500626L722.7244517997515 465.90297889946214L728.4029788994612 468.74741414977234L728.4029788994612 474.9948282995447L734.0918494000798 478.97703764997914L731.8163011998331 484.0866776996272L737.4948282995429 486.36222589987665L744.3214729002884 502.2703764997932L747.7244517997497 504.5459247000417L754.5407529995828 502.8392635498549L761.3673976003283 506.25258585022766L774.9999999999964 501.13260239966894L778.4029788994612 501.7014894497315L784.0918494000816 498.8570541994204L784.0918494000816 494.8851882498966L781.8163011998313 492.0407529995864L784.0918494000816 486.9311129499383L782.9540752999583 485.2244517997524L781.8163011998313 480.1148117501034L786.3673976003302 475.56371534960726L790.9081505999166 477.8392635498558L793.1836988001633 476.7014894497315L796.5866776996263 477.2703764997932L811.3570541994195 469.3163011998349L836.3570541994213 469.3163011998349L836.3570541994213 467.609640049649L840.9081505999147 466.4718659495247L840.9081505999147 464.20666115018594L842.0459247000381 463.0688870500626L840.9081505999147 460.79333884981406L848.862225899873 455.6836988001651L851.1377741001234 456.82147290029025L853.4029788994612 454.5459247000417L857.9540752999583 453.40815059991746L860.229623500205 454.5459247000417L865.9081505999166 461.9311129499383L864.7703764997932 467.609640049649L865.9081505999166 471.02296235002086L871.5866776996263 473.86739760033106L874.9999999999982 472.1607364501451L876.1377741001215 469.3163011998349L878.4029788994612 469.3163011998349L879.5407529995846 465.3444352503102L885.2296235002068 461.9311129499383L889.7703764997896 461.9311129499383L892.0459247000399 458.51779064956554L901.1377741001215 452.2703764997941L897.7244517997515 461.36222589987665L903.4029788994612 465.90297889946214L901.1377741001215 468.17852709971066L902.2755482002467 470.4540752999583L907.9540752999565 481.25258585022766L911.3570541994195 484.0866776996272L911.3570541994195 486.9311129499383L912.4948282995447 491.4718659495247L920.4489035995011 495.4540752999592L928.4029788994594 495.4540752999592L928.4029788994594 499.425941249483L939.7703764997914 502.8392635498549L948.862225899873 509.0866776996281L953.4029788994612 514.7755482002485L957.9540752999565 514.7755482002485L961.3570541994195 511.36222589987574L965.9081505999166 509.6555647496898L968.1836988001633 507.94890359950386L973.8622258998748 510.2244517997524L981.8163011998331 515.9029788994621L987.4948282995429 514.7755482002485L993.1836988001651 511.36222589987574L1000 510.79333884981406L997.7244517997497 514.2066611501868L998.8622258998748 519.3163011998349L996.5866776996245 521.0229623500209L994.3111294993778 525.5637153496073L993.1836988001651 532.3800165494413L988.632602399668 535.7933388498141L987.4948282995429 539.2066611501868L989.7703764997914 540.9029788994621L988.632602399668 546.5918494000825L984.0918494000798 549.9948282995447L984.0918494000798 552.8392635498558L979.5407529995864 553.4081505999175L977.2755482002449 557.9489035995039L979.5407529995864 563.6377741001243L981.8163011998331 563.6377741001243L981.8163011998331 566.4718659495238L978.4029788994612 568.7474141497723L970.4489035995011 567.609640049649L969.3111294993778 568.7474141497723L971.5866776996281 574.425941249483L965.9081505999166 574.9948282995447L960.2296235002068 573.2985105502694L955.6785270997079 574.9948282995447L951.1377741001215 572.7296235002068L947.7244517997497 572.7296235002068L943.1836988001633 576.7014894497315L940.9081505999166 576.1326023996689L938.632602399668 577.8392635498558L936.3570541994177 576.1326023996689L932.9540752999583 576.1326023996689L921.5866776996263 579.5459247000417L905.6785270997098 588.0688870500626L911.3570541994195 592.609640049649L919.3214729002884 590.9029788994621L925 594.316301199834L929.5407529995846 602.8392635498549L927.2755482002467 606.2525858502277L923.862225899873 605.683698800166L921.5866776996263 610.2244517997524L925 613.0688870500617L926.1377741001234 617.6096400496481L929.5407529995846 619.316301199834L922.7244517997497 617.6096400496481L922.7244517997497 615.9029788994621L923.862225899873 613.6377741001243L920.4489035995011 611.9311129499383L921.5866776996263 610.2244517997524L917.0459247000381 602.8392635498549L918.1836988001651 601.1326023996698L917.0459247000381 599.425941249483L912.4948282995447 600.5637153496073L911.3570541994195 602.2703764997932L913.632602399668 605.1148117501034L910.229623500205 606.8214729002902L907.9540752999565 605.1148117501034L909.0918494000798 601.1326023996698L907.9540752999565 599.9948282995447L903.4029788994612 601.7014894497315L901.1377741001215 598.2985105502694L895.4489035995011 594.8851882498966L894.3214729002884 590.9029788994621L890.9081505999166 590.3340918493996L888.6326023996662 587.5L889.7703764997896 581.8214729002902L888.6326023996662 578.9770376499791L890.9081505999166 569.8851882498966L874.9999999999982 568.7474141497723L874.9999999999982 568.1785270997107L878.4029788994612 567.0407529995864L876.1377741001215 564.7755482002485L879.5407529995846 563.0688870500626L877.2755482002485 561.3622258998757L867.0459247000399 563.0688870500626L863.632602399668 561.3622258998757L860.229623500205 562.5000000000009L859.0918494000816 559.0866776996281L855.6785270997079 559.0866776996281L852.2755482002467 561.3622258998757L855.6785270997079 562.5000000000009L854.5407529995846 563.6377741001243L848.862225899873 563.6377741001243L848.862225899873 565.9029788994621L851.1377741001234 568.1785270997107L847.7244517997497 568.1785270997107L847.7244517997497 572.7296235002068L844.3214729002884 579.5459247000417L844.3214729002884 581.2525858502277L840.9081505999147 584.0866776996281L839.7703764997914 588.0688870500626L840.9081505999147 592.0407529995864L843.1836988001651 592.609640049649L840.9081505999147 593.1785270997107L840.9081505999147 597.1607364501451L839.7703764997914 595.4540752999583L838.632602399668 597.1607364501451L839.7703764997914 597.7296235002068L838.632602399668 599.425941249483L840.9081505999147 600.5637153496073L837.4948282995447 603.9770376499791L837.4948282995447 614.7755482002485L834.0918494000816 618.7474141497723L828.4029788994594 619.316301199834L823.8622258998748 615.9029788994621L821.5866776996245 617.0407529995864L823.8622258998748 618.1785270997107L822.7244517997515 621.0229623500209L820.4489035995011 621.0229623500209L817.0459247000417 626.1326023996689L806.8163011998331 617.6096400496481L804.5407529995846 618.7474141497723L802.2755482002449 617.0407529995864L801.1377741001215 619.316301199834L798.8622258998748 619.316301199834L798.8622258998748 617.0407529995864L796.5866776996263 616.4718659495247L795.448903599503 618.1785270997107L797.7244517997515 621.0229623500209L795.448903599503 621.0229623500209L795.448903599503 618.7474141497723L793.1836988001633 619.8851882498966L792.0459247000399 621.5918494000825L794.3214729002866 623.2985105502685L785.229623500205 624.9948282995456L784.0918494000816 627.2703764997932L786.3673976003302 630.1148117501034L780.6785270997079 630.683698800166L785.229623500205 631.2525858502277L781.8163011998313 634.0866776996281L784.0918494000816 634.0866776996281L782.9540752999583 636.3622258998757L779.5407529995846 636.9311129499383L779.5407529995846 638.6377741001243L781.8163011998313 638.6377741001243L781.8163011998313 640.9029788994621L784.0918494000816 642.0407529995864L777.2755482002467 644.3163011998349L778.4029788994612 646.0229623500209L773.862225899873 646.5918494000825L772.7244517997497 648.8570541994213L769.3214729002902 648.8570541994213L768.1836988001633 647.1607364501451L768.1836988001633 648.8570541994213L764.7703764997914 649.425941249483L763.632602399668 653.4081505999175L761.3673976003283 654.5459247000417L756.8163011998331 654.5459247000417L755.6785270997098 660.2244517997515L751.1377741001234 662.5L748.8622258998748 660.7933388498141L743.1836988001651 660.7933388498141L740.9081505999147 659.0866776996281L736.3673976003302 659.6555647496898L734.0918494000798 658.5177906495665L728.4029788994612 661.9311129499374L724.9999999999982 661.3622258998757L722.7244517997515 659.6555647496898L719.3214729002884 660.2244517997515L715.9081505999166 663.6377741001243L707.9540752999583 663.6377741001243L701.1377741001234 661.3622258998757L672.7244517997497 660.7933388498141L663.632602399668 662.5L655.6785270997098 651.1326023996689L653.4133223003719 649.425941249483L653.4133223003719 646.0229623500209L648.8622258998748 643.1785270997098L644.3214729002884 635.7933388498141L637.4948282995429 633.5177906495655L639.7703764997914 629.5459247000417L644.3214729002884 629.5459247000417L647.7244517997497 625.5637153496073L653.4133223003719 624.425941249483L656.8163011998331 620.4540752999592L660.229623500205 613.6377741001243L659.0918494000798 612.5L660.229623500205 609.0866776996272L659.0918494000798 605.1148117501034L652.2755482002467 599.425941249483L653.4133223003719 596.0229623500209L644.3214729002884 593.1785270997107L646.5866776996263 592.0407529995864L640.9081505999147 588.6377741001243L643.1836988001651 587.5L643.1836988001651 585.7933388498141L639.7703764997914 584.6555647496898L639.7703764997914 582.3800165494422L635.2296235002068 579.5459247000417L630.6785270997079 579.5459247000417L626.1377741001234 574.425941249483L626.1377741001234 571.0229623500209L602.2755482002467 557.3800165494422L604.5407529995864 554.5459247000417L605.6785270997098 548.2985105502694L603.41332230037 546.0229623500209L607.9540752999583 545.4540752999583L611.3673976003283 543.1785270997107L615.9081505999166 543.7474141497732L617.0459247000399 538.0688870500626L621.5866776996263 532.9489035995039L620.4489035995011 530.683698800166L617.0459247000399 528.4081505999175L618.1836988001651 526.7014894497315L617.0459247000399 524.9948282995456L623.8622258998748 523.8570541994213L626.1377741001234 515.9029788994621L625 514.7755482002485L626.1377741001234 509.6555647496898L628.41332230037 507.3800165494413L632.9540752999583 505.683698800166L632.9540752999583 503.40815059991746L638.632602399668 498.8570541994204L639.7703764997914 498.2985105502685L648.8622258998748 490.90297889946305L651.1377741001215 490.3444352503111L652.2755482002467 488.63777410012426L656.8163011998331 486.9311129499383L657.9540752999565 482.94890359950386Z" stroke="#FFFFFF" stroke-opacity="0.75" stroke-width="1" stroke-linecap="round" stroke-linejoin="round" fill="#D3D3D3"/>
		<path name="吉林市" d="M417.0459247000399 532.9489035995039L426.13777410012335 530.683698800166L429.5407529995846 527.8392635498549L434.0918494000816 529.5459247000417L440.90815059991655 528.4081505999175L446.5866776996263 524.9948282995456L451.13777410012335 525.5637153496073L451.13777410012335 522.1607364501451L448.86222589987483 518.1785270997107L444.3214729002884 517.6096400496481L443.1836988001651 515.3444352503111L438.63260239966803 513.0688870500617L435.229623500205 508.51779064956554L436.36739760033015 505.683698800166L435.229623500205 504.5459247000417L438.63260239966803 497.7296235002068L438.63260239966803 493.74741414977234L430.67852709970975 481.82147290029025L429.5407529995846 474.9948282995447L431.8163011998349 471.59184940008345L440.90815059991655 471.02296235002086L445.4592470004118 472.7296235002068L448.86222589987483 469.3163011998349L454.5407529995846 468.17852709971066L452.2755482002467 458.51779064956554L449.9999999999982 457.3800165494422L449.9999999999982 453.97703764997914L461.36739760033015 443.74741414977234L463.63260239966803 444.8851882498966L463.63260239966803 443.17852709971066L467.0459247000399 442.0407529995864L467.0459247000399 440.3444352503102L471.5866776996263 440.3444352503102L473.86222589987483 438.0688870500626L479.5407529995864 439.20666115018685L480.67852709970975 436.9311129499383L488.63260239966803 438.63777410012426L497.72445179974966 438.0688870500626L497.72445179974966 436.36222589987574L502.2755482002467 432.3800165494422L497.72445179974966 431.25258585022766L501.13777410012335 426.13260239966894L498.86222589987483 423.86739760033106L496.5866776996263 419.3163011998349L501.13777410012335 417.6096400496481L498.86222589987483 416.4718659495238L500 413.63777410012426L494.3214729002884 413.63777410012426L495.4592470004118 410.79333884981406L493.1836988001651 407.3903599503519L495.4592470004118 405.683698800166L492.0459247000399 402.2703764997932L496.5866776996263 400.56371534960726L503.4133223003719 401.13260239966894L506.8163011998331 399.9948282995456L506.8163011998331 398.2985105502694L513.632602399668 397.7296235002068L517.0459247000399 400.56371534960726L528.4133223003719 403.40815059991746L537.4948282995447 401.13260239966894L542.0459247000399 403.40815059991746L544.3214729002884 401.7014894497315L552.2755482002467 401.7014894497315L554.5407529995846 399.425941249483L557.9540752999583 398.2985105502694L562.4948282995429 395.4540752999592L562.4948282995429 393.17852709971066L568.1836988001651 393.74741414977234L571.5866776996263 390.3444352503111L574.9999999999982 389.7755482002485L574.9999999999982 392.0407529995864L578.4133223003719 393.74741414977234L580.6785270997098 393.74741414977234L582.9540752999565 390.90297889946214L590.9081505999166 392.0407529995864L594.3214729002884 391.4718659495247L610.229623500205 397.1607364501451L611.3673976003283 399.9948282995456L609.0918494000816 402.8392635498549L603.41332230037 402.2703764997932L602.2755482002467 403.40815059991746L601.1377741001215 406.82147290028934L605.6785270997098 411.36222589987574L603.41332230037 415.3444352503102L617.0459247000399 427.2703764997932L618.1836988001651 430.1148117501034L614.7703764997932 432.94890359950386L618.1836988001651 436.9311129499383L623.8622258998748 439.7755482002485L627.2755482002467 435.79333884981406L628.41332230037 446.59184940008254L634.0918494000816 449.425941249483L640.9081505999147 448.2985105502694L643.1836988001651 450.56371534960726L635.2296235002068 456.82147290029025L635.2296235002068 459.6555647496898L634.0918494000816 459.6555647496898L632.9540752999583 463.63777410012426L642.0459247000399 468.74741414977234L642.0459247000399 472.1607364501451L644.3214729002884 476.7014894497315L656.8163011998331 480.1148117501034L657.9540752999565 482.94890359950386L656.8163011998331 486.9311129499383L652.2755482002467 488.63777410012426L651.1377741001215 490.3444352503111L648.8622258998748 490.90297889946305L639.7703764997914 498.2985105502685L638.632602399668 498.8570541994204L632.9540752999583 503.40815059991746L632.9540752999583 505.683698800166L628.41332230037 507.3800165494413L626.1377741001234 509.6555647496898L625 514.7755482002485L626.1377741001234 515.9029788994621L623.8622258998748 523.8570541994213L617.0459247000399 524.9948282995456L618.1836988001651 526.7014894497315L617.0459247000399 528.4081505999175L620.4489035995011 530.683698800166L621.5866776996263 532.9489035995039L617.0459247000399 538.0688870500626L615.9081505999166 543.7474141497732L611.3673976003283 543.1785270997107L607.9540752999583 545.4540752999583L603.41332230037 546.0229623500209L605.6785270997098 548.2985105502694L604.5407529995864 554.5459247000417L602.2755482002467 557.3800165494422L626.1377741001234 571.0229623500209L626.1377741001234 574.425941249483L630.6785270997079 579.5459247000417L628.41332230037 578.9770376499791L627.2755482002467 582.9489035995039L620.4489035995011 585.2244517997515L620.4489035995011 589.2066611501859L617.0459247000399 590.9029788994621L614.7703764997932 594.316301199834L609.0918494000816 597.1607364501451L603.41332230037 598.2985105502694L604.5407529995864 601.1326023996698L601.1377741001215 602.8392635498549L601.1377741001215 605.683698800166L589.7703764997914 602.8392635498549L586.3673976003302 597.7296235002068L582.9540752999565 598.2985105502694L579.5407529995846 601.7014894497315L573.8622258998748 600.5637153496073L579.5407529995846 590.3340918493996L573.8622258998748 585.2244517997515L572.7244517997497 579.5459247000417L562.4948282995429 580.6836988001651L561.3673976003302 580.1148117501034L554.5407529995846 581.8214729002902L548.8622258998748 580.1148117501034L543.1836988001633 580.1148117501034L542.0459247000399 582.3800165494422L535.229623500205 583.5177906495655L532.9540752999565 586.9311129499383L534.0918494000816 590.3340918493996L529.5407529995846 593.7474141497723L527.2755482002467 594.316301199834L526.1377741001215 592.0407529995864L517.0459247000399 588.0688870500626L506.8163011998331 594.316301199834L502.2755482002467 592.609640049649L493.1836988001651 593.1785270997107L489.7703764997932 590.9029788994621L490.90815059991655 587.5L489.7703764997932 583.5177906495655L490.90815059991655 580.6836988001651L488.63260239966803 578.9770376499791L485.229623500205 580.1148117501034L481.8163011998331 579.5459247000417L473.86222589987483 583.5177906495655L470.4592470004136 581.8214729002902L452.2755482002467 581.8214729002902L448.86222589987483 578.9770376499791L443.1836988001651 577.2703764997932L439.7703764997914 570.4540752999583L435.229623500205 568.1785270997107L435.229623500205 565.3444352503102L431.8163011998349 560.7933388498141L426.13777410012335 557.9489035995039L422.7244517997515 559.6555647496898L414.7703764997932 554.5459247000417L414.7703764997932 552.2703764997932L419.3214729002884 554.5459247000417L422.7244517997515 553.4081505999175L421.5866776996263 551.7014894497306L427.2755482002467 549.9948282995447L424.9999999999982 547.7296235002068L419.3214729002884 547.1607364501451L413.63260239966803 539.7755482002485L413.63260239966803 537.5L417.0459247000399 532.9489035995039Z" stroke="#FFFFFF" stroke-opacity="0.75" stroke-width="1" stroke-linecap="round" stroke-linejoin="round" fill="#D3D3D3"/>
		<path name="白城市" d="M280.67852709970975 305.683698800166L271.5866776996263 310.2244517997524L250 323.2985105502694L250 324.425941249483L252.2755482002467 327.2703764997941L251.13777410012335 328.97703764998005L234.09184940008163 331.82147290029025L226.13777410012335 338.63777410012426L219.32147290028843 347.1607364501451L209.09184940008163 348.86739760033106L206.8163011998331 352.8392635498558L203.41332230037187 353.40815059991746L199.99999999999818 356.82147290029025L186.36739760033015 363.63777410012426L186.36739760033015 364.20666115018594L182.95407529995828 368.74741414977234L192.04592470004172 380.1148117501043L193.18369880016508 383.51779064956554L170.45924700041178 390.90297889946214L154.55109640049523 399.425941249483L151.13777410012153 403.97703764998005L143.18369880016508 405.1148117501034L125 415.3444352503102L114.7703764997932 418.17852709971066L105.67852709970975 427.2703764997932L97.72445179975148 427.2703764997932L80.67852709970975 433.51779064956645L69.32147290028843 432.94890359950386L63.63260239966803 430.683698800166L65.90815059991655 424.9948282995456L65.90815059991655 408.51779064956645L59.09184940008163 407.3903599503519L59.09184940008163 402.2703764997932L56.816301199834925 398.86739760033106L50 397.1607364501451L50 394.8851882498975L47.72445179975148 392.6096400496481L46.59702110053695 386.9311129499383L47.72445179975148 384.0866776996281L52.2755482002467 381.82147290029025L51.13777410012335 379.5459247000417L46.59702110053695 379.5459247000417L47.72445179975148 377.8392635498549L50 378.97703764997914L53.413322300371874 377.2703764997932L46.59702110053695 375.56371534960726L44.32147290028843 368.17852709971066L40.90815059991655 363.63777410012426L44.32147290028843 361.36222589987665L44.32147290028843 352.8392635498558L46.59702110053695 350.56371534960726L48.86222589987483 346.02296235002086L47.72445179975148 338.63777410012426L51.13777410012335 334.6555647496898L56.816301199834925 334.0866776996281L61.36739760033015 331.25258585022766L61.36739760033015 324.9948282995447L51.13777410012335 323.2985105502694L51.13777410012335 315.9133223003728L54.551096400495226 311.36222589987574L53.413322300371874 307.3903599503519L43.183698800165075 304.5459247000417L36.36739760033015 300.56371534960726L32.954075299958276 292.0407529995864L35.22962350020498 291.4718659495247L36.36739760033015 288.63777410012517L32.954075299958276 281.25258585022766L29.551096400495226 279.5459247000417L22.724451799751478 278.97703764998005L17.045924700039905 280.683698800166L17.045924700039905 282.3903599503519L10.229623500206799 281.82147290028934L3.413322300371874 279.5459247000417L0 275.56371534960726L1.1377741001233517 273.86739760033106L4.551096400495226 274.43628465039365L6.816301199833106 271.02296235002086L9.091849400083447 272.1607364501451L17.045924700039905 261.9311129499383L17.045924700039905 258.51779064956554L15.908150599916553 253.97703764997914L11.36739760033015 251.13260239966985L12.505171700453502 249.9948282995456L19.321472900288427 247.7296235002068L22.724451799751478 249.9948282995456L27.275548200246703 248.86739760033106L31.816301199833106 252.2703764997932L36.36739760033015 251.70148944973153L44.32147290028843 257.3903599503519L45.45924700041178 261.9311129499383L56.816301199834925 264.7755482002485L61.36739760033015 268.17852709971066L62.5051717004535 271.02296235002086L68.18369880016508 268.17852709971066L67.04592470004172 267.6096400496481L70.4592470004136 264.7755482002485L73.86222589987483 265.3444352503111L74.99999999999818 260.2244517997524L84.09184940008163 261.36222589987665L87.50517170045532 264.20666115018685L88.63260239966803 272.1607364501451L110.22962350020498 281.25258585022766L118.18369880016508 273.2985105502694L113.63260239966803 267.0407529995864L117.0459247000399 263.63777410012426L120.45924700041178 255.68369880016598L118.18369880016508 251.70148944973153L119.32147290028843 242.609640049649L143.18369880016508 239.77554820024852L151.13777410012153 236.36222589987665L149.99999999999818 232.94890359950386L152.2755482002467 231.82147290029025L154.55109640049523 226.70148944973153L162.50517170045532 222.16073645014512L172.72445179975148 223.86739760033106L178.41332230037006 226.70148944973153L181.81630119983492 224.99482829954468L187.5051717004535 224.99482829954468L192.04592470004172 223.29851055026938L198.86222589987483 226.13260239966985L202.27554820024852 223.86739760033106L217.0459247000399 223.29851055026938L222.72445179975148 221.59184940008345L226.13777410012335 218.74741414977234L231.8163011998331 218.74741414977234L232.95407529995828 218.74741414977234L232.95407529995828 223.29851055026938L235.22962350020498 222.7296235002077L236.36739760033015 220.45407529995828L238.63260239966803 220.45407529995828L238.63260239966803 225.56371534960726L240.90815059991655 226.70148944973153L238.63260239966803 228.97703764997914L240.90815059991655 232.94890359950386L244.32147290028843 232.94890359950386L242.0459247000399 235.79333884981497L244.32147290028843 238.06888705006259L242.0459247000399 239.20666115018594L244.32147290028843 241.47186594952473L244.32147290028843 243.74741414977234L246.5866776996263 246.59184940008345L245.45924700041178 248.29851055026938L242.0459247000399 247.7296235002068L244.32147290028843 251.13260239966985L239.7703764997932 253.97703764997914L242.0459247000399 259.6555647496907L247.72445179974966 261.36222589987665L250 264.7755482002485L248.86222589987483 266.4718659495247L246.5866776996263 267.0407529995864L250 270.4540752999592L243.18369880016508 272.7296235002068L244.32147290028843 275.56371534960726L251.13777410012335 277.2703764997932L248.86222589987483 278.40815059991746L250 279.5459247000417L252.2755482002467 278.97703764998005L253.41332230037187 280.683698800166L256.8163011998331 281.82147290028934L255.67852709970975 284.0866776996281L257.9540752999583 284.6555647496898L256.8163011998331 286.9311129499383L259.0918494000816 289.20666115018685L267.0459247000399 288.0688870500626L267.0459247000399 291.4718659495247L270.4592470004136 292.0407529995864L270.4592470004136 296.02296235002086L271.5866776996263 297.1607364501451L279.5407529995864 297.1607364501451L280.67852709970975 299.425941249483L279.5407529995864 302.2703764997932L280.67852709970975 305.683698800166Z" stroke="#FFFFFF" stroke-opacity="0.75" stroke-width="1" stroke-linecap="round" stroke-linejoin="round" fill="#D3D3D3"/>
		<path name="松原市" d="M151.13777410012153 403.97703764998005L154.55109640049523 399.425941249483L170.45924700041178 390.90297889946214L193.18369880016508 383.51779064956554L192.04592470004172 380.1148117501043L182.95407529995828 368.74741414977234L186.36739760033015 364.20666115018594L186.36739760033015 363.63777410012426L199.99999999999818 356.82147290029025L203.41332230037187 353.40815059991746L206.8163011998331 352.8392635498558L209.09184940008163 348.86739760033106L219.32147290028843 347.1607364501451L226.13777410012335 338.63777410012426L234.09184940008163 331.82147290029025L251.13777410012335 328.97703764998005L252.2755482002467 327.2703764997941L250 324.425941249483L250 323.2985105502694L271.5866776996263 310.2244517997524L280.67852709970975 305.683698800166L284.0918494000816 307.94890359950386L292.0459247000399 306.25258585022766L295.4592470004118 309.6555647496898L300 310.79333884981406L303.41332230037006 309.0866776996281L303.41332230037006 306.82147290028934L309.0918494000816 308.51779064956645L313.63260239966803 306.82147290028934L318.1836988001651 307.3903599503519L322.72445179974966 305.1148117501034L323.86222589987483 307.94890359950386L329.5407529995846 306.25258585022766L334.0918494000816 307.94890359950386L335.2296235002068 306.25258585022766L334.0918494000816 302.8392635498558L338.63260239966803 297.7296235002068L342.0459247000399 301.7014894497315L352.2755482002467 302.2703764997932L349.9999999999982 304.5459247000417L351.13777410012335 308.51779064956645L355.67852709970975 310.2244517997524L353.41332230037006 313.0688870500626L356.8163011998331 313.63777410012426L360.229623500205 310.79333884981406L365.90815059991655 311.9311129499383L373.86222589987483 310.2244517997524L377.2755482002467 311.36222589987574L377.2755482002467 309.0866776996281L381.8163011998331 312.5000000000009L384.0918494000816 312.5000000000009L389.7703764997914 307.3903599503519L394.3214729002884 306.25258585022766L393.1836988001651 302.8392635498558L397.72445179974966 304.5459247000417L405.67852709970975 302.8392635498558L410.229623500205 299.9948282995456L418.18369880016326 300.56371534960726L418.18369880016326 302.8392635498558L419.3214729002884 303.40815059991746L419.3214729002884 306.82147290028934L420.4592470004118 310.79333884981406L418.18369880016326 317.609640049649L422.7244517997515 318.74741414977325L421.5866776996263 319.3163011998349L424.9999999999982 324.425941249483L427.2755482002467 323.86739760033106L430.67852709970975 325.56371534960726L430.67852709970975 328.97703764998005L434.0918494000816 328.97703764998005L440.90815059991655 332.94890359950386L444.3214729002884 332.94890359950386L449.9999999999982 336.36222589987665L456.8163011998331 336.36222589987665L459.0918494000816 337.5000000000009L459.0918494000816 338.0688870500626L467.0459247000399 339.7755482002485L469.3214729002884 342.0407529995864L468.18369880016326 344.8851882498966L469.3214729002884 353.40815059991746L467.0459247000399 354.5459247000417L465.90815059991655 357.3903599503519L469.3214729002884 361.9311129499383L467.0459247000399 363.0688870500626L462.4948282995447 361.9311129499383L460.2296235002068 364.20666115018594L456.8163011998331 363.63777410012426L454.5407529995846 369.316301199834L454.5407529995846 375.56371534960726L445.4592470004118 377.8392635498549L442.0459247000399 376.7014894497315L436.36739760033015 369.8851882498966L429.5407529995846 370.4540752999592L429.5407529995846 368.74741414977234L419.3214729002884 359.6555647496898L413.63260239966803 359.6555647496898L409.0918494000816 363.63777410012426L396.5866776996263 366.4718659495247L390.90815059991473 364.20666115018594L388.63260239966803 366.4718659495247L381.8163011998331 365.90297889946305L376.13777410012335 368.74741414977234L372.72445179974966 367.609640049649L369.3214729002884 368.74741414977234L377.2755482002467 371.59184940008345L377.2755482002467 372.7296235002068L368.1836988001651 375.56371534960726L361.36739760033015 374.9948282995456L359.0918494000816 377.2703764997932L356.8163011998331 377.2703764997932L356.8163011998331 378.40815059991746L347.7244517997515 375.56371534960726L345.4592470004136 377.8392635498549L335.2296235002068 381.82147290029025L332.95407529995646 381.25258585022766L327.2755482002485 384.0866776996281L328.4133223003719 386.9311129499383L326.13777410012335 388.0688870500617L324.9999999999982 386.9311129499383L320.4592470004118 389.20666115018685L317.0459247000417 388.63777410012426L307.9540752999583 390.90297889946214L307.9540752999583 393.17852709971066L301.13777410012335 398.86739760033106L302.2755482002467 400.56371534960726L298.86222589987483 403.97703764998005L307.9540752999583 410.2244517997524L300 413.63777410012426L306.8163011998349 419.3163011998349L306.8163011998349 423.86739760033106L307.9540752999583 425.56371534960726L304.5407529995846 430.1148117501034L305.67852709970975 434.0866776996281L310.229623500205 435.79333884981406L321.5866776996263 434.6555647496898L318.1836988001651 438.63777410012426L320.4592470004118 440.90297889946214L309.0918494000816 443.74741414977234L296.5866776996263 444.8851882498966L287.5051717004553 452.8392635498558L268.1836988001651 457.94890359950386L261.36739760033015 457.3800165494422L259.0918494000816 455.6836988001651L237.5051717004535 457.3800165494422L218.18369880016326 456.82147290029025L217.0459247000399 456.82147290029025L219.32147290028843 453.97703764997914L211.36739760033015 448.86739760033106L209.09184940008163 446.02296235002086L205.67852709970975 448.86739760033106L199.99999999999818 447.7296235002077L173.86222589987483 449.9948282995447L173.86222589987483 448.86739760033106L178.41332230037006 439.7755482002485L171.5866776996263 438.63777410012426L165.90815059991655 427.8392635498558L160.22962350020498 421.59184940008254L152.2755482002467 419.3163011998349L151.13777410012153 415.3444352503102L153.41332230037187 414.7755482002485L154.55109640049523 412.5L153.41332230037187 405.1148117501034L151.13777410012153 403.97703764998005Z" stroke="#FFFFFF" stroke-opacity="0.75" stroke-width="1" stroke-linecap="round" stroke-linejoin="round" fill="#D3D3D3"/>
		<path name="长春市" d="M372.72445179974966 367.609640049649L376.13777410012335 368.74741414977234L381.8163011998331 365.90297889946305L388.63260239966803 366.4718659495247L390.90815059991473 364.20666115018594L396.5866776996263 366.4718659495247L409.0918494000816 363.63777410012426L413.63260239966803 359.6555647496898L419.3214729002884 359.6555647496898L429.5407529995846 368.74741414977234L429.5407529995846 370.4540752999592L436.36739760033015 369.8851882498966L442.0459247000399 376.7014894497315L445.4592470004118 377.8392635498549L454.5407529995846 375.56371534960726L454.5407529995846 369.316301199834L456.8163011998331 363.63777410012426L460.2296235002068 364.20666115018594L462.4948282995447 361.9311129499383L467.0459247000399 363.0688870500626L469.3214729002884 361.9311129499383L465.90815059991655 357.3903599503519L467.0459247000399 354.5459247000417L469.3214729002884 353.40815059991746L468.18369880016326 344.8851882498966L469.3214729002884 342.0407529995864L467.0459247000399 339.7755482002485L469.3214729002884 337.5000000000009L476.13777410012335 338.63777410012426L477.2755482002467 336.36222589987665L479.5407529995864 336.36222589987665L480.67852709970975 333.51779064956554L486.36739760033015 334.0866776996281L494.3214729002884 328.97703764998005L495.4592470004118 330.1148117501034L497.72445179974966 328.97703764998005L500 329.5459247000417L509.0918494000816 327.2703764997941L517.0459247000399 330.6836988001651L519.3214729002884 333.51779064956554L528.4133223003719 335.2244517997515L531.8163011998331 339.7755482002485L535.229623500205 338.0688870500626L536.3673976003302 339.7755482002485L548.8622258998748 339.20666115018594L549.9999999999982 346.02296235002086L557.9540752999583 352.8392635498558L557.9540752999583 353.40815059991746L562.4948282995429 359.0866776996281L562.4948282995429 361.9311129499383L554.5407529995846 363.63777410012426L551.1377741001234 372.1607364501451L553.41332230037 377.2703764997932L557.9540752999583 382.94890359950386L556.8163011998331 386.9311129499383L557.9540752999583 389.7755482002485L556.8163011998331 395.4540752999592L557.9540752999583 398.2985105502694L554.5407529995846 399.425941249483L552.2755482002467 401.7014894497315L544.3214729002884 401.7014894497315L542.0459247000399 403.40815059991746L537.4948282995447 401.13260239966894L528.4133223003719 403.40815059991746L517.0459247000399 400.56371534960726L513.632602399668 397.7296235002068L506.8163011998331 398.2985105502694L506.8163011998331 399.9948282995456L503.4133223003719 401.13260239966894L496.5866776996263 400.56371534960726L492.0459247000399 402.2703764997932L495.4592470004118 405.683698800166L493.1836988001651 407.3903599503519L495.4592470004118 410.79333884981406L494.3214729002884 413.63777410012426L500 413.63777410012426L498.86222589987483 416.4718659495238L501.13777410012335 417.6096400496481L496.5866776996263 419.3163011998349L498.86222589987483 423.86739760033106L501.13777410012335 426.13260239966894L497.72445179974966 431.25258585022766L502.2755482002467 432.3800165494422L497.72445179974966 436.36222589987574L497.72445179974966 438.0688870500626L488.63260239966803 438.63777410012426L480.67852709970975 436.9311129499383L479.5407529995864 439.20666115018685L473.86222589987483 438.0688870500626L471.5866776996263 440.3444352503102L467.0459247000399 440.3444352503102L467.0459247000399 442.0407529995864L463.63260239966803 443.17852709971066L463.63260239966803 444.8851882498966L461.36739760033015 443.74741414977234L449.9999999999982 453.97703764997914L449.9999999999982 457.3800165494422L452.2755482002467 458.51779064956554L454.5407529995846 468.17852709971066L448.86222589987483 469.3163011998349L445.4592470004118 472.7296235002068L440.90815059991655 471.02296235002086L431.8163011998349 471.59184940008345L429.5407529995846 474.9948282995447L430.67852709970975 481.82147290029025L438.63260239966803 493.74741414977234L438.63260239966803 497.7296235002068L435.229623500205 504.5459247000417L436.36739760033015 505.683698800166L435.229623500205 508.51779064956554L438.63260239966803 513.0688870500617L443.1836988001651 515.3444352503111L444.3214729002884 517.6096400496481L448.86222589987483 518.1785270997107L451.13777410012335 522.1607364501451L451.13777410012335 525.5637153496073L446.5866776996263 524.9948282995456L440.90815059991655 528.4081505999175L434.0918494000816 529.5459247000417L429.5407529995846 527.8392635498549L426.13777410012335 530.683698800166L417.0459247000399 532.9489035995039L403.4133223003719 524.425941249483L403.4133223003719 522.7296235002068L406.8163011998331 520.4540752999592L406.8163011998331 518.1785270997107L398.86222589987483 517.0407529995864L398.86222589987483 514.2066611501868L393.1836988001651 505.1148117501043L393.1836988001651 498.2985105502685L388.63260239966803 499.425941249483L385.2296235002068 503.40815059991746L386.36739760033015 505.1148117501043L384.0918494000816 506.82147290028934L385.2296235002068 509.0866776996281L385.2296235002068 510.79333884981406L376.13777410012335 514.2066611501868L372.72445179974966 513.6377741001243L371.5866776996263 510.79333884981406L373.86222589987483 509.6555647496898L373.86222589987483 505.683698800166L375 504.5459247000417L377.2755482002467 493.74741414977234L378.4133223003719 491.4718659495247L377.2755482002467 490.90297889946305L377.2755482002467 488.63777410012426L363.63260239966803 481.82147290029025L356.8163011998331 475.56371534960726L357.9540752999583 469.3163011998349L355.67852709970975 466.4718659495247L352.2755482002467 465.90297889946214L349.9999999999982 463.63777410012426L342.0459247000399 466.4718659495247L342.0459247000399 463.63777410012426L338.63260239966803 460.79333884981406L338.63260239966803 457.94890359950386L339.7703764997914 456.25258585022766L332.95407529995646 454.5459247000417L330.67852709970975 451.7014894497315L327.2755482002485 452.8392635498558L321.5866776996263 449.9948282995447L320.4592470004118 446.59184940008254L322.72445179974966 444.3163011998349L320.4592470004118 440.90297889946214L318.1836988001651 438.63777410012426L321.5866776996263 434.6555647496898L310.229623500205 435.79333884981406L305.67852709970975 434.0866776996281L304.5407529995846 430.1148117501034L307.9540752999583 425.56371534960726L306.8163011998349 423.86739760033106L306.8163011998349 419.3163011998349L300 413.63777410012426L307.9540752999583 410.2244517997524L298.86222589987483 403.97703764998005L302.2755482002467 400.56371534960726L301.13777410012335 398.86739760033106L307.9540752999583 393.17852709971066L307.9540752999583 390.90297889946214L317.0459247000417 388.63777410012426L320.4592470004118 389.20666115018685L324.9999999999982 386.9311129499383L326.13777410012335 388.0688870500617L328.4133223003719 386.9311129499383L327.2755482002485 384.0866776996281L332.95407529995646 381.25258585022766L335.2296235002068 381.82147290029025L345.4592470004136 377.8392635498549L347.7244517997515 375.56371534960726L356.8163011998331 378.40815059991746L356.8163011998331 377.2703764997932L359.0918494000816 377.2703764997932L361.36739760033015 374.9948282995456L368.1836988001651 375.56371534960726L377.2755482002467 372.7296235002068L377.2755482002467 371.59184940008345L369.3214729002884 368.74741414977234L372.72445179974966 367.609640049649Z" stroke="#FFFFFF" stroke-opacity="0.75" stroke-width="1" stroke-linecap="round" stroke-linejoin="round" fill="#D3D3D3"/>
		<path name="白山市" d="M504.5407529995846 638.0688870500617L503.4133223003719 633.5177906495655L505.67852709970794 628.4081505999175L503.4133223003719 621.0229623500209L510.2296235002068 615.3340918494005L513.632602399668 615.9029788994621L515.9081505999147 608.5177906495655L514.7703764997914 603.4081505999175L523.8622258998748 600.5637153496073L527.2755482002467 594.316301199834L529.5407529995846 593.7474141497723L534.0918494000816 590.3340918493996L532.9540752999565 586.9311129499383L535.229623500205 583.5177906495655L542.0459247000399 582.3800165494422L543.1836988001633 580.1148117501034L548.8622258998748 580.1148117501034L554.5407529995846 581.8214729002902L561.3673976003302 580.1148117501034L562.4948282995429 580.6836988001651L572.7244517997497 579.5459247000417L573.8622258998748 585.2244517997515L579.5407529995846 590.3340918493996L573.8622258998748 600.5637153496073L579.5407529995846 601.7014894497315L582.9540752999565 598.2985105502694L586.3673976003302 597.7296235002068L589.7703764997914 602.8392635498549L601.1377741001215 605.683698800166L601.1377741001215 602.8392635498549L604.5407529995864 601.1326023996698L603.41332230037 598.2985105502694L609.0918494000816 597.1607364501451L614.7703764997932 594.316301199834L617.0459247000399 590.9029788994621L620.4489035995011 589.2066611501859L620.4489035995011 585.2244517997515L627.2755482002467 582.9489035995039L628.41332230037 578.9770376499791L630.6785270997079 579.5459247000417L635.2296235002068 579.5459247000417L639.7703764997914 582.3800165494422L639.7703764997914 584.6555647496898L643.1836988001651 585.7933388498141L643.1836988001651 587.5L640.9081505999147 588.6377741001243L646.5866776996263 592.0407529995864L644.3214729002884 593.1785270997107L653.4133223003719 596.0229623500209L652.2755482002467 599.425941249483L659.0918494000798 605.1148117501034L660.229623500205 609.0866776996272L659.0918494000798 612.5L660.229623500205 613.6377741001243L656.8163011998331 620.4540752999592L653.4133223003719 624.425941249483L647.7244517997497 625.5637153496073L644.3214729002884 629.5459247000417L639.7703764997914 629.5459247000417L637.4948282995429 633.5177906495655L644.3214729002884 635.7933388498141L648.8622258998748 643.1785270997098L653.4133223003719 646.0229623500209L653.4133223003719 649.425941249483L655.6785270997098 651.1326023996689L663.632602399668 662.5L660.229623500205 663.6377741001243L668.1836988001651 668.7474141497723L668.1836988001651 685.2244517997515L671.5866776996263 685.7933388498141L673.8622258998766 693.1785270997107L685.229623500205 698.8570541994204L685.229623500205 699.9948282995447L688.632602399668 701.7014894497315L687.4948282995447 703.4081505999175L688.632602399668 704.5459247000408L689.7703764997914 706.8111294993796L687.4948282995447 709.6555647496898L687.4948282995447 711.3622258998766L681.8163011998349 715.3340918493996L681.8163011998349 721.0229623500209L677.2755482002467 724.9948282995447L669.3214729002884 729.5459247000408L665.9081505999147 728.4081505999175L667.0459247000381 726.1326023996689L665.9081505999147 726.1326023996689L665.9081505999147 727.2703764997932L663.632602399668 726.1326023996689L661.3673976003302 726.7014894497315L661.3673976003302 723.8570541994204L659.0918494000798 724.425941249483L657.9540752999565 722.7296235002068L657.9540752999565 721.0229623500209L656.8163011998331 721.0229623500209L655.6785270997098 723.8570541994204L649.9999999999982 720.4540752999583L647.7244517997497 722.7296235002068L644.3214729002884 721.0229623500209L644.3214729002884 724.9948282995447L643.1836988001651 725.5637153496073L642.0459247000399 723.8570541994204L639.7703764997914 724.9948282995447L636.3673976003302 723.2881671493587L635.2296235002068 724.9948282995447L634.0918494000816 723.2881671493587L630.6785270997079 722.7296235002068L620.4489035995011 723.2881671493587L621.5866776996263 724.425941249483L621.5866776996263 724.9948282995447L617.0459247000399 722.7296235002068L611.3673976003283 722.1607364501451L609.0918494000816 717.6096400496481L606.8163011998331 718.7474141497723L602.2755482002467 717.0407529995864L601.1377741001215 719.316301199834L596.5866776996263 719.316301199834L593.1836988001633 717.0407529995864L590.9081505999166 717.6096400496481L589.7703764997914 719.316301199834L584.0918494000816 717.0407529995864L579.5407529995846 717.0407529995864L582.9540752999565 715.3340918493996L581.8163011998331 713.6377741001243L579.5407529995846 715.3340918493996L574.9999999999982 711.9311129499383L564.7703764997914 711.3622258998766L564.7703764997914 709.6555647496898L571.5866776996263 705.1148117501034L567.0459247000399 705.1148117501034L565.9081505999166 703.4081505999175L562.4948282995429 702.8392635498558L562.4948282995429 700.5637153496064L556.8163011998331 697.1607364501451L557.9540752999583 695.4540752999583L561.3673976003302 695.4540752999583L559.0918494000816 693.7474141497723L559.0918494000816 690.9029788994621L554.5407529995846 690.3340918493996L551.1377741001234 686.9311129499383L546.5866776996263 686.9311129499383L547.7244517997515 683.5177906495655L545.4489035995011 682.9489035995039L539.7703764997914 687.5L536.3673976003302 692.0407529995864L534.0918494000816 689.7755482002485L532.9540752999565 690.3340918493996L531.8163011998331 695.4540752999583L529.5407529995846 694.8851882498966L529.5407529995846 692.609640049649L522.7244517997497 689.7755482002485L522.7244517997497 691.4718659495238L524.9999999999982 693.1785270997107L521.5866776996263 696.5918494000825L521.5866776996263 697.7296235002068L517.0459247000399 699.425941249483L513.632602399668 698.2985105502694L513.632602399668 700.5637153496064L511.36739760033015 702.8392635498558L507.9540752999583 703.4081505999175L511.36739760033015 708.5177906495655L507.9540752999583 711.9311129499383L504.5407529995846 711.3622258998766L501.13777410012335 714.7755482002476L498.86222589987483 715.3340918493996L497.72445179974966 713.0688870500626L490.90815059991655 713.6377741001243L492.0459247000399 711.9311129499383L489.7703764997932 707.9489035995039L490.90815059991655 706.8111294993796L493.1836988001651 698.2985105502694L482.9540752999583 699.425941249483L481.8163011998331 697.7296235002068L479.5407529995864 695.4540752999583L482.9540752999583 684.0866776996281L476.13777410012335 678.9770376499791L472.7244517997515 679.5459247000417L474.9999999999982 675.5637153496073L469.3214729002884 673.8570541994213L462.4948282995447 668.7474141497723L467.0459247000399 666.4718659495238L470.4592470004136 666.4718659495238L479.5407529995864 660.2244517997515L490.90815059991655 656.8111294993796L490.90815059991655 653.97703764998L496.5866776996263 650.5637153496073L498.86222589987483 645.4540752999592L502.2755482002467 643.1785270997098L505.67852709970794 644.8851882498966L509.0918494000816 642.6096400496481L509.0918494000816 639.7755482002485L504.5407529995846 638.0688870500617Z" stroke="#FFFFFF" stroke-opacity="0.75" stroke-width="1" stroke-linecap="round" stroke-linejoin="round" fill="#D3D3D3"/>
		<path name="通化市" d="M373.86222589987483 631.2525858502277L380.67852709970794 628.9770376499791L381.8163011998331 626.7014894497315L393.1836988001651 623.8570541994204L404.5407529995864 618.1785270997107L406.8163011998331 611.3622258998757L412.4948282995447 606.8214729002902L415.90815059991655 607.3800165494413L419.3214729002884 601.7014894497315L417.0459247000399 600.5637153496073L414.7703764997932 597.1607364501451L414.7703764997932 592.0407529995864L415.90815059991655 590.3340918493996L413.63260239966803 586.9311129499383L428.41332230037006 586.3622258998766L432.9540752999583 584.0866776996281L424.9999999999982 578.9770376499791L422.7244517997515 575.5637153496064L423.86222589987483 567.609640049649L424.9999999999982 566.4718659495238L422.7244517997515 559.6555647496898L426.13777410012335 557.9489035995039L431.8163011998349 560.7933388498141L435.229623500205 565.3444352503102L435.229623500205 568.1785270997107L439.7703764997914 570.4540752999583L443.1836988001651 577.2703764997932L448.86222589987483 578.9770376499791L452.2755482002467 581.8214729002902L470.4592470004136 581.8214729002902L473.86222589987483 583.5177906495655L481.8163011998331 579.5459247000417L485.229623500205 580.1148117501034L488.63260239966803 578.9770376499791L490.90815059991655 580.6836988001651L489.7703764997932 583.5177906495655L490.90815059991655 587.5L489.7703764997932 590.9029788994621L493.1836988001651 593.1785270997107L502.2755482002467 592.609640049649L506.8163011998331 594.316301199834L517.0459247000399 588.0688870500626L526.1377741001215 592.0407529995864L527.2755482002467 594.316301199834L523.8622258998748 600.5637153496073L514.7703764997914 603.4081505999175L515.9081505999147 608.5177906495655L513.632602399668 615.9029788994621L510.2296235002068 615.3340918494005L503.4133223003719 621.0229623500209L505.67852709970794 628.4081505999175L503.4133223003719 633.5177906495655L504.5407529995846 638.0688870500617L509.0918494000816 639.7755482002485L509.0918494000816 642.6096400496481L505.67852709970794 644.8851882498966L502.2755482002467 643.1785270997098L498.86222589987483 645.4540752999592L496.5866776996263 650.5637153496073L490.90815059991655 653.97703764998L490.90815059991655 656.8111294993796L479.5407529995864 660.2244517997515L470.4592470004136 666.4718659495238L467.0459247000399 666.4718659495238L462.4948282995447 668.7474141497723L469.3214729002884 673.8570541994213L474.9999999999982 675.5637153496073L472.7244517997515 679.5459247000417L476.13777410012335 678.9770376499791L482.9540752999583 684.0866776996281L479.5407529995864 695.4540752999583L481.8163011998331 697.7296235002068L482.9540752999583 699.425941249483L493.1836988001651 698.2985105502694L490.90815059991655 706.8111294993796L489.7703764997932 707.9489035995039L492.0459247000399 711.9311129499383L490.90815059991655 713.6377741001243L497.72445179974966 713.0688870500626L498.86222589987483 715.3340918493996L501.13777410012335 714.7755482002476L504.5407529995846 711.3622258998766L507.9540752999583 711.9311129499383L506.8163011998331 715.9029788994621L502.2755482002467 721.5918494000834L502.2755482002467 726.1326023996689L505.67852709970794 728.4081505999175L505.67852709970794 730.1148117501034L500 731.2525858502277L503.4133223003719 729.5459247000408L501.13777410012335 728.4081505999175L495.4592470004118 730.683698800166L495.4592470004118 732.3800165494413L492.0459247000399 732.9489035995039L487.49482829954286 737.5L486.36739760033015 742.0407529995864L482.9540752999583 743.7474141497723L479.5407529995864 750.5637153496073L474.9999999999982 751.7014894497315L465.90815059991655 757.948903599503L462.4948282995447 757.948903599503L461.36739760033015 759.6555647496898L463.63260239966803 761.9311129499374L462.4948282995447 763.6377741001243L460.2296235002068 763.6377741001243L460.2296235002068 766.4718659495238L457.95407529995646 767.0407529995864L457.95407529995646 769.8851882498966L454.5407529995846 773.8570541994213L449.9999999999982 773.8570541994213L447.72445179974966 776.1326023996689L451.13777410012335 775.5637153496073L452.2755482002467 777.2703764997932L447.72445179974966 777.2703764997932L446.5866776996263 778.97703764998L443.1836988001651 779.5459247000417L440.90815059991655 778.97703764998L440.90815059991655 776.7014894497306L436.36739760033015 776.7014894497306L435.229623500205 778.97703764998L429.5407529995846 781.2525858502277L427.2755482002467 778.4081505999175L423.86222589987483 780.6836988001651L419.3214729002884 781.2525858502277L417.0459247000399 777.8392635498549L413.63260239966803 776.1326023996689L406.8163011998331 778.4081505999175L406.8163011998331 774.425941249483L412.4948282995447 772.7296235002068L413.63260239966803 770.4540752999583L417.0459247000399 769.3163011998349L417.0459247000399 765.3340918494005L422.7244517997515 758.5177906495655L420.4592470004118 756.2525858502277L428.41332230037006 749.9948282995456L422.7244517997515 748.8570541994204L423.86222589987483 742.6096400496481L418.18369880016326 742.0407529995864L415.90815059991655 738.6377741001243L413.63260239966803 739.7755482002485L412.4948282995447 735.7933388498141L413.63260239966803 735.2244517997524L411.36739760033015 734.0866776996272L412.4948282995447 731.8111294993796L410.229623500205 729.5459247000408L406.8163011998331 729.5459247000408L406.8163011998331 727.2703764997932L403.4133223003719 724.9948282995447L402.2755482002467 718.1785270997107L397.72445179974966 714.7755482002476L398.86222589987483 711.9311129499383L395.4592470004136 710.2244517997515L393.1836988001651 705.6836988001651L395.4592470004136 701.1326023996689L393.1836988001651 697.7296235002068L387.4948282995447 695.4540752999583L379.5407529995846 697.1607364501451L380.67852709970794 690.3340918493996L377.2755482002467 681.8111294993796L377.2755482002467 675.5637153496073L378.4133223003719 672.1607364501451L381.8163011998331 670.4540752999583L377.2755482002467 667.0407529995864L384.0918494000816 663.0688870500626L389.7703764997914 655.1148117501034L388.63260239966803 653.97703764998L393.1836988001651 653.4081505999175L396.5866776996263 649.9948282995456L394.3214729002884 647.1607364501451L389.7703764997914 647.7296235002068L385.2296235002068 644.8851882498966L381.8163011998331 648.2985105502694L378.4133223003719 648.8570541994213L379.5407529995846 643.7474141497723L375 636.3622258998757L376.13777410012335 633.5177906495655L373.86222589987483 631.2525858502277Z" stroke="#FFFFFF" stroke-opacity="0.75" stroke-width="1" stroke-linecap="round" stroke-linejoin="round" fill="#D3D3D3"/>
		<path name="四平市" d="M173.86222589987483 449.9948282995447L199.99999999999818 447.7296235002077L205.67852709970975 448.86739760033106L209.09184940008163 446.02296235002086L211.36739760033015 448.86739760033106L219.32147290028843 453.97703764997914L217.0459247000399 456.82147290029025L218.18369880016326 456.82147290029025L237.5051717004535 457.3800165494422L259.0918494000816 455.6836988001651L261.36739760033015 457.3800165494422L268.1836988001651 457.94890359950386L287.5051717004553 452.8392635498558L296.5866776996263 444.8851882498966L309.0918494000816 443.74741414977234L320.4592470004118 440.90297889946214L322.72445179974966 444.3163011998349L320.4592470004118 446.59184940008254L321.5866776996263 449.9948282995447L327.2755482002485 452.8392635498558L330.67852709970975 451.7014894497315L332.95407529995646 454.5459247000417L339.7703764997914 456.25258585022766L338.63260239966803 457.94890359950386L338.63260239966803 460.79333884981406L342.0459247000399 463.63777410012426L342.0459247000399 466.4718659495247L349.9999999999982 463.63777410012426L352.2755482002467 465.90297889946214L355.67852709970975 466.4718659495247L357.9540752999583 469.3163011998349L356.8163011998331 475.56371534960726L363.63260239966803 481.82147290029025L377.2755482002467 488.63777410012426L377.2755482002467 490.90297889946305L378.4133223003719 491.4718659495247L377.2755482002467 493.74741414977234L375 504.5459247000417L373.86222589987483 505.683698800166L373.86222589987483 509.6555647496898L371.5866776996263 510.79333884981406L372.72445179974966 513.6377741001243L376.13777410012335 514.2066611501868L385.2296235002068 510.79333884981406L385.2296235002068 509.0866776996281L384.0918494000816 506.82147290028934L386.36739760033015 505.1148117501043L385.2296235002068 503.40815059991746L388.63260239966803 499.425941249483L393.1836988001651 498.2985105502685L393.1836988001651 505.1148117501043L398.86222589987483 514.2066611501868L398.86222589987483 517.0407529995864L406.8163011998331 518.1785270997107L406.8163011998331 520.4540752999592L403.4133223003719 522.7296235002068L403.4133223003719 524.425941249483L417.0459247000399 532.9489035995039L413.63260239966803 537.5L413.63260239966803 539.7755482002485L419.3214729002884 547.1607364501451L424.9999999999982 547.7296235002068L427.2755482002467 549.9948282995447L421.5866776996263 551.7014894497306L422.7244517997515 553.4081505999175L419.3214729002884 554.5459247000417L414.7703764997932 552.2703764997932L414.7703764997932 554.5459247000417L397.72445179974966 549.9948282995447L396.5866776996263 544.8851882498966L396.5866776996263 540.3444352503102L389.7703764997914 536.3622258998757L384.0918494000816 538.0688870500626L382.9540752999583 543.1785270997107L387.4948282995447 544.8851882498966L386.36739760033015 549.425941249483L375 544.3163011998349L368.1836988001651 536.9311129499374L363.63260239966803 536.3622258998757L349.9999999999982 537.5L334.0918494000816 546.5918494000825L331.8163011998331 547.7296235002068L324.9999999999982 547.7296235002068L320.4592470004118 552.8392635498558L314.7703764997914 554.5459247000417L312.5051717004535 560.2244517997515L310.229623500205 561.3622258998757L311.36739760033015 563.0688870500626L309.0918494000816 563.0688870500626L309.0918494000816 564.7755482002485L298.86222589987483 573.2985105502694L292.0459247000399 574.9948282995447L290.90815059991655 578.4081505999175L288.63260239966803 573.2985105502694L280.67852709970975 571.5918494000825L281.8163011998331 569.8851882498966L288.63260239966803 566.4718659495238L288.63260239966803 564.2066611501859L285.229623500205 562.5000000000009L281.8163011998331 563.0688870500626L277.2755482002467 560.2244517997515L287.5051717004553 552.2703764997932L273.86222589987483 544.3163011998349L271.5866776996263 542.0407529995864L271.5866776996263 537.5L270.4592470004136 535.7933388498141L267.0459247000399 535.7933388498141L265.90815059991473 533.5177906495665L261.36739760033015 535.2244517997524L255.67852709970975 534.6555647496898L253.41332230037187 530.1148117501034L246.5866776996263 531.2525858502277L238.63260239966803 524.425941249483L231.8163011998331 522.7296235002068L231.8163011998331 520.4540752999592L227.2755482002467 517.0407529995864L229.5407529995864 514.7755482002485L228.41332230037006 513.0688870500617L222.72445179975148 509.6555647496898L217.0459247000399 511.36222589987574L217.0459247000399 514.7755482002485L212.50517170045532 518.1785270997107L211.36739760033015 522.1607364501451L201.13777410012335 521.5918494000825L189.77037649979138 511.9311129499383L184.09184940008163 516.4718659495247L182.95407529995828 514.2066611501868L173.86222589987483 509.6555647496898L171.5866776996263 504.5459247000417L176.13777410012335 501.7014894497315L185.2296235002068 503.40815059991746L186.36739760033015 501.13260239966894L182.95407529995828 498.2985105502685L192.04592470004172 498.8570541994204L192.04592470004172 496.02296235002086L195.4592470004136 494.8851882498966L195.4592470004136 493.17852709971066L193.18369880016508 486.36222589987665L188.63260239966803 482.94890359950386L188.63260239966803 480.683698800166L190.90815059991655 480.1148117501034L188.63260239966803 472.1607364501451L182.95407529995828 464.20666115018594L178.41332230037006 461.36222589987665L179.55109640049523 459.6555647496898L173.86222589987483 449.9948282995447Z" stroke="#FFFFFF" stroke-opacity="0.75" stroke-width="1" stroke-linecap="round" stroke-linejoin="round" fill="#D3D3D3"/>
		<path name="辽源市" d="M334.0918494000816 546.5918494000825L349.9999999999982 537.5L363.63260239966803 536.3622258998757L368.1836988001651 536.9311129499374L375 544.3163011998349L386.36739760033015 549.425941249483L387.4948282995447 544.8851882498966L382.9540752999583 543.1785270997107L384.0918494000816 538.0688870500626L389.7703764997914 536.3622258998757L396.5866776996263 540.3444352503102L396.5866776996263 544.8851882498966L397.72445179974966 549.9948282995447L414.7703764997932 554.5459247000417L422.7244517997515 559.6555647496898L424.9999999999982 566.4718659495238L423.86222589987483 567.609640049649L422.7244517997515 575.5637153496064L424.9999999999982 578.9770376499791L432.9540752999583 584.0866776996281L428.41332230037006 586.3622258998766L413.63260239966803 586.9311129499383L415.90815059991655 590.3340918493996L414.7703764997932 592.0407529995864L414.7703764997932 597.1607364501451L417.0459247000399 600.5637153496073L419.3214729002884 601.7014894497315L415.90815059991655 607.3800165494413L412.4948282995447 606.8214729002902L406.8163011998331 611.3622258998757L404.5407529995864 618.1785270997107L393.1836988001651 623.8570541994204L381.8163011998331 626.7014894497315L380.67852709970794 628.9770376499791L373.86222589987483 631.2525858502277L368.1836988001651 632.3800165494413L364.7703764997932 631.2525858502277L363.63260239966803 627.8392635498549L367.0459247000399 626.1326023996689L365.90815059991655 623.8570541994204L367.0459247000399 621.5918494000825L364.7703764997932 619.316301199834L361.36739760033015 617.6096400496481L360.229623500205 614.7755482002485L354.5407529995864 611.9311129499383L355.67852709970975 610.7933388498141L353.41332230037006 608.5177906495655L355.67852709970975 604.5459247000408L354.5407529995864 602.8392635498549L355.67852709970975 599.425941249483L348.86222589987483 599.9948282995447L347.7244517997515 598.2985105502694L347.7244517997515 594.8851882498966L343.18369880016326 593.7474141497723L345.4592470004136 592.0407529995864L343.18369880016326 589.7755482002485L345.4592470004136 586.9311129499383L344.3214729002884 580.6836988001651L338.63260239966803 578.9770376499791L335.2296235002068 582.3800165494422L332.95407529995646 581.8214729002902L331.8163011998331 580.1148117501034L330.67852709970975 573.2985105502694L332.95407529995646 564.7755482002485L330.67852709970975 557.3800165494422L334.0918494000816 552.8392635498558L334.0918494000816 548.8570541994213L335.2296235002068 547.1607364501451L334.0918494000816 546.5918494000825Z" stroke="#FFFFFF" stroke-opacity="0.75" stroke-width="1" stroke-linecap="round" stroke-linejoin="round" fill="#D3D3D3"/>
	</g>
</svg>