<?xml version="1.0" encoding="UTF-8" standalone="no"?><!-- Generator: Adobe Illustrator 19.0.0, SVG Export Plug-In . SVG Version: 6.00 Build 0)  --><svg xmlns="http://www.w3.org/2000/svg" xmlns:xlink="http://www.w3.org/1999/xlink" contentScriptType="text/ecmascript" zoomAndPan="magnify" contentStyleType="text/css" id="图层_1" style="enable-background:new 0 0 1000 1000;" mapName="宁夏回族自治区" mapType="省市地图" version="1.1" xml:space="preserve" preserveAspectRatio="xMidYMid meet" viewBox="0 0 1000 1000" x="0px" y="0px">
	<g>
		<path name="吴忠市" d="M407.4140961737612 407.4020563943268L412.71159912350413 406.07768065689015L415.36035059838105 398.1555057911337L415.36035059838105 387.5604998916424L417.98502251438913 386.23612415420575L428.5800284138786 390.20925136651385L447.09720917913 386.23612415420575L452.3947121288729 386.23612415420575L452.3947121288729 380.9627007633226L462.9656384695045 370.36769486382946L462.9656384695045 366.39456765151954L460.3168869946312 357.14801704832826L462.9656384695045 351.8505140985817L460.3168869946312 349.2017626237084L468.26314141925104 342.5798839365252L470.9118928941243 335.9820848082054L460.3168869946312 324.0627031712793L455.04346360374984 305.5455224060297L457.6681355197579 285.7039659033453L468.26314141925104 283.0792939873354L473.5606443689976 272.4842880878423L481.48281923475224 272.4842880878423L486.7803221844988 277.781791037587L500.00000000000364 281.75491824989695L500.00000000000364 284.4036697247702L492.07782513424536 301.59647475258134L500.00000000000364 301.59647475258134L502.6487514748769 292.3258445905267L505.29750294974656 287.0283416407801L507.94625442461984 287.0283416407801L510.5950058994931 291.00146885309005L518.5171807652514 293.6502203279633L529.1121866647409 284.4036697247702L531.7609381396142 285.7039659033453L529.1121866647409 288.35271737821677L526.4634351898712 288.35271737821677L526.4634351898712 291.00146885309005L534.3856100556259 291.00146885309005L534.3856100556259 292.3258445905267L537.0343615304992 296.2989718028366L537.0343615304992 298.9477232777099L550.2781189048656 298.9477232777099L558.2002937706202 305.5455224060297L560.8490452454935 310.84302535577626L558.2002937706202 320.1136555178309L563.4977967203631 325.3870789087141L571.444051144983 338.6308362830787L576.717474535868 337.30646054564386L582.0149774856145 339.9552120205153L582.0149774856145 342.5798839365252L576.717474535868 347.8773868862718L579.3662260107412 349.2017626237084L584.6637289604878 350.52613836114506L587.3124804353574 353.17488983601834L592.5859038262424 354.499265573455L592.5859038262424 363.7458161766481L589.9612319102343 365.0701919140847L579.3662260107412 365.0701919140847L576.717474535868 366.39456765151954L576.717474535868 375.665197813576L576.717474535868 378.3139492884493L579.3662260107412 379.63832502588593L582.0149774856145 384.9117484167691L576.717474535868 387.5604998916424L568.7952996701097 386.23612415420575L566.14654819524 388.88487562907903L568.7952996701097 394.1823785788238L574.0687230609947 399.47988152857033L576.717474535868 406.07768065689015L574.0687230609947 412.69955934407335L576.717474535868 416.67268655638327L576.717474535868 423.2704856847031L584.6637289604878 429.89236437188447L584.6637289604878 433.8654915841944L587.3124804353574 435.1898673216292L595.2346553011193 436.51424305906767L595.2346553011193 440.4632907125142L597.883406775989 449.73392087456887L613.7518360663635 456.35579956175206L621.6980904909833 457.6801752991887L626.9955934407299 456.35579956175206L629.6443449156031 453.7070480868788L629.6443449156031 452.38267234944215L634.9177683064881 449.73392087456887L642.864022731108 447.0851693996974L645.5127742059776 441.78766644994903L642.864022731108 433.8654915841944L661.3812034963521 420.6217342098298L674.6008813118569 423.2704856847031L690.4693106022314 424.5948614221379L687.8446386862197 408.72643213176343L687.8446386862197 403.4289291820187L706.3618194514711 388.88487562907903L714.2839943172257 380.9627007633226L714.2839943172257 369.04331912639464L703.7130679765942 369.04331912639464L701.0643165017245 350.52613836114506L698.4155650268513 347.8773868862718L695.766813551978 347.8773868862718L693.1180620771047 341.27958775795196L690.4693106022314 334.6577090707706L693.1180620771047 329.360206121024L701.0643165017245 325.3870789087141L708.9864913674792 326.71145464615074L716.932745792099 322.7624069927042L703.7130679765942 304.22114666859125L701.0643165017245 300.2720990151465L703.7130679765942 296.2989718028366L753.9671073225982 306.86989814346634L756.6158587974678 306.86989814346634L759.2646102723411 304.22114666859125L775.1330395627156 301.59647475258134L777.7817910375925 296.2989718028366L791.00146885309 297.6233475402714L796.2989718028366 302.9208504900198L801.5964747525868 305.5455224060297L822.7624069927042 313.49177683064954L835.982084808209 326.71145464615074L843.9042596739637 330.68458185846066L849.2017626237102 334.6577090707706L843.9042596739637 346.55301114883514L854.4992655734532 349.2017626237084L857.1480170483301 346.55301114883514L865.0701919140847 347.8773868862718L867.718943388958 353.17488983601834L878.3139492884475 358.4723927857649L899.4798815285722 362.42144043921144L902.1045534445839 365.0701919140847L902.1045534445839 373.01644633870274L904.7533049194572 376.98957355101265L899.4798815285722 376.98957355101265L899.4798815285722 383.5873726793325L894.1823785788256 387.5604998916424L886.2361241542094 382.26299694189584L886.2361241542094 383.5873726793325L886.2361241542094 386.23612415420575L867.718943388958 388.88487562907903L865.0701919140847 390.20925136651385L867.718943388958 392.85800284138895L859.7967685232034 408.72643213176343L851.8505140985835 408.72643213176343L849.2017626237102 410.05080786920007L838.6308362830787 406.07768065689015L838.6308362830787 410.05080786920007L843.9042596739637 412.69955934407335L843.9042596739637 416.67268655638327L838.6308362830787 415.3483108189448L835.982084808209 416.67268655638327L838.6308362830787 416.67268655638327L838.6308362830787 419.32143803125473L833.3333333333358 425.91923715957455L820.1136555178309 427.243612897013L830.6845818584588 437.8386187965043L835.982084808209 436.51424305906767L835.982084808209 441.78766644994903L830.6845818584588 448.4095451371322L825.3870789087159 451.0582966120055L820.1136555178309 456.35579956175206L820.1136555178309 455.0314238243154L817.4649040429613 456.35579956175206L809.5186496183414 492.06578535481276L812.1674010932147 497.3632883045575L817.4649040429613 506.6098389077524L822.7624069927042 509.2585903826239L822.7624069927042 514.5560933323686L822.7624069927042 517.1807652483803L814.8161525680844 518.505140985817L822.7624069927042 527.7757711478716L825.3870789087159 529.1001468853083L830.6845818584588 534.3976498350548L828.0358303835892 540.9954489633765L822.7624069927042 548.9417033879927L814.8161525680844 543.6442004382479L817.4649040429613 552.9148306003026L814.8161525680844 554.239206337741L809.5186496183414 550.2660791254311L804.2211466685949 551.590454862866L791.00146885309 540.9954489633765L780.4305425124621 542.3198247008113L772.4842880878423 547.6173276505579L767.1867851380957 544.9685761756828L761.9133617472144 546.2929519131212L753.9671073225982 542.3198247008113L753.9671073225982 544.9685761756828L753.9671073225982 548.9417033879927L746.0208528979783 546.2929519131212L740.7474295070933 548.9417033879927L735.4499265573468 543.6442004382479L724.8790002167189 539.671073225938L719.5814972669723 540.9954489633765L724.8790002167189 544.9685761756828L722.2302487418456 546.2929519131212L722.2302487418456 548.9417033879927L719.5814972669723 550.2660791254311L714.2839943172257 546.2929519131212L711.6352428423525 547.6173276505579L693.1180620771047 537.0223217510666L690.4693106022314 540.9954489633765L690.4693106022314 546.2929519131212L687.8446386862197 550.2660791254311L687.8446386862197 554.239206337741L679.8983842615999 546.2929519131212L674.6008813118569 546.2929519131212L671.95212983698 548.9417033879927L669.3033783621104 547.6173276505579L666.6787064461023 548.9417033879927L666.6787064461023 544.9685761756828L661.3812034963521 546.2929519131212L656.0837005466055 542.3198247008113L653.4349490717359 543.6442004382479L653.4349490717359 546.2929519131212L656.0837005466055 552.9148306003026L661.3812034963521 558.1882539911876L664.0299549712254 566.1345084158056L661.3812034963521 570.1076356281155L661.3812034963521 575.3810590189987L661.3812034963521 584.6516891810534L656.0837005466055 585.97606491849L648.1615256808509 584.6516891810534L650.7861975968626 589.9491921307999L645.5127742059776 591.2735678682366L645.5127742059776 589.9491921307999L645.5127742059776 588.6248163933633L642.864022731108 585.97606491849L637.5665197813578 579.3541862313068L634.9177683064881 580.6785619687453L640.2152712562311 587.3004406559266L637.5665197813578 589.9491921307999L642.864022731108 592.5979436056732L653.4349490717359 604.4932456837378L656.0837005466055 601.8444942088663L661.3812034963521 603.1688699463011L658.7324520214825 609.7907486334861L661.3812034963521 612.4395001083576L661.3812034963521 616.388547761806L664.0299549712254 617.7129234992408L664.0299549712254 621.6860507115507L661.3812034963521 625.6591779238606L658.7324520214825 632.281056611042L658.7324520214825 634.9057285270519L658.7324520214825 638.8788557393618L664.0299549712254 642.8519829516717L658.7324520214825 642.8519829516717L645.5127742059776 634.9057285270519L642.864022731108 640.2032314768003L640.2152712562311 637.5544800019252L634.9177683064881 640.2032314768003L632.2690168316112 644.1763586891084L629.6443449156031 644.1763586891084L634.9177683064881 650.7982373762916L629.6443449156031 649.4738616388549L624.3468419658566 652.1226131137264L626.9955934407299 660.0447879794847L621.6980904909833 662.6935394543561L624.3468419658566 665.3422909292294L619.0493390161137 667.9910424041027L613.7518360663635 666.6666666666661L613.7518360663635 667.9910424041027L608.4784126754821 664.0179151917946L605.8296612006088 667.9910424041027L597.883406775989 667.9910424041027L597.883406775989 670.639793878976L582.0149774856145 674.5888415324225L576.717474535868 673.2644657949859L571.444051144983 667.9910424041027L566.14654819524 671.9400900575492L560.8490452454935 671.9400900575492L560.8490452454935 677.2375930072958L552.9027908208736 674.5888415324225L544.9806159551154 678.5619687447324L542.3318644802457 675.9132172698592L542.3318644802457 667.9910424041027L534.3856100556259 661.3691637169213L531.7609381396142 650.7982373762916L523.8146837149943 642.8519829516717L523.8146837149943 634.9057285270519L515.8684292903781 626.9835536612973L515.8684292903781 624.334802186424L513.2437573743664 619.0372992366774L507.94625442461984 616.388547761806L500.00000000000364 616.388547761806L502.6487514748769 611.115124370921L502.6487514748769 607.141997158611L500.00000000000364 605.8176214211762L497.3512485251267 601.8444942088663L494.7024970502571 600.5201184714297L497.3512485251267 597.8713669965564L494.7024970502571 597.8713669965564L489.4290736593721 593.9223193431098L486.7803221844988 592.5979436056732L486.7803221844988 589.9491921307999L484.1315707096255 585.97606491849L476.1853162850093 585.97606491849L468.26314141925104 580.6785619687453L452.3947121288729 555.5395025163125L449.7459606540033 554.239206337741L441.79970622938345 554.239206337741L431.2287798887555 544.9685761756828L425.93127693900897 531.7488983601816L425.93127693900897 525.1270196729984L417.98502251438913 518.505140985817L428.5800284138786 514.5560933323686L433.8775313636288 523.8026439355635L431.2287798887555 527.7757711478716L439.15095475451017 534.3976498350548L452.3947121288729 529.1001468853083L444.4484577042567 510.5829661200605L457.6681355197579 503.9610874328773L492.07782513424536 505.28546317031396L494.7024970502571 502.6367116954425L492.07782513424536 501.31233595800404L473.5606443689976 493.3901610922476L470.9118928941243 489.4170338799395L481.48281923475224 485.44390666762956L476.1853162850093 482.7951551927563L478.8340677598826 480.146403717883L494.7024970502571 476.19735606443646L492.07782513424536 472.22422885212836L494.7024970502571 470.8998531146917L502.6487514748769 470.8998531146917L497.3512485251267 464.2779744275085L510.5950058994931 462.9535986900719L515.8684292903781 460.3048472151986L515.8684292903781 457.6801752991887L526.4634351898712 449.73392087456887L523.8146837149943 445.76079366225895L515.8684292903781 444.4364179248241L507.94625442461984 439.1629945339391L507.94625442461984 435.1898673216292L513.2437573743664 423.2704856847031L510.5950058994931 421.94610994726463L513.2437573743664 414.02393508150817L505.29750294974656 400.7801777071436L505.29750294974656 395.5067543162604L500.00000000000364 394.1823785788238L500.00000000000364 402.10455344458023L492.07782513424536 414.02393508150817L489.4290736593721 414.02393508150817L489.4290736593721 417.9970622938181L486.7803221844988 424.5948614221379L481.48281923475224 425.91923715957455L478.8340677598826 424.5948614221379L481.48281923475224 417.9970622938181L478.8340677598826 415.3483108189448L481.48281923475224 408.72643213176343L481.48281923475224 400.7801777071436L470.9118928941243 400.7801777071436L465.61438994437776 403.4289291820187L455.04346360374984 403.4289291820187L449.7459606540033 404.7533049194535L436.5022032796405 403.4289291820187L420.6337739892624 407.4020563943268L407.4140961737612 407.4020563943268Z" stroke="#FFFFFF" stroke-opacity="0.75" stroke-width="1" stroke-linecap="round" stroke-linejoin="round" fill="#D3D3D3"/>
		<path name="中卫市" d="M407.4140961737612 407.4020563943268L420.6337739892624 407.4020563943268L436.5022032796405 403.4289291820187L449.7459606540033 404.7533049194535L455.04346360374984 403.4289291820187L465.61438994437776 403.4289291820187L470.9118928941243 400.7801777071436L481.48281923475224 400.7801777071436L481.48281923475224 408.72643213176343L478.8340677598826 415.3483108189448L481.48281923475224 417.9970622938181L478.8340677598826 424.5948614221379L481.48281923475224 425.91923715957455L486.7803221844988 424.5948614221379L489.4290736593721 417.9970622938181L489.4290736593721 414.02393508150817L492.07782513424536 414.02393508150817L500.00000000000364 402.10455344458023L500.00000000000364 394.1823785788238L505.29750294974656 395.5067543162604L505.29750294974656 400.7801777071436L513.2437573743664 414.02393508150817L510.5950058994931 421.94610994726463L513.2437573743664 423.2704856847031L507.94625442461984 435.1898673216292L507.94625442461984 439.1629945339391L515.8684292903781 444.4364179248241L523.8146837149943 445.76079366225895L526.4634351898712 449.73392087456887L515.8684292903781 457.6801752991887L515.8684292903781 460.3048472151986L510.5950058994931 462.9535986900719L497.3512485251267 464.2779744275085L502.6487514748769 470.8998531146917L494.7024970502571 470.8998531146917L492.07782513424536 472.22422885212836L494.7024970502571 476.19735606443646L478.8340677598826 480.146403717883L476.1853162850093 482.7951551927563L481.48281923475224 485.44390666762956L470.9118928941243 489.4170338799395L473.5606443689976 493.3901610922476L492.07782513424536 501.31233595800404L494.7024970502571 502.6367116954425L492.07782513424536 505.28546317031396L457.6681355197579 503.9610874328773L444.4484577042567 510.5829661200605L452.3947121288729 529.1001468853083L439.15095475451017 534.3976498350548L431.2287798887555 527.7757711478716L433.8775313636288 523.8026439355635L428.5800284138786 514.5560933323686L417.98502251438913 518.505140985817L425.93127693900897 525.1270196729984L425.93127693900897 531.7488983601816L431.2287798887555 544.9685761756828L441.79970622938345 554.239206337741L449.7459606540033 554.239206337741L452.3947121288729 555.5395025163125L468.26314141925104 580.6785619687453L476.1853162850093 585.97606491849L484.1315707096255 585.97606491849L486.7803221844988 589.9491921307999L486.7803221844988 592.5979436056732L489.4290736593721 593.9223193431098L494.7024970502571 597.8713669965564L497.3512485251267 597.8713669965564L494.7024970502571 600.5201184714297L497.3512485251267 601.8444942088663L500.00000000000364 605.8176214211762L502.6487514748769 607.141997158611L502.6487514748769 611.115124370921L500.00000000000364 616.388547761806L507.94625442461984 616.388547761806L513.2437573743664 619.0372992366774L515.8684292903781 624.334802186424L515.8684292903781 626.9835536612973L523.8146837149943 634.9057285270519L523.8146837149943 642.8519829516717L531.7609381396142 650.7982373762916L534.3856100556259 661.3691637169213L542.3318644802457 667.9910424041027L542.3318644802457 675.9132172698592L544.9806159551154 678.5619687447324L526.4634351898712 685.1838474319156L521.165932240121 685.1838474319156L521.165932240121 687.8325989067889L521.165932240121 689.1569746442237L515.8684292903781 690.4813503816604L513.2437573743664 695.7547737725454L510.5950058994931 695.7547737725454L507.94625442461984 699.7279009848535L515.8684292903781 703.7010281971634L518.5171807652514 711.6232030629199L518.5171807652514 718.2450817501012L515.8684292903781 722.2182089624112L513.2437573743664 723.5425846998478L507.94625442461984 730.1403838281676L507.94625442461984 732.7891353030409L510.5950058994931 736.7622625153508L507.94625442461984 740.7353897276589L502.6487514748769 739.4110139902241L500.00000000000364 749.9819403308538L505.29750294974656 755.2794432805986L505.29750294974656 769.8234968335382L492.07782513424536 765.8744491800899L478.8340677598826 765.8744491800899L473.5606443689976 776.4453755207196L470.9118928941243 776.4453755207196L468.26314141925104 780.4185027330295L457.6681355197579 787.0403814202127L452.3947121288729 783.0672542079028L444.4484577042567 784.3916299453394L452.3947121288729 776.4453755207196L452.3947121288729 773.7966240458481L449.7459606540033 772.4722483084097L444.4484577042567 771.1478725709749L441.79970622938345 773.7966240458481L436.5022032796405 772.4722483084097L428.5800284138786 779.0941269955929L425.93127693900897 779.0941269955929L417.98502251438913 773.7966240458481L410.0628476486345 761.90132196778L404.7653446988843 760.5769462303451L391.54566688338673 767.1988249175283L386.24816393364017 767.1988249175283L383.5994124587669 772.4722483084097L375.67723759301225 759.2525704929085L378.3259890678819 756.6038190180352L375.67723759301225 752.6306918057253L380.95066098389 749.9819403308538L380.95066098389 746.0328926774055L375.67723759301225 739.4110139902241L367.7309831683924 736.7622625153508L362.4334802186422 730.1403838281676L359.7847287437726 726.1913361747211L365.0822316935155 724.8669604372844L362.4334802186422 722.2182089624112L362.4334802186422 712.9475788003565L357.16005682776085 710.2988273254832L354.5113053528876 711.6232030629199L351.8625538780143 697.0791495099802L343.9162994533981 687.8325989067889L338.6428760625131 690.4813503816604L330.69662163789326 690.4813503816604L325.3991186881467 685.1838474319156L325.3991186881467 683.859471694479L330.69662163789326 681.2107202196057L330.69662163789326 677.2375930072958L328.04787016302 671.9400900575492L322.7503672132734 670.639793878976L320.1256952972617 665.3422909292294L320.1256952972617 657.3960365046114L314.8281923475188 649.4738616388549L314.8281923475188 646.8251101639817L320.1256952972617 640.2032314768003L330.69662163789326 638.8788557393618L333.34537311276654 636.2301042644904L338.6428760625131 637.5544800019252L343.9162994533981 636.2301042644904L346.56505092826774 633.5813527896171L346.56505092826774 623.0104264489873L346.56505092826774 621.6860507115507L341.2675479785212 623.0104264489873L338.6428760625131 621.6860507115507L341.2675479785212 617.7129234992408L335.9941245876398 613.7397962869309L333.34537311276654 612.4395001083576L333.34537311276654 607.141997158611L328.04787016302 604.4932456837378L325.3991186881467 604.4932456837378L320.1256952972617 601.8444942088663L312.1794408726455 601.8444942088663L309.5306893977722 583.3273134436167L306.88193792289894 578.029810493872L291.01350863252446 575.3810590189987L280.4425822918929 570.1076356281155L275.14507934215 574.0807628404255L272.4963278672767 570.1076356281155L267.19882491753015 567.4588841532423L253.9791471020253 567.4588841532423L253.9791471020253 566.1345084158056L253.9791471020253 555.5395025163125L246.03289267740547 552.9148306003026L246.03289267740547 548.9417033879927L240.7594692865241 544.9685761756828L240.7594692865241 538.3466974885014L232.8132148619079 533.0732740976182L230.164463387031 525.1270196729984L219.59353704640307 521.1538924606884L211.64728262178323 517.1807652483803L208.9985311469136 517.1807652483803L198.42760480628203 526.4513954104368L185.18384743191928 526.4513954104368L182.55917551590755 525.1270196729984L182.55917551590755 526.4513954104368L179.91042404103428 526.4513954104368L174.61292109128772 523.8026439355635L169.3154181415448 515.8804690698071L171.96416961641444 509.2585903826239L174.61292109128772 509.2585903826239L174.61292109128772 503.9610874328773L182.55917551590755 505.28546317031396L187.83259890678892 499.9879602205674L198.42760480628203 494.7145368296842L198.42760480628203 492.06578535481276L193.1301018565391 492.06578535481276L185.18384743191928 489.4170338799395L182.55917551590755 485.44390666762956L187.83259890678892 477.5217318018731L187.83259890678892 476.19735606443646L179.91042404103428 474.8729803269998L174.61292109128772 476.19735606443646L156.09574032603996 473.5486045895632L150.7982373762934 470.8998531146917L145.5248139854084 473.5486045895632L134.92980808591892 474.8729803269998L132.28105661104564 473.5486045895632L129.63230513617236 469.57547737725326L129.63230513617236 468.25110163981844L105.8417009800396 474.8729803269998L97.89544655541977 476.19735606443646L95.24669508054649 473.5486045895632L103.19294950516633 468.25110163981844L105.8417009800396 470.8998531146917L111.1151243709246 470.8998531146917L113.76387584579425 466.9267259023818L121.71013027041408 465.60235016494516L124.358881745291 453.7070480868788L214.2960340966565 449.73392087456887L232.8132148619079 443.1120421873875L264.55007344265687 436.51424305906767L328.04787016302 411.3751836066349L354.5113053528876 403.4289291820187L386.24816393364017 407.4020563943268L407.4140961737612 407.4020563943268Z" stroke="#FFFFFF" stroke-opacity="0.75" stroke-width="1" stroke-linecap="round" stroke-linejoin="round" fill="#D3D3D3"/>
		<path name="固原市" d="M383.5994124587669 772.4722483084097L386.24816393364017 767.1988249175283L391.54566688338673 767.1988249175283L404.7653446988843 760.5769462303451L410.0628476486345 761.90132196778L417.98502251438913 773.7966240458481L425.93127693900897 779.0941269955929L428.5800284138786 779.0941269955929L436.5022032796405 772.4722483084097L441.79970622938345 773.7966240458481L444.4484577042567 771.1478725709749L449.7459606540033 772.4722483084097L452.3947121288729 773.7966240458481L452.3947121288729 776.4453755207196L444.4484577042567 784.3916299453394L452.3947121288729 783.0672542079028L457.6681355197579 787.0403814202127L468.26314141925104 780.4185027330295L470.9118928941243 776.4453755207196L473.5606443689976 776.4453755207196L478.8340677598826 765.8744491800899L492.07782513424536 765.8744491800899L505.29750294974656 769.8234968335382L505.29750294974656 755.2794432805986L500.00000000000364 749.9819403308538L502.6487514748769 739.4110139902241L507.94625442461984 740.7353897276589L510.5950058994931 736.7622625153508L507.94625442461984 732.7891353030409L507.94625442461984 730.1403838281676L513.2437573743664 723.5425846998478L515.8684292903781 722.2182089624112L518.5171807652514 718.2450817501012L518.5171807652514 711.6232030629199L515.8684292903781 703.7010281971634L507.94625442461984 699.7279009848535L510.5950058994931 695.7547737725454L513.2437573743664 695.7547737725454L515.8684292903781 690.4813503816604L521.165932240121 689.1569746442237L521.165932240121 687.8325989067889L521.165932240121 685.1838474319156L526.4634351898712 685.1838474319156L544.9806159551154 678.5619687447324L552.9027908208736 674.5888415324225L560.8490452454935 677.2375930072958L560.8490452454935 671.9400900575492L566.14654819524 671.9400900575492L571.444051144983 667.9910424041027L576.717474535868 673.2644657949859L582.0149774856145 674.5888415324225L597.883406775989 670.639793878976L597.883406775989 667.9910424041027L605.8296612006088 667.9910424041027L608.4784126754821 664.0179151917946L613.7518360663635 667.9910424041027L613.7518360663635 671.9400900575492L616.4005875412367 674.5888415324225L613.7518360663635 677.2375930072958L616.4005875412367 682.5350959570405L608.4784126754821 682.5350959570405L603.1809097257355 678.5619687447324L600.5321582508623 682.5350959570405L595.2346553011193 678.5619687447324L592.5859038262424 678.5619687447324L595.2346553011193 685.1838474319156L605.8296612006088 687.8325989067889L605.8296612006088 691.7816465602355L611.1030845914938 691.7816465602355L616.4005875412367 697.0791495099802L621.6980904909833 697.0791495099802L621.6980904909833 701.0522767222901L626.9955934407299 698.4035252474168L632.2690168316112 703.7010281971634L632.2690168316112 706.3497796720349L626.9955934407299 711.6232030629199L629.6443449156031 715.5963302752298L624.3468419658566 715.5963302752298L624.3468419658566 719.5694574875397L632.2690168316112 722.2182089624112L634.9177683064881 726.1913361747211L626.9955934407299 724.8669604372844L626.9955934407299 738.0866382527856L626.9955934407299 739.4110139902241L629.6443449156031 743.384141202534L629.6443449156031 747.3572684148421L621.6980904909833 740.7353897276589L619.0493390161137 742.0597654650956L619.0493390161137 743.384141202534L624.3468419658566 748.6816441522787L626.9955934407299 752.6306918057253L629.6443449156031 751.3063160682887L634.9177683064881 755.2794432805986L640.2152712562311 753.9550675431638L640.2152712562311 746.0328926774055L642.864022731108 746.0328926774055L650.7861975968626 751.3063160682887L650.7861975968626 746.0328926774055L653.4349490717359 749.9819403308538L658.7324520214825 752.6306918057253L661.3812034963521 748.6816441522787L661.3812034963521 753.9550675431638L664.0299549712254 752.6306918057253L669.3033783621104 751.3063160682887L677.2496327867302 759.2525704929085L679.8983842615999 761.90132196778L685.19588721135 760.5769462303451L690.4693106022314 764.5500734426532L698.4155650268513 761.90132196778L701.0643165017245 765.8744491800899L703.7130679765942 763.2256977052184L703.7130679765942 764.5500734426532L706.3618194514711 761.90132196778L708.9864913674792 767.1988249175283L711.6352428423525 768.4991210960998L716.932745792099 773.7966240458481L722.2302487418456 775.120999783283L724.8790002167189 779.0941269955929L724.8790002167189 783.0672542079028L727.5036721327269 785.7160056827743L727.5036721327269 787.0403814202127L730.1524236076002 783.0672542079028L730.1524236076002 788.340677598786L735.4499265573468 787.0403814202127L732.8011750824735 792.3138048110941L738.09867803222 794.9625562859692L732.8011750824735 802.9088107105872L732.8011750824735 804.2331864480238L732.8011750824735 808.1822341014704L730.1524236076002 810.8309855763437L730.1524236076002 814.8041127886536L735.4499265573468 816.1284885260902L732.8011750824735 820.1016157383983L727.5036721327269 824.0747429507082L724.8790002167189 837.2944207662113L719.5814972669723 835.9700450287746L714.2839943172257 839.9431722410845L714.2839943172257 841.2675479785212L711.6352428423525 842.5919237159578L711.6352428423525 845.2406751908293L719.5814972669723 845.2406751908293L719.5814972669723 847.865347106841L716.932745792099 847.865347106841L716.932745792099 851.8384743191491L719.5814972669723 850.5140985817125L722.2302487418456 858.4603530063323L724.8790002167189 857.1359772688975L727.5036721327269 861.1091044812056L730.1524236076002 862.4334802186422L722.2302487418456 863.7578559560789L727.5036721327269 867.7069036095254L724.8790002167189 873.004406559272L722.2302487418456 870.3556550843987L722.2302487418456 874.3287822967086L716.932745792099 870.3556550843987L714.2839943172257 879.6262852464533L711.6352428423525 878.3019095090167L706.3618194514711 879.6262852464533L703.7130679765942 878.3019095090167L703.7130679765942 884.8997086373365L701.0643165017245 886.2240843747732L690.4693106022314 883.5994124587633L690.4693106022314 882.2750367213266L687.8446386862197 882.2750367213266L685.19588721135 888.8728358496464L687.8446386862197 888.8728358496464L687.8446386862197 891.5215873245197L682.5471357364768 891.5215873245197L671.95212983698 886.2240843747732L669.3033783621104 882.2750367213266L669.3033783621104 884.8997086373365L664.0299549712254 887.5484601122116L658.7324520214825 884.8997086373365L656.0837005466055 878.3019095090167L653.4349490717359 880.9506609838918L650.7861975968626 878.3019095090167L650.7861975968626 882.2750367213266L634.9177683064881 878.3019095090167L634.9177683064881 882.2750367213266L632.2690168316112 879.6262852464533L626.9955934407299 880.9506609838918L624.3468419658566 883.5994124587633L616.4005875412367 886.2240843747732L613.7518360663635 890.1972115870831L611.1030845914938 891.5215873245197L611.1030845914938 898.1434660117029L616.4005875412367 903.4409689614477L616.4005875412367 904.7412651400227L619.0493390161137 907.390016614896L619.0493390161137 911.3631438272059L621.6980904909833 917.9850225143873L616.4005875412367 917.9850225143873L613.7518360663635 923.2584459052705L616.4005875412367 927.2315731175804L613.7518360663635 931.2047003298903L619.0493390161137 936.5022032796351L619.0493390161137 940.475330491945L624.3468419658566 941.7997062293816L621.6980904909833 948.3975053577014L626.9955934407299 956.3437597823213L624.3468419658566 962.9415589106411L629.6443449156031 970.8878133352591L624.3468419658566 972.2121890726958L624.3468419658566 978.8340677598771L619.0493390161137 982.7831154133255L611.1030845914938 985.431866888197L605.8296612006088 990.7293698379453L600.5321582508623 992.0537455753802L595.2346553011193 992.0537455753802L597.883406775989 997.3512485251267L592.5859038262424 1000L589.9612319102343 996.0268727876901L587.3124804353574 996.0268727876901L584.6637289604878 993.3781213128168L582.0149774856145 988.0806183630702L579.3662260107412 988.0806183630702L574.0687230609947 985.431866888197L574.0687230609947 978.8340677598771L568.7952996701097 976.1853162850057L563.4977967203631 972.2121890726958L566.14654819524 966.914686122951L563.4977967203631 958.9925112571927L552.9027908208736 958.9925112571927L550.2781189048656 955.0193840448828L547.6293674299886 952.3706325700114L547.6293674299886 956.3437597823213L537.0343615304992 961.641262732066L537.0343615304992 966.914686122951L531.7609381396142 969.5634375978225L531.7609381396142 961.641262732066L526.4634351898712 960.3168869946312L523.8146837149943 948.3975053577014L523.8146837149943 940.475330491945L529.1121866647409 937.8265790170717L529.1121866647409 935.1778275421984L526.4634351898712 935.1778275421984L523.8146837149943 939.1509547545083L521.165932240121 936.5022032796351L510.5950058994931 939.1509547545083L507.94625442461984 935.1778275421984L510.5950058994931 933.8534518047618L507.94625442461984 931.2047003298903L507.94625442461984 932.529076067327L505.29750294974656 929.8803245924519L484.1315707096255 927.2315731175804L481.48281923475224 925.9071973801438L478.8340677598826 925.9071973801438L476.1853162850093 928.555948855017L473.5606443689976 927.2315731175804L473.5606443689976 933.8534518047618L468.26314141925104 939.1509547545083L465.61438994437776 937.8265790170717L465.61438994437776 927.2315731175804L462.9656384695045 928.555948855017L462.9656384695045 923.2584459052705L462.9656384695045 919.3093982518221L457.6681355197579 920.6337739892606L452.3947121288729 916.6606467769507L455.04346360374984 914.0118953020774L447.09720917913 910.0387680897675L449.7459606540033 906.0656408774576L447.09720917913 904.7412651400227L447.09720917913 907.390016614896L444.4484577042567 906.0656408774576L444.4484577042567 903.4409689614477L439.15095475451017 903.4409689614477L439.15095475451017 902.116593224011L439.15095475451017 895.4947145368278L431.2287798887555 891.5215873245197L433.8775313636288 888.8728358496464L436.5022032796405 887.5484601122116L439.15095475451017 882.2750367213266L441.79970622938345 888.8728358496464L444.4484577042567 888.8728358496464L447.09720917913 884.8997086373365L447.09720917913 880.9506609838918L441.79970622938345 883.5994124587633L436.5022032796405 879.6262852464533L431.2287798887555 879.6262852464533L431.2287798887555 878.3019095090167L428.5800284138786 879.6262852464533L425.93127693900897 876.9775337715819L410.0628476486345 883.5994124587633L410.0628476486345 884.8997086373365L404.7653446988843 884.8997086373365L402.11659322401465 890.1972115870831L399.46784174914137 891.5215873245197L402.11659322401465 884.8997086373365L399.46784174914137 883.5994124587633L383.5994124587669 883.5994124587633L380.95066098389 880.9506609838918L378.3259890678819 875.6531580341434L375.67723759301225 876.9775337715819L375.67723759301225 870.3556550843987L370.37973464326205 867.7069036095254L367.7309831683924 859.7847287437689L367.7309831683924 861.1091044812056L365.0822316935155 859.7847287437689L357.16005682776085 866.3825278720888L354.5113053528876 863.7578559560789L357.16005682776085 861.1091044812056L354.5113053528876 854.4872257940224L357.16005682776085 851.8384743191491L359.7847287437726 853.1628500565876L362.4334802186422 850.5140985817125L357.16005682776085 847.865347106841L346.56505092826774 845.2406751908293L346.56505092826774 842.5919237159578L343.9162994533981 838.6187965036479L346.56505092826774 838.6187965036479L343.9162994533981 830.6725420790281L346.56505092826774 828.0237906041548L346.56505092826774 817.4528642635269L346.56505092826774 816.1284885260902L349.213802403141 809.506609838907L351.8625538780143 808.1822341014704L351.8625538780143 805.5575621854605L359.7847287437726 801.5844349731506L367.7309831683924 792.3138048110941L375.67723759301225 790.9894290736593L380.95066098389 792.3138048110941L383.5994124587669 790.9894290736593L386.24816393364017 784.3916299453394L388.8969154085098 781.7428784704662L383.5994124587669 777.7697512581581L383.5994124587669 772.4722483084097Z  M505.29750294974656 949.7218810951381L505.29750294974656 948.3975053577014L505.29750294974656 952.3706325700114L497.3512485251267 955.0193840448828L497.3512485251267 953.6950083074462L494.7024970502571 955.0193840448828L481.48281923475224 957.6681355197561L478.8340677598826 951.0462568325747L481.48281923475224 948.3975053577014L486.7803221844988 948.3975053577014L513.2437573743664 940.475330491945L521.165932240121 939.1509547545083L518.5171807652514 948.3975053577014L515.8684292903781 948.3975053577014L513.2437573743664 944.4243781453915L510.5950058994931 947.0731296202648L507.94625442461984 951.0462568325747L507.94625442461984 952.3706325700114L505.29750294974656 949.7218810951381Z" stroke="#FFFFFF" stroke-opacity="0.75" stroke-width="1" stroke-linecap="round" stroke-linejoin="round" fill="#D3D3D3"/>
		<path name="银川市" d="M510.5950058994931 125.6712177032914L521.165932240121 128.31996917816468L531.7609381396142 134.9177683064845L534.3856100556259 136.24214404392114L534.3856100556259 138.89089551879442L537.0343615304992 141.5396469936677L555.5515422957469 144.18839846853916L566.14654819524 140.21527125623106L576.717474535868 146.83714994341244L584.6637289604878 144.18839846853916L584.6637289604878 149.46182185942234L589.9612319102343 146.83714994341244L600.5321582508623 146.83714994341244L600.5321582508623 148.16152568084908L597.883406775989 152.11057333429744L600.5321582508623 153.43494907173226L600.5321582508623 154.7593248091689L608.4784126754821 162.70557923378874L613.7518360663635 162.70557923378874L611.1030845914938 166.67870644609684L613.7518360663635 169.30337836210856L619.0493390161137 168.00308218353348L619.0493390161137 165.35433070866202L624.3468419658566 165.35433070866202L648.1615256808509 171.95212983698184L648.1615256808509 174.6008813118533L653.4349490717359 178.57400852416322L664.0299549712254 178.57400852416322L661.3812034963521 182.54713573647314L666.6787064461023 186.52026294878306L661.3812034963521 214.28399431722391L661.3812034963521 218.25712152953201L653.4349490717359 232.80117508247167L621.6980904909833 253.96710732259453L621.6980904909833 257.94023453490263L637.5665197813578 273.8086638252789L703.7130679765942 296.2989718028366L701.0643165017245 300.2720990151465L703.7130679765942 304.22114666859125L716.932745792099 322.7624069927042L708.9864913674792 326.71145464615074L701.0643165017245 325.3870789087141L693.1180620771047 329.360206121024L690.4693106022314 334.6577090707706L693.1180620771047 341.27958775795196L695.766813551978 347.8773868862718L698.4155650268513 347.8773868862718L701.0643165017245 350.52613836114506L703.7130679765942 369.04331912639464L714.2839943172257 369.04331912639464L714.2839943172257 380.9627007633226L706.3618194514711 388.88487562907903L687.8446386862197 403.4289291820187L687.8446386862197 408.72643213176343L690.4693106022314 424.5948614221379L674.6008813118569 423.2704856847031L661.3812034963521 420.6217342098298L642.864022731108 433.8654915841944L645.5127742059776 441.78766644994903L642.864022731108 447.0851693996974L634.9177683064881 449.73392087456887L629.6443449156031 452.38267234944215L629.6443449156031 453.7070480868788L626.9955934407299 456.35579956175206L621.6980904909833 457.6801752991887L613.7518360663635 456.35579956175206L597.883406775989 449.73392087456887L595.2346553011193 440.4632907125142L595.2346553011193 436.51424305906767L587.3124804353574 435.1898673216292L584.6637289604878 433.8654915841944L584.6637289604878 429.89236437188447L576.717474535868 423.2704856847031L576.717474535868 416.67268655638327L574.0687230609947 412.69955934407335L576.717474535868 406.07768065689015L574.0687230609947 399.47988152857033L568.7952996701097 394.1823785788238L566.14654819524 388.88487562907903L568.7952996701097 386.23612415420575L576.717474535868 387.5604998916424L582.0149774856145 384.9117484167691L579.3662260107412 379.63832502588593L576.717474535868 378.3139492884493L576.717474535868 375.665197813576L576.717474535868 366.39456765151954L579.3662260107412 365.0701919140847L589.9612319102343 365.0701919140847L592.5859038262424 363.7458161766481L592.5859038262424 354.499265573455L587.3124804353574 353.17488983601834L584.6637289604878 350.52613836114506L579.3662260107412 349.2017626237084L576.717474535868 347.8773868862718L582.0149774856145 342.5798839365252L582.0149774856145 339.9552120205153L576.717474535868 337.30646054564386L571.444051144983 338.6308362830787L563.4977967203631 325.3870789087141L558.2002937706202 320.1136555178309L560.8490452454935 310.84302535577626L558.2002937706202 305.5455224060297L550.2781189048656 298.9477232777099L537.0343615304992 298.9477232777099L537.0343615304992 296.2989718028366L534.3856100556259 292.3258445905267L534.3856100556259 291.00146885309005L526.4634351898712 291.00146885309005L526.4634351898712 288.35271737821677L529.1121866647409 288.35271737821677L531.7609381396142 285.7039659033453L529.1121866647409 284.4036697247702L518.5171807652514 293.6502203279633L510.5950058994931 291.00146885309005L507.94625442461984 287.0283416407801L505.29750294974656 287.0283416407801L502.6487514748769 292.3258445905267L500.00000000000364 301.59647475258134L492.07782513424536 301.59647475258134L500.00000000000364 284.4036697247702L500.00000000000364 281.75491824989695L486.7803221844988 277.781791037587L481.48281923475224 272.4842880878423L473.5606443689976 272.4842880878423L476.1853162850093 263.2377374846492L468.26314141925104 255.29148306003117L468.26314141925104 249.9939801102846L470.9118928941243 244.72055671940143L468.26314141925104 234.12555081991013L473.5606443689976 231.47679934503685L470.9118928941243 222.23024874184193L473.5606443689976 212.95961857978727L476.1853162850093 207.66211563004254L476.1853162850093 195.76681355197616L478.8340677598826 193.11806207710288L476.1853162850093 187.82055912735632L476.1853162850093 181.2227599990365L484.1315707096255 170.6277540995452L484.1315707096255 162.70557923378874L486.7803221844988 161.3812034963521L486.7803221844988 149.46182185942234L494.7024970502571 144.18839846853916L497.3512485251267 137.56651978135778L507.94625442461984 129.64434491560132L510.5950058994931 125.6712177032914Z" stroke="#FFFFFF" stroke-opacity="0.75" stroke-width="1" stroke-linecap="round" stroke-linejoin="round" fill="#D3D3D3"/>
		<path name="石嘴山市" d="M740.7474295070933 93.91027956367907L738.09867803222 107.15403693804365L708.9864913674792 128.31996917816468L695.766813551978 144.18839846853916L677.2496327867302 157.40807628404218L666.6787064461023 186.52026294878306L661.3812034963521 182.54713573647314L664.0299549712254 178.57400852416322L653.4349490717359 178.57400852416322L648.1615256808509 174.6008813118533L648.1615256808509 171.95212983698184L624.3468419658566 165.35433070866202L619.0493390161137 165.35433070866202L619.0493390161137 168.00308218353348L613.7518360663635 169.30337836210856L611.1030845914938 166.67870644609684L613.7518360663635 162.70557923378874L608.4784126754821 162.70557923378874L600.5321582508623 154.7593248091689L600.5321582508623 153.43494907173226L597.883406775989 152.11057333429744L600.5321582508623 148.16152568084908L600.5321582508623 146.83714994341244L589.9612319102343 146.83714994341244L584.6637289604878 149.46182185942234L584.6637289604878 144.18839846853916L576.717474535868 146.83714994341244L566.14654819524 140.21527125623106L555.5515422957469 144.18839846853916L537.0343615304992 141.5396469936677L534.3856100556259 138.89089551879442L534.3856100556259 136.24214404392114L531.7609381396142 134.9177683064845L521.165932240121 128.31996917816468L510.5950058994931 125.6712177032914L505.29750294974656 124.34684196585476L502.6487514748769 121.6980904909833L513.2437573743664 111.10308459149019L513.2437573743664 109.80278841291693L521.165932240121 104.50528546317037L523.8146837149943 103.18090972573373L526.4634351898712 100.53215825086227L531.7609381396142 91.26152808880397L529.1121866647409 88.63685617279407L529.1121866647409 82.01497748561269L534.3856100556259 74.06872306099285L537.0343615304992 72.74434732355803L537.0343615304992 70.11967540754813L537.0343615304992 66.14654819523821L544.9806159551154 58.20029377061837L550.2781189048656 58.20029377061837L555.5515422957469 60.84904524548983L568.7952996701097 63.49779672036311L571.444051144983 62.17342098292829L576.717474535868 60.84904524548983L579.3662260107412 56.87591803318173L576.717474535868 47.62936742998863L579.3662260107412 41.007488742805435L576.717474535868 34.385610055624056L576.717474535868 27.787810927304236L621.6980904909833 26.463435189867596L632.2690168316112 19.841556502684398L653.4349490717359 2.648751474873279L664.0299549712254 7.946254424619838L671.95212983698 9.270630162054658L685.19588721135 0L687.8446386862197 3.973127212309919L695.766813551978 6.621878687183198L695.766813551978 13.243757374364577L698.4155650268513 17.192805027812938L698.4155650268513 26.463435189867596L695.766813551978 37.034361530497335L711.6352428423525 60.84904524548983L708.9864913674792 64.82217245779975L708.9864913674792 74.06872306099285L716.932745792099 70.11967540754813L732.8011750824735 75.39309879842949L740.7474295070933 80.69060174817605L740.7474295070933 93.91027956367907Z" stroke="#FFFFFF" stroke-opacity="0.75" stroke-width="1" stroke-linecap="round" stroke-linejoin="round" fill="#D3D3D3"/>
	</g>
</svg>