<?xml version="1.0" encoding="UTF-8" standalone="no"?><!-- Generator: Adobe Illustrator 19.0.0, SVG Export Plug-In . SVG Version: 6.00 Build 0)  --><svg xmlns="http://www.w3.org/2000/svg" xmlns:xlink="http://www.w3.org/1999/xlink" contentScriptType="text/ecmascript" zoomAndPan="magnify" contentStyleType="text/css" id="图层_1" style="enable-background:new 0 0 1000 1000;" mapName="山西省" mapType="省市地图" version="1.1" xml:space="preserve" preserveAspectRatio="xMidYMid meet" viewBox="0 0 1000 1000" x="0px" y="0px">
	<g>
		<path name="忻州市" d="M265.38698885966005 327.38965214849486L267.1733411283276 322.923771476826L267.1733411283276 319.36730650557L270.7460456656627 316.6877781025687L274.3187502029941 308.64919289356567L272.5323979343266 305.0927279223097L276.0888629055844 301.5200233849755L274.3187502029941 294.37461431030533L270.7460456656627 287.24544480171517L279.6615674429195 280.1162752931241L288.5933287862572 278.32992302445655L295.72249829484645 272.07769008412106L297.508850563514 266.73487284419843L299.29520283218153 264.94852057553L301.0815551008491 261.3758160381958L299.29520283218153 257.8031115008607L304.63802007210325 247.99441358926924L308.21072460943833 243.5285329176004L308.21072460943833 239.9720679463453L313.56978141544096 234.61301114034268L313.56978141544096 233.719835006008L308.21072460943833 233.719835006008L304.63802007210325 231.93348273734136L302.85166780343934 230.14713046867382L304.63802007210325 226.59066549741874L304.63802007210325 225.69748936308406L299.29520283218153 228.37701776608537L299.29520283218153 223.01796096008275L293.9361460261789 223.91113709441743L292.14979375751136 223.01796096008275L297.508850563514 216.76572801974726L301.0815551008491 214.10243918282504L304.63802007210325 214.9956153171588L308.21072460943833 214.10243918282504L311.7834291467734 214.9956153171588L317.12624638669513 214.10243918282504L320.69895092403385 214.9956153171588L331.4008249699582 213.20926304849036L334.9735295072933 204.27750170515355L342.10269901588254 201.61421286823224L343.8890512845501 199.8278605995638L343.8890512845501 197.1483321965643L342.10269901588254 195.36197992789675L345.6754035532176 186.44645815063723L343.8890512845501 182.87375361330305L343.8890512845501 181.9805774789702L347.46175582188516 184.6601058819706L349.2481080905527 183.76692974763773L347.46175582188516 181.08740134463642L345.6754035532176 181.08740134463642L343.8890512845501 179.30104907596888L352.8208126278878 175.74458410471198L358.1636298678095 175.74458410471198L374.2245607197365 180.19422521030174L377.7972652570752 178.4078729416351L379.5836175257391 179.30104907596888L386.712787034332 181.08740134463642L390.2854915716671 184.6601058819706L400.9873656175914 187.3396342849719L409.9028873948482 181.9805774789702L415.26194420085085 184.6601058819706L418.83464873818593 182.87375361330305L424.1774659781113 183.76692974763773L427.75017051544273 189.12598655363854L436.66569229270317 196.25515606222962L434.8793400240356 198.04150833089716L425.9638182467788 198.04150833089716L418.83464873818593 200.72103673389847L420.6047614407762 202.5073890025651L422.39111370944374 206.063853973822L422.39111370944374 207.85020624248955L425.9638182467788 207.85020624248955L431.32287505278146 210.52973464549086L433.0929877553681 210.52973464549086L434.8793400240356 213.20926304849036L438.4520445613707 217.65890415408012L436.66569229270317 220.33843255708143L440.23839683003825 223.91113709441743L438.4520445613707 225.69748936308406L443.81110136737334 229.25395433434005L443.81110136737334 231.0403066030085L445.58121406995997 232.82665887167514L443.81110136737334 235.50618727467554L447.3675663386275 238.18571567767685L449.15391860729505 242.63535678326662L452.72662314463014 241.74218064893375L454.5129754132977 238.18571567767685L463.4284971905545 238.18571567767685L467.0012017278932 241.74218064893375L467.0012017278932 245.31488518626793L468.7875539965571 247.10123745493456L468.7875539965571 248.8875897236021L470.57390626522465 249.78076585793588L470.57390626522465 254.24664652960473L475.91672350514636 253.35347039527187L477.70307577381755 254.24664652960473L479.4894280424851 256.0167592321932L479.4894280424851 261.3758160381958L484.8322452824068 262.26899217252867L484.8322452824068 264.0553444411971L483.0621325798202 264.94852057553L484.8322452824068 266.73487284419843L486.61859755107434 266.73487284419843L486.61859755107434 264.0553444411971L490.19130208840943 263.16216830686244L495.55035889441206 265.84169670986375L500.89317613433377 264.0553444411971L506.2522329403364 266.73487284419843L520.5268115235995 259.58946376952736L524.0832764948536 260.4826399038611L525.8696287635212 264.0553444411971L529.4423333008526 264.94852057553L531.2286855695238 267.6280489785313L540.1442073467806 268.5049855467869L541.9305596154481 266.73487284419843L541.9305596154481 264.0553444411971L543.7169118841157 262.26899217252867L549.0759686901183 262.26899217252867L556.2051381987076 257.8031115008607L557.9914904673751 255.12358309786032L554.41878593004 252.4602942609372L557.9914904673751 253.35347039527187L563.3343077073005 251.56711812660342L568.6933645133031 253.35347039527187L572.2660690506345 247.99441358926924L579.3952385592274 247.10123745493456L579.3952385592274 244.42170905193416L582.9679430965589 242.63535678326662L582.9679430965589 240.86524408067817L588.3269999025615 234.61301114034268L604.3716911884148 231.0403066030085L607.9443957257463 225.69748936308406L613.3034525317489 223.91113709441743L616.8599175030067 224.8043132287503L618.6462697716706 226.59066549741874L618.6462697716706 230.14713046867382L624.0053265776733 232.82665887167514L629.3481438175986 234.61301114034268L638.2799051609363 231.93348273734136L641.8363701321905 232.82665887167514L648.9817792068607 231.0403066030085L652.5544837441957 231.93348273734136L656.1109487154499 231.0403066030085L661.4700055214525 233.719835006008L665.0427100587876 231.0403066030085L666.8290623274552 229.25395433434005L670.385527298713 231.0403066030085L672.1718795673769 227.4838416317516L681.0874013446373 226.59066549741874L684.6601058819724 219.44525642274857L688.2328104193075 218.5520802884148L688.2328104193075 214.9956153171588L688.2328104193075 213.20926304849036L691.8055149566426 212.3160869141575L695.3619799278968 214.9956153171588L697.1483321965643 214.9956153171588L702.5073890025669 213.20926304849036L709.6365585111562 214.9956153171588L718.5683198544939 214.9956153171588L722.1247848257517 217.65890415408012L723.9111370944192 221.2316086914161L727.4838416317543 222.12478482574897L734.6130111403436 223.91113709441743L739.9720679463462 221.2316086914161L743.5447724836813 223.01796096008275L743.5447724836813 226.59066549741874L747.1012374549355 230.14713046867382L748.887589723603 231.0403066030085L754.2466465296056 239.9720679463453L754.2466465296056 241.74218064893375L754.2466465296056 247.10123745493456L750.6739419922706 249.78076585793588L750.6739419922706 253.35347039527187L752.4602942609381 261.3758160381958L754.2466465296056 266.73487284419843L750.6739419922706 269.39816168111975L747.1012374549355 272.9708662184539L741.7584202150138 272.07769008412106L736.3993634090111 278.32992302445655L731.0565461690858 280.99321186137877L731.0565461690858 283.6727402643801L725.6974893630832 283.6727402643801L723.9111370944192 284.56591639871385L722.1247848257517 286.3522686673805L723.9111370944192 292.6045016077169L725.6974893630832 298.8404949819742L723.9111370944192 300.62684725064173L727.4838416317543 304.1995517879768L727.4838416317543 306.8790801909772L736.3993634090111 309.54236902789944L736.3993634090111 313.1150735652336L732.826658871676 316.6877781025687L732.826658871676 320.2442430738247L731.0565461690858 322.03059534249223L727.4838416317543 321.13741920815846L723.9111370944192 327.38965214849486L723.9111370944192 329.1760044171615L722.1247848257517 330.96235668582904L720.3384325570805 331.8555328201628L716.7819675858264 329.1760044171615L713.2092630484913 329.1760044171615L714.9956153171588 336.30517392575257L711.4229107798274 338.9847023287539L709.6365585111562 340.7710545974214L706.080093539902 338.9847023287539L698.9346844652318 339.87787846308674L695.3619799278968 345.2369352690894L697.1483321965643 348.79340024034536L688.2328104193075 354.152457046348L688.2328104193075 360.3884504206044L686.44645815064 361.28162655493907L681.0874013446373 360.3884504206044L677.5309363733795 363.0679788236057L673.9582318360481 363.0679788236057L665.0427100587876 360.3884504206044L659.683653252785 364.85433109227324L654.3245964467824 364.85433109227324L648.9817792068607 367.53385949527456L643.622722400858 370.21338789827587L643.622722400858 372.8766767351972L640.0662574296039 375.5562051381985L634.7072006236012 375.5562051381985L631.1344960862662 378.2357335411998L622.2189743090094 378.2357335411998L616.8599175030067 377.34255740686694L609.7307479944138 378.2357335411998L599.0288739484895 388.93760758712506L595.4561694111544 389.83078372145883L593.6698171424869 387.1512553184575L590.0971126051518 390.7239598557935L572.2660690506345 396.0830166617943L565.1206599759644 404.99853843905294L554.41878593004 406.78489070771957L549.0759686901183 405.8917145733867L547.2896164214508 406.78489070771957L540.1442073467806 404.99853843905294L541.9305596154481 408.5712429763871L536.5715028094455 412.127707947644L527.6559810321887 411.2507713793884L525.8696287635212 409.4644191107209L527.6559810321887 406.78489070771957L522.3131637922634 401.42583390171876L520.5268115235995 405.8917145733867L518.7404592549283 407.67806684205425L509.8249374776715 404.99853843905294L506.2522329403364 399.6394816330503L500.89317613433377 401.42583390171876L495.55035889441206 400.5326577673841L490.19130208840943 396.0830166617943L488.4049498197419 395.18984052746055L481.275780311149 395.18984052746055L475.91672350514636 398.74630549871745L479.4894280424851 402.3190100360516L475.91672350514636 404.1053623047201L472.3440189678149 404.1053623047201L472.3440189678149 404.99853843905294L475.91672350514636 409.4644191107209L477.70307577381755 413.0208840819769L479.4894280424851 413.91406021631065L479.4894280424851 416.59358861931196L475.91672350514636 421.0594692909808L470.57390626522465 421.0594692909808L470.57390626522465 423.7389976939821L461.6421449218906 421.0594692909808L456.2993276819652 421.9526454253137L452.72662314463014 418.3799408879795L445.58121406995997 416.59358861931196L443.81110136737334 417.48676475364573L436.66569229270317 414.8072363506453L427.75017051544273 418.3799408879795L424.1774659781113 415.7004124849782L420.6047614407762 415.7004124849782L418.83464873818593 413.0208840819769L415.26194420085085 413.91406021631065L413.4755919321833 413.0208840819769L413.4755919321833 408.5712429763871L411.68923966351576 410.35759524505556L406.33018285751314 410.35759524505556L402.77371788625896 406.78489070771957L399.2010133489239 405.8917145733867L397.41466108025634 399.6394816330503L400.9873656175914 397.86936893046186L402.77371788625896 398.74630549871745L408.1165351261843 396.976192796129L409.9028873948482 395.18984052746055L408.1165351261843 393.403488258793L406.33018285751314 386.25807918412374L404.5600701549265 383.59479034720243L400.9873656175914 382.70161421286775L402.77371788625896 380.9152619442011L400.9873656175914 378.2357335411998L402.77371788625896 374.66302900386563L400.9873656175914 371.9997401669425L390.2854915716671 363.0679788236057L399.2010133489239 358.61833771801594L395.6283088115888 352.36610477768045L390.2854915716671 347.9002241060125L388.49913930299954 347.9002241060125L384.92643476566445 353.2592809120133L368.8655039137375 358.61833771801594L363.52268667381213 363.0679788236057L361.7363344051446 363.0679788236057L358.1636298678095 360.3884504206044L356.3772775991456 360.3884504206044L354.59092533047806 365.747507226607L351.03446035922025 363.0679788236057L347.46175582188516 361.28162655493907L345.6754035532176 353.2592809120133L342.10269901588254 352.36610477768045L334.9735295072933 352.36610477768045L329.61447270129065 350.579752509012L329.61447270129065 347.9002241060125L320.69895092403385 348.79340024034536L317.12624638669513 348.79340024034536L315.3398941180312 345.2369352690894L313.56978141544096 343.45058300042274L315.3398941180312 339.87787846308674L309.9970768781059 337.19835006008543L309.9970768781059 334.51882165708594L308.21072460943833 333.62564552275126L309.9970768781059 330.0691805514962L306.4243723407708 327.38965214849486L301.0815551008491 326.4964760141602L299.29520283218153 328.28282828282863L292.14979375751136 330.0691805514962L290.3634414888438 332.7487089544966L285.0206242489221 332.7487089544966L283.23427198025456 335.4119977914188L279.6615674429195 336.30517392575257L276.0888629055844 338.9847023287539L270.7460456656627 334.51882165708594L265.38698885966005 334.51882165708594L265.38698885966005 330.0691805514962L265.38698885966005 327.38965214849486Z" stroke="#FFFFFF" stroke-opacity="0.75" stroke-width="1" stroke-linecap="round" stroke-linejoin="round" fill="#D3D3D3"/>
		<path name="吕梁市" d="M265.38698885966005 327.38965214849486L265.38698885966005 330.0691805514962L265.38698885966005 334.51882165708594L270.7460456656627 334.51882165708594L276.0888629055844 338.9847023287539L279.6615674429195 336.30517392575257L283.23427198025456 335.4119977914188L285.0206242489221 332.7487089544966L290.3634414888438 332.7487089544966L292.14979375751136 330.0691805514962L299.29520283218153 328.28282828282863L301.0815551008491 326.4964760141602L306.4243723407708 327.38965214849486L309.9970768781059 330.0691805514962L308.21072460943833 333.62564552275126L309.9970768781059 334.51882165708594L309.9970768781059 337.19835006008543L315.3398941180312 339.87787846308674L313.56978141544096 343.45058300042274L315.3398941180312 345.2369352690894L317.12624638669513 348.79340024034536L320.69895092403385 348.79340024034536L329.61447270129065 347.9002241060125L329.61447270129065 350.579752509012L334.9735295072933 352.36610477768045L342.10269901588254 352.36610477768045L345.6754035532176 353.2592809120133L347.46175582188516 361.28162655493907L351.03446035922025 363.0679788236057L354.59092533047806 365.747507226607L356.3772775991456 360.3884504206044L358.1636298678095 360.3884504206044L361.7363344051446 363.0679788236057L363.52268667381213 363.0679788236057L368.8655039137375 358.61833771801594L384.92643476566445 353.2592809120133L388.49913930299954 347.9002241060125L390.2854915716671 347.9002241060125L395.6283088115888 352.36610477768045L399.2010133489239 358.61833771801594L390.2854915716671 363.0679788236057L400.9873656175914 371.9997401669425L402.77371788625896 374.66302900386563L400.9873656175914 378.2357335411998L402.77371788625896 380.9152619442011L400.9873656175914 382.70161421286775L404.5600701549265 383.59479034720243L406.33018285751314 386.25807918412374L408.1165351261843 393.403488258793L409.9028873948482 395.18984052746055L408.1165351261843 396.976192796129L402.77371788625896 398.74630549871745L400.9873656175914 397.86936893046186L397.41466108025634 399.6394816330503L399.2010133489239 405.8917145733867L402.77371788625896 406.78489070771957L406.33018285751314 410.35759524505556L397.41466108025634 416.59358861931196L390.2854915716671 416.59358861931196L390.2854915716671 420.16629315664613L386.712787034332 421.0594692909808L384.92643476566445 423.7389976939821L374.2245607197365 429.08181493390475L365.3090389424797 429.9749910682385L361.7363344051446 431.76134333690607L361.7363344051446 433.5476956055736L358.1636298678095 434.4408717399074L358.1636298678095 436.227224008574L356.3772775991456 437.1204001429087L359.94998213647705 438.89051284549714L358.1636298678095 442.4632173828313L359.94998213647705 446.9290980545002L361.7363344051446 452.2719152944237L367.07915164506994 456.73779596609165L367.07915164506994 462.09685277209337L361.7363344051446 463.8669654746818L365.3090389424797 465.65331774335027L367.07915164506994 470.1191984150182L374.2245607197365 468.3328461463507L379.5836175257391 468.3328461463507L384.92643476566445 467.4396700120169L388.49913930299954 464.7601416090165L393.84195654292125 466.54649387768313L393.84195654292125 469.22602228068445L397.41466108025634 471.012374549352L397.41466108025634 472.7987268180186L404.5600701549265 475.47825522101994L406.33018285751314 479.03472019227684L420.6047614407762 479.03472019227684L424.1774659781113 488.8596576699465L427.75017051544273 488.8596576699465L431.32287505278146 491.52294650686963L438.4520445613707 490.62977037253495L442.0247490987058 492.4161226412034L452.72662314463014 491.52294650686963L454.5129754132977 494.20247490987094L465.214849459222 499.56153171587175L463.4284971905545 501.3478839845402L465.214849459222 504.9043489557962L470.57390626522465 510.263405761797L472.3440189678149 511.1565818961317L474.13037123648246 516.4993991360552L483.0621325798202 515.6224625677996L483.0621325798202 519.1789275390556L481.275780311149 521.8584559420569L484.8322452824068 522.7516320763907L484.8322452824068 524.5379843450582L486.61859755107434 526.3243366137249L483.0621325798202 528.1106888823933L488.4049498197419 530.7739777193146L488.4049498197419 533.453506122316L488.4049498197419 535.2398583909835L479.4894280424851 537.9193867939848L477.70307577381755 540.5989151969861L472.3440189678149 552.1939653772451L458.08567995063277 563.7890155575051L456.2993276819652 561.1094871545038L449.15391860729505 555.7504303485011L443.81110136737334 556.6436064828349L440.23839683003825 556.6436064828349L440.23839683003825 559.3231348858353L434.8793400240356 562.8958394231704L425.9638182467788 566.4685439605046L427.75017051544273 569.1318327974277L425.9638182467788 573.5977134690957L427.75017051544273 579.849946409432L422.39111370944374 591.4449965896911L418.83464873818593 593.2313488583586L417.0482964695184 598.5741660982821L413.4755919321833 599.467342232615L413.4755919321833 601.2536945012835L411.68923966351576 602.1468706356163L408.1165351261843 600.3605183669488L406.33018285751314 602.1468706356163L393.84195654292125 606.6127513072852L392.071843840331 609.2760401442074L384.92643476566445 608.3828640098736L383.1400824969969 610.1692162785403L383.1400824969969 612.8487446815416L381.35373022832937 611.9555685472087L379.5836175257391 613.7419208158753L377.7972652570752 613.7419208158753L376.010912988404 616.4214492188767L363.52268667381213 611.0623924128749L361.7363344051446 611.0623924128749L359.94998213647705 610.1692162785403L359.94998213647705 608.3828640098736L354.59092533047806 609.2760401442074L356.3772775991456 611.9555685472087L358.1636298678095 612.8487446815416L358.1636298678095 614.63509695021L361.7363344051446 616.4214492188767L361.7363344051446 619.1009776218771L365.3090389424797 619.9941537562117L367.07915164506994 620.8710903244655L361.7363344051446 626.2301471304681L356.3772775991456 626.2301471304681L352.8208126278878 627.1233232648019L347.46175582188516 633.3593166390592L343.8890512845501 634.2524927733921L340.3325863132959 633.3593166390592L340.3325863132959 640.5047257137294L336.7598817759608 640.5047257137294L331.4008249699582 647.6338952223186L326.05800773003284 647.6338952223186L326.05800773003284 650.31342362532L318.9125986553663 651.2065997596546L318.9125986553663 646.7407190879858L313.56978141544096 646.7407190879858L309.9970768781059 649.4202474909871L308.21072460943833 649.4202474909871L306.4243723407708 644.0774302510636L306.4243723407708 642.291077982396L302.85166780343934 638.7183734450618L302.85166780343934 632.4823800708036L301.0815551008491 633.3593166390592L295.72249829484645 633.3593166390592L292.14979375751136 634.2524927733921L286.80697651758965 633.3593166390592L285.0206242489221 631.5892039364708L286.80697651758965 623.5506187274668L288.5933287862572 621.7642664588002L286.80697651758965 618.2078014875442L283.23427198025456 619.1009776218771L277.87521517425193 622.657442593134L274.3187502029941 623.5506187274668L274.3187502029941 621.7642664588002L270.7460456656627 620.8710903244655L272.5323979343266 623.5506187274668L268.9596933969915 624.4437948618015L265.38698885966005 623.5506187274668L263.60063659098887 623.5506187274668L249.34229757381036 630.696027802137L240.41053623047264 629.8028516678032L238.6241839618051 630.696027802137L236.83783169313756 628.9096755334695L236.83783169313756 625.3369709961353L235.06771899055093 623.5506187274668L229.7086621845483 622.657442593134L226.13595764721322 618.2078014875442L222.5794926759554 619.1009776218771L219.00678813862396 618.2078014875442L215.43408360128524 620.8710903244655L215.43408360128524 624.4437948618015L217.22043586995642 625.3369709961353L213.64773133262133 628.9096755334695L208.30491409269598 628.0164993991357L202.94585728669335 630.696027802137L197.58680048069073 628.0164993991357L190.45763097210147 627.1233232648019L186.88492643476638 628.0164993991357L186.88492643476638 626.2301471304681L181.54210919484467 626.2301471304681L177.96940465750959 624.4437948618015L179.7557569261735 613.7419208158753L177.96940465750959 609.2760401442074L172.61034785150696 607.4896878755399L172.61034785150696 604.8263990386176L176.18305238884204 603.9332229042839L181.54210919484467 606.6127513072852L183.3284614635122 606.6127513072852L183.3284614635122 604.8263990386176L179.7557569261735 603.9332229042839L177.96940465750959 602.1468706356163L181.54210919484467 601.2536945012835L185.09857416609884 600.3605183669488L192.243983240769 593.2313488583586L197.58680048069073 590.5518204553573L197.58680048069073 585.1927636493556L204.7322095553609 578.9567702750983L213.64773133262133 570.0250089317606L217.22043586995642 565.5753678261717L217.22043586995642 562.8958394231704L222.5794926759554 561.1094871545038L220.79314040728786 556.6436064828349L224.34960537854568 553.9803176459127L224.34960537854568 552.1939653772451L215.43408360128524 549.5144369742438L213.64773133262133 547.7280847055772L213.64773133262133 543.2622040339083L215.43408360128524 537.9193867939848L217.22043586995642 536.1330345253173L233.2813667218834 534.3466822566506L235.06771899055093 529.8808015849818L235.06771899055093 526.3243366137249L236.83783169313756 522.7516320763907L236.83783169313756 520.9652798077241L240.41053623047264 517.3925752703881L236.83783169313756 511.1565818961317L235.06771899055093 504.0111728214615L235.06771899055093 503.11799668712865L238.6241839618051 502.24106011887307L240.41053623047264 500.45470785020643L235.06771899055093 495.9888271785376L226.13595764721322 494.20247490987094L224.34960537854568 492.4161226412034L226.13595764721322 489.7365942382021L233.2813667218834 487.96648153561364L233.2813667218834 485.2869531326123L229.7086621845483 481.71424859527724L222.5794926759554 479.9278963266097L220.79314040728786 478.14154405794307L217.22043586995642 472.7987268180186L206.51856182402844 457.6309721004254L195.8166877781041 452.2719152944237L195.8166877781041 450.48556302575525L197.58680048069073 446.0359219201655L194.03033550943655 443.3563935171651L192.243983240769 439.78368897983L194.03033550943655 434.4408717399074L192.243983240769 430.8681672025723L195.8166877781041 425.5091103965706L194.03033550943655 420.16629315664613L194.03033550943655 414.8072363506453L195.8166877781041 411.2507713793884L201.15950501802945 411.2507713793884L202.94585728669335 410.35759524505556L204.7322095553609 398.74630549871745L204.7322095553609 396.0830166617943L217.22043586995642 395.18984052746055L226.13595764721322 387.1512553184575L231.49501445321584 386.25807918412374L238.6241839618051 371.9997401669425L243.98324076780773 371.9997401669425L247.5559453051428 373.76985286953095L252.89876254506453 371.10656403260873L252.89876254506453 362.1748026892719L258.25781935106716 360.3884504206044L258.25781935106716 354.152457046348L260.0441716197347 351.4729286433467L256.4714670823996 349.68657637467913L254.6851148137357 344.3437591347556L256.4714670823996 338.9847023287539L260.0441716197347 336.30517392575257L260.0441716197347 331.8555328201628L265.38698885966005 327.38965214849486Z" stroke="#FFFFFF" stroke-opacity="0.75" stroke-width="1" stroke-linecap="round" stroke-linejoin="round" fill="#D3D3D3"/>
		<path name="临汾市" d="M177.96940465750959 624.4437948618015L181.54210919484467 626.2301471304681L186.88492643476638 626.2301471304681L186.88492643476638 628.0164993991357L190.45763097210147 627.1233232648019L197.58680048069073 628.0164993991357L202.94585728669335 630.696027802137L208.30491409269598 628.0164993991357L213.64773133262133 628.9096755334695L217.22043586995642 625.3369709961353L215.43408360128524 624.4437948618015L215.43408360128524 620.8710903244655L219.00678813862396 618.2078014875442L222.5794926759554 619.1009776218771L226.13595764721322 618.2078014875442L229.7086621845483 622.657442593134L235.06771899055093 623.5506187274668L236.83783169313756 625.3369709961353L236.83783169313756 628.9096755334695L238.6241839618051 630.696027802137L240.41053623047264 629.8028516678032L249.34229757381036 630.696027802137L263.60063659098887 623.5506187274668L265.38698885966005 623.5506187274668L268.9596933969915 624.4437948618015L272.5323979343266 623.5506187274668L270.7460456656627 620.8710903244655L274.3187502029941 621.7642664588002L274.3187502029941 623.5506187274668L277.87521517425193 622.657442593134L283.23427198025456 619.1009776218771L286.80697651758965 618.2078014875442L288.5933287862572 621.7642664588002L286.80697651758965 623.5506187274668L285.0206242489221 631.5892039364708L286.80697651758965 633.3593166390592L292.14979375751136 634.2524927733921L295.72249829484645 633.3593166390592L301.0815551008491 633.3593166390592L302.85166780343934 632.4823800708036L302.85166780343934 638.7183734450618L306.4243723407708 642.291077982396L306.4243723407708 644.0774302510636L308.21072460943833 649.4202474909871L309.9970768781059 649.4202474909871L313.56978141544096 646.7407190879858L318.9125986553663 646.7407190879858L318.9125986553663 651.2065997596546L326.05800773003284 650.31342362532L326.05800773003284 647.6338952223186L331.4008249699582 647.6338952223186L336.7598817759608 640.5047257137294L340.3325863132959 640.5047257137294L342.10269901588254 640.5047257137294L345.6754035532176 644.9706063853973L351.03446035922025 644.9706063853973L354.59092533047806 639.6115495793947L356.3772775991456 643.1842541167298L358.1636298678095 641.3979018480622L363.52268667381213 643.1842541167298L359.94998213647705 647.6338952223186L363.52268667381213 649.4202474909871L367.07915164506994 654.7793042969888L374.2245607197365 657.4588326999901L374.2245607197365 660.1221215369123L377.7972652570752 661.0152976712452L383.1400824969969 665.481178342915L384.92643476566445 661.9084738055799L383.1400824969969 658.3520088343239L392.071843840331 653.886128162656L393.84195654292125 654.7793042969888L395.6283088115888 652.9929520283213L397.41466108025634 654.7793042969888L400.9873656175914 656.5656565656554L408.1165351261843 654.7793042969888L409.9028873948482 655.6724804313226L409.9028873948482 656.5656565656554L409.9028873948482 657.4588326999901L415.26194420085085 653.886128162656L424.1774659781113 654.7793042969888L431.32287505278146 659.2451849686568L434.8793400240356 657.4588326999901L438.4520445613707 659.2451849686568L438.4520445613707 662.8016499399137L442.0247490987058 665.481178342915L442.0247490987058 671.7334112832505L443.81110136737334 674.3967001201718L449.15391860729505 676.1830523888402L452.72662314463014 681.5421091948419L458.08567995063277 685.114813732177L463.4284971905545 686.8849264347655L465.214849459222 690.4576309720997L465.214849459222 694.0303355094356L467.0012017278932 697.6030400467698L470.57390626522465 700.266328883692L470.57390626522465 703.8390334210262L475.91672350514636 702.9458572866934L479.4894280424851 703.8390334210262L481.275780311149 708.3049140926951L490.19130208840943 711.861379063952L490.19130208840943 714.5409074669524L504.46588067166886 713.6477313326186L506.2522329403364 715.4340836012861L508.03858520900394 715.4340836012861L509.8249374776715 722.5794926759554L513.3814024489257 722.5794926759554L511.5950501802581 725.2427815128785L513.3814024489257 725.2427815128785L515.1677547175968 727.9223099158789L524.0832764948536 728.8154860502127L529.4423333008526 725.2427815128785L525.8696287635212 735.0677189905482L527.6559810321887 739.517360096138L525.8696287635212 743.0900646334721L527.6559810321887 749.3422975738085L524.0832764948536 753.7919386793983L518.7404592549283 755.5782909480658L515.1677547175968 759.1509954854L516.9541069862607 765.3869888596573L520.5268115235995 765.3869888596573L522.3131637922634 774.318750202995L522.3131637922634 775.2119263373279L516.9541069862607 776.9820390399163L509.8249374776715 781.4479197115852L506.2522329403364 782.341095845919L506.2522329403364 784.1274481145865L497.3367111630796 788.5933287862545L495.55035889441206 786.8069765175878L483.0621325798202 786.8069765175878L479.4894280424851 785.9138003832531L474.13037123648246 787.7001526519216L467.0012017278932 784.1274481145865L465.214849459222 785.0206242489203L458.08567995063277 785.0206242489203L458.08567995063277 786.8069765175878L461.6421449218906 787.7001526519216L463.4284971905545 790.3634414888429L468.7875539965571 793.0429698918442L472.3440189678149 797.5088505635131L468.7875539965571 799.2952028321797L465.214849459222 800.1883789665144L452.72662314463014 796.6156744291784L449.15391860729505 796.6156744291784L442.0247490987058 792.1497937575105L442.0247490987058 797.5088505635131L440.23839683003825 799.2952028321797L443.81110136737334 803.7448439377695L445.58121406995997 807.3175484751036L438.4520445613707 812.6766052811063L440.23839683003825 814.4629575497738L440.23839683003825 819.8057747896974L434.8793400240356 822.4853031926987L434.8793400240356 824.2716554613662L429.5365227841103 824.2716554613662L429.5365227841103 825.1648315957L429.5365227841103 830.5076488356226L425.9638182467788 831.4008249699573L427.75017051544273 838.5462340446265L431.32287505278146 841.225762447627L427.75017051544273 844.7822274188838L429.5365227841103 847.4617558218852L425.9638182467788 849.2481080905518L429.5365227841103 854.6071648965535L429.5365227841103 859.0568060021433L431.32287505278146 859.0568060021433L431.32287505278146 862.6295105394784L425.9638182467788 869.7586800480685L417.0482964695184 869.7586800480685L411.68923966351576 867.9885673454801L413.4755919321833 865.3090389424788L409.9028873948482 861.7363344051446L409.9028873948482 856.377277599142L415.26194420085085 847.4617558218852L413.4755919321833 844.7822274188838L411.68923966351576 843.8890512845492L408.1165351261843 840.3325863132941L409.9028873948482 837.6530579102928L413.4755919321833 834.9735295072915L402.77371788625896 835.8667056416252L393.84195654292125 829.6144727012888L388.49913930299954 827.8443599987004L383.1400824969969 828.7375361330342L384.92643476566445 826.9511838643675L383.1400824969969 826.0580077300328L381.35373022832937 828.7375361330342L376.010912988404 828.7375361330342L374.2245607197365 827.8443599987004L372.43820845107257 830.5076488356226L370.651856182405 836.7598817759581L368.8655039137375 836.7598817759581L368.8655039137375 838.5462340446265L368.8655039137375 841.225762447627L367.07915164506994 842.1026990158825L367.07915164506994 843.8890512845492L363.52268667381213 839.4394101789594L361.7363344051446 840.3325863132941L356.3772775991456 839.4394101789594L354.59092533047806 841.225762447627L352.8208126278878 840.3325863132941L343.8890512845501 842.1026990158825L340.3325863132959 841.225762447627L340.3325863132959 839.4394101789594L331.4008249699582 842.9958751502154L327.8281204326231 842.9958751502154L324.27165546136894 845.6754035532167L320.69895092403385 845.6754035532167L318.9125986553663 843.8890512845492L318.9125986553663 840.3325863132941L318.9125986553663 839.4394101789594L317.12624638669513 835.8667056416252L317.12624638669513 829.6144727012888L320.69895092403385 829.6144727012888L322.48530319269776 827.8443599987004L320.69895092403385 823.3784793270315L326.05800773003284 822.4853031926987L329.61447270129065 824.2716554613662L327.8281204326231 819.8057747896974L327.8281204326231 818.0194225210307L326.05800773003284 816.2330702523623L318.9125986553663 818.0194225210307L318.9125986553663 820.6989509240302L313.56978141544096 821.5921270583649L311.7834291467734 818.0194225210307L304.63802007210325 817.126246386696L304.63802007210325 808.2107246094383L301.0815551008491 807.3175484751036L299.29520283218153 801.974731235181L293.9361460261789 799.2952028321797L290.3634414888438 801.0815551008473L288.5933287862572 803.7448439377695L286.80697651758965 805.531196206437L285.0206242489221 808.2107246094383L283.23427198025456 809.997076878105L283.23427198025456 812.6766052811063L281.447919711587 813.569781415441L274.3187502029941 812.6766052811063L272.5323979343266 811.7834291467734L272.5323979343266 809.1039007437721L270.7460456656627 808.2107246094383L270.7460456656627 806.4243723407708L268.9596933969915 804.6380200721042L270.7460456656627 801.974731235181L268.9596933969915 801.974731235181L265.38698885966005 807.3175484751036L265.38698885966005 809.997076878105L265.38698885966005 816.2330702523623L260.0441716197347 819.8057747896974L256.4714670823996 820.6989509240302L252.89876254506453 817.126246386696L236.83783169313756 813.569781415441L235.06771899055093 814.4629575497738L227.92230991588076 812.6766052811063L222.5794926759554 814.4629575497738L220.79314040728786 811.7834291467734L224.34960537854568 809.1039007437721L217.22043586995642 804.6380200721042L213.64773133262133 805.531196206437L210.09126636136352 810.8902530124396L204.7322095553609 812.6766052811063L204.7322095553609 808.2107246094383L202.94585728669335 805.531196206437L202.94585728669335 801.974731235181L199.37315274935827 794.8293221605118L201.15950501802945 790.3634414888429L194.03033550943655 789.4865049205882L195.8166877781041 783.2342719802518L192.243983240769 778.7683913085839L194.03033550943655 776.9820390399163L194.03033550943655 774.318750202995L190.45763097210147 770.74604566566L192.243983240769 768.9596933969924L190.45763097210147 764.4938127253236L186.88492643476638 757.3646432167334L186.88492643476638 754.6851148137321L183.3284614635122 749.3422975738085L183.3284614635122 743.0900646334721L185.09857416609884 738.6241839618051L185.09857416609884 734.1745428562153L188.67127870343393 727.9223099158789L186.88492643476638 722.5794926759554L186.88492643476638 719.0067881386203L185.09857416609884 716.3272597356199L186.88492643476638 710.0912663613635L190.45763097210147 706.5185618240275L190.45763097210147 701.1595050180267L188.67127870343393 696.709863912437L192.243983240769 693.137159375101L192.243983240769 689.5644548377668L192.243983240769 683.3284614635104L190.45763097210147 680.6489330605091L192.243983240769 675.2898762545065L188.67127870343393 674.3967001201718L183.3284614635122 669.0538828802491L179.7557569261735 662.8016499399137L174.3967001201745 660.1221215369123L174.3967001201745 657.4588326999901L176.18305238884204 657.4588326999901L179.7557569261735 659.2451849686568L181.54210919484467 659.2451849686568L181.54210919484467 654.7793042969888L185.09857416609884 651.2065997596546L181.54210919484467 650.31342362532L179.7557569261735 652.9929520283213L177.96940465750959 652.0997758939884L181.54210919484467 648.5270713566533L179.7557569261735 646.7407190879858L172.61034785150696 644.9706063853973L176.18305238884204 644.9706063853973L179.7557569261735 639.6115495793947L179.7557569261735 636.9320211763934L177.96940465750959 636.0388450420605L179.7557569261735 634.2524927733921L179.7557569261735 630.696027802137L172.61034785150696 628.9096755334695L172.61034785150696 627.1233232648019L176.18305238884204 626.2301471304681L177.96940465750959 624.4437948618015Z" stroke="#FFFFFF" stroke-opacity="0.75" stroke-width="1" stroke-linecap="round" stroke-linejoin="round" fill="#D3D3D3"/>
		<path name="晋中市" d="M340.3325863132959 640.5047257137294L340.3325863132959 633.3593166390592L343.8890512845501 634.2524927733921L347.46175582188516 633.3593166390592L352.8208126278878 627.1233232648019L356.3772775991456 626.2301471304681L361.7363344051446 626.2301471304681L367.07915164506994 620.8710903244655L365.3090389424797 619.9941537562117L361.7363344051446 619.1009776218771L361.7363344051446 616.4214492188767L358.1636298678095 614.63509695021L358.1636298678095 612.8487446815416L356.3772775991456 611.9555685472087L354.59092533047806 609.2760401442074L359.94998213647705 608.3828640098736L359.94998213647705 610.1692162785403L361.7363344051446 611.0623924128749L363.52268667381213 611.0623924128749L376.010912988404 616.4214492188767L377.7972652570752 613.7419208158753L379.5836175257391 613.7419208158753L381.35373022832937 611.9555685472087L383.1400824969969 612.8487446815416L383.1400824969969 610.1692162785403L384.92643476566445 608.3828640098736L392.071843840331 609.2760401442074L393.84195654292125 606.6127513072852L406.33018285751314 602.1468706356163L408.1165351261843 600.3605183669488L411.68923966351576 602.1468706356163L413.4755919321833 601.2536945012835L413.4755919321833 599.467342232615L417.0482964695184 598.5741660982821L418.83464873818593 593.2313488583586L422.39111370944374 591.4449965896911L427.75017051544273 579.849946409432L425.9638182467788 573.5977134690957L427.75017051544273 569.1318327974277L425.9638182467788 566.4685439605046L434.8793400240356 562.8958394231704L440.23839683003825 559.3231348858353L440.23839683003825 556.6436064828349L443.81110136737334 556.6436064828349L449.15391860729505 555.7504303485011L456.2993276819652 561.1094871545038L458.08567995063277 563.7890155575051L472.3440189678149 552.1939653772451L477.70307577381755 540.5989151969861L479.4894280424851 537.9193867939848L488.4049498197419 535.2398583909835L488.4049498197419 533.453506122316L491.977654357077 532.5603299879822L495.55035889441206 528.987625450648L497.3367111630796 528.987625450648L500.89317613433377 532.5603299879822L504.46588067166886 532.5603299879822L508.03858520900394 529.8808015849818L513.3814024489257 531.6671538536493L518.7404592549283 529.8808015849818L518.7404592549283 524.5379843450582L524.0832764948536 523.6448082107236L531.2286855695238 525.431160479392L533.0150378381913 523.6448082107236L538.3578550781131 521.8584559420569L534.8013901068553 518.2857514047228L534.8013901068553 514.7292864334668L533.0150378381913 510.263405761797L529.4423333008526 509.37022962746414L529.4423333008526 504.9043489557962L536.5715028094455 503.11799668712865L533.0150378381913 499.56153171587175L538.3578550781131 496.88200331287044L536.5715028094455 493.30929877553626L541.9305596154481 492.4161226412034L543.7169118841157 485.2869531326123L541.9305596154481 482.607424729611L547.2896164214508 479.03472019227684L545.5032641527832 473.6919029523533L549.0759686901183 471.012374549352L554.41878593004 469.22602228068445L554.41878593004 465.65331774335027L557.9914904673751 464.7601416090165L559.7778427360427 464.7601416090165L563.3343077073005 467.4396700120169L559.7778427360427 460.31050050342674L561.5641950047102 457.6309721004254L559.7778427360427 454.951443697425L568.6933645133031 447.82227418883394L568.6933645133031 446.0359219201655L570.479716781967 445.14274578583263L574.0524213193057 446.9290980545002L579.3952385592274 446.0359219201655L588.3269999025615 446.9290980545002L591.8834648738193 442.4632173828313L595.4561694111544 443.3563935171651L595.4561694111544 444.24956965149886L597.242521679822 444.24956965149886L600.815226217157 441.57004124849846L599.0288739484895 438.89051284549714L600.815226217157 437.1204001429087L606.1580434570787 437.99733671116337L609.7307479944138 436.227224008574L613.3034525317489 436.227224008574L618.6462697716706 431.76134333690607L622.2189743090094 435.33404787424024L622.2189743090094 437.1204001429087L629.3481438175986 437.1204001429087L632.9208483549337 430.8681672025723L640.0662574296039 431.76134333690607L640.0662574296039 433.5476956055736L638.2799051609363 436.227224008574L640.0662574296039 441.57004124849846L643.622722400858 441.57004124849846L643.622722400858 445.14274578583263L645.4090746695256 446.9290980545002L650.7681314755282 446.9290980545002L652.5544837441957 450.48556302575525L650.7681314755282 456.73779596609165L650.7681314755282 462.09685277209337L654.3245964467824 465.65331774335027L656.1109487154499 466.54649387768313L657.8973009841211 471.90555068368576L663.2563577901201 474.5850790866871L665.0427100587876 479.03472019227684L670.385527298713 483.5006008639439L670.385527298713 487.07330540127987L673.9582318360481 491.52294650686963L675.7445841047156 494.20247490987094L681.0874013446373 494.20247490987094L682.8737536133049 496.88200331287044L686.44645815064 498.6683555815389L691.8055149566426 498.6683555815389L698.9346844652318 496.88200331287044L702.5073890025669 500.45470785020643L706.080093539902 500.45470785020643L711.4229107798274 498.6683555815389L711.4229107798274 496.88200331287044L716.7819675858264 495.9888271785376L722.1247848257517 496.88200331287044L723.9111370944192 499.56153171587175L736.3993634090111 496.88200331287044L739.9720679463462 493.30929877553626L743.5447724836813 492.4161226412034L750.6739419922706 493.30929877553626L756.0329987982732 496.88200331287044L757.8193510669407 497.7751794472051L761.3758160381949 492.4161226412034L763.1621683068624 490.62977037253495L764.94852057553 491.52294650686963L768.5212251128651 489.7365942382021L772.0776900841229 491.52294650686963L777.4367468901255 491.52294650686963L782.7958036961245 495.0956510442038L782.7958036961245 502.24106011887307L779.2230991587894 507.5838773587975L781.0094514274606 508.47705349313037L781.0094514274606 510.263405761797L777.4367468901255 514.7292864334668L775.650394621458 515.6224625677996L775.650394621458 519.1789275390556L773.8640423527868 520.9652798077241L772.0776900841229 523.6448082107236L768.5212251128651 526.3243366137249L764.94852057553 530.7739777193146L764.94852057553 535.2398583909835L763.1621683068624 539.7057390626514L759.589463769531 538.8125629283186L756.0329987982732 541.492091331319L752.4602942609381 545.9417324369088L754.2466465296056 551.3007892429114L750.6739419922706 552.1939653772451L743.5447724836813 556.6436064828349L743.5447724836813 561.1094871545038L741.7584202150138 563.7890155575051L738.1857156776787 571.811361200429L732.826658871676 576.277241872097L732.826658871676 578.9567702750983L729.2701939004182 581.6200591120205L723.9111370944192 583.4064113806871L723.9111370944192 590.5518204553573L722.1247848257517 592.3381727240239L722.1247848257517 595.8946376952808L725.6974893630832 599.467342232615L722.1247848257517 605.7195751729505L727.4838416317543 608.3828640098736L723.9111370944192 610.1692162785403L723.9111370944192 611.9555685472087L722.1247848257517 614.63509695021L722.1247848257517 618.2078014875442L725.6974893630832 622.657442593134L725.6974893630832 628.9096755334695L720.3384325570805 630.696027802137L718.5683198544939 632.4823800708036L716.7819675858264 630.696027802137L716.7819675858264 627.1233232648019L711.4229107798274 626.2301471304681L707.8502062424886 631.5892039364708L707.8502062424886 635.1456689077268L709.6365585111562 636.9320211763934L706.080093539902 637.8251973107281L707.8502062424886 639.6115495793947L706.080093539902 641.3979018480622L702.5073890025669 642.291077982396L698.9346844652318 646.7407190879858L693.5756276592292 647.6338952223186L691.8055149566426 646.7407190879858L686.44645815064 647.6338952223186L684.6601058819724 648.5270713566533L681.0874013446373 646.7407190879858L681.0874013446373 643.1842541167298L679.3172886420471 639.6115495793947L672.1718795673769 636.0388450420605L666.8290623274552 629.8028516678032L663.2563577901201 629.8028516678032L659.683653252785 627.1233232648019L657.8973009841211 628.0164993991357L657.8973009841211 619.1009776218771L650.7681314755282 616.4214492188767L648.9817792068607 612.8487446815416L645.4090746695256 610.1692162785403L643.622722400858 613.7419208158753L640.0662574296039 617.3146253532104L634.7072006236012 619.1009776218771L632.9208483549337 616.4214492188767L632.9208483549337 619.1009776218771L629.3481438175986 619.1009776218771L627.5780311150083 617.3146253532104L624.0053265776733 618.2078014875442L624.0053265776733 620.8710903244655L615.0735652343392 620.8710903244655L607.9443957257463 619.1009776218771L600.815226217157 619.1009776218771L584.7542953652301 629.8028516678032L577.6088862905599 624.4437948618015L579.3952385592274 619.1009776218771L577.6088862905599 617.3146253532104L579.3952385592274 612.8487446815416L577.6088862905599 611.0623924128749L574.0524213193057 610.1692162785403L572.2660690506345 606.6127513072852L563.3343077073005 606.6127513072852L563.3343077073005 603.9332229042839L561.5641950047102 603.0400467699501L559.7778427360427 599.467342232615L556.2051381987076 599.467342232615L556.2051381987076 595.8946376952808L552.6324336613725 593.2313488583586L545.5032641527832 591.4449965896911L540.1442073467806 587.8722920523569L538.3578550781131 590.5518204553573L534.8013901068553 591.4449965896911L531.2286855695238 595.0014615609471L524.0832764948536 593.2313488583586L522.3131637922634 590.5518204553573L520.5268115235995 589.6586443210235L520.5268115235995 587.8722920523569L516.9541069862607 587.8722920523569L513.3814024489257 588.7654681866898L508.03858520900394 588.7654681866898L508.03858520900394 589.6586443210235L515.1677547175968 593.2313488583586L515.1677547175968 600.3605183669488L516.9541069862607 603.0400467699501L518.7404592549283 609.2760401442074L524.0832764948536 610.1692162785403L524.0832764948536 611.9555685472087L524.0832764948536 614.63509695021L522.3131637922634 614.63509695021L518.7404592549283 616.4214492188767L513.3814024489257 614.63509695021L511.5950501802581 617.3146253532104L504.46588067166886 618.2078014875442L499.10682386566623 615.5282730845429L493.7640066257445 614.63509695021L490.19130208840943 618.2078014875442L479.4894280424851 611.9555685472087L472.3440189678149 609.2760401442074L472.3440189678149 605.7195751729505L468.7875539965571 606.6127513072852L465.214849459222 605.7195751729505L458.08567995063277 610.1692162785403L447.3675663386275 611.9555685472087L447.3675663386275 615.5282730845429L449.15391860729505 617.3146253532104L447.3675663386275 622.657442593134L449.15391860729505 624.4437948618015L449.15391860729505 626.2301471304681L447.3675663386275 627.1233232648019L442.0247490987058 626.2301471304681L438.4520445613707 627.1233232648019L440.23839683003825 630.696027802137L436.66569229270317 633.3593166390592L436.66569229270317 636.0388450420605L433.0929877553681 640.5047257137294L434.8793400240356 643.1842541167298L433.0929877553681 644.9706063853973L436.66569229270317 648.5270713566533L434.8793400240356 652.0997758939884L434.8793400240356 657.4588326999901L431.32287505278146 659.2451849686568L424.1774659781113 654.7793042969888L415.26194420085085 653.886128162656L409.9028873948482 657.4588326999901L409.9028873948482 656.5656565656554L409.9028873948482 655.6724804313226L408.1165351261843 654.7793042969888L400.9873656175914 656.5656565656554L397.41466108025634 654.7793042969888L395.6283088115888 652.9929520283213L393.84195654292125 654.7793042969888L392.071843840331 653.886128162656L383.1400824969969 658.3520088343239L384.92643476566445 661.9084738055799L383.1400824969969 665.481178342915L377.7972652570752 661.0152976712452L374.2245607197365 660.1221215369123L374.2245607197365 657.4588326999901L367.07915164506994 654.7793042969888L363.52268667381213 649.4202474909871L359.94998213647705 647.6338952223186L363.52268667381213 643.1842541167298L358.1636298678095 641.3979018480622L356.3772775991456 643.1842541167298L354.59092533047806 639.6115495793947L351.03446035922025 644.9706063853973L345.6754035532176 644.9706063853973L342.10269901588254 640.5047257137294L340.3325863132959 640.5047257137294Z" stroke="#FFFFFF" stroke-opacity="0.75" stroke-width="1" stroke-linecap="round" stroke-linejoin="round" fill="#D3D3D3"/>
		<path name="运城市" d="M204.7322095553609 812.6766052811063L210.09126636136352 810.8902530124396L213.64773133262133 805.531196206437L217.22043586995642 804.6380200721042L224.34960537854568 809.1039007437721L220.79314040728786 811.7834291467734L222.5794926759554 814.4629575497738L227.92230991588076 812.6766052811063L235.06771899055093 814.4629575497738L236.83783169313756 813.569781415441L252.89876254506453 817.126246386696L256.4714670823996 820.6989509240302L260.0441716197347 819.8057747896974L265.38698885966005 816.2330702523623L265.38698885966005 809.997076878105L265.38698885966005 807.3175484751036L268.9596933969915 801.974731235181L270.7460456656627 801.974731235181L268.9596933969915 804.6380200721042L270.7460456656627 806.4243723407708L270.7460456656627 808.2107246094383L272.5323979343266 809.1039007437721L272.5323979343266 811.7834291467734L274.3187502029941 812.6766052811063L281.447919711587 813.569781415441L283.23427198025456 812.6766052811063L283.23427198025456 809.997076878105L285.0206242489221 808.2107246094383L286.80697651758965 805.531196206437L288.5933287862572 803.7448439377695L290.3634414888438 801.0815551008473L293.9361460261789 799.2952028321797L299.29520283218153 801.974731235181L301.0815551008491 807.3175484751036L304.63802007210325 808.2107246094383L304.63802007210325 817.126246386696L311.7834291467734 818.0194225210307L313.56978141544096 821.5921270583649L318.9125986553663 820.6989509240302L318.9125986553663 818.0194225210307L326.05800773003284 816.2330702523623L327.8281204326231 818.0194225210307L327.8281204326231 819.8057747896974L329.61447270129065 824.2716554613662L326.05800773003284 822.4853031926987L320.69895092403385 823.3784793270315L322.48530319269776 827.8443599987004L320.69895092403385 829.6144727012888L317.12624638669513 829.6144727012888L317.12624638669513 835.8667056416252L318.9125986553663 839.4394101789594L318.9125986553663 840.3325863132941L318.9125986553663 843.8890512845492L320.69895092403385 845.6754035532167L324.27165546136894 845.6754035532167L327.8281204326231 842.9958751502154L331.4008249699582 842.9958751502154L340.3325863132959 839.4394101789594L340.3325863132959 841.225762447627L343.8890512845501 842.1026990158825L352.8208126278878 840.3325863132941L354.59092533047806 841.225762447627L356.3772775991456 839.4394101789594L361.7363344051446 840.3325863132941L363.52268667381213 839.4394101789594L367.07915164506994 843.8890512845492L367.07915164506994 842.1026990158825L368.8655039137375 841.225762447627L368.8655039137375 838.5462340446265L368.8655039137375 836.7598817759581L370.651856182405 836.7598817759581L372.43820845107257 830.5076488356226L374.2245607197365 827.8443599987004L376.010912988404 828.7375361330342L381.35373022832937 828.7375361330342L383.1400824969969 826.0580077300328L384.92643476566445 826.9511838643675L383.1400824969969 828.7375361330342L388.49913930299954 827.8443599987004L393.84195654292125 829.6144727012888L402.77371788625896 835.8667056416252L413.4755919321833 834.9735295072915L409.9028873948482 837.6530579102928L408.1165351261843 840.3325863132941L411.68923966351576 843.8890512845492L413.4755919321833 844.7822274188838L415.26194420085085 847.4617558218852L409.9028873948482 856.377277599142L409.9028873948482 861.7363344051446L413.4755919321833 865.3090389424788L411.68923966351576 867.9885673454801L417.0482964695184 869.7586800480685L425.9638182467788 869.7586800480685L431.32287505278146 862.6295105394784L436.66569229270317 868.8655039137357L440.23839683003825 868.8655039137357L440.23839683003825 872.4382084510698L438.4520445613707 875.1177368540712L443.81110136737334 876.9040891227378L445.58121406995997 879.5836175257391L447.3675663386275 881.3537302283275L445.58121406995997 887.605963168664L445.58121406995997 888.4991393029977L447.3675663386275 889.3923154373315L449.15391860729505 893.8581961090003L449.15391860729505 895.6283088115888L442.0247490987058 900.9873656175905L447.3675663386275 908.1165351261816L445.58121406995997 909.9028873948482L445.58121406995997 911.6892396635167L445.58121406995997 917.9414726038522L445.58121406995997 919.7278248725188L443.81110136737334 925.0706421124432L442.0247490987058 925.0706421124432L438.4520445613707 921.4979375751082L433.0929877553681 921.4979375751082L427.75017051544273 918.834648738185L424.1774659781113 918.834648738185L422.39111370944374 920.6047614407735L420.6047614407762 919.7278248725188L417.0482964695184 921.4979375751082L413.4755919321833 920.6047614407735L406.33018285751314 921.4979375751082L404.5600701549265 927.7501705154436L399.2010133489239 927.7501705154436L399.2010133489239 929.5365227841103L393.84195654292125 930.429698918445L393.84195654292125 932.2160511871116L388.49913930299954 932.2160511871116L381.35373022832937 934.8793400240347L384.92643476566445 940.2383968300364L377.7972652570752 942.9179252330368L374.2245607197365 945.5974536360382L374.2245607197365 950.0470947416279L370.651856182405 950.9402708759626L368.8655039137375 955.4061515476305L365.3090389424797 958.0856799506319L361.7363344051446 956.2993276819634L354.59092533047806 959.8557926532203L351.03446035922025 960.7489687875532L343.8890512845501 958.9788560849647L336.7598817759608 962.5353210562216L327.8281204326231 959.8557926532203L320.69895092403385 964.3216733248892L315.3398941180312 961.6421449218878L311.7834291467734 966.1080255935558L309.9970768781059 967.0012017278887L299.29520283218153 962.5353210562216L290.3634414888438 972.3602585338913L279.6615674429195 975.0235473708144L268.9596933969915 980.3826041768152L265.38698885966005 976.809899639481L260.0441716197347 976.809899639481L260.0441716197347 983.9553087141512L256.4714670823996 989.2981259540738L252.89876254506453 991.0844782227423L249.34229757381036 989.2981259540738L249.34229757381036 993.7640066257436L245.76959303647527 994.6571827600765L243.98324076780773 994.6571827600765L240.41053623047264 990.1913020884076L236.83783169313756 989.2981259540738L229.7086621845483 991.0844782227423L226.13595764721322 997.3367111630778L210.09126636136352 996.4435350287431L197.58680048069073 1000L190.45763097210147 995.5503588944102L177.96940465750959 1000L169.05388288024915 996.4435350287431L154.77930429698972 994.6571827600765L152.99295202832218 989.2981259540738L149.4202474909871 987.5117736854063L149.4202474909871 972.3602585338913L151.20659975965464 970.5739062652247L152.99295202832218 962.5353210562216L151.20659975965464 954.5129754132968L147.6338952223232 950.0470947416279L147.6338952223232 947.3675663386266L149.4202474909871 942.9179252330368L158.33576926824753 937.558868427036L167.2675306115816 917.9414726038522L172.61034785150696 910.796063529182L172.61034785150696 905.4532462892585L170.8402351489167 901.8805417519243L170.8402351489167 897.4146610802554L176.18305238884204 884.0332586313289L195.8166877781041 852.820812627886L204.7322095553609 844.7822274188838L206.51856182402844 839.4394101789594L208.30491409269598 835.8667056416252L210.09126636136352 834.9735295072915L208.30491409269598 831.4008249699573L210.09126636136352 826.9511838643675L206.51856182402844 825.1648315957L206.51856182402844 821.5921270583649L204.7322095553609 818.0194225210307L204.7322095553609 812.6766052811063Z" stroke="#FFFFFF" stroke-opacity="0.75" stroke-width="1" stroke-linecap="round" stroke-linejoin="round" fill="#D3D3D3"/>
		<path name="大同市" d="M538.3578550781131 81.18159082789316L547.2896164214508 89.2039364708171L554.41878593004 93.66981714248686L557.9914904673751 93.66981714248686L574.0524213193057 87.41758420214956L581.181590827895 70.47971678196791L581.181590827895 67.8001883789666L600.815226217157 61.54795543863111L618.6462697716706 58.88466660170798L638.2799051609363 53.52560979570535L645.4090746695256 59.761603169963564L647.1954269381931 66.01383611029905L652.5544837441957 68.69336451330037L657.8973009841211 69.58654064763323L681.0874013446373 66.01383611029905L684.6601058819724 66.01383611029905L706.080093539902 51.73925752703872L709.6365585111562 48.16655298970454L720.3384325570805 43.71691188411478L725.6974893630832 40.144207346778785L727.4838416317543 36.57150280944461L739.9720679463462 47.27337685536986L745.3311247523488 45.50326415278141L745.3311247523488 42.8237357497801L750.6739419922706 39.25103121244592L752.4602942609381 35.67832667511175L756.0329987982732 34.78515054077798L764.94852057553 35.67832667511175L772.0776900841229 32.998798272110434L773.8640423527868 30.335509435188214L773.8640423527868 29.442333300853534L773.8640423527868 26.76280489785222L766.7348728441975 21.403748091851412L772.0776900841229 16.06093085192697L772.0776900841229 9.80869791159148L770.3075773815326 4.465880671668856L775.650394621458 0L779.2230991587894 0.8931761343337712L781.0094514274606 0L784.5659163987148 0.8931761343337712L788.1386209360498 7.1291695085901665L789.9249732047174 10.701874045925251L795.2840300107164 16.95410698626165L795.2840300107164 18.740459254928282L798.8404949819742 22.296924226185183L804.1995517879768 21.403748091851412L807.7722563253119 24.976452629185587L805.9859040566444 30.335509435188214L807.7722563253119 31.228685569521986L809.5586085939794 32.998798272110434L804.1995517879768 43.71691188411478L805.9859040566444 44.61008801844855L807.7722563253119 48.16655298970454L807.7722563253119 50.846081392705855L811.3287212965697 61.54795543863111L818.4741303712362 60.654779304296426L825.6032998798291 63.33430770729774L832.7487089544957 59.761603169963564L838.091526194421 64.22748384163242L843.4505830004236 62.44113157296397L847.0232875377587 64.22748384163242L847.0232875377587 66.01383611029905L845.2369352690912 70.47971678196791L841.6642307317561 73.14300561889013L841.6642307317561 75.82253402189053L836.3214134918308 78.50206242489185L823.8169476111616 81.18159082789316L818.4741303712362 80.2884146935603L814.9014258339012 82.07476696222693L811.3287212965697 82.07476696222693L811.3287212965697 83.86111923089447L805.9859040566444 83.86111923089447L804.1995517879768 83.86111923089447L804.1995517879768 82.07476696222693L797.0703822793876 86.5244080678167L798.8404949819742 88.31076033648424L786.3522686673823 90.09711260515087L784.5659163987148 91.88346487381841L781.0094514274606 91.88346487381841L781.0094514274606 90.09711260515087L777.4367468901255 89.2039364708171L772.0776900841229 90.09711260515087L773.8640423527868 99.90581051674235L777.4367468901255 104.37169118841211L775.650394621458 108.83757186008006L768.5212251128651 111.50086069700228L766.7348728441975 110.6239241287476L766.7348728441975 107.94439572574629L763.1621683068624 103.47851505407743L757.8193510669407 102.58533891974366L756.0329987982732 103.47851505407743L757.8193510669407 108.83757186008006L756.0329987982732 111.50086069700228L754.2466465296056 115.96674136867023L747.1012374549355 116.859917503004L745.3311247523488 119.53944590600531L747.1012374549355 120.43262204033908L750.6739419922706 119.53944590600531L764.94852057553 122.21897430900572L768.5212251128651 133.81402448926565L772.0776900841229 132.92084835493188L773.8640423527868 134.70720062359942L777.4367468901255 134.70720062359942L784.5659163987148 137.37048946052164L789.9249732047174 137.37048946052164L791.7113254733849 135.60037675793228L797.0703822793876 135.60037675793228L797.0703822793876 137.37048946052164L795.2840300107164 141.8363701321905L797.0703822793876 142.72954626652336L805.9859040566444 140.94319399785672L809.5586085939794 143.62272240085713L813.1150735652373 142.72954626652336L823.8169476111616 141.8363701321905L830.9623566858281 155.21777258111706L829.1760044171642 155.21777258111706L827.3896521484967 157.0041248497837L825.6032998798291 167.70599889570985L825.6032998798291 177.51469680730042L829.1760044171642 181.08740134463642L829.1760044171642 183.76692974763773L841.6642307317561 184.6601058819706L843.4505830004236 189.12598655363854L845.2369352690912 190.896099256227L852.3661047776804 192.68245152489544L850.5797525090129 196.25515606222962L847.0232875377587 199.8278605995638L847.0232875377587 201.61421286823224L847.0232875377587 204.27750170515355L841.6642307317561 206.063853973822L841.6642307317561 212.3160869141575L838.091526194421 216.76572801974726L836.3214134918308 224.8043132287503L838.091526194421 226.59066549741874L836.3214134918308 229.25395433434005L832.7487089544957 231.0403066030085L829.1760044171642 236.3993634090093L830.9623566858281 240.86524408067817L829.1760044171642 243.5285329176004L838.091526194421 247.99441358926924L836.3214134918308 251.56711812660342L832.7487089544957 252.4602942609372L832.7487089544957 254.24664652960473L822.0468349085713 255.12358309786032L822.0468349085713 258.6962876351945L818.4741303712362 260.4826399038611L820.2604826399038 264.94852057553L816.6877781025687 270.2913378154535L802.4131995193093 271.1845139497873L795.2840300107164 272.9708662184539L795.2840300107164 273.8640423527886L793.4976777420525 274.7572184871224L788.1386209360498 272.07769008412106L786.3522686673823 274.7572184871224L782.7958036961245 274.7572184871224L779.2230991587894 273.8640423527886L779.2230991587894 271.1845139497873L775.650394621458 268.5049855467869L772.0776900841229 267.6280489785313L768.5212251128651 261.3758160381958L761.3758160381949 263.16216830686244L757.8193510669407 268.5049855467869L754.2466465296056 266.73487284419843L752.4602942609381 261.3758160381958L750.6739419922706 253.35347039527187L750.6739419922706 249.78076585793588L754.2466465296056 247.10123745493456L754.2466465296056 241.74218064893375L754.2466465296056 239.9720679463453L748.887589723603 231.0403066030085L747.1012374549355 230.14713046867382L743.5447724836813 226.59066549741874L743.5447724836813 223.01796096008275L739.9720679463462 221.2316086914161L734.6130111403436 223.91113709441743L727.4838416317543 222.12478482574897L723.9111370944192 221.2316086914161L722.1247848257517 217.65890415408012L718.5683198544939 214.9956153171588L709.6365585111562 214.9956153171588L702.5073890025669 213.20926304849036L697.1483321965643 214.9956153171588L695.3619799278968 214.9956153171588L691.8055149566426 212.3160869141575L681.0874013446373 204.27750170515355L682.8737536133049 198.04150833089716L673.9582318360481 192.68245152489544L672.1718795673769 188.23281041930568L666.8290623274552 189.12598655363854L666.8290623274552 184.6601058819706L663.2563577901201 181.9805774789702L659.683653252785 177.51469680730042L661.4700055214525 173.95823183604534L659.683653252785 172.1718795673778L665.0427100587876 166.81282276137517L665.0427100587876 164.13329435837386L654.3245964467824 157.89730098411746L652.5544837441957 153.4314203124486L652.5544837441957 152.53824417811575L657.8973009841211 149.87495534119353L657.8973009841211 147.1954269381922L670.385527298713 144.5158985351918L663.2563577901201 138.2636655948554L661.4700055214525 138.2636655948554L659.683653252785 135.60037675793228L656.1109487154499 135.60037675793228L650.7681314755282 131.13449608626524L647.1954269381931 131.13449608626524L645.4090746695256 129.3481438175968L636.4935528922651 127.56179154893016L624.0053265776733 134.70720062359942L618.6462697716706 136.49355289226696L606.1580434570787 133.81402448926565L593.6698171424869 135.60037675793228L590.0971126051518 133.81402448926565L588.3269999025615 135.60037675793228L588.3269999025615 138.2636655948554L591.8834648738193 139.15684172918918L591.8834648738193 141.8363701321905L591.8834648738193 144.5158985351918L588.3269999025615 143.62272240085713L586.5406476338976 146.30225080385844L579.3952385592274 149.87495534119353L579.3952385592274 151.64506804378198L570.479716781967 153.4314203124486L568.6933645133031 157.0041248497837L557.9914904673751 156.11094871544992L557.9914904673751 157.0041248497837L557.9914904673751 159.683653252785L556.2051381987076 159.683653252785L547.2896164214508 157.89730098411746L545.5032641527832 161.47000552145255L540.1442073467806 162.3631816557854L536.5715028094455 160.57682938711878L536.5715028094455 157.89730098411746L536.5715028094455 150.7518919094473L533.0150378381913 149.87495534119353L533.0150378381913 146.30225080385844L534.8013901068553 140.94319399785672L533.0150378381913 138.2636655948554L533.0150378381913 132.0276722205981L536.5715028094455 129.3481438175968L538.3578550781131 118.64626977167154L540.1442073467806 116.859917503004L538.3578550781131 111.50086069700228L536.5715028094455 110.6239241287476L534.8013901068553 107.94439572574629L536.5715028094455 105.26486732274498L533.0150378381913 104.37169118841211L531.2286855695238 102.58533891974366L531.2286855695238 100.79898665107612L529.4423333008526 97.24252167982104L529.4423333008526 94.56299327681972L531.2286855695238 93.66981714248686L538.3578550781131 93.66981714248686L533.0150378381913 87.41758420214956L534.8013901068553 84.75429536522734L536.5715028094455 84.75429536522734L538.3578550781131 81.18159082789316Z" stroke="#FFFFFF" stroke-opacity="0.75" stroke-width="1" stroke-linecap="round" stroke-linejoin="round" fill="#D3D3D3"/>
		<path name="长治市" d="M686.44645815064 647.6338952223186L684.6601058819724 651.2065997596546L677.5309363733795 650.31342362532L673.9582318360481 654.7793042969888L673.9582318360481 655.6724804313226L679.3172886420471 654.7793042969888L681.0874013446373 657.4588326999901L675.7445841047156 662.8016499399137L675.7445841047156 666.3743544772478L688.2328104193075 669.0538828802491L686.44645815064 674.3967001201718L693.5756276592292 678.8625807918406L693.5756276592292 681.5421091948419L688.2328104193075 683.3284614635104L688.2328104193075 685.9917503004317L686.44645815064 691.3508071064343L688.2328104193075 689.5644548377668L691.8055149566426 691.3508071064343L693.5756276592292 695.8166877781023L700.7210367338994 695.8166877781023L704.2937412712345 700.266328883692L713.2092630484913 701.1595050180267L713.2092630484913 704.7322095553609L718.5683198544939 710.0912663613635L716.7819675858264 715.4340836012861L718.5683198544939 718.1136120042875L713.2092630484913 721.6863165416216L714.9956153171588 727.0291337815452L711.4229107798274 728.8154860502127L711.4229107798274 732.3881905875469L707.8502062424886 735.960895124882L711.4229107798274 735.0677189905482L713.2092630484913 736.8540712592167L709.6365585111562 737.7310078274704L711.4229107798274 740.4105362304717L704.2937412712345 742.1968884991393L704.2937412712345 743.0900646334721L707.8502062424886 743.9832407678068L709.6365585111562 745.7695930364735L713.2092630484913 746.6627691708072L713.2092630484913 748.4491214394748L709.6365585111562 750.2354737081423L706.080093539902 748.4491214394748L706.080093539902 750.2354737081423L707.8502062424886 752.8987625450645L709.6365585111562 758.2578193510672L709.6365585111562 760.9373477540685L706.080093539902 762.7237000227351L706.080093539902 765.3869888596573L711.4229107798274 766.2801649939911L709.6365585111562 767.1733411283249L711.4229107798274 771.6392217999937L706.080093539902 772.5323979343266L704.2937412712345 770.74604566566L700.7210367338994 772.5323979343266L704.2937412712345 779.6615674429177L702.5073890025669 782.341095845919L702.5073890025669 788.5933287862545L700.7210367338994 791.2566176231776L702.5073890025669 793.0429698918442L704.2937412712345 793.9361460261771L706.080093539902 797.5088505635131L702.5073890025669 799.2952028321797L700.7210367338994 797.5088505635131L697.1483321965643 799.2952028321797L691.8055149566426 798.4020266978468L690.019162687975 798.4020266978468L690.019162687975 796.6156744291784L684.6601058819724 793.9361460261771L679.3172886420471 794.8293221605118L673.9582318360481 792.1497937575105L668.5991750300454 793.0429698918442L666.8290623274552 796.6156744291784L661.4700055214525 796.6156744291784L657.8973009841211 793.9361460261771L659.683653252785 793.0429698918442L652.5544837441957 788.5933287862545L645.4090746695256 790.3634414888429L643.622722400858 792.1497937575105L640.0662574296039 788.5933287862545L631.1344960862662 786.8069765175878L622.2189743090094 791.2566176231776L616.8599175030067 788.5933287862545L606.1580434570787 787.7001526519216L604.3716911884148 785.0206242489203L600.815226217157 784.1274481145865L597.242521679822 781.4479197115852L593.6698171424869 782.341095845919L582.9679430965589 783.2342719802518L577.6088862905599 780.5547435772505L579.3952385592274 776.9820390399163L577.6088862905599 774.318750202995L572.2660690506345 772.5323979343266L565.1206599759644 773.4255740686604L563.3343077073005 770.74604566566L556.2051381987076 771.6392217999937L554.41878593004 768.9596933969924L550.846081392705 768.0665172626586L545.5032641527832 768.9596933969924L541.9305596154481 762.7237000227351L536.5715028094455 760.0441716197338L529.4423333008526 762.7237000227351L524.0832764948536 763.6168761570689L520.5268115235995 765.3869888596573L516.9541069862607 765.3869888596573L515.1677547175968 759.1509954854L518.7404592549283 755.5782909480658L524.0832764948536 753.7919386793983L527.6559810321887 749.3422975738085L525.8696287635212 743.0900646334721L527.6559810321887 739.517360096138L525.8696287635212 735.0677189905482L529.4423333008526 725.2427815128785L524.0832764948536 728.8154860502127L515.1677547175968 727.9223099158789L513.3814024489257 725.2427815128785L511.5950501802581 725.2427815128785L513.3814024489257 722.5794926759554L509.8249374776715 722.5794926759554L508.03858520900394 715.4340836012861L506.2522329403364 715.4340836012861L504.46588067166886 713.6477313326186L490.19130208840943 714.5409074669524L490.19130208840943 711.861379063952L481.275780311149 708.3049140926951L479.4894280424851 703.8390334210262L475.91672350514636 702.9458572866934L470.57390626522465 703.8390334210262L470.57390626522465 700.266328883692L467.0012017278932 697.6030400467698L465.214849459222 694.0303355094356L465.214849459222 690.4576309720997L463.4284971905545 686.8849264347655L458.08567995063277 685.114813732177L452.72662314463014 681.5421091948419L449.15391860729505 676.1830523888402L443.81110136737334 674.3967001201718L442.0247490987058 671.7334112832505L442.0247490987058 665.481178342915L438.4520445613707 662.8016499399137L438.4520445613707 659.2451849686568L434.8793400240356 657.4588326999901L434.8793400240356 652.0997758939884L436.66569229270317 648.5270713566533L433.0929877553681 644.9706063853973L434.8793400240356 643.1842541167298L433.0929877553681 640.5047257137294L436.66569229270317 636.0388450420605L436.66569229270317 633.3593166390592L440.23839683003825 630.696027802137L438.4520445613707 627.1233232648019L442.0247490987058 626.2301471304681L447.3675663386275 627.1233232648019L449.15391860729505 626.2301471304681L449.15391860729505 624.4437948618015L447.3675663386275 622.657442593134L449.15391860729505 617.3146253532104L447.3675663386275 615.5282730845429L447.3675663386275 611.9555685472087L458.08567995063277 610.1692162785403L465.214849459222 605.7195751729505L468.7875539965571 606.6127513072852L472.3440189678149 605.7195751729505L472.3440189678149 609.2760401442074L479.4894280424851 611.9555685472087L490.19130208840943 618.2078014875442L493.7640066257445 614.63509695021L499.10682386566623 615.5282730845429L504.46588067166886 618.2078014875442L511.5950501802581 617.3146253532104L513.3814024489257 614.63509695021L518.7404592549283 616.4214492188767L522.3131637922634 614.63509695021L524.0832764948536 614.63509695021L524.0832764948536 611.9555685472087L524.0832764948536 610.1692162785403L518.7404592549283 609.2760401442074L516.9541069862607 603.0400467699501L515.1677547175968 600.3605183669488L515.1677547175968 593.2313488583586L508.03858520900394 589.6586443210235L508.03858520900394 588.7654681866898L513.3814024489257 588.7654681866898L516.9541069862607 587.8722920523569L520.5268115235995 587.8722920523569L520.5268115235995 589.6586443210235L522.3131637922634 590.5518204553573L524.0832764948536 593.2313488583586L531.2286855695238 595.0014615609471L534.8013901068553 591.4449965896911L538.3578550781131 590.5518204553573L540.1442073467806 587.8722920523569L545.5032641527832 591.4449965896911L552.6324336613725 593.2313488583586L556.2051381987076 595.8946376952808L556.2051381987076 599.467342232615L559.7778427360427 599.467342232615L561.5641950047102 603.0400467699501L563.3343077073005 603.9332229042839L563.3343077073005 606.6127513072852L572.2660690506345 606.6127513072852L574.0524213193057 610.1692162785403L577.6088862905599 611.0623924128749L579.3952385592274 612.8487446815416L577.6088862905599 617.3146253532104L579.3952385592274 619.1009776218771L577.6088862905599 624.4437948618015L584.7542953652301 629.8028516678032L600.815226217157 619.1009776218771L607.9443957257463 619.1009776218771L615.0735652343392 620.8710903244655L624.0053265776733 620.8710903244655L624.0053265776733 618.2078014875442L627.5780311150083 617.3146253532104L629.3481438175986 619.1009776218771L632.9208483549337 619.1009776218771L632.9208483549337 616.4214492188767L634.7072006236012 619.1009776218771L640.0662574296039 617.3146253532104L643.622722400858 613.7419208158753L645.4090746695256 610.1692162785403L648.9817792068607 612.8487446815416L650.7681314755282 616.4214492188767L657.8973009841211 619.1009776218771L657.8973009841211 628.0164993991357L659.683653252785 627.1233232648019L663.2563577901201 629.8028516678032L666.8290623274552 629.8028516678032L672.1718795673769 636.0388450420605L679.3172886420471 639.6115495793947L681.0874013446373 643.1842541167298L681.0874013446373 646.7407190879858L684.6601058819724 648.5270713566533L686.44645815064 647.6338952223186Z" stroke="#FFFFFF" stroke-opacity="0.75" stroke-width="1" stroke-linecap="round" stroke-linejoin="round" fill="#D3D3D3"/>
		<path name="朔州市" d="M424.1774659781113 183.76692974763773L425.9638182467788 181.9805774789702L424.1774659781113 180.19422521030174L425.9638182467788 178.4078729416351L424.1774659781113 174.8514079703791L427.75017051544273 171.27870343304403L431.32287505278146 167.70599889570985L431.32287505278146 154.3245964467833L442.0247490987058 144.5158985351918L442.0247490987058 139.15684172918918L447.3675663386275 134.70720062359942L450.9402708759626 127.56179154893016L456.2993276819652 121.32579817467285L458.08567995063277 115.96674136867023L461.6421449218906 113.28721296566891L465.214849459222 106.15804345707875L472.3440189678149 99.01263438240949L474.13037123648246 92.77664100815218L484.8322452824068 86.5244080678167L483.0621325798202 84.75429536522734L486.61859755107434 79.39523855922562L493.7640066257445 79.39523855922562L499.10682386566623 76.7157101562243L502.6795284030013 73.14300561889013L509.8249374776715 72.24982948455636L522.3131637922634 77.60888629055898L538.3578550781131 81.18159082789316L536.5715028094455 84.75429536522734L534.8013901068553 84.75429536522734L533.0150378381913 87.41758420214956L538.3578550781131 93.66981714248686L531.2286855695238 93.66981714248686L529.4423333008526 94.56299327681972L529.4423333008526 97.24252167982104L531.2286855695238 100.79898665107612L531.2286855695238 102.58533891974366L533.0150378381913 104.37169118841211L536.5715028094455 105.26486732274498L534.8013901068553 107.94439572574629L536.5715028094455 110.6239241287476L538.3578550781131 111.50086069700228L540.1442073467806 116.859917503004L538.3578550781131 118.64626977167154L536.5715028094455 129.3481438175968L533.0150378381913 132.0276722205981L533.0150378381913 138.2636655948554L534.8013901068553 140.94319399785672L533.0150378381913 146.30225080385844L533.0150378381913 149.87495534119353L536.5715028094455 150.7518919094473L536.5715028094455 157.89730098411746L536.5715028094455 160.57682938711878L540.1442073467806 162.3631816557854L545.5032641527832 161.47000552145255L547.2896164214508 157.89730098411746L556.2051381987076 159.683653252785L557.9914904673751 159.683653252785L557.9914904673751 157.0041248497837L557.9914904673751 156.11094871544992L568.6933645133031 157.0041248497837L570.479716781967 153.4314203124486L579.3952385592274 151.64506804378198L579.3952385592274 149.87495534119353L586.5406476338976 146.30225080385844L588.3269999025615 143.62272240085713L591.8834648738193 144.5158985351918L591.8834648738193 141.8363701321905L591.8834648738193 139.15684172918918L588.3269999025615 138.2636655948554L588.3269999025615 135.60037675793228L590.0971126051518 133.81402448926565L593.6698171424869 135.60037675793228L606.1580434570787 133.81402448926565L618.6462697716706 136.49355289226696L624.0053265776733 134.70720062359942L636.4935528922651 127.56179154893016L645.4090746695256 129.3481438175968L647.1954269381931 131.13449608626524L650.7681314755282 131.13449608626524L656.1109487154499 135.60037675793228L659.683653252785 135.60037675793228L661.4700055214525 138.2636655948554L663.2563577901201 138.2636655948554L670.385527298713 144.5158985351918L657.8973009841211 147.1954269381922L657.8973009841211 149.87495534119353L652.5544837441957 152.53824417811575L652.5544837441957 153.4314203124486L654.3245964467824 157.89730098411746L665.0427100587876 164.13329435837386L665.0427100587876 166.81282276137517L659.683653252785 172.1718795673778L661.4700055214525 173.95823183604534L659.683653252785 177.51469680730042L663.2563577901201 181.9805774789702L666.8290623274552 184.6601058819706L666.8290623274552 189.12598655363854L672.1718795673769 188.23281041930568L673.9582318360481 192.68245152489544L682.8737536133049 198.04150833089716L681.0874013446373 204.27750170515355L691.8055149566426 212.3160869141575L688.2328104193075 213.20926304849036L688.2328104193075 214.9956153171588L688.2328104193075 218.5520802884148L684.6601058819724 219.44525642274857L681.0874013446373 226.59066549741874L672.1718795673769 227.4838416317516L670.385527298713 231.0403066030085L666.8290623274552 229.25395433434005L665.0427100587876 231.0403066030085L661.4700055214525 233.719835006008L656.1109487154499 231.0403066030085L652.5544837441957 231.93348273734136L648.9817792068607 231.0403066030085L641.8363701321905 232.82665887167514L638.2799051609363 231.93348273734136L629.3481438175986 234.61301114034268L624.0053265776733 232.82665887167514L618.6462697716706 230.14713046867382L618.6462697716706 226.59066549741874L616.8599175030067 224.8043132287503L613.3034525317489 223.91113709441743L607.9443957257463 225.69748936308406L604.3716911884148 231.0403066030085L588.3269999025615 234.61301114034268L582.9679430965589 240.86524408067817L582.9679430965589 242.63535678326662L579.3952385592274 244.42170905193416L579.3952385592274 247.10123745493456L572.2660690506345 247.99441358926924L568.6933645133031 253.35347039527187L563.3343077073005 251.56711812660342L557.9914904673751 253.35347039527187L554.41878593004 252.4602942609372L557.9914904673751 255.12358309786032L556.2051381987076 257.8031115008607L549.0759686901183 262.26899217252867L543.7169118841157 262.26899217252867L541.9305596154481 264.0553444411971L541.9305596154481 266.73487284419843L540.1442073467806 268.5049855467869L531.2286855695238 267.6280489785313L529.4423333008526 264.94852057553L525.8696287635212 264.0553444411971L524.0832764948536 260.4826399038611L520.5268115235995 259.58946376952736L506.2522329403364 266.73487284419843L500.89317613433377 264.0553444411971L495.55035889441206 265.84169670986375L490.19130208840943 263.16216830686244L486.61859755107434 264.0553444411971L486.61859755107434 266.73487284419843L484.8322452824068 266.73487284419843L483.0621325798202 264.94852057553L484.8322452824068 264.0553444411971L484.8322452824068 262.26899217252867L479.4894280424851 261.3758160381958L479.4894280424851 256.0167592321932L477.70307577381755 254.24664652960473L475.91672350514636 253.35347039527187L470.57390626522465 254.24664652960473L470.57390626522465 249.78076585793588L468.7875539965571 248.8875897236021L468.7875539965571 247.10123745493456L467.0012017278932 245.31488518626793L467.0012017278932 241.74218064893375L463.4284971905545 238.18571567767685L454.5129754132977 238.18571567767685L452.72662314463014 241.74218064893375L449.15391860729505 242.63535678326662L447.3675663386275 238.18571567767685L443.81110136737334 235.50618727467554L445.58121406995997 232.82665887167514L443.81110136737334 231.0403066030085L443.81110136737334 229.25395433434005L438.4520445613707 225.69748936308406L440.23839683003825 223.91113709441743L436.66569229270317 220.33843255708143L438.4520445613707 217.65890415408012L434.8793400240356 213.20926304849036L433.0929877553681 210.52973464549086L431.32287505278146 210.52973464549086L425.9638182467788 207.85020624248955L422.39111370944374 207.85020624248955L422.39111370944374 206.063853973822L420.6047614407762 202.5073890025651L418.83464873818593 200.72103673389847L425.9638182467788 198.04150833089716L434.8793400240356 198.04150833089716L436.66569229270317 196.25515606222962L427.75017051544273 189.12598655363854L424.1774659781113 183.76692974763773Z" stroke="#FFFFFF" stroke-opacity="0.75" stroke-width="1" stroke-linecap="round" stroke-linejoin="round" fill="#D3D3D3"/>
		<path name="晋城市" d="M520.5268115235995 765.3869888596573L524.0832764948536 763.6168761570689L529.4423333008526 762.7237000227351L536.5715028094455 760.0441716197338L541.9305596154481 762.7237000227351L545.5032641527832 768.9596933969924L550.846081392705 768.0665172626586L554.41878593004 768.9596933969924L556.2051381987076 771.6392217999937L563.3343077073005 770.74604566566L565.1206599759644 773.4255740686604L572.2660690506345 772.5323979343266L577.6088862905599 774.318750202995L579.3952385592274 776.9820390399163L577.6088862905599 780.5547435772505L582.9679430965589 783.2342719802518L593.6698171424869 782.341095845919L597.242521679822 781.4479197115852L600.815226217157 784.1274481145865L604.3716911884148 785.0206242489203L606.1580434570787 787.7001526519216L616.8599175030067 788.5933287862545L622.2189743090094 791.2566176231776L631.1344960862662 786.8069765175878L640.0662574296039 788.5933287862545L643.622722400858 792.1497937575105L645.4090746695256 790.3634414888429L652.5544837441957 788.5933287862545L659.683653252785 793.0429698918442L657.8973009841211 793.9361460261771L661.4700055214525 796.6156744291784L666.8290623274552 796.6156744291784L668.5991750300454 793.0429698918442L673.9582318360481 792.1497937575105L679.3172886420471 794.8293221605118L684.6601058819724 793.9361460261771L690.019162687975 796.6156744291784L690.019162687975 798.4020266978468L691.8055149566426 798.4020266978468L691.8055149566426 801.0815551008473L695.3619799278968 802.8516678034366L691.8055149566426 803.7448439377695L693.5756276592292 804.6380200721042L697.1483321965643 808.2107246094383L693.5756276592292 811.7834291467734L695.3619799278968 816.2330702523623L693.5756276592292 819.8057747896974L698.9346844652318 824.2716554613662L698.9346844652318 829.6144727012888L691.8055149566426 829.6144727012888L688.2328104193075 825.1648315957L686.44645815064 826.9511838643675L688.2328104193075 832.2940011042901L686.44645815064 832.2940011042901L686.44645815064 835.8667056416252L681.0874013446373 839.4394101789594L681.0874013446373 842.1026990158825L679.3172886420471 844.7822274188838L679.3172886420471 847.4617558218852L670.385527298713 850.1412842248847L665.0427100587876 849.2481080905518L661.4700055214525 850.1412842248847L657.8973009841211 854.6071648965535L654.3245964467824 856.377277599142L650.7681314755282 856.377277599142L647.1954269381931 855.4841014648091L647.1954269381931 856.377277599142L647.1954269381931 859.0568060021433L645.4090746695256 859.949982136477L647.1954269381931 863.5226866738112L641.8363701321905 861.7363344051446L636.4935528922651 859.949982136477L631.1344960862662 861.7363344051446L627.5780311150083 863.5226866738112L629.3481438175986 866.2022150768125L625.7916788463408 865.3090389424788L625.7916788463408 867.0953912111472L627.5780311150083 867.9885673454801L622.2189743090094 872.4382084510698L622.2189743090094 875.1177368540712L620.4326220403418 876.0109129884049L620.4326220403418 877.7972652570725L618.6462697716706 878.6904413914053L615.0735652343392 877.7972652570725L613.3034525317489 877.7972652570725L604.3716911884148 874.2245607197383L597.242521679822 875.1177368540712L595.4561694111544 879.5836175257391L597.242521679822 884.9264347656635L595.4561694111544 885.8196108999964L593.6698171424869 884.9264347656635L588.3269999025615 886.7127870343302L586.5406476338976 890.2854915716653L582.9679430965589 892.9650199746657L575.8225340218924 892.9650199746657L574.0524213193057 891.178667705999L568.6933645133031 890.2854915716653L563.3343077073005 893.8581961090003L563.3343077073005 895.6283088115888L559.7778427360427 899.201013348923L557.9914904673751 899.201013348923L554.41878593004 898.3078372145901L552.6324336613725 899.201013348923L547.2896164214508 897.4146610802554L541.9305596154481 892.9650199746657L541.9305596154481 890.2854915716653L538.3578550781131 891.178667705999L538.3578550781131 889.3923154373315L536.5715028094455 892.0718438403319L538.3578550781131 893.8581961090003L538.3578550781131 896.5214849459217L529.4423333008526 896.5214849459217L527.6559810321887 898.3078372145901L524.0832764948536 896.5214849459217L518.7404592549283 897.4146610802554L515.1677547175968 895.6283088115888L509.8249374776715 895.6283088115888L500.89317613433377 892.9650199746657L495.55035889441206 896.5214849459217L483.0621325798202 897.4146610802554L484.8322452824068 892.9650199746657L483.0621325798202 892.0718438403319L474.13037123648246 894.735132677255L470.57390626522465 893.8581961090003L470.57390626522465 892.0718438403319L463.4284971905545 889.3923154373315L458.08567995063277 888.4991393029977L454.5129754132977 889.3923154373315L450.9402708759626 887.605963168664L445.58121406995997 887.605963168664L447.3675663386275 881.3537302283275L445.58121406995997 879.5836175257391L443.81110136737334 876.9040891227378L438.4520445613707 875.1177368540712L440.23839683003825 872.4382084510698L440.23839683003825 868.8655039137357L436.66569229270317 868.8655039137357L431.32287505278146 862.6295105394784L431.32287505278146 859.0568060021433L429.5365227841103 859.0568060021433L429.5365227841103 854.6071648965535L425.9638182467788 849.2481080905518L429.5365227841103 847.4617558218852L427.75017051544273 844.7822274188838L431.32287505278146 841.225762447627L427.75017051544273 838.5462340446265L425.9638182467788 831.4008249699573L429.5365227841103 830.5076488356226L429.5365227841103 825.1648315957L429.5365227841103 824.2716554613662L434.8793400240356 824.2716554613662L434.8793400240356 822.4853031926987L440.23839683003825 819.8057747896974L440.23839683003825 814.4629575497738L438.4520445613707 812.6766052811063L445.58121406995997 807.3175484751036L443.81110136737334 803.7448439377695L440.23839683003825 799.2952028321797L442.0247490987058 797.5088505635131L442.0247490987058 792.1497937575105L449.15391860729505 796.6156744291784L452.72662314463014 796.6156744291784L465.214849459222 800.1883789665144L468.7875539965571 799.2952028321797L472.3440189678149 797.5088505635131L468.7875539965571 793.0429698918442L463.4284971905545 790.3634414888429L461.6421449218906 787.7001526519216L458.08567995063277 786.8069765175878L458.08567995063277 785.0206242489203L465.214849459222 785.0206242489203L467.0012017278932 784.1274481145865L474.13037123648246 787.7001526519216L479.4894280424851 785.9138003832531L483.0621325798202 786.8069765175878L495.55035889441206 786.8069765175878L497.3367111630796 788.5933287862545L506.2522329403364 784.1274481145865L506.2522329403364 782.341095845919L509.8249374776715 781.4479197115852L516.9541069862607 776.9820390399163L522.3131637922634 775.2119263373279L522.3131637922634 774.318750202995L520.5268115235995 765.3869888596573Z" stroke="#FFFFFF" stroke-opacity="0.75" stroke-width="1" stroke-linecap="round" stroke-linejoin="round" fill="#D3D3D3"/>
		<path name="太原市" d="M406.33018285751314 410.35759524505556L411.68923966351576 410.35759524505556L413.4755919321833 408.5712429763871L413.4755919321833 413.0208840819769L415.26194420085085 413.91406021631065L418.83464873818593 413.0208840819769L420.6047614407762 415.7004124849782L424.1774659781113 415.7004124849782L427.75017051544273 418.3799408879795L436.66569229270317 414.8072363506453L443.81110136737334 417.48676475364573L445.58121406995997 416.59358861931196L452.72662314463014 418.3799408879795L456.2993276819652 421.9526454253137L461.6421449218906 421.0594692909808L470.57390626522465 423.7389976939821L470.57390626522465 421.0594692909808L475.91672350514636 421.0594692909808L479.4894280424851 416.59358861931196L479.4894280424851 413.91406021631065L477.70307577381755 413.0208840819769L475.91672350514636 409.4644191107209L472.3440189678149 404.99853843905294L472.3440189678149 404.1053623047201L475.91672350514636 404.1053623047201L479.4894280424851 402.3190100360516L475.91672350514636 398.74630549871745L481.275780311149 395.18984052746055L488.4049498197419 395.18984052746055L490.19130208840943 396.0830166617943L495.55035889441206 400.5326577673841L500.89317613433377 401.42583390171876L506.2522329403364 399.6394816330503L509.8249374776715 404.99853843905294L518.7404592549283 407.67806684205425L520.5268115235995 405.8917145733867L522.3131637922634 401.42583390171876L527.6559810321887 406.78489070771957L525.8696287635212 409.4644191107209L527.6559810321887 411.2507713793884L536.5715028094455 412.127707947644L541.9305596154481 408.5712429763871L540.1442073467806 404.99853843905294L547.2896164214508 406.78489070771957L549.0759686901183 405.8917145733867L554.41878593004 406.78489070771957L565.1206599759644 404.99853843905294L572.2660690506345 396.0830166617943L590.0971126051518 390.7239598557935L593.6698171424869 387.1512553184575L595.4561694111544 389.83078372145883L599.0288739484895 388.93760758712506L609.7307479944138 378.2357335411998L616.8599175030067 377.34255740686694L622.2189743090094 378.2357335411998L620.4326220403418 380.9152619442011L622.2189743090094 384.4879664815353L620.4326220403418 387.1512553184575L624.0053265776733 390.7239598557935L622.2189743090094 392.51031212446014L615.0735652343392 395.18984052746055L609.7307479944138 395.18984052746055L607.9443957257463 399.6394816330503L604.3716911884148 401.42583390171876L602.5853389197437 403.2121861703854L593.6698171424869 407.67806684205425L584.7542953652301 419.2731170223133L584.7542953652301 421.9526454253137L588.3269999025615 422.84582155964745L591.8834648738193 422.84582155964745L591.8834648738193 425.5091103965706L593.6698171424869 427.2954626652372L599.0288739484895 430.8681672025723L604.3716911884148 431.76134333690607L609.7307479944138 436.227224008574L606.1580434570787 437.99733671116337L600.815226217157 437.1204001429087L599.0288739484895 438.89051284549714L600.815226217157 441.57004124849846L597.242521679822 444.24956965149886L595.4561694111544 444.24956965149886L595.4561694111544 443.3563935171651L591.8834648738193 442.4632173828313L588.3269999025615 446.9290980545002L579.3952385592274 446.0359219201655L574.0524213193057 446.9290980545002L570.479716781967 445.14274578583263L568.6933645133031 446.0359219201655L568.6933645133031 447.82227418883394L559.7778427360427 454.951443697425L561.5641950047102 457.6309721004254L559.7778427360427 460.31050050342674L563.3343077073005 467.4396700120169L559.7778427360427 464.7601416090165L557.9914904673751 464.7601416090165L554.41878593004 465.65331774335027L554.41878593004 469.22602228068445L549.0759686901183 471.012374549352L545.5032641527832 473.6919029523533L547.2896164214508 479.03472019227684L541.9305596154481 482.607424729611L543.7169118841157 485.2869531326123L541.9305596154481 492.4161226412034L536.5715028094455 493.30929877553626L538.3578550781131 496.88200331287044L533.0150378381913 499.56153171587175L536.5715028094455 503.11799668712865L529.4423333008526 504.9043489557962L529.4423333008526 509.37022962746414L533.0150378381913 510.263405761797L534.8013901068553 514.7292864334668L534.8013901068553 518.2857514047228L538.3578550781131 521.8584559420569L533.0150378381913 523.6448082107236L531.2286855695238 525.431160479392L524.0832764948536 523.6448082107236L518.7404592549283 524.5379843450582L518.7404592549283 529.8808015849818L513.3814024489257 531.6671538536493L508.03858520900394 529.8808015849818L504.46588067166886 532.5603299879822L500.89317613433377 532.5603299879822L497.3367111630796 528.987625450648L495.55035889441206 528.987625450648L491.977654357077 532.5603299879822L488.4049498197419 533.453506122316L488.4049498197419 530.7739777193146L483.0621325798202 528.1106888823933L486.61859755107434 526.3243366137249L484.8322452824068 524.5379843450582L484.8322452824068 522.7516320763907L481.275780311149 521.8584559420569L483.0621325798202 519.1789275390556L483.0621325798202 515.6224625677996L474.13037123648246 516.4993991360552L472.3440189678149 511.1565818961317L470.57390626522465 510.263405761797L465.214849459222 504.9043489557962L463.4284971905545 501.3478839845402L465.214849459222 499.56153171587175L454.5129754132977 494.20247490987094L452.72662314463014 491.52294650686963L442.0247490987058 492.4161226412034L438.4520445613707 490.62977037253495L431.32287505278146 491.52294650686963L427.75017051544273 488.8596576699465L424.1774659781113 488.8596576699465L420.6047614407762 479.03472019227684L406.33018285751314 479.03472019227684L404.5600701549265 475.47825522101994L397.41466108025634 472.7987268180186L397.41466108025634 471.012374549352L393.84195654292125 469.22602228068445L393.84195654292125 466.54649387768313L388.49913930299954 464.7601416090165L384.92643476566445 467.4396700120169L379.5836175257391 468.3328461463507L374.2245607197365 468.3328461463507L367.07915164506994 470.1191984150182L365.3090389424797 465.65331774335027L361.7363344051446 463.8669654746818L367.07915164506994 462.09685277209337L367.07915164506994 456.73779596609165L361.7363344051446 452.2719152944237L359.94998213647705 446.9290980545002L358.1636298678095 442.4632173828313L359.94998213647705 438.89051284549714L356.3772775991456 437.1204001429087L358.1636298678095 436.227224008574L358.1636298678095 434.4408717399074L361.7363344051446 433.5476956055736L361.7363344051446 431.76134333690607L365.3090389424797 429.9749910682385L374.2245607197365 429.08181493390475L384.92643476566445 423.7389976939821L386.712787034332 421.0594692909808L390.2854915716671 420.16629315664613L390.2854915716671 416.59358861931196L397.41466108025634 416.59358861931196L406.33018285751314 410.35759524505556Z" stroke="#FFFFFF" stroke-opacity="0.75" stroke-width="1" stroke-linecap="round" stroke-linejoin="round" fill="#D3D3D3"/>
		<path name="阳泉市" d="M622.2189743090094 378.2357335411998L631.1344960862662 378.2357335411998L634.7072006236012 375.5562051381985L640.0662574296039 375.5562051381985L643.622722400858 372.8766767351972L643.622722400858 370.21338789827587L648.9817792068607 367.53385949527456L654.3245964467824 364.85433109227324L659.683653252785 364.85433109227324L665.0427100587876 360.3884504206044L673.9582318360481 363.0679788236057L677.5309363733795 363.0679788236057L681.0874013446373 360.3884504206044L686.44645815064 361.28162655493907L688.2328104193075 363.0679788236057L688.2328104193075 366.6406833609399L693.5756276592292 370.21338789827587L691.8055149566426 371.9997401669425L688.2328104193075 375.5562051381985L684.6601058819724 377.34255740686694L682.8737536133049 382.70161421286775L684.6601058819724 387.1512553184575L686.44645815064 387.1512553184575L688.2328104193075 388.93760758712506L686.44645815064 395.18984052746055L686.44645815064 402.3190100360516L690.019162687975 404.99853843905294L691.8055149566426 408.5712429763871L695.3619799278968 409.4644191107209L697.1483321965643 406.78489070771957L700.7210367338994 407.67806684205425L704.2937412712345 406.78489070771957L709.6365585111562 412.127707947644L713.2092630484913 411.2507713793884L714.9956153171588 413.91406021631065L718.5683198544939 414.8072363506453L714.9956153171588 417.48676475364573L716.7819675858264 418.3799408879795L720.3384325570805 417.48676475364573L725.6974893630832 420.16629315664613L732.826658871676 418.3799408879795L732.826658871676 420.16629315664613L732.826658871676 421.0594692909808L731.0565461690858 421.9526454253137L729.2701939004182 427.2954626652372L734.6130111403436 429.9749910682385L738.1857156776787 435.33404787424024L739.9720679463462 436.227224008574L739.9720679463462 444.24956965149886L738.1857156776787 445.14274578583263L739.9720679463462 446.9290980545002L741.7584202150138 446.9290980545002L743.5447724836813 448.7154503231668L748.887589723603 454.05826756309034L747.1012374549355 455.8446198317579L748.887589723603 457.6309721004254L754.2466465296056 460.31050050342674L756.0329987982732 467.4396700120169L756.0329987982732 469.22602228068445L756.0329987982732 474.5850790866871L756.0329987982732 475.47825522101994L761.3758160381949 475.47825522101994L768.5212251128651 480.8210724609444L766.7348728441975 486.1801292669452L761.3758160381949 487.07330540127987L759.589463769531 490.62977037253495L761.3758160381949 492.4161226412034L757.8193510669407 497.7751794472051L756.0329987982732 496.88200331287044L750.6739419922706 493.30929877553626L743.5447724836813 492.4161226412034L739.9720679463462 493.30929877553626L736.3993634090111 496.88200331287044L723.9111370944192 499.56153171587175L722.1247848257517 496.88200331287044L716.7819675858264 495.9888271785376L711.4229107798274 496.88200331287044L711.4229107798274 498.6683555815389L706.080093539902 500.45470785020643L702.5073890025669 500.45470785020643L698.9346844652318 496.88200331287044L691.8055149566426 498.6683555815389L686.44645815064 498.6683555815389L682.8737536133049 496.88200331287044L681.0874013446373 494.20247490987094L675.7445841047156 494.20247490987094L673.9582318360481 491.52294650686963L670.385527298713 487.07330540127987L670.385527298713 483.5006008639439L665.0427100587876 479.03472019227684L663.2563577901201 474.5850790866871L657.8973009841211 471.90555068368576L656.1109487154499 466.54649387768313L654.3245964467824 465.65331774335027L650.7681314755282 462.09685277209337L650.7681314755282 456.73779596609165L652.5544837441957 450.48556302575525L650.7681314755282 446.9290980545002L645.4090746695256 446.9290980545002L643.622722400858 445.14274578583263L643.622722400858 441.57004124849846L640.0662574296039 441.57004124849846L638.2799051609363 436.227224008574L640.0662574296039 433.5476956055736L640.0662574296039 431.76134333690607L632.9208483549337 430.8681672025723L629.3481438175986 437.1204001429087L622.2189743090094 437.1204001429087L622.2189743090094 435.33404787424024L618.6462697716706 431.76134333690607L613.3034525317489 436.227224008574L609.7307479944138 436.227224008574L604.3716911884148 431.76134333690607L599.0288739484895 430.8681672025723L593.6698171424869 427.2954626652372L591.8834648738193 425.5091103965706L591.8834648738193 422.84582155964745L588.3269999025615 422.84582155964745L584.7542953652301 421.9526454253137L584.7542953652301 419.2731170223133L593.6698171424869 407.67806684205425L602.5853389197437 403.2121861703854L604.3716911884148 401.42583390171876L607.9443957257463 399.6394816330503L609.7307479944138 395.18984052746055L615.0735652343392 395.18984052746055L622.2189743090094 392.51031212446014L624.0053265776733 390.7239598557935L620.4326220403418 387.1512553184575L622.2189743090094 384.4879664815353L620.4326220403418 380.9152619442011L622.2189743090094 378.2357335411998Z" stroke="#FFFFFF" stroke-opacity="0.75" stroke-width="1" stroke-linecap="round" stroke-linejoin="round" fill="#D3D3D3"/>
	</g>
</svg>