<?xml version="1.0" encoding="UTF-8" standalone="no"?><!-- Generator: Adobe Illustrator 19.0.0, SVG Export Plug-In . SVG Version: 6.00 Build 0)  --><svg xmlns="http://www.w3.org/2000/svg" xmlns:xlink="http://www.w3.org/1999/xlink" contentScriptType="text/ecmascript" zoomAndPan="magnify" contentStyleType="text/css" id="图层_1" style="enable-background:new 0 0 1000 1000;" mapName="新疆维吾尔自治区" mapType="省市地图" version="1.1" xml:space="preserve" preserveAspectRatio="xMidYMid meet" viewBox="0 0 1000 1000" x="0px" y="0px">
	<g>
		<path name="巴音郭楞蒙古自治州" d="M500.48044165691226 424.3042331277625L502.3978406331348 424.3042331277625L505.2804905746084 421.1857300092595L509.59573018396577 421.9063924946279L510.5566134977903 423.1074966369083L516.3131780778845 422.6270549799963L517.7545030486212 424.54445395621883L528.3111165464111 422.38683415154014L545.5851779381192 427.9031779031782L550.3852268558153 426.46622058386765L553.7439508027746 432.2227851639616L563.3396809867395 435.82172993937684L567.6592882475234 439.4206747147923L574.8571777983543 441.09785286255874L581.574625692273 440.85763203410283L592.6116808469751 444.6967976379742L596.9269204563325 443.2598403186639L601.2465277171159 443.9805028040323L613.7249078425552 449.49684655567034L611.3226995579939 451.89468718880494L613.7249078425552 452.3751288457172L612.7640245287307 455.01319030730815L626.6793619734799 455.9740736211327L629.557644263527 458.6121350827236L630.0380859204388 460.53390171037245L642.9925400513634 466.77090794737865L642.5120983944516 469.88941106588163L639.6338161044046 472.29161935044294L630.9989692342638 475.8905641258582L629.557644263527 477.80796310208075L633.3968098673986 485.00585265291147L640.5946994182291 489.8059015706076L643.4729817082762 494.84180366533315L649.2339139397964 499.8820734114852L649.2339139397964 509.2375827669946L647.3121473121473 510.43868690927525L651.1513129160189 512.3560858854978L666.0275336745926 512.1158650570414L669.386257621552 514.5137056901763L677.0645888292947 514.0376316846907L686.1798773563478 517.1561348031937L693.3777669071787 515.2343681755447L698.1778158248749 517.1561348031937L708.2539876657524 516.6756931462817L710.6518282988877 517.8767972885621L715.4518772165834 516.1952514893692L719.291042820455 517.1561348031937L721.6888834535894 519.5539754363285L728.8867730044199 522.1920368979195L746.6412760530411 522.1920368979195L756.2370062370069 524.8344660109367L761.5174968116144 523.1529202117438L770.1523436817556 523.1529202117438L787.9068467303764 524.5942451824806L804.7004664651727 520.755079578609L808.5396320690438 520.514858750153L819.5766872237464 524.3540243540244L834.9333496392323 527.7127483009835L846.4464787994202 527.4725274725276L858.4444172679468 533.2290920526216L875.7184786596554 534.6704170233584L883.3968098673981 538.5095826272297L889.633816104405 538.7498034556857L889.633816104405 543.7857055504116L889.633816104405 544.0259263788676L889.1533744474928 545.7074721780605L852.2074110309409 549.0661961250198L851.2465277171159 559.8630304512658L845.0095214801099 568.9783189783191L841.6507975331506 583.8545397368928L838.2920735861917 592.2491657785777L832.0506996977588 600.8883803001452L822.9354111707053 606.6449448802391L822.9354111707053 614.083055259526L825.3332518038401 616.4808958926608L825.8136934607523 620.079840668076L820.0571288806582 620.3200614965322L802.3026258320378 625.8407728995965L784.0676811265048 628.7190551896435L777.8306748894988 631.3571166512343L769.6719020248433 633.2788832788833L758.6348468701408 634.9560614266495L751.4369573193103 634.7158405981936L750 637.8343437166968L744.2390677684798 639.5158895158897L741.3607854784327 642.3941718059366L729.3672146613326 641.9137301490243L729.3672146613326 645.2724540959837L733.68245427069 645.7528957528959L731.2846136375551 648.8713988713989L735.6042208983386 653.9116686175512L738.9629448452979 653.6714477890948L740.8803438215205 650.3127238421357L746.6412760530411 650.0725030136794L744.2390677684798 665.1889446007092L744.7195094253921 675.5053372700431L758.6348468701408 681.2619018501371L759.5957301839658 682.7032268208739L759.1152885270535 684.1401841401841L761.9935708171006 686.538024773319L767.7545030486212 686.7782456017751L770.6327853386683 693.7359143241497L773.0306259718022 695.6576809517985L773.511067628715 698.776184070302L776.8697915756743 701.1740247034365L777.8306748894988 707.1751777634131L773.0306259718022 706.6947361065011L770.6327853386683 708.6121350827236L766.7936197347963 709.3327975680916L766.3131780778845 710.7741225388284L758.6348468701408 711.2501965443141L752.8782822900471 716.7709079473786L754.3196072607839 719.8894110658816L752.3978406331348 722.2872516990165L753.8391656038716 725.8861964744319L765.8327364209717 728.0481839305371L766.7936197347963 732.3634235398943L765.8327364209717 737.1634724575899L768.234944705533 738.6047974283267L767.2740613917085 740.7624172330056L769.1914603679315 742.2037422037422L770.1523436817556 746.9994234700116L763.9153374447496 746.7592026415557L761.5174968116144 750.117926588515L758.154405213229 750.5983682454271L750 745.5624661507015L732.2454969513797 744.601582836877L726.9650063767713 742.2037422037422L726.9650063767713 740.7624172330056L721.2084417966771 739.3210922622688L721.6888834535894 743.4004786945964L718.3301595066305 745.8026869791574L718.8106011635423 748.4407484407484L712.0931532696245 748.2005276122925L699.6147731441852 744.8418036653331L687.6212023270846 738.6047974283267L683.3015950663007 740.2819755760934L679.46242946243 737.8841349429583L676.1037055154702 737.6439141145024L674.1819388878212 735.4862943098237L670.8232149408623 735.7221474868536L667.4644909939025 737.8841349429583L661.2274847568965 734.5254109959994L659.3100857806744 731.6471287059524L654.9904785198905 731.6471287059524L653.5491535491537 730.4460245636717L644.4338650221002 730.926466220584L640.1142577613168 732.6036443683502L632.9163682104859 732.6036443683502L631.9554848966618 733.804748510631L615.1618651618655 736.442809972222L613.2444661856425 735.7221474868536L612.7640245287307 733.3243068537186L608.4444172679468 732.8438651968065L603.6443683502512 735.4862943098237L598.8486870839811 736.2025891437656L596.4508464508467 738.3645765998708L590.2094725624138 738.3645765998708L585.8942329530564 739.8015339191809L583.9724663254078 738.3645765998708L580.1333007215362 738.3645765998708L573.415852827618 741.7233005468302L570.0571288806582 741.4830797183738L568.6158039099214 742.679816209228L566.2179632767875 741.7233005468302L562.3787976729154 744.1211411799648L557.5831164066458 744.601582836877L549.4243435419908 757.7962577962578L544.1438529673824 761.1549817432171L532.6307238071945 762.3560858854978L528.3111165464111 766.9159139747376L524.9523925994517 764.2734848617204L514.3957791016614 760.914760914761L509.1152885270535 762.5963067139539L503.3587239469598 762.5963067139539L499.5195583430882 764.7539265186324L496.6412760530411 746.9994234700116L489.44338650221016 745.3222453222454L487.04554586907534 741.4830797183738L476.48893237128596 738.1243557714147L474.0867240867242 727.5677422736246L472.1693251105021 724.6894599835778L466.4127605304079 721.0905152081625L462.0931532696245 720.61007355125L459.214870979577 717.9720120896591L455.3757053757058 717.9720120896591L452.016981428746 716.0502454620103L452.97349709114405 713.4121840004193L451.5365397718342 708.1316934258111L452.97349709114405 704.7729694788518L453.45393874805677 697.3348590995652L458.7344293226647 687.2586872586874L458.25398766575245 673.8237914708504L454.41482206188084 660.1486748545574L449.13869913869894 655.5888467653174L437.14076067017277 649.8322821852234L433.7820367232134 645.2724540959837L434.2624783801257 599.206834500952L459.214870979577 576.656650186062L461.6127116127118 562.5010919128567L462.5735949265363 542.8248222365871L463.0540365834486 528.9094847918377L461.13226995579953 526.0312025017909L460.171386641975 513.7974108562346L454.89526371879356 507.5560369678017L454.41482206188084 505.3984171631232L458.25398766575245 492.9244046891106L454.41482206188084 480.20580373521557L454.41482206188084 477.80796310208075L457.2931043519279 477.3275214451687L457.77354600884064 475.6503432974023L455.8561470326176 472.0513985219868L456.81266269501566 466.2904662904664L447.21693251105035 465.569803805098L444.8190918779155 467.2513496042907L435.699435699436 468.9285277520571L431.3841960900786 467.49157043274704L428.9819878055173 464.6132881427002L424.1863065392481 463.8926256573318L419.386257621552 465.0937297996122L413.62969304145827 461.9708590296825L408.8296441237617 464.6132881427002L407.8687608099376 464.1328464857877L408.3492024668499 462.451300686595L406.9122451475396 461.0143433672847L403.5535212005798 463.1719631719634L399.71435559670863 463.1719631719634L397.79258896906003 457.8958402487815L392.51646604587813 454.0566746449101L392.51646604587813 452.13490801726084L394.43386502210024 451.4142455318929L394.91430667901295 449.9772882125824L400.1904296021944 450.9381715264067L400.6708712591071 448.5359632418456L403.073079543668 447.8196684079037L406.4318034906273 448.5359632418456L408.3492024668499 446.61856426562326L420.34714093537605 445.89790178025487L437.6212023270846 443.019619490208L440.0190429602194 441.5782945194712L443.3777669071792 442.05873617638326L448.65825748178713 439.1804538863362L454.41482206188084 440.1413372001607L457.77354600884064 438.70001222942415L459.69531263648923 439.66089554324867L471.68888345358937 437.97934974405575L474.56716574363645 438.4597914009678L477.4454480336831 441.09785286255874L478.40633134750806 438.4597914009678L487.5259875259876 437.97934974405575L482.24549695137966 432.70322682087385L488.9629448452979 428.8640612170025L486.56510421216353 426.46622058386765L487.5259875259876 424.3042331277625L498.5586750292632 427.1825154178098L500.48044165691226 424.3042331277625Z" stroke="#FFFFFF" stroke-opacity="0.75" stroke-width="1" stroke-linecap="round" stroke-linejoin="round" fill="#D3D3D3"/>
		<path name="和田地区" d="M257.67833120774367 627.7581718758188L265.3566624154864 629.920159331924L267.2740613917085 626.3212145565087L273.9915092856272 592.7296074354897L292.22645399116027 599.9274969863204L434.2624783801257 599.206834500952L433.7820367232134 645.2724540959837L437.14076067017277 649.8322821852234L449.13869913869894 655.5888467653174L454.41482206188084 660.1486748545574L458.25398766575245 673.8237914708504L458.7344293226647 687.2586872586874L453.45393874805677 697.3348590995652L452.97349709114405 704.7729694788518L451.5365397718342 708.1316934258111L452.97349709114405 713.4121840004193L452.016981428746 716.0502454620103L455.3757053757058 717.9720120896591L459.214870979577 717.9720120896591L462.0931532696245 720.61007355125L466.4127605304079 721.0905152081625L472.1693251105021 724.6894599835778L474.0867240867242 727.5677422736246L476.48893237128596 738.1243557714147L487.04554586907534 741.4830797183738L489.44338650221016 745.3222453222454L496.6412760530411 746.9994234700116L499.5195583430882 764.7539265186324L495.1999510823043 767.3919879802233L478.88677300441987 770.9909327556386L479.84765631824484 772.4322577263754L478.88677300441987 774.1138035255683L466.8888345358937 779.3899264487502L459.214870979577 776.7518649871593L455.3757053757058 777.2323066440713L453.45393874805677 779.1497056202938L445.2995335348278 779.1497056202938L442.8973252502665 780.3508097625745L439.0581596463953 780.1105889341184L436.6603190132605 777.7127483009835L420.34714093537605 777.4725274725276L417.9449326508152 774.5898775310541L415.54709201768037 774.1138035255683L414.1101346983701 766.1952514893692L408.8296441237617 765.4745890040008L406.4318034906273 764.9941473470885L403.5535212005798 767.1561348031937L398.7534722828841 764.7539265186324L390.1142577613168 764.033264033264L389.15774209891833 766.1952514893692L386.27509215744567 766.4354723178253L387.23597547126974 768.1126504655917L385.79901815195944 770.9909327556386L373.8010796834328 775.7909816733347L373.8010796834328 778.9094847918377L372.35975471269603 780.8312514194868L368.5205891088244 781.0714722479429L368.5205891088244 782.9888712241655L365.64230681877734 783.7095337095338L362.28358287181845 783.2290920526216L357.4879016055488 784.906270200388L351.2465277171159 783.7095337095338L346.931288107759 779.3899264487502L337.81163192927943 781.0714722479429L332.5355090060975 777.4725274725276L330.1333007215362 777.7127483009835L330.1333007215362 780.8312514194868L328.6963434022259 781.5475462534287L321.97889550830723 780.1105889341184L314.7810059574763 780.3508097625745L313.3396809867404 777.7127483009835L310.9418403536056 777.2323066440713L307.1026747497335 777.9486014780134L303.2635091458619 776.9920858156152L298.46346022816624 778.1888223064693L296.54606125194414 782.0279879103407L299.904785198903 785.6269326857562L299.42434354199077 787.5486993134052L294.6286622757211 786.8280368280368L290.78949667185 791.1476440888207L285.98944775415384 794.0259263788676L286.95033106797837 796.6639878404585L285.0285644403293 797.3846503258269L284.54812278341706 801.2238159296983L279.7524415171479 801.4640367581544L279.2719998602356 803.1412149059208L280.71332483097194 804.8227607051138L281.1893988364577 807.7010429951606L278.7915582033229 809.3782211429273L279.7524415171479 811.2999877705761L276.8741592271008 817.05655235067L269.67626967626984 818.9783189783191L264.39577910166145 818.0174356644945L251.92176662764905 820.6554971260853L248.0826010237779 819.4587606352311L243.76299376299403 820.6554971260853L241.84559478677147 824.254441901501L238.9629448452979 821.8566012683661L236.08466255525082 823.0577054106468L234.1672635790287 820.6554971260853L229.84765631824484 819.2185398067752L230.32809797515665 817.5369940075823L228.40633134750806 816.1000366882722L224.57153339506294 815.3793742029038L222.1693251105021 816.8163315222139L221.2084417966771 813.938049232167L218.33015950663048 813.6978284037109L216.41276053040792 815.1391533744477L215.4518772165834 812.7413127413129L209.21487097957743 811.5402085990324L209.21487097957743 808.421705480529L205.85614703261763 806.7401596813363L207.77354600884064 800.5031534443299L204.89526371879356 797.8650919827389L205.85614703261763 796.4237670120026L202.01698142874602 793.7857055504116L202.97786474257055 791.3878649172766L200.09521480109697 790.6672024319082L199.61914079561166 787.5486993134052L197.21693251105035 784.906270200388L197.69737416796306 779.6301472772061L202.49742308565874 774.1138035255683L194.33865022100326 773.633361868656L193.3777669071792 774.83009835951L189.06252729782136 772.1920368979195L187.62120232708457 770.9909327556386L190.4994846171321 767.6322088086795L189.5386013033076 765.9550306609133L190.4994846171321 764.7539265186324L189.5386013033076 763.5571900277782L191.94080958786844 758.9973619385385L190.97992627404437 755.8788588200355L192.90169290169297 755.1581963346671L193.858208564091 753.4766505354739L186.17987735634824 749.8777057600587L185.70380335086247 747.239644298468L190.0190429602194 743.6406995230527L192.90169290169297 743.1602578661402L189.06252729782136 738.6047974283267L185.2233616939502 739.0852390852392L180.9037544331668 736.442809972222L178.0254721431197 731.406907877496L170.82758259228876 729.0046995929349L181.86463774699087 722.0470308705603L175.14718985307263 716.0502454620103L176.1037055154702 710.5339017103724L179.46242946243 710.2936808819163L181.3841960900786 707.6512517688989L182.34507940390358 702.8555705026292L180.9037544331668 700.2175090410387L180.9037544331668 696.8587850940794L178.98198780551775 694.9370184664301L182.34507940390358 688.2195705725119L182.34507940390358 682.463005992418L185.70380335086247 680.0607977078566L186.17987735634824 678.1433987316341L197.21693251105035 666.1454602631075L218.8106011635423 645.7528957528959L251.92176662764905 629.1994968465556L257.67833120774367 627.7581718758188Z" stroke="#FFFFFF" stroke-opacity="0.75" stroke-width="1" stroke-linecap="round" stroke-linejoin="round" fill="#D3D3D3"/>
		<path name="哈密地区" d="M773.511067628715 424.06401229930634L773.0306259718022 423.1074966369083L778.7915582033229 420.22484669543496L784.0676811265048 419.98462586697906L788.8677300442005 417.82700606230014L782.6307238071945 415.18894460070965L789.3481717011132 413.74761962997286L790.3046873635108 412.5508831391187L787.4264050734637 407.27039256451053L779.2676322088091 401.27360715596024L780.7089571795459 390.23655200125813L778.7915582033229 385.19628225510587L780.7089571795459 381.5973374796906L780.7089571795459 377.7581718758188L783.1067978126803 374.3994479288599L782.6307238071945 369.8439874910464L789.824245706599 364.3232760879821L790.3046873635108 361.9254354548473L787.9068467303764 356.6449448802391L788.3872883872887 354.48732507556065L795.5851779381192 355.44820838938494L810.9374727021786 354.72754590401655L818.1353622530096 357.3656073656075L829.1724174077121 358.0862698509759L846.9269204563325 356.16887087475334L851.7269693740282 358.0862698509759L858.9248589248591 357.84604902251954L873.3206380265201 359.7678156501688L883.3968098673981 362.8863187686718L884.3576931812227 364.3232760879821L904.9904785198905 372.7222697810935L910.2666014430715 376.801656213421L911.227484756897 379.1994968465556L916.5036076800789 379.92015933192397L922.2645399115991 382.317999965059L927.0602211778687 386.8778280542988L937.1363930187463 389.2756686874334L939.5386013033076 390.9572144866265L957.2931043519275 389.03544785897725L958.249620014326 389.75611034434564L955.8517793811907 391.91373014902433L953.9343804049686 400.55294467059184L962.5692272751094 401.7540488128725L976.9650063767713 427.4227362462657L977.9258896905958 433.6641101346984L999.0391166861755 449.9772882125824L1000 456.69473610650107L999.0391166861755 458.37191425426727L988.0020615314734 462.93174234350727L983.68245427069 469.16874858051324L983.2020126137777 470.3698527227939L985.604220898339 470.8502943797064L985.1237792414267 474.68945998357776L992.802110449169 477.5677422736246L986.5607365607366 482.8482328482328L988.9629448452979 486.92325162913403L989.4433865022102 489.3254599136951L985.604220898339 492.2037422037422L976.9650063767713 495.80268697915744L964.4909939027584 498.2005276122925L956.3322210381039 503.72123901535656L954.8908960673671 507.32018379077203L949.1343314872729 498.68096926920475L939.5386013033076 502.03969321616387L932.3407117524766 508.5169202816262L923.7014972309089 509.71802442390685L908.8296441237617 518.8333129509601L898.7491046314572 527.4725274725276L891.0751410751418 536.1073743426684L891.5512150806271 540.1867607749962L889.633816104405 543.7857055504116L889.633816104405 538.7498034556857L883.3968098673981 538.5095826272297L875.7184786596554 534.6704170233584L858.4444172679468 533.2290920526216L846.4464787994202 527.4725274725276L834.9333496392323 527.7127483009835L819.5766872237464 524.3540243540244L808.5396320690438 520.514858750153L804.7004664651727 520.755079578609L804.7004664651727 518.3528712940479L804.7004664651727 515.9550306609133L798.9439018850785 509.958245252363L800.8613008613011 507.32018379077203L801.8221841751251 501.07880990233934L799.4243435419908 494.601582836877L795.5851779381192 487.1634724575904L792.2264539911603 486.2069567951921L792.7068956480725 483.5645276821749L787.4264050734637 480.92646622058396L785.9894477541538 478.52862558744914L785.0285644403298 467.9720120896591L783.1067978126803 461.49478502419674L784.548122783417 456.69473610650107L783.1067978126803 447.5794475794478L781.1893988364577 441.5782945194712L777.8306748894988 435.82172993937684L776.8697915756743 431.26190185013706L775.432834256364 430.54123936476867L775.432834256364 428.8640612170025L772.5501843148904 425.5053372700431L773.511067628715 424.06401229930634Z" stroke="#FFFFFF" stroke-opacity="0.75" stroke-width="1" stroke-linecap="round" stroke-linejoin="round" fill="#D3D3D3"/>
		<path name="阿克苏地区" d="M203.4583063994828 562.5010919128567L203.93438040496903 559.6228096228099L205.85614703261763 558.421705480529L219.77148447736727 552.6651409004351L223.13020842432616 546.9042086689146L221.68888345358937 544.50636803578L222.6497667674139 543.0650430650433L232.24549695137966 539.9465399465398L234.64770523594052 537.5486993134052L235.12377924142675 533.2290920526216L232.72593860829193 532.7486503957091L227.93025734202274 524.5942451824806L214.0149198972731 515.4745890040008L221.68888345358937 512.1158650570414L225.04760740054917 512.3560858854978L227.93025734202274 508.99736193853846L232.24549695137966 508.5169202816262L238.9629448452979 504.6777546777548L250 501.3190307307955L254.80004891769613 497.72008595538L260.5566134977903 496.0429078076138L264.39577910166145 496.52334946452584L268.7153863624453 494.12114117996475L274.95239259945174 493.6406995230527L278.3111165464111 488.3645765998708L291.74601233424755 487.6439141145024L292.70689564807253 486.2069567951921L290.30905501493726 482.36779119132075L291.26993832876224 483.08408602526265L291.74601233424755 480.20580373521557L297.02650290885595 479.24928807281754L296.0656195950314 475.8905641258582L297.02650290885595 475.41012246894616L303.74395080277463 476.12641730288783L309.02007372595654 473.4883558412969L319.5766872237464 474.44923915512163L328.21590174531366 473.00791418438484L330.1333007215362 476.6068589598003L335.4137912961446 478.0481839305371L334.93334963923235 475.6503432974023L337.3311902723667 474.2090183266655L342.6116808469751 473.96879749820937L344.0486381662854 474.9296808120339L357.00745994863655 472.29161935044294L359.88574223868363 473.4883558412969L362.28358287181845 471.3307360366184L365.16186516186553 472.7676933559285L366.1227484756896 471.57095686507455L377.15980363039216 470.3698527227939L381.4794108911756 467.73179126120317L386.7555338143575 467.9720120896591L389.15774209891833 465.0937297996122L397.79258896906003 465.569803805098L399.71435559670863 463.1719631719634L403.5535212005798 463.1719631719634L406.9122451475396 461.0143433672847L408.3492024668499 462.451300686595L407.8687608099376 464.1328464857877L408.8296441237617 464.6132881427002L413.62969304145827 461.9708590296825L419.386257621552 465.0937297996122L424.1863065392481 463.8926256573318L428.9819878055173 464.6132881427002L431.3841960900786 467.49157043274704L435.699435699436 468.9285277520571L444.8190918779155 467.2513496042907L447.21693251105035 465.569803805098L456.81266269501566 466.2904662904664L455.8561470326176 472.0513985219868L457.77354600884064 475.6503432974023L457.2931043519279 477.3275214451687L454.41482206188084 477.80796310208075L454.41482206188084 480.20580373521557L458.25398766575245 492.9244046891106L454.41482206188084 505.3984171631232L454.89526371879356 507.5560369678017L460.171386641975 513.7974108562346L461.13226995579953 526.0312025017909L463.0540365834486 528.9094847918377L462.5735949265363 542.8248222365871L461.6127116127118 562.5010919128567L459.214870979577 576.656650186062L434.2624783801257 599.206834500952L292.22645399116027 599.9274969863204L273.9915092856272 592.7296074354897L275.9132759132758 581.2121106238753L278.3111165464111 580.0153741330212L277.8306748894988 572.096822096822L277.3502332325861 570.8957179545416L266.3175457293105 567.7772148360384L251.92176662764905 565.6195950313597L240.88471147294695 566.8206991736406L236.08466255525082 565.3793742029038L223.61065008123887 571.1359387829975L219.77148447736727 574.4946627299569L213.05403658344858 576.1762085291498L210.65182829888772 573.778367896015L200.5756564580097 573.778367896015L198.17781582487487 572.3370429252784L201.05609811492195 565.1391533744477L203.4583063994828 562.5010919128567Z M369.4814724226494 554.8227607051138L363.72490784255524 556.7401596813363L342.1312391900633 557.941263823617L332.5355090060975 560.1032512797219L324.8571777983543 557.7010429951606L318.1397299044361 560.819546113664L312.8592393298277 560.3391044567516L310.9418403536056 557.7010429951606L314.3005643005645 554.1020982197454L318.62017156134834 556.7401596813363L320.0571288806582 555.783644018938L314.7810059574763 553.8618773912892L313.8201226436522 551.7042575866108L310.9418403536056 552.1846992435228L310.9418403536056 548.1053128111953L314.7810059574763 545.2270305211484L321.49845385139497 545.9476930065164L333.0159506630098 544.746588864236L335.8942329530564 544.0259263788676L339.2529569000162 541.1476440888207L344.52907982319766 541.3878649172766L365.64230681877734 535.3910795087268L366.6031901326023 535.6269326857562L363.72490784255524 541.1476440888207L360.36618389559544 544.50636803578L364.6857911563793 547.624871154283L369.4814724226494 554.8227607051138Z" stroke="#FFFFFF" stroke-opacity="0.75" stroke-width="1" stroke-linecap="round" stroke-linejoin="round" fill="#D3D3D3"/>
		<path name="阿勒泰地区" d="M742.3216687922572 256.83974213386L754.3196072607839 271.23552123552145L758.6348468701408 271.4757420639776L761.5174968116144 273.6333618686558L762.9544541309247 276.5116441587031L762.4740124740129 278.91385244326443L766.7936197347963 282.98887122416545L765.8327364209717 288.74980345568565L768.234944705533 290.1867607749962L763.9153374447496 298.3455336396514L760.0761718408776 300.9835951012424L765.3522947640595 309.1423679658974L765.8327364209717 312.98153356976877L752.3978406331348 326.4164293576057L750.4804416569123 336.97304285539576L743.2825521060813 339.85132514544284L733.68245427069 350.8883803001452L731.2846136375551 355.20798756092904L731.2846136375551 358.0862698509759L633.8772515243109 358.326490679432L604.6052516640752 358.326490679432L604.6052516640752 343.9307115777706L605.085693320988 314.6587117175354L591.6507975331506 292.8291898880134L598.8486870839811 283.70953370953384L599.3291287408938 278.43341078635194L592.1312391900633 272.6724785548313L592.1312391900633 265.7148098324569L571.9788955083072 268.83331295096013L568.1397299044361 267.1561348031937L562.8592393298277 267.1561348031937L550.3852268558153 269.79419626478466L545.1047362812074 267.63657646010597L526.3937175701881 268.5974597739305L527.3502332325861 265.7148098324569L532.6307238071945 261.39957022309954L533.1111654641068 258.75714111008256L532.6307238071945 252.03969321616387L529.2719998602356 248.68096926920498L525.9132759132758 225.6503432974023L527.3502332325861 220.85029437970616L531.66984049337 216.77090794737842L533.1111654641068 212.69152151505114L537.4264050734637 208.85672356260602L556.141791435909 208.37628190569376L559.9809570397806 205.73385279267677L564.3005643005645 206.21429444958858L571.9788955083072 203.8164538164542L574.376736141442 200.21750904103874L580.1333007215362 195.89790178025487L579.652859064624 192.53917783329553L582.5355090060975 190.8619996855291L578.6963434022259 187.0228340816575L579.1724174077121 183.18366847778634L583.0115830115828 181.50212267859342L585.4137912961446 177.90317790317795L595.4899631370222 176.94666224077992L609.4053005817714 180.5456070161954L611.8031412149057 179.824944530827L612.7640245287307 177.42710389769218L621.8793130557842 175.74555809849926L626.1989203165681 176.46622058386765L628.1206869442167 178.3836195600902L626.6793619734799 181.74234350704955L629.0772026066147 184.14455179161087L628.1206869442167 185.5815091109207L623.3206380265201 186.54239242474523L622.359754712696 189.18045388633618L624.2815213403451 189.18045388633618L626.6793619734799 192.53917783329553L637.7164171281815 195.89790178025487L634.8381348381349 198.77618407030195L635.3142088436207 199.49684655567034L631.9554848966618 201.17839235486326L632.4359265535741 202.13927566868733L649.2339139397964 206.93495693495697L653.068711892241 210.29368088191632L655.951361833715 209.57301839654792L657.3883191530249 211.25456419574084L658.8296441237617 211.25456419574084L660.266601443072 212.93174234350727L658.8296441237617 214.85350897115632L659.7905274375867 217.25134960429114L661.7079264138088 219.17311623193973L665.0666503607686 219.65355788885245L669.8666992784642 222.7720610073552L674.1819388878212 222.7720610073552L680.8993867817398 227.80796310208052L687.6212023270846 228.28840475899324L693.858208564091 225.41012246894616L702.4930554342322 225.89056412585842L706.3322210381039 231.406907877496L709.2105033281509 231.64712870595258L711.6127116127118 234.76563182445534L719.291042820455 234.5254109959992L719.291042820455 232.84823284823278L723.6062824298124 232.36779119132098L725.0476074005492 233.32867450514505L724.0867240867242 236.44717762364826L726.9650063767713 239.0852390852392L737.5216198745616 242.20374220374197L736.5651042121635 243.64506717447875L741.8412271353445 249.40163175457337L741.8412271353445 253.48101818690066L744.2390677684798 254.44190150072518L742.3216687922572 256.83974213386Z" stroke="#FFFFFF" stroke-opacity="0.75" stroke-width="1" stroke-linecap="round" stroke-linejoin="round" fill="#D3D3D3"/>
		<path name="喀什地区" d="M58.54399972047031 651.9899019899019L62.86360698125418 651.9899019899019L65.261447614389 653.4312269606387L70.06149653208513 651.9899019899019L73.89629448453024 655.1084051084053L77.73546008840185 655.1084051084053L83.4963923199216 659.428012369189L83.4963923199216 667.3465644053881L88.7725152431035 667.3465644053881L95.00952148010992 669.5041842100666L99.80957039780606 668.5476685476685L100.29001205471786 666.8661227484758L104.12917765858947 667.3465644053881L104.60961931550173 669.0237425531543L100.77045371163058 675.0248956131309L101.25089536854284 679.3445028739147L107.48790160554881 675.7455580984993L110.84662555250816 675.7455580984993L118.04451510333911 672.6226873285696L122.8401963696083 675.7455580984993L123.80107968343282 672.146613323084L126.6793619734799 671.6661716661717L126.6793619734799 669.7444050385227L131.47941089117558 669.9846258669788L130.5185275773515 667.5867852338442L133.3968098673986 661.589999825294L133.3968098673986 658.7073498838206L136.2794598088717 654.6323311029196L136.2794598088717 645.2724540959837L130.0380859204388 642.1539509774802L125.2424046541696 642.1539509774802L127.15980363039216 640.7169936581702L127.15980363039216 637.5941228882405L122.8401963696083 636.6376072258427L116.1227484756896 637.3539020597846L116.1227484756896 635.436503083562L108.44878491937334 630.8766749943222L105.56613497789976 625.8407728995965L99.80957039780606 622.9624906095494L99.80957039780606 622.241828124181L106.52701829172474 618.8831041772221L107.48790160554881 620.3200614965322L114.68579115637931 619.3635458341341L115.16623281329203 617.4417792064853L111.80750886633223 612.4058771117598L113.72490784255524 612.8819511172453L116.60319013260232 610.2438896556546L104.12917765858947 608.8069323363443L102.68785268785268 612.1656562833034L99.80957039780606 612.1656562833034L96.93128810775897 615.0439385733503L99.80957039780606 616.2450427156311L99.3291287408938 620.079840668076L95.00952148010992 622.4820489526373L90.21384021384029 621.2809448103567L91.65079753315058 616.2450427156311L95.97040479393445 608.5667115078879L98.84868708398108 607.1253865371511L95.48996313702219 607.3656073656075L91.17472352766526 610.7243313125666L88.7725152431035 610.0036688271985L85.89423295305642 613.1221719457014L81.574625692273 614.5634969164382L79.17678505913773 602.0894844424256L79.65722671605045 600.4079386432329L82.05506734918526 599.206834500952L81.574625692273 592.7296074354897L85.89423295305642 590.5719876308112L93.57256416080008 591.2926501161796L97.41172976467124 594.4111532346826L108.92485892485865 594.651374063139L108.92485892485865 593.6904907493144L119.00539841716318 593.2100490924022L129.56201191495347 595.131815720051L135.31857649504764 594.1709324062265L147.3165149635738 584.0947605653489L175.14718985307263 582.1729939377001L176.58414717238293 580.0153741330212L188.58208564090955 577.1370918429743L201.05609811492195 577.8533866769162L213.05403658344858 576.1762085291498L219.77148447736727 574.4946627299569L223.61065008123887 571.1359387829975L236.08466255525082 565.3793742029038L240.88471147294695 566.8206991736406L251.92176662764905 565.6195950313597L266.3175457293105 567.7772148360384L277.3502332325861 570.8957179545416L277.8306748894988 572.096822096822L278.3111165464111 580.0153741330212L275.9132759132758 581.2121106238753L273.9915092856272 592.7296074354897L267.2740613917085 626.3212145565087L265.3566624154864 629.920159331924L257.67833120774367 627.7581718758188L251.92176662764905 629.1994968465556L218.8106011635423 645.7528957528959L197.21693251105035 666.1454602631075L186.17987735634824 678.1433987316341L185.70380335086247 680.0607977078566L182.34507940390358 682.463005992418L182.34507940390358 688.2195705725119L178.98198780551775 694.9370184664301L180.9037544331668 696.8587850940794L180.9037544331668 700.2175090410387L182.34507940390358 702.8555705026292L181.3841960900786 707.6512517688989L179.46242946243 710.2936808819163L176.1037055154702 710.5339017103724L175.14718985307263 716.0502454620103L181.86463774699087 722.0470308705603L170.82758259228876 729.0046995929349L178.0254721431197 731.406907877496L180.9037544331668 736.442809972222L185.2233616939502 739.0852390852392L189.06252729782136 738.6047974283267L192.90169290169297 743.1602578661402L190.0190429602194 743.6406995230527L185.70380335086247 747.239644298468L186.17987735634824 749.8777057600587L193.858208564091 753.4766505354739L192.90169290169297 755.1581963346671L190.97992627404437 755.8788588200355L191.94080958786844 758.9973619385385L189.5386013033076 763.5571900277782L190.4994846171321 764.7539265186324L189.5386013033076 765.9550306609133L190.4994846171321 767.6322088086795L187.62120232708457 770.9909327556386L189.06252729782136 772.1920368979195L184.7429200370375 774.83009835951L178.0254721431197 773.8735826971122L172.26453991159906 774.83009835951L166.98841698841716 771.2311535840947L161.70792641380876 772.1920368979195L155.9513618337146 768.8333129509601L151.15131291601892 769.0735337794163L147.3165149635738 765.9550306609133L142.9969077027904 766.1952514893692L140.1186254127433 762.5963067139539L135.79901815195944 761.395202571673L134.35769318122266 759.7180244239069L135.79901815195944 755.8788588200355L134.83813483813537 754.6777546777548L124.76196299725689 758.7571411100826L116.60319013260232 758.9973619385385L116.60319013260232 754.9179755062107L113.72490784255524 750.5983682454271L110.36618389559544 750.8385890738834L107.00745994863655 748.4407484407484L107.00745994863655 745.8026869791574L109.88574223868363 744.1211411799648L110.36618389559544 741.4830797183738L112.28358287181845 741.4830797183738L109.40530058177137 736.6830308006779L111.32706720942042 733.804748510631L110.84662555250816 732.1232027114381L106.52701829172474 726.6068589598003L107.48790160554881 725.1655339890635L104.12917765858947 722.2872516990165L95.48996313702219 717.9720120896591L90.21384021384029 717.7317912612032L89.25295690001622 719.8894110658816L85.89423295305642 719.6491902374257L84.45290798231963 717.491570432747L84.45290798231963 713.1719631719634L83.01595066300979 711.9708590296825L83.4963923199216 709.5730183965479L76.2985027690911 709.3327975680916L71.97889550830723 706.6947361065011L62.86360698125418 708.6121350827236L62.86360698125418 710.5339017103724L61.902723667429655 710.5339017103724L59.02444137738257 705.7338527926763L55.18527577351142 706.6947361065011L52.30699348346434 703.816453816454L47.50694456576821 706.4545152780447L44.628662275721126 704.5327486503959L42.70689564807253 701.6544663603488L44.628662275721126 697.094638271109L47.987386222680925 697.3348590995652L49.90478519890303 696.138122608711L51.346110169639815 697.3348590995652L55.18527577351142 695.1772392948865L58.0635580635585 698.2957424133895L60.941840353605585 698.0555215849336L63.339680986740404 695.1772392948865L71.49845385139497 693.50006114712L71.01801219448316 691.8185153479271L72.45933716521995 690.1369695487344L70.06149653208513 684.1401841401841L67.17884659061156 685.8217299393768L60.46139869669287 681.2619018501371L60.46139869669287 676.221632103985L66.6984049336993 673.343349813938L62.86360698125418 671.9063924946279L62.86360698125418 663.2671779730604L59.980957039780606 662.0660738307799L61.42228201051739 659.1877915407326L58.54399972047031 651.9899019899019Z M266.79361973479627 580.2555949614775L267.2740613917085 581.9327731092437L264.39577910166145 583.8545397368928L258.1587728646555 581.4523314523317L253.3587239469598 581.9327731092437L258.1587728646555 583.6143189084364L255.76093223152066 584.5752022222612L254.80004891769613 586.9730428553958L250.96088331382498 589.1306626600744L245.68039273921613 589.3708834885308L240.88471147294695 593.4502699208581L233.68682192211645 592.7296074354897L232.24549695137966 591.2926501161796L227.93025734202274 592.0089449501213L225.52804905746098 588.8904418316183L230.80853963206937 584.8110553992906L231.76505529446695 585.0512762277469L231.28898128898163 586.7328220269399L232.72593860829193 587.4534845123083L231.76505529446695 590.0915459738987L232.72593860829193 591.2926501161796L234.64770523594052 589.6111043169867L236.08466255525082 590.5719876308112L236.08466255525082 587.6937053407642L242.32166879225724 585.531717884659L238.00642918290032 584.8110553992906L241.3651531298592 582.413214766156L238.9629448452979 579.0544908191966L245.68039273921613 573.5381470675588L261.51749681161436 571.1359387829975L266.3175457293105 576.656650186062L266.79361973479627 580.2555949614775Z" stroke="#FFFFFF" stroke-opacity="0.75" stroke-width="1" stroke-linecap="round" stroke-linejoin="round" fill="#D3D3D3"/>
		<path name="塔城地区" d="M526.3937175701881 268.5974597739305L545.1047362812074 267.63657646010597L550.3852268558153 269.79419626478466L562.8592393298277 267.1561348031937L568.1397299044361 267.1561348031937L571.9788955083072 268.83331295096013L592.1312391900633 265.7148098324569L592.1312391900633 272.6724785548313L599.3291287408938 278.43341078635194L598.8486870839811 283.70953370953384L591.6507975331506 292.8291898880134L605.085693320988 314.6587117175354L604.6052516640752 343.9307115777706L567.6592882475234 343.69049074931445L532.6307238071945 343.9307115777706L532.6307238071945 361.9254354548473L537.9068467303764 361.9254354548473L540.7851290204235 364.08305525952596L544.1438529673824 368.88310417722187L542.7068956480725 371.76138646726895L547.5025769143422 376.0809937280526L549.4243435419908 375.8407728995967L549.904785198903 379.1994968465556L551.3417425182133 381.8375583081465L549.4243435419908 381.8375583081465L546.5460612519441 384.47998742116374L543.1873373049843 383.51910410733944L542.2264539911603 385.91694474047426L544.1438529673824 388.5550062020652L545.1047362812074 395.2724540959837L549.4243435419908 395.2724540959837L550.3852268558153 396.71377906672046L545.1047362812074 402.23012281835827L545.1047362812074 404.6323311029196L541.2655706773357 405.5932144167439L537.4264050734637 408.9519383637032L534.0676811265048 417.82700606230014L531.66984049337 418.54766854766854L528.3111165464111 422.38683415154014L517.7545030486212 424.54445395621883L516.3131780778845 422.6270549799963L510.5566134977903 423.1074966369083L509.59573018396577 421.9063924946279L505.2804905746084 421.1857300092595L502.3978406331348 424.3042331277625L500.48044165691226 424.3042331277625L498.5586750292632 423.5835706423943L498.0826010237779 420.94550918080336L495.6803927392166 420.4650675238911L493.2825521060813 417.58678523384424L485.60422089833855 416.86612274847585L486.0846625552508 413.74761962997286L481.76505529446695 412.7867363161481L473.13020842432616 413.98784045842876L470.7280001397653 411.58999982529394L463.53011058893435 409.908454026101L464.0105522458466 408.47149670679096L462.0931532696245 406.78995090759804L459.214870979577 406.78995090759804L458.25398766575245 405.5932144167439L455.8561470326176 406.06928842222965L454.41482206188084 404.1518894460071L442.4168835933542 403.1910061321828L440.49948461713166 401.51382798441614L437.6212023270846 401.7540488128725L436.17987735634824 400.3127238421357L433.7820367232134 393.114834291305L438.58208564090955 384.23976659270784L438.1016439839973 381.8375583081465L449.61477314418516 381.5973374796906L449.61477314418516 379.1994968465556L448.17781582487487 377.99839270427515L449.13869913869894 372.9624906095494L450.5756564580097 368.88310417722187L444.8190918779155 363.12653959712816L441.94080958786844 362.8863187686718L440.49948461713166 361.2047729694789L435.699435699436 359.2873739932563L415.54709201768037 355.928650046297L396.83170565523506 348.49053966701035L395.875189992837 344.651374063139L392.9969077027904 340.57198763081124L384.35769318122266 335.0556438791732L382.91636821048587 329.77515330456504L387.23597547126974 323.53814706755884L386.7555338143575 317.0609200020965L391.5555827320536 314.6587117175354L392.9969077027904 312.50109191285674L402.5926378867557 292.34874823110135L405.9513618337146 280.59103059103063L408.3492024668499 279.3899264487502L408.3492024668499 276.99208581561516L415.06665036076856 268.11701811701823L417.9449326508152 261.15934939464387L422.26453991159906 260.67890773773115L427.06458882929473 263.3169691993221L431.3841960900786 263.0767483708664L433.7820367232134 265.95503066091305L435.699435699436 265.23873582697115L440.0190429602194 268.35723894547436L455.3757053757058 272.19640454934597L458.7344293226647 271.23552123552145L464.0105522458466 272.4322577263756L467.3692761928055 270.9953004070653L478.40633134750806 270.51485875015305L481.76505529446695 271.7159628924337L490.8847114729474 270.51485875015305L500 276.75186498715925L502.8782822900471 274.1138035255681L506.2370062370069 273.8735826971124L511.9979384685266 268.5974597739305L526.3937175701881 268.5974597739305Z M496.1608343961284 372.0016072957251L492.32166879225724 372.2418281241812L487.04554586907534 368.1624416918535L487.5259875259876 351.60904278551357L483.20638026520373 346.08833138244904L491.3607854784327 337.69370534076415L494.2434354199063 331.45669910375796L492.8021104491695 330.2555949614775L493.2825521060813 329.2947116476528L495.6803927392166 330.73603661838956L498.5586750292632 330.49581578993343L500.960883313825 327.8577543283425L507.67833120774276 326.1762085291498L511.51749681161436 323.2979262391027L516.3131780778845 314.6587117175354L514.3957791016614 312.50109191285674L515.3566624154864 311.05976694211995L519.1958280193571 308.66192630898536L530.7089571795459 305.303202362026L543.1873373049843 306.98474816121893L547.983018571254 311.78042942748834L545.1047362812074 313.22175439822513L544.1438529673824 315.8598158598161L530.7089571795459 323.7783678960152L523.511067628715 336.73282202693986L513.4348957878374 341.7730917730919L513.9153374447496 343.9307115777706L511.51749681161436 348.2503188385542L513.9153374447496 351.3688219570572L513.9153374447496 356.88516570869524L511.03705515470256 357.12538653715114L509.1152885270535 359.7678156501688L504.80004891769613 361.444993797935L503.8391656038716 366.24504271563114L504.80004891769613 368.1624416918535L503.3587239469598 368.88310417722187L505.2804905746084 370.5646499764148L503.8391656038716 374.87988958577193L511.51749681161436 374.15922710040354L513.4348957878374 376.0809937280526L513.9153374447496 380.8810426457485L511.9979384685266 382.07777913660266L510.0761718408776 386.8778280542988L507.67833120774276 386.8778280542988L507.19788955083095 388.5550062020652L501.4413249707368 389.2756686874334L499.5195583430882 393.595275948217L496.1608343961284 393.3550551197611L491.3607854784327 396.4735582382641L494.2434354199063 390.71699365817017L493.2825521060813 384.9560614266495L496.6412760530411 380.8810426457485L497.6021593668652 374.15922710040354L496.1608343961284 372.0016072957251Z" stroke="#FFFFFF" stroke-opacity="0.75" stroke-width="1" stroke-linecap="round" stroke-linejoin="round" fill="#D3D3D3"/>
		<path name="昌吉回族自治州" d="M633.8772515243109 358.326490679432L731.2846136375551 358.0862698509759L731.2846136375551 355.20798756092904L733.68245427069 350.8883803001452L743.2825521060813 339.85132514544284L750.4804416569123 336.97304285539576L754.7956812662701 339.13066266007445L756.2370062370069 345.37203654850737L760.0761718408776 346.80899386781743L759.5957301839658 349.9274969863204L770.6327853386683 349.21120215237875L775.432834256364 352.0894844424256L781.1893988364577 353.5264417617359L784.0676811265048 351.3688219570572L788.3872883872887 354.48732507556065L787.9068467303764 356.6449448802391L790.3046873635108 361.9254354548473L789.824245706599 364.3232760879821L782.6307238071945 369.8439874910464L783.1067978126803 374.3994479288599L780.7089571795459 377.7581718758188L780.7089571795459 381.5973374796906L778.7915582033229 385.19628225510587L780.7089571795459 390.23655200125813L779.2676322088091 401.27360715596024L787.4264050734637 407.27039256451053L790.3046873635108 412.5508831391187L789.3481717011132 413.74761962997286L782.6307238071945 415.18894460070965L788.8677300442005 417.82700606230014L784.0676811265048 419.98462586697906L778.7915582033229 420.22484669543496L773.0306259718022 423.1074966369083L773.511067628715 424.06401229930634L759.5957301839658 422.38683415154014L737.5216198745616 423.5835706423943L728.8867730044199 421.4259508377156L721.6888834535894 423.1074966369083L721.6888834535894 424.3042331277625L717.8497178497182 425.9857789269556L712.0931532696245 425.5053372700431L706.8126626950157 427.6629570747218L694.8190918779155 425.74555809849926L690.0190429602194 421.9063924946279L686.6603190132605 422.6270549799963L684.2624783801257 419.50855186149306L674.6623805447334 418.0672268907565L670.8232149408623 414.46828211534125L664.5862087038558 414.70850294379716L665.0666503607686 413.02695714460424L656.9078774961131 410.3888956830135L655.951361833715 408.2312758783348L652.1121962298439 410.8693373399258L647.3121473121473 410.6291165114694L646.3512639983232 409.428012369189L644.4338650221002 412.0704414822062L641.0751410751413 412.5508831391187L639.6338161044046 410.1486748545574L637.7164171281815 410.1486748545574L634.8381348381349 407.27039256451053L633.3968098673986 401.99426964132863L624.2815213403451 396.233337409808L625.7184786596554 391.91373014902433L624.7575953458313 386.1571655689304L633.8772515243109 358.326490679432Z  M528.3111165464111 422.38683415154014L531.66984049337 418.54766854766854L534.0676811265048 417.82700606230014L537.4264050734637 408.9519383637032L541.2655706773357 405.5932144167439L545.1047362812074 404.6323311029196L545.1047362812074 402.23012281835827L550.3852268558153 396.71377906672046L552.3026258320378 387.35826971121105L551.3417425182133 381.8375583081465L549.904785198903 379.1994968465556L549.4243435419908 375.8407728995967L547.5025769143422 376.0809937280526L542.7068956480725 371.76138646726895L544.1438529673824 368.88310417722187L540.7851290204235 364.08305525952596L537.9068467303764 361.9254354548473L532.6307238071945 361.9254354548473L532.6307238071945 343.9307115777706L567.6592882475234 343.69049074931445L604.6052516640752 343.9307115777706L604.6052516640752 358.326490679432L614.2009818480406 372.9624906095494L615.1618651618655 377.28209787033325L612.2835828718185 375.8407728995967L611.8031412149057 377.99839270427515L606.5270182917247 377.5223186987894L609.4053005817714 381.5973374796906L609.4053005817714 387.1180488827547L612.7640245287307 391.6735093205682L612.2835828718185 397.1942207236325L602.2074110309409 404.1518894460071L602.2074110309409 410.8693373399258L594.5290798231977 419.50855186149306L590.2094725624138 422.146613323084L589.2529569000162 424.78467478467473L586.3703069585426 426.706441412324L586.8507486154549 431.5021226785934L583.0115830115828 437.4989080871435L583.4920246684956 439.1804538863362L581.574625692273 440.85763203410283L574.8571777983543 441.09785286255874L567.6592882475234 439.4206747147923L563.3396809867395 435.82172993937684L553.7439508027746 432.2227851639616L550.3852268558153 426.46622058386765L545.5851779381192 427.9031779031782L528.3111165464111 422.38683415154014Z" stroke="#FFFFFF" stroke-opacity="0.75" stroke-width="1" stroke-linecap="round" stroke-linejoin="round" fill="#D3D3D3"/>
		<path name="克孜勒苏柯尔克孜自治州" d="M214.0149198972731 515.4745890040008L227.93025734202274 524.5942451824806L232.72593860829193 532.7486503957091L235.12377924142675 533.2290920526216L234.64770523594052 537.5486993134052L232.24549695137966 539.9465399465398L222.6497667674139 543.0650430650433L221.68888345358937 544.50636803578L223.13020842432616 546.9042086689146L219.77148447736727 552.6651409004351L205.85614703261763 558.421705480529L203.93438040496903 559.6228096228099L203.4583063994828 562.5010919128567L201.05609811492195 565.1391533744477L198.17781582487487 572.3370429252784L200.5756564580097 573.778367896015L210.65182829888772 573.778367896015L213.05403658344858 576.1762085291498L201.05609811492195 577.8533866769162L188.58208564090955 577.1370918429743L176.58414717238293 580.0153741330212L175.14718985307263 582.1729939377001L147.3165149635738 584.0947605653489L135.31857649504764 594.1709324062265L129.56201191495347 595.131815720051L119.00539841716318 593.2100490924022L108.92485892485865 593.6904907493144L108.92485892485865 594.651374063139L97.41172976467124 594.4111532346826L93.57256416080008 591.2926501161796L85.89423295305642 590.5719876308112L81.574625692273 592.7296074354897L82.05506734918526 599.206834500952L79.65722671605045 600.4079386432329L79.17678505913773 602.0894844424256L81.574625692273 614.5634969164382L85.89423295305642 613.1221719457014L88.7725152431035 610.0036688271985L91.17472352766526 610.7243313125666L95.48996313702219 607.3656073656075L98.84868708398108 607.1253865371511L95.97040479393445 608.5667115078879L91.65079753315058 616.2450427156311L90.21384021384029 621.2809448103567L95.00952148010992 622.4820489526373L99.3291287408938 620.079840668076L99.80957039780606 616.2450427156311L96.93128810775897 615.0439385733503L99.80957039780606 612.1656562833034L102.68785268785268 612.1656562833034L104.12917765858947 608.8069323363443L116.60319013260232 610.2438896556546L113.72490784255524 612.8819511172453L111.80750886633223 612.4058771117598L115.16623281329203 617.4417792064853L114.68579115637931 619.3635458341341L107.48790160554881 620.3200614965322L106.52701829172474 618.8831041772221L99.80957039780606 622.241828124181L99.80957039780606 622.9624906095494L105.56613497789976 625.8407728995965L108.44878491937334 630.8766749943222L116.1227484756896 635.436503083562L116.1227484756896 637.3539020597846L122.8401963696083 636.6376072258427L127.15980363039216 637.5941228882405L127.15980363039216 640.7169936581702L125.2424046541696 642.1539509774802L130.0380859204388 642.1539509774802L136.2794598088717 645.2724540959837L136.2794598088717 654.6323311029196L133.3968098673986 658.7073498838206L133.3968098673986 661.589999825294L130.5185275773515 667.5867852338442L131.47941089117558 669.9846258669788L126.6793619734799 669.7444050385227L126.6793619734799 671.6661716661717L123.80107968343282 672.146613323084L122.8401963696083 675.7455580984993L118.04451510333911 672.6226873285696L110.84662555250816 675.7455580984993L107.48790160554881 675.7455580984993L101.25089536854284 679.3445028739147L100.77045371163058 675.0248956131309L104.60961931550173 669.0237425531543L104.12917765858947 667.3465644053881L100.29001205471786 666.8661227484758L99.80957039780606 668.5476685476685L95.00952148010992 669.5041842100666L88.7725152431035 667.3465644053881L83.4963923199216 667.3465644053881L83.4963923199216 659.428012369189L77.73546008840185 655.1084051084053L73.89629448453024 655.1084051084053L70.06149653208513 651.9899019899019L65.261447614389 653.4312269606387L62.86360698125418 651.9899019899019L58.54399972047031 651.9899019899019L58.54399972047031 648.8713988713989L60.46139869669287 646.7137790667205L59.50488303429529 642.8746134628486L45.10910393263384 636.3973863973863L28.311116546411085 634.9560614266495L27.354600884012598 637.5941228882405L25.91327591327581 637.8343437166968L26.393717570188528 640.2365520012581L22.074110309405114 641.4332884921123L14.395779101661446 637.5941228882405L9.600097835392262 626.3212145565087L11.517496811614365 623.2027114380057L15.356662415486426 623.4385646150351L15.837104072398233 620.5602823249883L13.91970509617613 618.6428833487657L11.517496811614365 619.123325005678L6.241373888432918 610.0036688271985L0.9608833138249793 608.0862698509759L1.921766627649049 606.4047240517832L0 603.7666625901923L3.8391656038716064 603.0460001048239L6.241373888432918 599.9274969863204L16.797987386223213 599.4470553294084L17.27842904313502 596.5687730393615L20.63715299009391 594.1709324062265L19.195828019358032 588.8904418316183L15.356662415486426 586.7328220269399L15.837104072398233 584.0947605653489L18.234944705533053 582.6534355946121L18.715386362445315 580.2555949614775L21.113226995580135 576.656650186062L19.67626967626984 575.6957668722373L24.47631859396597 572.5772637537343L25.91327591327581 573.0577054106468L33.59160712101948 570.8957179545416L37.43077272489063 572.5772637537343L47.987386222680925 564.6587117175354L52.30699348346434 564.1782700606229L52.78306748895011 561.5402085990324L61.42228201051739 561.7804294274883L57.102674749733524 557.4608221667047L58.54399972047031 554.1020982197454L70.06149653208513 557.7010429951606L71.97889550830723 556.7401596813363L76.2985027690911 557.2206013382486L91.17472352766526 547.8650919827389L93.09212250388737 548.5857544681073L94.53344747462415 554.5825398766576L97.41172976467124 555.783644018938L95.00952148010992 560.819546113664L96.93128810775897 564.4184908890793L102.20741103094088 562.2608710844004L106.52701829172474 563.938049232167L108.44878491937334 560.1032512797219L110.36618389559544 561.2999877705761L112.28358287181845 559.6228096228099L117.56407344642639 560.1032512797219L122.36412236412298 557.941263823617L124.28152134034508 561.5402085990324L132.92073586191236 556.5043065043064L134.35769318122266 552.4249200719792L138.19685878509426 549.7824909589615L139.15774209891833 546.4237670120026L138.19685878509426 543.3052638934992L140.59469941822908 542.108527402645L142.9969077027904 535.1508586802704L146.35563164974928 533.94975453799L147.79258896906003 532.0323555617674L150.67523891053315 531.5519139048549L153.07307954366797 529.8703681056622L161.70792641380876 532.5084295672532L163.14925138454555 531.7921347333113L165.54709201768037 532.9888712241655L168.90581596463926 531.311693076399L178.98198780551775 533.4693128810775L181.3841960900786 532.5084295672532L182.8211534093889 530.5910305910306L188.58208564090955 530.1105889341186L188.58208564090955 527.7127483009835L190.0190429602194 526.2714233302468L202.97786474257055 522.6724785548315L204.41482206188084 516.1952514893692L214.0149198972731 515.4745890040008Z" stroke="#FFFFFF" stroke-opacity="0.75" stroke-width="1" stroke-linecap="round" stroke-linejoin="round" fill="#D3D3D3"/>
		<path name="吐鲁番地区" d="M639.6338161044046 431.26190185013706L643.4729817082762 431.5021226785934L644.914306679013 435.82172993937684L654.029595206066 436.54239242474523L656.4274358392008 433.899963311728L657.3883191530249 430.54123936476867L661.2274847568965 430.54123936476867L674.1819388878212 426.9422945893534L676.5841471723829 421.9063924946279L674.6623805447334 418.0672268907565L684.2624783801257 419.50855186149306L686.6603190132605 422.6270549799963L690.0190429602194 421.9063924946279L694.8190918779155 425.74555809849926L706.8126626950157 427.6629570747218L712.0931532696245 425.5053372700431L717.8497178497182 425.9857789269556L721.6888834535894 424.3042331277625L721.6888834535894 423.1074966369083L728.8867730044199 421.4259508377156L737.5216198745616 423.5835706423943L759.5957301839658 422.38683415154014L773.511067628715 424.06401229930634L772.5501843148904 425.5053372700431L775.432834256364 428.8640612170025L775.432834256364 430.54123936476867L776.8697915756743 431.26190185013706L777.8306748894988 435.82172993937684L781.1893988364577 441.5782945194712L783.1067978126803 447.5794475794478L784.548122783417 456.69473610650107L783.1067978126803 461.49478502419674L785.0285644403298 467.9720120896591L785.9894477541538 478.52862558744914L787.4264050734637 480.92646622058396L792.7068956480725 483.5645276821749L792.2264539911603 486.2069567951921L795.5851779381192 487.1634724575904L799.4243435419908 494.601582836877L801.8221841751251 501.07880990233934L800.8613008613011 507.32018379077203L798.9439018850785 509.958245252363L804.7004664651727 515.9550306609133L804.7004664651727 518.3528712940479L804.7004664651727 520.755079578609L787.9068467303764 524.5942451824806L770.1523436817556 523.1529202117438L761.5174968116144 523.1529202117438L756.2370062370069 524.8344660109367L746.6412760530411 522.1920368979195L728.8867730044199 522.1920368979195L721.6888834535894 519.5539754363285L719.291042820455 517.1561348031937L715.4518772165834 516.1952514893692L710.6518282988877 517.8767972885621L708.2539876657524 516.6756931462817L698.1778158248749 517.1561348031937L693.3777669071787 515.2343681755447L686.1798773563478 517.1561348031937L677.0645888292947 514.0376316846907L669.386257621552 514.5137056901763L666.0275336745926 512.1158650570414L651.1513129160189 512.3560858854978L647.3121473121473 510.43868690927525L649.2339139397964 509.2375827669946L649.2339139397964 499.8820734114852L643.4729817082762 494.84180366533315L640.5946994182291 489.8059015706076L633.3968098673986 485.00585265291147L629.557644263527 477.80796310208075L630.9989692342638 475.8905641258582L639.6338161044046 472.29161935044294L642.5120983944516 469.88941106588163L642.9925400513634 466.77090794737865L630.0380859204388 460.53390171037245L629.557644263527 458.6121350827236L626.6793619734799 455.9740736211327L612.7640245287307 455.01319030730815L613.7249078425552 452.3751288457172L611.3226995579939 451.89468718880494L613.7249078425552 449.49684655567034L623.3206380265201 449.9772882125824L629.0772026066147 453.3360121595417L630.9989692342638 452.61534967417333L618.0401474519126 443.9805028040323L607.0074599486366 440.1413372001607L607.0074599486366 433.42388930624224L616.1227484756896 434.14018414018415L639.6338161044046 431.26190185013706Z" stroke="#FFFFFF" stroke-opacity="0.75" stroke-width="1" stroke-linecap="round" stroke-linejoin="round" fill="#D3D3D3"/>
		<path name="伊犁哈萨克自治州" d="M318.62017156134834 432.70322682087385L314.3005643005645 431.26190185013706L317.17884659061156 425.2651164415872L307.5831164066458 409.908454026101L306.6222330928217 406.54973007914214L304.2243924596869 402.4703436468144L304.7048341165987 400.0725030136798L302.30262583203785 397.43444155208886L302.30262583203785 389.2756686874334L299.904785198903 381.35711665123426L302.30262583203785 375.6005520711403L298.9439018850785 371.5211656388128L293.18733730498434 369.36354583413413L292.70689564807253 366.004821887175L296.0656195950314 365.2841594018066L305.66134977899674 369.60376666259026L312.3787976729154 370.0842083195025L314.3005643005645 372.9624906095494L313.3396809867404 374.15922710040354L313.8201226436522 374.6396687573158L323.415852827618 378.4788343611872L327.25501843148913 378.4788343611872L337.81163192927943 381.8375583081465L355.56613497789976 383.51910410733944L356.52701829172474 385.19628225510587L359.40530058177137 384.9560614266495L360.36618389559544 386.8778280542988L368.5205891088244 388.79522703052135L381.4794108911756 390.71699365817017L387.23597547126974 390.47677282971404L391.5555827320536 394.3159384335854L400.6708712591071 396.71377906672046L402.5926378867557 398.8713988713989L411.2274847568965 399.5920613567673L419.86669927846424 397.67466238054476L425.62326385855795 398.39532486591315L429.46242946243 401.7540488128725L434.2624783801257 401.51382798441614L436.17987735634824 400.3127238421357L437.6212023270846 401.7540488128725L440.49948461713166 401.51382798441614L442.4168835933542 403.1910061321828L454.41482206188084 404.1518894460071L455.8561470326176 406.06928842222965L458.25398766575245 405.5932144167439L459.214870979577 406.78995090759804L462.0931532696245 406.78995090759804L464.0105522458466 408.47149670679096L463.53011058893435 409.908454026101L470.7280001397653 411.58999982529394L473.13020842432616 413.98784045842876L481.76505529446695 412.7867363161481L486.0846625552508 413.74761962997286L485.60422089833855 416.86612274847585L493.2825521060813 417.58678523384424L495.6803927392166 420.4650675238911L498.0826010237779 420.94550918080336L498.5586750292632 423.5835706423943L500.48044165691226 424.3042331277625L498.5586750292632 427.1825154178098L487.5259875259876 424.3042331277625L486.56510421216353 426.46622058386765L488.9629448452979 428.8640612170025L482.24549695137966 432.70322682087385L487.5259875259876 437.97934974405575L478.40633134750806 438.4597914009678L477.4454480336831 441.09785286255874L474.56716574363645 438.4597914009678L471.68888345358937 437.97934974405575L459.69531263648923 439.66089554324867L457.77354600884064 438.70001222942415L454.41482206188084 440.1413372001607L448.65825748178713 439.1804538863362L443.3777669071792 442.05873617638326L440.0190429602194 441.5782945194712L437.6212023270846 443.019619490208L420.34714093537605 445.89790178025487L408.3492024668499 446.61856426562326L406.4318034906273 448.5359632418456L403.073079543668 447.8196684079037L400.6708712591071 448.5359632418456L400.1904296021944 450.9381715264067L394.91430667901295 449.9772882125824L394.43386502210024 451.4142455318929L392.51646604587813 452.13490801726084L392.51646604587813 454.0566746449101L397.79258896906003 457.8958402487815L399.71435559670863 463.1719631719634L397.79258896906003 465.569803805098L389.15774209891833 465.0937297996122L386.7555338143575 467.9720120896591L381.4794108911756 467.73179126120317L377.15980363039216 470.3698527227939L366.1227484756896 471.57095686507455L365.16186516186553 472.7676933559285L362.28358287181845 471.3307360366184L359.88574223868363 473.4883558412969L357.00745994863655 472.29161935044294L344.0486381662854 474.9296808120339L342.6116808469751 473.96879749820937L337.3311902723667 474.2090183266655L334.93334963923235 475.6503432974023L335.4137912961446 478.0481839305371L330.1333007215362 476.6068589598003L328.21590174531366 473.00791418438484L319.5766872237464 474.44923915512163L309.02007372595654 473.4883558412969L303.74395080277463 476.12641730288783L297.02650290885595 475.41012246894616L294.6286622757211 473.96879749820937L293.66777896189706 470.61007355125L293.66777896189706 468.9285277520571L295.58517793811916 467.49157043274704L292.22645399116027 463.65240482887543L292.22645399116027 460.2936808819163L294.6286622757211 459.09257673963566L296.54606125194414 452.85557050262923L302.30262583203785 453.0957913310856L309.9809570397806 450.21750904103874L309.5005153828688 449.01640489875786L303.74395080277463 447.0990059225353L301.3461101696398 444.6967976379742L309.9809570397806 439.66089554324867L319.10061321826015 438.70001222942415L318.62017156134834 432.70322682087385Z  M493.2825521060813 384.9560614266495L496.6412760530411 380.8810426457485L497.6021593668652 374.15922710040354L496.1608343961284 372.0016072957251L493.76299376299403 366.7254843725434L500 366.96570520099954L503.3587239469598 368.88310417722187L505.2804905746084 370.5646499764148L503.8391656038716 374.87988958577193L511.51749681161436 374.15922710040354L513.4348957878374 376.0809937280526L513.9153374447496 380.8810426457485L511.9979384685266 382.07777913660266L510.0761718408776 386.8778280542988L507.67833120774276 386.8778280542988L501.4413249707368 385.19628225510587L493.2825521060813 384.9560614266495Z" stroke="#FFFFFF" stroke-opacity="0.75" stroke-width="1" stroke-linecap="round" stroke-linejoin="round" fill="#D3D3D3"/>
		<path name="博尔塔拉蒙古自治州" d="M396.83170565523506 348.49053966701035L415.54709201768037 355.928650046297L435.699435699436 359.2873739932563L440.49948461713166 361.2047729694789L441.94080958786844 362.8863187686718L444.8190918779155 363.12653959712816L450.5756564580097 368.88310417722187L449.13869913869894 372.9624906095494L448.17781582487487 377.99839270427515L449.61477314418516 379.1994968465556L449.61477314418516 381.5973374796906L438.1016439839973 381.8375583081465L438.58208564090955 384.23976659270784L433.7820367232134 393.114834291305L436.17987735634824 400.3127238421357L434.2624783801257 401.51382798441614L429.46242946243 401.7540488128725L425.62326385855795 398.39532486591315L419.86669927846424 397.67466238054476L411.2274847568965 399.5920613567673L402.5926378867557 398.8713988713989L400.6708712591071 396.71377906672046L391.5555827320536 394.3159384335854L387.23597547126974 390.47677282971404L381.4794108911756 390.71699365817017L368.5205891088244 388.79522703052135L360.36618389559544 386.8778280542988L359.40530058177137 384.9560614266495L356.52701829172474 385.19628225510587L355.56613497789976 383.51910410733944L337.81163192927943 381.8375583081465L327.25501843148913 378.4788343611872L323.415852827618 378.4788343611872L313.8201226436522 374.6396687573158L313.3396809867404 374.15922710040354L314.3005643005645 372.9624906095494L312.3787976729154 370.0842083195025L305.66134977899674 369.60376666259026L296.0656195950314 365.2841594018066L292.70689564807253 366.004821887175L291.26993832876224 365.2841594018066L284.54812278341706 367.4417792064851L282.1502821502827 365.04393857335026L283.11116546410676 363.6026136026137L279.2719998602356 362.40587711175976L288.86773004420047 356.16887087475334L294.1482206188093 357.12538653715114L298.46346022816624 355.20798756092904L301.82218417512604 356.40909170320947L306.141791435909 352.810146927794L310.46139869669287 353.76666259019225L315.261447614389 352.5699260993381L315.74188927130126 351.1286011286013L323.415852827618 352.810146927794L326.2985027690911 351.1286011286013L331.09418403536074 350.6481594716888L332.5355090060975 348.9709813239226L350.7704537116306 346.08833138244904L355.56613497789976 342.96982826394606L362.28358287181845 341.53287094463553L373.3206380265201 347.76987718164196L375.7184786596554 347.5296563531858L376.1989203165681 349.21120215237875L384.35769318122266 347.5296563531858L390.5946994182291 349.21120215237875L396.83170565523506 348.49053966701035Z" stroke="#FFFFFF" stroke-opacity="0.75" stroke-width="1" stroke-linecap="round" stroke-linejoin="round" fill="#D3D3D3"/>
		<path name="乌鲁木齐市" d="M581.574625692273 440.85763203410283L583.4920246684956 439.1804538863362L583.0115830115828 437.4989080871435L586.8507486154549 431.5021226785934L586.3703069585426 426.706441412324L589.2529569000162 424.78467478467473L590.2094725624138 422.146613323084L594.5290798231977 419.50855186149306L602.2074110309409 410.8693373399258L602.2074110309409 404.1518894460071L612.2835828718185 397.1942207236325L612.2835828718185 401.27360715596024L613.2444661856425 397.9148832090009L615.1618651618655 397.43444155208886L615.6423068187773 391.43765614353856L619.0010307657367 393.3550551197611L620.9227973933862 391.19743531508243L621.3988713988715 388.5550062020652L620.4423557364735 383.9995457642517L616.6031901326023 380.8810426457485L615.1618651618655 377.28209787033325L614.2009818480406 372.9624906095494L604.6052516640752 358.326490679432L633.8772515243109 358.326490679432L624.7575953458313 386.1571655689304L625.7184786596554 391.91373014902433L624.2815213403451 396.233337409808L633.3968098673986 401.99426964132863L634.8381348381349 407.27039256451053L637.7164171281815 410.1486748545574L639.6338161044046 410.1486748545574L641.0751410751413 412.5508831391187L644.4338650221002 412.0704414822062L646.3512639983232 409.428012369189L647.3121473121473 410.6291165114694L652.1121962298439 410.8693373399258L655.951361833715 408.2312758783348L656.9078774961131 410.3888956830135L665.0666503607686 413.02695714460424L664.5862087038558 414.70850294379716L670.8232149408623 414.46828211534125L674.6623805447334 418.0672268907565L676.5841471723829 421.9063924946279L674.1819388878212 426.9422945893534L661.2274847568965 430.54123936476867L657.3883191530249 430.54123936476867L656.4274358392008 433.899963311728L654.029595206066 436.54239242474523L644.914306679013 435.82172993937684L643.4729817082762 431.5021226785934L639.6338161044046 431.26190185013706L616.1227484756896 434.14018414018415L607.0074599486366 433.42388930624224L607.0074599486366 440.1413372001607L618.0401474519126 443.9805028040323L630.9989692342638 452.61534967417333L629.0772026066147 453.3360121595417L623.3206380265201 449.9772882125824L613.7249078425552 449.49684655567034L601.2465277171159 443.9805028040323L596.9269204563325 443.2598403186639L592.6116808469751 444.6967976379742L581.574625692273 440.85763203410283Z" stroke="#FFFFFF" stroke-opacity="0.75" stroke-width="1" stroke-linecap="round" stroke-linejoin="round" fill="#D3D3D3"/>
		<path name="克拉玛依市" d="M519.1958280193571 308.66192630898536L530.7089571795459 305.303202362026L543.1873373049843 306.98474816121893L547.5025769143422 311.05976694211995L547.983018571254 311.78042942748834L545.1047362812074 313.22175439822513L544.1438529673824 315.8598158598161L530.7089571795459 323.7783678960152L523.511067628715 336.73282202693986L513.4348957878374 341.7730917730919L513.9153374447496 343.9307115777706L511.51749681161436 348.2503188385542L513.9153374447496 351.3688219570572L513.9153374447496 356.88516570869524L511.03705515470256 357.12538653715114L509.1152885270535 359.7678156501688L504.80004891769613 361.444993797935L503.8391656038716 366.24504271563114L504.80004891769613 368.1624416918535L503.3587239469598 368.88310417722187L500 366.96570520099954L493.76299376299403 366.7254843725434L496.1608343961284 372.0016072957251L492.32166879225724 372.2418281241812L487.04554586907534 368.1624416918535L487.5259875259876 351.60904278551357L483.20638026520373 346.08833138244904L491.3607854784327 337.69370534076415L494.2434354199063 331.45669910375796L492.8021104491695 330.2555949614775L493.2825521060813 329.2947116476528L495.6803927392166 330.73603661838956L498.5586750292632 330.49581578993343L500.960883313825 327.8577543283425L507.67833120774276 326.1762085291498L511.51749681161436 323.2979262391027L516.3131780778845 314.6587117175354L514.3957791016614 312.50109191285674L515.3566624154864 311.05976694211995L519.1958280193571 308.66192630898536Z  M493.2825521060813 384.9560614266495L501.4413249707368 385.19628225510587L507.67833120774276 386.8778280542988L507.67833120774276 387.35826971121105L507.19788955083095 388.5550062020652L501.4413249707368 389.2756686874334L499.5195583430882 393.595275948217L496.1608343961284 393.3550551197611L491.3607854784327 396.4735582382641L494.2434354199063 390.71699365817017L493.2825521060813 384.9560614266495Z" stroke="#FFFFFF" stroke-opacity="0.75" stroke-width="1" stroke-linecap="round" stroke-linejoin="round" fill="#D3D3D3"/>
		<path name="阿拉尔市" d="M365.64230681877734 535.3910795087268L366.6031901326023 535.6269326857562L363.72490784255524 541.1476440888207L360.36618389559544 544.50636803578L364.6857911563793 547.624871154283L369.4814724226494 554.8227607051138L363.72490784255524 556.7401596813363L342.1312391900633 557.941263823617L332.5355090060975 560.1032512797219L324.8571777983543 557.7010429951606L318.1397299044361 560.819546113664L312.8592393298277 560.3391044567516L310.9418403536056 557.7010429951606L314.3005643005645 554.1020982197454L318.62017156134834 556.7401596813363L320.0571288806582 555.783644018938L314.7810059574763 553.8618773912892L313.8201226436522 551.7042575866108L310.9418403536056 552.1846992435228L310.9418403536056 548.1053128111953L314.7810059574763 545.2270305211484L321.49845385139497 545.9476930065164L333.0159506630098 544.746588864236L335.8942329530564 544.0259263788676L339.2529569000162 541.1476440888207L344.52907982319766 541.3878649172766L365.64230681877734 535.3910795087268Z" stroke="#FFFFFF" stroke-opacity="0.75" stroke-width="1" stroke-linecap="round" stroke-linejoin="round" fill="#D3D3D3"/>
		<path name="图木舒克市" d="M266.3175457293105 576.656650186062L266.79361973479627 580.2555949614775L267.2740613917085 581.9327731092437L264.39577910166145 583.8545397368928L258.1587728646555 581.4523314523317L253.3587239469598 581.9327731092437L258.1587728646555 583.6143189084364L255.76093223152066 584.5752022222612L254.80004891769613 586.9730428553958L250.96088331382498 589.1306626600744L245.68039273921613 589.3708834885308L240.88471147294695 593.4502699208581L233.68682192211645 592.7296074354897L232.24549695137966 591.2926501161796L227.93025734202274 592.0089449501213L225.52804905746098 588.8904418316183L230.80853963206937 584.8110553992906L231.76505529446695 585.0512762277469L231.28898128898163 586.7328220269399L232.72593860829193 587.4534845123083L231.76505529446695 590.0915459738987L232.72593860829193 591.2926501161796L234.64770523594052 589.6111043169867L236.08466255525082 590.5719876308112L236.08466255525082 587.6937053407642L242.32166879225724 585.531717884659L238.00642918290032 584.8110553992906L241.3651531298592 582.413214766156L238.9629448452979 579.0544908191966L245.68039273921613 573.5381470675588L261.51749681161436 571.1359387829975L266.3175457293105 576.656650186062Z" stroke="#FFFFFF" stroke-opacity="0.75" stroke-width="1" stroke-linecap="round" stroke-linejoin="round" fill="#D3D3D3"/>
		<path name="五家渠市" d="M615.1618651618655 377.28209787033325L616.6031901326023 380.8810426457485L620.4423557364735 383.9995457642517L621.3988713988715 388.5550062020652L620.9227973933862 391.19743531508243L619.0010307657367 393.3550551197611L615.6423068187773 391.43765614353856L615.1618651618655 397.43444155208886L613.2444661856425 397.9148832090009L612.2835828718185 401.27360715596024L612.2835828718185 397.1942207236325L612.7640245287307 391.6735093205682L609.4053005817714 387.1180488827547L609.4053005817714 381.5973374796906L606.5270182917247 377.5223186987894L611.8031412149057 377.99839270427515L612.2835828718185 375.8407728995967L615.1618651618655 377.28209787033325Z" stroke="#FFFFFF" stroke-opacity="0.75" stroke-width="1" stroke-linecap="round" stroke-linejoin="round" fill="#D3D3D3"/>
		<path name="石河子市" d="M551.3417425182133 381.8375583081465L552.3026258320378 387.35826971121105L550.3852268558153 396.71377906672046L549.4243435419908 395.2724540959837L545.1047362812074 395.2724540959837L544.1438529673824 388.5550062020652L542.2264539911603 385.91694474047426L543.1873373049843 383.51910410733944L546.5460612519441 384.47998742116374L549.4243435419908 381.8375583081465L551.3417425182133 381.8375583081465Z" stroke="#FFFFFF" stroke-opacity="0.75" stroke-width="1" stroke-linecap="round" stroke-linejoin="round" fill="#D3D3D3"/>
	</g>
</svg>