<?xml version="1.0" encoding="UTF-8" standalone="no"?><!-- Generator: Adobe Illustrator 19.0.0, SVG Export Plug-In . SVG Version: 6.00 Build 0)  --><svg xmlns="http://www.w3.org/2000/svg" xmlns:xlink="http://www.w3.org/1999/xlink" contentScriptType="text/ecmascript" zoomAndPan="magnify" contentStyleType="text/css" id="图层_1" style="enable-background:new 0 0 1000 1000;" mapName="江苏省" mapType="省市地图" version="1.1" xml:space="preserve" preserveAspectRatio="xMidYMid meet" viewBox="0 0 1000 1000" x="0px" y="0px">
	<g>
		<path name="盐城市" d="M551.6501064584809 365.9776437189512L557.5053229240584 362.0919091554306L557.5053229240584 356.23669268985213L567.2462739531584 339.66465578424413L580.8907026259731 329.9237047551469L580.8907026259731 321.14088005677877L578.9389638041139 320.18275372604694L576.9872249822583 321.14088005677877L573.1014904187359 316.2792760823286L573.1014904187359 313.3516678495389L569.1980127750176 312.3757984386102L567.2462739531584 309.44819020582054L567.2462739531584 305.56245564229994L565.2945351312992 301.6589779985816L567.2462739531584 299.7072391767215L569.1980127750176 298.7313697657919L571.1497515968767 295.8037615330022L565.2945351312992 291.91802696948344L563.3427963094364 292.87615330021345L559.4570617459212 288.01454932576326L561.4088005677768 286.062810503905L561.4088005677768 283.1352022711153L557.5053229240584 283.1352022711153L557.5053229240584 281.1834634492552L565.2945351312992 275.34599006387634L571.1497515968767 274.37012065294675L584.7941802696951 266.5631653655082L598.4386089425097 257.79808374733966L600.3903477643726 253.8946061036204L602.3420865862317 249.99112845990203L610.1312987934689 244.15365507452134L606.2278211497505 239.2743080198734L608.1795599716097 238.2984386089429L608.1795599716097 234.4127040454232L608.1795599716097 228.55748757984475L617.9382540809092 214.91305890702733L633.5166784953872 218.8165365507457L645.2271114265423 224.65400993612639L658.8715400993606 227.58161816891516L701.7565649396711 245.12952448545184L707.5940383250527 249.99112845990203L711.497515968771 284.1110716820449L725.1419446415894 299.7072391767215L730.9971611071669 314.3275372604703L732.9311568488301 327.9719659332868L736.8346344925449 334.80305180979485L754.3825408090815 355.26082327892254L771.9304471256182 389.3807665010654L777.7679205109998 406.9109297374034L777.7679205109998 430.31405251951765L777.7679205109998 431.28992193044814L791.4123491838182 433.2416607523064L795.3158268275365 435.17565649396784L795.3158268275365 441.0308729595463L791.4123491838182 444.93435060326465L795.3158268275365 456.6270404542238L807.008516678492 469.2955997161116L814.8154719659324 481.9641589779985L818.7012065294512 501.4638041163953L820.652945351314 548.252306600426L820.652945351314 550.1863023420874L801.171043293114 556.0415188076659L795.3158268275365 558.9691270404546L793.3640880056773 558.9691270404546L791.4123491838182 561.8967352732443L785.5748757984402 563.8307310149048L785.5748757984402 559.9449964513842L777.7679205109998 559.9449964513842L773.882185947481 562.8726046841739L771.9304471256182 561.8967352732443L771.9304471256182 559.9449964513842L769.9787083037627 559.9449964513842L766.0752306600407 560.9208658623138L762.1717530163223 564.8066004258344L760.2377572746627 562.8726046841739L760.2377572746627 559.9449964513842L756.3342796309444 557.0173882185945L754.3825408090815 558.9691270404546L754.3825408090815 556.0415188076659L750.4790631653668 551.1621717530161L746.5933286018444 554.0897799858058L740.7381121362669 554.0897799858058L734.8828956706893 553.1139105748762L732.9311568488301 554.0897799858058L732.9311568488301 555.0656493967363L730.9971611071669 556.0415188076659L729.0454222853077 555.0656493967363L723.1902058197302 555.0656493967363L721.238466997871 546.3005677785668L713.4492547906302 543.3729595457771L713.4492547906302 541.4212207239179L711.497515968771 540.4453513129893L703.7083037615303 542.3970901348475L703.7083037615303 543.3729595457771L699.8048261178155 541.4212207239179L693.9496096522344 546.3005677785668L684.2086586231344 547.2764371894973L686.1603974449936 551.1621717530161L682.2569198012789 556.0415188076659L682.2569198012789 558.9691270404546L680.3051809794197 559.9449964513842L678.3534421575569 558.9691270404546L680.3051809794197 557.0173882185945L676.4017033356977 555.0656493967363L676.4017033356977 556.0415188076659L666.6607523065977 557.9932576295241L664.7090134847422 557.9932576295241L664.7090134847422 555.0656493967363L666.6607523065977 554.0897799858058L666.6607523065977 545.3246983676372L668.6124911284569 544.3488289567076L670.5642299503197 541.4212207239179L672.5159687721789 541.4212207239179L672.5159687721789 540.4453513129893L674.4677075940381 538.4936124911292L676.4017033356977 539.4694819020588L676.4017033356977 533.632008516679L682.2569198012789 532.6561391057494L684.2086586231344 528.7526614620301L684.2086586231344 525.8250532292413L680.3051809794197 526.8009226401709L676.4017033356977 529.7285308729606L672.5159687721789 527.7767920511005L674.4677075940381 525.8250532292413L672.5159687721789 523.8733144073822L674.4677075940381 521.9215755855221L678.3534421575569 522.8974449964526L678.3534421575569 519.9875798438616L676.4017033356977 519.9875798438616L680.3051809794197 515.1082327892127L682.2569198012789 513.1564939673535L676.4017033356977 510.22888573456385L676.4017033356977 501.4638041163953L680.3051809794197 501.4638041163953L680.3051809794197 503.4155429382554L684.2086586231344 504.39141234918407L686.1603974449936 503.4155429382554L688.1121362668564 501.4638041163953L695.9013484740935 502.4396735273249L695.9013484740935 500.4879347054657L695.9013484740935 496.5844570617455L697.8530872959527 496.5844570617455L699.8048261178155 490.74698367636665L699.8048261178155 479.03655074521066L697.8530872959527 474.17494677076047L697.8530872959527 466.36799148332193L682.2569198012789 464.41625266146184L658.8715400993606 456.6270404542238L653.016323633783 460.53051809794306L641.3236337828239 462.48225691980133L625.7274662881464 462.48225691980133L621.823988644428 464.41625266146184L621.823988644428 461.50638750887174L617.9382540809092 461.50638750887174L604.2760823278913 466.36799148332193L600.3903477643726 466.36799148332193L598.4386089425097 463.44038325053225L600.3903477643726 458.57877927608297L596.4868701206506 458.57877927608297L596.4868701206506 457.6029098651534L596.4868701206506 452.7235628105036L598.4386089425097 452.7235628105036L594.535131298795 450.77182398864534L588.6976579134134 447.8619588360543L590.631653655073 442.0067423704768L594.535131298795 441.0308729595463L592.5833924769322 439.0791341376871L590.631653655073 437.127395315827L582.8424414478359 439.0791341376871L580.8907026259731 437.127395315827L578.9389638041139 430.31405251951765L576.9872249822583 429.33818310858805L575.0532292405951 422.50709723208L569.1980127750176 422.50709723208L567.2462739531584 418.6213626685594L576.9872249822583 413.74201561391146L576.9872249822583 411.7902767920514L573.1014904187359 406.9109297374034L571.1497515968767 406.9109297374034L569.1980127750176 404.9769339957429L567.2462739531584 405.9528034066725L561.4088005677768 401.07345635202273L559.4570617459212 400.09758694109314L555.5535841021992 397.16997870830437L549.6983676366217 376.7122072391776L555.5535841021992 372.8087295954592L553.6018452803401 372.8087295954592L553.6018452803401 369.88112136266955L551.6501064584809 365.9776437189512Z" stroke="#FFFFFF" stroke-opacity="0.75" stroke-width="1" stroke-linecap="round" stroke-linejoin="round" fill="#D3D3D3"/>
		<path name="徐州市" d="M319.67707594038075 243.17778566359175L321.62881476224356 244.15365507452134L323.58055358410274 242.20191625266307L323.58055358410274 244.15365507452134L327.4840312278211 245.12952448545184L329.4357700496803 240.25017743080298L329.4357700496803 241.22604684173257L339.17672107878025 240.25017743080298L343.0801987224986 236.34669978708462L346.98367636621697 236.34669978708462L346.98367636621697 237.3225691980133L356.72462739531693 238.2984386089429L362.5621007806949 234.4127040454232L364.51383960255407 237.3225691980133L372.3207948899908 239.2743080198734L382.06174591909075 234.4127040454232L391.8026969481907 238.2984386089429L395.7061745919091 233.4368346344927L403.51312987934944 233.4368346344927L405.4471256210054 236.34669978708462L409.3506032647274 238.2984386089429L409.3506032647274 241.22604684173257L403.51312987934944 245.12952448545184L403.51312987934944 248.05713271824152L399.60965223562744 251.9428672817612L401.5613910574866 251.9428672817612L401.5613910574866 256.82221433641007L393.7544357700499 256.82221433641007L391.8026969481907 259.74982256919975L391.8026969481907 262.6774308019885L389.8687012065275 267.5390347764387L391.8026969481907 272.41838183108666L389.8687012065275 277.29772888573643L389.8687012065275 282.1593328601857L382.06174591909075 282.1593328601857L380.1100070972316 283.1352022711153L380.1100070972316 291.91802696948344L376.2065294535132 294.82789212207354L358.6763662171761 290.94215755855294L343.0801987224986 291.91802696948344L331.38750887153947 289.96628814762335L327.4840312278211 283.1352022711153L317.74308019872115 283.1352022711153L317.74308019872115 287.03867991483366L315.7913413768656 288.01454932576326L311.8878637331436 286.062810503905L307.98438608942524 287.03867991483366L304.09865152590646 282.1593328601857L302.14691270404364 282.1593328601857L300.19517388218446 285.0869410929745L290.45422285308814 287.03867991483366L288.50248403122896 290.94215755855294L288.50248403122896 292.87615330021345L290.45422285308814 293.85202271114395L290.45422285308814 295.8037615330022L292.38821859474774 296.7796309439336L298.2434350603289 295.8037615330022L300.19517388218446 302.63484740951026L300.19517388218446 308.47232079489095L300.19517388218446 310.4240596167501L296.2916962384661 310.4240596167501L294.3399574166069 313.3516678495389L298.2434350603289 316.2792760823286L304.09865152590646 318.23101490418867L304.09865152590646 322.11674946770745L309.9361249112844 323.09261887863886L309.9361249112844 322.11674946770745L309.9361249112844 320.18275372604694L311.8878637331436 320.18275372604694L313.8396025550028 323.09261887863886L315.7913413768656 329.9237047551469L319.67707594038075 333.82718239886526L321.62881476224356 339.66465578424413L323.58055358410274 342.5922640170338L321.62881476224356 344.5440028388939L319.67707594038075 343.5681334279643L317.74308019872115 348.44748048261226L319.67707594038075 349.4056068133441L321.62881476224356 353.30908445706245L319.67707594038075 356.23669268985213L315.7913413768656 356.23669268985213L309.9361249112844 354.28495386799204L306.03264726756606 353.30908445706245L290.45422285308814 357.2125621007808L284.59900638750696 356.23669268985213L282.6472675656478 355.26082327892254L282.6472675656478 356.23669268985213L280.69552874379224 360.1401703335705L276.79205110007024 360.1401703335705L274.85805535841064 359.1643009226409L272.90631653655146 359.1643009226409L270.9545777146923 362.0919091554306L263.14762242725556 358.1884315117113L261.2136266855923 359.1643009226409L257.31014904187396 358.1884315117113L253.4066713981556 359.1643009226409L245.61745919091481 363.0677785663602L241.71398154719645 357.2125621007808L243.66572036905563 354.28495386799204L245.61745919091481 346.4957416607522L245.61745919091481 342.5922640170338L247.569198012774 332.85131298793567L243.66572036905563 330.8995741660756L241.71398154719645 331.87544357700517L239.76224272533727 332.85131298793567L237.8105039034781 331.87544357700517L235.8587650816189 326.02022711142763L231.9730305180965 323.09261887863886L231.9730305180965 321.14088005677877L230.0212916962373 317.25514549325817L231.9730305180965 313.3516678495389L226.11781405251895 310.4240596167501L226.11781405251895 308.47232079489095L220.2625975869414 306.52058197303086L220.2625975869414 307.49645138396045L222.2143364088006 308.47232079489095L220.2625975869414 310.4240596167501L216.376863023419 312.3757984386102L216.376863023419 315.303406671399L212.47338537970063 315.303406671399L212.47338537970063 312.3757984386102L208.56990773598227 310.4240596167501L208.56990773598227 305.56245564229994L204.6841731724635 301.6589779985816L198.8289567068823 303.61071682044167L192.9737402413084 305.56245564229994L192.9737402413084 307.49645138396045L187.1362668559268 308.47232079489095L183.23278921220844 306.52058197303086L183.23278921220844 302.63484740951026L177.3775727466309 301.6589779985816L179.32931156848645 298.7313697657919L175.44357700496766 296.7796309439336L169.58836053939012 297.7555003548623L167.63662171753094 300.683108587652L163.73314407381258 299.7072391767215L161.79914833214934 298.7313697657919L152.04045422285344 300.683108587652L150.08871540099426 298.7313697657919L146.20298083747184 299.7072391767215L138.39602555003512 296.7796309439336L140.3477643718943 294.82789212207354L132.55855216465716 293.85202271114395L136.44428672817594 290.94215755855294L136.44428672817594 289.96628814762335L130.60681334279798 288.99041873669375L128.65507452093516 286.062810503905L124.75159687722044 286.062810503905L120.84811923349844 284.1110716820449L118.91412349183884 282.1593328601857L116.96238466997966 282.1593328601857L118.91412349183884 276.321859474805L122.79985805535762 271.4425124201571L120.84811923349844 272.41838183108666L120.84811923349844 267.5390347764387L116.96238466997966 268.5149041873683L115.01064584812048 265.5872959545786L113.0589070262613 266.5631653655082L107.20369056068375 261.701561391058L107.20369056068375 254.87047551454998L109.1554293825393 249.0330021291711L105.25195173882457 247.08126330731102L107.20369056068375 243.17778566359175L99.41447835344297 240.25017743080298L89.67352732434665 240.25017743080298L89.67352732434665 242.20191625266307L81.86657203690629 242.20191625266307L76.02909865152469 237.3225691980133L72.12562100780997 231.48509581263443L68.22214336408797 228.55748757984475L64.31866572036961 227.58161816891516L52.62597586941047 228.55748757984475L44.836763662173325 225.62987934705598L37.029808374736604 225.62987934705598L37.029808374736604 223.6781405251959L40.93328601845133 222.7022711142663L40.93328601845133 221.7264017033367L37.029808374736604 219.7924059616762L33.144073811214184 215.88892831795783L27.288857345636643 215.88892831795783L27.288857345636643 213.93718949609774L21.433640880055464 210.03371185237938L19.499645138395863 203.2203690560691L13.644428672818322 201.26863023420992L9.74095102909996 196.38928317956106L3.903477643718361 199.31689141235074L0 197.36515259049065L1.9517388218628184 194.43754435770097L1.9517388218628184 191.52767920511087L3.903477643718361 187.6242015613925L1.9517388218628184 184.69659332860283L0 184.69659332860283L0 179.81724627395397L7.78921220724078 177.88325053229346L5.837473385377962 170.07629524485583L7.78921220724078 167.14868701206615L7.78921220724078 159.3594748048272L13.644428672818322 152.52838892831915L17.547906316536682 153.50425833924874L35.078069552873785 150.57665010645906L42.885024840314145 148.64265436479855L44.836763662173325 146.69091554294027L60.43293115685083 145.71504613200887L68.22214336408797 148.64265436479855L74.07735982966551 149.60078069552947L74.07735982966551 144.73917672108018L77.96309439318793 146.69091554294027L87.72178850248383 147.66678495386896L91.60752306600261 151.55251951738956L97.4627395315838 153.50425833924874L103.31795599716133 153.50425833924874L105.25195173882457 156.4318665720375L107.20369056068375 163.26295244854555L109.1554293825393 170.07629524485583L120.84811923349844 173.9797728885742L120.84811923349844 177.88325053229346L122.79985805535762 179.81724627395397L124.75159687722044 183.72072391767415L128.65507452093516 186.648332150462L124.75159687722044 188.6000709723221L122.79985805535762 191.52767920511087L124.75159687722044 197.36515259049065L126.70333569907598 198.34102200142115L128.65507452093516 197.36515259049065L134.49254790631676 197.36515259049065L140.3477643718943 211.98545067423765L140.3477643718943 220.76827537260579L144.25124201561266 224.65400993612639L146.20298083747184 223.6781405251959L150.08871540099426 231.48509581263443L155.9439318665718 231.48509581263443L155.9439318665718 229.53335699077434L157.89567068843098 230.50922640170484L157.89567068843098 228.55748757984475L155.9439318665718 226.60574875798466L155.9439318665718 225.62987934705598L157.89567068843098 227.58161816891516L159.84740951029016 227.58161816891516L157.89567068843098 223.6781405251959L159.84740951029016 222.7022711142663L161.79914833214934 221.7264017033367L159.84740951029016 220.76827537260579L161.79914833214934 219.7924059616762L159.84740951029016 217.8406671398161L163.73314407381258 210.03371185237938L167.63662171753094 211.00958126330806L173.49183818310848 208.0819730305193L179.32931156848645 209.05784244144797L183.23278921220844 211.00958126330806L183.23278921220844 214.91305890702733L192.9737402413084 222.7022711142663L194.9254790631676 225.62987934705598L198.8289567068823 226.60574875798466L198.8289567068823 229.53335699077434L202.7324343506043 227.58161816891516L208.56990773598227 228.55748757984475L210.5216465578451 227.58161816891516L216.376863023419 230.50922640170484L220.2625975869414 224.65400993612639L224.16607523065977 225.62987934705598L230.0212916962373 222.7022711142663L233.90702625975973 214.91305890702733L239.76224272533727 215.88892831795783L253.4066713981556 219.7924059616762L253.4066713981556 211.00958126330806L253.4066713981556 202.2444996451395L253.4066713981556 196.38928317956106L255.35841022001478 197.36515259049065L259.26188786373314 196.38928317956106L261.2136266855923 197.36515259049065L267.0511000709703 196.38928317956106L272.90631653655146 197.36515259049065L274.85805535841064 192.4858055358427L278.7437899219294 194.43754435770097L286.5507452093698 193.46167494677138L288.50248403122896 193.46167494677138L290.45422285308814 197.36515259049065L292.38821859474774 197.36515259049065L294.3399574166069 194.43754435770097L298.2434350603289 196.38928317956106L307.98438608942524 196.38928317956106L306.03264726756606 199.31689141235074L309.9361249112844 203.2203690560691L304.09865152590646 211.00958126330806L311.8878637331436 212.96132008516815L313.8396025550028 211.98545067423765L315.7913413768656 213.93718949609774L321.62881476224356 214.91305890702733L319.67707594038075 221.7264017033367L315.7913413768656 223.6781405251959L313.8396025550028 225.62987934705598L321.62881476224356 231.48509581263443L321.62881476224356 240.25017743080298L319.67707594038075 243.17778566359175Z" stroke="#FFFFFF" stroke-opacity="0.75" stroke-width="1" stroke-linecap="round" stroke-linejoin="round" fill="#D3D3D3"/>
		<path name="南通市" d="M680.3051809794197 559.9449964513842L682.2569198012789 558.9691270404546L682.2569198012789 556.0415188076659L686.1603974449936 551.1621717530161L684.2086586231344 547.2764371894973L693.9496096522344 546.3005677785668L699.8048261178155 541.4212207239179L703.7083037615303 543.3729595457771L703.7083037615303 542.3970901348475L711.497515968771 540.4453513129893L713.4492547906302 541.4212207239179L713.4492547906302 543.3729595457771L721.238466997871 546.3005677785668L723.1902058197302 555.0656493967363L729.0454222853077 555.0656493967363L730.9971611071669 556.0415188076659L732.9311568488301 555.0656493967363L732.9311568488301 554.0897799858058L734.8828956706893 553.1139105748762L740.7381121362669 554.0897799858058L746.5933286018444 554.0897799858058L750.4790631653668 551.1621717530161L754.3825408090815 556.0415188076659L754.3825408090815 558.9691270404546L756.3342796309444 557.0173882185945L760.2377572746627 559.9449964513842L760.2377572746627 562.8726046841739L762.1717530163223 564.8066004258344L766.0752306600407 560.9208658623138L769.9787083037627 559.9449964513842L771.9304471256182 559.9449964513842L771.9304471256182 561.8967352732443L773.882185947481 562.8726046841739L777.7679205109998 559.9449964513842L785.5748757984402 559.9449964513842L785.5748757984402 563.8307310149048L791.4123491838182 561.8967352732443L793.3640880056773 558.9691270404546L795.3158268275365 558.9691270404546L801.171043293114 556.0415188076659L820.652945351314 550.1863023420874L824.5564229950287 554.0897799858058L842.1043293115654 565.782469836764L853.7970191625245 571.6376863023424L894.7303051809758 581.3786373314415L902.5372604684162 586.2579843860894L906.4229950319386 604.7817601135557L908.3747338537978 622.3119233498937L910.3264726756533 638.8839602555008L918.1156848828941 640.83569907736L947.35628105039 642.7874378992201L966.8559261887858 648.624911284599L992.1930447125596 668.1245564229948L996.0965223562816 674.9556422995029L998.0482611781372 687.6242015613907L1000 725.6298793470551L1000 735.3708303761532L976.5968772178858 734.3949609652236L922.0191625266125 715.888928317956L912.2782114975125 711.9854506742367L900.585521646557 709.057842441448L886.9410929737387 695.4134137686306L877.1823988644428 690.5518097941804L873.296664300924 690.5518097941804L861.5862313697653 694.4375443577001L840.1525904897062 709.057842441448L832.3456352022695 705.1721078779274L822.6046841731732 705.1721078779274L803.1227821149769 698.3410220014193L783.6231369765774 666.1728176011356L746.5933286018444 666.1728176011356L742.689850958126 664.2210787792756L744.6415897799852 660.3353442157568L742.689850958126 657.4077359829671L736.8346344925449 656.4318665720366L736.8346344925449 651.5525195173886L734.8828956706893 650.576650106459L723.1902058197302 644.7391767210784L707.5940383250527 643.7633073101497L705.6422995031935 636.9322214336416L709.5457771469119 628.1671398154731L709.5457771469119 624.2636621717529L705.6422995031935 622.3119233498937L707.5940383250527 612.5709723207947L709.5457771469119 611.5951029098651L705.6422995031935 606.7157558552171L707.5940383250527 603.8058907026261L707.5940383250527 599.9024130589078L699.8048261178155 602.8300212916965L697.8530872959527 600.8782824698364L695.9013484740935 601.8541518807679L693.9496096522344 583.3303761532998L690.046132008516 579.4268985095814L691.9978708303752 577.4751596877213L691.9978708303752 568.7100780695528L690.046132008516 560.9208658623138L684.2086586231344 562.8726046841739L680.3051809794197 559.9449964513842Z" stroke="#FFFFFF" stroke-opacity="0.75" stroke-width="1" stroke-linecap="round" stroke-linejoin="round" fill="#D3D3D3"/>
		<path name="淮安市" d="M329.4357700496803 457.6029098651534L337.22498225691743 453.699432221435L364.51383960255407 455.6511710432933L380.1100070972316 442.9826117814064L428.85024840312326 428.36231369765846L422.9950319375421 420.5553584102199L426.8985095812641 411.7902767920514L430.80198722498244 393.266501064586L432.7537260468416 387.42902767920623L428.85024840312326 384.50141944641655L424.9467707594049 376.7122072391776L430.80198722498244 374.7604684173175L430.80198722498244 369.88112136266955L432.7537260468416 365.9776437189512L434.6877217885012 365.0017743080207L434.6877217885012 360.1401703335705L432.7537260468416 357.2125621007808L432.7537260468416 354.28495386799204L430.80198722498244 353.30908445706245L432.7537260468416 349.4056068133441L430.80198722498244 344.5440028388939L436.63946061036404 336.73704755145536L444.44641589780076 330.8995741660756L448.33215046131954 331.87544357700517L450.2838892831787 330.8995741660756L461.97657913413786 326.02022711142763L467.8317955997154 329.9237047551469L473.68701206529295 325.04435770049713L475.6387508871521 323.09261887863886L475.6387508871521 319.20688431511826L473.68701206529295 319.20688431511826L475.6387508871521 317.25514549325817L481.4762242725337 314.3275372604703L481.4762242725337 311.3999290276806L493.16891412348923 303.61071682044167L495.12065294535205 298.7313697657919L499.0241305890704 295.8037615330022L504.86160397444837 301.6589779985816L506.8133427963112 302.63484740951026L508.76508161817037 305.56245564229994L518.5237757274663 304.58658623137035L524.3612491128479 307.49645138396045L536.0539389638034 305.56245564229994L538.0056777856626 308.47232079489095L539.9574166075217 310.4240596167501L543.8608942512401 311.3999290276806L543.8608942512401 314.3275372604703L545.8126330730993 315.303406671399L557.5053229240584 309.44819020582054L559.4570617459212 305.56245564229994L561.4088005677768 306.52058197303086L563.3427963094364 308.47232079489095L567.2462739531584 309.44819020582054L569.1980127750176 312.3757984386102L573.1014904187359 313.3516678495389L573.1014904187359 316.2792760823286L576.9872249822583 321.14088005677877L578.9389638041139 320.18275372604694L580.8907026259731 321.14088005677877L580.8907026259731 329.9237047551469L567.2462739531584 339.66465578424413L557.5053229240584 356.23669268985213L557.5053229240584 362.0919091554306L551.6501064584809 365.9776437189512L553.6018452803401 369.88112136266955L553.6018452803401 372.8087295954592L555.5535841021992 372.8087295954592L549.6983676366217 376.7122072391776L555.5535841021992 397.16997870830437L559.4570617459212 400.09758694109314L561.4088005677768 401.07345635202273L567.2462739531584 405.9528034066725L569.1980127750176 404.9769339957429L571.1497515968767 406.9109297374034L573.1014904187359 406.9109297374034L576.9872249822583 411.7902767920514L576.9872249822583 413.74201561391146L567.2462739531584 418.6213626685594L561.4088005677768 415.69375443577064L553.6018452803401 417.6454932576298L547.7466288147625 420.5553584102199L541.9091554293846 422.50709723208L522.409510290985 424.4588360539401L510.7168204400259 427.3864442867298L508.76508161817037 428.36231369765846L510.7168204400259 432.26579134137774L514.6202980837479 435.17565649396784L495.12065294535205 439.0791341376871L495.12065294535205 442.9826117814064L493.16891412348923 446.88608942512474L493.16891412348923 451.7476933995749L504.86160397444837 452.7235628105036L506.8133427963112 462.48225691980133L510.7168204400259 461.50638750887174L522.409510290985 466.36799148332193L528.2647267565626 478.06068133428016L532.1682044002846 480.01242015614025L530.2164655784254 483.9158977998586L524.3612491128479 490.74698367636665L524.3612491128479 519.011710432932L510.7168204400259 520.9457061745925L500.9758694109296 519.9875798438616L487.33144073811127 520.9457061745925L477.57274662881537 512.1806245564239L475.6387508871521 508.27714691270467L475.6387508871521 505.36728176011366L469.7835344215746 505.36728176011366L469.7835344215746 503.4155429382554L471.73527324343377 502.4396735273249L471.73527324343377 498.5361958836056L471.73527324343377 497.56032647267693L465.8800567778562 496.5844570617455L454.1873669269007 500.4879347054657L448.33215046131954 499.5120652945352L448.33215046131954 496.5844570617455L440.54293825407876 496.5844570617455L438.5911994322232 499.5120652945352L440.54293825407876 502.4396735273249L438.5911994322232 504.39141234918407L434.6877217885012 503.4155429382554L432.7537260468416 504.39141234918407L434.6877217885012 515.1082327892127L428.85024840312326 516.0841022001423L422.9950319375421 515.1082327892127L421.04329311568654 516.0841022001423L422.9950319375421 524.8491838183108L421.04329311568654 525.8250532292413L421.04329311568654 529.7285308729606L422.9950319375421 533.632008516679L422.9950319375421 535.5660042583395L419.09155429382736 538.4936124911292L417.1575585521641 536.5418736692691L415.20581973030494 538.4936124911292L415.20581973030494 536.5418736692691L411.3023420865866 535.5660042583395L411.3023420865866 537.5177430801996L403.51312987934944 534.5901348474099L399.60965223562744 535.5660042583395L397.65791341376826 537.5177430801996L391.8026969481907 539.4694819020588L387.9169623846683 537.5177430801996L372.3207948899908 538.4936124911292L368.41731724627607 535.5660042583395L364.51383960255407 539.4694819020588L356.72462739531693 539.4694819020588L354.7728885734541 536.5418736692691L356.72462739531693 535.5660042583395L354.7728885734541 530.7044002838893L350.8694109297394 529.7285308729606L346.98367636621697 531.6802696948189L346.98367636621697 528.7526614620301L343.0801987224986 527.7767920511005L341.1284599006394 524.8491838183108L345.0319375443578 522.8974449964526L343.0801987224986 519.9875798438616L341.1284599006394 515.1082327892127L333.3215046132027 516.0841022001423L331.38750887153947 502.4396735273249L343.0801987224986 498.5361958836056L345.0319375443578 495.60858765081684L337.22498225691743 494.63271823988725L333.3215046132027 489.77111426543706L333.3215046132027 483.9158977998586L329.4357700496803 469.2955997161116L329.4357700496803 457.6029098651534Z" stroke="#FFFFFF" stroke-opacity="0.75" stroke-width="1" stroke-linecap="round" stroke-linejoin="round" fill="#D3D3D3"/>
		<path name="苏州市" d="M629.6309439318684 814.3275372604685L645.2271114265423 799.7072391767215L662.757274662883 797.7555003548614L666.6607523065977 795.8037615330022L676.4017033356977 787.0386799148337L686.1603974449936 781.1834634492543L690.046132008516 776.321859474805L719.2867281760082 764.6114265436481L732.9311568488301 764.6114265436481L742.689850958126 759.7498225691979L742.689850958126 758.7739531582683L742.689850958126 755.8463449254787L742.689850958126 753.8946061036195L748.527324343504 750.9669978708298L752.430801987226 751.9428672817603L750.4790631653668 740.2501774308021L742.689850958126 742.2019162526612L740.7381121362669 740.2501774308021L740.7381121362669 737.3225691980133L744.6415897799852 737.3225691980133L746.5933286018444 735.3708303761532L750.4790631653668 734.3949609652236L750.4790631653668 733.4368346344927L750.4790631653668 728.5574875798438L744.6415897799852 727.5816181689142L744.6415897799852 725.6298793470551L744.6415897799852 722.7022711142654L748.527324343504 721.7264017033358L750.4790631653668 717.8406671398161L748.527324343504 717.8406671398161L748.527324343504 714.9130589070264L750.4790631653668 711.9854506742367L748.527324343504 706.1302342086592L744.6415897799852 704.1962384669978L738.7863733144077 704.1962384669978L736.8346344925449 701.268630234209L738.7863733144077 696.3892831795602L732.9311568488301 694.4375443577001L730.9971611071669 689.5759403832508L727.0936834634485 687.6242015613907L727.0936834634485 686.648332150462L711.497515968771 681.7689850958132L713.4492547906302 678.8413768630235L711.497515968771 676.907381121363L709.5457771469119 669.1004258339253L719.2867281760082 661.3112136266855L721.238466997871 660.3353442157568L742.689850958126 664.2210787792756L746.5933286018444 666.1728176011356L783.6231369765774 666.1728176011356L803.1227821149769 698.3410220014193L822.6046841731732 705.1721078779274L832.3456352022695 705.1721078779274L840.1525904897062 709.057842441448L869.393186657202 729.5333569907734L879.134137686302 740.2501774308021L890.8268275372611 747.0812633073101L879.134137686302 755.8463449254787L877.1823988644428 754.8704755145491L875.2306600425836 756.8222143364092L865.4897090134837 759.7498225691979L865.4897090134837 756.8222143364092L863.5379701916245 756.8222143364092L853.7970191625245 763.6355571327185L847.941802696947 765.5872959545777L847.941802696947 766.5631653655073L851.8452803406653 767.5390347764378L847.941802696947 769.490773598297L849.8935415188062 771.4425124201562L847.941802696947 775.3459900638754L840.1525904897062 779.2317246273951L842.1043293115654 781.1834634492543L844.0560681334282 783.1352022711144L844.0560681334282 789.9662881476224L847.941802696947 790.942157558552L849.8935415188062 793.852022711143L847.941802696947 795.8037615330022L842.1043293115654 793.852022711143L840.1525904897062 794.8278921220726L838.2008516678507 791.900283889283L836.2491128459878 795.8037615330022L834.2973740241287 796.7796309439318L832.3456352022695 805.5447125621004L836.2491128459878 814.3275372604685L834.2973740241287 817.2551454932573L830.4116394606099 816.2792760823277L828.4599006387507 820.1650106458483L826.5081618168915 819.2068843151173L818.7012065294512 820.1650106458483L808.9602555003548 819.2068843151173L801.171043293114 820.1650106458483L797.2675656493957 826.0202271114267L799.2193044712549 826.9960965223563L803.1227821149769 826.9960965223563L805.0567778566365 829.9237047551451L803.1227821149769 835.7611781405249L805.0567778566365 837.712916962385L803.1227821149769 843.5681334279634L795.3158268275365 845.5198722498226L791.4123491838182 843.5681334279634L787.5266146202957 843.5681334279634L781.6713981547182 845.5198722498226L781.6713981547182 848.4297374024127L777.7679205109998 850.3814762242728L773.882185947481 849.4056068133423L768.0269694819035 849.4056068133423L766.0752306600407 851.3573456352024L769.9787083037627 856.2366926898512L771.9304471256182 865.0017743080198L769.9787083037627 865.0017743080198L769.9787083037627 866.953513129879L766.0752306600407 865.0017743080198L762.1717530163223 868.9052519517381L762.1717530163223 867.9293825408095L760.2377572746627 870.8569907735982L756.3342796309444 869.8811213626686L748.527324343504 869.8811213626686L744.6415897799852 873.784599006387L734.8828956706893 887.4290276792053L730.9971611071669 886.4531582682748L729.0454222853077 882.5496806245565L729.0454222853077 878.6462029808372L725.1419446415894 876.694464158978L727.0936834634485 872.8087295954574L723.1902058197302 869.8811213626686L725.1419446415894 867.9293825408095L721.238466997871 864.0259048970902L721.238466997871 858.1884315117104L719.2867281760082 857.2125621007808L719.2867281760082 863.0500354861606L709.5457771469119 865.0017743080198L707.5940383250527 860.1401703335696L709.5457771469119 853.3090844570615L699.8048261178155 856.2366926898512L690.046132008516 857.2125621007808L666.6607523065977 854.2849538679911L654.9680624556422 843.5681334279634L643.2753726046831 838.6887863733145L641.3236337828239 833.8271823988644L635.4684173172463 826.0202271114267L633.5166784953872 819.2068843151173L631.5826827537239 815.3034066713981L629.6309439318684 814.3275372604685Z" stroke="#FFFFFF" stroke-opacity="0.75" stroke-width="1" stroke-linecap="round" stroke-linejoin="round" fill="#D3D3D3"/>
		<path name="宿迁市" d="M319.67707594038075 356.23669268985213L321.62881476224356 353.30908445706245L319.67707594038075 349.4056068133441L317.74308019872115 348.44748048261226L319.67707594038075 343.5681334279643L321.62881476224356 344.5440028388939L323.58055358410274 342.5922640170338L321.62881476224356 339.66465578424413L319.67707594038075 333.82718239886526L315.7913413768656 329.9237047551469L313.8396025550028 323.09261887863886L311.8878637331436 320.18275372604694L309.9361249112844 320.18275372604694L309.9361249112844 322.11674946770745L309.9361249112844 323.09261887863886L304.09865152590646 322.11674946770745L304.09865152590646 318.23101490418867L298.2434350603289 316.2792760823286L294.3399574166069 313.3516678495389L296.2916962384661 310.4240596167501L300.19517388218446 310.4240596167501L300.19517388218446 308.47232079489095L300.19517388218446 302.63484740951026L298.2434350603289 295.8037615330022L292.38821859474774 296.7796309439336L290.45422285308814 295.8037615330022L290.45422285308814 293.85202271114395L288.50248403122896 292.87615330021345L288.50248403122896 290.94215755855294L290.45422285308814 287.03867991483366L300.19517388218446 285.0869410929745L302.14691270404364 282.1593328601857L304.09865152590646 282.1593328601857L307.98438608942524 287.03867991483366L311.8878637331436 286.062810503905L315.7913413768656 288.01454932576326L317.74308019872115 287.03867991483366L317.74308019872115 283.1352022711153L327.4840312278211 283.1352022711153L331.38750887153947 289.96628814762335L343.0801987224986 291.91802696948344L358.6763662171761 290.94215755855294L376.2065294535132 294.82789212207354L380.1100070972316 291.91802696948344L380.1100070972316 283.1352022711153L382.06174591909075 282.1593328601857L389.8687012065275 282.1593328601857L389.8687012065275 277.29772888573643L391.8026969481907 272.41838183108666L389.8687012065275 267.5390347764387L391.8026969481907 262.6774308019885L391.8026969481907 259.74982256919975L393.7544357700499 256.82221433641007L401.5613910574866 256.82221433641007L401.5613910574866 251.9428672817612L399.60965223562744 251.9428672817612L403.51312987934944 248.05713271824152L409.3506032647274 251.9428672817612L413.25408090844576 249.99112845990203L421.04329311568654 253.8946061036204L422.9950319375421 252.9187366926917L424.9467707594049 256.82221433641007L426.8985095812641 256.82221433641007L428.85024840312326 256.82221433641007L432.7537260468416 251.9428672817612L434.6877217885012 248.05713271824152L436.63946061036404 247.08126330731102L452.2356281050379 246.10539389638143L458.09084457061545 245.12952448545184L460.0425833924746 248.05713271824152L465.8800567778562 243.17778566359175L465.8800567778562 240.25017743080298L471.73527324343377 240.25017743080298L471.73527324343377 241.22604684173257L473.68701206529295 240.25017743080298L473.68701206529295 237.3225691980133L477.57274662881537 237.3225691980133L477.57274662881537 241.22604684173257L477.57274662881537 249.0330021291711L477.57274662881537 251.9428672817612L481.4762242725337 250.96699787083162L479.52448545067455 252.9187366926917L481.4762242725337 255.84634492547957L479.52448545067455 264.61142654364903L483.4279630943929 265.5872959545786L485.3797019162521 275.34599006387634L491.2171753016337 276.321859474805L491.2171753016337 280.2075940383256L493.16891412348923 281.1834634492552L493.16891412348923 284.1110716820449L491.2171753016337 286.062810503905L493.16891412348923 288.01454932576326L493.16891412348923 287.03867991483366L497.07239176721123 288.99041873669375L499.0241305890704 290.94215755855294L497.07239176721123 293.85202271114395L499.0241305890704 295.8037615330022L495.12065294535205 298.7313697657919L493.16891412348923 303.61071682044167L481.4762242725337 311.3999290276806L481.4762242725337 314.3275372604703L475.6387508871521 317.25514549325817L473.68701206529295 319.20688431511826L475.6387508871521 319.20688431511826L475.6387508871521 323.09261887863886L473.68701206529295 325.04435770049713L467.8317955997154 329.9237047551469L461.97657913413786 326.02022711142763L450.2838892831787 330.8995741660756L448.33215046131954 331.87544357700517L444.44641589780076 330.8995741660756L436.63946061036404 336.73704755145536L430.80198722498244 344.5440028388939L432.7537260468416 349.4056068133441L430.80198722498244 353.30908445706245L432.7537260468416 354.28495386799204L432.7537260468416 357.2125621007808L434.6877217885012 360.1401703335705L434.6877217885012 365.0017743080207L432.7537260468416 365.9776437189512L430.80198722498244 369.88112136266955L430.80198722498244 374.7604684173175L424.9467707594049 376.7122072391776L428.85024840312326 384.50141944641655L432.7537260468416 387.42902767920623L430.80198722498244 393.266501064586L426.8985095812641 411.7902767920514L422.9950319375421 420.5553584102199L428.85024840312326 428.36231369765846L380.1100070972316 442.9826117814064L364.51383960255407 455.6511710432933L337.22498225691743 453.699432221435L329.4357700496803 457.6029098651534L325.5322924059619 452.7235628105036L321.62881476224356 450.77182398864534L317.74308019872115 454.6753016323637L317.74308019872115 457.6029098651534L317.74308019872115 458.57877927608297L302.14691270404364 464.41625266146184L298.2434350603289 464.41625266146184L298.2434350603289 463.44038325053225L296.2916962384661 465.39212207239234L296.2916962384661 462.48225691980133L288.50248403122896 456.6270404542238L286.5507452093698 453.699432221435L288.50248403122896 452.7235628105036L286.5507452093698 448.8378282469848L282.6472675656478 449.79595457771484L278.7437899219294 448.8378282469848L280.69552874379224 444.93435060326465L280.69552874379224 442.0067423704768L284.59900638750696 440.0550035486167L286.5507452093698 437.127395315827L288.50248403122896 430.31405251951765L284.59900638750696 429.33818310858805L284.59900638750696 427.3864442867298L288.50248403122896 427.3864442867298L294.3399574166069 423.4829666430096L294.3399574166069 419.5972320794899L292.38821859474774 417.6454932576298L296.2916962384661 407.886799148333L298.2434350603289 403.0251951738828L307.98438608942524 404.9769339957429L307.98438608942524 404.0010645848124L309.9361249112844 384.50141944641655L309.9361249112844 379.6220723917677L319.67707594038075 371.8328601845287L319.67707594038075 363.0677785663602L317.74308019872115 361.116039744501L317.74308019872115 359.1643009226409L321.62881476224356 359.1643009226409L323.58055358410274 358.1884315117113L319.67707594038075 356.23669268985213Z" stroke="#FFFFFF" stroke-opacity="0.75" stroke-width="1" stroke-linecap="round" stroke-linejoin="round" fill="#D3D3D3"/>
		<path name="连云港市" d="M362.5621007806949 234.4127040454232L362.5621007806949 228.55748757984475L366.46557842441325 223.6781405251959L368.41731724627607 218.8165365507457L364.51383960255407 207.1061036195897L366.46557842441325 201.26863023420992L372.3207948899908 201.26863023420992L372.3207948899908 192.4858055358427L378.1582682753724 192.4858055358427L382.06174591909075 189.57594038325078L384.01348474094993 185.67246273953242L387.9169623846683 186.648332150462L395.7061745919091 184.69659332860283L397.65791341376826 188.6000709723221L403.51312987934944 189.57594038325078L407.3988644428682 188.6000709723221L411.3023420865866 191.52767920511087L417.1575585521641 188.6000709723221L422.9950319375421 188.6000709723221L428.85024840312326 183.72072391767415L424.9467707594049 180.79311568488447L421.04329311568654 180.79311568488447L417.1575585521641 179.81724627395397L417.1575585521641 177.88325053229346L417.1575585521641 175.93151171043428L421.04329311568654 175.93151171043428L421.04329311568654 173.9797728885742L419.09155429382736 172.0280340667141L426.8985095812641 171.05216465578542L428.85024840312326 165.19694819020606L424.9467707594049 162.28708303761687L432.7537260468416 162.28708303761687L432.7537260468416 156.4318665720375L442.49467707593794 144.73917672108018L442.49467707593794 130.11887863733227L454.1873669269007 125.23953158268341L458.09084457061545 127.1912704045435L467.8317955997154 125.23953158268341L487.33144073811127 124.26366217175382L491.2171753016337 117.45031937544536L502.92760823278877 114.52271114265568L506.8133427963112 115.49858055358527L510.7168204400259 112.57097232079559L518.5237757274663 114.52271114265568L520.4577714691259 117.45031937544536L520.4577714691259 121.33605393896505L528.2647267565626 129.1430092264036L528.2647267565626 131.09474804826186L526.3129879347034 152.52838892831915L530.2164655784254 158.3836053938976L545.8126330730993 163.26295244854555L555.5535841021992 169.10042583392624L567.2462739531584 173.0039034776455L571.1497515968767 175.93151171043428L573.1014904187359 181.76898509581406L575.0532292405951 195.41341376863147L576.9872249822583 199.31689141235074L598.4386089425097 210.03371185237938L617.9382540809092 214.91305890702733L608.1795599716097 228.55748757984475L608.1795599716097 234.4127040454232L608.1795599716097 238.2984386089429L606.2278211497505 239.2743080198734L610.1312987934689 244.15365507452134L602.3420865862317 249.99112845990203L600.3903477643726 253.8946061036204L598.4386089425097 257.79808374733966L584.7941802696951 266.5631653655082L571.1497515968767 274.37012065294675L565.2945351312992 275.34599006387634L557.5053229240584 281.1834634492552L557.5053229240584 283.1352022711153L561.4088005677768 283.1352022711153L561.4088005677768 286.062810503905L559.4570617459212 288.01454932576326L563.3427963094364 292.87615330021345L565.2945351312992 291.91802696948344L571.1497515968767 295.8037615330022L569.1980127750176 298.7313697657919L567.2462739531584 299.7072391767215L565.2945351312992 301.6589779985816L567.2462739531584 305.56245564229994L567.2462739531584 309.44819020582054L563.3427963094364 308.47232079489095L561.4088005677768 306.52058197303086L559.4570617459212 305.56245564229994L557.5053229240584 309.44819020582054L545.8126330730993 315.303406671399L543.8608942512401 314.3275372604703L543.8608942512401 311.3999290276806L539.9574166075217 310.4240596167501L538.0056777856626 308.47232079489095L536.0539389638034 305.56245564229994L524.3612491128479 307.49645138396045L518.5237757274663 304.58658623137035L508.76508161817037 305.56245564229994L506.8133427963112 302.63484740951026L504.86160397444837 301.6589779985816L499.0241305890704 295.8037615330022L497.07239176721123 293.85202271114395L499.0241305890704 290.94215755855294L497.07239176721123 288.99041873669375L493.16891412348923 287.03867991483366L493.16891412348923 288.01454932576326L491.2171753016337 286.062810503905L493.16891412348923 284.1110716820449L493.16891412348923 281.1834634492552L491.2171753016337 280.2075940383256L491.2171753016337 276.321859474805L485.3797019162521 275.34599006387634L483.4279630943929 265.5872959545786L479.52448545067455 264.61142654364903L481.4762242725337 255.84634492547957L479.52448545067455 252.9187366926917L481.4762242725337 250.96699787083162L477.57274662881537 251.9428672817612L477.57274662881537 249.0330021291711L477.57274662881537 241.22604684173257L477.57274662881537 237.3225691980133L473.68701206529295 237.3225691980133L473.68701206529295 240.25017743080298L471.73527324343377 241.22604684173257L471.73527324343377 240.25017743080298L465.8800567778562 240.25017743080298L465.8800567778562 243.17778566359175L460.0425833924746 248.05713271824152L458.09084457061545 245.12952448545184L452.2356281050379 246.10539389638143L436.63946061036404 247.08126330731102L434.6877217885012 248.05713271824152L432.7537260468416 251.9428672817612L428.85024840312326 256.82221433641007L426.8985095812641 256.82221433641007L424.9467707594049 256.82221433641007L422.9950319375421 252.9187366926917L421.04329311568654 253.8946061036204L413.25408090844576 249.99112845990203L409.3506032647274 251.9428672817612L403.51312987934944 248.05713271824152L403.51312987934944 245.12952448545184L409.3506032647274 241.22604684173257L409.3506032647274 238.2984386089429L405.4471256210054 236.34669978708462L403.51312987934944 233.4368346344927L395.7061745919091 233.4368346344927L391.8026969481907 238.2984386089429L382.06174591909075 234.4127040454232L372.3207948899908 239.2743080198734L364.51383960255407 237.3225691980133L362.5621007806949 234.4127040454232Z" stroke="#FFFFFF" stroke-opacity="0.75" stroke-width="1" stroke-linecap="round" stroke-linejoin="round" fill="#D3D3D3"/>
		<path name="扬州市" d="M479.52448545067455 584.3062455642312L481.4762242725337 586.2579843860894L483.4279630943929 583.3303761532998L487.33144073811127 581.3786373314415L489.28317955997045 579.4268985095814L495.12065294535205 576.5170333569913L495.12065294535205 571.6376863023424L497.07239176721123 571.6376863023424L493.16891412348923 566.7583392476945L499.0241305890704 564.8066004258344L499.0241305890704 560.9208658623138L504.86160397444837 565.782469836764L506.8133427963112 564.8066004258344L504.86160397444837 561.8967352732443L506.8133427963112 559.9449964513842L506.8133427963112 557.9932576295241L504.86160397444837 557.9932576295241L506.8133427963112 555.0656493967363L504.86160397444837 552.1380411639466L499.0241305890704 548.252306600426L504.86160397444837 545.3246983676372L504.86160397444837 541.4212207239179L500.9758694109296 519.9875798438616L510.7168204400259 520.9457061745925L524.3612491128479 519.011710432932L524.3612491128479 490.74698367636665L530.2164655784254 483.9158977998586L532.1682044002846 480.01242015614025L528.2647267565626 478.06068133428016L522.409510290985 466.36799148332193L510.7168204400259 461.50638750887174L506.8133427963112 462.48225691980133L504.86160397444837 452.7235628105036L493.16891412348923 451.7476933995749L493.16891412348923 446.88608942512474L495.12065294535205 442.9826117814064L495.12065294535205 439.0791341376871L514.6202980837479 435.17565649396784L510.7168204400259 432.26579134137774L508.76508161817037 428.36231369765846L510.7168204400259 427.3864442867298L522.409510290985 424.4588360539401L541.9091554293846 422.50709723208L547.7466288147625 420.5553584102199L553.6018452803401 417.6454932576298L561.4088005677768 415.69375443577064L567.2462739531584 418.6213626685594L569.1980127750176 422.50709723208L575.0532292405951 422.50709723208L576.9872249822583 429.33818310858805L578.9389638041139 430.31405251951765L580.8907026259731 437.127395315827L582.8424414478359 439.0791341376871L590.631653655073 437.127395315827L592.5833924769322 439.0791341376871L594.535131298795 441.0308729595463L590.631653655073 442.0067423704768L588.6976579134134 447.8619588360543L594.535131298795 450.77182398864534L592.5833924769322 453.699432221435L590.631653655073 453.699432221435L582.8424414478359 462.48225691980133L582.8424414478359 471.2473385379717L584.7941802696951 473.19907735982997L590.631653655073 475.15081618169006L588.6976579134134 480.98828956706893L590.631653655073 480.98828956706893L590.631653655073 485.8676366217187L594.535131298795 488.7952448545075L590.631653655073 491.7051100070976L592.5833924769322 493.65684882895766L588.6976579134134 495.60858765081684L590.631653655073 497.56032647267693L594.535131298795 500.4879347054657L594.535131298795 507.30127750177417L606.2278211497505 505.36728176011366L606.2278211497505 509.25301632363426L610.1312987934689 513.1564939673535L608.1795599716097 517.0599716110719L610.1312987934689 520.9457061745925L608.1795599716097 522.8974449964526L614.0347764371872 524.8491838183108L614.0347764371872 528.7526614620301L619.8722498225688 528.7526614620301L619.8722498225688 531.6802696948189L615.9865152590464 535.5660042583395L619.8722498225688 541.4212207239179L623.7757274662872 543.3729595457771L621.823988644428 544.3488289567076L621.823988644428 546.3005677785668L625.7274662881464 547.2764371894973L629.6309439318684 556.0415188076659L621.823988644428 557.0173882185945L621.823988644428 555.0656493967363L615.9865152590464 553.1139105748762L612.0830376153317 556.0415188076659L612.0830376153317 558.9691270404546L612.0830376153317 559.9449964513842L612.0830376153317 561.8967352732443L612.0830376153317 564.8066004258344L612.0830376153317 567.7342086586232L615.9865152590464 568.7100780695528L615.9865152590464 570.6618168914129L612.0830376153317 571.6376863023424L612.0830376153317 583.3303761532998L614.0347764371872 585.2821149751599L617.9382540809092 584.3062455642312L621.823988644428 592.0954577714701L617.9382540809092 593.0713271823997L617.9382540809092 595.9989354151885L619.8722498225688 600.8782824698364L615.9865152590464 603.8058907026261L615.9865152590464 607.6916252661467L617.9382540809092 608.6674946770763L615.9865152590464 610.6192334989364L615.9865152590464 612.5709723207947L614.0347764371872 611.5951029098651L614.0347764371872 613.5468417317252L602.3420865862317 610.6192334989364L598.4386089425097 611.5951029098651L592.5833924769322 617.4503193754445L590.631653655073 616.4744499645149L586.7459190915542 619.4020581973027L578.9389638041139 621.336053938965L576.9872249822583 627.1912704045417L575.0532292405951 622.3119233498937L571.1497515968767 621.336053938965L569.1980127750176 622.3119233498937L567.2462739531584 618.4261887863731L569.1980127750176 617.4503193754445L569.1980127750176 615.4985805535844L563.3427963094364 616.4744499645149L559.4570617459212 622.3119233498937L547.7466288147625 620.3601845280336L541.9091554293846 622.3119233498937L534.1022001419442 626.215400993613L516.5720369056071 625.2395315826834L508.76508161817037 627.1912704045417L493.16891412348923 623.2877927608233L483.4279630943929 624.2636621717529L473.68701206529295 620.3601845280336L473.68701206529295 607.6916252661467L471.73527324343377 604.7817601135557L473.68701206529295 601.8541518807679L471.73527324343377 599.9024130589078L473.68701206529295 597.9506742370477L471.73527324343377 596.9748048261181L469.7835344215746 593.0713271823997L471.73527324343377 591.1373314407392L471.73527324343377 587.23385379702L475.6387508871521 584.3062455642312L479.52448545067455 584.3062455642312Z" stroke="#FFFFFF" stroke-opacity="0.75" stroke-width="1" stroke-linecap="round" stroke-linejoin="round" fill="#D3D3D3"/>
		<path name="南京市" d="M479.52448545067455 584.3062455642312L475.6387508871521 584.3062455642312L471.73527324343377 587.23385379702L471.73527324343377 591.1373314407392L469.7835344215746 593.0713271823997L471.73527324343377 596.9748048261181L473.68701206529295 597.9506742370477L471.73527324343377 599.9024130589078L473.68701206529295 601.8541518807679L471.73527324343377 604.7817601135557L473.68701206529295 607.6916252661467L473.68701206529295 620.3601845280336L483.4279630943929 624.2636621717529L493.16891412348923 623.2877927608233L508.76508161817037 627.1912704045417L508.76508161817037 629.1430092264018L504.86160397444837 633.046486870121L495.12065294535205 634.0223562810515L491.2171753016337 632.0706174591915L481.4762242725337 634.9804826117816L479.52448545067455 637.9080908445703L475.6387508871521 638.8839602555008L469.7835344215746 644.7391767210784L467.8317955997154 646.6909155429385L473.68701206529295 646.6909155429385L475.6387508871521 648.624911284599L481.4762242725337 647.666784953868L483.4279630943929 650.576650106459L485.3797019162521 650.576650106459L485.3797019162521 654.4801277501783L483.4279630943929 657.4077359829671L485.3797019162521 664.2210787792756L483.4279630943929 666.1728176011356L487.33144073811127 666.1728176011356L489.28317955997045 670.0762952448549L485.3797019162521 673.0039034776437L483.4279630943929 671.0521646557845L479.52448545067455 671.0521646557845L473.68701206529295 673.0039034776437L471.73527324343377 674.9556422995029L475.6387508871521 677.8655074520939L485.3797019162521 678.8413768630235L489.28317955997045 685.6724627395315L483.4279630943929 691.5099361249113L479.52448545067455 689.5759403832508L471.73527324343377 693.4616749467714L463.92831795599704 694.4375443577001L461.97657913413786 696.3892831795602L467.8317955997154 703.2203690560682L467.8317955997154 705.1721078779274L463.92831795599704 705.1721078779274L463.92831795599704 708.0819730305184L465.8800567778562 708.0819730305184L467.8317955997154 706.1302342086592L469.7835344215746 706.1302342086592L475.6387508871521 704.1962384669978L481.4762242725337 705.1721078779274L491.2171753016337 715.888928317956L495.12065294535205 719.7924059616753L500.9758694109296 721.7264017033358L500.9758694109296 728.5574875798438L502.92760823278877 729.5333569907734L504.86160397444837 732.4609652235631L508.76508161817037 732.4609652235631L504.86160397444837 743.1777856635917L502.92760823278877 746.1053938963805L500.9758694109296 746.1053938963805L499.0241305890704 749.0152590489706L499.0241305890704 750.9669978708298L502.92760823278877 751.9428672817603L500.9758694109296 754.8704755145491L493.16891412348923 757.7980837473388L495.12065294535205 760.7256919801275L493.16891412348923 763.6355571327185L497.07239176721123 766.5631653655073L497.07239176721123 776.321859474805L500.9758694109296 776.321859474805L506.8133427963112 782.1593328601848L502.92760823278877 785.0869410929745L500.9758694109296 788.9904187366928L499.0241305890704 790.942157558552L497.07239176721123 791.900283889283L495.12065294535205 791.900283889283L491.2171753016337 796.7796309439318L487.33144073811127 798.731369765791L485.3797019162521 802.6348474095103L481.4762242725337 801.6589779985807L481.4762242725337 802.6348474095103L475.6387508871521 802.6348474095103L469.7835344215746 801.6589779985807L465.8800567778562 803.6107168204398L463.92831795599704 801.6589779985807L458.09084457061545 802.6348474095103L452.2356281050379 800.6831085876511L440.54293825407876 801.6589779985807L436.63946061036404 803.6107168204398L428.85024840312326 802.6348474095103L422.9950319375421 795.8037615330022L417.1575585521641 793.852022711143L413.25408090844576 791.900283889283L415.20581973030494 790.942157558552L422.9950319375421 776.321859474805L424.9467707594049 775.3459900638754L426.8985095812641 777.279985805536L426.8985095812641 779.2317246273951L432.7537260468416 778.2558552164655L438.5911994322232 776.321859474805L444.44641589780076 768.5149041873665L444.44641589780076 764.6114265436481L446.39815471965994 750.9669978708298L444.44641589780076 749.9911284599011L446.39815471965994 743.1777856635917L444.44641589780076 742.2019162526612L444.44641589780076 739.2743080198725L442.49467707593794 739.2743080198725L444.44641589780076 736.3466997870828L442.49467707593794 733.4368346344927L438.5911994322232 732.4609652235631L432.7537260468416 734.3949609652236L430.80198722498244 732.4609652235631L428.85024840312326 727.5816181689142L430.80198722498244 725.6298793470551L426.8985095812641 723.6781405251959L422.9950319375421 723.6781405251959L421.04329311568654 730.5092264017039L419.09155429382736 732.4609652235631L415.20581973030494 730.5092264017039L411.3023420865866 731.4850958126326L405.4471256210054 729.5333569907734L405.4471256210054 723.6781405251959L409.3506032647274 720.7505322924062L413.25408090844576 718.8165365507457L411.3023420865866 715.888928317956L405.4471256210054 714.9130589070264L403.51312987934944 709.057842441448L399.60965223562744 711.0095812633081L397.65791341376826 710.0337118523776L391.8026969481907 712.9613200851672L391.8026969481907 711.9854506742367L387.9169623846683 714.9130589070264L387.9169623846683 712.9613200851672L384.01348474094993 713.9371894960959L384.01348474094993 711.9854506742367L385.96522356281275 711.0095812633081L385.96522356281275 710.0337118523776L385.96522356281275 709.057842441448L380.1100070972316 708.0819730305184L378.1582682753724 706.1302342086592L376.2065294535132 706.1302342086592L378.1582682753724 695.4134137686306L372.3207948899908 691.5099361249113L374.2725337118536 687.6242015613907L368.41731724627607 684.6965933286019L364.51383960255407 684.6965933286019L360.6281050390353 681.7689850958132L358.6763662171761 682.7448545067427L354.7728885734541 678.8413768630235L354.7728885734541 674.9556422995029L356.72462739531693 672.0280340667141L356.72462739531693 670.0762952448549L358.6763662171761 668.1245564229948L360.6281050390353 662.287083037615L358.6763662171761 660.3353442157568L358.6763662171761 657.4077359829671L358.6763662171761 656.4318665720366L360.6281050390353 653.5042583392487L372.3207948899908 648.624911284599L374.2725337118536 645.7150461320089L378.1582682753724 645.7150461320089L378.1582682753724 641.8115684882896L380.1100070972316 641.8115684882896L378.1582682753724 635.956352022712L380.1100070972316 634.0223562810515L380.1100070972316 632.0706174591915L382.06174591909075 633.046486870121L391.8026969481907 631.0947480482619L395.7061745919091 632.0706174591915L403.51312987934944 629.1430092264018L409.3506032647274 622.3119233498937L407.3988644428682 619.4020581973027L409.3506032647274 616.4744499645149L407.3988644428682 612.5709723207947L409.3506032647274 610.6192334989364L413.25408090844576 610.6192334989364L411.3023420865866 608.6674946770763L415.20581973030494 608.6674946770763L415.20581973030494 606.7157558552171L413.25408090844576 604.7817601135557L413.25408090844576 598.9265436479782L413.25408090844576 599.9024130589078L409.3506032647274 596.9748048261181L411.3023420865866 595.9989354151885L413.25408090844576 583.3303761532998L405.4471256210054 582.3545067423711L401.5613910574866 583.3303761532998L395.7061745919091 581.3786373314415L395.7061745919091 577.4751596877213L397.65791341376826 577.4751596877213L399.60965223562744 575.5411639460608L397.65791341376826 573.5894251242025L397.65791341376826 570.6618168914129L389.8687012065275 566.7583392476945L391.8026969481907 562.8726046841739L395.7061745919091 559.9449964513842L403.51312987934944 563.8307310149048L407.3988644428682 560.9208658623138L413.25408090844576 561.8967352732443L411.3023420865866 559.9449964513842L413.25408090844576 561.8967352732443L413.25408090844576 558.9691270404546L417.1575585521641 557.9932576295241L421.04329311568654 561.8967352732443L424.9467707594049 559.9449964513842L428.85024840312326 563.8307310149048L432.7537260468416 562.8726046841739L436.63946061036404 559.9449964513842L434.6877217885012 563.8307310149048L436.63946061036404 564.8066004258344L440.54293825407876 565.782469836764L450.2838892831787 561.8967352732443L448.33215046131954 567.7342086586232L446.39815471965994 567.7342086586232L450.2838892831787 567.7342086586232L452.2356281050379 569.6859474804833L452.2356281050379 567.7342086586232L456.1391057487599 567.7342086586232L461.97657913413786 573.5894251242025L461.97657913413786 576.5170333569913L465.8800567778562 577.4751596877213L471.73527324343377 574.5652945351312L473.68701206529295 575.5411639460608L475.6387508871521 578.4510290986518L477.57274662881537 581.3786373314415L479.52448545067455 584.3062455642312Z" stroke="#FFFFFF" stroke-opacity="0.75" stroke-width="1" stroke-linecap="round" stroke-linejoin="round" fill="#D3D3D3"/>
		<path name="泰州市" d="M594.535131298795 450.77182398864534L598.4386089425097 452.7235628105036L596.4868701206506 452.7235628105036L596.4868701206506 457.6029098651534L596.4868701206506 458.57877927608297L600.3903477643726 458.57877927608297L598.4386089425097 463.44038325053225L600.3903477643726 466.36799148332193L604.2760823278913 466.36799148332193L617.9382540809092 461.50638750887174L621.823988644428 461.50638750887174L621.823988644428 464.41625266146184L625.7274662881464 462.48225691980133L641.3236337828239 462.48225691980133L653.016323633783 460.53051809794306L658.8715400993606 456.6270404542238L682.2569198012789 464.41625266146184L697.8530872959527 466.36799148332193L697.8530872959527 474.17494677076047L699.8048261178155 479.03655074521066L699.8048261178155 490.74698367636665L697.8530872959527 496.5844570617455L695.9013484740935 496.5844570617455L695.9013484740935 500.4879347054657L695.9013484740935 502.4396735273249L688.1121362668564 501.4638041163953L686.1603974449936 503.4155429382554L684.2086586231344 504.39141234918407L680.3051809794197 503.4155429382554L680.3051809794197 501.4638041163953L676.4017033356977 501.4638041163953L676.4017033356977 510.22888573456385L682.2569198012789 513.1564939673535L680.3051809794197 515.1082327892127L676.4017033356977 519.9875798438616L678.3534421575569 519.9875798438616L678.3534421575569 522.8974449964526L674.4677075940381 521.9215755855221L672.5159687721789 523.8733144073822L674.4677075940381 525.8250532292413L672.5159687721789 527.7767920511005L676.4017033356977 529.7285308729606L680.3051809794197 526.8009226401709L684.2086586231344 525.8250532292413L684.2086586231344 528.7526614620301L682.2569198012789 532.6561391057494L676.4017033356977 533.632008516679L676.4017033356977 539.4694819020588L674.4677075940381 538.4936124911292L672.5159687721789 540.4453513129893L672.5159687721789 541.4212207239179L670.5642299503197 541.4212207239179L668.6124911284569 544.3488289567076L666.6607523065977 545.3246983676372L666.6607523065977 554.0897799858058L664.7090134847422 555.0656493967363L664.7090134847422 557.9932576295241L666.6607523065977 557.9932576295241L676.4017033356977 556.0415188076659L676.4017033356977 555.0656493967363L680.3051809794197 557.0173882185945L678.3534421575569 558.9691270404546L680.3051809794197 559.9449964513842L684.2086586231344 562.8726046841739L690.046132008516 560.9208658623138L691.9978708303752 568.7100780695528L691.9978708303752 577.4751596877213L690.046132008516 579.4268985095814L693.9496096522344 583.3303761532998L695.9013484740935 601.8541518807679L697.8530872959527 600.8782824698364L699.8048261178155 602.8300212916965L707.5940383250527 599.9024130589078L707.5940383250527 603.8058907026261L705.6422995031935 606.7157558552171L709.5457771469119 611.5951029098651L707.5940383250527 612.5709723207947L705.6422995031935 622.3119233498937L709.5457771469119 624.2636621717529L709.5457771469119 628.1671398154731L705.6422995031935 636.9322214336416L707.5940383250527 643.7633073101497L723.1902058197302 644.7391767210784L734.8828956706893 650.576650106459L736.8346344925449 651.5525195173886L736.8346344925449 656.4318665720366L742.689850958126 657.4077359829671L744.6415897799852 660.3353442157568L742.689850958126 664.2210787792756L721.238466997871 660.3353442157568L719.2867281760082 661.3112136266855L709.5457771469119 669.1004258339253L690.046132008516 677.8655074520939L676.4017033356977 679.8172462739531L649.112845990061 672.0280340667141L641.3236337828239 665.1969481902061L631.5826827537239 649.6007806955286L627.6792051100056 640.83569907736L621.823988644428 619.4020581973027L614.0347764371872 613.5468417317252L614.0347764371872 611.5951029098651L615.9865152590464 612.5709723207947L615.9865152590464 610.6192334989364L617.9382540809092 608.6674946770763L615.9865152590464 607.6916252661467L615.9865152590464 603.8058907026261L619.8722498225688 600.8782824698364L617.9382540809092 595.9989354151885L617.9382540809092 593.0713271823997L621.823988644428 592.0954577714701L617.9382540809092 584.3062455642312L614.0347764371872 585.2821149751599L612.0830376153317 583.3303761532998L612.0830376153317 571.6376863023424L615.9865152590464 570.6618168914129L615.9865152590464 568.7100780695528L612.0830376153317 567.7342086586232L612.0830376153317 564.8066004258344L612.0830376153317 561.8967352732443L612.0830376153317 559.9449964513842L612.0830376153317 558.9691270404546L612.0830376153317 556.0415188076659L615.9865152590464 553.1139105748762L621.823988644428 555.0656493967363L621.823988644428 557.0173882185945L629.6309439318684 556.0415188076659L625.7274662881464 547.2764371894973L621.823988644428 546.3005677785668L621.823988644428 544.3488289567076L623.7757274662872 543.3729595457771L619.8722498225688 541.4212207239179L615.9865152590464 535.5660042583395L619.8722498225688 531.6802696948189L619.8722498225688 528.7526614620301L614.0347764371872 528.7526614620301L614.0347764371872 524.8491838183108L608.1795599716097 522.8974449964526L610.1312987934689 520.9457061745925L608.1795599716097 517.0599716110719L610.1312987934689 513.1564939673535L606.2278211497505 509.25301632363426L606.2278211497505 505.36728176011366L594.535131298795 507.30127750177417L594.535131298795 500.4879347054657L590.631653655073 497.56032647267693L588.6976579134134 495.60858765081684L592.5833924769322 493.65684882895766L590.631653655073 491.7051100070976L594.535131298795 488.7952448545075L590.631653655073 485.8676366217187L590.631653655073 480.98828956706893L588.6976579134134 480.98828956706893L590.631653655073 475.15081618169006L584.7941802696951 473.19907735982997L582.8424414478359 471.2473385379717L582.8424414478359 462.48225691980133L590.631653655073 453.699432221435L592.5833924769322 453.699432221435L594.535131298795 450.77182398864534Z" stroke="#FFFFFF" stroke-opacity="0.75" stroke-width="1" stroke-linecap="round" stroke-linejoin="round" fill="#D3D3D3"/>
		<path name="无锡市" d="M676.4017033356977 711.0095812633081L680.3051809794197 710.0337118523776L674.4677075940381 697.3651525904897L678.3534421575569 692.4858055358409L676.4017033356977 690.5518097941804L672.5159687721789 689.5759403832508L664.7090134847422 692.4858055358409L660.8232789212198 692.4858055358409L653.016323633783 698.3410220014193L649.112845990061 696.3892831795602L647.1611071682055 698.3410220014193L645.2271114265423 697.3651525904897L643.2753726046831 692.4858055358409L645.2271114265423 690.5518097941804L647.1611071682055 687.6242015613907L645.2271114265423 685.6724627395315L645.2271114265423 682.7448545067427L647.1611071682055 681.7689850958132L645.2271114265423 675.9315117104334L649.112845990061 672.0280340667141L676.4017033356977 679.8172462739531L690.046132008516 677.8655074520939L709.5457771469119 669.1004258339253L711.497515968771 676.907381121363L713.4492547906302 678.8413768630235L711.497515968771 681.7689850958132L727.0936834634485 686.648332150462L727.0936834634485 687.6242015613907L730.9971611071669 689.5759403832508L732.9311568488301 694.4375443577001L738.7863733144077 696.3892831795602L736.8346344925449 701.268630234209L738.7863733144077 704.1962384669978L744.6415897799852 704.1962384669978L748.527324343504 706.1302342086592L750.4790631653668 711.9854506742367L748.527324343504 714.9130589070264L748.527324343504 717.8406671398161L750.4790631653668 717.8406671398161L748.527324343504 721.7264017033358L744.6415897799852 722.7022711142654L744.6415897799852 725.6298793470551L744.6415897799852 727.5816181689142L750.4790631653668 728.5574875798438L750.4790631653668 733.4368346344927L750.4790631653668 734.3949609652236L746.5933286018444 735.3708303761532L744.6415897799852 737.3225691980133L740.7381121362669 737.3225691980133L740.7381121362669 740.2501774308021L742.689850958126 742.2019162526612L750.4790631653668 740.2501774308021L752.430801987226 751.9428672817603L748.527324343504 750.9669978708298L742.689850958126 753.8946061036195L742.689850958126 755.8463449254787L742.689850958126 758.7739531582683L742.689850958126 759.7498225691979L732.9311568488301 764.6114265436481L719.2867281760082 764.6114265436481L690.046132008516 776.321859474805L686.1603974449936 781.1834634492543L676.4017033356977 787.0386799148337L666.6607523065977 795.8037615330022L662.757274662883 797.7555003548614L645.2271114265423 799.7072391767215L629.6309439318684 814.3275372604685L623.7757274662872 815.3034066713981L614.0347764371872 813.3516678495389L610.1312987934689 815.3034066713981L608.1795599716097 816.2792760823277L608.1795599716097 814.3275372604685L604.2760823278913 812.3757984386084L594.535131298795 814.3275372604685L592.5833924769322 817.2551454932573L586.7459190915542 814.3275372604685L580.8907026259731 818.2310149041868L578.9389638041139 821.1408800567779L571.1497515968767 823.092618878637L569.1980127750176 820.1650106458483L561.4088005677768 816.2792760823277L565.2945351312992 812.3757984386084L565.2945351312992 809.4481902058196L565.2945351312992 804.5865862313703L559.4570617459212 801.6589779985807L561.4088005677768 794.8278921220726L559.4570617459212 788.0145493257623L561.4088005677768 785.0869410929745L561.4088005677768 779.2317246273951L563.3427963094364 774.3701206529458L561.4088005677768 771.4425124201562L565.2945351312992 770.4666430092266L565.2945351312992 767.5390347764378L569.1980127750176 767.5390347764378L571.1497515968767 764.6114265436481L571.1497515968767 761.7015613910571L567.2462739531584 761.7015613910571L569.1980127750176 758.7739531582683L567.2462739531584 754.8704755145491L571.1497515968767 754.8704755145491L575.0532292405951 746.1053938963805L580.8907026259731 742.2019162526612L580.8907026259731 737.3225691980133L584.7941802696951 735.3708303761532L588.6976579134134 737.3225691980133L594.535131298795 745.1295244854509L596.4868701206506 744.1536550745213L608.1795599716097 746.1053938963805L615.9865152590464 749.9911284599011L617.9382540809092 749.9911284599011L619.8722498225688 747.0812633073101L633.5166784953872 746.1053938963805L639.3718949609647 749.0152590489706L643.2753726046831 754.8704755145491L647.1611071682055 754.8704755145491L651.0645848119239 755.8463449254787L653.016323633783 757.7980837473388L653.016323633783 760.7256919801275L651.0645848119239 768.5149041873665L649.112845990061 775.3459900638754L649.112845990061 779.2317246273951L651.0645848119239 783.1352022711144L660.8232789212198 785.0869410929745L662.757274662883 784.111071682044L660.8232789212198 782.1593328601848L651.0645848119239 779.2317246273951L653.016323633783 772.4183818310858L654.9680624556422 765.5872959545777L662.757274662883 762.6596877217889L664.7090134847422 758.7739531582683L666.6607523065977 754.8704755145491L666.6607523065977 752.9187366926899L662.757274662883 751.9428672817603L662.757274662883 747.0812633073101L654.9680624556422 745.1295244854509L654.9680624556422 742.2019162526612L658.8715400993606 736.3466997870828L666.6607523065977 730.5092264017039L666.6607523065977 722.7022711142654L670.5642299503197 724.6540099361246L670.5642299503197 722.7022711142654L670.5642299503197 720.7505322924062L672.5159687721789 719.7924059616753L672.5159687721789 710.0337118523776L674.4677075940381 709.057842441448L676.4017033356977 711.0095812633081Z" stroke="#FFFFFF" stroke-opacity="0.75" stroke-width="1" stroke-linecap="round" stroke-linejoin="round" fill="#D3D3D3"/>
		<path name="常州市" d="M508.76508161817037 732.4609652235631L514.6202980837479 731.4850958126326L522.409510290985 724.6540099361246L526.3129879347034 719.7924059616753L524.3612491128479 716.8647977288856L526.3129879347034 714.9130589070264L520.4577714691259 713.9371894960959L520.4577714691259 709.057842441448L524.3612491128479 705.1721078779274L522.409510290985 699.3168914123489L526.3129879347034 695.4134137686306L526.3129879347034 693.4616749467714L528.2647267565626 691.5099361249113L532.1682044002846 691.5099361249113L538.0056777856626 696.3892831795602L545.8126330730993 697.3651525904897L541.9091554293846 692.4858055358409L547.7466288147625 686.648332150462L557.5053229240584 692.4858055358409L565.2945351312992 691.5099361249113L571.1497515968767 694.4375443577001L576.9872249822583 703.2203690560682L580.8907026259731 703.2203690560682L582.8424414478359 707.1061036195888L590.631653655073 708.0819730305184L592.5833924769322 712.9613200851672L598.4386089425097 714.9130589070264L598.4386089425097 711.0095812633081L600.3903477643726 705.1721078779274L602.3420865862317 704.1962384669978L602.3420865862317 701.268630234209L608.1795599716097 701.268630234209L606.2278211497505 699.3168914123489L610.1312987934689 693.4616749467714L604.2760823278913 693.4616749467714L602.3420865862317 689.5759403832508L600.3903477643726 687.6242015613907L600.3903477643726 686.648332150462L606.2278211497505 683.7207239176723L606.2278211497505 680.7931156848836L608.1795599716097 679.8172462739531L604.2760823278913 675.9315117104334L606.2278211497505 662.287083037615L610.1312987934689 656.4318665720366L621.823988644428 656.4318665720366L623.7757274662872 659.3594748048263L625.7274662881464 658.3836053938967L629.6309439318684 666.1728176011356L641.3236337828239 665.1969481902061L649.112845990061 672.0280340667141L645.2271114265423 675.9315117104334L647.1611071682055 681.7689850958132L645.2271114265423 682.7448545067427L645.2271114265423 685.6724627395315L647.1611071682055 687.6242015613907L645.2271114265423 690.5518097941804L643.2753726046831 692.4858055358409L645.2271114265423 697.3651525904897L647.1611071682055 698.3410220014193L649.112845990061 696.3892831795602L653.016323633783 698.3410220014193L660.8232789212198 692.4858055358409L664.7090134847422 692.4858055358409L672.5159687721789 689.5759403832508L676.4017033356977 690.5518097941804L678.3534421575569 692.4858055358409L674.4677075940381 697.3651525904897L680.3051809794197 710.0337118523776L676.4017033356977 711.0095812633081L674.4677075940381 709.057842441448L672.5159687721789 710.0337118523776L672.5159687721789 719.7924059616753L670.5642299503197 720.7505322924062L670.5642299503197 722.7022711142654L670.5642299503197 724.6540099361246L666.6607523065977 722.7022711142654L666.6607523065977 730.5092264017039L658.8715400993606 736.3466997870828L654.9680624556422 742.2019162526612L654.9680624556422 745.1295244854509L662.757274662883 747.0812633073101L662.757274662883 751.9428672817603L666.6607523065977 752.9187366926899L666.6607523065977 754.8704755145491L664.7090134847422 758.7739531582683L662.757274662883 762.6596877217889L654.9680624556422 765.5872959545777L653.016323633783 772.4183818310858L651.0645848119239 779.2317246273951L660.8232789212198 782.1593328601848L662.757274662883 784.111071682044L660.8232789212198 785.0869410929745L651.0645848119239 783.1352022711144L649.112845990061 779.2317246273951L649.112845990061 775.3459900638754L651.0645848119239 768.5149041873665L653.016323633783 760.7256919801275L653.016323633783 757.7980837473388L651.0645848119239 755.8463449254787L647.1611071682055 754.8704755145491L643.2753726046831 754.8704755145491L639.3718949609647 749.0152590489706L633.5166784953872 746.1053938963805L619.8722498225688 747.0812633073101L617.9382540809092 749.9911284599011L615.9865152590464 749.9911284599011L608.1795599716097 746.1053938963805L596.4868701206506 744.1536550745213L594.535131298795 745.1295244854509L588.6976579134134 737.3225691980133L584.7941802696951 735.3708303761532L580.8907026259731 737.3225691980133L580.8907026259731 742.2019162526612L575.0532292405951 746.1053938963805L571.1497515968767 754.8704755145491L567.2462739531584 754.8704755145491L569.1980127750176 758.7739531582683L567.2462739531584 761.7015613910571L571.1497515968767 761.7015613910571L571.1497515968767 764.6114265436481L569.1980127750176 767.5390347764378L565.2945351312992 767.5390347764378L565.2945351312992 770.4666430092266L561.4088005677768 771.4425124201562L563.3427963094364 774.3701206529458L561.4088005677768 779.2317246273951L561.4088005677768 785.0869410929745L559.4570617459212 788.0145493257623L561.4088005677768 794.8278921220726L559.4570617459212 801.6589779985807L565.2945351312992 804.5865862313703L565.2945351312992 809.4481902058196L565.2945351312992 812.3757984386084L561.4088005677768 816.2792760823277L557.5053229240584 816.2792760823277L553.6018452803401 815.3034066713981L553.6018452803401 817.2551454932573L547.7466288147625 816.2792760823277L543.8608942512401 812.3757984386084L541.9091554293846 813.3516678495389L536.0539389638034 813.3516678495389L536.0539389638034 811.3999290276797L539.9574166075217 810.4240596167492L538.0056777856626 809.4481902058196L534.1022001419442 810.4240596167492L532.1682044002846 807.4964513839595L532.1682044002846 801.6589779985807L534.1022001419442 796.7796309439318L530.2164655784254 790.942157558552L528.2647267565626 797.7555003548614L522.409510290985 796.7796309439318L514.6202980837479 799.7072391767215L512.6685592618887 797.7555003548614L510.7168204400259 798.731369765791L506.8133427963112 796.7796309439318L504.86160397444837 795.8037615330022L502.92760823278877 796.7796309439318L502.92760823278877 795.8037615330022L502.92760823278877 791.900283889283L499.0241305890704 790.942157558552L500.9758694109296 788.9904187366928L502.92760823278877 785.0869410929745L506.8133427963112 782.1593328601848L500.9758694109296 776.321859474805L497.07239176721123 776.321859474805L497.07239176721123 766.5631653655073L493.16891412348923 763.6355571327185L495.12065294535205 760.7256919801275L493.16891412348923 757.7980837473388L500.9758694109296 754.8704755145491L502.92760823278877 751.9428672817603L499.0241305890704 750.9669978708298L499.0241305890704 749.0152590489706L500.9758694109296 746.1053938963805L502.92760823278877 746.1053938963805L504.86160397444837 743.1777856635917L508.76508161817037 732.4609652235631Z" stroke="#FFFFFF" stroke-opacity="0.75" stroke-width="1" stroke-linecap="round" stroke-linejoin="round" fill="#D3D3D3"/>
		<path name="镇江市" d="M508.76508161817037 627.1912704045417L516.5720369056071 625.2395315826834L534.1022001419442 626.215400993613L541.9091554293846 622.3119233498937L547.7466288147625 620.3601845280336L559.4570617459212 622.3119233498937L563.3427963094364 616.4744499645149L569.1980127750176 615.4985805535844L569.1980127750176 617.4503193754445L567.2462739531584 618.4261887863731L569.1980127750176 622.3119233498937L571.1497515968767 621.336053938965L575.0532292405951 622.3119233498937L576.9872249822583 627.1912704045417L578.9389638041139 621.336053938965L586.7459190915542 619.4020581973027L590.631653655073 616.4744499645149L592.5833924769322 617.4503193754445L598.4386089425097 611.5951029098651L602.3420865862317 610.6192334989364L614.0347764371872 613.5468417317252L621.823988644428 619.4020581973027L627.6792051100056 640.83569907736L631.5826827537239 649.6007806955286L641.3236337828239 665.1969481902061L629.6309439318684 666.1728176011356L625.7274662881464 658.3836053938967L623.7757274662872 659.3594748048263L621.823988644428 656.4318665720366L610.1312987934689 656.4318665720366L606.2278211497505 662.287083037615L604.2760823278913 675.9315117104334L608.1795599716097 679.8172462739531L606.2278211497505 680.7931156848836L606.2278211497505 683.7207239176723L600.3903477643726 686.648332150462L600.3903477643726 687.6242015613907L602.3420865862317 689.5759403832508L604.2760823278913 693.4616749467714L610.1312987934689 693.4616749467714L606.2278211497505 699.3168914123489L608.1795599716097 701.268630234209L602.3420865862317 701.268630234209L602.3420865862317 704.1962384669978L600.3903477643726 705.1721078779274L598.4386089425097 711.0095812633081L598.4386089425097 714.9130589070264L592.5833924769322 712.9613200851672L590.631653655073 708.0819730305184L582.8424414478359 707.1061036195888L580.8907026259731 703.2203690560682L576.9872249822583 703.2203690560682L571.1497515968767 694.4375443577001L565.2945351312992 691.5099361249113L557.5053229240584 692.4858055358409L547.7466288147625 686.648332150462L541.9091554293846 692.4858055358409L545.8126330730993 697.3651525904897L538.0056777856626 696.3892831795602L532.1682044002846 691.5099361249113L528.2647267565626 691.5099361249113L526.3129879347034 693.4616749467714L526.3129879347034 695.4134137686306L522.409510290985 699.3168914123489L524.3612491128479 705.1721078779274L520.4577714691259 709.057842441448L520.4577714691259 713.9371894960959L526.3129879347034 714.9130589070264L524.3612491128479 716.8647977288856L526.3129879347034 719.7924059616753L522.409510290985 724.6540099361246L514.6202980837479 731.4850958126326L508.76508161817037 732.4609652235631L504.86160397444837 732.4609652235631L502.92760823278877 729.5333569907734L500.9758694109296 728.5574875798438L500.9758694109296 721.7264017033358L495.12065294535205 719.7924059616753L491.2171753016337 715.888928317956L481.4762242725337 705.1721078779274L475.6387508871521 704.1962384669978L469.7835344215746 706.1302342086592L467.8317955997154 706.1302342086592L465.8800567778562 708.0819730305184L463.92831795599704 708.0819730305184L463.92831795599704 705.1721078779274L467.8317955997154 705.1721078779274L467.8317955997154 703.2203690560682L461.97657913413786 696.3892831795602L463.92831795599704 694.4375443577001L471.73527324343377 693.4616749467714L479.52448545067455 689.5759403832508L483.4279630943929 691.5099361249113L489.28317955997045 685.6724627395315L485.3797019162521 678.8413768630235L475.6387508871521 677.8655074520939L471.73527324343377 674.9556422995029L473.68701206529295 673.0039034776437L479.52448545067455 671.0521646557845L483.4279630943929 671.0521646557845L485.3797019162521 673.0039034776437L489.28317955997045 670.0762952448549L487.33144073811127 666.1728176011356L483.4279630943929 666.1728176011356L485.3797019162521 664.2210787792756L483.4279630943929 657.4077359829671L485.3797019162521 654.4801277501783L485.3797019162521 650.576650106459L483.4279630943929 650.576650106459L481.4762242725337 647.666784953868L475.6387508871521 648.624911284599L473.68701206529295 646.6909155429385L467.8317955997154 646.6909155429385L469.7835344215746 644.7391767210784L475.6387508871521 638.8839602555008L479.52448545067455 637.9080908445703L481.4762242725337 634.9804826117816L491.2171753016337 632.0706174591915L495.12065294535205 634.0223562810515L504.86160397444837 633.046486870121L508.76508161817037 629.1430092264018L508.76508161817037 627.1912704045417Z" stroke="#FFFFFF" stroke-opacity="0.75" stroke-width="1" stroke-linecap="round" stroke-linejoin="round" fill="#D3D3D3"/>
	</g>
</svg>