<?xml version="1.0" encoding="UTF-8" standalone="no"?><!-- Generator: Adobe Illustrator 19.0.0, SVG Export Plug-In . SVG Version: 6.00 Build 0)  --><svg xmlns="http://www.w3.org/2000/svg" xmlns:xlink="http://www.w3.org/1999/xlink" contentScriptType="text/ecmascript" zoomAndPan="magnify" contentStyleType="text/css" id="图层_1" style="enable-background:new 0 0 1000 1000;" mapName="浙江省" mapType="省市地图" version="1.1" xml:space="preserve" preserveAspectRatio="xMidYMid meet" viewBox="0 0 1000 1000" x="0px" y="0px">
	<g>
		<path name="丽水市" d="M134.9631479318523 658.1819646381246L134.9631479318523 655.9668130009268L141.58846510129297 652.6642232872855L143.80361673849256 648.2339200128881L143.80361673849256 646.0187683756903L148.23392001289176 639.3733134640943L146.01876837568852 637.1782995690528L139.39345120625148 638.2858753876526L141.58846510129297 630.5328446574567L141.58846510129297 620.5848000322212L146.01876837568852 615.046920939225L150.44907165008772 617.2620725764227L152.66422328728368 615.046920939225L159.28954045672435 610.6166176648285L165.9349953683195 611.7241934834274L168.15014700551546 616.1544967578238L172.58045027991466 615.046920939225L179.20576744935533 607.29389020903L176.99061581215574 605.0988763139885L176.99061581215574 601.7761488581909L181.42091908655493 591.8079664907973L185.8512223609505 590.7003906721984L188.06637399814645 591.8079664907973L196.90684280478672 580.7523460469611L203.55229771638187 577.4296185911635L207.96246324862295 573.0194530589233L212.3927665230185 571.9118772403235L214.6079181602181 573.0194530589233L216.82306979741406 571.9118772403235L223.44838696685474 573.0194530589233L230.0938418784499 570.8043014217255L234.5241451528491 566.3739981473282L245.57976559668168 567.481573965927L250.01006887108088 563.0512706915306L252.22522050827683 558.6209674171332L256.6353860405179 558.6209674171332L258.8505376777139 557.5335293406906L261.0656893149171 559.728543235733L263.28084095211307 559.728543235733L261.0656893149171 564.1588465101295L263.28084095211307 567.481573965927L265.49599258931266 568.5891497845269L272.1213097587497 563.0512706915306L274.3364613959493 563.0512706915306L280.98191630754445 569.6967256031257L289.8223851141811 567.481573965927L292.0375367513807 570.8043014217255L289.8223851141811 571.9118772403235L289.8223851141811 578.5371944097633L287.60723347698513 590.7003906721984L289.8223851141811 592.9155423093971L294.2526883885803 592.9155423093971L294.2526883885803 595.1306939465949L298.68299166297584 597.3458455837936L296.46784002577624 603.9913004953887L296.46784002577624 609.5090418462287L298.68299166297584 608.4014660276289L303.1132949373714 608.4014660276289L305.3083088324129 613.9393451206251L309.73861210681207 613.9393451206251L311.95376374400803 616.1544967578238L323.00938418784426 615.046920939225L325.22453582504386 611.7241934834274L329.6548390994394 611.7241934834274L331.869990736639 613.9393451206251L338.49530790607605 613.9393451206251L340.71045954327565 607.29389020903L345.1407628176712 603.9913004953887L345.1407628176712 601.7761488581909L349.5710660920704 602.8837246767898L351.7660799871155 599.5609972209913L347.35591445487444 595.1306939465949L347.35591445487444 592.9155423093971L349.5710660920704 591.8079664907973L353.9812316243115 594.023118127996L358.41153489870703 589.6129525957549L360.62668653590663 582.9674976841598L367.2721414475018 577.4296185911635L371.6823069797392 576.3220427725646L371.6823069797392 571.9118772403235L376.1126102541384 569.6967256031257L380.5429135285376 563.0512706915306L380.5429135285376 560.8361190543319L389.38338233517425 563.0512706915306L393.8136856095698 560.8361190543319L404.86930605340604 568.5891497845269L415.94506423939674 561.9436948729317L415.94506423939674 565.2664223287293L422.5703814088374 567.481573965927L424.7855330460334 566.3739981473282L427.000684683233 563.0512706915306L431.43098795762853 565.2664223287293L433.62600185267365 563.0512706915306L438.05630512707285 563.0512706915306L440.2714567642688 560.8361190543319L438.05630512707285 558.6209674171332L438.05630512707285 557.5335293406906L446.91691167586396 547.5653469732979L449.11192557090544 546.457771154699L451.32707720810504 539.8324539852592L449.11192557090544 533.1869990736641L451.32707720810504 529.8642716178665L455.7573804825006 533.1869990736641L460.1876837568998 532.0794232550652L457.97253211969655 534.2945748922639L460.1876837568998 542.0476056224579L462.40283539409575 545.3501953360992L466.8130009263368 548.6729227918968L469.0281525635328 551.9956502476953L475.6736074751316 554.210801884893L477.88875911232753 548.6729227918968L480.10391074952713 549.7804986104957L482.2989246445686 549.7804986104957L482.2989246445686 553.1032260662942L482.2989246445686 554.210801884893L480.10391074952713 561.9436948729317L475.6736074751316 563.0512706915306L471.243304200736 567.481573965927L473.458455837932 570.8043014217255L469.0281525635328 574.1270288775231L469.0281525635328 578.5371944097633L462.40283539409575 580.7523460469611L462.40283539409575 586.2902251399573L464.6179870312917 587.3978009585571L462.40283539409575 588.505376777156L469.0281525635328 591.8079664907973L471.243304200736 595.1306939465949L471.243304200736 599.5609972209913L473.458455837932 600.6685730395911L473.458455837932 603.9913004953887L471.243304200736 606.2064521325874L471.243304200736 603.9913004953887L464.6179870312917 605.0988763139885L462.40283539409575 609.5090418462287L460.1876837568998 609.5090418462287L455.7573804825006 613.9393451206251L457.97253211969655 618.3696483950225L464.6179870312917 620.5848000322212L473.458455837932 620.5848000322212L475.6736074751316 626.1025413830603L473.458455837932 629.4252688388588L473.458455837932 630.5328446574567L473.458455837932 634.9631479318541L473.458455837932 637.1782995690528L466.8130009263368 633.8555721132552L466.8130009263368 638.2858753876526L464.6179870312917 639.3733134640943L466.8130009263368 643.8036167384917L466.8130009263368 646.0187683756903L469.0281525635328 646.0187683756903L471.243304200736 649.3414958314879L469.0281525635328 653.7717991058844L480.10391074952713 660.3971162753242L482.2989246445686 665.9349953683195L482.2989246445686 670.3652986427169L486.7292279189678 672.5603125377584L484.5140762817682 674.775464174957L482.2989246445686 679.2057674493544L484.5140762817682 683.6360707237509L482.2989246445686 686.9587981795485L482.2989246445686 690.2613878931897L475.6736074751316 691.3689637117895L477.88875911232753 694.6916911675862L480.10391074952713 698.0144186233838L471.243304200736 704.6397357928236L473.458455837932 709.07003906722L466.8130009263368 711.2851907044178L466.8130009263368 715.7154939788152L464.6179870312917 722.340811148254L469.0281525635328 724.5559627854527L464.6179870312917 727.8786902412512L462.40283539409575 725.6635386040516L455.7573804825006 725.6635386040516L451.32707720810504 730.093841878449L446.91691167586396 728.9862660598492L446.91691167586396 734.5241451528454L438.05630512707285 733.4165693342466L431.43098795762853 728.9862660598492L433.62600185267365 726.7711144226514L420.3552297716378 723.4483869668538L418.14007813444186 724.5559627854527L420.3552297716378 727.8786902412512L411.5147609650012 727.8786902412512L411.5147609650012 728.9862660598492L411.5147609650012 732.3089935156477L404.86930605340604 731.2014176970479L402.65415441620644 733.4165693342466L389.38338233517425 733.4165693342466L391.5985339723702 726.7711144226514L389.38338233517425 725.6635386040516L380.5429135285376 727.8786902412512L380.5429135285376 731.2014176970479L376.1126102541384 730.093841878449L371.6823069797392 726.7711144226514L371.6823069797392 727.8786902412512L371.6823069797392 731.2014176970479L362.8418381731062 728.9862660598492L365.0569898103022 734.5241451528454L365.0569898103022 738.9343106850865L358.41153489870703 736.7191590478878L353.9812316243115 738.9343106850865L356.19638326150744 743.364613959483L353.9812316243115 748.9024930524793L353.9812316243115 758.8505376777157L353.9812316243115 762.1732651335133L351.7660799871155 762.1732651335133L351.7660799871155 759.9581134963155L347.35591445487444 762.1732651335133L345.1407628176712 766.6035684079106L345.1407628176712 771.0137339401508L342.92561118047524 772.1213097587506L336.2801562688801 769.906158121551L334.0851423738386 772.1213097587506L331.869990736639 775.4440372145473L327.43968746224346 777.6591888517469L327.43968746224346 783.1970679447422L323.00938418784426 787.6072334769824L318.5992186556032 786.4996576583835L316.3840670184072 788.7148092955822L311.95376374400803 787.6072334769824L309.73861210681207 789.8223851141811L307.5234604696125 787.6072334769824L300.89814330017543 789.8223851141811L300.89814330017543 790.9299609327809L296.46784002577624 789.8223851141811L296.46784002577624 794.2526883885785L296.46784002577624 798.6829916629749L294.2526883885803 801.9855813766162L289.8223851141811 816.3840670184063L283.19706794474405 819.6866567320476L280.98191630754445 815.2764911998065L272.1213097587497 814.1689153812076L265.49599258931266 818.5790809134487L265.49599258931266 819.6866567320476L265.49599258931266 823.0093841878452L263.28084095211307 826.3321116436427L252.22522050827683 830.7624149180401L252.22522050827683 835.1725804502803L245.57976559668168 838.4953079060779L234.5241451528491 837.3877320874781L232.30899351564585 836.2801562688801L225.6635386040507 836.2801562688801L221.25337307180962 834.0650046316805L223.44838696685474 828.5472632808405L221.25337307180962 825.2245358250439L212.3927665230185 828.5472632808405L212.3927665230185 827.4396874622425L210.1776148858189 828.5472632808405L205.76744935357783 826.3321116436427L199.12199444198268 823.0093841878452L194.69169116758712 823.0093841878452L192.47653953038753 826.3321116436427L188.06637399814645 826.3321116436427L188.06637399814645 829.6548390994403L188.06637399814645 831.869990736639L183.6360707237509 828.5472632808405L176.99061581215574 829.6548390994403L174.77546417495978 826.3321116436427L172.58045027991466 825.2245358250439L172.58045027991466 820.7942325506465L170.3652986427187 818.5790809134487L168.15014700551546 818.5790809134487L168.15014700551546 817.4715050948489L172.58045027991466 815.2764911998065L174.77546417495978 815.2764911998065L179.20576744935533 806.4158846510127L176.99061581215574 803.093157195216L179.20576744935533 798.6829916629749L176.99061581215574 796.4678400257762L176.99061581215574 793.1451125699787L170.3652986427187 784.3046437633411L170.3652986427187 780.9819163075435L174.77546417495978 778.7667646703449L170.3652986427187 774.3364613959484L168.15014700551546 767.7111442265095L165.9349953683195 758.8505376777157L161.50469209392395 752.2252205082768L163.71984373112355 747.7949172338795L159.28954045672435 737.8267348664867L157.09452656168287 737.8267348664867L157.09452656168287 735.6317209714452L146.01876837568852 732.3089935156477L141.58846510129297 727.8786902412512L141.58846510129297 719.0382214346137L141.58846510129297 714.6079181602163L139.39345120625148 711.2851907044178L139.39345120625148 706.8548874300213L143.80361673849256 702.4447218977812L148.23392001289176 702.4447218977812L150.44907165008772 699.1219944419836L152.66422328728368 699.1219944419836L157.09452656168287 696.9068428047858L157.09452656168287 689.15381207459L154.87937492448327 686.9587981795485L152.66422328728368 685.8512223609496L148.23392001289176 688.046236255992L148.23392001289176 686.9587981795485L150.44907165008772 682.528494905152L157.09452656168287 679.2057674493544L159.28954045672435 675.8830399935559L154.87937492448327 672.5603125377584L146.01876837568852 670.3652986427169L143.80361673849256 664.8274195497206L141.58846510129297 664.8274195497206L141.58846510129297 660.3971162753242L139.39345120625148 658.1819646381246L134.9631479318523 658.1819646381246Z" stroke="#FFFFFF" stroke-opacity="0.75" stroke-width="1" stroke-linecap="round" stroke-linejoin="round" fill="#D3D3D3"/>
		<path name="杭州市" d="M64.15884651013039 423.6779572274363L66.37399814732998 423.6779572274363L70.80430142172554 417.03250231584116L81.85992186555814 418.14007813444005L84.07507350276137 415.92492649724136L88.50537677715693 418.14007813444005L95.1306939465976 414.81735067864247L95.1306939465976 403.76173023480715L101.77614885818912 400.43900277900866L110.61661766482939 391.5985339723711L119.4772242136205 388.27580651657354L126.10254138306118 389.38338233517334L132.74799629465633 380.5227757863795L134.9631479318523 377.2201860727382L139.39345120625148 377.2201860727382L146.01876837568852 369.46715534254326L146.01876837568852 366.1444278867457L143.80361673849256 361.7342623545055L143.80361673849256 357.30395908010814L143.80361673849256 355.08880744290946L148.23392001289176 353.9812316243115L146.01876837568852 351.7660799871119L146.01876837568852 349.5509283499141L152.66422328728368 349.5509283499141L163.71984373112355 339.60288372467767L163.71984373112355 330.7624149180401L168.15014700551546 330.7624149180401L170.3652986427187 328.54726328084143L174.77546417495978 330.7624149180401L174.77546417495978 321.9018083692463L174.77546417495978 316.36392927625L176.99061581215574 313.06133956260874L174.77546417495978 309.73861210681116L174.77546417495978 307.5234604696125L170.3652986427187 304.2007330138149L170.3652986427187 297.57541584437604L170.3652986427187 295.36026420717826L172.58045027991466 294.25268838857846L174.77546417495978 288.7148092955822L165.9349953683195 287.6072334769824L165.9349953683195 286.4996576583844L181.42091908655493 277.6591888517469L181.42091908655493 275.4440372145482L176.99061581215574 274.3364613959484L174.77546417495978 268.79858230295304L172.58045027991466 267.69100648435324L172.58045027991466 266.60356840791064L170.3652986427187 259.9581134963155L172.58045027991466 254.42023440331923L179.20576744935533 251.09750694752165L185.8512223609505 245.57976559668168L188.06637399814645 247.79491723388037L192.47653953038753 247.79491723388037L194.69169116758712 251.09750694752165L207.96246324862295 256.635386040517L214.6079181602181 253.31265858472034L221.25337307180962 256.635386040517L236.73929679004505 259.9581134963155L236.73929679004505 257.7429618591168L241.14946232228613 257.7429618591168L243.36461395948209 259.9581134963155L245.57976559668168 254.42023440331923L245.57976559668168 252.20508276612054L245.57976559668168 250.01006887107906L252.22522050827683 248.90249305247926L256.6353860405179 245.57976559668168L261.0656893149171 243.364613959483L267.71114422651226 246.68734141528057L272.1213097587497 246.68734141528057L276.5516130331489 243.364613959483L283.19706794474405 241.14946232228522L287.60723347698513 236.71915904788875L294.2526883885803 235.61158322928895L298.68299166297584 236.71915904788875L303.1132949373714 235.61158322928895L303.1132949373714 233.41656933424656L307.5234604696125 230.09384187844898L309.73861210681207 228.98626605984919L311.95376374400803 232.30899351564767L316.3840670184072 233.41656933424656L325.22453582504386 230.09384187844898L325.22453582504386 231.20141769704878L323.00938418784426 233.41656933424656L323.00938418784426 237.82673486648673L325.22453582504386 238.93431068508653L329.6548390994394 237.82673486648673L338.49530790607605 231.20141769704878L336.2801562688801 224.55596278545272L338.49530790607605 220.12565951105535L338.49530790607605 214.6079181602163L336.2801562688801 205.74731161142336L338.49530790607605 204.63973579282356L342.92561118047524 206.85488743002134L351.7660799871155 206.85488743002134L349.5710660920704 214.6079181602163L365.0569898103022 217.93064561601386L367.2721414475018 217.93064561601386L371.6823069797392 222.34081114825494L373.89745861694246 222.34081114825494L371.6823069797392 225.66353860405252L376.1126102541384 226.7711144226514L382.75806516573357 225.66353860405252L382.75806516573357 227.8786902412512L387.16823069797465 228.98626605984919L389.38338233517425 231.20141769704878L393.8136856095698 227.8786902412512L407.08445769060563 232.30899351564767L411.5147609650012 232.30899351564767L411.5147609650012 227.8786902412512L409.2996093278016 223.44838696685383L411.5147609650012 219.01808369245737L413.7299126022008 217.93064561601386L418.14007813444186 217.93064561601386L418.14007813444186 220.12565951105535L420.3552297716378 222.34081114825494L427.000684683233 221.23323532965514L427.000684683233 223.44838696685383L429.2158363204326 224.55596278545272L431.43098795762853 223.44838696685383L433.62600185267365 217.93064561601386L435.8411534898696 216.82306979741497L438.05630512707285 214.6079181602163L438.05630512707285 215.71549397881518L453.542228845301 216.82306979741497L457.97253211969655 213.5003423416174L462.40283539409575 213.5003423416174L464.6179870312917 223.44838696685383L466.8130009263368 223.44838696685383L466.8130009263368 224.55596278545272L466.8130009263368 231.20141769704878L460.1876837568998 238.93431068508653L466.8130009263368 244.4721897780828L477.88875911232753 241.14946232228522L477.88875911232753 243.364613959483L475.6736074751316 248.90249305247926L480.10391074952713 253.31265858472034L491.15953119336336 240.04188650368542L526.5616819042261 237.82673486648673L530.9718474364672 240.04188650368542L539.8324539852583 256.635386040517L542.0476056224579 261.0656893149144L533.1869990736632 271.0137339401508L526.5616819042261 274.3364613959484L519.916226992631 287.6072334769824L511.0757581859907 288.7148092955822L506.64545491159515 286.4996576583844L500 286.4996576583844L497.78484836280404 284.2845060211848L491.15953119336336 284.2845060211848L491.15953119336336 287.6072334769824L488.94437955616377 288.7148092955822L486.7292279189678 290.9299609327809L484.5140762817682 292.0375367513798L480.10391074952713 288.7148092955822L480.10391074952713 290.9299609327809L477.88875911232753 290.9299609327809L475.6736074751316 286.4996576583844L469.0281525635328 287.6072334769824L469.0281525635328 289.822385114182L466.8130009263368 289.822385114182L462.40283539409575 293.14511256997866L460.1876837568998 290.9299609327809L455.7573804825006 297.57541584437604L457.97253211969655 298.6829916629749L460.1876837568998 296.46784002577624L464.6179870312917 298.6829916629749L464.6179870312917 306.4158846510136L462.40283539409575 308.6310362882123L464.6179870312917 310.84618792541005L466.8130009263368 310.84618792541005L469.0281525635328 315.2764911998065L471.243304200736 323.00938418784517L466.8130009263368 324.11696000644406L462.40283539409575 331.8498529944827L460.1876837568998 332.9574288130816L455.7573804825006 330.7624149180401L453.542228845301 334.0650046316814L451.32707720810504 332.9574288130816L449.11192557090544 329.6548390994403L446.91691167586396 330.7624149180401L442.48660840146476 329.6548390994403L440.2714567642688 330.7624149180401L435.8411534898696 335.1725804502803L427.000684683233 337.38773208747807L427.000684683233 344.03318699907413L420.3552297716378 349.5509283499141L415.94506423939674 355.08880744290946L413.7299126022008 352.8736558057117L404.86930605340604 353.9812316243115L402.65415441620644 356.19638326150925L404.86930605340604 360.6266865359057L402.65415441620644 363.9494139917033L398.24398888396536 367.2520037053455L396.0288372467694 367.2520037053455L391.5985339723702 365.0368520681468L382.75806516573357 369.46715534254326L376.1126102541384 366.1444278867457L376.1126102541384 367.2520037053455L378.327761891338 369.46715534254326L378.327761891338 372.78988279834084L380.5429135285376 375.0050344355395L380.5429135285376 378.3277618913371L384.9530790607787 379.435337709936L382.75806516573357 378.3277618913371L384.9530790607787 377.2201860727382L391.5985339723702 379.435337709936L391.5985339723702 383.8455032421771L376.1126102541384 386.06065487937576L367.2721414475018 384.95307906077596L365.0569898103022 382.7379274235773L356.19638326150744 387.16823069797465L351.7660799871155 393.8136856095698L353.9812316243115 397.1162753232111L349.5710660920704 399.3314269604098L349.5710660920704 407.0844576906038L342.92561118047524 410.4071851464014L345.1407628176712 415.92492649724136L340.71045954327565 418.14007813444005L340.71045954327565 420.35522977163873L338.49530790607605 424.7855330460352L340.71045954327565 429.1956985782763L338.49530790607605 432.51842603407295L336.2801562688801 431.41085021547406L334.0851423738386 434.73357767127254L331.869990736639 435.84115348987143L331.869990736639 433.62600185267274L325.22453582504386 432.51842603407295L323.00938418784426 434.73357767127254L318.5992186556032 441.3790325828668L320.7942325506483 443.5941842200655L320.7942325506483 445.78919811510787L314.1689153812076 443.5941842200655L307.5234604696125 445.78919811510787L303.1132949373714 444.70176003866527L303.1132949373714 445.78919811510787L298.68299166297584 451.32707720810413L294.2526883885803 452.434653026703L292.0375367513807 452.434653026703L287.60723347698513 445.78919811510787L287.60723347698513 441.3790325828668L285.41221958194 434.73357767127254L283.19706794474405 434.73357767127254L283.19706794474405 438.0563051270692L278.76676467034486 439.163880945669L274.3364613959493 432.51842603407295L269.9262958637082 435.84115348987143L265.49599258931266 436.9487293084703L261.0656893149171 439.163880945669L265.49599258931266 442.4866084014666L263.28084095211307 448.00434975230655L265.49599258931266 452.434653026703L265.49599258931266 454.6498046639008L261.0656893149171 457.9725321196993L263.28084095211307 460.18768375689706L261.0656893149171 463.49027347053834L254.4403721454728 463.49027347053834L252.22522050827683 466.8130009263368L247.79491723388128 470.1357283821344L243.36461395948209 466.8130009263368L241.14946232228613 462.38269765194036L236.73929679004505 461.27512183334056L236.73929679004505 464.59784928913814L234.5241451528491 467.9205767449357L238.93431068508653 470.1357283821344L238.93431068508653 474.56603165653087L234.5241451528491 473.458455837932L234.5241451528491 475.67360747513067L234.5241451528491 477.86862137017215L225.6635386040507 473.458455837932L221.25337307180962 474.56603165653087L221.25337307180962 472.3508800193322L216.82306979741406 473.458455837932L212.3927665230185 473.458455837932L196.90684280478672 476.78118329372955L192.47653953038753 473.458455837932L192.47653953038753 467.9205767449357L185.8512223609505 463.49027347053834L188.06637399814645 460.18768375689706L181.42091908655493 456.8649563011004L174.77546417495978 452.434653026703L172.58045027991466 454.6498046639008L170.3652986427187 454.6498046639008L161.50469209392395 463.49027347053834L159.28954045672435 463.49027347053834L150.44907165008772 469.0281525635346L148.23392001289176 469.0281525635346L148.23392001289176 475.67360747513067L143.80361673849256 476.78118329372955L139.39345120625148 481.1913488259697L132.74799629465633 478.97619718877195L121.6923758508201 481.1913488259697L121.6923758508201 476.78118329372955L119.4772242136205 475.67360747513067L117.26207257642454 472.3508800193322L119.4772242136205 469.0281525635346L117.26207257642454 465.705425107737L117.26207257642454 463.49027347053834L123.9075274880197 466.8130009263368L123.9075274880197 465.705425107737L115.04692093922495 453.5422288453028L99.56099722099316 450.21950138950433L99.56099722099316 446.89677393370675L92.915542309398 445.78919811510787L88.50537677715693 446.89677393370675L79.64477022836218 441.3790325828668L79.64477022836218 439.163880945669L77.42961859116622 438.0563051270692L77.42961859116622 434.73357767127254L73.01945305892514 434.73357767127254L68.58914978452594 429.1956985782763L66.37399814732998 428.1082605018328L64.15884651013039 423.6779572274363Z" stroke="#FFFFFF" stroke-opacity="0.75" stroke-width="1" stroke-linecap="round" stroke-linejoin="round" fill="#D3D3D3"/>
		<path name="温州市" d="M323.00938418784426 787.6072334769824L327.43968746224346 783.1970679447422L327.43968746224346 777.6591888517469L331.869990736639 775.4440372145473L334.0851423738386 772.1213097587506L336.2801562688801 769.906158121551L342.92561118047524 772.1213097587506L345.1407628176712 771.0137339401508L345.1407628176712 766.6035684079106L347.35591445487444 762.1732651335133L351.7660799871155 759.9581134963155L351.7660799871155 762.1732651335133L353.9812316243115 762.1732651335133L353.9812316243115 758.8505376777157L353.9812316243115 748.9024930524793L356.19638326150744 743.364613959483L353.9812316243115 738.9343106850865L358.41153489870703 736.7191590478878L365.0569898103022 738.9343106850865L365.0569898103022 734.5241451528454L362.8418381731062 728.9862660598492L371.6823069797392 731.2014176970479L371.6823069797392 727.8786902412512L371.6823069797392 726.7711144226514L376.1126102541384 730.093841878449L380.5429135285376 731.2014176970479L380.5429135285376 727.8786902412512L389.38338233517425 725.6635386040516L391.5985339723702 726.7711144226514L389.38338233517425 733.4165693342466L402.65415441620644 733.4165693342466L404.86930605340604 731.2014176970479L411.5147609650012 732.3089935156477L411.5147609650012 728.9862660598492L411.5147609650012 727.8786902412512L420.3552297716378 727.8786902412512L418.14007813444186 724.5559627854527L420.3552297716378 723.4483869668538L433.62600185267365 726.7711144226514L431.43098795762853 728.9862660598492L438.05630512707285 733.4165693342466L446.91691167586396 734.5241451528454L446.91691167586396 728.9862660598492L451.32707720810504 730.093841878449L455.7573804825006 725.6635386040516L462.40283539409575 725.6635386040516L464.6179870312917 727.8786902412512L469.0281525635328 724.5559627854527L464.6179870312917 722.340811148254L466.8130009263368 715.7154939788152L466.8130009263368 711.2851907044178L473.458455837932 709.07003906722L471.243304200736 704.6397357928236L480.10391074952713 698.0144186233838L477.88875911232753 694.6916911675862L475.6736074751316 691.3689637117895L482.2989246445686 690.2613878931897L482.2989246445686 686.9587981795485L484.5140762817682 683.6360707237509L482.2989246445686 679.2057674493544L484.5140762817682 674.775464174957L486.7292279189678 672.5603125377584L482.2989246445686 670.3652986427169L482.2989246445686 665.9349953683195L480.10391074952713 660.3971162753242L469.0281525635328 653.7717991058844L471.243304200736 649.3414958314879L469.0281525635328 646.0187683756903L466.8130009263368 646.0187683756903L466.8130009263368 643.8036167384917L464.6179870312917 639.3733134640943L466.8130009263368 638.2858753876526L466.8130009263368 633.8555721132552L473.458455837932 637.1782995690528L473.458455837932 634.9631479318541L473.458455837932 630.5328446574567L473.458455837932 629.4252688388588L475.6736074751316 626.1025413830603L477.88875911232753 626.1025413830603L480.10391074952713 624.9949655644614L482.2989246445686 621.6923758508201L484.5140762817682 608.4014660276289L488.94437955616377 602.8837246767898L493.37468283056296 602.8837246767898L497.78484836280404 605.0988763139885L497.78484836280404 608.4014660276289L506.64545491159515 611.7241934834274L508.86060654879475 609.5090418462287L515.4859237182318 613.9393451206251L522.1313786298269 613.9393451206251L524.3465302670265 612.8317693020263L524.3465302670265 608.4014660276289L528.7768335414221 608.4014660276289L528.7768335414221 607.29389020903L526.5616819042261 603.9913004953887L537.6173023480624 602.8837246767898L539.8324539852583 599.5609972209913L546.457771154699 598.4534214023925L557.5335293406933 601.7761488581909L557.5335293406933 605.0988763139885L564.1588465101304 607.29389020903L566.37399814733 612.8317693020263L566.37399814733 616.1544967578238L570.8043014217255 617.2620725764227L570.8043014217255 620.5848000322212L577.4497563333207 623.8873897458625L584.0750735027614 619.4772242136214L586.2902251399573 619.4772242136214L597.3458455837936 624.9949655644614L612.8317693020254 623.8873897458625L615.046920939225 623.8873897458625L617.2620725764245 615.046920939225L619.4772242136205 612.8317693020263L630.5328446574567 617.2620725764227L637.1782995690555 624.9949655644614L641.6086028434474 628.317693020259L641.6086028434474 630.5328446574567L643.8036167384926 634.9631479318541L650.4490716500877 638.2858753876526L648.2339200128881 643.8036167384917L641.6086028434474 646.0187683756903L641.6086028434474 650.4490716500868L641.6086028434474 659.2895404567244L634.9631479318523 663.7198437311208L628.3176930202571 667.0425711869184L626.1226791252157 688.046236255992L617.2620725764245 703.55229771638L626.1226791252157 719.0382214346137L654.8793749244833 714.6079181602163L668.1501470055155 717.9306456160139L674.7956019171143 721.2332353296551L657.0945265616829 722.340811148254L648.2339200128881 734.5241451528454L648.2339200128881 745.5797655966817L650.4490716500877 754.4202344033192L648.2339200128881 758.8505376777157L646.0187683756885 783.1970679447422L646.0187683756885 787.6072334769824L648.2339200128881 798.6829916629749L643.8036167384926 804.2007330138149L634.9631479318523 810.84618792541L632.7479962946563 815.2764911998065L630.5328446574567 820.7942325506465L637.1782995690555 829.6548390994403L634.9631479318523 836.2801562688801L619.4772242136205 848.4634902734706L603.9913004953887 852.8736558057117L548.672922791895 848.4634902734706L542.0476056224579 849.5509283499141L537.6173023480624 852.8736558057117L535.4021507108628 856.1963832615093L533.1869990736632 873.8974586169397L535.4021507108628 892.70610979097L577.4497563333207 897.1364130653674L584.0750735027614 899.3314269604098L588.5053767771569 901.5465785976075L590.7205284143565 909.2996093278025L586.2902251399573 913.729912602199L579.6447702283622 918.14007813444L570.8043014217255 919.2476539530389L542.0476056224579 914.8173506786416L515.4859237182318 899.3314269604098L493.37468283056296 894.9212614281696L484.5140762817682 888.2758065165735L482.2989246445686 883.8455032421771L480.10391074952713 878.3277618913371L480.10391074952713 876.1126102541384L477.88875911232753 872.7898827983408L484.5140762817682 870.5747311611422L484.5140762817682 869.4671553425433L480.10391074952713 867.2520037053455L473.458455837932 856.1963832615093L469.0281525635328 852.8736558057117L469.0281525635328 850.658504168513L466.8130009263368 849.5509283499141L469.0281525635328 844.0331869990741L466.8130009263368 841.8180353618754L462.40283539409575 841.8180353618754L462.40283539409575 840.7104595432766L460.1876837568998 842.9256111804743L455.7573804825006 842.9256111804743L453.542228845301 844.0331869990741L449.11192557090544 835.1725804502803L442.48660840146476 837.3877320874781L438.05630512707285 836.2801562688801L433.62600185267365 838.4953079060779L429.2158363204326 836.2801562688801L424.7855330460334 837.3877320874781L424.7855330460334 842.9256111804743L418.14007813444186 842.9256111804743L415.94506423939674 846.2483386362719L407.08445769060563 853.9812316243106L402.65415441620644 852.8736558057117L398.24398888396536 846.2483386362719L396.0288372467694 846.2483386362719L391.5985339723702 848.4634902734706L389.38338233517425 850.658504168513L384.9530790607787 853.9812316243106L387.16823069797465 858.4115348987079L378.327761891338 858.4115348987079L373.89745861694246 859.5191107173068L373.89745861694246 861.7342623545055L367.2721414475018 857.3039590801081L365.0569898103022 859.5191107173068L365.0569898103022 861.7342623545055L360.62668653590663 862.8418381731044L356.19638326150744 859.5191107173068L353.9812316243115 861.7342623545055L351.7660799871155 860.6266865359057L351.7660799871155 856.1963832615093L351.7660799871155 857.3039590801081L353.9812316243115 856.1963832615093L351.7660799871155 855.0888074429095L351.7660799871155 852.8736558057117L347.35591445487444 851.7660799871119L345.1407628176712 849.5509283499141L347.35591445487444 846.2483386362719L342.92561118047524 841.8180353618754L340.71045954327565 840.7104595432766L338.49530790607605 836.2801562688801L334.0851423738386 835.1725804502803L334.0851423738386 834.0650046316805L336.2801562688801 832.9775665552379L338.49530790607605 829.6548390994403L338.49530790607605 818.5790809134487L334.0851423738386 813.0613395626087L329.6548390994394 815.2764911998065L329.6548390994394 814.1689153812076L331.869990736639 806.4158846510127L323.00938418784426 804.2007330138149L323.00938418784426 797.575415844376L325.22453582504386 796.4678400257762L327.43968746224346 793.1451125699787L325.22453582504386 792.0375367513798L325.22453582504386 789.8223851141811L323.00938418784426 787.6072334769824Z" stroke="#FFFFFF" stroke-opacity="0.75" stroke-width="1" stroke-linecap="round" stroke-linejoin="round" fill="#D3D3D3"/>
		<path name="宁波市" d="M575.2346046961211 267.69100648435324L595.130693946594 257.7429618591168L619.4772242136205 238.93431068508653L630.5328446574567 232.30899351564767L634.9631479318523 230.09384187844898L650.4490716500877 227.8786902412512L659.2895404567244 228.98626605984919L668.1501470055155 233.41656933424656L703.5522977163819 266.60356840791064L734.5241451528454 285.3920818397846L745.5797655966817 297.57541584437604L750.0100688710809 305.3083088324138L756.6353860405179 313.06133956260874L756.6353860405179 318.5790809134487L774.3364613959493 328.54726328084143L789.8223851141811 325.22453582504386L798.6829916629758 327.43968746224255L809.7386121068121 335.1725804502803L823.0093841878443 332.9574288130816L838.495307906076 335.1725804502803L820.8143702928028 351.7660799871119L800.8981433001754 367.2520037053455L789.8223851141811 368.3595795239444L787.6273712191396 375.0050344355395L800.8981433001754 384.95307906077596L800.8981433001754 387.16823069797465L811.953763744008 392.7061097909709L825.2245358250439 404.8693060534051L836.3002940110382 409.2996093278025L831.869990736639 412.6021990414438L831.869990736639 415.92492649724136L834.0851423738386 422.5703814088365L836.3002940110382 423.6779572274363L851.7862177292664 421.4628055902376L856.1963832615074 425.893108864635L856.1963832615074 429.1956985782763L851.7862177292664 433.62600185267274L842.9256111804752 503.3227274557985L842.9256111804752 513.270772081034L845.1407628176712 525.4541060856263L847.3559144548744 530.9718474364654L860.6266865359066 538.7248781666603L862.8418381731062 545.3501953360992L860.6266865359066 548.6729227918968L849.5710660920704 551.9956502476953L803.1132949373714 548.6729227918968L794.2526883885803 549.7804986104957L756.6353860405179 519.9162269926301L750.0100688710809 500L741.1494623222861 494.46212090700465L734.5241451528454 493.37468283056205L716.8230697974141 485.6216521003671L712.3927665230185 485.6216521003671L705.7674493535778 492.26710701196225L699.1219944419827 492.26710701196225L688.0663739981464 487.8368037375658L681.4209190865513 488.9443795561647L679.2057674493553 487.8368037375658L679.2057674493553 482.2989246445695L674.7956019171143 481.1913488259697L665.9349953683195 495.56969672560354L661.504692093924 497.7848483628022L659.2895404567244 496.6772725442024L657.0945265616829 498.8924241814011L652.6642232872837 497.7848483628022L650.4490716500877 495.56969672560354L652.6642232872837 487.8368037375658L650.4490716500877 487.8368037375658L646.0187683756885 480.08377300737084L643.8036167384926 477.86862137017215L632.7479962946563 477.86862137017215L634.9631479318523 474.56603165653087L630.5328446574567 471.2433042007333L632.7479962946563 467.9205767449357L634.9631479318523 467.9205767449357L634.9631479318523 463.49027347053834L639.3934512062515 453.5422288453028L637.1782995690555 451.32707720810413L646.0187683756885 445.78919811510787L646.0187683756885 436.9487293084703L641.6086028434474 435.84115348987143L641.6086028434474 431.41085021547406L643.8036167384926 429.1956985782763L641.6086028434474 427.0006846832339L646.0187683756885 415.92492649724136L643.8036167384926 412.6021990414438L628.3176930202571 410.4071851464014L626.1226791252157 408.1920335092036L621.6923758508201 408.1920335092036L619.4772242136205 402.65415441620735L619.4772242136205 400.43900277900866L619.4772242136205 393.8136856095698L612.8317693020254 391.5985339723711L615.046920939225 386.06065487937576L610.6166176648294 381.6303516049784L603.9913004953887 384.95307906077596L597.3458455837936 383.8455032421771L597.3458455837936 381.6303516049784L601.7761488581891 380.5227757863795L599.5609972209932 377.2201860727382L606.2064521325883 375.0050344355395L603.9913004953887 372.78988279834084L606.2064521325883 370.57473116114306L603.9913004953887 366.1444278867457L608.4216037697843 366.1444278867457L610.6166176648294 362.8418381731044L615.046920939225 361.7342623545055L619.4772242136205 357.30395908010814L617.2620725764245 355.08880744290946L619.4772242136205 350.658504168513L612.8317693020254 346.2483386362719L610.6166176648294 347.3559144548717L606.2064521325883 344.03318699907413L601.7761488581891 339.60288372467767L606.2064521325883 332.9574288130816L608.4216037697843 327.43968746224255L612.8317693020254 326.33211164364275L617.2620725764245 320.7942325506465L612.8317693020254 317.4715050948498L610.6166176648294 317.4715050948498L608.4216037697843 316.36392927625L608.4216037697843 317.4715050948498L606.2064521325883 315.2764911998065L597.3458455837936 313.06133956260874L597.3458455837936 307.5234604696125L592.9356800515525 304.2007330138149L592.9356800515525 299.77042973941843L588.5053767771569 299.77042973941843L584.0750735027614 295.36026420717826L586.2902251399573 293.14511256997866L584.0750735027614 284.2845060211848L575.2346046961211 267.69100648435324Z" stroke="#FFFFFF" stroke-opacity="0.75" stroke-width="1" stroke-linecap="round" stroke-linejoin="round" fill="#D3D3D3"/>
		<path name="舟山市" d="M703.5522977163819 266.60356840791064L707.962463248623 181.4209190865522L741.1494623222861 173.66788835635816L800.8981433001754 154.8592371823279L814.1689153812076 152.6642232872855L836.3002940110382 151.5566474686866L856.1963832615074 158.18196463812546L898.2439888839654 155.96681300092678L918.1400781344419 140.48088928269408L924.7855330460334 138.2657376454963L942.4866084014648 136.0707237504539L949.1320633130636 150.4490716500868L962.4028353940957 155.96681300092678L969.0281525635328 162.61226791252193L973.458455837932 170.3451609005606L982.3190623867267 203.53215997422376L995.5898344677589 221.23323532965514L997.8049861049585 244.4721897780828L1000 284.2845060211848L1000 290.9299609327809L980.1039107495271 296.46784002577624L927.000684683233 300.8780055580173L922.5703814088374 301.9855813766162L922.5703814088374 321.9018083692463L924.7855330460334 345.14076281767393L922.5703814088374 348.4433525313143L902.6541544162064 350.658504168513L878.327761891338 366.1444278867457L873.8974586169425 372.78988279834084L862.8418381731062 392.7061097909709L856.1963832615074 398.2238511418109L836.3002940110382 409.2996093278025L825.2245358250439 404.8693060534051L811.953763744008 392.7061097909709L800.8981433001754 387.16823069797465L800.8981433001754 384.95307906077596L787.6273712191396 375.0050344355395L789.8223851141811 368.3595795239444L800.8981433001754 367.2520037053455L820.8143702928028 351.7660799871119L838.495307906076 335.1725804502803L823.0093841878443 332.9574288130816L809.7386121068121 335.1725804502803L798.6829916629758 327.43968746224255L789.8223851141811 325.22453582504386L774.3364613959493 328.54726328084143L756.6353860405179 318.5790809134487L756.6353860405179 313.06133956260874L750.0100688710809 305.3083088324138L745.5797655966817 297.57541584437604L734.5241451528454 285.3920818397846L703.5522977163819 266.60356840791064Z" stroke="#FFFFFF" stroke-opacity="0.75" stroke-width="1" stroke-linecap="round" stroke-linejoin="round" fill="#D3D3D3"/>
		<path name="台州市" d="M482.2989246445686 553.1032260662942L486.7292279189678 550.8880744290955L493.37468283056296 551.9956502476953L495.5898344677589 554.210801884893L497.78484836280404 548.6729227918968L497.78484836280404 545.3501953360992L500 544.2426195175003L504.4303032743992 544.2426195175003L506.64545491159515 547.5653469732979L511.0757581859907 547.5653469732979L522.1313786298269 540.940029803859L526.5616819042261 539.8324539852592L530.9718474364672 535.4021507108628L530.9718474364672 530.9718474364654L533.1869990736632 525.4541060856263L537.6173023480624 523.2389544484276L544.2627572596575 524.3465302670265L544.2627572596575 516.5934995368325L542.0476056224579 515.4859237182336L544.2627572596575 512.163196262436L537.6173023480624 502.2151516371987L548.672922791895 495.56969672560354L544.2627572596575 492.26710701196225L542.0476056224579 493.37468283056205L539.8324539852583 492.26710701196225L542.0476056224579 487.8368037375658L555.3183777034901 478.97619718877195L555.3183777034901 475.67360747513067L553.1032260662942 474.56603165653087L559.7486809778893 472.3508800193322L564.1588465101304 472.3508800193322L568.589149784526 469.0281525635346L575.2346046961211 471.2433042007333L579.6447702283622 471.2433042007333L577.4497563333207 465.705425107737L579.6447702283622 463.49027347053834L579.6447702283622 460.18768375689706L581.8599218655581 457.9725321196993L590.7205284143565 462.38269765194036L592.9356800515525 457.9725321196993L597.3458455837936 456.8649563011004L599.5609972209932 454.6498046639008L603.9913004953887 457.9725321196993L610.6166176648294 454.6498046639008L619.4772242136205 455.7573804825006L617.2620725764245 456.8649563011004L621.6923758508201 459.08010793829817L623.9075274880197 456.8649563011004L621.6923758508201 452.434653026703L623.9075274880197 451.32707720810413L628.3176930202571 452.434653026703L630.5328446574567 451.32707720810413L632.7479962946563 454.6498046639008L639.3934512062515 453.5422288453028L634.9631479318523 463.49027347053834L634.9631479318523 467.9205767449357L632.7479962946563 467.9205767449357L630.5328446574567 471.2433042007333L634.9631479318523 474.56603165653087L632.7479962946563 477.86862137017215L643.8036167384926 477.86862137017215L646.0187683756885 480.08377300737084L650.4490716500877 487.8368037375658L652.6642232872837 487.8368037375658L650.4490716500877 495.56969672560354L652.6642232872837 497.7848483628022L657.0945265616829 498.8924241814011L659.2895404567244 496.6772725442024L661.504692093924 497.7848483628022L665.9349953683195 495.56969672560354L674.7956019171143 481.1913488259697L679.2057674493553 482.2989246445695L679.2057674493553 487.8368037375658L681.4209190865513 488.9443795561647L688.0663739981464 487.8368037375658L699.1219944419827 492.26710701196225L705.7674493535778 492.26710701196225L712.3927665230185 485.6216521003671L716.8230697974141 485.6216521003671L734.5241451528454 493.37468283056205L741.1494623222861 494.46212090700465L750.0100688710809 500L756.6353860405179 519.9162269926301L794.2526883885803 549.7804986104957L792.0375367513807 556.4259535220917L796.4678400257762 566.3739981473282L796.4678400257762 578.5371944097633L794.2526883885803 586.2902251399573L787.6273712191396 594.023118127996L789.8223851141811 598.4534214023925L796.4678400257762 602.8837246767898L796.4678400257762 634.9631479318541L794.2526883885803 641.588465101293L787.6273712191396 644.9111925570905L772.1414475009078 646.0187683756903L745.5797655966817 650.4490716500868L743.3646139594821 654.8793749244842L743.3646139594821 659.2895404567244L750.0100688710809 664.8274195497206L750.0100688710809 668.1501470055182L741.1494623222861 678.0981916307546L734.5241451528454 680.3133432679533L730.0938418784499 680.3133432679533L701.3371460791823 671.4728744613158L694.6916911675871 672.5603125377584L690.281525635346 683.6360707237509L690.281525635346 686.9587981795485L694.6916911675871 691.3689637117895L712.3927665230185 693.5841153489873L716.8230697974141 696.9068428047858L714.6079181602181 705.7473116114224L712.3927665230185 711.2851907044178L701.3371460791823 717.9306456160139L674.7956019171143 721.2332353296551L668.1501470055155 717.9306456160139L654.8793749244833 714.6079181602163L626.1226791252157 719.0382214346137L617.2620725764245 703.55229771638L626.1226791252157 688.046236255992L628.3176930202571 667.0425711869184L634.9631479318523 663.7198437311208L641.6086028434474 659.2895404567244L641.6086028434474 650.4490716500868L641.6086028434474 646.0187683756903L648.2339200128881 643.8036167384917L650.4490716500877 638.2858753876526L643.8036167384926 634.9631479318541L641.6086028434474 630.5328446574567L641.6086028434474 628.317693020259L637.1782995690555 624.9949655644614L630.5328446574567 617.2620725764227L619.4772242136205 612.8317693020263L617.2620725764245 615.046920939225L615.046920939225 623.8873897458625L612.8317693020254 623.8873897458625L597.3458455837936 624.9949655644614L586.2902251399573 619.4772242136214L584.0750735027614 619.4772242136214L577.4497563333207 623.8873897458625L570.8043014217255 620.5848000322212L570.8043014217255 617.2620725764227L566.37399814733 616.1544967578238L566.37399814733 612.8317693020263L564.1588465101304 607.29389020903L557.5335293406933 605.0988763139885L557.5335293406933 601.7761488581909L546.457771154699 598.4534214023925L539.8324539852583 599.5609972209913L537.6173023480624 602.8837246767898L526.5616819042261 603.9913004953887L528.7768335414221 607.29389020903L528.7768335414221 608.4014660276289L524.3465302670265 608.4014660276289L524.3465302670265 612.8317693020263L522.1313786298269 613.9393451206251L515.4859237182318 613.9393451206251L508.86060654879475 609.5090418462287L506.64545491159515 611.7241934834274L497.78484836280404 608.4014660276289L497.78484836280404 605.0988763139885L493.37468283056296 602.8837246767898L488.94437955616377 602.8837246767898L484.5140762817682 608.4014660276289L482.2989246445686 621.6923758508201L480.10391074952713 624.9949655644614L477.88875911232753 626.1025413830603L475.6736074751316 626.1025413830603L473.458455837932 620.5848000322212L464.6179870312917 620.5848000322212L457.97253211969655 618.3696483950225L455.7573804825006 613.9393451206251L460.1876837568998 609.5090418462287L462.40283539409575 609.5090418462287L464.6179870312917 605.0988763139885L471.243304200736 603.9913004953887L471.243304200736 606.2064521325874L473.458455837932 603.9913004953887L473.458455837932 600.6685730395911L471.243304200736 599.5609972209913L471.243304200736 595.1306939465949L469.0281525635328 591.8079664907973L462.40283539409575 588.505376777156L464.6179870312917 587.3978009585571L462.40283539409575 586.2902251399573L462.40283539409575 580.7523460469611L469.0281525635328 578.5371944097633L469.0281525635328 574.1270288775231L473.458455837932 570.8043014217255L471.243304200736 567.481573965927L475.6736074751316 563.0512706915306L480.10391074952713 561.9436948729317L482.2989246445686 554.210801884893L482.2989246445686 553.1032260662942Z" stroke="#FFFFFF" stroke-opacity="0.75" stroke-width="1" stroke-linecap="round" stroke-linejoin="round" fill="#D3D3D3"/>
		<path name="金华市" d="M247.79491723388128 470.1357283821344L252.22522050827683 466.8130009263368L254.4403721454728 463.49027347053834L261.0656893149171 463.49027347053834L263.28084095211307 460.18768375689706L261.0656893149171 457.9725321196993L265.49599258931266 454.6498046639008L265.49599258931266 452.434653026703L263.28084095211307 448.00434975230655L265.49599258931266 442.4866084014666L261.0656893149171 439.163880945669L265.49599258931266 436.9487293084703L269.9262958637082 435.84115348987143L274.3364613959493 432.51842603407295L278.76676467034486 439.163880945669L283.19706794474405 438.0563051270692L283.19706794474405 434.73357767127254L285.41221958194 434.73357767127254L287.60723347698513 441.3790325828668L287.60723347698513 445.78919811510787L292.0375367513807 452.434653026703L294.2526883885803 452.434653026703L298.68299166297584 451.32707720810413L303.1132949373714 445.78919811510787L303.1132949373714 444.70176003866527L307.5234604696125 445.78919811510787L314.1689153812076 443.5941842200655L320.7942325506483 445.78919811510787L320.7942325506483 443.5941842200655L318.5992186556032 441.3790325828668L323.00938418784426 434.73357767127254L325.22453582504386 432.51842603407295L331.869990736639 433.62600185267274L331.869990736639 435.84115348987143L334.0851423738386 434.73357767127254L336.2801562688801 431.41085021547406L338.49530790607605 432.51842603407295L340.71045954327565 429.1956985782763L338.49530790607605 424.7855330460352L340.71045954327565 420.35522977163873L340.71045954327565 418.14007813444005L345.1407628176712 415.92492649724136L342.92561118047524 410.4071851464014L349.5710660920704 407.0844576906038L349.5710660920704 399.3314269604098L353.9812316243115 397.1162753232111L351.7660799871155 393.8136856095698L356.19638326150744 387.16823069797465L365.0569898103022 382.7379274235773L367.2721414475018 384.95307906077596L376.1126102541384 386.06065487937576L391.5985339723702 383.8455032421771L396.0288372467694 387.16823069797465L400.4390027790105 388.27580651657354L402.65415441620644 388.27580651657354L402.65415441620644 384.95307906077596L404.86930605340604 384.95307906077596L404.86930605340604 388.27580651657354L402.65415441620644 390.4909581537722L407.08445769060563 392.7061097909709L400.4390027790105 398.2238511418109L398.24398888396536 403.76173023480715L404.86930605340604 403.76173023480715L409.2996093278016 407.0844576906038L407.08445769060563 409.2996093278025L413.7299126022008 411.5147609650012L415.94506423939674 414.81735067864247L413.7299126022008 417.03250231584116L422.5703814088374 420.35522977163873L424.7855330460334 417.03250231584116L431.43098795762853 415.92492649724136L435.8411534898696 410.4071851464014L438.05630512707285 409.2996093278025L440.2714567642688 413.70977486004267L451.32707720810504 420.35522977163873L449.11192557090544 427.0006846832339L453.542228845301 431.41085021547406L451.32707720810504 441.3790325828668L451.32707720810504 445.78919811510787L457.97253211969655 449.11192557090544L457.97253211969655 448.00434975230655L460.1876837568998 443.5941842200655L462.40283539409575 442.4866084014666L464.6179870312917 438.0563051270692L473.458455837932 435.84115348987143L471.243304200736 430.30327439687517L475.6736074751316 428.1082605018328L480.10391074952713 428.1082605018328L484.5140762817682 422.5703814088365L493.37468283056296 421.4628055902376L497.78484836280404 424.7855330460352L497.78484836280404 427.0006846832339L500 430.30327439687517L500 434.73357767127254L502.2151516371996 438.0563051270692L508.86060654879475 441.3790325828668L508.86060654879475 444.70176003866527L513.2909098231903 446.89677393370675L513.2909098231903 451.32707720810413L515.4859237182318 449.11192557090544L519.916226992631 452.434653026703L526.5616819042261 453.5422288453028L528.7768335414221 452.434653026703L533.1869990736632 453.5422288453028L539.8324539852583 450.21950138950433L539.8324539852583 452.434653026703L537.6173023480624 455.7573804825006L539.8324539852583 459.08010793829817L548.672922791895 455.7573804825006L553.1032260662942 457.9725321196993L550.8880744290982 462.38269765194036L553.1032260662942 464.59784928913814L553.1032260662942 469.0281525635346L553.1032260662942 474.56603165653087L555.3183777034901 475.67360747513067L555.3183777034901 478.97619718877195L542.0476056224579 487.8368037375658L539.8324539852583 492.26710701196225L542.0476056224579 493.37468283056205L544.2627572596575 492.26710701196225L548.672922791895 495.56969672560354L537.6173023480624 502.2151516371987L544.2627572596575 512.163196262436L542.0476056224579 515.4859237182336L544.2627572596575 516.5934995368325L544.2627572596575 524.3465302670265L537.6173023480624 523.2389544484276L533.1869990736632 525.4541060856263L530.9718474364672 530.9718474364654L530.9718474364672 535.4021507108628L526.5616819042261 539.8324539852592L522.1313786298269 540.940029803859L511.0757581859907 547.5653469732979L506.64545491159515 547.5653469732979L504.4303032743992 544.2426195175003L500 544.2426195175003L497.78484836280404 545.3501953360992L497.78484836280404 548.6729227918968L495.5898344677589 554.210801884893L493.37468283056296 551.9956502476953L486.7292279189678 550.8880744290955L482.2989246445686 553.1032260662942L482.2989246445686 549.7804986104957L480.10391074952713 549.7804986104957L477.88875911232753 548.6729227918968L475.6736074751316 554.210801884893L469.0281525635328 551.9956502476953L466.8130009263368 548.6729227918968L462.40283539409575 545.3501953360992L460.1876837568998 542.0476056224579L457.97253211969655 534.2945748922639L460.1876837568998 532.0794232550652L455.7573804825006 533.1869990736641L451.32707720810504 529.8642716178665L449.11192557090544 533.1869990736641L451.32707720810504 539.8324539852592L449.11192557090544 546.457771154699L446.91691167586396 547.5653469732979L438.05630512707285 557.5335293406906L438.05630512707285 558.6209674171332L440.2714567642688 560.8361190543319L438.05630512707285 563.0512706915306L433.62600185267365 563.0512706915306L431.43098795762853 565.2664223287293L427.000684683233 563.0512706915306L424.7855330460334 566.3739981473282L422.5703814088374 567.481573965927L415.94506423939674 565.2664223287293L415.94506423939674 561.9436948729317L404.86930605340604 568.5891497845269L393.8136856095698 560.8361190543319L389.38338233517425 563.0512706915306L380.5429135285376 560.8361190543319L380.5429135285376 563.0512706915306L376.1126102541384 569.6967256031257L371.6823069797392 571.9118772403235L371.6823069797392 576.3220427725646L367.2721414475018 577.4296185911635L360.62668653590663 582.9674976841598L358.41153489870703 589.6129525957549L353.9812316243115 594.023118127996L349.5710660920704 591.8079664907973L347.35591445487444 592.9155423093971L347.35591445487444 595.1306939465949L351.7660799871155 599.5609972209913L349.5710660920704 602.8837246767898L345.1407628176712 601.7761488581909L345.1407628176712 603.9913004953887L340.71045954327565 607.29389020903L338.49530790607605 613.9393451206251L331.869990736639 613.9393451206251L329.6548390994394 611.7241934834274L325.22453582504386 611.7241934834274L323.00938418784426 615.046920939225L311.95376374400803 616.1544967578238L309.73861210681207 613.9393451206251L305.3083088324129 613.9393451206251L303.1132949373714 608.4014660276289L298.68299166297584 608.4014660276289L296.46784002577624 609.5090418462287L296.46784002577624 603.9913004953887L298.68299166297584 597.3458455837936L294.2526883885803 595.1306939465949L294.2526883885803 592.9155423093971L289.8223851141811 592.9155423093971L287.60723347698513 590.7003906721984L289.8223851141811 578.5371944097633L289.8223851141811 571.9118772403235L292.0375367513807 570.8043014217255L289.8223851141811 567.481573965927L280.98191630754445 569.6967256031257L274.3364613959493 563.0512706915306L272.1213097587497 563.0512706915306L265.49599258931266 568.5891497845269L263.28084095211307 567.481573965927L261.0656893149171 564.1588465101295L263.28084095211307 559.728543235733L261.0656893149171 559.728543235733L261.0656893149171 557.5335293406906L265.49599258931266 555.3183777034919L263.28084095211307 553.1032260662942L265.49599258931266 549.7804986104957L258.8505376777139 551.9956502476953L258.8505376777139 547.5653469732979L261.0656893149171 545.3501953360992L263.28084095211307 547.5653469732979L263.28084095211307 545.3501953360992L261.0656893149171 543.1350436989014L265.49599258931266 543.1350436989014L265.49599258931266 540.940029803859L263.28084095211307 538.7248781666603L256.6353860405179 525.4541060856263L261.0656893149171 525.4541060856263L263.28084095211307 523.2389544484276L261.0656893149171 516.5934995368325L261.0656893149171 512.163196262436L263.28084095211307 515.4859237182336L263.28084095211307 508.86060654879384L261.0656893149171 502.2151516371987L256.6353860405179 501.1075758185998L256.6353860405179 497.7848483628022L250.01006887108088 495.56969672560354L250.01006887108088 492.26710701196225L247.79491723388128 491.15953119336245L247.79491723388128 488.9443795561647L245.57976559668168 486.729227918966L245.57976559668168 482.2989246445695L243.36461395948209 481.1913488259697L243.36461395948209 475.67360747513067L247.79491723388128 470.1357283821344Z" stroke="#FFFFFF" stroke-opacity="0.75" stroke-width="1" stroke-linecap="round" stroke-linejoin="round" fill="#D3D3D3"/>
		<path name="衢州市" d="M64.15884651013039 423.6779572274363L66.37399814732998 428.1082605018328L68.58914978452594 429.1956985782763L73.01945305892514 434.73357767127254L77.42961859116622 434.73357767127254L77.42961859116622 438.0563051270692L79.64477022836218 439.163880945669L79.64477022836218 441.3790325828668L88.50537677715693 446.89677393370675L92.915542309398 445.78919811510787L99.56099722099316 446.89677393370675L99.56099722099316 450.21950138950433L115.04692093922495 453.5422288453028L123.9075274880197 465.705425107737L123.9075274880197 466.8130009263368L117.26207257642454 463.49027347053834L117.26207257642454 465.705425107737L119.4772242136205 469.0281525635346L117.26207257642454 472.3508800193322L119.4772242136205 475.67360747513067L121.6923758508201 476.78118329372955L121.6923758508201 481.1913488259697L132.74799629465633 478.97619718877195L139.39345120625148 481.1913488259697L143.80361673849256 476.78118329372955L148.23392001289176 475.67360747513067L148.23392001289176 469.0281525635346L150.44907165008772 469.0281525635346L159.28954045672435 463.49027347053834L161.50469209392395 463.49027347053834L170.3652986427187 454.6498046639008L172.58045027991466 454.6498046639008L174.77546417495978 452.434653026703L181.42091908655493 456.8649563011004L188.06637399814645 460.18768375689706L185.8512223609505 463.49027347053834L192.47653953038753 467.9205767449357L192.47653953038753 473.458455837932L196.90684280478672 476.78118329372955L212.3927665230185 473.458455837932L216.82306979741406 473.458455837932L221.25337307180962 472.3508800193322L221.25337307180962 474.56603165653087L225.6635386040507 473.458455837932L234.5241451528491 477.86862137017215L234.5241451528491 475.67360747513067L234.5241451528491 473.458455837932L238.93431068508653 474.56603165653087L238.93431068508653 470.1357283821344L234.5241451528491 467.9205767449357L236.73929679004505 464.59784928913814L236.73929679004505 461.27512183334056L241.14946232228613 462.38269765194036L243.36461395948209 466.8130009263368L247.79491723388128 470.1357283821344L243.36461395948209 475.67360747513067L243.36461395948209 481.1913488259697L245.57976559668168 482.2989246445695L245.57976559668168 486.729227918966L247.79491723388128 488.9443795561647L247.79491723388128 491.15953119336245L250.01006887108088 492.26710701196225L250.01006887108088 495.56969672560354L256.6353860405179 497.7848483628022L256.6353860405179 501.1075758185998L261.0656893149171 502.2151516371987L263.28084095211307 508.86060654879384L263.28084095211307 515.4859237182336L261.0656893149171 512.163196262436L261.0656893149171 516.5934995368325L263.28084095211307 523.2389544484276L261.0656893149171 525.4541060856263L256.6353860405179 525.4541060856263L263.28084095211307 538.7248781666603L265.49599258931266 540.940029803859L265.49599258931266 543.1350436989014L261.0656893149171 543.1350436989014L263.28084095211307 545.3501953360992L263.28084095211307 547.5653469732979L261.0656893149171 545.3501953360992L258.8505376777139 547.5653469732979L258.8505376777139 551.9956502476953L265.49599258931266 549.7804986104957L263.28084095211307 553.1032260662942L265.49599258931266 555.3183777034919L261.0656893149171 557.5335293406906L261.0656893149171 559.728543235733L258.8505376777139 557.5335293406906L256.6353860405179 558.6209674171332L252.22522050827683 558.6209674171332L250.01006887108088 563.0512706915306L245.57976559668168 567.481573965927L234.5241451528491 566.3739981473282L230.0938418784499 570.8043014217255L223.44838696685474 573.0194530589233L216.82306979741406 571.9118772403235L214.6079181602181 573.0194530589233L212.3927665230185 571.9118772403235L207.96246324862295 573.0194530589233L203.55229771638187 577.4296185911635L196.90684280478672 580.7523460469611L188.06637399814645 591.8079664907973L185.8512223609505 590.7003906721984L181.42091908655493 591.8079664907973L176.99061581215574 601.7761488581909L176.99061581215574 605.0988763139885L179.20576744935533 607.29389020903L172.58045027991466 615.046920939225L168.15014700551546 616.1544967578238L165.9349953683195 611.7241934834274L159.28954045672435 610.6166176648285L152.66422328728368 615.046920939225L150.44907165008772 617.2620725764227L146.01876837568852 615.046920939225L141.58846510129297 620.5848000322212L141.58846510129297 630.5328446574567L139.39345120625148 638.2858753876526L146.01876837568852 637.1782995690528L148.23392001289176 639.3733134640943L143.80361673849256 646.0187683756903L143.80361673849256 648.2339200128881L141.58846510129297 652.6642232872855L134.9631479318523 655.9668130009268L134.9631479318523 658.1819646381246L130.53284465745674 665.9349953683195L126.10254138306118 664.8274195497206L119.4772242136205 669.257722824118L115.04692093922495 669.257722824118L115.04692093922495 665.9349953683195L112.83176930202535 663.7198437311208L103.99130049538871 663.7198437311208L103.99130049538871 665.9349953683195L101.77614885818912 667.0425711869184L97.34584558379356 667.0425711869184L95.1306939465976 664.8274195497206L92.915542309398 665.9349953683195L92.915542309398 668.1501470055182L95.1306939465976 670.3652986427169L92.915542309398 672.5603125377584L84.07507350276137 670.3652986427169L86.29022513995733 669.257722824118L81.85992186555814 665.9349953683195L81.85992186555814 662.6122679125219L88.50537677715693 660.3971162753242L92.915542309398 653.7717991058844L88.50537677715693 651.5566474686866L81.85992186555814 639.3733134640943L86.29022513995733 634.9631479318541L90.72052841435652 624.9949655644614L86.29022513995733 623.8873897458625L84.07507350276137 621.6923758508201L77.42961859116622 620.5848000322212L84.07507350276137 618.3696483950225L84.07507350276137 616.1544967578238L81.85992186555814 616.1544967578238L79.64477022836218 610.6166176648285L77.42961859116622 606.2064521325874L79.64477022836218 601.7761488581909L77.42961859116622 598.4534214023925L81.85992186555814 595.1306939465949L79.64477022836218 590.7003906721984L81.85992186555814 586.2902251399573L81.85992186555814 584.0750735027596L79.64477022836218 584.0750735027596L75.2346046961211 579.6447702283631L75.2346046961211 576.3220427725646L70.80430142172554 563.0512706915306L68.58914978452594 557.5335293406906L59.74868097788931 555.3183777034919L55.318377703490114 555.3183777034919L55.318377703490114 554.210801884893L55.318377703490114 547.5653469732979L48.67292279189496 535.4021507108628L46.457771154699 535.4021507108628L33.18699907366317 538.7248781666603L35.40215071086277 536.5097265294617L39.832453985258326 530.9718474364654L35.40215071086277 528.7566957992676L28.756695799267618 522.1313786298279L22.13137862982694 522.1313786298279L19.916226992630982 521.0238028112299L15.485923718231788 521.0238028112299L11.075758185994346 513.270772081034L8.860606548794749 512.163196262436L8.860606548794749 504.4303032743974L2.2151516371995967 500L4.4303032743991935 496.6772725442024L2.2151516371995967 493.37468283056205L4.4303032743991935 487.8368037375658L0 485.6216521003671L4.4303032743991935 476.78118329372955L8.860606548794749 475.67360747513067L11.075758185994346 472.3508800193322L11.075758185994346 461.27512183334056L15.485923718231788 462.38269765194036L17.701075355431385 460.18768375689706L22.13137862982694 462.38269765194036L30.971847436467215 459.08010793829817L28.756695799267618 456.8649563011004L35.40215071086277 450.21950138950433L37.61730234806237 443.5941842200655L33.18699907366317 440.2714567642679L35.40215071086277 440.2714567642679L37.61730234806237 435.84115348987143L44.242619517499406 432.51842603407295L53.103226066294155 433.62600185267274L53.103226066294155 434.73357767127254L57.53352934069335 434.73357767127254L57.53352934069335 429.1956985782763L57.53352934069335 420.35522977163873L59.74868097788931 419.24765395303893L64.15884651013039 423.6779572274363Z" stroke="#FFFFFF" stroke-opacity="0.75" stroke-width="1" stroke-linecap="round" stroke-linejoin="round" fill="#D3D3D3"/>
		<path name="绍兴市" d="M420.3552297716378 349.5509283499141L427.000684683233 344.03318699907413L427.000684683233 337.38773208747807L435.8411534898696 335.1725804502803L440.2714567642688 330.7624149180401L442.48660840146476 329.6548390994403L446.91691167586396 330.7624149180401L449.11192557090544 329.6548390994403L451.32707720810504 332.9574288130816L453.542228845301 334.0650046316814L455.7573804825006 330.7624149180401L460.1876837568998 332.9574288130816L462.40283539409575 331.8498529944827L466.8130009263368 324.11696000644406L471.243304200736 323.00938418784517L469.0281525635328 315.2764911998065L466.8130009263368 310.84618792541005L464.6179870312917 310.84618792541005L462.40283539409575 308.6310362882123L464.6179870312917 306.4158846510136L464.6179870312917 298.6829916629749L460.1876837568998 296.46784002577624L457.97253211969655 298.6829916629749L455.7573804825006 297.57541584437604L460.1876837568998 290.9299609327809L462.40283539409575 293.14511256997866L466.8130009263368 289.822385114182L469.0281525635328 289.822385114182L469.0281525635328 287.6072334769824L475.6736074751316 286.4996576583844L477.88875911232753 290.9299609327809L480.10391074952713 290.9299609327809L480.10391074952713 288.7148092955822L484.5140762817682 292.0375367513798L486.7292279189678 290.9299609327809L488.94437955616377 288.7148092955822L491.15953119336336 287.6072334769824L491.15953119336336 284.2845060211848L497.78484836280404 284.2845060211848L500 286.4996576583844L506.64545491159515 286.4996576583844L511.0757581859907 288.7148092955822L519.916226992631 287.6072334769824L526.5616819042261 274.3364613959484L533.1869990736632 271.0137339401508L542.0476056224579 261.0656893149144L568.589149784526 268.79858230295304L575.2346046961211 267.69100648435324L584.0750735027614 284.2845060211848L586.2902251399573 293.14511256997866L584.0750735027614 295.36026420717826L588.5053767771569 299.77042973941843L592.9356800515525 299.77042973941843L592.9356800515525 304.2007330138149L597.3458455837936 307.5234604696125L597.3458455837936 313.06133956260874L606.2064521325883 315.2764911998065L608.4216037697843 317.4715050948498L608.4216037697843 316.36392927625L610.6166176648294 317.4715050948498L612.8317693020254 317.4715050948498L617.2620725764245 320.7942325506465L612.8317693020254 326.33211164364275L608.4216037697843 327.43968746224255L606.2064521325883 332.9574288130816L601.7761488581891 339.60288372467767L606.2064521325883 344.03318699907413L610.6166176648294 347.3559144548717L612.8317693020254 346.2483386362719L619.4772242136205 350.658504168513L617.2620725764245 355.08880744290946L619.4772242136205 357.30395908010814L615.046920939225 361.7342623545055L610.6166176648294 362.8418381731044L608.4216037697843 366.1444278867457L603.9913004953887 366.1444278867457L606.2064521325883 370.57473116114306L603.9913004953887 372.78988279834084L606.2064521325883 375.0050344355395L599.5609972209932 377.2201860727382L601.7761488581891 380.5227757863795L597.3458455837936 381.6303516049784L597.3458455837936 383.8455032421771L603.9913004953887 384.95307906077596L610.6166176648294 381.6303516049784L615.046920939225 386.06065487937576L612.8317693020254 391.5985339723711L619.4772242136205 393.8136856095698L619.4772242136205 400.43900277900866L619.4772242136205 402.65415441620735L621.6923758508201 408.1920335092036L626.1226791252157 408.1920335092036L628.3176930202571 410.4071851464014L643.8036167384926 412.6021990414438L646.0187683756885 415.92492649724136L641.6086028434474 427.0006846832339L643.8036167384926 429.1956985782763L641.6086028434474 431.41085021547406L641.6086028434474 435.84115348987143L646.0187683756885 436.9487293084703L646.0187683756885 445.78919811510787L637.1782995690555 451.32707720810413L639.3934512062515 453.5422288453028L632.7479962946563 454.6498046639008L630.5328446574567 451.32707720810413L628.3176930202571 452.434653026703L623.9075274880197 451.32707720810413L621.6923758508201 452.434653026703L623.9075274880197 456.8649563011004L621.6923758508201 459.08010793829817L617.2620725764245 456.8649563011004L619.4772242136205 455.7573804825006L610.6166176648294 454.6498046639008L603.9913004953887 457.9725321196993L599.5609972209932 454.6498046639008L597.3458455837936 456.8649563011004L592.9356800515525 457.9725321196993L590.7205284143565 462.38269765194036L581.8599218655581 457.9725321196993L579.6447702283622 460.18768375689706L579.6447702283622 463.49027347053834L577.4497563333207 465.705425107737L579.6447702283622 471.2433042007333L575.2346046961211 471.2433042007333L568.589149784526 469.0281525635346L564.1588465101304 472.3508800193322L559.7486809778893 472.3508800193322L553.1032260662942 474.56603165653087L553.1032260662942 469.0281525635346L553.1032260662942 464.59784928913814L550.8880744290982 462.38269765194036L553.1032260662942 457.9725321196993L548.672922791895 455.7573804825006L539.8324539852583 459.08010793829817L537.6173023480624 455.7573804825006L539.8324539852583 452.434653026703L539.8324539852583 450.21950138950433L533.1869990736632 453.5422288453028L528.7768335414221 452.434653026703L526.5616819042261 453.5422288453028L519.916226992631 452.434653026703L515.4859237182318 449.11192557090544L513.2909098231903 451.32707720810413L513.2909098231903 446.89677393370675L508.86060654879475 444.70176003866527L508.86060654879475 441.3790325828668L502.2151516371996 438.0563051270692L500 434.73357767127254L500 430.30327439687517L497.78484836280404 427.0006846832339L497.78484836280404 424.7855330460352L493.37468283056296 421.4628055902376L484.5140762817682 422.5703814088365L480.10391074952713 428.1082605018328L475.6736074751316 428.1082605018328L471.243304200736 430.30327439687517L473.458455837932 435.84115348987143L464.6179870312917 438.0563051270692L462.40283539409575 442.4866084014666L460.1876837568998 443.5941842200655L457.97253211969655 448.00434975230655L457.97253211969655 449.11192557090544L451.32707720810504 445.78919811510787L451.32707720810504 441.3790325828668L453.542228845301 431.41085021547406L449.11192557090544 427.0006846832339L451.32707720810504 420.35522977163873L440.2714567642688 413.70977486004267L438.05630512707285 409.2996093278025L435.8411534898696 410.4071851464014L431.43098795762853 415.92492649724136L424.7855330460334 417.03250231584116L422.5703814088374 420.35522977163873L413.7299126022008 417.03250231584116L415.94506423939674 414.81735067864247L413.7299126022008 411.5147609650012L407.08445769060563 409.2996093278025L409.2996093278016 407.0844576906038L404.86930605340604 403.76173023480715L398.24398888396536 403.76173023480715L400.4390027790105 398.2238511418109L407.08445769060563 392.7061097909709L402.65415441620644 390.4909581537722L404.86930605340604 388.27580651657354L404.86930605340604 384.95307906077596L402.65415441620644 384.95307906077596L402.65415441620644 388.27580651657354L400.4390027790105 388.27580651657354L396.0288372467694 387.16823069797465L391.5985339723702 383.8455032421771L391.5985339723702 379.435337709936L384.9530790607787 377.2201860727382L382.75806516573357 378.3277618913371L384.9530790607787 379.435337709936L380.5429135285376 378.3277618913371L380.5429135285376 375.0050344355395L378.327761891338 372.78988279834084L378.327761891338 369.46715534254326L376.1126102541384 367.2520037053455L376.1126102541384 366.1444278867457L382.75806516573357 369.46715534254326L391.5985339723702 365.0368520681468L396.0288372467694 367.2520037053455L398.24398888396536 367.2520037053455L402.65415441620644 363.9494139917033L404.86930605340604 360.6266865359057L402.65415441620644 356.19638326150925L404.86930605340604 353.9812316243115L413.7299126022008 352.8736558057117L415.94506423939674 355.08880744290946L420.3552297716378 349.5509283499141Z" stroke="#FFFFFF" stroke-opacity="0.75" stroke-width="1" stroke-linecap="round" stroke-linejoin="round" fill="#D3D3D3"/>
		<path name="嘉兴市" d="M466.8130009263368 188.04623625599197L466.8130009263368 184.74364654234978L471.243304200736 185.85122236094958L473.458455837932 185.85122236094958L473.458455837932 183.6360707237509L488.94437955616377 181.4209190865522L486.7292279189678 176.99061581215574L491.15953119336336 176.99061581215574L495.5898344677589 170.3451609005606L491.15953119336336 163.71984373112173L495.5898344677589 164.82741954972062L500 165.9349953683195L511.0757581859907 150.4490716500868L515.4859237182318 147.12634419429014L526.5616819042261 146.01876837569034L528.7768335414221 147.12634419429014L530.9718474364672 143.80361673849166L535.4021507108628 140.48088928269408L537.6173023480624 143.80361673849166L539.8324539852583 142.69604091989277L537.6173023480624 140.48088928269408L542.0476056224579 140.48088928269408L539.8324539852583 130.53284465745764L539.8324539852583 128.31769302025896L535.4021507108628 126.10254138306027L537.6173023480624 122.7798139272627L544.2627572596575 122.7798139272627L546.457771154699 123.88738974586249L553.1032260662942 120.58480003222121L553.1032260662942 117.26207257642272L557.5335293406933 116.15449675782384L561.9638326150889 115.04692093922495L568.589149784526 118.36964839502252L570.8043014217255 118.36964839502252L577.4497563333207 116.15449675782384L579.6447702283622 112.83176930202626L579.6447702283622 115.04692093922495L586.2902251399573 115.04692093922495L588.5053767771569 110.61661766482848L590.7205284143565 113.93934512062606L597.3458455837936 113.93934512062606L597.3458455837936 118.36964839502252L599.5609972209932 121.6722381086638L597.3458455837936 122.7798139272627L599.5609972209932 134.9631479318541L597.3458455837936 138.2657376454963L601.7761488581891 140.48088928269408L603.9913004953887 142.69604091989277L597.3458455837936 149.34149583148792L597.3458455837936 152.6642232872855L601.7761488581891 149.34149583148792L608.4216037697843 153.7516613637281L608.4216037697843 151.5566474686866L612.8317693020254 147.12634419429014L617.2620725764245 146.01876837569034L619.4772242136205 147.12634419429014L623.9075274880197 147.12634419429014L623.9075274880197 149.34149583148792L626.1226791252157 150.4490716500868L623.9075274880197 155.96681300092678L623.9075274880197 161.50469209392304L634.9631479318523 162.61226791252193L637.1782995690555 160.39711627532415L639.3934512062515 162.61226791252193L639.3934512062515 160.39711627532415L641.6086028434474 160.39711627532415L646.0187683756885 165.9349953683195L652.6642232872837 170.3451609005606L652.6642232872837 175.88303999355594L654.8793749244833 180.31334326795331L692.4765395303875 183.6360707237509L701.3371460791823 182.528494905152L707.962463248623 181.4209190865522L703.5522977163819 266.60356840791064L668.1501470055155 233.41656933424656L659.2895404567244 228.98626605984919L650.4490716500877 227.8786902412512L634.9631479318523 230.09384187844898L630.5328446574567 232.30899351564767L619.4772242136205 238.93431068508653L595.130693946594 257.7429618591168L575.2346046961211 267.69100648435324L568.589149784526 268.79858230295304L542.0476056224579 261.0656893149144L539.8324539852583 256.635386040517L530.9718474364672 240.04188650368542L526.5616819042261 237.82673486648673L491.15953119336336 240.04188650368542L480.10391074952713 253.31265858472034L475.6736074751316 248.90249305247926L477.88875911232753 243.364613959483L477.88875911232753 241.14946232228522L466.8130009263368 244.4721897780828L460.1876837568998 238.93431068508653L466.8130009263368 231.20141769704878L466.8130009263368 224.55596278545272L466.8130009263368 223.44838696685383L464.6179870312917 223.44838696685383L462.40283539409575 213.5003423416174L457.97253211969655 213.5003423416174L457.97253211969655 204.63973579282356L462.40283539409575 202.42458415562487L457.97253211969655 198.0144186233838L457.97253211969655 195.799266986186L464.6179870312917 194.69169116758712L466.8130009263368 188.04623625599197Z" stroke="#FFFFFF" stroke-opacity="0.75" stroke-width="1" stroke-linecap="round" stroke-linejoin="round" fill="#D3D3D3"/>
		<path name="湖州市" d="M495.5898344677589 164.82741954972062L491.15953119336336 163.71984373112173L495.5898344677589 170.3451609005606L491.15953119336336 176.99061581215574L486.7292279189678 176.99061581215574L488.94437955616377 181.4209190865522L473.458455837932 183.6360707237509L473.458455837932 185.85122236094958L471.243304200736 185.85122236094958L466.8130009263368 184.74364654234978L466.8130009263368 188.04623625599197L464.6179870312917 194.69169116758712L457.97253211969655 195.799266986186L457.97253211969655 198.0144186233838L462.40283539409575 202.42458415562487L457.97253211969655 204.63973579282356L457.97253211969655 213.5003423416174L453.542228845301 216.82306979741497L438.05630512707285 215.71549397881518L438.05630512707285 214.6079181602163L435.8411534898696 216.82306979741497L433.62600185267365 217.93064561601386L431.43098795762853 223.44838696685383L429.2158363204326 224.55596278545272L427.000684683233 223.44838696685383L427.000684683233 221.23323532965514L420.3552297716378 222.34081114825494L418.14007813444186 220.12565951105535L418.14007813444186 217.93064561601386L413.7299126022008 217.93064561601386L411.5147609650012 219.01808369245737L409.2996093278016 223.44838696685383L411.5147609650012 227.8786902412512L411.5147609650012 232.30899351564767L407.08445769060563 232.30899351564767L393.8136856095698 227.8786902412512L389.38338233517425 231.20141769704878L387.16823069797465 228.98626605984919L382.75806516573357 227.8786902412512L382.75806516573357 225.66353860405252L376.1126102541384 226.7711144226514L371.6823069797392 225.66353860405252L373.89745861694246 222.34081114825494L371.6823069797392 222.34081114825494L367.2721414475018 217.93064561601386L365.0569898103022 217.93064561601386L349.5710660920704 214.6079181602163L351.7660799871155 206.85488743002134L342.92561118047524 206.85488743002134L338.49530790607605 204.63973579282356L336.2801562688801 205.74731161142336L338.49530790607605 214.6079181602163L338.49530790607605 220.12565951105535L336.2801562688801 224.55596278545272L338.49530790607605 231.20141769704878L329.6548390994394 237.82673486648673L325.22453582504386 238.93431068508653L323.00938418784426 237.82673486648673L323.00938418784426 233.41656933424656L325.22453582504386 231.20141769704878L325.22453582504386 230.09384187844898L316.3840670184072 233.41656933424656L311.95376374400803 232.30899351564767L309.73861210681207 228.98626605984919L307.5234604696125 230.09384187844898L303.1132949373714 233.41656933424656L303.1132949373714 235.61158322928895L298.68299166297584 236.71915904788875L294.2526883885803 235.61158322928895L287.60723347698513 236.71915904788875L283.19706794474405 241.14946232228522L276.5516130331489 243.364613959483L274.3364613959493 241.14946232228522L269.9262958637082 241.14946232228522L269.9262958637082 236.71915904788875L265.49599258931266 235.61158322928895L267.71114422651226 232.30899351564767L265.49599258931266 230.09384187844898L263.28084095211307 227.8786902412512L263.28084095211307 220.12565951105535L263.28084095211307 215.71549397881518L261.0656893149171 211.2851907044187L252.22522050827683 215.71549397881518L247.79491723388128 211.2851907044187L245.57976559668168 211.2851907044187L243.36461395948209 207.96246324862113L250.01006887108088 201.33714607918228L243.36461395948209 195.799266986186L245.57976559668168 193.58411534898732L254.4403721454728 194.69169116758712L258.8505376777139 192.47653953038844L265.49599258931266 184.74364654234978L274.3364613959493 180.31334326795331L278.76676467034486 188.04623625599197L285.41221958194 188.04623625599197L285.41221958194 183.6360707237509L294.2526883885803 176.99061581215574L292.0375367513807 162.61226791252193L300.89814330017543 162.61226791252193L307.5234604696125 151.5566474686866L311.95376374400803 151.5566474686866L311.95376374400803 146.01876837569034L307.5234604696125 142.69604091989277L307.5234604696125 136.0707237504539L309.73861210681207 132.74799629465633L314.1689153812076 130.53284465745764L314.1689153812076 121.6722381086638L323.00938418784426 115.04692093922495L323.00938418784426 111.72419348342737L323.00938418784426 108.4014660276298L323.00938418784426 107.29389020903L323.00938418784426 106.18631439043111L323.00938418784426 100.66857303959114L323.00938418784426 97.34584558379356L327.43968746224346 95.13069394659487L323.00938418784426 90.70039067219841L325.22453582504386 87.39780095855713L329.6548390994394 82.96749768416066L331.869990736639 82.96749768416066L338.49530790607605 86.29022513995733L340.71045954327565 82.96749768416066L351.7660799871155 80.75234604696107L356.19638326150744 82.96749768416066L356.19638326150744 85.18264932135844L362.8418381731062 81.85992186556086L373.89745861694246 84.07507350275955L380.5429135285376 82.96749768416066L382.75806516573357 85.18264932135844L384.9530790607787 87.39780095855713L387.16823069797465 96.23826976519467L393.8136856095698 105.09887631398851L396.0288372467694 110.61661766482848L409.2996093278016 116.15449675782384L424.7855330460334 128.31769302025896L449.11192557090544 131.64042047605653L471.243304200736 127.21011720166007L469.0281525635328 134.9631479318541L471.243304200736 140.48088928269408L482.2989246445686 138.2657376454963L482.2989246445686 136.0707237504539L482.2989246445686 131.64042047605653L484.5140762817682 133.85557211325522L484.5140762817682 139.37331346409428L488.94437955616377 142.69604091989277L486.7292279189678 144.91119255709054L488.94437955616377 149.34149583148792L488.94437955616377 153.7516613637281L493.37468283056296 155.96681300092678L495.5898344677589 164.82741954972062Z" stroke="#FFFFFF" stroke-opacity="0.75" stroke-width="1" stroke-linecap="round" stroke-linejoin="round" fill="#D3D3D3"/>
	</g>
</svg>