<?xml version="1.0" encoding="UTF-8" standalone="no"?><!-- Generator: Adobe Illustrator 18.0.0, SVG Export Plug-In . SVG Version: 6.00 Build 0)  --><svg xmlns="http://www.w3.org/2000/svg" xmlns:xlink="http://www.w3.org/1999/xlink" contentScriptType="text/ecmascript" zoomAndPan="magnify" contentStyleType="text/css" id="图层_1" mapName="澳门特别行政区" mapType="省市地图" enable-background="new 0 0 1000 1200" version="1.1" xml:space="preserve" preserveAspectRatio="xMidYMid meet" viewBox="0 0 1000 1200" x="0px" y="0px">
	<g>
		<path name="澳门" d="M542.6657256284961 500.3526127409714L636.4598046562169 520.0987355539983L676.6572584334062 520.0987355539983L676.6572584334062 560.296197994845L656.9111442855792 588.1523315119557L623.0606505102478 608.2510627323936L582.8631880694302 608.2510627323936L556.7700965893455 686.5303285045375L620.9449913991848 708.0394933545904L663.2581129510654 723.2016982047062L710.5077522087377 703.102966985025L710.5077522087377 716.502121130994L683.7094525804278 742.9478123520967L726.0225654657697 770.0987377200217L779.6191820545355 769.7461206470034L785.9661507201381 790.5500773478707L793.0183362005046 810.6487999024102L793.0183362005046 831.1001481976127L779.6191820545355 837.7997252705973L759.1678424262209 844.4992936777126L706.2764426517533 815.5853349400859L710.5077522087377 865.303250380297L676.6572584334062 878.7024045277503L649.8589588050963 872.0028274532815L613.1875891039381 844.1466852703015L612.4823722891742 895.9802598223032L599.7884349559899 937.235547485383L609.6614963642787 979.9012687795912L582.8631880694302 986.6008458525466L532.0874474054435 949.9294848180143L487.65867540915497 979.9012687795912L481.31170674355235 993.3004229270155L460.86036711419 1000L440.4090274863411 1000L413.61071919149254 979.9012687795912L391.0437204535119 931.5937956346315L427.00987333990633 923.131176524621L401.6219986747019 693.582513984933L400.91678185982164 692.877297170111L330.3949183843797 623.765867324284L314.1748883125838 591.3258158442623L314.1748883125838 590.6205903638038L333.2157943092752 516.2200344051525L393.8645963794552 506.34697299913387L407.2637505258899 493.65303566650255L493.30041859427 476.02257196453866L542.6657256284961 500.3526127409714Z  M501.05782955512404 80.39492488148971L516.5726341484115 114.59802706417395L527.150912369485 149.1537376557535L481.31170674355235 141.74894376646262L454.51339844963513 162.20028339431155L460.86036711419 182.29901461547706L474.2595212631859 188.9985916891892L529.9717882943805 158.6741906538664L501.05782955512404 209.0973229103838L501.05782955512404 215.79689998336835L487.65867540915497 202.39774583591498L474.2595212631859 215.79689998336835L481.31170674355235 230.2538793530257L481.31170674355235 250.3526105734636L481.31170674355235 257.05218764790334L481.31170674355235 270.4513417938724L454.51339844963513 283.49788753391476L407.2637505258899 316.99577290180605L380.4654422310414 330.3949270492594L346.6149484552443 330.3949270492594L319.81664016330615 364.59802923194366L285.2609295732109 364.59802923194366L249.99999350018334 406.9111421169946L249.2947766854195 407.6163589335338L206.98166379961185 321.22708245704416L206.98166379961185 320.87447404966224L209.80253972450737 311.00141264364356L226.72778661409393 262.3413310912729L249.99999350018334 240.12694075904437L254.93652853858657 235.1904057233478L297.9548669042997 166.78420135795022L340.2679797896417 114.59802706417395L326.8688256436726 86.74189354878035L312.7644546799129 86.74189354878035L319.81664016330615 100.49365610364475L271.8617754243314 114.59802706417395L245.76868394715711 71.22708029026398L285.2609295732109 59.94358525390271L285.2609295732109 53.24400818091817L340.2679797896417 53.24400818091817L350.8462580126943 32.08744307089364L372.0028144539101 0L420.6629046743037 26.79830829342245L420.6629046743037 40.197462440875825L474.2595212631859 59.94358525390271L501.05782955512404 80.39492488148971Z" stroke="#FFFFFF" stroke-opacity="0.75" stroke-width="1" stroke-linecap="round" stroke-linejoin="round" fill="#D3D3D3"/>
	</g>
</svg>