<?xml version="1.0" encoding="UTF-8" standalone="no"?><!-- Generator: Adobe Illustrator 18.0.0, SVG Export Plug-In . SVG Version: 6.00 Build 0)  --><svg xmlns="http://www.w3.org/2000/svg" xmlns:xlink="http://www.w3.org/1999/xlink" contentScriptType="text/ecmascript" zoomAndPan="magnify" contentStyleType="text/css" id="图层_1" mapName="甘肃省" mapType="省市地图" enable-background="new 0 0 1000 1000" version="1.1" xml:space="preserve" preserveAspectRatio="xMidYMid meet" viewBox="0 0 1000 1000" x="0px" y="0px">
	<g>
		<path name="酒泉市" d="M438.34036945752723 367.62427096805686L434.32001756997397 366.28212011030064L430.29356499670575 367.2887332536179L424.2660875082356 367.2887332536179L422.25286122160196 367.95980868249626L418.9035847629275 370.97354742673133L416.21928304741505 371.6446228556092L406.83642841455367 369.6374972546919L404.8293028136368 372.6512359989265L402.1450010981225 373.32231142780483L401.47392566924464 379.02035188755235L400.80285024036675 379.6914273164307L397.4535737816932 379.35588960199175L396.1114229239365 380.69193977403074L395.4403474950577 382.36962834622636L397.4535737816932 384.047316918422L402.1450010981225 384.3828546328614L408.17857927230943 382.7051660606653L414.21215744649635 389.07428194929116L420.2396349349665 392.4235584079652L422.92393665047985 395.43729715220024L426.9442885380313 396.1083725810786L425.6021376802746 404.82015178506117L422.92393665047985 405.49122721393906L418.9035847629275 409.8471168159308L415.54820761853625 406.1623026428174L412.8700065887406 406.49784035725634L412.1989311598627 404.82015178506117L408.84965470118823 405.49122721393906L406.83642841455367 401.1353376119482L396.7824983528153 399.1282120110304L392.09107103638416 396.77944800995647L388.0707191488318 393.4301715512829L386.05749286219725 393.76570926572185L381.366065545767 392.4235584079652L374.6675126284199 389.07428194929116L370.64716074086755 389.7453573781695L370.64716074086755 387.396593377096L368.633934454233 387.396593377096L369.30500988311087 386.0544425193398L369.30500988311087 380.3564020595918L371.98321091290654 376.67158788647885L368.633934454233 373.9933868566827L367.9628590253542 372.6512359989265L376.003562800458 369.30195954025294L376.6746382293368 368.96642182581354L376.003562800458 367.62427096805686L377.34571365821466 366.953195539179L378.68786451597134 365.9465823958617L378.01678908709255 364.61053222382225L376.003562800458 363.9394567949439L376.6746382293368 362.26176822274874L375.3385880572978 361.25515507943146L373.3253617706632 362.26176822274874L370.64716074086755 361.25515507943146L365.2846579955585 361.9262305083098L363.27143170892396 360.59018033627035L351.2103760462678 361.25515507943146L350.539300617389 362.26176822274874L347.85499890187657 362.5973059371877L347.1839234729987 363.9394567949439L348.52607433075536 364.61053222382225L345.8478733009588 366.6176578247396L348.52607433075536 369.6374972546919L345.8478733009588 370.97354742673133L343.8346470143242 373.9933868566827L337.8010688401373 375.6649747431611L336.4650186680974 377.00712560091824L334.45179238146284 381.698552917348L318.3642841455385 382.7051660606653L318.3642841455385 386.0544425193398L315.6860831157419 388.7387442348522L315.015007686864 392.08802069352623L318.3642841455385 393.4301715512829L319.03535957441636 395.43729715220024L317.6932087166597 397.78606115327375L318.3642841455385 400.1287244686305L319.70643500329425 400.4642621830694L321.0485858610509 402.47748846970444L313.00178140022945 406.8333780716953L308.9814295126771 411.189267673687L308.3103540837983 411.189267673687L306.9743039117602 409.8471168159308L304.29000219624595 410.5181922448087L297.58534859318115 408.17552892945196L296.24929842114216 408.8466043583303L286.8664437882817 407.5044535005736L286.1953683594029 408.17552892945196L283.51106664389044 408.17552892945196L286.1953683594029 411.52480538812597L284.18214207276833 413.8735693891995L282.83999121501256 417.5583835623129L285.524292930525 419.9010468776696L284.18214207276833 420.5721223065475L284.8532175016471 423.59196173649934L284.18214207276833 423.9274994509383L285.524292930525 424.5924741940994L283.51106664389044 425.93462505185653L282.83999121501256 427.6123136240517L284.8532175016471 429.2900021962473L284.8532175016471 431.29712779716465L284.18214207276833 431.6326655116036L284.8532175016471 432.6392786549209L285.524292930525 435.317479684717L288.2024939603207 436.9951682569126L286.8664437882817 440.6799824300251L290.88679567583404 442.02213328778225L289.54464481807736 443.6998218599774L290.88679567583404 447.04909831865143L284.8532175016471 449.7272993484471L281.50394104297357 449.3917616340077L275.47036286878665 447.04909831865143L274.79928743990877 449.3917616340077L272.79216183899007 449.05622391956877L272.1210864101122 450.06283706288605L273.4571365821521 452.41160106396L272.1210864101122 453.4182142072773L268.76570926572185 452.74713877839895L266.75858366480406 453.75375192171623L266.75858366480406 454.41872666487734L268.76570926572185 455.760877522634L268.76570926572185 457.7741038092686L264.0742819492907 462.1299934112599L266.08750823592527 465.47926986993343L265.4164328070474 466.8214207276901L266.75858366480406 469.16408404304684L266.08750823592527 470.1706971863641L250 467.1569584421295L245.30857268356976 469.16408404304684L243.9664218258131 471.1773103296814L245.30857268356976 473.5199736450377L241.9592962248953 474.86212450279436L238.60391908050497 473.19053661631597L238.60391908050497 474.86212450279436L233.24751702091362 473.19053661631597L228.55608970448247 472.85499890187657L221.85143610141768 468.49910929988573L221.1803606725398 466.8214207276901L217.83108421386532 466.15034529881177L215.81785792723076 462.1299934112599L213.1396568974351 461.7944556968205L212.4685814685563 460.78784255350365L207.10607872324817 459.11015398130803L202.41465140681794 461.1233802679426L198.3942995192656 461.45891798238154L192.36072134507867 464.80819444105555L184.32001756997488 463.4721442690161L179.62859025354464 464.1371190121772L175.60213768027552 461.7944556968205L174.93106225139672 459.445691695747L172.92393665047985 458.109641523708L169.57466019180538 456.76749066595085L160.85678030210602 455.760877522634L156.16535298567487 455.760877522634L152.81607652700131 458.109641523708L140.08394543546638 457.7741038092686L133.37929183240158 460.1167671246253L132.0371409746449 459.445691695747L132.0371409746449 455.4253398081946L128.68786451597134 448.7267868908466L127.34571365821557 444.7003343175779L126.0035628004589 442.3576710022212L123.32536177066322 436.3240928280343L121.98321091290654 435.65301739915594L113.27143170892396 435.317479684717L97.85499890187657 436.6596305424732L93.16357158544633 435.98855511359534L87.8010688401373 432.6392786549209L87.8010688401373 430.6260523682863L94.5057224432021 429.619439224969L95.1767978720809 427.27677590961275L89.81429512677187 426.6057004807344L85.12286781034163 423.59196173649934L68.36428414553757 423.59196173649934L57.63927865492042 424.5924741940994L50.94072573757239 422.58534859318206L50.26965030869451 421.9142731643042L52.2767759096123 415.2096195612389L48.256424022059946 411.189267673687L48.92749945093783 407.5044535005736L48.256424022059946 406.8333780716953L39.54464481807736 408.5110666438909L38.20249396032068 407.5044535005736L36.1953683594038 407.1689157861347L32.17501647185145 408.8466043583303L12.738231777251713 409.8471168159308L10.053930061738356 409.1821420727697L8.711779203981678 413.2024939603216L5.36250274530903 413.53803167476053L4.020351887552351 414.8740818468L2.684301715512447 412.53141853144325L0.6710754288778844 411.52480538812597L1.3421508577566783 408.8466043583303L0 405.1556894995001L0.6710754288778844 401.47087532638716L13.403206520412823 393.09463383684397L16.758583664803155 390.08089509260844L22.121086410112184 381.02747748847014L26.141438297664536 369.9730349691308L31.503941042973565 348.5230239878965L40.21572024695524 335.79089289636204L41.55787110471192 320.37446008931465L77.07606334952106 316.683545230484L92.49249615656754 316.35410820176185L96.51284804411989 308.64284145537977L95.84787330095878 302.60926328119285L98.52607433075445 300.93767539471446L106.56677810585825 290.5482076185367L120.64716074086664 278.48105127016333L140.08394543546638 265.7489201786284L152.81607652700131 264.4067693208722L163.54108201761846 255.35945240245064L176.2732131091534 249.9969496571416L179.62859025354464 253.68176383025502L182.30679128334032 260.3864174333198L184.32001756997488 262.72908074867655L186.32714317089176 258.03765343224586L191.0185704873229 254.01730154469396L198.3942995192656 249.66141194270267L204.42177700773482 247.65428634178534L215.81785792723076 246.64767319846806L227.2139388467267 241.62070816759842L232.57644159203483 237.60035628004653L232.57644159203483 233.9094414212159L229.22106444764358 228.2175016471856L237.93894433734295 220.84177261524246L227.2139388467267 217.492496156568L227.8850142756046 211.79445569682048L224.52963713121426 210.7878425535032L224.52963713121426 209.44569169574697L228.55608970448247 203.4182142072773L230.56321530539935 200.73391249176439L248.65784914224332 193.02874643109908L270.1078601234776 191.01552014446452L284.18214207276833 191.35105785890346L295.5782229922643 189.00839454354718L337.1299934112594 258.37319114668526L328.41821420727683 264.0712316064328L316.3571585446198 269.76927206618075L316.3571585446198 272.11803606725425L333.78071695258495 284.17909172991085L344.505722443203 289.5415944752194L348.52607433075536 293.89748407721027L360.5932306791283 301.6087508235928L365.9557334244364 303.28033871007165L365.9557334244364 328.4151638644189L383.3792918324016 318.6967715171186L379.35893994485014 314.6764196295667L380.030015373728 314.00534420068834L386.05749286219725 313.33426877181046L388.0707191488318 318.6967715171186L394.1042973230187 322.71712340467093L394.1042973230187 318.02569608824024L404.158227384758 310.9916054564537L404.8293028136368 310.9916054564537L409.5207301300661 318.02569608824024L412.1989311598627 318.02569608824024L415.54820761853625 315.68303277288396L417.5614339051708 315.0119573440056L417.5614339051708 307.6362283120625L424.2660875082356 309.64945459869705L427.6153639669092 308.9783791698187L454.4217770077357 298.58891139364096L461.1264306108005 298.58891139364096L465.1467824983529 299.59552453695824L469.8382098147831 302.60926328119285L477.8850142756046 312.3276556284932L479.89213987652147 315.0119573440056L481.23429073427815 321.71051026135365L475.8717879889691 328.07962614997996L476.5428634178479 334.7842797530443L475.8717879889691 343.8315966714663L464.475707069475 351.87230044657053L461.7975060396784 358.2414163351964L459.78427975304385 359.2480294785137L456.4350032943703 358.57695404963533L453.7568022645746 359.2480294785137L445.03892237487435 363.268381366066L438.34036945752723 367.62427096805686Z" stroke="#FFFFFF" stroke-opacity="0.75" stroke-width="1" stroke-linecap="round" stroke-linejoin="round" fill="#D3D3D3"/>
		<path name="张掖市" d="M308.9814295126771 411.189267673687L313.00178140022945 406.8333780716953L321.0485858610509 402.47748846970444L319.70643500329425 400.4642621830694L318.3642841455385 400.1287244686305L317.6932087166597 397.78606115327375L319.03535957441636 395.43729715220024L318.3642841455385 393.4301715512829L315.015007686864 392.08802069352623L315.6860831157419 388.7387442348522L318.3642841455385 386.0544425193398L318.3642841455385 382.7051660606653L334.45179238146284 381.698552917348L336.4650186680974 377.00712560091824L343.16357158544633 378.01373874423507L347.1839234729987 381.698552917348L354.55965250494137 380.3564020595918L356.56677810585916 377.6782010297961L358.5800043924937 377.3426633153572L359.2510798213716 378.01373874423507L363.27143170892396 378.01373874423507L369.30500988311087 380.3564020595918L369.30500988311087 386.0544425193398L368.633934454233 387.396593377096L370.64716074086755 387.396593377096L370.64716074086755 389.7453573781695L374.6675126284199 389.07428194929116L381.366065545767 392.4235584079652L386.05749286219725 393.76570926572185L388.0707191488318 393.4301715512829L392.09107103638416 396.77944800995647L396.7824983528153 399.1282120110304L406.83642841455367 401.1353376119482L408.84965470118823 405.49122721393906L412.1989311598627 404.82015178506117L412.8700065887406 406.49784035725634L415.54820761853625 406.1623026428174L418.9035847629275 409.8471168159308L422.92393665047985 405.49122721393906L425.6021376802746 404.82015178506117L426.9442885380313 396.1083725810786L422.92393665047985 395.43729715220024L420.2396349349665 392.4235584079652L414.21215744649635 389.07428194929116L408.17857927230943 382.7051660606653L402.1450010981225 384.3828546328614L397.4535737816932 384.047316918422L395.4403474950577 382.36962834622636L396.1114229239365 380.69193977403074L397.4535737816932 379.35588960199175L400.80285024036675 379.6914273164307L401.47392566924464 379.02035188755235L402.1450010981225 373.32231142780483L404.8293028136368 372.6512359989265L406.83642841455367 369.6374972546919L416.21928304741505 371.6446228556092L418.9035847629275 370.97354742673133L422.25286122160196 367.95980868249626L424.2660875082356 367.2887332536179L430.29356499670575 367.2887332536179L434.32001756997397 366.28212011030064L438.34036945752723 367.62427096805686L450.4014251201834 367.2887332536179L457.77715415212606 369.6374972546919L464.475707069475 372.98677371336544L471.1803606725398 373.9933868566827L476.5428634178479 377.3426633153572L483.91249176407473 378.6848141731134L487.93894433734295 383.37624148954365L487.26786890846506 385.38336709046143L488.60391908050497 389.40981966373056L495.97964811244765 390.74586983576955L499.3289245711212 393.09463383684397L500 394.77232240903913L506.033578174186 395.43729715220024L518.0946338368431 394.77232240903913L520.1078601234785 407.5044535005736L521.4500109812343 408.8466043583303L522.1210864101122 412.53141853144325L520.1078601234785 413.53803167476053L520.1078601234785 419.2360721345085L521.4500109812343 419.5655091632302L524.7992874399079 417.2228458478735L526.1414382976645 417.2228458478735L527.4835891554212 420.23658459210856L527.4835891554212 423.9274994509383L536.8664437882817 421.9142731643042L542.8939212767509 418.9005344200691L541.5578711047119 423.9274994509383L544.2360721345085 425.93462505185653L544.2360721345085 428.9544644818079L550.2696503086945 429.619439224969L550.2696503086945 430.9615900827257L548.25642402206 432.30374094048193L548.9274994509378 433.6458917982386L553.6189267673681 434.3108665413997L563.6728568291073 437.6662436857905L567.0221332877809 441.35105785890346L570.377510432173 439.3378315722689L577.0760633495202 441.0155201444645L575.0689377486024 445.03587203201687L565.015007686864 452.74713877839895L564.3439322579861 454.75426437931674L560.9946557993117 457.4385660948292L558.3103540837992 456.76749066595085L554.9610776251247 457.7741038092686L558.9814295126771 465.47926986993343L561.6657312281895 467.49249615656845L557.6392786549204 471.1773103296814L554.9610776251247 477.8819639327462L556.3032284828814 478.8824763903467L559.652504941555 477.2108885038683L567.6932087166597 477.54642621830726L569.0353595744164 475.8687376461121L571.7196612899288 477.2108885038683L573.0557114619678 475.5331999316727L575.0689377486024 475.5331999316727L579.7603650650326 477.2108885038683L581.7674906659513 475.19766221723376L583.7807169525859 475.19766221723376L587.8010688401382 476.53981307499L591.1564459845285 475.5331999316727L593.1635715854463 479.5535518192246L596.5128480441199 479.21801410478565L597.8549989018766 480.5601649625419L600.539300617389 481.2312403914202L601.2103760462678 482.2378535347375L592.4924961565675 485.5871299934115L598.5260743307545 486.5937431367288L601.2103760462678 490.9496327387201L603.8885770760635 491.2851704531595L600.539300617389 492.9628590253551L600.539300617389 494.6344469118335L598.5260743307545 495.3055223407114L594.505722443203 500.332487371581L595.1767978720809 503.681763830255L594.505722443203 505.02391468801125L591.8214207276897 505.02391468801125L591.8214207276897 503.0106884013767L588.4721442690161 500.332487371581L585.1228678103416 498.6547987993854L583.1096415237071 499.3258742282633L580.4314404939114 502.6812513726545L577.0760633495202 503.3462261158156L576.41108860636 499.99694965714207L568.3642841455385 498.319261084946L569.0353595744164 496.6476731984676L565.015007686864 492.29178359647676L556.9743039117593 488.9364064520855L551.6118011664512 492.29178359647676L550.9407257375724 494.6344469118335L546.2492984211431 491.6207081675984L540.886795675834 490.6140950242807L536.1953683594038 484.9160545645336L534.1821420727692 484.9160545645336L528.1485638985823 480.8957026769813L522.792161838991 481.56677810585916L523.4571365821512 479.5535518192246L522.792161838991 477.8819639327462L524.7992874399079 475.8687376461121L524.7992874399079 473.5199736450377L525.4703628687857 471.1773103296814L524.7992874399079 470.50623490080307L520.1078601234785 472.1839234729987L516.0875082359262 468.1635715854468L512.0671563483729 465.81480758437283L506.7046536030648 465.1437321554945L505.3625027453081 466.48588301325117L502.01322628663456 466.15034529881177L497.9928743990822 463.80158129773827L496.65072354132644 465.1437321554945L495.30857268356976 464.80819444105555L495.30857268356976 462.80106884013776L492.6303716537741 463.13660655457716L488.60391908050497 461.45891798238154L488.60391908050497 460.45230483906425L487.26786890846506 457.7741038092686L484.5835671929526 457.7741038092686L483.91249176407473 454.41872666487734L476.5428634178479 451.0694502062038L471.1803606725398 450.06283706288605L469.1671343859043 452.41160106396L471.8514361014177 455.0898020937557L474.52963713121335 456.4319529515119L475.8717879889691 459.78122941018637L479.2210644476436 461.7944556968205L478.5560897044834 463.4721442690161L479.89213987652147 467.49249615656845L478.5560897044834 468.1635715854468L476.5428634178479 467.1569584421295L473.85856170233546 464.1371190121772L457.77715415212606 458.77461626686863L455.0928524366136 456.4319529515119L447.7232240903877 454.75426437931674L447.7232240903877 452.41160106396L443.70287220283535 451.0694502062038L439.6764196295662 447.7201737475293L439.0114448864051 444.0292588886996L435.6560677420139 444.36479660313853L434.32001756997397 443.6998218599774L432.9778667122182 440.3444447155862L430.96464042558364 440.00890700114724L428.95751482466676 436.3240928280343L418.9035847629275 431.6326655116036L411.5278557309839 426.27016276629547L414.21215744649635 423.2564240220604L413.54108201761846 422.920886307621L411.5278557309839 422.920886307621L410.18570487322813 421.5787354498648L403.4871519558792 420.5721223065475L400.80285024036675 417.8939212767518L396.7824983528153 416.55177041899515L396.1114229239365 414.8740818468L392.09107103638416 414.8740818468L387.39964371995393 420.5721223065475L384.72144269015826 421.24319773542584L384.72144269015826 423.2564240220604L382.7082164035237 424.5924741940994L373.3253617706632 422.2498108787431L373.3253617706632 420.5721223065475L371.31213548402775 420.5721223065475L369.97608531198875 418.2294589911912L364.61358256668063 417.8939212767518L363.27143170892396 421.9142731643042L361.2582054222894 424.9280119085388L361.9292808511673 427.27677590961275L352.5464262183068 433.3103540837992L347.1839234729987 428.9544644818079L341.15644598452855 427.6123136240517L335.12286781034163 424.2630371653777L327.74713877839804 422.2498108787431L327.07606334952015 419.9010468776696L315.6860831157419 415.2096195612389L313.67285682910733 412.8669562458822L311.66573122818954 412.8669562458822L308.9814295126771 411.189267673687Z" stroke="#FFFFFF" stroke-opacity="0.75" stroke-width="1" stroke-linecap="round" stroke-linejoin="round" fill="#D3D3D3"/>
		<path name="甘南藏族自治州" d="M636.0574928621982 634.047316918422L640.7489201786275 636.3899802337787L643.4332218941408 639.0742819492916L644.7753727518975 639.4098196637306L646.1114229239365 638.0676688059739L648.795724639449 639.74535737817L649.4668000683278 642.7590961224046L648.795724639449 647.4505234388353L649.4668000683278 648.7926742965915L652.1450010981234 647.1149857243959L656.8364284145537 647.7860611532742L658.1785792723103 649.7992874399088L661.5278557309848 650.7997998975088L667.5614339051708 650.1287244686309L668.9035847629275 650.7997998975088L668.2325093340496 651.1353376119478L669.5746601918054 653.4841016130217L674.2660875082356 655.8267649283785L681.6357158544624 656.4978403572568L682.3067912833403 655.1556894995001L689.0114448864051 658.175528929452L694.3739476317141 661.8603431025649L696.381073232631 664.5446448180783L696.381073232631 666.5517704189956L697.7232240903877 667.8939212767518L698.3942995192656 667.5583835623129L698.3942995192656 664.5446448180783L701.74357597794 667.2228458478735L702.4146514068179 665.5451572756783L704.4217770077357 665.2096195612394L707.1060787232482 666.2162327045567L708.4482295810049 666.8873081334345L708.4482295810049 667.8939212767518L712.4685814685572 669.5655091632302L713.8107323263139 670.5721223065475L713.8107323263139 671.9142731643042L711.1264306108005 673.9274994509387L710.4553551819226 677.2767759096123L713.1396568974351 678.9544644818079L713.8107323263139 679.9549769394084L711.1264306108005 680.9615900827257L705.0928524366136 679.9549769394084L702.4146514068179 681.968203226043L704.4217770077357 683.6458917982386L702.4146514068179 688.6728568291082L703.0857268356958 690.0089070011472L702.4146514068179 691.6865955733429L698.3942995192656 692.6932087166601L701.0725005490613 696.0424851753341L701.74357597794 699.0562239195692L700.4014251201834 701.0694502062033L697.0521486615089 703.4182142072773L696.381073232631 705.4253398081951L694.3739476317141 705.760877522634L694.3739476317141 707.7741038092686L697.0521486615089 707.7741038092686L699.0653749481444 709.110153981308L701.74357597794 708.1096415237075L705.0928524366136 709.110153981308L709.1193050098827 714.1371190121777L711.7975060396793 714.8081944410555L714.4757070694741 717.8280338710074L714.4757070694741 721.5128480441208L716.4889333561096 722.854998901877L717.8310842138662 724.5265867883554L733.9124917640747 734.2449791356553L737.2678689084651 734.5805168500942L740.6171453671395 738.9364064520855L744.637497254691 740.2785573098422L745.3085726835689 740.9496327387201L742.6303716537741 744.2989091973941L743.301447082652 745.3055223407114L743.301447082652 746.983210912907L745.3085726835689 747.6542863417853L745.3085726835689 749.3258742282637L747.9928743990822 751.6746382293375L748.6578491422433 755.023914688011L754.6914273164302 758.0376534322463L756.0335781741869 761.3930305766373L755.362502745309 763.0646184631157L756.7046536030648 764.4067693208722L756.7046536030648 765.7489201786284L759.3828546328614 766.7555333219457L758.7117792039826 767.7560457795457L753.3492764586745 768.0915834939851L752.0132262866346 769.4337343517416L752.0132262866346 772.1180360672543L747.9928743990822 773.1185485248548L745.3085726835689 772.1180360672543L745.3085726835689 769.7692720661805L743.301447082652 765.4133824641895L742.6303716537741 766.4199956075067L739.2749945093829 766.7555333219457L735.2546426218305 765.0778447497505L730.5632153054003 766.0844578930673L729.2210644476436 762.3996437199546L726.5428634178479 761.7285682910763L725.87178798897 759.3798042900025L723.8585617023355 757.7082164035241L721.8514361014177 753.3462261158159L723.1935869591734 751.3391005148983L723.1935869591734 749.6614119427027L718.5021596427441 745.3055223407114L715.146782498352 744.2989091973941L710.4553551819226 745.3055223407114L704.4217770077357 744.634446911833L698.3942995192656 746.3121354840291L694.3739476317141 744.2989091973941L692.3607213450796 744.969984626272L689.6764196295662 743.2922960540768L687.6692940286493 742.9628590253546L684.984992313136 745.3055223407114L683.6489421410961 744.969984626272L684.984992313136 741.6207081675984L683.6489421410961 736.9292808511682L680.2935649967058 737.6003562800465L678.286439395788 740.9496327387201L672.252861221601 740.9496327387201L665.5482076185363 737.9358939944855L661.5278557309848 736.9292808511682L661.5278557309848 733.573903706777L662.8700065887406 730.8957026769813L661.5278557309848 729.553551819225L659.5207301300661 729.553551819225L659.5207301300661 727.2108885038679L661.5278557309848 725.1976622172338L660.856780302106 723.190536616316L658.8496547011882 722.854998901877L659.5207301300661 721.1773103296814L662.1989311598627 720.5062349008031L659.5207301300661 718.4991092998857L658.8496547011882 714.8081944410555L654.8293028136359 713.4721442690166L653.4871519558792 714.4726567266166L650.8028502403668 713.4721442690166L650.8028502403668 711.1233802679421L648.795724639449 707.7741038092686L646.1114229239365 706.4319529515124L644.1042973230196 706.4319529515124L643.4332218941408 706.7674906659513L642.762146465263 708.7746162668686L639.4128700065885 708.7746162668686L638.0707191488327 710.7878425535032L635.3925181190361 710.7878425535032L632.7082164035237 713.4721442690166L627.3457136582147 715.8148075843728L629.3589399448492 718.4991092998857L631.366065545767 718.4991092998857L630.7010908026059 720.8417726152425L628.0167890870935 719.1640840430468L619.3050098831109 720.8417726152425L617.2917835964763 720.1706971863641L615.2846579955585 724.1910490739165L614.6135825666806 726.8753507894289L610.5932306791283 726.204275360551L609.9221552502504 726.8753507894289L610.5932306791283 726.53981307499L609.2510798213716 725.5331999316727L608.5800043924937 726.53981307499L607.237853534737 725.8687376461116L606.5667781058592 727.2108885038679L605.9018033626971 726.204275360551L604.5596525049414 727.5464262183073L602.5464262183068 727.8819639327462L601.8753507894289 729.889089533664L605.9018033626971 733.573903706777L607.237853534737 735.9226677078505L605.2307279338193 738.2653310232076L608.5800043924937 738.6008687376466L609.9221552502504 739.9430195954028L609.9221552502504 740.9496327387201L607.9089289636158 741.6207081675984L608.5800043924937 742.9628590253546L611.2582054222894 741.6207081675984L609.9221552502504 745.3055223407114L611.2582054222894 748.6547987993854L617.9628590253551 751.3391005148983L619.3050098831109 753.0106884013769L619.3050098831109 754.0173015446942L617.9628590253551 754.3528392591331L618.633934454233 755.023914688011L618.633934454233 757.0371409746458L619.9760853119897 758.0376534322463L617.9628590253551 758.0376534322463L619.3050098831109 758.7087288611242L617.9628590253551 758.7087288611242L614.6135825666806 761.7285682910763L613.271431708924 761.0574928621979L613.271431708924 762.3996437199546L611.9292808511682 761.3930305766373L609.9221552502504 762.0641060055152L607.237853534737 761.0574928621979L603.8885770760635 765.0778447497505L598.5260743307545 766.0844578930673L598.5260743307545 767.4266087508242L597.1839234729978 768.0915834939851L597.1839234729978 770.4403474950589L595.8478733009588 772.4535737816936L591.8214207276897 770.1048097806199L590.4853705556507 770.7758852094978L590.4853705556507 772.7830108104154L587.8010688401382 771.7824983528153L587.8010688401382 774.460699382611L582.4385660948292 779.8232021279193L579.7603650650326 778.816588984602L581.1025159227893 775.1317748114893L580.4314404939114 773.4540862392937L578.4182142072768 772.1180360672543L580.4314404939114 768.4271212084243L583.1096415237071 767.0910710363846L583.7807169525859 763.0646184631157L585.7939432392195 761.3930305766373L585.7939432392195 760.38641743332L587.1299934112594 759.7153420044417L585.7939432392195 759.0442665755636L586.4650186680983 757.7082164035241L584.4517923814637 756.7016032602069L585.1228678103416 752.6812513726547L578.4182142072768 748.6547987993854L578.4182142072768 752.6812513726547L576.41108860636 753.0106884013769L574.3978623197245 756.0305278313285L569.7064350032942 755.6949901168896L568.3642841455385 756.3660655457679L567.6932087166597 755.023914688011L567.0221332877809 748.6547987993854L565.6860831157419 747.3187486273464L565.015007686864 745.3055223407114L563.6728568291073 745.6410600551508L563.0017814002294 744.2989091973941L560.3235803704338 743.6278337685158L556.3032284828814 744.634446911833L555.6321530540026 746.3121354840291L552.9478513384902 746.983210912907L546.920373850021 745.9765977695897L543.5649967056297 744.634446911833L540.2157202469562 746.3121354840291L539.5446448180774 742.6273213109157L540.886795675834 740.9496327387201L541.5578711047119 738.6008687376466L538.8735693891995 735.9226677078505L538.8735693891995 734.9160545645332L532.8399912150126 733.573903706777L530.8328656140948 731.5667781058596L529.4907147563381 731.9023158202986L523.4571365821512 723.5199736450381L522.1210864101122 722.854998901877L521.4500109812343 720.5062349008031L518.0946338368431 716.1503452988118L515.4164328070474 714.4726567266166L518.0946338368431 710.4523048390643L518.0946338368431 708.1096415237075L518.765709265721 705.760877522634L522.1210864101122 704.7542643793167L523.4571365821512 702.747138778399L526.1414382976645 702.0760633495206L528.8196393274602 702.41160106396L532.8399912150126 705.760877522634L538.8735693891995 705.0898020937561L540.886795675834 707.1030283803902L543.5649967056297 706.4319529515124L544.2360721345085 707.4385660948296L545.5782229922643 707.4385660948296L546.2492984211431 708.4451792381469L548.9274994509378 709.110153981308L549.5985748798157 710.1167671246253L558.9814295126771 712.1299934112599L559.652504941555 713.4721442690166L562.3307059713516 712.4655311256993L563.6728568291073 713.8015812977383L567.6932087166597 714.4726567266166L569.7064350032942 716.4858830132512L569.0353595744164 716.8214207276901L569.7064350032942 717.8280338710074L571.7196612899288 718.8285463286074L573.0557114619678 718.4991092998857L573.0557114619678 720.1706971863641L573.7267868908457 719.1640840430468L575.7400131774812 721.5128480441208L577.747138778399 720.8417726152425L579.7603650650326 717.8280338710074L581.1025159227893 717.4924961565684L581.1025159227893 716.1503452988118L587.8010688401382 718.8285463286074L589.143219697894 714.4726567266166L591.1564459845285 715.143732155495L593.1635715854463 713.8015812977383L591.8214207276897 711.7944556968205L594.505722443203 711.4589179823815L594.505722443203 707.4385660948296L599.1971497596323 708.7746162668686L601.8753507894289 704.0831889504384L604.5596525049414 704.4187266648773L606.5667781058592 703.4182142072773L601.2103760462678 697.7201737475298L600.539300617389 694.7003343175775L595.8478733009588 692.6932087166601L589.8142951267719 692.0221332877818L587.8010688401382 690.0089070011472L587.1299934112594 689.6733692867083L586.4650186680983 685.9885551135949L585.1228678103416 681.968203226043L586.4650186680983 673.9274994509387L585.7939432392195 672.2498108787431L589.8142951267719 670.5721223065475L594.505722443203 671.2431977354258L593.8346470143251 669.5655091632302L596.5128480441199 665.2096195612394L598.5260743307545 663.538031674761L600.539300617389 663.538031674761L601.2103760462678 662.5314185314433L603.8885770760635 662.1958808170039L603.8885770760635 660.8537299592476L607.9089289636158 660.8537299592476L609.9221552502504 656.4978403572568L611.2582054222894 655.8267649283785L611.9292808511682 654.490714756339L613.271431708924 654.490714756339L615.2846579955585 653.4841016130217L613.9425071378027 649.7992874399088L611.9292808511682 649.4637497254694L611.9292808511682 647.4505234388353L607.9089289636158 646.1083725810781L609.9221552502504 643.4301715512825L607.9089289636158 641.7524829790873L607.9089289636158 640.74586983577L609.2510798213716 638.0676688059739L615.9557334244364 639.4098196637306L617.9628590253551 637.7321310915349L618.633934454233 637.0610556626566L617.2917835964763 636.0544425193393L621.3121354840277 631.0274774884701L621.3121354840277 628.6848141731134L627.3457136582147 631.6985529173485L633.3792918324016 632.3696283462268L636.0574928621982 634.047316918422Z" stroke="#FFFFFF" stroke-opacity="0.75" stroke-width="1" stroke-linecap="round" stroke-linejoin="round" fill="#D3D3D3"/>
		<path name="武威市" d="M703.0857268356958 503.3462261158156L699.7303496913055 506.7016032602064L697.7232240903877 509.71534200444194L697.7232240903877 511.05749286219816L699.0653749481444 512.7290807486766L698.3942995192656 516.4199956075067L696.381073232631 518.4271212084241L701.0725005490613 523.1185485248543L699.7303496913055 524.7962370970504L697.7232240903877 525.1317748114893L696.381073232631 527.474438126846L693.0317967739575 530.1587398423585L690.3474950584441 535.1857048732281L690.3474950584441 537.5283681885849L687.6692940286493 538.8705190463411L688.3403694575272 542.8908709338934L687.6692940286493 542.5553332194545L684.3200175699749 541.219283047415L684.984992313136 543.2264086483324L684.3200175699749 543.5619463627718L677.6153639669092 541.554820761854L670.9107103638444 542.8908709338934L670.9107103638444 543.8974840772107L670.9107103638444 544.5685595060886L672.9239366504789 544.5685595060886L673.5950120793568 547.5822982503237L676.9442885380313 546.2462480782842L680.2935649967058 545.9107103638453L688.3403694575272 549.9310622513976L688.3403694575272 550.9376753947149L680.2935649967058 550.2665999658366L675.6021376802755 551.938187852315L672.9239366504789 547.5822982503237L670.9107103638444 547.9178359647626L670.2396349349665 545.5751726494059L666.2192830474141 542.8908709338934L668.2325093340496 540.5482076185367L667.5614339051708 540.2126699040978L664.2121574464973 542.2197955050151L665.5482076185363 543.5619463627718L665.5482076185363 545.9107103638453L660.856780302106 545.239634934967L660.1857048732281 546.2462480782842L657.5075038434316 546.2462480782842L656.1653529856758 544.904097220528L650.1378754972066 545.5751726494059L648.795724639449 546.5817857927232L646.7824983528144 546.2462480782842L646.1114229239365 547.2467605358843L647.4535737816923 548.2533736792016L645.4403474950586 550.9376753947149L643.4332218941408 552.2737255667539L640.0839454354673 551.938187852315L642.0910710363842 554.2869518533885L639.4128700065885 556.9651528831841L636.0574928621982 557.3006905976235L634.7214426901583 556.6357158544624L629.3589399448492 551.938187852315L625.3385880572978 550.2665999658366L623.3253617706623 546.9173235071626L619.3050098831109 544.904097220528L619.3050098831109 542.8908709338934L621.3121354840277 541.554820761854L620.6471607408675 537.1928304741455L626.6746382293368 536.1923180165454L630.030015373728 536.1923180165454L627.3457136582147 532.1719661289935L626.0035628004589 531.8364284145546L623.3253617706623 529.4876644134802L620.6471607408675 528.8165889846023L616.6207081675975 524.7962370970504L616.6207081675975 523.1185485248543L611.9292808511682 521.7824983528149L609.2510798213716 520.1048097806197L608.5800043924937 518.4271212084241L599.8682251885102 516.4199956075067L596.5128480441199 513.4001561775544L594.505722443203 513.7356938919938L594.505722443203 509.71534200444194L595.8478733009588 507.70821640352415L593.8346470143251 507.0371409746458L594.505722443203 505.02391468801125L595.1767978720809 503.681763830255L594.505722443203 500.332487371581L598.5260743307545 495.3055223407114L600.539300617389 494.6344469118335L600.539300617389 492.9628590253551L603.8885770760635 491.2851704531595L601.2103760462678 490.9496327387201L598.5260743307545 486.5937431367288L592.4924961565675 485.5871299934115L601.2103760462678 482.2378535347375L600.539300617389 481.2312403914202L597.8549989018766 480.5601649625419L596.5128480441199 479.21801410478565L601.2103760462678 477.2108885038683L603.8885770760635 477.2108885038683L605.2307279338193 474.191049073916L607.9089289636158 473.5199736450377L613.9425071378027 472.5194611874376L615.9557334244364 474.191049073916L617.2917835964763 474.191049073916L623.9964371995411 470.1706971863641L632.0371409746458 471.51284804412035L632.0371409746458 470.50623490080307L634.7214426901583 469.16408404304684L635.3925181190361 467.1569584421295L634.7214426901583 466.15034529881177L632.7082164035237 464.1371190121772L632.7082164035237 460.1167671246253L630.030015373728 456.09641523707296L625.3385880572978 455.760877522634L623.3253617706623 450.7339124917644L619.3050098831109 448.0557114619687L618.633934454233 443.6998218599774L614.6135825666806 440.6799824300251L615.9557334244364 433.3103540837992L613.271431708924 432.30374094048193L616.6207081675975 425.26354962297773L598.5260743307545 421.24319773542584L586.4650186680983 420.23658459210856L580.4314404939114 414.8740818468L607.9089289636158 408.8466043583303L611.9292808511682 406.1623026428174L618.633934454233 404.82015178506117L627.3457136582147 409.8471168159308L652.1450010981234 414.20910710363887L659.5207301300661 408.5110666438909L665.5482076185363 405.49122721393906L667.5614339051708 405.49122721393906L667.5614339051708 404.15517704190006L670.9107103638444 402.8130261841434L673.5950120793568 399.7992874399083L688.3403694575272 396.77944800995647L703.7568022645746 392.08802069352623L709.7842797530448 392.4235584079652L718.5021596427441 394.77232240903913L715.8178579272308 402.1419507552655L723.1935869591734 411.189267673687L725.2007125600912 414.8740818468L723.8585617023355 422.58534859318206L721.8514361014177 424.2630371653777L715.146782498352 426.9412381951738L707.777154152127 435.98855511359534L707.777154152127 440.00890700114724L691.0185704873229 454.75426437931674L687.6692940286493 456.09641523707296L676.9442885380313 456.76749066595085L682.9778667122182 464.1371190121772L684.3200175699749 471.8483857585593L674.9310622513967 475.5331999316727L674.2660875082356 476.53981307499L673.5950120793568 479.21801410478565L676.2732131091534 489.6074818809634L692.3607213450796 494.2989091973941L703.0857268356958 503.3462261158156Z" stroke="#FFFFFF" stroke-opacity="0.75" stroke-width="1" stroke-linecap="round" stroke-linejoin="round" fill="#D3D3D3"/>
		<path name="陇南市" d="M714.4757070694741 717.8280338710074L717.1600087849874 713.8015812977383L721.8514361014177 713.8015812977383L723.1935869591734 712.8010688401382L722.5225115302956 710.4523048390643L721.1803606725389 709.7812294101859L719.1671343859043 706.096415237073L721.8514361014177 703.7537519217162L723.8585617023355 703.7537519217162L725.2007125600912 702.41160106396L729.2210644476436 704.0831889504384L729.8921398765224 702.747138778399L731.2342907342781 702.0760633495206L731.9053661631569 703.0826764928379L733.9124917640747 702.747138778399L734.5835671929526 704.7542643793167L738.603919080504 705.760877522634L740.6171453671395 711.4589179823815L745.3085726835689 713.4721442690166L745.3085726835689 712.1299934112599L747.3217989702034 713.1366065545772L749.3289245711221 711.4589179823815L753.3492764586745 711.4589179823815L755.362502745309 710.1167671246253L758.0468044608215 711.1233802679421L760.7250054906171 711.1233802679421L761.396080919495 709.445691695747L762.7382317772517 709.7812294101859L762.7382317772517 708.4451792381469L764.0742819492907 708.1096415237075L765.4164328070483 706.4319529515124L764.0742819492907 702.41160106396L772.1210864101122 702.0760633495206L773.4571365821521 701.0694502062033L772.792161838991 699.3917616340082L775.4703628687867 699.7272993484471L778.8196393274602 697.3846360330908L780.1617901852169 697.3846360330908L781.5039410429736 694.3647966031385L783.5110666438914 693.0287464310991L787.5375192171596 693.364284145538L788.8735693891986 694.7003343175775L789.5446448180774 697.7201737475298L791.5578711047128 699.0562239195692L794.9071475633855 699.0562239195692L797.5853485931821 700.3983747773254L799.5985748798166 700.062837062886L801.6118011664512 701.4049879206427L804.9610776251247 706.4319529515124L807.6392786549213 706.4319529515124L806.3032284828814 708.7746162668686L807.6392786549213 709.7812294101859L806.9743039117593 710.7878425535032L807.6392786549213 711.7944556968205L806.9743039117593 711.7944556968205L806.9743039117593 716.4858830132512L808.3103540837992 716.8214207276901L807.6392786549213 719.1640840430468L808.9814295126771 720.5062349008031L810.3235803704338 718.8285463286074L812.3307059713507 720.1706971863641L814.3439322579861 716.4858830132512L819.0353595744155 714.4726567266166L821.04858586105 715.4792698699339L821.7196612899288 718.1635715854463L825.0689377486024 716.1503452988118L825.7400131774812 716.1503452988118L827.0760633495211 717.8280338710074L829.0892896361547 718.1635715854463L831.7674906659513 716.4858830132512L837.1299934112594 715.4792698699339L841.8214207276897 718.4991092998857L844.5057224432021 717.8280338710074L847.1839234729987 718.4991092998857L849.1971497596323 717.4924961565684L851.8753507894289 711.7944556968205L854.5596525049414 711.4589179823815L855.901803362698 715.143732155495L854.5596525049414 717.156958442129L855.2307279338193 718.8285463286074L857.237853534738 719.1640840430468L859.9221552502504 718.8285463286074L863.271431708924 716.4858830132512L863.271431708924 714.4726567266166L864.6135825666806 713.4721442690166L864.6135825666806 710.1167671246253L867.9628590253542 710.4523048390643L869.9760853119888 717.156958442129L869.3050098831109 718.4991092998857L865.2846579955585 718.8285463286074L865.9557334244373 720.8417726152425L863.271431708924 723.5199736450381L863.271431708924 727.5464262183073L859.9221552502504 731.2312403914207L861.2582054222894 733.2444666780548L863.271431708924 732.9089289636158L864.6135825666806 734.2449791356553L862.6003562800452 737.2648185656071L862.6003562800452 738.2653310232076L863.9425071378027 738.6008687376466L863.9425071378027 742.9628590253546L868.6339344542321 745.3055223407114L869.9760853119888 747.6542863417853L869.9760853119888 751.3391005148983L868.6339344542321 751.0035628004589L868.6339344542321 754.0173015446942L865.9557334244373 755.6949901168896L864.6135825666806 753.6817638302548L863.9425071378027 754.3528392591331L862.6003562800452 753.3462261158159L861.9292808511673 748.6547987993854L857.237853534738 748.6547987993854L855.901803362698 750.332487371581L851.8753507894289 749.3258742282637L846.5128480441199 753.0106884013769L843.8346470143242 752.3457136582158L843.1635715854463 750.66802508602L841.1564459845285 751.3391005148983L841.8214207276897 749.6614119427027L839.8142951267728 748.6547987993854L836.4650186680983 749.9969496571416L831.7674906659513 748.9903365138248L832.4385660948292 749.9969496571416L830.4314404939114 751.6746382293375L829.7603650650335 752.6812513726547L828.4182142072768 752.3457136582158L825.0689377486024 756.0305278313285L825.0689377486024 757.7082164035241L824.3978623197245 758.0376534322463L825.0689377486024 759.7153420044417L823.7267868908466 763.0646184631157L816.3571585446207 762.7290807486763L819.7064350032942 766.7555333219457L819.0353595744155 767.4266087508242L819.7064350032942 768.7626589228632L821.7196612899288 769.0981966373026L822.3846360330899 770.4403474950589L825.7400131774812 772.1180360672543L829.7603650650335 771.4469606383761L832.4385660948292 773.7896239537326L833.109641523708 778.1455135557242L831.1025159227893 776.8094633836847L830.4314404939114 774.125161668172L828.4182142072768 777.1450010981237L831.1025159227893 779.1521266990414L829.7603650650335 780.4942775567979L830.4314404939114 781.5008907001152L829.0892896361547 782.8369408721546L830.4314404939114 784.850167158789L829.7603650650335 786.5278557309846L826.411088606359 789.8771321896584L824.3978623197245 788.8705190463411L818.3642841455376 791.8903584762932L814.3439322579861 792.2197955050151L812.3307059713507 793.5619463627716L809.6525049415559 793.8974840772105L808.3103540837992 791.8903584762932L805.6321530540035 791.219283047415L799.5985748798166 790.5482076185367L798.25642402206 793.5619463627716L796.92037385002 793.8974840772105L797.5853485931821 795.5751726494061L799.5985748798166 799.9310622513972L801.6118011664512 800.9376753947147L801.6118011664512 802.2737255667541L796.2492984211422 803.9514141389498L791.5578711047128 807.3006905976235L787.5375192171596 806.6357158544624L786.1953683594038 809.3139168842583L780.8328656140948 810.9916054564535L778.1485638985823 808.3073037409408L775.4703628687867 807.6362283120625L767.429659093682 810.6560677420146L763.4032065204128 806.9651528831846L758.0468044608215 808.6428414553798L755.362502745309 806.3001781400235L752.0132262866346 806.9651528831846L748.6578491422433 804.9580272822668L747.3217989702034 802.9448009956325L745.3085726835689 802.9448009956325L743.301447082652 801.2732131091541L740.6171453671395 801.608750823593L734.5835671929526 797.2467605358847L730.5632153054003 796.5817857927236L729.2210644476436 792.555333219454L730.5632153054003 789.8771321896584L735.2546426218305 789.8771321896584L736.5967934795872 786.5278557309846L738.603919080504 785.5212425876673L737.9389443373439 784.51462944435L733.2475170209127 783.8435540154715L735.2546426218305 781.5008907001152L734.5835671929526 780.1587398423587L735.9257180507093 779.8232021279193L732.5764415920348 772.7830108104154L732.5764415920348 770.7758852094978L731.2342907342781 767.7560457795457L732.5764415920348 767.0910710363846L737.2678689084651 769.0981966373026L737.2678689084651 767.0910710363846L739.2749945093829 766.7555333219457L742.6303716537741 766.4199956075067L743.301447082652 765.4133824641895L745.3085726835689 769.7692720661805L745.3085726835689 772.1180360672543L747.9928743990822 773.1185485248548L752.0132262866346 772.1180360672543L752.0132262866346 769.4337343517416L753.3492764586745 768.0915834939851L758.7117792039826 767.7560457795457L759.3828546328614 766.7555333219457L756.7046536030648 765.7489201786284L756.7046536030648 764.4067693208722L755.362502745309 763.0646184631157L756.0335781741869 761.3930305766373L754.6914273164302 758.0376534322463L748.6578491422433 755.023914688011L747.9928743990822 751.6746382293375L745.3085726835689 749.3258742282637L745.3085726835689 747.6542863417853L743.301447082652 746.983210912907L743.301447082652 745.3055223407114L742.6303716537741 744.2989091973941L745.3085726835689 740.9496327387201L744.637497254691 740.2785573098422L740.6171453671395 738.9364064520855L737.2678689084651 734.5805168500942L733.9124917640747 734.2449791356553L717.8310842138662 724.5265867883554L716.4889333561096 722.854998901877L714.4757070694741 721.5128480441208L714.4757070694741 717.8280338710074Z" stroke="#FFFFFF" stroke-opacity="0.75" stroke-width="1" stroke-linecap="round" stroke-linejoin="round" fill="#D3D3D3"/>
		<path name="庆阳市" d="M994.637497254691 632.0340906317874L993.301447082652 633.711779203983L995.3085726835698 639.74535737817L992.6303716537732 643.4301715512825L993.301447082652 644.4367846945997L991.9592962248953 646.4439102955175L989.9460699382607 645.7728348666392L986.5967934795872 647.4505234388353L984.5835671929517 647.7860611532742L979.2210644476445 647.1149857243959L977.8850142756046 645.7728348666392L974.5296371312133 648.1215988677131L971.8514361014177 648.4571365821525L970.509285243661 646.1083725810781L967.8310842138653 645.4372971522002L959.7842797530438 648.7926742965915L955.0928524366145 649.4637497254694L953.7568022645746 649.1282120110304L953.7568022645746 648.1215988677131L949.0653749481435 648.4571365821525L941.0185704873229 645.4372971522002L941.0185704873229 643.0946338368435L938.3403694575272 641.081407550209L938.3403694575272 638.4032065204133L935.6560677420139 638.0676688059739L933.648942141097 636.3899802337787L930.9646404255845 636.3899802337787L928.9575148246659 635.3833670904614L928.9575148246659 634.047316918422L926.2732131091534 635.0539300617393L926.2732131091534 636.3899802337787L924.9310622513976 636.3899802337787L924.9310622513976 635.0539300617393L921.5817857927232 633.711779203983L920.2396349349665 633.711779203983L919.5746601918054 634.7183923473003L915.5482076185363 634.7183923473003L913.5410820176194 632.7051660606658L908.1785792723103 633.3762414895436L907.5075038434325 632.7051660606658L906.1653529856758 635.7189048049004L903.4871519558801 634.3828546328609L901.4739256692455 636.0544425193393L899.4668000683278 635.0539300617393L899.4668000683278 635.7189048049004L898.795724639449 634.047316918422L891.4199956075063 628.6848141731134L887.3996437199539 625.3355377144394L880.7010908026059 622.3156982844876L880.7010908026059 620.3085726835698L881.3660655457679 619.9730349691308L884.0503672612804 620.9735474267309L885.392518119037 618.9664218258135L887.3996437199539 619.3019595402525L888.0707191488327 616.953195539179L889.4128700065894 617.9598086824963L890.7489201786275 616.2821201103011L889.4128700065894 615.6110446814228L891.4199956075063 615.2816076527006L890.7489201786275 613.9394567949444L887.3996437199539 611.2551550794315L888.7417945777106 610.5901803362699L886.7285682910751 610.254642621831L889.4128700065894 608.5769540496358L890.7489201786275 605.5632153054007L892.0910710363842 604.221064447644L892.762146465262 603.2144513043268L891.4199956075063 601.8723004465705L892.0910710363842 601.2012250176922L892.0910710363842 599.5296371312138L893.4332218941408 597.8519485590186L892.0910710363842 597.1808731301398L892.0910710363842 596.1742599868226L891.4199956075063 596.509797701262L891.4199956075063 595.1737475292225L890.0839454354673 595.1737475292225L890.0839454354673 593.4960589570273L888.0707191488327 592.824983528149L885.392518119037 589.475707069475L882.0371409746458 590.4823202127923L878.0167890870935 589.1401693550356L876.0035628004589 586.7914053539621L874.667512628419 587.4624807828404L873.9964371995411 586.126430610801L873.3253617706632 587.126943068401L871.3121354840287 585.4553551819226L871.3121354840287 586.7914053539621L868.6339344542321 585.4553551819226L868.6339344542321 587.4624807828404L865.2846579955585 587.126943068401L863.271431708924 584.4487420386054L865.9557334244373 585.790892896362L865.2846579955585 580.0928524366141L866.6207081675975 580.7639278654924L866.6207081675975 579.4217770077357L864.6135825666806 578.7507015788578L864.6135825666806 577.7440884355406L865.9557334244373 577.4085507211016L865.2846579955585 576.4019375777843L866.6207081675975 574.730349691306L865.2846579955585 573.3881988335493L863.9425071378027 573.7237365479887L859.9221552502504 572.0460479757926L856.5667781058592 568.696771517119L858.5800043924937 569.3678469459969L859.2510798213725 568.3612338026796L861.9292808511673 569.3678469459969L862.6003562800452 567.0190829449234L861.9292808511673 565.683032772884L864.6135825666806 565.0119573440061L864.6135825666806 561.6626808853316L866.6207081675975 561.3271431708927L865.9557334244373 559.9849923131364L867.2917835964763 558.9783791698192L869.9760853119888 558.3073037409408L869.9760853119888 557.3006905976235L873.3253617706632 559.3139168842581L874.667512628419 558.6428414553802L873.3253617706632 557.6362283120629L874.667512628419 553.6158764245106L873.3253617706632 551.2732131091539L873.9964371995411 549.2599868225193L872.6542863417844 548.9244491080804L871.3121354840287 549.2599868225193L868.6339344542321 546.2462480782842L867.9628590253542 543.8974840772107L867.9628590253542 543.2264086483324L869.9760853119888 544.904097220528L869.9760853119888 546.2462480782842L871.3121354840287 546.2462480782842L870.6471607408666 544.2330217916497L873.9964371995411 544.5685595060886L873.9964371995411 540.8837453329761L874.667512628419 539.8771321896584L873.9964371995411 537.8639059030238L871.9832109129065 535.1857048732281L871.9832109129065 534.1790917299109L873.9964371995411 534.8501671587892L875.3385880572978 534.5146294443498L876.0035628004589 535.5212425876671L878.0167890870935 534.8501671587892L880.7010908026059 536.8633934454238L881.3660655457679 535.1857048732281L881.3660655457679 533.508016301033L882.7082164035237 532.8369408721546L888.7417945777106 535.8567803021065L890.0839454354673 534.8501671587892L889.4128700065894 533.1724785865936L894.1042973230187 535.5212425876671L895.4403474950586 534.8501671587892L897.4535737816932 535.5212425876671L897.4535737816932 534.1790917299109L901.4739256692455 534.8501671587892L906.8364284145537 533.508016301033L910.1857048732272 536.1923180165454L910.856780302106 535.8567803021065L912.1989311598618 536.5278557309844L914.2121574464973 547.2467605358843L916.2192830474141 546.9173235071626L917.5614339051708 548.2533736792016L922.252861221601 547.9178359647626L922.9239366504789 548.9244491080804L925.6021376802755 547.5822982503237L925.6021376802755 548.9244491080804L928.286439395788 550.6021376802755L928.286439395788 552.2737255667539L929.6285902535446 552.9448009956322L930.9646404255845 552.2737255667539L934.3200175699749 553.6158764245106L936.9982185997706 552.6092632811933L938.3403694575272 554.2869518533885L941.0185704873229 553.6158764245106L945.0389223748753 555.6291027111447L946.381073232631 555.2935649967058L951.0725005490622 557.6362283120629L953.0857268356967 560.9916054564537L953.0857268356967 563.33426877181L954.4217770077357 562.6631933429321L955.7639278654924 563.33426877181L957.1060787232491 561.6626808853316L958.4482295810049 562.9987310573711L957.1060787232491 564.0053442006883L957.1060787232491 565.347495058445L959.7842797530438 566.6835452304845L962.4685814685572 566.3541082017623L962.4685814685572 567.6901583738018L963.139656897436 567.0190829449234L965.1467824983529 567.6901583738018L965.1467824983529 569.032309231558L966.4889333561086 569.032309231558L969.1671343859052 565.347495058445L969.8382098147831 564.6764196295667L969.1671343859052 566.6835452304845L969.8382098147831 568.696771517119L971.1803606725398 568.3612338026796L972.5225115302956 569.7033846604363L973.1935869591744 568.696771517119L978.5560897044825 569.7033846604363L979.2210644476445 571.7105102613536L980.5632153054003 572.381585690232L981.234290734279 576.0725005490622L985.2546426218305 576.7374752922233L986.5967934795872 573.3881988335493L990.6171453671386 576.7374752922233L994.637497254691 577.0730130066622L995.9796481124476 579.7573147221751L1000 580.428390151053L1000 581.7644403230929L998.6578491422442 585.4553551819226L997.3217989702043 585.790892896362L995.9796481124476 588.1335562117183L1000 594.8382098147836L998.6578491422442 598.1874862734576L998.6578491422442 601.8723004465705L997.3217989702043 603.8855267332051L995.9796481124476 606.5637277630012L992.6303716537732 606.5637277630012L987.267868908466 610.5901803362699L988.603919080505 614.6105322238227L988.603919080505 617.2887332536179L989.2749945093829 618.9664218258135L987.9389443373439 620.3085726835698L989.2749945093829 622.9867737133659L988.603919080505 624.3289245711221L989.9460699382607 627.6782010297961L994.637497254691 630.3564020595918L994.637497254691 632.0340906317874Z" stroke="#FFFFFF" stroke-opacity="0.75" stroke-width="1" stroke-linecap="round" stroke-linejoin="round" fill="#D3D3D3"/>
		<path name="白银市" d="M687.6692940286493 542.5553332194545L688.3403694575272 542.8908709338934L687.6692940286493 538.8705190463411L690.3474950584441 537.5283681885849L690.3474950584441 535.1857048732281L693.0317967739575 530.1587398423585L696.381073232631 527.474438126846L697.7232240903877 525.1317748114893L699.7303496913055 524.7962370970504L701.0725005490613 523.1185485248543L696.381073232631 518.4271212084241L698.3942995192656 516.4199956075067L699.0653749481444 512.7290807486766L697.7232240903877 511.05749286219816L697.7232240903877 509.71534200444194L699.7303496913055 506.7016032602064L703.0857268356958 503.3462261158156L709.1193050098827 508.70872886112465L715.8178579272308 511.05749286219816L717.8310842138662 513.7356938919938L723.8585617023355 517.426608750824L726.5428634178479 517.426608750824L730.5632153054003 515.7489201786289L733.2475170209127 516.7555333219457L739.2749945093829 515.07784474975L740.6171453671395 516.7555333219457L744.637497254691 516.0844578930678L753.3492764586745 517.0910710363851L753.3492764586745 520.4403474950586L756.7046536030648 521.4469606383759L752.6843017155124 524.460699382611L750.6710754288779 524.125161668172L749.3289245711221 527.1450010981239L750.6710754288779 529.1521266990412L752.0132262866346 529.8232021279196L756.7046536030648 529.8232021279196L760.0539300617393 527.1450010981239L765.4164328070483 529.8232021279196L765.4164328070483 531.5008907001147L767.429659093682 533.1724785865936L768.765709265721 536.8633934454238L770.1078601234776 537.1928304741455L770.7789355523555 540.2126699040978L783.5110666438914 542.5553332194545L784.8532175016471 544.2330217916497L784.8532175016471 548.588911393641L789.5446448180774 549.2599868225193L790.886795675834 550.2665999658366L792.8939212767509 554.2869518533885L794.2360721345076 553.9514141389495L794.2360721345076 555.9646404255841L793.5649967056297 557.6362283120629L787.5375192171596 558.6428414553802L786.1953683594038 560.6560677420143L787.5375192171596 562.9987310573711L787.5375192171596 565.0119573440061L790.2157202469562 568.3612338026796L788.8735693891986 570.0389223748753L790.2157202469562 571.0455355181925L793.5649967056297 570.7099978037536L795.5782229922643 573.0526611191099L796.2492984211422 576.4019375777843L797.5853485931821 577.0730130066622L798.25642402206 581.4289026086535L802.9478513384902 585.790892896362L801.6118011664512 588.8046316405967L804.9610776251247 594.1671343859052L804.2900021962469 595.1737475292225L803.618926767369 597.1808731301398L799.5985748798166 597.1808731301398L794.2360721345076 601.8723004465705L793.5649967056297 606.8992654774402L794.2360721345076 610.5901803362699L798.25642402206 611.9262305083093L796.92037385002 612.5973059371877L796.92037385002 615.9465823958617L798.9274994509378 614.2749945093833L799.5985748798166 614.2749945093833L800.2696503086945 616.61765782474L801.6118011664512 616.953195539179L801.6118011664512 618.6308841113746L802.2828765953291 618.6308841113746L802.9478513384902 619.9730349691308L801.6118011664512 620.9735474267309L801.6118011664512 622.651235998927L805.6321530540035 627.3426633153572L802.9478513384902 627.6782010297961L802.2828765953291 631.0274774884701L798.25642402206 632.7051660606658L798.9274994509378 634.3828546328609L794.9071475633855 634.7183923473003L791.5578711047128 634.047316918422L789.5446448180774 635.3833670904614L787.5375192171596 635.0539300617393L784.8532175016471 637.7321310915349L782.1750164718514 637.0610556626566L780.8328656140948 637.7321310915349L781.5039410429736 638.7387442348527L779.490714756339 639.0742819492916L778.1485638985823 636.7255179482177L774.7992874399079 637.396593377096L773.4571365821521 635.3833670904614L769.4367846945997 634.047316918422L770.1078601234776 631.3630152029095L772.792161838991 625.6649747431616L773.4571365821521 622.3156982844876L772.1210864101122 620.6380097122919L766.7585836648041 617.9598086824963L765.4164328070483 615.9465823958617L765.4164328070483 612.2617682227483L760.0539300617393 610.254642621831L759.3828546328614 608.5769540496358L753.3492764586745 603.8855267332051L752.6843017155124 603.8855267332051L752.0132262866346 602.8789135898878L754.0203518875524 601.2012250176922L749.3289245711221 600.8717879889705L745.3085726835689 602.2078381610095L743.301447082652 602.2078381610095L745.3085726835689 598.1874862734576L746.6507235413255 597.5164108445792L747.9928743990822 593.160521242588L745.3085726835689 593.160521242588L743.9664218258131 590.8178579272317L745.9796481124476 589.1401693550356L743.301447082652 583.7776666097275L743.301447082652 576.7374752922233L742.6303716537741 576.4019375777843L739.2749945093829 578.4151638644184L737.2678689084651 578.7507015788578L737.2678689084651 579.7573147221751L732.5764415920348 580.0928524366141L731.2342907342781 581.4289026086535L728.5560897044825 581.4289026086535L726.5428634178479 581.7644403230929L725.87178798897 582.7710534664102L723.8585617023355 582.7710534664102L721.1803606725389 585.4553551819226L720.509285243661 583.1065911808491L716.4889333561096 578.0796261499795L715.8178579272308 575.0658874057449L713.8107323263139 572.7171234046709L714.4757070694741 568.3612338026796L710.4553551819226 566.6835452304845L707.1060787232482 562.3276556284927L707.777154152127 560.3205300275754L710.4553551819226 557.6362283120629L707.777154152127 556.3001781400235L706.4350032943703 556.3001781400235L705.7639278654924 555.2935649967058L699.7303496913055 552.2737255667539L699.0653749481444 551.2732131091539L697.7232240903877 551.938187852315L698.3942995192656 552.9448009956322L700.4014251201834 554.6224895678279L697.0521486615089 554.2869518533885L695.0389223748743 555.2935649967058L689.6764196295662 553.2803387100712L688.3403694575272 550.9376753947149L688.3403694575272 549.9310622513976L688.3403694575272 548.588911393641L686.9982185997706 547.5822982503237L685.6560677420148 545.9107103638453L687.6692940286493 542.5553332194545Z" stroke="#FFFFFF" stroke-opacity="0.75" stroke-width="1" stroke-linecap="round" stroke-linejoin="round" fill="#D3D3D3"/>
		<path name="定西市" d="M690.3474950584441 607.5703409063185L692.3607213450796 608.5769540496358L694.3739476317141 607.9058786207574L697.7232240903877 609.5835671929531L698.3942995192656 609.2480294785137L699.0653749481444 610.254642621831L699.0653749481444 612.5973059371877L701.0725005490613 612.2617682227483L702.4146514068179 613.2683813660656L703.7568022645746 617.2887332536179L705.0928524366136 615.9465823958617L713.8107323263139 620.9735474267309L718.5021596427441 625.3355377144394L721.1803606725389 626.3360501720399L723.8585617023355 625.0000000000005L725.2007125600912 627.0071256009178L724.5296371312133 628.0137387442351L729.8921398765224 629.3558896019913L731.9053661631569 627.6782010297961L731.2342907342781 625.0000000000005L733.2475170209127 623.9933868566832L731.9053661631569 623.3223114278048L731.9053661631569 620.9735474267309L735.9257180507093 617.6242709680573L737.2678689084651 612.5973059371877L739.9460699382607 611.2551550794315L738.603919080504 607.9058786207574L739.9460699382607 604.8921398765224L741.9592962248962 603.8855267332051L741.9592962248962 602.5433758754489L743.301447082652 602.2078381610095L745.3085726835689 602.2078381610095L749.3289245711221 600.8717879889705L754.0203518875524 601.2012250176922L752.0132262866346 602.8789135898878L752.6843017155124 603.8855267332051L753.3492764586745 603.8855267332051L759.3828546328614 608.5769540496358L760.0539300617393 610.254642621831L765.4164328070483 612.2617682227483L765.4164328070483 615.9465823958617L766.7585836648041 617.9598086824963L772.1210864101122 620.6380097122919L773.4571365821521 622.3156982844876L772.792161838991 625.6649747431616L770.1078601234776 631.3630152029095L769.4367846945997 634.047316918422L773.4571365821521 635.3833670904614L774.7992874399079 637.396593377096L778.1485638985823 636.7255179482177L779.490714756339 639.0742819492916L781.5039410429736 638.7387442348527L780.8328656140948 637.7321310915349L782.1750164718514 637.0610556626566L784.8532175016471 637.7321310915349L787.5375192171596 635.0539300617393L789.5446448180774 635.3833670904614L791.5578711047128 634.047316918422L794.9071475633855 634.7183923473003L796.92037385002 636.7255179482177L797.5853485931821 638.7387442348527L800.2696503086945 641.4169452646483L800.2696503086945 642.4235584079656L800.9407257375724 641.7524829790873L801.6118011664512 643.0946338368435L802.9478513384902 642.7590961224046L802.9478513384902 640.74586983577L804.2900021962469 642.7590961224046L806.3032284828814 643.4301715512825L805.6321530540035 645.1017594377608L807.6392786549213 646.4439102955175L806.3032284828814 648.4571365821525L808.9814295126771 651.4708753263872L810.9946557993117 650.4642621830699L811.6657312281905 653.4841016130217L812.3307059713507 654.1551770418996L813.0017814002285 655.8267649283785L808.3103540837992 653.8196393274607L806.3032284828814 655.8267649283785L807.6392786549213 656.8333780716957L805.6321530540035 660.8537299592476L800.9407257375724 656.1623026428174L798.9274994509378 657.5044535005741L797.5853485931821 660.5181922448087L795.5782229922643 660.1826545303697L794.9071475633855 661.8603431025649L791.5578711047128 661.524805388126L791.5578711047128 663.8735693891999L790.886795675834 662.5314185314433L789.5446448180774 662.8669562458822L788.8735693891986 663.8735693891999L789.5446448180774 664.8740818468L788.8735693891986 666.8873081334345L786.1953683594038 668.2294589911908L784.1821420727692 666.2162327045567L777.4835891554203 666.8873081334345L777.4835891554203 667.8939212767518L774.7992874399079 669.236072134508L772.1210864101122 667.2228458478735L770.1078601234776 668.2294589911908L768.765709265721 667.5583835623129L767.429659093682 668.9005344200691L768.0946338368431 670.5721223065475L766.7585836648041 672.9208863076215L757.3757290319427 672.2498108787431L755.362502745309 672.9208863076215L752.6843017155124 671.9142731643042L750 672.5853485931825L747.9928743990822 677.9478513384906L749.3289245711221 679.9549769394084L747.9928743990822 681.632665511604L749.3289245711221 682.3037409404819L748.6578491422433 685.317479684717L750.6710754288779 685.6530173991559L754.6914273164302 684.3108665413997L755.362502745309 687.3307059713516L753.3492764586745 690.3444447155866L755.362502745309 692.3576710022212L759.3828546328614 693.364284145538L758.0468044608215 696.0424851753341L759.3828546328614 696.7135606042125L761.396080919495 695.7069474608948L760.7250054906171 699.0562239195692L762.7382317772517 698.3912491764077L766.0875082359262 699.3917616340082L771.4500109812334 698.3912491764077L772.792161838991 699.3917616340082L773.4571365821521 701.0694502062033L772.1210864101122 702.0760633495206L764.0742819492907 702.41160106396L765.4164328070483 706.4319529515124L764.0742819492907 708.1096415237075L762.7382317772517 708.4451792381469L762.7382317772517 709.7812294101859L761.396080919495 709.445691695747L760.7250054906171 711.1233802679421L758.0468044608215 711.1233802679421L755.362502745309 710.1167671246253L753.3492764586745 711.4589179823815L749.3289245711221 711.4589179823815L747.3217989702034 713.1366065545772L745.3085726835689 712.1299934112599L745.3085726835689 713.4721442690166L740.6171453671395 711.4589179823815L738.603919080504 705.760877522634L734.5835671929526 704.7542643793167L733.9124917640747 702.747138778399L731.9053661631569 703.0826764928379L731.2342907342781 702.0760633495206L729.8921398765224 702.747138778399L729.2210644476436 704.0831889504384L725.2007125600912 702.41160106396L723.8585617023355 703.7537519217162L721.8514361014177 703.7537519217162L719.1671343859043 706.096415237073L721.1803606725389 709.7812294101859L722.5225115302956 710.4523048390643L723.1935869591734 712.8010688401382L721.8514361014177 713.8015812977383L717.1600087849874 713.8015812977383L714.4757070694741 717.8280338710074L711.7975060396793 714.8081944410555L709.1193050098827 714.1371190121777L705.0928524366136 709.110153981308L701.74357597794 708.1096415237075L699.0653749481444 709.110153981308L697.0521486615089 707.7741038092686L694.3739476317141 707.7741038092686L694.3739476317141 705.760877522634L696.381073232631 705.4253398081951L697.0521486615089 703.4182142072773L700.4014251201834 701.0694502062033L701.74357597794 699.0562239195692L701.0725005490613 696.0424851753341L698.3942995192656 692.6932087166601L702.4146514068179 691.6865955733429L703.0857268356958 690.0089070011472L702.4146514068179 688.6728568291082L704.4217770077357 683.6458917982386L702.4146514068179 681.968203226043L705.0928524366136 679.9549769394084L711.1264306108005 680.9615900827257L713.8107323263139 679.9549769394084L713.1396568974351 678.9544644818079L710.4553551819226 677.2767759096123L711.1264306108005 673.9274994509387L713.8107323263139 671.9142731643042L713.8107323263139 670.5721223065475L712.4685814685572 669.5655091632302L708.4482295810049 667.8939212767518L708.4482295810049 666.8873081334345L707.1060787232482 666.2162327045567L704.4217770077357 665.2096195612394L702.4146514068179 665.5451572756783L699.7303496913055 664.5446448180783L697.0521486615089 661.524805388126L697.0521486615089 657.1689157861347L696.381073232631 656.4978403572568L695.7099978037531 656.8333780716957L695.7099978037531 652.8130261841434L693.7028722028354 652.4774884697044L693.7028722028354 651.4708753263872L696.381073232631 647.7860611532742L696.381073232631 645.1017594377608L699.0653749481444 642.7590961224046L699.0653749481444 640.74586983577L701.74357597794 639.4098196637306L700.4014251201834 637.7321310915349L701.74357597794 637.396593377096L703.7568022645746 634.047316918422L703.0857268356958 633.711779203983L701.0725005490613 631.3630152029095L699.0653749481444 626.6715878864788L692.3607213450796 621.9801605700482L689.6764196295662 618.6308841113746L688.3403694575272 618.2953463969352L687.6692940286493 615.9465823958617L685.6560677420148 615.6110446814228L682.9778667122182 612.2617682227483L680.2935649967058 610.5901803362699L680.9646404255836 608.2414163351964L682.9778667122182 606.8992654774402L684.984992313136 607.2348031918791L685.6560677420148 609.2480294785137L686.9982185997706 609.2480294785137L689.6764196295662 607.5703409063185L690.3474950584441 607.5703409063185Z" stroke="#FFFFFF" stroke-opacity="0.75" stroke-width="1" stroke-linecap="round" stroke-linejoin="round" fill="#D3D3D3"/>
		<path name="天水市" d="M813.0017814002285 655.8267649283785L812.3307059713507 657.5044535005741L816.3571585446207 659.8471168159303L817.0221332877818 661.8603431025649L817.6932087166597 662.5314185314433L819.0353595744155 661.1892676736866L819.0353595744155 663.2024939603216L819.7064350032942 663.8735693891999L821.7196612899288 662.8669562458822L821.04858586105 661.8603431025649L822.3846360330899 660.1826545303697L825.0689377486024 659.8471168159303L826.411088606359 661.1892676736866L828.4182142072768 661.1892676736866L829.0892896361547 660.1826545303697L831.1025159227893 660.5181922448087L830.4314404939114 658.5110666438914L833.7807169525859 657.1689157861347L835.7939432392204 658.8466043583303L838.4721442690152 656.8333780716957L840.4853705556507 657.5044535005741L843.8346470143242 655.4912272139395L845.17679787208 656.8333780716957L845.8478733009588 654.490714756339L847.8549989018766 655.1556894995001L851.8753507894289 653.8196393274607L854.5596525049414 656.8333780716957L857.9089289636158 656.1623026428174L857.9089289636158 658.5110666438914L859.2510798213725 661.524805388126L861.9292808511673 660.8537299592476L863.9425071378027 662.1958808170039L865.2846579955585 664.8740818468L863.9425071378027 665.5451572756783L866.6207081675975 668.9005344200691L865.9557334244373 670.9076600209864L867.9628590253542 672.9208863076215L869.3050098831109 675.5990873374171L867.2917835964763 677.9478513384906L868.6339344542321 679.619439224969L865.2846579955585 680.2905146538478L863.9425071378027 681.968203226043L862.6003562800452 682.3037409404819L861.9292808511673 684.6464042558387L863.271431708924 685.9885551135949L861.9292808511673 686.6596305424732L860.5932306791283 685.317479684717L859.2510798213725 686.9951682569122L857.9089289636158 686.9951682569122L853.8885770760635 689.3378315722694L853.8885770760635 690.0089070011472L855.901803362698 691.3510578589039L855.2307279338193 693.6998218599774L859.2510798213725 694.3647966031385L862.6003562800452 693.0287464310991L865.9557334244373 694.0353595744164L867.2917835964763 696.0424851753341L868.6339344542321 695.7069474608948L871.3121354840287 697.0490983186514L870.6471607408666 697.3846360330908L871.9832109129065 698.0557114619687L873.9964371995411 701.4049879206427L878.0167890870935 702.747138778399L878.0167890870935 704.0831889504384L876.6746382293368 704.7542643793167L877.3457136582156 708.4451792381469L876.0035628004589 709.7812294101859L871.3121354840287 709.445691695747L870.6471607408666 710.1167671246253L869.9760853119888 708.4451792381469L866.6207081675975 707.4385660948296L864.6135825666806 710.1167671246253L864.6135825666806 713.4721442690166L863.271431708924 714.4726567266166L863.271431708924 716.4858830132512L859.9221552502504 718.8285463286074L857.237853534738 719.1640840430468L855.2307279338193 718.8285463286074L854.5596525049414 717.156958442129L855.901803362698 715.143732155495L854.5596525049414 711.4589179823815L851.8753507894289 711.7944556968205L849.1971497596323 717.4924961565684L847.1839234729987 718.4991092998857L844.5057224432021 717.8280338710074L841.8214207276897 718.4991092998857L837.1299934112594 715.4792698699339L831.7674906659513 716.4858830132512L829.0892896361547 718.1635715854463L827.0760633495211 717.8280338710074L825.7400131774812 716.1503452988118L825.0689377486024 716.1503452988118L821.7196612899288 718.1635715854463L821.04858586105 715.4792698699339L819.0353595744155 714.4726567266166L814.3439322579861 716.4858830132512L812.3307059713507 720.1706971863641L810.3235803704338 718.8285463286074L808.9814295126771 720.5062349008031L807.6392786549213 719.1640840430468L808.3103540837992 716.8214207276901L806.9743039117593 716.4858830132512L806.9743039117593 711.7944556968205L807.6392786549213 711.7944556968205L806.9743039117593 710.7878425535032L807.6392786549213 709.7812294101859L806.3032284828814 708.7746162668686L807.6392786549213 706.4319529515124L804.9610776251247 706.4319529515124L801.6118011664512 701.4049879206427L799.5985748798166 700.062837062886L797.5853485931821 700.3983747773254L794.9071475633855 699.0562239195692L791.5578711047128 699.0562239195692L789.5446448180774 697.7201737475298L788.8735693891986 694.7003343175775L787.5375192171596 693.364284145538L783.5110666438914 693.0287464310991L781.5039410429736 694.3647966031385L780.1617901852169 697.3846360330908L778.8196393274602 697.3846360330908L775.4703628687867 699.7272993484471L772.792161838991 699.3917616340082L771.4500109812334 698.3912491764077L766.0875082359262 699.3917616340082L762.7382317772517 698.3912491764077L760.7250054906171 699.0562239195692L761.396080919495 695.7069474608948L759.3828546328614 696.7135606042125L758.0468044608215 696.0424851753341L759.3828546328614 693.364284145538L755.362502745309 692.3576710022212L753.3492764586745 690.3444447155866L755.362502745309 687.3307059713516L754.6914273164302 684.3108665413997L750.6710754288779 685.6530173991559L748.6578491422433 685.317479684717L749.3289245711221 682.3037409404819L747.9928743990822 681.632665511604L749.3289245711221 679.9549769394084L747.9928743990822 677.9478513384906L750 672.5853485931825L752.6843017155124 671.9142731643042L755.362502745309 672.9208863076215L757.3757290319427 672.2498108787431L766.7585836648041 672.9208863076215L768.0946338368431 670.5721223065475L767.429659093682 668.9005344200691L768.765709265721 667.5583835623129L770.1078601234776 668.2294589911908L772.1210864101122 667.2228458478735L774.7992874399079 669.236072134508L777.4835891554203 667.8939212767518L777.4835891554203 666.8873081334345L784.1821420727692 666.2162327045567L786.1953683594038 668.2294589911908L788.8735693891986 666.8873081334345L789.5446448180774 664.8740818468L788.8735693891986 663.8735693891999L789.5446448180774 662.8669562458822L790.886795675834 662.5314185314433L791.5578711047128 663.8735693891999L791.5578711047128 661.524805388126L794.9071475633855 661.8603431025649L795.5782229922643 660.1826545303697L797.5853485931821 660.5181922448087L798.9274994509378 657.5044535005741L800.9407257375724 656.1623026428174L805.6321530540035 660.8537299592476L807.6392786549213 656.8333780716957L806.3032284828814 655.8267649283785L808.3103540837992 653.8196393274607L813.0017814002285 655.8267649283785Z" stroke="#FFFFFF" stroke-opacity="0.75" stroke-width="1" stroke-linecap="round" stroke-linejoin="round" fill="#D3D3D3"/>
		<path name="兰州市" d="M634.7214426901583 556.6357158544624L636.0574928621982 557.3006905976235L639.4128700065885 556.9651528831841L642.0910710363842 554.2869518533885L640.0839454354673 551.938187852315L643.4332218941408 552.2737255667539L645.4403474950586 550.9376753947149L647.4535737816923 548.2533736792016L646.1114229239365 547.2467605358843L646.7824983528144 546.2462480782842L648.795724639449 546.5817857927232L650.1378754972066 545.5751726494059L656.1653529856758 544.904097220528L657.5075038434316 546.2462480782842L660.1857048732281 546.2462480782842L660.856780302106 545.239634934967L665.5482076185363 545.9107103638453L665.5482076185363 543.5619463627718L664.2121574464973 542.2197955050151L667.5614339051708 540.2126699040978L668.2325093340496 540.5482076185367L666.2192830474141 542.8908709338934L670.2396349349665 545.5751726494059L670.9107103638444 547.9178359647626L672.9239366504789 547.5822982503237L675.6021376802755 551.938187852315L680.2935649967058 550.2665999658366L688.3403694575272 550.9376753947149L689.6764196295662 553.2803387100712L695.0389223748743 555.2935649967058L697.0521486615089 554.2869518533885L700.4014251201834 554.6224895678279L698.3942995192656 552.9448009956322L697.7232240903877 551.938187852315L699.0653749481444 551.2732131091539L699.7303496913055 552.2737255667539L705.7639278654924 555.2935649967058L706.4350032943703 556.3001781400235L707.777154152127 556.3001781400235L710.4553551819226 557.6362283120629L707.777154152127 560.3205300275754L707.1060787232482 562.3276556284927L710.4553551819226 566.6835452304845L714.4757070694741 568.3612338026796L713.8107323263139 572.7171234046709L715.8178579272308 575.0658874057449L716.4889333561096 578.0796261499795L720.509285243661 583.1065911808491L721.1803606725389 585.4553551819226L723.8585617023355 582.7710534664102L725.87178798897 582.7710534664102L726.5428634178479 581.7644403230929L728.5560897044825 581.4289026086535L731.2342907342781 581.4289026086535L732.5764415920348 580.0928524366141L737.2678689084651 579.7573147221751L737.2678689084651 578.7507015788578L739.2749945093829 578.4151638644184L742.6303716537741 576.4019375777843L743.301447082652 576.7374752922233L743.301447082652 583.7776666097275L745.9796481124476 589.1401693550356L743.9664218258131 590.8178579272317L745.3085726835689 593.160521242588L747.9928743990822 593.160521242588L746.6507235413255 597.5164108445792L745.3085726835689 598.1874862734576L743.301447082652 602.2078381610095L741.9592962248962 602.5433758754489L741.9592962248962 603.8855267332051L739.9460699382607 604.8921398765224L738.603919080504 607.9058786207574L739.9460699382607 611.2551550794315L737.2678689084651 612.5973059371877L735.9257180507093 617.6242709680573L731.9053661631569 620.9735474267309L731.9053661631569 623.3223114278048L733.2475170209127 623.9933868566832L731.2342907342781 625.0000000000005L731.9053661631569 627.6782010297961L729.8921398765224 629.3558896019913L724.5296371312133 628.0137387442351L725.2007125600912 627.0071256009178L723.8585617023355 625.0000000000005L721.1803606725389 626.3360501720399L718.5021596427441 625.3355377144394L713.8107323263139 620.9735474267309L705.0928524366136 615.9465823958617L703.7568022645746 617.2887332536179L702.4146514068179 613.2683813660656L701.0725005490613 612.2617682227483L699.0653749481444 612.5973059371877L699.0653749481444 610.254642621831L698.3942995192656 609.2480294785137L697.7232240903877 609.5835671929531L694.3739476317141 607.9058786207574L692.3607213450796 608.5769540496358L690.3474950584441 607.5703409063185L689.6764196295662 606.2281900485618L690.3474950584441 604.221064447644L689.0114448864051 603.2144513043268L689.6764196295662 602.2078381610095L685.6560677420148 597.8519485590186L680.2935649967058 596.509797701262L678.9575148246659 598.523023987897L676.9442885380313 598.8585617023359L676.2732131091534 598.523023987897L674.9310622513967 595.8448229581008L672.9239366504789 595.8448229581008L670.9107103638444 594.1671343859052L668.2325093340496 594.5026721003442L658.8496547011882 590.8178579272317L656.1653529856758 590.8178579272317L653.4871519558792 589.1401693550356L652.8160765270013 587.4624807828404L647.4535737816923 585.1198174674837L645.4403474950586 583.1065911808491L642.0910710363842 582.7710534664102L641.4199956075054 581.7644403230929L641.4199956075054 579.4217770077357L637.3996437199539 575.0658874057449L639.4128700065885 573.0526611191099L636.0574928621982 570.0389223748753L635.3925181190361 569.032309231558L636.728568291076 568.0256960882407L628.0167890870935 562.3276556284927L627.3457136582147 559.6494545986975L628.0167890870935 558.6428414553802L630.030015373728 558.3073037409408L632.7082164035237 555.9646404255841L634.7214426901583 556.6357158544624Z  M687.6692940286493 542.5553332194545L685.6560677420148 545.9107103638453L686.9982185997706 547.5822982503237L688.3403694575272 548.588911393641L688.3403694575272 549.9310622513976L680.2935649967058 545.9107103638453L676.9442885380313 546.2462480782842L673.5950120793568 547.5822982503237L672.9239366504789 544.5685595060886L670.9107103638444 544.5685595060886L670.9107103638444 543.8974840772107L670.9107103638444 542.8908709338934L677.6153639669092 541.554820761854L684.3200175699749 543.5619463627718L684.984992313136 543.2264086483324L684.3200175699749 541.219283047415L687.6692940286493 542.5553332194545Z" stroke="#FFFFFF" stroke-opacity="0.75" stroke-width="1" stroke-linecap="round" stroke-linejoin="round" fill="#D3D3D3"/>
		<path name="平凉市" d="M794.9071475633855 634.7183923473003L798.9274994509378 634.3828546328609L798.25642402206 632.7051660606658L802.2828765953291 631.0274774884701L802.9478513384902 627.6782010297961L805.6321530540035 627.3426633153572L801.6118011664512 622.651235998927L801.6118011664512 620.9735474267309L802.9478513384902 619.9730349691308L807.6392786549213 619.9730349691308L808.3103540837992 622.3156982844876L808.3103540837992 620.9735474267309L814.3439322579861 618.6308841113746L818.3642841455376 620.3085726835698L819.7064350032942 619.9730349691308L818.3642841455376 621.6446228556092L817.6932087166597 619.9730349691308L815.6860831157428 622.3156982844876L817.6932087166597 623.3223114278048L817.0221332877818 624.6644622855615L819.7064350032942 626.3360501720399L819.7064350032942 625.6649747431616L819.7064350032942 627.3426633153572L821.7196612899288 628.349276458674L822.3846360330899 629.6914273164307L823.7267868908466 629.3558896019913L824.3978623197245 634.047316918422L825.7400131774812 634.047316918422L826.411088606359 631.6985529173485L828.4182142072768 631.0274774884701L835.1228678103416 632.3696283462268L835.7939432392204 634.3828546328609L839.143219697894 634.3828546328609L840.4853705556507 633.0407037751047L840.4853705556507 633.711779203983L839.8142951267728 634.3828546328609L839.143219697894 634.7183923473003L839.143219697894 636.3899802337787L841.1564459845285 642.0880206935262L841.8214207276897 642.4235584079656L845.17679787208 638.0676688059739L846.5128480441199 639.4098196637306L849.1971497596323 639.4098196637306L850.539300617389 644.1012469801608L856.5667781058592 649.7992874399088L857.237853534738 649.1282120110304L857.237853534738 647.7860611532742L859.9221552502504 647.4505234388353L863.271431708924 645.4372971522002L865.2846579955585 642.7590961224046L864.6135825666806 635.0539300617393L863.271431708924 635.0539300617393L861.9292808511673 632.7051660606658L862.6003562800452 629.0203518875524L863.9425071378027 629.3558896019913L861.2582054222894 622.651235998927L865.2846579955585 619.6374972546919L870.6471607408666 619.9730349691308L872.6542863417844 618.9664218258135L873.9964371995411 620.9735474267309L875.3385880572978 621.3090851411703L876.6746382293368 619.9730349691308L877.3457136582156 621.3090851411703L880.7010908026059 622.3156982844876L887.3996437199539 625.3355377144394L891.4199956075063 628.6848141731134L898.795724639449 634.047316918422L899.4668000683278 635.7189048049004L899.4668000683278 635.0539300617393L901.4739256692455 636.0544425193393L903.4871519558801 634.3828546328609L906.1653529856758 635.7189048049004L907.5075038434325 632.7051660606658L908.1785792723103 633.3762414895436L913.5410820176194 632.7051660606658L915.5482076185363 634.7183923473003L919.5746601918054 634.7183923473003L920.2396349349665 633.711779203983L921.5817857927232 633.711779203983L924.9310622513976 635.0539300617393L924.9310622513976 636.3899802337787L926.2732131091534 636.3899802337787L926.2732131091534 635.0539300617393L928.9575148246659 634.047316918422L928.9575148246659 635.3833670904614L930.9646404255845 636.3899802337787L933.648942141097 636.3899802337787L935.6560677420139 638.0676688059739L938.3403694575272 638.4032065204133L938.3403694575272 641.081407550209L941.0185704873229 643.0946338368435L941.0185704873229 645.4372971522002L939.0114448864051 646.1083725810781L940.3474950584441 646.4439102955175L941.0185704873229 647.4505234388353L939.0114448864051 649.4637497254694L938.3403694575272 648.7926742965915L935.6560677420139 649.4637497254694L939.0114448864051 653.1485638985823L940.3474950584441 657.5044535005741L942.3607213450787 659.1821420727692L942.3607213450787 660.1826545303697L945.7099978037531 662.8669562458822L947.0521486615098 662.8669562458822L947.0521486615098 663.8735693891999L948.3942995192656 664.2091071036389L944.3739476317132 666.5517704189956L936.9982185997706 667.2228458478735L934.3200175699749 669.236072134508L934.3200175699749 666.8873081334345L932.9778667122182 666.5517704189956L932.3067912833403 667.2228458478735L930.2935649967058 665.8806949901173L927.6153639669101 669.5655091632302L922.9239366504789 669.5655091632302L920.2396349349665 668.2294589911908L918.2325093340487 669.236072134508L914.2121574464973 668.2294589911908L912.1989311598618 670.2365845921086L907.5075038434325 671.5787354498652L906.1653529856758 668.2294589911908L902.1450010981234 667.2228458478735L901.4739256692455 666.2162327045567L901.4739256692455 663.538031674761L898.795724639449 662.8669562458822L898.1246492105711 661.8603431025649L896.1114229239365 662.5314185314433L895.4403474950586 660.1826545303697L893.4332218941408 660.5181922448087L889.4128700065894 658.5110666438914L885.392518119037 659.5176797872082L878.6878645159713 658.175528929452L877.3457136582156 659.5176797872082L875.3385880572978 660.1826545303697L868.6339344542321 658.8466043583303L866.6207081675975 662.5314185314433L863.9425071378027 662.1958808170039L861.9292808511673 660.8537299592476L859.2510798213725 661.524805388126L857.9089289636158 658.5110666438914L857.9089289636158 656.1623026428174L854.5596525049414 656.8333780716957L851.8753507894289 653.8196393274607L847.8549989018766 655.1556894995001L845.8478733009588 654.490714756339L845.17679787208 656.8333780716957L843.8346470143242 655.4912272139395L840.4853705556507 657.5044535005741L838.4721442690152 656.8333780716957L835.7939432392204 658.8466043583303L833.7807169525859 657.1689157861347L830.4314404939114 658.5110666438914L831.1025159227893 660.5181922448087L829.0892896361547 660.1826545303697L828.4182142072768 661.1892676736866L826.411088606359 661.1892676736866L825.0689377486024 659.8471168159303L822.3846360330899 660.1826545303697L821.04858586105 661.8603431025649L821.7196612899288 662.8669562458822L819.7064350032942 663.8735693891999L819.0353595744155 663.2024939603216L819.0353595744155 661.1892676736866L817.6932087166597 662.5314185314433L817.0221332877818 661.8603431025649L816.3571585446207 659.8471168159303L812.3307059713507 657.5044535005741L813.0017814002285 655.8267649283785L812.3307059713507 654.1551770418996L811.6657312281905 653.4841016130217L810.9946557993117 650.4642621830699L808.9814295126771 651.4708753263872L806.3032284828814 648.4571365821525L807.6392786549213 646.4439102955175L805.6321530540035 645.1017594377608L806.3032284828814 643.4301715512825L804.2900021962469 642.7590961224046L802.9478513384902 640.74586983577L802.9478513384902 642.7590961224046L801.6118011664512 643.0946338368435L800.9407257375724 641.7524829790873L800.2696503086945 642.4235584079656L800.2696503086945 641.4169452646483L797.5853485931821 638.7387442348527L796.92037385002 636.7255179482177L794.9071475633855 634.7183923473003Z M828.4182142072768 639.0742819492916L828.4182142072768 636.7255179482177L837.8010688401373 634.3828546328609L837.8010688401373 637.0610556626566L836.4650186680983 635.7189048049004L835.1228678103416 637.7321310915349L828.4182142072768 639.0742819492916Z" stroke="#FFFFFF" stroke-opacity="0.75" stroke-width="1" stroke-linecap="round" stroke-linejoin="round" fill="#D3D3D3"/>
		<path name="临夏回族自治州" d="M656.1653529856758 590.8178579272317L658.8496547011882 590.8178579272317L668.2325093340496 594.5026721003442L670.9107103638444 594.1671343859052L672.9239366504789 595.8448229581008L674.9310622513967 595.8448229581008L676.2732131091534 598.523023987897L676.9442885380313 598.8585617023359L678.9575148246659 598.523023987897L680.2935649967058 596.509797701262L685.6560677420148 597.8519485590186L689.6764196295662 602.2078381610095L689.0114448864051 603.2144513043268L690.3474950584441 604.221064447644L689.6764196295662 606.2281900485618L690.3474950584441 607.5703409063185L689.6764196295662 607.5703409063185L686.9982185997706 609.2480294785137L685.6560677420148 609.2480294785137L684.984992313136 607.2348031918791L682.9778667122182 606.8992654774402L680.9646404255836 608.2414163351964L680.2935649967058 610.5901803362699L682.9778667122182 612.2617682227483L685.6560677420148 615.6110446814228L687.6692940286493 615.9465823958617L688.3403694575272 618.2953463969352L689.6764196295662 618.6308841113746L692.3607213450796 621.9801605700482L699.0653749481444 626.6715878864788L701.0725005490613 631.3630152029095L703.0857268356958 633.711779203983L703.7568022645746 634.047316918422L701.74357597794 637.396593377096L700.4014251201834 637.7321310915349L701.74357597794 639.4098196637306L699.0653749481444 640.74586983577L699.0653749481444 642.7590961224046L696.381073232631 645.1017594377608L696.381073232631 647.7860611532742L693.7028722028354 651.4708753263872L693.7028722028354 652.4774884697044L695.7099978037531 652.8130261841434L695.7099978037531 656.8333780716957L696.381073232631 656.4978403572568L697.0521486615089 657.1689157861347L697.0521486615089 661.524805388126L699.7303496913055 664.5446448180783L702.4146514068179 665.5451572756783L701.74357597794 667.2228458478735L698.3942995192656 664.5446448180783L698.3942995192656 667.5583835623129L697.7232240903877 667.8939212767518L696.381073232631 666.5517704189956L696.381073232631 664.5446448180783L694.3739476317141 661.8603431025649L689.0114448864051 658.175528929452L682.3067912833403 655.1556894995001L681.6357158544624 656.4978403572568L674.2660875082356 655.8267649283785L669.5746601918054 653.4841016130217L668.2325093340496 651.1353376119478L668.9035847629275 650.7997998975088L667.5614339051708 650.1287244686309L661.5278557309848 650.7997998975088L658.1785792723103 649.7992874399088L656.8364284145537 647.7860611532742L652.1450010981234 647.1149857243959L649.4668000683278 648.7926742965915L648.795724639449 647.4505234388353L649.4668000683278 642.7590961224046L648.795724639449 639.74535737817L646.1114229239365 638.0676688059739L644.7753727518975 639.4098196637306L643.4332218941408 639.0742819492916L640.7489201786275 636.3899802337787L636.0574928621982 634.047316918422L638.7417945777106 632.0340906317874L635.3925181190361 632.7051660606658L635.3925181190361 632.0340906317874L640.0839454354673 629.6914273164307L637.3996437199539 627.0071256009178L637.3996437199539 625.0000000000005L633.3792918324016 620.9735474267309L632.7082164035237 617.6242709680573L633.3792918324016 615.6110446814228L638.0707191488327 611.9262305083093L648.795724639449 613.603919080505L648.1246492105711 606.5637277630012L649.4668000683278 604.221064447644L648.795724639449 601.8723004465705L650.1378754972066 601.2012250176922L645.4403474950586 599.5296371312138L644.7753727518975 597.8519485590186L648.1246492105711 596.509797701262L648.795724639449 594.1671343859052L649.4668000683278 593.8315966714663L650.8028502403668 591.4828326703928L656.1653529856758 590.8178579272317Z" stroke="#FFFFFF" stroke-opacity="0.75" stroke-width="1" stroke-linecap="round" stroke-linejoin="round" fill="#D3D3D3"/>
		<path name="金昌市" d="M554.9610776251247 477.8819639327462L557.6392786549204 471.1773103296814L561.6657312281895 467.49249615656845L558.9814295126771 465.47926986993343L554.9610776251247 457.7741038092686L558.3103540837992 456.76749066595085L560.9946557993117 457.4385660948292L564.3439322579861 454.75426437931674L565.015007686864 452.74713877839895L575.0689377486024 445.03587203201687L577.0760633495202 441.0155201444645L589.143219697894 431.968203226043L590.4853705556507 429.2900021962473L594.505722443203 427.27677590961275L586.4650186680983 420.23658459210856L598.5260743307545 421.24319773542584L616.6207081675975 425.26354962297773L613.271431708924 432.30374094048193L615.9557334244364 433.3103540837992L614.6135825666806 440.6799824300251L618.633934454233 443.6998218599774L619.3050098831109 448.0557114619687L623.3253617706623 450.7339124917644L625.3385880572978 455.760877522634L630.030015373728 456.09641523707296L632.7082164035237 460.1167671246253L632.7082164035237 464.1371190121772L634.7214426901583 466.15034529881177L635.3925181190361 467.1569584421295L634.7214426901583 469.16408404304684L632.0371409746458 470.50623490080307L632.0371409746458 471.51284804412035L623.9964371995411 470.1706971863641L617.2917835964763 474.191049073916L615.9557334244364 474.191049073916L613.9425071378027 472.5194611874376L607.9089289636158 473.5199736450377L605.2307279338193 474.191049073916L603.8885770760635 477.2108885038683L601.2103760462678 477.2108885038683L596.5128480441199 479.21801410478565L593.1635715854463 479.5535518192246L591.1564459845285 475.5331999316727L587.8010688401382 476.53981307499L583.7807169525859 475.19766221723376L581.7674906659513 475.19766221723376L579.7603650650326 477.2108885038683L575.0689377486024 475.5331999316727L573.0557114619678 475.5331999316727L571.7196612899288 477.2108885038683L569.0353595744164 475.8687376461121L567.6932087166597 477.54642621830726L559.652504941555 477.2108885038683L556.3032284828814 478.8824763903467L554.9610776251247 477.8819639327462Z" stroke="#FFFFFF" stroke-opacity="0.75" stroke-width="1" stroke-linecap="round" stroke-linejoin="round" fill="#D3D3D3"/>
		<path name="嘉峪关市" d="M336.4650186680974 377.00712560091824L337.8010688401373 375.6649747431611L343.8346470143242 373.9933868566827L345.8478733009588 370.97354742673133L348.52607433075536 369.6374972546919L345.8478733009588 366.6176578247396L348.52607433075536 364.61053222382225L347.1839234729987 363.9394567949439L347.85499890187657 362.5973059371877L350.539300617389 362.26176822274874L351.2103760462678 361.25515507943146L363.27143170892396 360.59018033627035L365.2846579955585 361.9262305083098L370.64716074086755 361.25515507943146L373.3253617706632 362.26176822274874L375.3385880572978 361.25515507943146L376.6746382293368 362.26176822274874L376.003562800458 363.9394567949439L378.01678908709255 364.61053222382225L378.68786451597134 365.9465823958617L377.34571365821466 366.953195539179L376.003562800458 367.62427096805686L376.6746382293368 368.96642182581354L376.003562800458 369.30195954025294L367.9628590253542 372.6512359989265L368.633934454233 373.9933868566827L371.98321091290654 376.67158788647885L369.30500988311087 380.3564020595918L363.27143170892396 378.01373874423507L359.2510798213716 378.01373874423507L358.5800043924937 377.3426633153572L356.56677810585916 377.6782010297961L354.55965250494137 380.3564020595918L347.1839234729987 381.698552917348L343.16357158544633 378.01373874423507L336.4650186680974 377.00712560091824Z" stroke="#FFFFFF" stroke-opacity="0.75" stroke-width="1" stroke-linecap="round" stroke-linejoin="round" fill="#D3D3D3"/>
	</g>
</svg>