<?xml version="1.0" encoding="UTF-8" standalone="no"?><!-- Generator: Adobe Illustrator 18.0.0, SVG Export Plug-In . SVG Version: 6.00 Build 0)  --><svg xmlns="http://www.w3.org/2000/svg" xmlns:xlink="http://www.w3.org/1999/xlink" contentScriptType="text/ecmascript" zoomAndPan="magnify" contentStyleType="text/css" id="图层_1" mapName="福建省" mapType="省市地图" enable-background="new 0 0 1000 1000" version="1.1" xml:space="preserve" preserveAspectRatio="xMidYMid meet" viewBox="0 0 1000 1000" x="0px" y="0px">
	<g>
		<path name="南平市" d="M695.0754097022436 194.5039694687648L695.0754097022436 198.99385701748997L699.565297250967 204.60621645339688L692.8304659278765 209.07569542235524L692.8304659278765 216.93299863262564L686.0956346047897 218.05547051980648L683.871099410193 228.13730892467265L692.8304659278765 233.74966836057865L695.0754097022436 233.74966836057865L699.565297250967 238.23955590930473L692.8304659278765 240.4844996836673L686.0956346047897 234.8721402477604L683.871099410193 239.36202779648556L679.381211861466 239.36202779648556L679.381211861466 247.19892242698825L683.871099410193 248.32139431417L681.6261556358331 251.6888099757134L681.6261556358331 255.05622563725774L683.871099410193 256.1786975244395L683.871099410193 258.40323271903526L677.1362680871061 259.525704606217L674.8913243127427 262.8931202677604L670.4014367640157 264.01559215494217L668.176901569419 266.26053592930475L670.4014367640157 269.6279515908491L668.176901569419 270.7504234780308L661.4420702463358 264.01559215494217L661.4420702463358 261.7706483805796L654.7072389232453 261.7706483805796L652.4827037286486 259.525704606217L652.4827037286486 260.64817649339784L641.2579848568384 261.7706483805796L639.0130410824713 259.525704606217L641.2579848568384 255.05622563725774L639.0130410824713 251.6888099757134L636.7680973081115 248.32139431417L634.5435621135111 247.19892242698825L634.5435621135111 248.32139431417L632.2986183391513 250.56633808853258L634.5435621135111 255.05622563725774L632.2986183391513 259.525704606217L632.2986183391513 260.64817649339784L627.808730790428 258.40323271903526L623.318843241701 262.8931202677604L618.8493642727408 276.3423743341709L612.114532949654 277.46484622135176L609.8695891752905 284.1996775444404L600.9102226576069 287.56709320598384L600.9102226576069 290.91410028776136L596.4203351088836 293.15904406212394L589.6855037857931 289.8120369803464L585.2160248168329 292.0365721749422L580.7261372681096 293.15904406212394L578.4811934937461 295.4039878364865L582.9710810424731 301.01634727239343L580.7261372681096 307.7307700157153L567.2768832016991 313.3431294516222L569.5218269760626 322.3229045490725L567.2768832016991 324.5474397436692L560.5420518786086 340.24163758444047L558.2971081042488 341.3641094716222L560.5420518786086 351.4663564562543L558.2971081042488 360.4257229739387L558.2971081042488 367.1605542970274L562.7869956529757 368.2830261842082L560.5420518786086 373.8749770403483L562.7869956529757 372.7525051531675L565.0319394273356 373.8749770403483L560.5420518786086 383.9772240249813L560.5420518786086 389.5691748811205L558.2971081042488 387.3446396865247L553.8276291352886 391.81411865548307L551.5826853609287 396.30400620420824L551.5826853609287 403.0388375272969L551.5826853609287 408.630788383437L553.8276291352886 408.630788383437L558.2971081042488 410.8757321577996L565.0319394273356 410.8757321577996L573.9913059450228 416.4880915937065L576.2362497193826 417.61056348088823L571.7463621706556 420.97797914243256L573.9913059450228 426.56992999857266L576.2362497193826 433.3047613216604L569.5218269760626 433.3047613216604L565.0319394273356 425.4474581113909L558.2971081042488 420.97797914243256L556.0521643298853 420.97797914243256L551.5826853609287 417.61056348088823L547.0927978122018 417.61056348088823L542.6029102634784 413.12067593216216L540.3579664891149 410.8757321577996L533.6435437457912 415.36561970652565L531.3985999714278 415.36561970652565L526.9087124227044 413.12067593216216L526.9087124227044 408.630788383437L526.9087124227044 405.26337272189267L531.3985999714278 407.50831649625525L531.3985999714278 404.16130941447864L529.1536561970679 405.26337272189267L526.9087124227044 404.16130941447864L517.9493459050209 405.26337272189267L513.4594583562939 403.0388375272969L511.2145145819304 404.16130941447864L508.96957080757056 400.7938937529343L506.72462703320343 401.91636564011515L506.72462703320343 397.42647809139L502.2551480642469 398.5489499785708L495.52031674116006 401.91636564011515L493.27537296679657 401.91636564011515L491.0304291924331 405.26337272189267L484.31600644911305 403.0388375272969L482.07106267474956 405.26337272189267L477.5811751260226 407.50831649625525L473.0912875772992 406.3858446090744L473.0912875772992 408.630788383437L470.86675238270254 408.630788383437L461.8869772852522 405.26337272189267L459.6420335108887 407.50831649625525L457.39708973652523 406.3858446090744L457.39708973652523 404.16130941447864L457.39708973652523 400.7938937529343L452.9276107675687 398.5489499785708L450.6826669932052 392.9365905426639L450.6826669932052 389.5691748811205L446.1927794444782 391.81411865548307L443.94783567011837 389.5691748811205L446.1927794444782 386.2221677993439L448.4377232188417 385.09969591216213L448.4377232188417 382.85475213779955L439.4783567011582 381.7322802506178L439.4783567011582 377.24239270189264L434.98846915243485 376.1199208147109L432.7435253780677 370.5279699585708L428.25363782934437 368.2830261842082L421.53921508602434 371.65044184575254L417.04932753729736 369.40549807138996L412.5594399885704 371.65044184575254L412.5594399885704 366.03808240984563L410.3144962142105 362.6706667483013L408.06955243984703 355.93583542521355L410.3144962142105 352.58882834343603L408.06955243984703 346.9764689075291L403.6000734708905 349.2214126818917L392.37535459907303 349.2214126818917L378.92610053266253 351.4663564562543L374.4362129839392 355.93583542521355L369.96673401498265 354.8337721177986L367.72179024061916 351.4663564562543L365.47684646625567 351.4663564562543L365.47684646625567 348.09894079470996L360.9869589175323 346.9764689075291L356.51747994857215 342.48658135880305L358.7420151431652 338.0171023898447L360.9869589175323 338.0171023898447L365.47684646625567 334.6496867283013L367.72179024061916 329.03732729239437L372.2116777893425 326.7923835180318L369.96673401498265 324.5474397436692L372.2116777893425 322.3229045490725L363.2319026918922 314.465601338803L360.9869589175323 307.7307700157153L358.7420151431652 307.7307700157153L356.51747994857215 304.38376293393776L354.27253617420865 296.52645972366827L349.7826486254853 297.6489316108491L347.5377048511218 295.4039878364865L345.2927610767583 297.6489316108491L343.04781730239483 296.52645972366827L338.57833833343466 297.6489316108491L338.57833833343466 293.15904406212394L343.04781730239483 289.8120369803464L340.82328210779815 284.1996775444404L343.04781730239483 283.0772056572587L343.04781730239483 280.8322618828961L334.0884507847077 278.5873181085335L327.3536194616245 280.8322618828961L325.10867568725735 269.6279515908491L322.8841404926643 268.50547970366733L320.6391967183008 272.9953672523934L318.3942529439373 270.7504234780308L316.14930916957746 268.50547970366733L316.14930916957746 266.26053592930475L313.904365395214 265.1380640421239L311.6594216208505 261.7706483805796L304.94499887753045 261.7706483805796L295.9652237800801 256.1786975244395L291.49574481111995 256.1786975244395L289.25080103675646 259.525704606217L291.49574481111995 258.40323271903526L293.72028000571663 259.525704606217L291.49574481111995 262.8931202677604L291.49574481111995 269.6279515908491L284.7609134880295 275.2199024469892L284.7609134880295 272.9953672523934L275.78113839057914 269.6279515908491L271.3116594216226 261.7706483805796L266.8217718728956 259.525704606217L260.0869405498088 262.8931202677604L255.6174615808486 259.525704606217L253.37251780648512 261.7706483805796L248.88263025776178 261.7706483805796L248.88263025776178 259.525704606217L244.3927427090348 260.64817649339784L244.3927427090348 253.9337537500769L244.3927427090348 250.56633808853258L251.12757403212527 244.95397865262566L255.6174615808486 239.36202779648556L257.8624053552121 239.36202779648556L264.57682809853213 232.62719647339782L269.0667156472591 222.54535806853255L269.0667156472591 220.30041429416997L262.3318843241723 220.30041429416997L262.3318843241723 215.8105267454439L257.8624053552121 214.68805485826306L255.6174615808486 212.44311108389957L255.6174615808486 204.60621645339688L260.0869405498088 197.87138513030823L262.3318843241723 191.1569623869873L257.8624053552121 187.78954672544296L257.8624053552121 184.42213106389954L255.6174615808486 183.2996591767178L257.8624053552121 182.17718728953696L255.6174615808486 176.56482785363005L255.6174615808486 172.0953488846717L251.12757403212527 166.48298944876478L246.63768648339828 170.97287699748995L237.67831996571476 167.60546133594562L239.92326374007462 163.11557378722046L239.92326374007462 160.87063001285787L237.67831996571476 158.6460948182612L235.43337619135127 154.15620726953603L235.43337619135127 151.91126349517344L239.92326374007462 150.7887916079917L239.92326374007462 147.42137594644737L242.16820751444175 145.1764321720848L246.63768648339828 145.1764321720848L253.37251780648512 154.15620726953603L255.6174615808486 153.03373538235428L257.8624053552121 148.54384783362912L255.6174615808486 145.1764321720848L257.8624053552121 141.82942509030727L262.3318843241723 140.70695320312643L269.0667156472591 142.9314883977222L273.55660319598246 141.82942509030727L275.78113839057914 142.9314883977222L275.78113839057914 135.09459376721952L284.7609134880295 135.09459376721952L287.00585726239296 132.84964999285694L289.25080103675646 132.84964999285694L291.49574481111995 128.35976244413177L291.49574481111995 125.01275536235426L295.9652237800801 125.01275536235426L295.9652237800801 111.54309271617785L291.49574481111995 107.0736137472195L291.49574481111995 104.828669972856L300.45511132880347 99.2163105369491L302.70005510316696 101.46125431131259L302.70005510316696 105.95114186003775L304.94499887753045 107.0736137472195L309.414477846487 101.46125431131259L318.3942529439373 99.2163105369491L327.3536194616245 90.25694401926557L331.8435070103478 91.37941590644641L338.57833833343466 86.88952835772125L338.57833833343466 82.39964080899608L340.82328210779815 81.27716892181434L347.5377048511218 84.64458458335866L349.7826486254853 85.7670564705395L349.7826486254853 90.25694401926557L354.27253617420865 92.50188779362816L354.27253617420865 95.84889487540568L356.51747994857215 100.33878242413084L358.7420151431652 104.828669972856L369.96673401498265 109.31855752158208L374.4362129839392 113.78803649054043L378.92610053266253 111.54309271617785L381.17104430702966 114.91050837772218L385.660931855753 118.27792403926651L394.62029837344016 107.0736137472195L394.62029837344016 104.828669972856L394.62029837344016 99.2163105369491L410.3144962142105 89.13447213208383L412.5594399885704 90.25694401926557L419.29427131166085 88.01200024490208L426.0086940549809 83.52211269617692L430.49858160370786 85.7670564705395L434.98846915243485 83.52211269617692L437.2334129267947 80.1546970346335L439.4783567011582 81.27716892181434L446.1927794444782 80.1546970346335L448.4377232188417 81.27716892181434L450.6826669932052 81.27716892181434L455.1725545419322 84.64458458335866L457.39708973652523 84.64458458335866L457.39708973652523 76.78728137308917L459.6420335108887 74.5627461784934L464.1319210596157 74.5627461784934L464.1319210596157 70.07285862976823L466.37686483397556 66.7054429682239L470.86675238270254 64.46049919386132L479.82611890038606 66.7054429682239L484.31600644911305 65.58297108104216L488.7854854180732 62.21555541949783L491.0304291924331 63.33802730667958L502.2551480642469 58.86854833772122L511.2145145819304 58.86854833772122L511.2145145819304 52.133717014632566L513.4594583562939 51.01124512745082L511.2145145819304 46.521357578725656L515.7044021306574 44.276413804363074L515.7044021306574 39.80693483540381L508.96957080757056 37.561991061041226L502.2551480642469 31.949631625135225L520.1942896793807 20.745321333088214L526.9087124227044 18.50037755872563L526.9087124227044 20.745321333088214L531.3985999714278 24.11273699463254L529.1536561970679 26.357680768995124L533.6435437457912 27.48015265617687L535.8884875201547 26.357680768995124L538.1130227147514 28.582215963590897L540.3579664891149 26.357680768995124L538.1130227147514 22.990265107450796L540.3579664891149 20.745321333088214L544.8478540378383 22.990265107450796L549.3377415865652 21.86779322026996L551.5826853609287 19.622849445906468L558.2971081042488 19.622849445906468L560.5420518786086 21.86779322026996L560.5420518786086 25.235208881814287L565.0319394273356 25.235208881814287L569.5218269760626 21.86779322026996L576.2362497193826 21.86779322026996L580.7261372681096 14.010490009999558L585.2160248168329 14.010490009999558L587.4405600114333 16.25543378436305L587.4405600114333 19.622849445906468L591.9304475601566 26.357680768995124L600.9102226576069 28.582215963590897L603.1551664319704 30.82715973795348L603.1551664319704 35.317047286678644L596.4203351088836 38.68446294822297L594.1753913345201 43.174350496948136L594.1753913345201 44.276413804363074L598.6652788832434 42.0518786097673L600.9102226576069 43.174350496948136L603.1551664319704 45.39888569154391L603.1551664319704 53.25618890181431L598.6652788832434 55.501132676176894L596.4203351088836 55.501132676176894L594.1753913345201 58.86854833772122L589.6855037857931 58.86854833772122L585.2160248168329 63.33802730667958L585.2160248168329 67.82791485540474L587.4405600114333 71.19533051694907L587.4405600114333 74.5627461784934L587.4405600114333 83.52211269617692L591.9304475601566 89.13447213208383L600.9102226576069 91.37941590644641L600.9102226576069 93.60395110104218L605.3797016265635 94.72642298822393L605.3797016265635 99.2163105369491L607.6246454009306 100.33878242413084L607.6246454009306 102.58372619849342L609.8695891752905 105.95114186003775L607.6246454009306 109.31855752158208L612.114532949654 116.03298026490302L612.114532949654 125.01275536235426L616.6044204983809 131.7271781056752L621.0738994673375 136.21706565440127L616.6044204983809 138.46200942876385L616.6044204983809 140.70695320312643L623.318843241701 150.7887916079917L623.318843241701 155.27867915671777L625.5637870160608 155.27867915671777L623.318843241701 160.87063001285787L623.318843241701 166.48298944876478L621.0738994673375 174.34029265903428L614.3594767240138 174.34029265903428L614.3594767240138 175.4423559664483L616.6044204983809 176.56482785363005L623.318843241701 186.66707483826212L625.5637870160608 187.78954672544296L630.0536745647878 187.78954672544296L634.5435621135111 190.03449049980554L634.5435621135111 186.66707483826212L634.5435621135111 184.42213106389954L639.0130410824713 184.42213106389954L641.2579848568384 182.17718728953696L647.9928161799216 181.0547154023552L652.4827037286486 184.42213106389954L661.4420702463358 186.66707483826212L668.176901569419 183.2996591767178L670.4014367640157 186.66707483826212L668.176901569419 192.25902569440132L672.6463805383792 194.5039694687648L679.381211861466 194.5039694687648L681.6261556358331 195.62644135594564L690.5855221535166 196.7489132431274L695.0754097022436 194.5039694687648Z" stroke="#FFFFFF" stroke-opacity="0.75" stroke-width="1" stroke-linecap="round" stroke-linejoin="round" fill="#D3D3D3"/>
		<path name="三明市" d="M244.3927427090348 260.64817649339784L248.88263025776178 259.525704606217L248.88263025776178 261.7706483805796L253.37251780648512 261.7706483805796L255.6174615808486 259.525704606217L260.0869405498088 262.8931202677604L266.8217718728956 259.525704606217L271.3116594216226 261.7706483805796L275.78113839057914 269.6279515908491L284.7609134880295 272.9953672523934L284.7609134880295 275.2199024469892L291.49574481111995 269.6279515908491L291.49574481111995 262.8931202677604L293.72028000571663 259.525704606217L291.49574481111995 258.40323271903526L289.25080103675646 259.525704606217L291.49574481111995 256.1786975244395L295.9652237800801 256.1786975244395L304.94499887753045 261.7706483805796L311.6594216208505 261.7706483805796L313.904365395214 265.1380640421239L316.14930916957746 266.26053592930475L316.14930916957746 268.50547970366733L318.3942529439373 270.7504234780308L320.6391967183008 272.9953672523934L322.8841404926643 268.50547970366733L325.10867568725735 269.6279515908491L327.3536194616245 280.8322618828961L334.0884507847077 278.5873181085335L343.04781730239483 280.8322618828961L343.04781730239483 283.0772056572587L340.82328210779815 284.1996775444404L343.04781730239483 289.8120369803464L338.57833833343466 293.15904406212394L338.57833833343466 297.6489316108491L343.04781730239483 296.52645972366827L345.2927610767583 297.6489316108491L347.5377048511218 295.4039878364865L349.7826486254853 297.6489316108491L354.27253617420865 296.52645972366827L356.51747994857215 304.38376293393776L358.7420151431652 307.7307700157153L360.9869589175323 307.7307700157153L363.2319026918922 314.465601338803L372.2116777893425 322.3229045490725L369.96673401498265 324.5474397436692L372.2116777893425 326.7923835180318L367.72179024061916 329.03732729239437L365.47684646625567 334.6496867283013L360.9869589175323 338.0171023898447L358.7420151431652 338.0171023898447L356.51747994857215 342.48658135880305L360.9869589175323 346.9764689075291L365.47684646625567 348.09894079470996L365.47684646625567 351.4663564562543L367.72179024061916 351.4663564562543L369.96673401498265 354.8337721177986L374.4362129839392 355.93583542521355L378.92610053266253 351.4663564562543L392.37535459907303 349.2214126818917L403.6000734708905 349.2214126818917L408.06955243984703 346.9764689075291L410.3144962142105 352.58882834343603L408.06955243984703 355.93583542521355L410.3144962142105 362.6706667483013L412.5594399885704 366.03808240984563L412.5594399885704 371.65044184575254L417.04932753729736 369.40549807138996L421.53921508602434 371.65044184575254L428.25363782934437 368.2830261842082L432.7435253780677 370.5279699585708L434.98846915243485 376.1199208147109L439.4783567011582 377.24239270189264L439.4783567011582 381.7322802506178L448.4377232188417 382.85475213779955L448.4377232188417 385.09969591216213L446.1927794444782 386.2221677993439L443.94783567011837 389.5691748811205L446.1927794444782 391.81411865548307L450.6826669932052 389.5691748811205L450.6826669932052 392.9365905426639L452.9276107675687 398.5489499785708L457.39708973652523 400.7938937529343L457.39708973652523 404.16130941447864L457.39708973652523 406.3858446090744L459.6420335108887 407.50831649625525L461.8869772852522 405.26337272189267L470.86675238270254 408.630788383437L473.0912875772992 408.630788383437L473.0912875772992 406.3858446090744L477.5811751260226 407.50831649625525L482.07106267474956 405.26337272189267L484.31600644911305 403.0388375272969L491.0304291924331 405.26337272189267L493.27537296679657 401.91636564011515L495.52031674116006 401.91636564011515L502.2551480642469 398.5489499785708L506.72462703320343 397.42647809139L506.72462703320343 401.91636564011515L508.96957080757056 400.7938937529343L511.2145145819304 404.16130941447864L513.4594583562939 403.0388375272969L517.9493459050209 405.26337272189267L526.9087124227044 404.16130941447864L529.1536561970679 405.26337272189267L531.3985999714278 404.16130941447864L531.3985999714278 407.50831649625525L526.9087124227044 405.26337272189267L526.9087124227044 408.630788383437L526.9087124227044 413.12067593216216L531.3985999714278 415.36561970652565L533.6435437457912 415.36561970652565L540.3579664891149 410.8757321577996L542.6029102634784 413.12067593216216L547.0927978122018 417.61056348088823L551.5826853609287 417.61056348088823L556.0521643298853 420.97797914243256L558.2971081042488 420.97797914243256L565.0319394273356 425.4474581113909L569.5218269760626 433.3047613216604L576.2362497193826 433.3047613216604L576.2362497193826 434.42723320884215L571.7463621706556 441.1416559521631L565.0319394273356 442.2641278393439L562.7869956529757 445.63154350088826L558.2971081042488 445.63154350088826L556.0521643298853 447.87648727525084L556.0521643298853 454.5909100185727L556.0521643298853 456.83585379293527L560.5420518786086 457.9583256801161L558.2971081042488 466.93810077756734L560.5420518786086 471.4075797465266L551.5826853609287 473.6525235208892L542.6029102634784 474.77499540807094L542.6029102634784 478.14241106961435L544.8478540378383 481.5098267311587L542.6029102634784 487.1017775872988L544.8478540378383 496.0815526847491L542.6029102634784 506.1633910896144L540.3579664891149 507.2858629767961L535.8884875201547 506.1633910896144L535.8884875201547 511.7757505255213L531.3985999714278 512.898222412703L531.3985999714278 506.1633910896144L526.9087124227044 502.81638400783777L522.4188248739774 508.40833486397787L517.9493459050209 506.1633910896144L515.7044021306574 506.1633910896144L513.4594583562939 503.9184473152518L506.72462703320343 505.04091920243354L504.5000918386104 503.9184473152518L502.2551480642469 500.5714402334743L493.27537296679657 501.693912120656L495.52031674116006 502.81638400783777L493.27537296679657 506.1633910896144L493.27537296679657 505.04091920243354L486.5609502234729 509.5308067511587L482.07106267474956 507.2858629767961L477.5811751260226 509.5308067511587L475.3362313516627 509.5308067511587L473.0912875772992 505.04091920243354L470.86675238270254 503.9184473152518L468.6218086083427 506.1633910896144L455.1725545419322 508.40833486397787L455.1725545419322 509.5308067511587L455.1725545419322 516.2656380742474L452.9276107675687 518.51058184861L443.94783567011837 514.0206942998848L441.7028918957549 514.0206942998848L441.7028918957549 519.6126451560249L441.7028918957549 522.9800608175683L441.7028918957549 529.714892140657L439.4783567011582 533.0823078022013L434.98846915243485 536.4293148839779L437.2334129267947 542.0416743198848L439.4783567011582 543.1641462070656L441.7028918957549 545.4090899814291L437.2334129267947 549.8989775301543L430.49858160370786 549.8989775301543L426.0086940549809 555.4909283862944L428.25363782934437 556.6134002734761L430.49858160370786 558.8583440478387L432.7435253780677 558.8583440478387L437.2334129267947 564.4707034837456L446.1927794444782 562.225759709383L448.4377232188417 566.7156472581082L446.1927794444782 573.4300700014301L432.7435253780677 582.4098450988804L430.49858160370786 582.4098450988804L423.7637502806174 585.7568521806579L417.04932753729736 588.0017959550205L405.84501724525035 589.1242678422022L403.6000734708905 584.6547888732439L396.8652421478 585.7568521806579L396.8652421478 592.4916835037457L385.660931855753 583.5323169860621L381.17104430702966 585.7568521806579L374.4362129839392 584.6547888732439L376.6811567583027 576.7974856629735L378.92610053266253 575.6750137757926L383.4159880813895 577.9199575501552L385.660931855753 574.5525418886109L387.90587563011286 571.1851262270666L385.660931855753 568.940182452704L381.17104430702966 568.940182452704L378.92610053266253 565.5931753709265L367.72179024061916 553.2459846119318L365.47684646625567 553.2459846119318L358.7420151431652 556.6134002734761L354.27253617420865 548.7765056429726L347.5377048511218 545.4090899814291L343.04781730239483 542.0416743198848L334.0884507847077 545.4090899814291L329.59856323598433 544.2866180942474L327.3536194616245 546.53156186861L325.10867568725735 553.2459846119318L316.14930916957746 556.6134002734761L313.904365395214 554.3684564991127L316.14930916957746 551.021449417336L316.14930916957746 545.4090899814291L316.14930916957746 543.1641462070656L311.6594216208505 542.0416743198848L311.6594216208505 537.5517867711596L311.6594216208505 536.4293148839779L311.6594216208505 530.8373640278387L307.1899426518903 529.714892140657L304.94499887753045 531.9598359150195L304.94499887753045 536.4293148839779L302.70005510316696 536.4293148839779L298.21016755444 538.6742586583405L293.72028000571663 538.6742586583405L289.25080103675646 540.9192024327031L287.00585726239296 546.53156186861L284.7609134880295 548.7765056429726L287.00585726239296 551.021449417336L291.49574481111995 551.021449417336L293.72028000571663 553.2459846119318L289.25080103675646 554.3684564991127L282.5159697136696 559.9808159350196L282.5159697136696 564.4707034837456L278.02608216494264 567.83811914529L280.2710259393061 570.0626543398857L278.02608216494264 574.5525418886109L269.0667156472591 575.6750137757926L266.8217718728956 573.4300700014301L269.0667156472591 570.0626543398857L266.8217718728956 564.4707034837456L264.57682809853213 564.4707034837456L260.0869405498088 557.735872160657L255.6174615808486 555.4909283862944L251.12757403212527 556.6134002734761L251.12757403212527 552.1439213045169L248.88263025776178 549.8989775301543L251.12757403212527 539.7967305455222L248.88263025776178 534.204779689383L246.63768648339828 534.204779689383L246.63768648339828 530.8373640278387L242.16820751444175 525.2250045919318L242.16820751444175 522.9800608175683L239.92326374007462 522.9800608175683L237.67831996571476 515.1431661870656L233.18843241698778 515.1431661870656L224.22906589930426 519.6126451560249L221.9841221249444 516.2656380742474L217.49423457621742 515.1431661870656L215.24929080185393 517.3881099614282L210.75940325312695 521.8575889303875L208.5348680585339 524.10253270475L208.5348680585339 527.4699483662944L204.04498050980692 528.5924202534752L201.80003673544343 529.714892140657L195.0652054123566 529.714892140657L190.59572644339642 525.2250045919318L192.8406702177599 515.1431661870656L188.35078266903656 516.2656380742474L186.10583889466943 517.3881099614282L183.86089512030958 516.2656380742474L181.6159513459461 512.898222412703L183.86089512030958 506.1633910896144L177.14647237698955 506.1633910896144L174.90152860262606 502.81638400783777L170.41164105389907 502.81638400783777L170.41164105389907 500.5714402334743L168.16669727953922 499.44896834629344L168.16669727953922 497.20402457193086L163.67680973081224 498.3264964591117L163.67680973081224 493.83660891038653L161.43186595644875 491.59166513602395L163.67680973081224 485.99971427988476L161.43186595644875 483.75477050552126L159.20733076185206 483.75477050552126L159.20733076185206 488.2242494744796L156.96238698748857 489.34672136166137L150.22755566440173 487.1017775872988L150.22755566440173 490.4691932488422L139.02324537235472 485.99971427988476L136.77830159799123 489.34672136166137L130.0434702749044 492.7141370232048L127.81893508030771 490.4691932488422L127.81893508030771 483.75477050552126L121.08410375722087 482.6322986183404L112.1043286597669 479.2648829567961L112.1043286597669 475.8974672952518L127.81893508030771 464.69315700320476L130.0434702749044 461.32574134166043L127.81893508030771 452.366374823976L127.81893508030771 450.1214310496134L118.83915998285738 453.48884671115775L116.59421620849389 451.24390293679517L112.1043286597669 450.1214310496134L112.1043286597669 443.3865997265257L114.34927243413404 441.1416559521631L107.63484969081037 437.77424029061876L112.1043286597669 429.9373456601161L116.59421620849389 427.6924018857535L123.32904753158437 416.4880915937065L132.28841404926425 411.9982040449813L132.28841404926425 409.75326027061874L136.77830159799123 404.16130941447864L143.5131329210817 404.16130941447864L145.73766811567475 406.3858446090744L143.5131329210817 408.630788383437L147.98261189003824 409.75326027061874L147.98261189003824 410.8757321577996L152.47249943876523 409.75326027061874L154.71744321312872 406.3858446090744L154.71744321312872 399.67142186575256L156.96238698748857 395.1815343170274L161.43186595644875 390.6916467683013L161.43186595644875 388.44670299393874L152.47249943876523 387.3446396865247L152.47249943876523 385.09969591216213L150.22755566440173 383.9772240249813L147.98261189003824 377.24239270189264L141.2681891467182 371.65044184575254L141.2681891467182 369.40549807138996L145.73766811567475 368.2830261842082L143.5131329210817 366.03808240984563L145.73766811567475 358.18077919957614L147.98261189003824 353.71130023061687L147.98261189003824 352.58882834343603L145.73766811567475 354.8337721177986L143.5131329210817 353.71130023061687L143.5131329210817 352.58882834343603L136.77830159799123 345.8539970203474L136.77830159799123 341.3641094716222L134.53335782363138 340.24163758444047L145.73766811567475 330.1597991795761L141.2681891467182 321.2004326618917L143.5131329210817 314.465601338803L145.73766811567475 309.97571379007786L147.98261189003824 309.97571379007786L154.71744321312872 304.38376293393776L156.96238698748857 297.6489316108491L163.67680973081224 293.15904406212394L163.67680973081224 289.8120369803464L168.16669727953922 288.6895650931656L172.65658482826257 284.1996775444404L181.6159513459461 283.0772056572587L183.86089512030958 286.444621318803L186.10583889466943 281.95473377007784L190.59572644339642 281.95473377007784L199.55509296107994 277.46484622135176L201.80003673544343 279.70978999571525L206.2899242841704 279.70978999571525L213.00434702749044 274.09743055980744L217.49423457621742 274.09743055980744L221.9841221249444 278.5873181085335L226.45360109390094 270.7504234780308L237.67831996571476 264.01559215494217L239.92326374007462 264.01559215494217L244.3927427090348 260.64817649339784Z" stroke="#FFFFFF" stroke-opacity="0.75" stroke-width="1" stroke-linecap="round" stroke-linejoin="round" fill="#D3D3D3"/>
		<path name="龙岩市" d="M112.1043286597669 479.2648829567961L121.08410375722087 482.6322986183404L127.81893508030771 483.75477050552126L127.81893508030771 490.4691932488422L130.0434702749044 492.7141370232048L136.77830159799123 489.34672136166137L139.02324537235472 485.99971427988476L150.22755566440173 490.4691932488422L150.22755566440173 487.1017775872988L156.96238698748857 489.34672136166137L159.20733076185206 488.2242494744796L159.20733076185206 483.75477050552126L161.43186595644875 483.75477050552126L163.67680973081224 485.99971427988476L161.43186595644875 491.59166513602395L163.67680973081224 493.83660891038653L163.67680973081224 498.3264964591117L168.16669727953922 497.20402457193086L168.16669727953922 499.44896834629344L170.41164105389907 500.5714402334743L170.41164105389907 502.81638400783777L174.90152860262606 502.81638400783777L177.14647237698955 506.1633910896144L183.86089512030958 506.1633910896144L181.6159513459461 512.898222412703L183.86089512030958 516.2656380742474L186.10583889466943 517.3881099614282L188.35078266903656 516.2656380742474L192.8406702177599 515.1431661870656L190.59572644339642 525.2250045919318L195.0652054123566 529.714892140657L201.80003673544343 529.714892140657L204.04498050980692 528.5924202534752L208.5348680585339 527.4699483662944L208.5348680585339 524.10253270475L210.75940325312695 521.8575889303875L215.24929080185393 517.3881099614282L217.49423457621742 515.1431661870656L221.9841221249444 516.2656380742474L224.22906589930426 519.6126451560249L233.18843241698778 515.1431661870656L237.67831996571476 515.1431661870656L239.92326374007462 522.9800608175683L242.16820751444175 522.9800608175683L242.16820751444175 525.2250045919318L246.63768648339828 530.8373640278387L246.63768648339828 534.204779689383L248.88263025776178 534.204779689383L251.12757403212527 539.7967305455222L248.88263025776178 549.8989775301543L251.12757403212527 552.1439213045169L251.12757403212527 556.6134002734761L255.6174615808486 555.4909283862944L260.0869405498088 557.735872160657L264.57682809853213 564.4707034837456L266.8217718728956 564.4707034837456L269.0667156472591 570.0626543398857L266.8217718728956 573.4300700014301L269.0667156472591 575.6750137757926L278.02608216494264 574.5525418886109L280.2710259393061 570.0626543398857L278.02608216494264 567.83811914529L282.5159697136696 564.4707034837456L282.5159697136696 559.9808159350196L289.25080103675646 554.3684564991127L293.72028000571663 553.2459846119318L291.49574481111995 551.021449417336L287.00585726239296 551.021449417336L284.7609134880295 548.7765056429726L287.00585726239296 546.53156186861L289.25080103675646 540.9192024327031L293.72028000571663 538.6742586583405L298.21016755444 538.6742586583405L302.70005510316696 536.4293148839779L304.94499887753045 536.4293148839779L304.94499887753045 531.9598359150195L307.1899426518903 529.714892140657L311.6594216208505 530.8373640278387L311.6594216208505 536.4293148839779L311.6594216208505 537.5517867711596L311.6594216208505 542.0416743198848L316.14930916957746 543.1641462070656L316.14930916957746 545.4090899814291L316.14930916957746 551.021449417336L313.904365395214 554.3684564991127L316.14930916957746 556.6134002734761L325.10867568725735 553.2459846119318L327.3536194616245 546.53156186861L329.59856323598433 544.2866180942474L334.0884507847077 545.4090899814291L343.04781730239483 542.0416743198848L347.5377048511218 545.4090899814291L354.27253617420865 548.7765056429726L358.7420151431652 556.6134002734761L365.47684646625567 553.2459846119318L367.72179024061916 553.2459846119318L378.92610053266253 565.5931753709265L381.17104430702966 568.940182452704L385.660931855753 568.940182452704L387.90587563011286 571.1851262270666L385.660931855753 574.5525418886109L383.4159880813895 577.9199575501552L378.92610053266253 575.6750137757926L376.6811567583027 576.7974856629735L374.4362129839392 584.6547888732439L381.17104430702966 585.7568521806579L381.17104430702966 589.1242678422022L381.17104430702966 591.3692116165648L376.6811567583027 598.1040429396526L376.6811567583027 603.6959937957927L374.4362129839392 608.1858813445178L376.6811567583027 614.9207126676065L374.4362129839392 617.1656564419691L374.4362129839392 622.7576072981092L372.2116777893425 625.0025510724718L363.2319026918922 626.1250229596535L356.51747994857215 631.7373823955604L356.51747994857215 635.0843894773379L360.9869589175323 640.6967489132439L354.27253617420865 646.3091083491508L352.02759239984516 650.7785873181092L349.7826486254853 650.7785873181092L349.7826486254853 653.0235310924718L343.04781730239483 653.0235310924718L338.57833833343466 656.3909467540161L334.0884507847077 654.1460029796535L329.59856323598433 660.8808343027422L331.8435070103478 664.2482499642865L340.82328210779815 666.4931937386491L343.04781730239483 668.7177289332449L338.57833833343466 672.0851445947892L338.57833833343466 679.9424478050587L336.3333945590748 684.411926774017L336.3333945590748 696.7591175330117L334.0884507847077 699.0040613073743L331.8435070103478 696.7591175330117L325.10867568725735 697.8815894201934L320.6391967183008 694.5141737586491L318.3942529439373 696.7591175330117L309.414477846487 694.5141737586491L307.1899426518903 691.1467580971057L302.70005510316696 691.1467580971057L298.21016755444 695.6366456458309L291.49574481111995 690.024286209924L287.00585726239296 696.7591175330117L280.2710259393061 697.8815894201934L284.7609134880295 699.0040613073743L287.00585726239296 701.2285965019701L282.5159697136696 703.4735402763336L282.5159697136696 707.9634278250587L280.2710259393061 709.0858997122405L275.78113839057914 706.840955937877L273.55660319598246 711.330843486603L275.78113839057914 714.6982591481474L273.55660319598246 714.6982591481474L269.0667156472591 716.9227943427431L269.0667156472591 724.7800975530126L264.57682809853213 731.5149288761013L264.57682809853213 732.6374007632821L257.8624053552121 734.8619359578788L255.6174615808486 732.6374007632821L251.12757403212527 733.7394640706971L248.88263025776178 732.6374007632821L248.88263025776178 724.7800975530126L246.63768648339828 724.7800975530126L244.3927427090348 725.9025694401944L244.3927427090348 731.5149288761013L242.16820751444175 733.7394640706971L239.92326374007462 737.1068797322414L239.92326374007462 738.2293516194222L237.67831996571476 750.5561337986501L242.16820751444175 752.8010775730127L242.16820751444175 757.2909651217387L244.3927427090348 761.7808526704639L242.16820751444175 766.2503316394223L237.67831996571476 766.2503316394223L239.92326374007462 771.8626910753292L237.67831996571476 774.1076348496927L237.67831996571476 780.8424661727804L235.43337619135127 783.0670013673762L230.9434886426243 781.9445294801953L224.22906589930426 781.9445294801953L217.49423457621742 787.5568889161023L217.49423457621742 792.0467764648274L221.9841221249444 798.7611992081484L224.22906589930426 806.6185024184178L221.9841221249444 808.8634461927804L221.9841221249444 812.2308618543248L219.73917835057728 815.5778689361023L215.24929080185393 815.5778689361023L215.24929080185393 818.9452845976466L210.75940325312695 813.3533337415065L208.5348680585339 813.3533337415065L206.2899242841704 807.7409743055996L204.04498050980692 806.6185024184178L201.80003673544343 804.3735586440553L204.04498050980692 801.0061429825109L206.2899242841704 799.8836710953301L204.04498050980692 796.5366640135526L199.55509296107994 793.1692483520092L197.31014918672008 794.29172023919L192.8406702177599 792.0467764648274L190.59572644339642 785.3119451417397L183.86089512030958 781.9445294801953L188.35078266903656 775.2301067368735L190.59572644339642 775.2301067368735L190.59572644339642 771.8626910753292L192.8406702177599 767.372803526604L192.8406702177599 764.0257964448265L197.31014918672008 761.7808526704639L195.0652054123566 756.168493234557L188.35078266903656 755.0460213473752L183.86089512030958 760.6583807832822L181.6159513459461 757.2909651217387L174.90152860262606 758.4134370089196L172.65658482826257 759.5359088961013L165.9217535051721 759.5359088961013L159.20733076185206 762.9033245576456L152.47249943876523 760.6583807832822L147.98261189003824 767.372803526604L139.02324537235472 770.7402191881483L134.53335782363138 767.372803526604L136.77830159799123 760.6583807832822L134.53335782363138 758.4134370089196L132.28841404926425 751.6786056858318L130.0434702749044 747.2091267168726L123.32904753158437 748.3315986040543L121.08410375722087 744.96418294251L116.59421620849389 742.7192391681474L116.59421620849389 735.9844078450596L114.34927243413404 734.8619359578788L112.1043286597669 730.3924569889195L107.63484969081037 730.3924569889195L107.63484969081037 725.9025694401944L116.59421620849389 722.53515377865L109.87979346517386 719.1677381171057L109.87979346517386 714.6982591481474L105.38990591644688 715.8207310353282L100.90001836772353 718.045266229924L100.90001836772353 724.7800975530126L98.65507459336004 725.9025694401944L96.41013081899655 724.7800975530126L91.94065185003637 730.3924569889195L80.71593297822619 732.6374007632821L78.49139778362951 730.3924569889195L80.71593297822619 724.7800975530126L76.24645400926602 724.7800975530126L76.24645400926602 722.53515377865L71.75656646053903 719.1677381171057L69.51162268617918 713.5757872609656L60.55225616849202 721.4126818914683L51.57248107104169 719.1677381171057L44.858058327721665 720.2902100042875L38.12322700463119 715.8207310353282L35.878283230271336 710.2083715994213L33.633339455907844 709.0858997122405L29.163860486951307 711.330843486603L26.918916712584178 710.2083715994213L26.918916712584178 706.840955937877L22.429029163860832 707.9634278250587L17.93914161513385 705.7184840506961L11.22471887181382 705.7184840506961L11.22471887181382 703.4735402763336L8.979775097450329 704.5960121635144L6.734831323086837 700.1061246147892L4.489887548726983 697.8815894201934L4.489887548726983 695.6366456458309L11.22471887181382 696.7591175330117L11.22471887181382 694.5141737586491L6.734831323086837 691.1467580971057L4.489887548726983 685.5343986611988L15.694197840773995 679.9424478050587L13.449254066410504 676.5750321435144L13.449254066410504 675.4525602563335L11.22471887181382 672.0851445947892L6.734831323086837 672.0851445947892L6.734831323086837 669.8402008204266L4.489887548726983 666.4931937386491L4.489887548726983 665.3707218514674L6.734831323086837 664.2482499642865L6.734831323086837 662.003306189923L4.489887548726983 659.7583624155604L2.2449437743634917 659.7583624155604L2.2449437743634917 656.3909467540161L0 654.1460029796535L2.2449437743634917 647.4315802363317L4.489887548726983 645.1866364619691L8.979775097450329 645.1866364619691L11.22471887181382 642.9416926876065L15.694197840773995 641.8192208004257L20.18408538950098 635.0843894773379L20.18408538950098 630.6149105083787L26.918916712584178 630.6149105083787L33.633339455907844 625.0025510724718L29.163860486951307 614.9207126676065L31.388395681544353 609.3083532316996L31.388395681544353 605.9409375701553L33.633339455907844 604.8184656829744L35.878283230271336 601.4714586011969L29.163860486951307 596.9815710524708L29.163860486951307 595.85909916529L33.633339455907844 591.3692116165648L35.878283230271336 585.7568521806579L38.12322700463119 585.7568521806579L38.12322700463119 579.042429437337L42.61311455335817 577.9199575501552L42.61311455335817 575.6750137757926L42.61311455335817 573.4300700014301L42.61311455335817 568.940182452704L38.12322700463119 563.3482315965639L44.858058327721665 559.9808159350196L42.61311455335817 555.4909283862944L42.61311455335817 549.8989775301543L44.858058327721665 548.7765056429726L44.858058327721665 546.53156186861L47.08259352231835 547.6540337557917L51.57248107104169 546.53156186861L51.57248107104169 542.0416743198848L58.30731239413217 535.3272515765639L62.776791363088705 534.204779689383L65.0217351374522 537.5517867711596L67.26667891181569 536.4293148839779L67.26667891181569 530.8373640278387L62.776791363088705 526.3474764791126L62.776791363088705 525.2250045919318L56.06236861976868 519.6126451560249L58.30731239413217 515.1431661870656L69.51162268617918 506.1633910896144L76.24645400926602 503.9184473152518L82.96087675258605 506.1633910896144L85.20582052694954 503.9184473152518L91.94065185003637 501.693912120656L96.41013081899655 494.95908079756737L105.38990591644688 493.83660891038653L103.14496214208702 485.99971427988476L107.63484969081037 480.38735484397785L112.1043286597669 479.2648829567961Z" stroke="#FFFFFF" stroke-opacity="0.75" stroke-width="1" stroke-linecap="round" stroke-linejoin="round" fill="#D3D3D3"/>
		<path name="宁德市" d="M634.5435621135111 248.32139431417L634.5435621135111 247.19892242698825L636.7680973081115 248.32139431417L639.0130410824713 251.6888099757134L641.2579848568384 255.05622563725774L639.0130410824713 259.525704606217L641.2579848568384 261.7706483805796L652.4827037286486 260.64817649339784L652.4827037286486 259.525704606217L654.7072389232453 261.7706483805796L661.4420702463358 261.7706483805796L661.4420702463358 264.01559215494217L668.176901569419 270.7504234780308L670.4014367640157 269.6279515908491L668.176901569419 266.26053592930475L670.4014367640157 264.01559215494217L674.8913243127427 262.8931202677604L677.1362680871061 259.525704606217L683.871099410193 258.40323271903526L683.871099410193 256.1786975244395L681.6261556358331 255.05622563725774L681.6261556358331 251.6888099757134L683.871099410193 248.32139431417L679.381211861466 247.19892242698825L679.381211861466 239.36202779648556L683.871099410193 239.36202779648556L686.0956346047897 234.8721402477604L692.8304659278765 240.4844996836673L699.565297250967 238.23955590930473L695.0754097022436 233.74966836057865L692.8304659278765 233.74966836057865L683.871099410193 228.13730892467265L686.0956346047897 218.05547051980648L692.8304659278765 216.93299863262564L692.8304659278765 209.07569542235524L699.565297250967 204.60621645339688L695.0754097022436 198.99385701748997L695.0754097022436 194.5039694687648L699.565297250967 193.38149758158306L699.565297250967 190.03449049980554L701.8102410253268 187.78954672544296L710.769607543014 184.42213106389954L713.0145513173738 181.0547154023552L713.0145513173738 176.56482785363005L719.7289740606975 172.0953488846717L728.7087491581478 173.21782077185253L730.9536929325113 177.6872997408118L737.6681156758314 175.4423559664483L742.1580032245583 165.36051756158304L742.1580032245583 159.74815812567613L744.4029469989218 157.52362293108035L744.4029469989218 148.54384783362912L748.8928345476488 148.54384783362912L751.1377783220087 147.42137594644737L753.3623135166017 146.29890405926653L755.6072572909688 147.42137594644737L760.0971448396922 145.1764321720848L762.3420886140557 146.29890405926653L769.0565113573757 144.05396028490304L773.5463989061027 146.29890405926653L773.5463989061027 151.91126349517344L771.3014551317392 156.4011510438986L771.3014551317392 163.11557378722046L780.2812302291895 164.2380456744013L778.036286454826 170.97287699748995L778.036286454826 173.21782077185253L782.526174003553 170.97287699748995L786.9956529725096 176.56482785363005L786.9956529725096 178.80977162799263L786.9956529725096 181.0547154023552L786.9956529725096 187.78954672544296L784.7507091981497 191.1569623869873L782.526174003553 192.25902569440132L786.9956529725096 194.5039694687648L786.9956529725096 198.99385701748997L789.2405967468767 200.11632890467172L793.7304842956 204.60621645339688L795.9754280699635 205.72868834057863L793.7304842956 206.85116022775946L795.9754280699635 210.19816730953698L798.220371844327 211.32063919671873L800.4449070389237 213.5655829710813L802.6898508132836 214.68805485826306L802.6898508132836 215.8105267454439L800.4449070389237 215.8105267454439L800.4449070389237 220.30041429416997L807.1797383620069 219.17794240698822L809.424682136374 221.4228861813508L813.9145696850974 220.30041429416997L816.1595134594609 219.17794240698822L813.9145696850974 218.05547051980648L813.9145696850974 215.8105267454439L820.6289924284174 216.93299863262564L822.8739362027809 220.30041429416997L822.8739362027809 218.05547051980648L827.3638237515079 216.93299863262564L836.3231902691914 218.05547051980648L834.0782464948315 213.5655829710813L838.5681340435549 210.19816730953698L840.8130778179147 206.85116022775946L847.5479091410052 204.60621645339688L854.2623318843289 211.32063919671873L856.5072756586887 211.32063919671873L865.4870507561391 204.60621645339688L867.7115859507358 201.23880079185255L872.2014734994627 201.23880079185255L874.4464172738226 195.62644135594564L878.9363048225496 195.62644135594564L883.4057837915097 196.7489132431274L887.8956713402367 194.5039694687648L892.3855588889601 195.62644135594564L899.0999816322801 193.38149758158306L901.3449254066436 194.5039694687648L899.0999816322801 197.87138513030823L903.5898691810071 202.3612726790343L905.8348129553669 201.23880079185255L910.3247005040939 201.23880079185255L912.5696442784574 198.99385701748997L914.8145880528173 201.23880079185255L917.039123247414 200.11632890467172L919.2840670217774 202.3612726790343L917.039123247414 206.85116022775946L919.2840670217774 209.07569542235524L919.2840670217774 211.32063919671873L923.7739545705044 215.8105267454439L930.5087858935913 225.89236515031007L934.9782648625514 227.0148370374909L934.9782648625514 229.2597808118535L930.5087858935913 229.2597808118535L928.2638421192278 231.50472458621607L930.5087858935913 232.62719647339782L930.5087858935913 234.8721402477604L930.5087858935913 237.11708402212298L932.733321088188 242.70903487826308L934.9782648625514 247.19892242698825L943.9580399600018 253.9337537500769L966.3666605440958 258.40323271903526L988.7956897079566 271.87289536521166L1000 275.2199024469892L997.7550562256401 288.6895650931656L995.5305210310471 294.2815159493048L991.0406334823201 297.6489316108491L961.8971815751356 304.38376293393776L905.8348129553669 306.60829812853353L892.3855588889601 309.97571379007786L883.4057837915097 315.5880732259848L890.1406151145966 326.7923835180318L892.3855588889601 339.11916569725963L894.6305026633199 342.48658135880305L899.0999816322801 343.6090532459848L917.039123247414 338.0171023898447L923.7739545705044 338.0171023898447L930.5087858935913 340.24163758444047L932.733321088188 343.6090532459848L948.427518928962 403.0388375272969L865.4870507561391 400.7938937529343L847.5479091410052 397.42647809139L834.0782464948315 396.30400620420824L827.3638237515079 395.1815343170274L822.8739362027809 388.44670299393874L811.6696259107339 386.2221677993439L807.1797383620069 376.1199208147109L800.4449070389237 368.2830261842082L795.9754280699635 368.2830261842082L791.4855405212365 371.65044184575254L786.9956529725096 369.40549807138996L782.526174003553 370.5279699585708L780.2812302291895 377.24239270189264L778.036286454826 376.1199208147109L769.0565113573757 379.4873364762552L764.5870323884192 376.1199208147109L760.0971448396922 376.1199208147109L755.6072572909688 373.8749770403483L755.6072572909688 372.7525051531675L751.1377783220087 371.65044184575254L748.8928345476488 368.2830261842082L748.8928345476488 366.03808240984563L744.4029469989218 359.303251086757L739.9130594501949 357.0583073123944L735.4231719014715 357.0583073123944L733.1986367068712 354.8337721177986L728.7087491581478 358.18077919957614L726.4638053837843 355.93583542521355L726.4638053837843 359.303251086757L721.973917835061 358.18077919957614L719.7289740606975 359.303251086757L717.5044388661008 362.6706667483013L713.0145513173738 363.79313863548305L713.0145513173738 364.9156105226639L710.769607543014 368.2830261842082L708.5246637686505 368.2830261842082L706.279719994287 364.9156105226639L704.0347762199235 364.9156105226639L701.8102410253268 367.1605542970274L699.565297250967 373.8749770403483L697.3203534766035 374.99744892753006L695.0754097022436 373.8749770403483L692.8304659278765 378.3648645890744L688.3405783791532 378.3648645890744L681.6261556358331 369.40549807138996L674.8913243127427 374.99744892753006L665.9319577950591 376.1199208147109L661.4420702463358 369.40549807138996L663.6870140206956 368.2830261842082L659.1971264719687 368.2830261842082L654.7072389232453 362.6706667483013L641.2579848568384 369.40549807138996L643.5029286311983 376.1199208147109L641.2579848568384 377.24239270189264L634.5435621135111 377.24239270189264L630.0536745647878 379.4873364762552L632.2986183391513 381.7322802506178L627.808730790428 386.2221677993439L632.2986183391513 390.6916467683013L627.808730790428 388.44670299393874L623.318843241701 388.44670299393874L616.6044204983809 391.81411865548307L612.114532949654 397.42647809139L605.3797016265635 396.30400620420824L607.6246454009306 398.5489499785708L605.3797016265635 398.5489499785708L603.1551664319704 395.1815343170274L605.3797016265635 394.05906242984565L600.9102226576069 385.09969591216213L598.6652788832434 381.7322802506178L591.9304475601566 381.7322802506178L594.1753913345201 388.44670299393874L589.6855037857931 389.5691748811205L589.6855037857931 396.30400620420824L591.9304475601566 399.67142186575256L594.1753913345201 401.91636564011515L591.9304475601566 405.26337272189267L594.1753913345201 404.16130941447864L598.6652788832434 409.75326027061874L600.9102226576069 409.75326027061874L600.9102226576069 414.2431478193439L598.6652788832434 418.73303536806907L596.4203351088836 422.0800424498466L591.9304475601566 416.4880915937065L585.2160248168329 416.4880915937065L580.7261372681096 422.0800424498466L578.4811934937461 425.4474581113909L573.9913059450228 426.56992999857266L571.7463621706556 420.97797914243256L576.2362497193826 417.61056348088823L573.9913059450228 416.4880915937065L565.0319394273356 410.8757321577996L558.2971081042488 410.8757321577996L553.8276291352886 408.630788383437L551.5826853609287 408.630788383437L551.5826853609287 403.0388375272969L551.5826853609287 396.30400620420824L553.8276291352886 391.81411865548307L558.2971081042488 387.3446396865247L560.5420518786086 389.5691748811205L560.5420518786086 383.9772240249813L565.0319394273356 373.8749770403483L562.7869956529757 372.7525051531675L560.5420518786086 373.8749770403483L562.7869956529757 368.2830261842082L558.2971081042488 367.1605542970274L558.2971081042488 360.4257229739387L560.5420518786086 351.4663564562543L558.2971081042488 341.3641094716222L560.5420518786086 340.24163758444047L567.2768832016991 324.5474397436692L569.5218269760626 322.3229045490725L567.2768832016991 313.3431294516222L580.7261372681096 307.7307700157153L582.9710810424731 301.01634727239343L578.4811934937461 295.4039878364865L580.7261372681096 293.15904406212394L585.2160248168329 292.0365721749422L589.6855037857931 289.8120369803464L596.4203351088836 293.15904406212394L600.9102226576069 290.91410028776136L600.9102226576069 287.56709320598384L609.8695891752905 284.1996775444404L612.114532949654 277.46484622135176L618.8493642727408 276.3423743341709L623.318843241701 262.8931202677604L627.808730790428 258.40323271903526L632.2986183391513 260.64817649339784L632.2986183391513 259.525704606217L634.5435621135111 255.05622563725774L632.2986183391513 250.56633808853258L634.5435621135111 248.32139431417Z" stroke="#FFFFFF" stroke-opacity="0.75" stroke-width="1" stroke-linecap="round" stroke-linejoin="round" fill="#D3D3D3"/>
		<path name="福州市" d="M522.4188248739774 508.40833486397787L526.9087124227044 502.81638400783777L531.3985999714278 506.1633910896144L531.3985999714278 512.898222412703L535.8884875201547 511.7757505255213L535.8884875201547 506.1633910896144L540.3579664891149 507.2858629767961L542.6029102634784 506.1633910896144L544.8478540378383 496.0815526847491L542.6029102634784 487.1017775872988L544.8478540378383 481.5098267311587L542.6029102634784 478.14241106961435L542.6029102634784 474.77499540807094L551.5826853609287 473.6525235208892L560.5420518786086 471.4075797465266L558.2971081042488 466.93810077756734L560.5420518786086 457.9583256801161L556.0521643298853 456.83585379293527L556.0521643298853 454.5909100185727L556.0521643298853 447.87648727525084L558.2971081042488 445.63154350088826L562.7869956529757 445.63154350088826L565.0319394273356 442.2641278393439L571.7463621706556 441.1416559521631L576.2362497193826 434.42723320884215L576.2362497193826 433.3047613216604L573.9913059450228 426.56992999857266L578.4811934937461 425.4474581113909L580.7261372681096 422.0800424498466L585.2160248168329 416.4880915937065L591.9304475601566 416.4880915937065L596.4203351088836 422.0800424498466L598.6652788832434 418.73303536806907L600.9102226576069 414.2431478193439L600.9102226576069 409.75326027061874L598.6652788832434 409.75326027061874L594.1753913345201 404.16130941447864L591.9304475601566 405.26337272189267L594.1753913345201 401.91636564011515L591.9304475601566 399.67142186575256L589.6855037857931 396.30400620420824L589.6855037857931 389.5691748811205L594.1753913345201 388.44670299393874L591.9304475601566 381.7322802506178L598.6652788832434 381.7322802506178L600.9102226576069 385.09969591216213L605.3797016265635 394.05906242984565L603.1551664319704 395.1815343170274L605.3797016265635 398.5489499785708L607.6246454009306 398.5489499785708L605.3797016265635 396.30400620420824L612.114532949654 397.42647809139L616.6044204983809 391.81411865548307L623.318843241701 388.44670299393874L627.808730790428 388.44670299393874L632.2986183391513 390.6916467683013L627.808730790428 386.2221677993439L632.2986183391513 381.7322802506178L630.0536745647878 379.4873364762552L634.5435621135111 377.24239270189264L641.2579848568384 377.24239270189264L643.5029286311983 376.1199208147109L641.2579848568384 369.40549807138996L654.7072389232453 362.6706667483013L659.1971264719687 368.2830261842082L663.6870140206956 368.2830261842082L661.4420702463358 369.40549807138996L665.9319577950591 376.1199208147109L674.8913243127427 374.99744892753006L681.6261556358331 369.40549807138996L688.3405783791532 378.3648645890744L692.8304659278765 378.3648645890744L695.0754097022436 373.8749770403483L697.3203534766035 374.99744892753006L699.565297250967 373.8749770403483L701.8102410253268 367.1605542970274L704.0347762199235 364.9156105226639L706.279719994287 364.9156105226639L708.5246637686505 368.2830261842082L710.769607543014 368.2830261842082L713.0145513173738 364.9156105226639L713.0145513173738 363.79313863548305L717.5044388661008 362.6706667483013L719.7289740606975 359.303251086757L721.973917835061 358.18077919957614L726.4638053837843 359.303251086757L726.4638053837843 355.93583542521355L728.7087491581478 358.18077919957614L733.1986367068712 354.8337721177986L735.4231719014715 357.0583073123944L739.9130594501949 357.0583073123944L744.4029469989218 359.303251086757L748.8928345476488 366.03808240984563L748.8928345476488 368.2830261842082L751.1377783220087 371.65044184575254L755.6072572909688 372.7525051531675L755.6072572909688 373.8749770403483L760.0971448396922 376.1199208147109L764.5870323884192 376.1199208147109L769.0565113573757 379.4873364762552L778.036286454826 376.1199208147109L780.2812302291895 377.24239270189264L782.526174003553 370.5279699585708L786.9956529725096 369.40549807138996L791.4855405212365 371.65044184575254L795.9754280699635 368.2830261842082L800.4449070389237 368.2830261842082L807.1797383620069 376.1199208147109L811.6696259107339 386.2221677993439L822.8739362027809 388.44670299393874L827.3638237515079 395.1815343170274L834.0782464948315 396.30400620420824L847.5479091410052 397.42647809139L865.4870507561391 400.7938937529343L948.427518928962 403.0388375272969L955.1623502520488 406.3858446090744L955.1623502520488 408.630788383437L952.9174064776853 414.2431478193439L939.4681524112748 416.4880915937065L899.0999816322801 417.61056348088823L896.8754464376871 419.8555072552508L894.6305026633199 433.3047613216604L896.8754464376871 437.77424029061876L932.733321088188 442.2641278393439L932.733321088188 448.9989591624326L932.733321088188 459.08079756729785L932.733321088188 460.2032694544796L928.2638421192278 459.08079756729785L926.0188983448679 448.9989591624326L923.7739545705044 447.87648727525084L856.5072756586887 446.7540153880691L847.5479091410052 451.24390293679517L845.3029653666417 457.9583256801161L847.5479091410052 499.44896834629344L845.3029653666417 501.693912120656L820.6289924284174 501.693912120656L800.4449070389237 499.44896834629344L793.7304842956 500.5714402334743L791.4855405212365 505.04091920243354L791.4855405212365 519.6126451560249L802.6898508132836 525.2250045919318L820.6289924284174 538.6742586583405L829.6087675258714 555.4909283862944L829.6087675258714 579.042429437337L838.5681340435549 595.85909916529L838.5681340435549 609.3083532316996L809.424682136374 619.3901916365649L804.934794587647 642.9416926876065L789.2405967468767 647.4315802363317L784.7507091981497 635.0843894773379L771.3014551317392 635.0843894773379L764.5870323884192 632.8598542827422L739.9130594501949 630.6149105083787L721.973917835061 619.3901916365649L695.0754097022436 609.3083532316996L692.8304659278765 598.1040429396526L686.0956346047897 593.6141553909274L686.0956346047897 590.2467397293831L688.3405783791532 589.1242678422022L690.5855221535166 586.8793240678397L692.8304659278765 585.7568521806579L692.8304659278765 582.4098450988804L690.5855221535166 574.5525418886109L683.871099410193 577.9199575501552L679.381211861466 576.7974856629735L674.8913243127427 571.1851262270666L674.8913243127427 565.5931753709265L670.4014367640157 559.9808159350196L672.6463805383792 554.3684564991127L670.4014367640157 551.021449417336L672.6463805383792 547.6540337557917L670.4014367640157 543.1641462070656L672.6463805383792 540.9192024327031L672.6463805383792 537.5517867711596L670.4014367640157 536.4293148839779L654.7072389232453 536.4293148839779L645.7478724055618 539.7967305455222L639.0130410824713 539.7967305455222L632.2986183391513 543.1641462070656L634.5435621135111 539.7967305455222L632.2986183391513 537.5517867711596L627.808730790428 540.9192024327031L612.114532949654 546.53156186861L609.8695891752905 546.53156186861L605.3797016265635 542.0416743198848L598.6652788832434 548.7765056429726L596.4203351088836 549.8989775301543L591.9304475601566 548.7765056429726L589.6855037857931 551.021449417336L585.2160248168329 549.8989775301543L582.9710810424731 551.021449417336L580.7261372681096 549.8989775301543L578.4811934937461 549.8989775301543L573.9913059450228 547.6540337557917L569.5218269760626 545.4090899814291L567.2768832016991 547.6540337557917L551.5826853609287 554.3684564991127L549.3377415865652 557.735872160657L544.8478540378383 555.4909283862944L535.8884875201547 545.4090899814291L526.9087124227044 540.9192024327031L526.9087124227044 535.3272515765639L524.6637686483409 533.0823078022013L522.4188248739774 527.4699483662944L517.9493459050209 526.3474764791126L520.1942896793807 516.2656380742474L524.6637686483409 515.1431661870656L522.4188248739774 508.40833486397787Z" stroke="#FFFFFF" stroke-opacity="0.75" stroke-width="1" stroke-linecap="round" stroke-linejoin="round" fill="#D3D3D3"/>
		<path name="漳州市" d="M215.24929080185393 818.9452845976466L215.24929080185393 815.5778689361023L219.73917835057728 815.5778689361023L221.9841221249444 812.2308618543248L221.9841221249444 808.8634461927804L224.22906589930426 806.6185024184178L221.9841221249444 798.7611992081484L217.49423457621742 792.0467764648274L217.49423457621742 787.5568889161023L224.22906589930426 781.9445294801953L230.9434886426243 781.9445294801953L235.43337619135127 783.0670013673762L237.67831996571476 780.8424661727804L237.67831996571476 774.1076348496927L239.92326374007462 771.8626910753292L237.67831996571476 766.2503316394223L242.16820751444175 766.2503316394223L244.3927427090348 761.7808526704639L242.16820751444175 757.2909651217387L242.16820751444175 752.8010775730127L237.67831996571476 750.5561337986501L239.92326374007462 738.2293516194222L239.92326374007462 737.1068797322414L242.16820751444175 733.7394640706971L244.3927427090348 731.5149288761013L244.3927427090348 725.9025694401944L246.63768648339828 724.7800975530126L248.88263025776178 724.7800975530126L248.88263025776178 732.6374007632821L251.12757403212527 733.7394640706971L255.6174615808486 732.6374007632821L257.8624053552121 734.8619359578788L264.57682809853213 732.6374007632821L264.57682809853213 731.5149288761013L269.0667156472591 724.7800975530126L269.0667156472591 716.9227943427431L273.55660319598246 714.6982591481474L275.78113839057914 714.6982591481474L273.55660319598246 711.330843486603L275.78113839057914 706.840955937877L280.2710259393061 709.0858997122405L282.5159697136696 707.9634278250587L282.5159697136696 703.4735402763336L287.00585726239296 701.2285965019701L284.7609134880295 699.0040613073743L280.2710259393061 697.8815894201934L287.00585726239296 696.7591175330117L291.49574481111995 690.024286209924L298.21016755444 695.6366456458309L302.70005510316696 691.1467580971057L307.1899426518903 691.1467580971057L309.414477846487 694.5141737586491L318.3942529439373 696.7591175330117L320.6391967183008 694.5141737586491L325.10867568725735 697.8815894201934L331.8435070103478 696.7591175330117L334.0884507847077 699.0040613073743L336.3333945590748 696.7591175330117L336.3333945590748 684.411926774017L338.57833833343466 679.9424478050587L338.57833833343466 672.0851445947892L343.04781730239483 668.7177289332449L340.82328210779815 666.4931937386491L331.8435070103478 664.2482499642865L329.59856323598433 660.8808343027422L334.0884507847077 654.1460029796535L338.57833833343466 656.3909467540161L343.04781730239483 653.0235310924718L349.7826486254853 653.0235310924718L349.7826486254853 650.7785873181092L352.02759239984516 650.7785873181092L358.7420151431652 654.1460029796535L360.9869589175323 656.3909467540161L369.96673401498265 660.8808343027422L374.4362129839392 668.7177289332449L372.2116777893425 672.0851445947892L381.17104430702966 674.3300883691518L385.660931855753 679.9424478050587L385.660931855753 684.411926774017L383.4159880813895 684.411926774017L381.17104430702966 688.9018143227431L376.6811567583027 688.9018143227431L374.4362129839392 692.2692299842865L372.2116777893425 690.024286209924L367.72179024061916 690.024286209924L367.72179024061916 693.3917018714683L363.2319026918922 697.8815894201934L358.7420151431652 697.8815894201934L358.7420151431652 700.1061246147892L358.7420151431652 702.3510683891518L363.2319026918922 704.5960121635144L363.2319026918922 707.9634278250587L360.9869589175323 711.330843486603L360.9869589175323 716.9227943427431L365.47684646625567 716.9227943427431L374.4362129839392 721.4126818914683L376.6811567583027 720.2902100042875L381.17104430702966 715.8207310353282L385.660931855753 714.6982591481474L392.37535459907303 716.9227943427431L392.37535459907303 720.2902100042875L396.8652421478 718.045266229924L401.355129696527 720.2902100042875L401.355129696527 719.1677381171057L401.355129696527 716.9227943427431L403.6000734708905 714.6982591481474L403.6000734708905 715.8207310353282L408.06955243984703 713.5757872609656L412.5594399885704 715.8207310353282L414.8043837629375 711.330843486603L417.04932753729736 714.6982591481474L421.53921508602434 716.9227943427431L430.49858160370786 722.53515377865L430.49858160370786 728.147513214557L430.49858160370786 733.7394640706971L426.0086940549809 742.7192391681474L430.49858160370786 756.168493234557L430.49858160370786 761.7808526704639L423.7637502806174 765.1482683320082L421.53921508602434 768.4952754137857L417.04932753729736 768.4952754137857L414.8043837629375 772.9851629625109L421.53921508602434 777.4750505112361L419.29427131166085 785.3119451417397L423.7637502806174 785.3119451417397L423.7637502806174 788.6793608032831L430.49858160370786 792.0467764648274L430.49858160370786 794.29172023919L430.49858160370786 804.3735586440553L439.4783567011582 808.8634461927804L457.39708973652523 809.9859180799622L464.1319210596157 815.5778689361023L477.5811751260226 826.8025878079161L488.7854854180732 832.3945386640562L488.7854854180732 863.8033429253674L484.31600644911305 869.3952937815075L443.94783567011837 872.7627094430518L437.2334129267947 873.8851813302326L428.25363782934437 888.456907283824L412.5594399885704 892.9467948325491L412.5594399885704 914.2329435294614L385.660931855753 942.2743321292292L365.47684646625567 952.3561705340944L340.82328210779815 959.0910018571822L338.57833833343466 960.2134737443639L336.3333945590748 972.5402559235918L331.8435070103478 985.9895099900023L300.45511132880347 984.8670381028205L298.21016755444 984.8670381028205L295.9652237800801 980.3771505540954L273.55660319598246 985.9895099900023L273.55660319598246 975.9076715851361L275.78113839057914 970.2953121492292L266.8217718728956 968.0503683748666L264.57682809853213 964.6829527133223L260.0869405498088 965.805424600504L257.8624053552121 962.4380089389597L253.37251780648512 961.3359456315447L248.88263025776178 956.8460580828196L246.63768648339828 955.7235861956378L244.3927427090348 943.3968040164109L242.16820751444175 937.784444580504L237.67831996571476 934.4170289189597L239.92326374007462 929.9271413702345L239.92326374007462 926.580134288457L237.67831996571476 924.3351905140944L230.9434886426243 920.9677748525501L230.9434886426243 917.6003591910057L228.69854486826443 913.1104716422797L230.9434886426243 906.3960488989587L228.69854486826443 897.4162738015075L230.9434886426243 894.0692667197309L228.69854486826443 892.9467948325491L226.45360109390094 892.9467948325491L226.45360109390094 890.7018510581865L221.9841221249444 887.3344353966431L224.22906589930426 886.2119635094614L224.22906589930426 882.844547847917L221.9841221249444 882.844547847917L219.73917835057728 880.5996040735545L219.73917835057728 872.7627094430518L221.9841221249444 870.5177656686892L221.9841221249444 867.1503500071449L233.18843241698778 860.435927263823L233.18843241698778 857.0685116022787L221.9841221249444 848.0887365048275L221.9841221249444 838.0068980999631L221.9841221249444 835.7619543256005L217.49423457621742 835.7619543256005L217.49423457621742 832.3945386640562L217.49423457621742 829.0475315822787L215.24929080185393 822.3127002591909L217.49423457621742 820.0677564848274L215.24929080185393 818.9452845976466Z" stroke="#FFFFFF" stroke-opacity="0.75" stroke-width="1" stroke-linecap="round" stroke-linejoin="round" fill="#D3D3D3"/>
		<path name="泉州市" d="M352.02759239984516 650.7785873181092L354.27253617420865 646.3091083491508L360.9869589175323 640.6967489132439L356.51747994857215 635.0843894773379L356.51747994857215 631.7373823955604L363.2319026918922 626.1250229596535L372.2116777893425 625.0025510724718L374.4362129839392 622.7576072981092L374.4362129839392 617.1656564419691L376.6811567583027 614.9207126676065L374.4362129839392 608.1858813445178L376.6811567583027 603.6959937957927L376.6811567583027 598.1040429396526L381.17104430702966 591.3692116165648L381.17104430702966 589.1242678422022L381.17104430702966 585.7568521806579L385.660931855753 583.5323169860621L396.8652421478 592.4916835037457L396.8652421478 585.7568521806579L403.6000734708905 584.6547888732439L405.84501724525035 589.1242678422022L417.04932753729736 588.0017959550205L423.7637502806174 585.7568521806579L430.49858160370786 582.4098450988804L432.7435253780677 582.4098450988804L446.1927794444782 573.4300700014301L448.4377232188417 566.7156472581082L446.1927794444782 562.225759709383L437.2334129267947 564.4707034837456L432.7435253780677 558.8583440478387L430.49858160370786 558.8583440478387L428.25363782934437 556.6134002734761L426.0086940549809 555.4909283862944L430.49858160370786 549.8989775301543L437.2334129267947 549.8989775301543L441.7028918957549 545.4090899814291L439.4783567011582 543.1641462070656L437.2334129267947 542.0416743198848L434.98846915243485 536.4293148839779L439.4783567011582 533.0823078022013L441.7028918957549 529.714892140657L441.7028918957549 522.9800608175683L441.7028918957549 519.6126451560249L441.7028918957549 514.0206942998848L443.94783567011837 514.0206942998848L452.9276107675687 518.51058184861L455.1725545419322 516.2656380742474L455.1725545419322 509.5308067511587L455.1725545419322 508.40833486397787L468.6218086083427 506.1633910896144L470.86675238270254 503.9184473152518L473.0912875772992 505.04091920243354L475.3362313516627 509.5308067511587L477.5811751260226 509.5308067511587L482.07106267474956 507.2858629767961L486.5609502234729 509.5308067511587L493.27537296679657 505.04091920243354L493.27537296679657 506.1633910896144L495.52031674116006 502.81638400783777L493.27537296679657 501.693912120656L502.2551480642469 500.5714402334743L504.5000918386104 503.9184473152518L506.72462703320343 505.04091920243354L513.4594583562939 503.9184473152518L515.7044021306574 506.1633910896144L517.9493459050209 506.1633910896144L522.4188248739774 508.40833486397787L524.6637686483409 515.1431661870656L520.1942896793807 516.2656380742474L517.9493459050209 526.3474764791126L522.4188248739774 527.4699483662944L524.6637686483409 533.0823078022013L526.9087124227044 535.3272515765639L526.9087124227044 540.9192024327031L535.8884875201547 545.4090899814291L544.8478540378383 555.4909283862944L549.3377415865652 557.735872160657L551.5826853609287 559.9808159350196L549.3377415865652 566.7156472581082L549.3377415865652 570.0626543398857L542.6029102634784 574.5525418886109L542.6029102634784 576.7974856629735L535.8884875201547 581.2873732116996L533.6435437457912 586.8793240678397L533.6435437457912 589.1242678422022L535.8884875201547 589.1242678422022L535.8884875201547 592.4916835037457L531.3985999714278 601.4714586011969L533.6435437457912 603.6959937957927L538.1130227147514 603.6959937957927L538.1130227147514 607.063409457337L535.8884875201547 609.3083532316996L540.3579664891149 611.5532970060622L542.6029102634784 614.9207126676065L547.0927978122018 618.267719749384L544.8478540378383 620.5126635237466L547.0927978122018 622.7576072981092L542.6029102634784 625.0025510724718L547.0927978122018 629.4924386211978L556.0521643298853 630.6149105083787L556.0521643298853 628.3699667340161L565.0319394273356 630.6149105083787L569.5218269760626 628.3699667340161L571.7463621706556 630.6149105083787L569.5218269760626 636.2068613645188L578.4811934937461 636.2068613645188L580.7261372681096 635.0843894773379L578.4811934937461 637.3293332517005L580.7261372681096 646.3091083491508L576.2362497193826 649.6765240106952L576.2362497193826 654.1460029796535L580.7261372681096 658.6358905283796L587.4405600114333 655.2684748668353L589.6855037857931 651.901059205291L596.4203351088836 649.6765240106952L598.6652788832434 646.3091083491508L600.9102226576069 645.1866364619691L607.6246454009306 645.1866364619691L609.8695891752905 644.0641645747883L614.3594767240138 645.1866364619691L618.8493642727408 640.6967489132439L627.808730790428 639.5742770260631L634.5435621135111 645.1866364619691L643.5029286311983 649.6765240106952L645.7478724055618 667.5952570460631L654.7072389232453 673.20761648197L654.7072389232453 690.024286209924L656.9521826976088 702.3510683891518L643.5029286311983 719.1677381171057L616.6044204983809 722.53515377865L591.9304475601566 758.4134370089196L573.9913059450228 790.9243045776457L556.0521643298853 792.0467764648274L533.6435437457912 780.8424661727804L538.1130227147514 794.29172023919L535.8884875201547 818.9452845976466L502.2551480642469 821.1902283720092L488.7854854180732 823.4351721463718L488.7854854180732 832.3945386640562L477.5811751260226 826.8025878079161L464.1319210596157 815.5778689361023L482.07106267474956 802.1286148696927L486.5609502234729 794.29172023919L488.7854854180732 787.5568889161023L493.27537296679657 787.5568889161023L497.76526051552355 783.0670013673762L506.72462703320343 786.4344170289205L515.7044021306574 786.4344170289205L522.4188248739774 785.3119451417397L531.3985999714278 781.9445294801953L524.6637686483409 778.5975223984178L515.7044021306574 778.5975223984178L506.72462703320343 771.8626910753292L508.96957080757056 762.9033245576456L511.2145145819304 760.6583807832822L504.5000918386104 752.8010775730127L506.72462703320343 747.2091267168726L506.72462703320343 744.96418294251L506.72462703320343 741.5967672809666L504.5000918386104 740.4742953937848L506.72462703320343 739.351823506604L504.5000918386104 731.5149288761013L500.0102042898834 724.7800975530126L486.5609502234729 724.7800975530126L479.82611890038606 712.4533153737839L473.0912875772992 710.2083715994213L470.86675238270254 711.330843486603L466.37686483397556 711.330843486603L461.8869772852522 715.8207310353282L459.6420335108887 714.6982591481474L455.1725545419322 718.045266229924L452.9276107675687 714.6982591481474L448.4377232188417 714.6982591481474L441.7028918957549 709.0858997122405L441.7028918957549 711.330843486603L437.2334129267947 710.2083715994213L437.2334129267947 713.5757872609656L437.2334129267947 714.6982591481474L437.2334129267947 716.9227943427431L437.2334129267947 719.1677381171057L432.7435253780677 720.2902100042875L428.25363782934437 716.9227943427431L426.0086940549809 716.9227943427431L421.53921508602434 714.6982591481474L421.53921508602434 716.9227943427431L417.04932753729736 714.6982591481474L414.8043837629375 711.330843486603L412.5594399885704 715.8207310353282L408.06955243984703 713.5757872609656L403.6000734708905 715.8207310353282L403.6000734708905 714.6982591481474L401.355129696527 716.9227943427431L401.355129696527 719.1677381171057L401.355129696527 720.2902100042875L396.8652421478 718.045266229924L392.37535459907303 720.2902100042875L392.37535459907303 716.9227943427431L385.660931855753 714.6982591481474L381.17104430702966 715.8207310353282L376.6811567583027 720.2902100042875L374.4362129839392 721.4126818914683L365.47684646625567 716.9227943427431L360.9869589175323 716.9227943427431L360.9869589175323 711.330843486603L363.2319026918922 707.9634278250587L363.2319026918922 704.5960121635144L358.7420151431652 702.3510683891518L358.7420151431652 700.1061246147892L358.7420151431652 697.8815894201934L363.2319026918922 697.8815894201934L367.72179024061916 693.3917018714683L367.72179024061916 690.024286209924L372.2116777893425 690.024286209924L374.4362129839392 692.2692299842865L376.6811567583027 688.9018143227431L381.17104430702966 688.9018143227431L383.4159880813895 684.411926774017L385.660931855753 684.411926774017L385.660931855753 679.9424478050587L381.17104430702966 674.3300883691518L372.2116777893425 672.0851445947892L374.4362129839392 668.7177289332449L369.96673401498265 660.8808343027422L360.9869589175323 656.3909467540161L358.7420151431652 654.1460029796535L352.02759239984516 650.7785873181092Z" stroke="#FFFFFF" stroke-opacity="0.75" stroke-width="1" stroke-linecap="round" stroke-linejoin="round" fill="#D3D3D3"/>
		<path name="莆田市" d="M549.3377415865652 557.735872160657L551.5826853609287 554.3684564991127L567.2768832016991 547.6540337557917L569.5218269760626 545.4090899814291L573.9913059450228 547.6540337557917L578.4811934937461 549.8989775301543L580.7261372681096 549.8989775301543L582.9710810424731 551.021449417336L585.2160248168329 549.8989775301543L589.6855037857931 551.021449417336L591.9304475601566 548.7765056429726L596.4203351088836 549.8989775301543L598.6652788832434 548.7765056429726L605.3797016265635 542.0416743198848L609.8695891752905 546.53156186861L612.114532949654 546.53156186861L627.808730790428 540.9192024327031L632.2986183391513 537.5517867711596L634.5435621135111 539.7967305455222L632.2986183391513 543.1641462070656L639.0130410824713 539.7967305455222L645.7478724055618 539.7967305455222L654.7072389232453 536.4293148839779L670.4014367640157 536.4293148839779L672.6463805383792 537.5517867711596L672.6463805383792 540.9192024327031L670.4014367640157 543.1641462070656L672.6463805383792 547.6540337557917L670.4014367640157 551.021449417336L672.6463805383792 554.3684564991127L670.4014367640157 559.9808159350196L674.8913243127427 565.5931753709265L674.8913243127427 571.1851262270666L679.381211861466 576.7974856629735L683.871099410193 577.9199575501552L690.5855221535166 574.5525418886109L692.8304659278765 582.4098450988804L692.8304659278765 585.7568521806579L690.5855221535166 586.8793240678397L688.3405783791532 589.1242678422022L686.0956346047897 590.2467397293831L686.0956346047897 593.6141553909274L692.8304659278765 598.1040429396526L695.0754097022436 609.3083532316996L721.973917835061 619.3901916365649L739.9130594501949 630.6149105083787L764.5870323884192 632.8598542827422L771.3014551317392 635.0843894773379L784.7507091981497 635.0843894773379L789.2405967468767 647.4315802363317L778.036286454826 650.7785873181092L739.9130594501949 667.5952570460631L739.9130594501949 696.7591175330117L728.7087491581478 692.2692299842865L708.5246637686505 668.7177289332449L692.8304659278765 669.8402008204266L683.871099410193 687.7793424355614L665.9319577950591 687.7793424355614L656.9521826976088 702.3510683891518L654.7072389232453 690.024286209924L654.7072389232453 673.20761648197L645.7478724055618 667.5952570460631L643.5029286311983 649.6765240106952L634.5435621135111 645.1866364619691L627.808730790428 639.5742770260631L618.8493642727408 640.6967489132439L614.3594767240138 645.1866364619691L609.8695891752905 644.0641645747883L607.6246454009306 645.1866364619691L600.9102226576069 645.1866364619691L598.6652788832434 646.3091083491508L596.4203351088836 649.6765240106952L589.6855037857931 651.901059205291L587.4405600114333 655.2684748668353L580.7261372681096 658.6358905283796L576.2362497193826 654.1460029796535L576.2362497193826 649.6765240106952L580.7261372681096 646.3091083491508L578.4811934937461 637.3293332517005L580.7261372681096 635.0843894773379L578.4811934937461 636.2068613645188L569.5218269760626 636.2068613645188L571.7463621706556 630.6149105083787L569.5218269760626 628.3699667340161L565.0319394273356 630.6149105083787L556.0521643298853 628.3699667340161L556.0521643298853 630.6149105083787L547.0927978122018 629.4924386211978L542.6029102634784 625.0025510724718L547.0927978122018 622.7576072981092L544.8478540378383 620.5126635237466L547.0927978122018 618.267719749384L542.6029102634784 614.9207126676065L540.3579664891149 611.5532970060622L535.8884875201547 609.3083532316996L538.1130227147514 607.063409457337L538.1130227147514 603.6959937957927L533.6435437457912 603.6959937957927L531.3985999714278 601.4714586011969L535.8884875201547 592.4916835037457L535.8884875201547 589.1242678422022L533.6435437457912 589.1242678422022L533.6435437457912 586.8793240678397L535.8884875201547 581.2873732116996L542.6029102634784 576.7974856629735L542.6029102634784 574.5525418886109L549.3377415865652 570.0626543398857L549.3377415865652 566.7156472581082L551.5826853609287 559.9808159350196L549.3377415865652 557.735872160657Z" stroke="#FFFFFF" stroke-opacity="0.75" stroke-width="1" stroke-linecap="round" stroke-linejoin="round" fill="#D3D3D3"/>
		<path name="厦门市" d="M421.53921508602434 716.9227943427431L421.53921508602434 714.6982591481474L426.0086940549809 716.9227943427431L428.25363782934437 716.9227943427431L432.7435253780677 720.2902100042875L437.2334129267947 719.1677381171057L437.2334129267947 716.9227943427431L437.2334129267947 714.6982591481474L437.2334129267947 713.5757872609656L437.2334129267947 710.2083715994213L441.7028918957549 711.330843486603L441.7028918957549 709.0858997122405L448.4377232188417 714.6982591481474L452.9276107675687 714.6982591481474L455.1725545419322 718.045266229924L459.6420335108887 714.6982591481474L461.8869772852522 715.8207310353282L466.37686483397556 711.330843486603L470.86675238270254 711.330843486603L473.0912875772992 710.2083715994213L479.82611890038606 712.4533153737839L486.5609502234729 724.7800975530126L500.0102042898834 724.7800975530126L504.5000918386104 731.5149288761013L506.72462703320343 739.351823506604L504.5000918386104 740.4742953937848L506.72462703320343 741.5967672809666L506.72462703320343 744.96418294251L506.72462703320343 747.2091267168726L504.5000918386104 752.8010775730127L511.2145145819304 760.6583807832822L508.96957080757056 762.9033245576456L506.72462703320343 771.8626910753292L515.7044021306574 778.5975223984178L524.6637686483409 778.5975223984178L531.3985999714278 781.9445294801953L522.4188248739774 785.3119451417397L515.7044021306574 786.4344170289205L506.72462703320343 786.4344170289205L497.76526051552355 783.0670013673762L493.27537296679657 787.5568889161023L488.7854854180732 787.5568889161023L486.5609502234729 794.29172023919L482.07106267474956 802.1286148696927L464.1319210596157 815.5778689361023L457.39708973652523 809.9859180799622L439.4783567011582 808.8634461927804L430.49858160370786 804.3735586440553L430.49858160370786 794.29172023919L430.49858160370786 792.0467764648274L423.7637502806174 788.6793608032831L423.7637502806174 785.3119451417397L419.29427131166085 785.3119451417397L421.53921508602434 777.4750505112361L414.8043837629375 772.9851629625109L417.04932753729736 768.4952754137857L421.53921508602434 768.4952754137857L423.7637502806174 765.1482683320082L430.49858160370786 761.7808526704639L430.49858160370786 756.168493234557L426.0086940549809 742.7192391681474L430.49858160370786 733.7394640706971L430.49858160370786 728.147513214557L430.49858160370786 722.53515377865L421.53921508602434 716.9227943427431Z" stroke="#FFFFFF" stroke-opacity="0.75" stroke-width="1" stroke-linecap="round" stroke-linejoin="round" fill="#D3D3D3"/>
	</g>
</svg>