<?xml version="1.0" encoding="UTF-8" standalone="no"?><!-- Generator: Adobe Illustrator 19.0.0, SVG Export Plug-In . SVG Version: 6.00 Build 0)  --><svg xmlns="http://www.w3.org/2000/svg" xmlns:xlink="http://www.w3.org/1999/xlink" contentScriptType="text/ecmascript" zoomAndPan="magnify" contentStyleType="text/css" id="图层_1" style="enable-background:new 0 0 1000 1000;" mapName="西藏自治区" mapType="省市地图" version="1.1" xml:space="preserve" preserveAspectRatio="xMidYMid meet" viewBox="0 0 1000 1000" x="0px" y="0px">
	<g>
		<path name="那曲地区" d="M370.29257386777863 297.61266677289905L378.78151361948494 283.5561800736866L384.6146417310092 282.7594365816324L388.32794927882605 279.8428725258698L392.0412568266429 281.16594959752365L393.1035814827146 279.8428725258698L400.5301965783483 279.046129033816L404.24350412616513 276.3951461420713L408.48797400201784 276.3951461420713L410.08146098612633 278.2493855417615L415.9145890976515 276.3951461420713L421.7525459576127 276.6607273060895L424.9346911773928 273.7393345018904L429.71032338128225 273.4737533378725L436.0746138208433 270.291608118092L440.319083696696 270.82277044612806L442.43890426040434 274.5360779939449L450.3966816840739 272.1506762662186L459.9479460918519 271.88509510220024L463.66125363966876 270.0260269540736L470.0255440792298 270.0260269540736L475.33233861115514 268.17178755438385L486.47226125460475 267.3750440623296L487.5345859106774 268.96853104643833L491.779055786531 268.70294988241994L493.36771402220256 271.88509510220024L500.79432911783533 275.863983814035L503.9764743376163 273.4737533378725L508.220944213469 273.21300092229103L510.34559352561337 275.5984026500171L514.0589010734302 275.863983814035L517.772208621247 278.51496670577967L523.6053367327722 277.1918896341258L537.401071016403 284.08734240172294L545.8900107681084 286.20716296543105L536.8699086883662 289.6548893492295L532.0942764844776 289.1237270211932L532.6254388125144 294.96168388115507L539.5208915801113 297.61266677289905L550.134480643962 297.878247936917L546.947506675745 307.42951234469524L549.0721559878893 310.87723872849415L546.4211730961451 311.1428198925121L545.8900107681084 312.99705929220227L548.0098313318167 315.3872897683648L545.3588484400725 318.8350161521637L536.3387463603303 321.22041787988974L536.8699086883662 326.2616312477969L533.6877634685861 328.1158706474869L537.401071016403 332.62592168735773L540.583216236184 333.9538275074483L538.9897292520754 341.91160493111784L540.583216236184 344.2970066588441L550.134480643962 342.97392958719024L553.8477881917779 348.0103142066607L551.1919765515968 351.19245942644125L547.4786690037809 351.9892029184955L546.947506675745 355.43692930229395L550.134480643962 357.03041628640267L549.6033183159252 359.6813991781471L551.1919765515968 361.54046732627376L550.6608142235609 367.9047577658346L553.8477881917779 371.6180653136514L552.2543012076694 372.94597113374175L551.7231388796336 379.04468040928464L545.8900107681084 381.1693297214297L543.2341991279272 384.88263726924606L544.8276861120357 389.1271071450992L550.134480643962 393.63715818496985L552.7854635357053 393.8979106005513L556.498771083523 396.55372224073244L555.4364464274504 399.73586746051274L560.7432409593748 402.38685035225717L559.6809163033031 406.89690139212803L561.2744032874116 409.28230311985453L563.9253861791558 409.8134654478904L564.9877108352284 413.2611918316893L571.8831636028253 415.12025997981596L577.1899581347507 420.1614733477229L583.0230862462749 421.4845504193768L593.1055129820897 428.91116551501L612.2032130492098 430.23907133510056L618.5675034887709 427.3225072793382L625.9941185844036 430.5046524991187L631.300913116329 428.91116551501L636.6028788998174 433.9523788829174L651.9872714191206 440.05591690689675L654.6430830593017 444.295558034313L663.1271940625702 441.3789939785506L666.3141680307881 442.1757374706049L667.9028262664597 443.2380621266773L666.3141680307881 445.09230152636746L666.3141680307881 447.48253200253043L668.9651509225323 448.8056090741843L678.5164153303103 447.21695083851205L688.0628509896515 449.07119023820223L690.7138338813966 447.21695083851205L699.202773633102 450.39909605829257L706.0982264006989 448.27444674614776L708.2228757128441 453.5812412780733L716.7118154645495 451.9877542939646L723.0761059041106 458.09129231794395L727.3205757799633 457.2945488258897L730.5027209997443 461.00785637370655L736.8670114393044 456.2322241698173L739.5228230794855 456.2322241698173L744.824788862974 457.5601299899081L747.480600503156 461.00785637370655L751.1939080509719 460.7422752096886L754.3760532707529 462.3357621937971L757.558198490533 461.53901870174286L760.2091813822772 463.13250568585113L762.8649930224583 459.15361697401636L767.6406252263469 459.67995055361575L771.3539327741646 458.09129231794395L772.4114286817994 454.90914709816366L775.0672403219805 456.49780533383546L775.5935739015804 454.90914709816366L778.7805478697974 455.1747282621816L783.5513513252499 451.72700187838313L789.3893081852111 456.49780533383546L787.2646588730668 459.41919813803474L784.0825136532858 461.00785637370655L788.3269835291394 467.9033091413037L787.7958212011026 471.09028310952067L784.6136759813216 472.6789413451929L783.5513513252499 475.3299242369369L783.5513513252499 478.51689820515435L785.1448383093584 481.9646245889526L784.0825136532858 483.81886398864276L785.1448383093584 487.0010092084233L783.5513513252499 490.1879831766403L784.6136759813216 492.3078037403486L789.920470513247 494.43245305249343L790.4516328412838 497.8801794362919L786.207162965431 499.4688376719639L786.207162965431 501.32790582009056L788.8581458571753 501.32790582009056L790.4516328412838 505.0412133679072L796.2847609528089 506.6298716035792L796.8159232808448 509.2856832437601L795.2224362967363 512.4678284635406L799.9980685006249 514.5876490272487L801.0603931566975 517.2434606674296L800.5292308286607 522.2798452869001L802.653880140806 524.1389134350268L793.6337780610638 526.7898963267712L792.5714534049912 528.914545638916L789.920470513247 528.1178021468615L787.7958212011026 524.935656927081L787.7958212011026 521.4879305432826L790.4516328412838 515.9155548473391L788.8581458571753 515.1188113552848L783.0250177456501 516.9778795034115L780.9003684335057 514.0564866992124L782.4938554176142 512.4678284635406L781.4315307615416 511.13992264345006L775.5935739015804 515.6499736833209L772.4114286817994 515.384392519303L771.3539327741646 517.7746229954657L767.6406252263469 518.5665377390835L767.109462898311 522.014264122882L763.9273176785309 526.2587339987349L769.7604457900552 536.0755795705311L768.6981211339826 539.5233059543298L754.9072155987888 538.4609812982574L750.1315833948993 540.0544682823659L746.4182758470834 537.1379042266035L738.4604984234138 535.544417242495L734.2160285475602 538.4609812982574L737.929336095377 539.5233059543298L738.9916607514497 541.9087076820558L737.929336095377 544.0333569942006L742.7049682992665 546.6843398859451L742.7049682992665 548.2778268700536L754.3760532707529 552.783049161488L754.9072155987888 555.4388608016689L760.740343710313 557.0275190373407L758.6205231466056 558.0898436934131L758.6205231466056 561.8031512412297L754.3760532707529 563.1310570613202L752.7825662866435 566.0476211170826L747.480600503156 564.4541341329741L742.1738059712297 567.109945773155L732.6273703118886 566.8443646091371L726.2582511238907 565.2508776250284L724.6695928882191 563.1310570613202L725.1959264678189 560.2144930055579L717.2429777925854 556.2356042937231L711.4050209326242 561.0064077491757L709.2852003689159 557.0275190373407L706.6293887287356 556.2356042937231L706.6293887287356 552.783049161488L699.7339359611378 551.1943909258159L699.202773633102 554.6421173096146L694.9583037572484 555.4388608016689L693.9008078496136 557.0275190373407L694.9583037572484 559.4177495135036L692.8384831935409 562.8654758973023L692.8384831935409 564.7197152969923L690.1875003017967 564.4541341329741L690.1875003017967 566.5787834451189L687.0005263335788 565.5164587890465L686.469364005543 569.7609286648992L675.8606036901292 567.6411081011913L673.209620798385 568.4330228448089L667.9028262664597 565.2508776250284L664.7206810466787 570.2920909929355L661.0073734988628 570.0265098289174L655.1742453873376 571.885577977044L652.5184337471574 566.8443646091371L649.8674508554122 566.8443646091371L649.3362885273764 561.2719889131936L647.216467963668 559.9489118415397L648.8051261993396 556.5011854577413L651.9872714191206 555.4388608016689L651.4561090910847 552.783049161488L644.5606563234869 548.5434080340717L644.029493995451 545.8875963938906L634.4830583361099 549.3353227776893L629.1762638041846 546.6843398859451L629.7074261322205 544.0333569942006L627.0564432404763 539.7888871183477L625.4629562563678 530.2376227105697L621.7496487085509 529.9720415465515L619.6298281448435 531.8311096946782L614.854195940954 529.7064603825334L613.7918712848814 531.8311096946782L615.9165205970257 534.7476737504408L612.2032130492098 537.6642378062029L608.4899055013921 535.544417242495L605.8340938612118 531.8311096946782L604.2454356255403 531.2999473666421L602.6519486414318 532.6278531867326L598.9386410936149 531.0343662026239L595.2253335457981 534.2165114224044L588.861043106237 553.314211489524L592.0431883260171 558.0898436934131L587.2675561221286 561.0064077491757L582.4919239182391 562.0687324052478L579.8409410264949 564.4541341329741L579.309778698459 566.8443646091371L572.4143259308621 567.109945773155L571.3520012747895 571.3544156490079L566.0452067428641 579.3121930726775L564.4565485071926 579.8433554007136L564.4565485071926 582.494338292458L561.8055656154474 583.5566629485304L555.4364464274504 581.6975948004037L553.8477881917779 578.5154495806232L551.7231388796336 577.718706088569L551.7231388796336 574.2709797047703L549.6033183159252 572.1463303926255L546.4211730961451 572.94307388468L544.8276861120357 569.7609286648992L542.1767032202915 570.5576721569537L540.0520539081472 568.9641851728452L538.4633956724756 570.0265098289174L534.218925796622 568.1722704292274L530.5056182488061 569.7609286648992L527.3186442805882 567.3755269371732L523.6053367327722 568.1722704292274L520.9543538410271 566.0476211170826L517.2410462932112 568.1722704292274L512.4654140893217 568.1722704292274L509.28326886954164 571.0888344849898L505.5699613217248 569.4953475008813L504.50763666565217 571.0888344849898L494.96120100631106 569.7609286648992L489.12324414634895 577.9842872525869L486.47226125460475 576.9219625965147L487.0034235826415 572.4119115566436L483.82127836286145 568.698604008827L478.5144838309352 567.9066892652093L476.39466326722777 570.0265098289174L473.20768929900987 569.7609286648992L472.68135571941 567.9066892652093L469.49438175119394 567.3755269371732L467.3745611874856 562.334313569266L459.41678376381606 562.8654758973023L457.2969632001077 561.5375700772117L450.92784401211065 564.4541341329741L444.5635535725496 562.334313569266L442.9700665884411 562.8654758973023L440.85024602473186 561.8031512412297L440.85024602473186 557.8242625293949L438.19443438455164 554.1109549815783L433.95479325713495 553.5797926535422L432.8924686010623 554.9076984736328L424.4035288493569 553.8453738175601L423.3412041932843 546.4187587219269L420.1590589735042 542.7054511741103L421.7525459576127 539.2577247903116L419.62789664546835 535.544417242495L416.97691375372324 537.1379042266035L415.38342676961474 541.6431265180377L410.08146098612633 544.8301004862551L409.55029865809047 543.5021946661645L412.73244387787145 540.320049446384L413.79476853394317 536.3411607345492L411.13895689376295 535.544417242495L406.3681534383095 537.398656642185L402.65484589049356 540.320049446384L405.83699111027363 546.4187587219269L404.24350412616513 547.7466645420172L406.3681534383095 549.0697416136711L410.08146098612633 549.0697416136711L409.0191363300537 551.9911344178702L412.2012815498347 551.4599720898341L412.2012815498347 555.9700231297049L409.0191363300537 553.314211489524L403.1811794700934 555.4388608016689L401.59252123442093 554.1109549815783L399.99903425031243 554.9076984736328L401.59252123442093 558.6210060214494L398.9415383426767 558.0898436934131L394.16590613878725 560.480074169576L392.57241915467876 557.2931002013588L388.32794927882605 557.8242625293949L388.32794927882605 553.5797926535422L387.27045337119034 552.2567155818883L388.32794927882605 551.1943909258159L386.7392910431545 549.8664851057254L387.27045337119034 546.6843398859451L383.02598349533764 541.9087076820558L381.963658839265 535.0132549144587L376.6568643073397 532.0966908586963L376.6568643073397 529.4457079669521L374.00588141559547 522.2798452869001L366.0481039919259 522.014264122882L348.0127285808794 514.8532301912669L345.3569169406974 508.48893975170586L341.64360939288144 507.95777742366954L339.5237888291731 504.24446987585293L337.39913951702783 503.7133075478166L335.81048128135626 505.30679453192533L332.6283360615762 501.5934869841085L329.4413620933583 499.73441883598184L326.2592168735782 500.5311623280363L325.2017209659425 492.3078037403486L326.7903792016141 490.1879831766403L326.7903792016141 486.2090944648055L321.4884134181257 479.839975276808L327.32154152965086 472.41336018117454L329.4413620933583 463.3980868498695L332.0971737335394 459.94553171763414L334.21699429724777 459.67995055361575L337.9303018450646 455.4403094262L343.23709637698994 455.7058905902179L354.9081813484763 450.66467722231096L362.3347964441091 450.1335148942744L365.51694166389007 446.6857885104762L370.8237361958154 444.82672036234953L372.412394431487 442.44131863462303L370.29257386777863 440.5822504864964L370.8237361958154 436.33778061064345L372.94355675952283 434.4835412109535L372.412394431487 432.8900542268452L375.59936839970396 428.3848319354106L368.69908688367013 428.11925077139244L368.69908688367013 423.87478089553974L378.78151361948494 420.1614733477229L379.83900952712065 416.4481657999063L383.02598349533764 415.3858411438339L379.83900952712065 411.93811476003543L379.3126759475208 405.30341440801976L377.18802663537554 405.30341440801976L375.59936839970396 403.18359384431164L380.3701718551565 394.6946540926058L379.83900952712065 392.0436712008616L377.7191889634123 389.39268830911715L378.25035129144817 387.5336201609905L376.6568643073397 385.9401331768818L376.6568643073397 381.1693297214297L373.4747190875596 376.6592786815586L375.0682060716681 367.9047577658346L370.29257386777863 364.4570313820361L364.45461700781743 362.07162965430985L364.45461700781743 360.2125615061832L369.76141153974277 355.96809163033026L369.230249211706 351.4580405904592L373.4747190875596 345.3593313149163L372.94355675952283 341.6460237670999L378.25035129144817 331.5635970312853L376.1257019793038 324.1369819356521L378.78151361948494 321.22041787988974L380.9013341831933 321.22041787988974L379.3126759475208 316.97594800403704L379.83900952712065 314.3249651122926L381.43249651122915 313.5282216202381L380.9013341831933 310.34607640045783L381.963658839265 309.0181705803675L380.9013341831933 306.632768852641L371.88606085188803 300.79481199267957L370.29257386777863 297.61266677289905Z" stroke="#FFFFFF" stroke-opacity="0.75" stroke-width="1" stroke-linecap="round" stroke-linejoin="round" fill="#D3D3D3"/>
		<path name="阿里地区" d="M370.29257386777863 297.61266677289905L371.88606085188803 300.79481199267957L380.9013341831933 306.632768852641L381.963658839265 309.0181705803675L380.9013341831933 310.34607640045783L381.43249651122915 313.5282216202381L379.83900952712065 314.3249651122926L379.3126759475208 316.97594800403704L380.9013341831933 321.22041787988974L378.78151361948494 321.22041787988974L376.1257019793038 324.1369819356521L378.25035129144817 331.5635970312853L372.94355675952283 341.6460237670999L373.4747190875596 345.3593313149163L369.230249211706 351.4580405904592L369.76141153974277 355.96809163033026L364.45461700781743 360.2125615061832L364.45461700781743 362.07162965430985L370.29257386777863 364.4570313820361L375.0682060716681 367.9047577658346L373.4747190875596 376.6592786815586L376.6568643073397 381.1693297214297L376.6568643073397 385.9401331768818L378.25035129144817 387.5336201609905L377.7191889634123 389.39268830911715L379.83900952712065 392.0436712008616L380.3701718551565 394.6946540926058L375.59936839970396 403.18359384431164L377.18802663537554 405.30341440801976L379.3126759475208 405.30341440801976L379.83900952712065 411.93811476003543L383.02598349533764 415.3858411438339L379.83900952712065 416.4481657999063L378.78151361948494 420.1614733477229L368.69908688367013 423.87478089553974L368.69908688367013 428.11925077139244L375.59936839970396 428.3848319354106L372.412394431487 432.8900542268452L372.94355675952283 434.4835412109535L370.8237361958154 436.33778061064345L370.29257386777863 440.5822504864964L372.412394431487 442.44131863462303L370.8237361958154 444.82672036234953L365.51694166389007 446.6857885104762L362.3347964441091 450.1335148942744L354.9081813484763 450.66467722231096L343.23709637698994 455.7058905902179L337.9303018450646 455.4403094262L334.21699429724777 459.67995055361575L332.0971737335394 459.94553171763414L329.4413620933583 463.3980868498695L327.32154152965086 472.41336018117454L321.4884134181257 479.839975276808L326.7903792016141 486.2090944648055L326.7903792016141 490.1879831766403L325.2017209659425 492.3078037403486L326.2592168735782 500.5311623280363L329.4413620933583 499.73441883598184L332.6283360615762 501.5934869841085L335.81048128135626 505.30679453192533L337.39913951702783 503.7133075478166L339.5237888291731 504.24446987585293L341.64360939288144 507.95777742366954L345.3569169406974 508.48893975170586L348.0127285808794 514.8532301912669L366.0481039919259 522.014264122882L374.00588141559547 522.2798452869001L376.6568643073397 529.4457079669521L376.6568643073397 532.0966908586963L376.1257019793038 532.3622720227145L373.4747190875596 533.9509302583863L371.35489852385126 529.180126802934L362.86595877214586 528.3833833108797L356.5016683325848 531.5655285306602L355.4393436765122 535.544417242495L358.62148889629225 540.8512117744203L357.02800191218375 545.0908529018363L359.152651224329 548.2778268700536L354.9081813484763 547.4810833779993L352.78353203633105 549.6009039417074L360.21497588040074 553.8453738175601L362.3347964441091 556.2356042937231L361.27247178803646 561.8031512412297L364.45461700781743 564.4541341329741L360.21497588040074 563.3966382253384L358.0903265682564 567.3755269371732L355.97050600454895 567.6411081011913L360.21497588040074 573.474236212716L359.6838135523649 575.0677231968248L356.5016683325848 573.474236212716L357.02800191218375 579.5777742366956L351.1948738006595 581.9631759644217L352.2571984567312 585.1453211842022L345.88807926873415 586.2076458402746L343.23709637698994 589.1242098960372L340.05495115720987 587.5355516603652L337.9303018450646 590.4521157161275L337.9303018450646 593.899842099926L334.7481566252836 595.7540814996162L330.5036867494309 594.4310044279623L326.7903792016141 595.488500335598L312.99947366641936 584.0829965281298L312.4683113383835 581.6975948004037L306.63035447842276 580.9008513083495L306.63035447842276 572.94307388468L303.9793715866781 568.1722704292274L300.79722636689803 566.8443646091371L298.14624347515337 561.0064077491757L293.37061127126435 561.2719889131936L292.3082866151917 558.6210060214494L294.42810717890006 554.1109549815783L293.37061127126435 551.725553253852L294.42810717890006 550.1320662697435L296.02159416300856 550.3976474337617L297.08391881908074 544.8301004862551L307.69267913449494 535.8099984065129L303.9793715866781 533.4197679303502L303.4482092586418 530.2376227105697L300.26606403886126 528.3833833108797L299.2037393827891 519.0977000671196L294.42810717890006 516.4467171753754L288.063816739339 516.9778795034115L281.16836397174166 514.5876490272487L280.6372016437058 512.4678284635406L287.0014920832664 510.608760315414L289.65730372344797 508.48893975170586L296.02159416300856 508.754520915724L299.7349017108254 502.65098289174443L302.91704693060547 501.0623246560724L293.37061127126435 498.67209417990966L291.77712428715586 494.9587866320928L289.65730372344797 493.370128396421L287.5326544113027 494.9587866320928L289.1261413954112 501.5934869841085L286.47515850366744 500.7967434920545L285.4128338475948 502.65098289174443L284.88167151955895 500.7967434920545L281.16836397174166 499.73441883598184L278.5173810799979 500.26558116401816L277.45505642392527 502.3854017277263L272.14826189199994 501.32790582009056L269.49727900025573 503.7133075478166L258.35735635680567 505.0412133679072L255.17521113702514 503.1821452197805L245.09278440121125 503.97888871183477L241.37947685339395 502.91656405576236L236.60384464950494 497.08343594423764L235.0151864138329 498.14576060031004L235.0151864138329 500.7967434920545L232.89053710168855 501.0623246560724L230.77071653797975 498.9376753439276L224.40642609841916 501.85906814812665L219.63079389453014 500.7967434920545L217.50614458238533 501.5934869841085L221.21945213020172 504.5100510398711L214.3239993626048 503.4477263837987L213.26167470653218 504.5100510398711L214.3239993626048 506.6298716035792L220.16195622256646 509.02010207974195L219.63079389453014 512.2022472995225L221.7506144582385 519.6288623951557L220.69311855060278 523.0765887789544L213.79283703456895 524.6700757630631L212.20417879889692 529.4457079669521L212.73534112693324 531.5655285306602L216.97498225434947 535.8099984065129L219.63079389453014 535.544417242495L223.87526377038284 541.1119641900016L229.17722955387126 541.6431265180377L230.77071653797975 546.1531775579087L225.99508433409073 555.7044419656868L222.8129391143102 554.3765361455964L220.16195622256646 554.6421173096146L218.56846923845796 552.2567155818883L220.16195622256646 549.6009039417074L213.79283703456895 547.2155022139812L211.1418541428243 542.174288846074L208.49087125108008 542.7054511741103L204.7775637032637 545.0908529018363L205.30389728286264 550.928809761798L203.18407671915475 555.1732796376507L206.36622193893527 562.0687324052478L202.65291439111888 563.3966382253384L196.81978627959415 560.2144930055579L194.69513696744934 563.6622193893566L193.6328123113767 561.2719889131936L189.39317118396048 559.6833306775218L187.26852187181566 561.2719889131936L186.7373595437798 565.7820399530644L180.90423143225507 570.8232533209718L178.77958212011026 569.2297663368631L179.31074444814612 563.9278005533745L177.72208621247455 563.3966382253384L173.4776163366214 565.2508776250284L171.8841293525129 563.3966382253384L162.33769369317133 561.8031512412297L156.49973683320968 559.1521683494855L155.4374121771375 560.7408265851575L152.7864292853933 560.2144930055579L152.25526695735698 562.8654758973023L145.35981418975962 560.480074169576L144.82865186172376 570.2920909929355L141.11534431390737 573.474236212716L138.99552375019857 573.2086550486979L139.52185732979842 576.6563814324966L137.40203676609008 579.0466119086595L137.93319909412685 579.5777742366956L133.15756689023783 580.104107816295L129.9754216704573 578.2498684166051L131.03774632652903 576.3908002684784L127.32443877871265 568.698604008827L117.77317437093461 565.5164587890465L106.63325172748455 557.8242625293949L103.98226883574034 559.1521683494855L97.61314964774238 555.4388608016689L94.43100442796185 555.4388608016689L92.31118386425396 553.314211489524L87.53555166036494 552.2567155818883L83.8222441125481 553.8453738175601L79.5777742366954 551.9911344178702L77.98428725258691 548.5434080340717L75.86446668887857 547.4810833779993L75.33330436084225 543.2366135021464L72.15115914106218 541.6431265180377L73.2134837971339 540.320049446384L68.96901392128166 539.2577247903116L65.25570637346436 535.0132549144587L61.54239882564798 533.1590155147687L58.886587185467306 535.2788360784768L56.76676662175896 535.0132549144587L53.05345907394258 530.768785038606L49.34015152612528 530.5032038745878L49.34015152612528 528.914545638916L44.0333569942004 531.5655285306602L44.564519322236265 534.2165114224044L41.38237410245574 534.7476737504408L38.20022888267522 531.8311096946782L33.95575900682297 532.6278531867326L29.711289130969817 530.2376227105697L27.586639818825006 527.3210586548073L28.117802146861322 523.8733322710086L22.81100761493599 517.5090418314478L18.571366487519754 517.2434606674296L17.50904183144712 514.8532301912669L19.09770006711915 510.608760315414L15.915554847338626 507.6921962596514L21.753511707300277 502.3854017277263L19.628862395155465 499.4688376719639L17.50904183144712 499.73441883598184L12.202247299522242 492.04222257633046L16.446717175374943 489.6568208486042L18.040204159483892 486.4746756288239L10.082426735814352 483.0221204965885L5.306794531925334 477.18899238506356L2.655811640180673 477.45457354908194L1.59348698410804 474.00684716528303L4.244469875852701 471.6166166891205L5.306794531925334 468.9656337973761L2.655811640180673 465.25232624955925L3.7133075478163846 463.13250568585113L-4.547473508864641e-13 458.3568734819621L1.0623246560721782 456.76338649785384L9.020102079741719 453.31566011405494L11.144751391886075 453.5812412780733L16.446717175374943 449.8679337302565L18.571366487519754 454.90914709816366L17.50904183144712 456.49780533383546L18.571366487519754 461.00785637370655L27.586639818825006 467.9033091413037L29.711289130969817 465.78348857759556L33.95575900682297 466.0490697416135L35.544417242494546 461.00785637370655L42.439870010091454 457.5601299899081L43.50219466616409 449.33677140222017L42.439870010091454 446.4202073464578L39.78888711834725 445.3578826903854L40.85121177441988 437.93126759475217L36.606741898566725 434.21796004693533L36.606741898566725 427.05692611532027L32.36227202271402 424.671524387594L30.24245145900568 420.42705451174106L21.222349379264415 415.3858411438339L16.446717175374943 408.7559695402549L17.50904183144712 406.100157900074L13.795734283630736 403.4491750083296L18.040204159483892 400.26702978854905L17.50904183144712 392.0436712008616L15.915554847338626 391.24692770880733L16.97787950341126 387.5336201609905L12.733409627558103 385.6793807613003L12.733409627558103 383.82031261317366L22.28467403533614 379.57584273732095L24.9356569270808 380.10700506535704L28.117802146861322 372.41480880570566L30.76878503860553 371.88364647766934L32.36227202271402 367.37359543779826L36.606741898566725 365.5193560381085L40.85121177441988 367.1080142737803L42.439870010091454 366.0505183661446L67.37552693717271 364.19145021801796L69.4953475008806 362.337210818328L72.15115914106218 357.29599745042105L71.08883448498909 354.9057669742581L73.73981737673375 352.78594641054997L73.73981737673375 350.4005446828237L71.61999681302586 348.54147653469704L72.15115914106218 346.6872371350071L76.9267913449512 345.8904936429526L77.98428725258691 342.177186095136L80.10893656473172 340.84928027504566L79.04661190865863 337.93271621928307L87.00438933232817 332.8915028513761L85.94206467625645 332.3603405233398L87.53555166036494 330.2405199596317L93.89984209992599 330.771682287668L94.43100442796185 328.64703297552296L90.1865345521087 324.9337254277066L91.24885920818133 322.28274253596214L92.31118386425396 320.4236743878355L97.61314964774238 319.1005973161816L108.75307229119244 319.89734080823587L111.40888393137357 322.81390486399846L118.83549902700634 322.5483236999801L126.26211412264001 324.1369819356521L127.85077235831204 323.3450671920343L127.85077235831204 320.15809322381733L130.50658399849317 319.63175964421794L135.80854978198158 323.3450671920343L146.9533011738681 322.017161371944L151.72410462932066 327.05837473985116L158.61955739691803 327.85028948346894L169.764308788805 325.99605008377875L171.35296702447658 323.3450671920343L174.5351122442571 323.3450671920343L176.1285992283656 321.75158020792605L176.1285992283656 317.7726914960913L183.0240519959625 315.3872897683648L186.7373595437798 312.46589696416595L188.8620088559246 312.99705929220227L190.98182941963205 309.2837517443854L189.91950476356033 307.42951234469524L193.10647873177686 307.42951234469524L193.6328123113767 305.5704441965686L196.28862395155738 304.5081195404964L203.18407671915475 305.5704441965686L209.5483671587158 308.2262558367495L212.20417879889692 305.8360253605865L220.16195622256646 306.36718768862306L222.28177678627435 315.65287093238317L224.932759678019 316.4447856760007L228.119733646236 319.89734080823587L234.48402408579705 319.1005973161816L239.79081861772192 320.6892555518534L246.15510905728297 319.89734080823587L249.3372542770635 322.28274253596214L253.0505618248808 322.5483236999801L264.1904844683304 321.48599904390767L266.3151337804752 319.36617848019955L270.55960365632745 318.8350161521637L273.7417488761089 319.36617848019955L275.33040711178046 321.48599904390767L277.45505642392527 320.6892555518534L279.04371465959684 321.75158020792605L292.3082866151917 315.9184520964011L293.37061127126435 314.3249651122926L292.3082866151917 313.2626404562202L292.8394489432285 312.46589696416595L310.874824354275 308.2262558367495L319.8949264340172 303.18504246884254L326.2592168735782 303.18504246884254L331.56601140550356 301.3259743207159L342.1747717209173 304.77370070451434L346.41924159677 308.2262558367495L351.72603612869534 303.18504246884254L365.51694166389007 301.06039315669796L370.29257386777863 297.61266677289905Z" stroke="#FFFFFF" stroke-opacity="0.75" stroke-width="1" stroke-linecap="round" stroke-linejoin="round" fill="#D3D3D3"/>
		<path name="日喀则地区" d="M180.90423143225507 570.8232533209718L186.7373595437798 565.7820399530644L187.26852187181566 561.2719889131936L189.39317118396048 559.6833306775218L193.6328123113767 561.2719889131936L194.69513696744934 563.6622193893566L196.81978627959415 560.2144930055579L202.65291439111888 563.3966382253384L206.36622193893527 562.0687324052478L203.18407671915475 555.1732796376507L205.30389728286264 550.928809761798L204.7775637032637 545.0908529018363L208.49087125108008 542.7054511741103L211.1418541428243 542.174288846074L213.79283703456895 547.2155022139812L220.16195622256646 549.6009039417074L218.56846923845796 552.2567155818883L220.16195622256646 554.6421173096146L222.8129391143102 554.3765361455964L225.99508433409073 555.7044419656868L230.77071653797975 546.1531775579087L229.17722955387126 541.6431265180377L223.87526377038284 541.1119641900016L219.63079389453014 535.544417242495L216.97498225434947 535.8099984065129L212.73534112693324 531.5655285306602L212.20417879889692 529.4457079669521L213.79283703456895 524.6700757630631L220.69311855060278 523.0765887789544L221.7506144582385 519.6288623951557L219.63079389453014 512.2022472995225L220.16195622256646 509.02010207974195L214.3239993626048 506.6298716035792L213.26167470653218 504.5100510398711L214.3239993626048 503.4477263837987L221.21945213020172 504.5100510398711L217.50614458238533 501.5934869841085L219.63079389453014 500.7967434920545L224.40642609841916 501.85906814812665L230.77071653797975 498.9376753439276L232.89053710168855 501.0623246560724L235.0151864138329 500.7967434920545L235.0151864138329 498.14576060031004L236.60384464950494 497.08343594423764L241.37947685339395 502.91656405576236L245.09278440121125 503.97888871183477L255.17521113702514 503.1821452197805L258.35735635680567 505.0412133679072L269.49727900025573 503.7133075478166L272.14826189199994 501.32790582009056L277.45505642392527 502.3854017277263L278.5173810799979 500.26558116401816L281.16836397174166 499.73441883598184L284.88167151955895 500.7967434920545L285.4128338475948 502.65098289174443L286.47515850366744 500.7967434920545L289.1261413954112 501.5934869841085L287.5326544113027 494.9587866320928L289.65730372344797 493.370128396421L291.77712428715586 494.9587866320928L293.37061127126435 498.67209417990966L302.91704693060547 501.0623246560724L299.7349017108254 502.65098289174443L296.02159416300856 508.754520915724L289.65730372344797 508.48893975170586L287.0014920832664 510.608760315414L280.6372016437058 512.4678284635406L281.16836397174166 514.5876490272487L288.063816739339 516.9778795034115L294.42810717890006 516.4467171753754L299.2037393827891 519.0977000671196L300.26606403886126 528.3833833108797L303.4482092586418 530.2376227105697L303.9793715866781 533.4197679303502L307.69267913449494 535.8099984065129L297.08391881908074 544.8301004862551L296.02159416300856 550.3976474337617L294.42810717890006 550.1320662697435L293.37061127126435 551.725553253852L294.42810717890006 554.1109549815783L292.3082866151917 558.6210060214494L293.37061127126435 561.2719889131936L298.14624347515337 561.0064077491757L300.79722636689803 566.8443646091371L303.9793715866781 568.1722704292274L306.63035447842276 572.94307388468L306.63035447842276 580.9008513083495L312.4683113383835 581.6975948004037L312.99947366641936 584.0829965281298L326.7903792016141 595.488500335598L330.5036867494309 594.4310044279623L334.7481566252836 595.7540814996162L337.9303018450646 593.899842099926L337.9303018450646 590.4521157161275L340.05495115720987 587.5355516603652L343.23709637698994 589.1242098960372L345.88807926873415 586.2076458402746L352.2571984567312 585.1453211842022L351.1948738006595 581.9631759644217L357.02800191218375 579.5777742366956L356.5016683325848 573.474236212716L359.6838135523649 575.0677231968248L360.21497588040074 573.474236212716L355.97050600454895 567.6411081011913L358.0903265682564 567.3755269371732L360.21497588040074 563.3966382253384L364.45461700781743 564.4541341329741L361.27247178803646 561.8031512412297L362.3347964441091 556.2356042937231L360.21497588040074 553.8453738175601L352.78353203633105 549.6009039417074L354.9081813484763 547.4810833779993L359.152651224329 548.2778268700536L357.02800191218375 545.0908529018363L358.62148889629225 540.8512117744203L355.4393436765122 535.544417242495L356.5016683325848 531.5655285306602L362.86595877214586 528.3833833108797L371.35489852385126 529.180126802934L373.4747190875596 533.9509302583863L376.1257019793038 532.3622720227145L376.6568643073397 532.0966908586963L381.963658839265 535.0132549144587L383.02598349533764 541.9087076820558L387.27045337119034 546.6843398859451L386.7392910431545 549.8664851057254L388.32794927882605 551.1943909258159L387.27045337119034 552.2567155818883L388.32794927882605 553.5797926535422L388.32794927882605 557.8242625293949L392.57241915467876 557.2931002013588L394.16590613878725 560.480074169576L398.9415383426767 558.0898436934131L401.59252123442093 558.6210060214494L399.99903425031243 554.9076984736328L401.59252123442093 554.1109549815783L403.1811794700934 555.4388608016689L409.0191363300537 553.314211489524L412.2012815498347 555.9700231297049L412.2012815498347 551.4599720898341L409.0191363300537 551.9911344178702L410.08146098612633 549.0697416136711L406.3681534383095 549.0697416136711L404.24350412616513 547.7466645420172L405.83699111027363 546.4187587219269L402.65484589049356 540.320049446384L406.3681534383095 537.398656642185L411.13895689376295 535.544417242495L413.79476853394317 536.3411607345492L412.73244387787145 540.320049446384L409.55029865809047 543.5021946661645L410.08146098612633 544.8301004862551L415.38342676961474 541.6431265180377L416.97691375372324 537.1379042266035L419.62789664546835 535.544417242495L421.7525459576127 539.2577247903116L420.1590589735042 542.7054511741103L423.3412041932843 546.4187587219269L424.4035288493569 553.8453738175601L432.8924686010623 554.9076984736328L433.95479325713495 553.5797926535422L438.19443438455164 554.1109549815783L440.85024602473186 557.8242625293949L440.85024602473186 561.8031512412297L442.9700665884411 562.8654758973023L444.5635535725496 562.334313569266L450.92784401211065 564.4541341329741L457.2969632001077 561.5375700772117L459.41678376381606 562.8654758973023L467.3745611874856 562.334313569266L469.49438175119394 567.3755269371732L472.68135571941 567.9066892652093L473.20768929900987 569.7609286648992L476.39466326722777 570.0265098289174L478.5144838309352 567.9066892652093L483.82127836286145 568.698604008827L487.0034235826415 572.4119115566436L486.47226125460475 576.9219625965147L489.12324414634895 577.9842872525869L494.96120100631106 569.7609286648992L504.50763666565217 571.0888344849898L505.5699613217248 569.4953475008813L509.28326886954164 571.0888344849898L512.4654140893217 568.1722704292274L517.2410462932112 568.1722704292274L520.9543538410271 566.0476211170826L523.6053367327722 568.1722704292274L527.3186442805882 567.3755269371732L530.5056182488061 569.7609286648992L534.218925796622 568.1722704292274L538.4633956724756 570.0265098289174L540.0520539081472 568.9641851728452L542.1767032202915 570.5576721569537L544.8276861120357 569.7609286648992L546.4211730961451 572.94307388468L549.6033183159252 572.1463303926255L551.7231388796336 574.2709797047703L551.7231388796336 577.718706088569L553.8477881917779 578.5154495806232L555.4364464274504 581.6975948004037L552.7854635357053 582.2287571284398L552.2543012076694 584.8797400201843L552.7854635357053 590.1865345521094L554.9052840994145 593.103098607872L553.316625863742 595.2277479200166L550.6608142235609 596.0196626636341L551.1919765515968 597.6131496477428L548.5409936598535 600.7952948675234L551.1919765515968 603.9774400873036L549.0721559878893 605.0397647433763L550.134480643962 608.4874911271747L557.0299334115589 612.4663798390095L567.1075313989359 611.9352175109732L577.1899581347507 614.059866823118L574.5341464945695 618.8306702785706L571.8831636028253 621.2209007547335L572.4143259308621 626.2621141226405L569.763343039117 629.9754216704571L568.7010183830444 632.3608233981834L570.8208389467536 638.7251138377444L568.7010183830444 640.0530196578347L568.7010183830444 642.7040025495792L563.3942238511199 646.417310097396L566.0452067428641 649.604284065613L566.5763690709 653.0520104494117L564.4565485071926 654.6406686850837L564.4565485071926 658.3539762329003L566.5763690709 659.1507197249546L566.5763690709 661.0097878730812L571.3520012747895 660.7442067090631L569.2321807110811 669.4938988763502L567.1075313989359 667.9052406406784L565.5188731632643 669.7594800403683L562.3318991950473 670.5562235324228L559.6809163033031 668.1708218046963L555.9676087554863 668.4364029687147L550.134480643962 665.5150101645154L549.6033183159252 667.9052406406784L540.583216236184 669.7594800403683L534.218925796622 675.5974369003297L531.0367805768419 682.4928896679271L523.6053367327722 686.73735954378L522.5478408251365 690.4506670915966L518.3033709492829 695.4918804595038L519.8920291849554 697.8772821872299L517.2410462932112 700.0019314993747L516.7098839651753 702.918495555137L519.8920291849554 705.3038972828633L520.4231915129913 707.9548801746075L515.1212257295028 714.0584181985871L511.407918181686 715.1207428546595L507.69461063387007 712.4649312144786L508.220944213469 709.8139483227342L503.9764743376163 706.8973842669718L501.3254914458721 702.918495555137L500.79432911783533 698.6740256792843L504.50763666565217 693.6328123113769L506.10112364976067 682.7584708319453L504.50763666565217 680.8994026838184L503.45014075801646 676.3941803923842L494.96120100631106 671.8841293525131L490.71673113045836 673.207206424167L489.6544064743857 675.5974369003297L487.0034235826415 675.3318557363118L483.82127836286145 678.2484197920742L480.1079708150437 677.982838628056L476.39466326722777 680.1074879402008L470.0255440792298 679.5763256121645L470.55670640726566 682.7584708319453L468.9680481715941 683.5552143239993L465.24991187534033 681.6961461758726L457.2969632001077 681.6961461758726L455.7034762159992 679.5763256121645L450.3966816840739 686.73735954378L447.2145364642929 685.1438725596713L444.5635535725496 685.9406160517256L442.9700665884411 683.8207954880174L437.13693847691593 685.9406160517256L435.0122891647716 685.4094537236895L436.0746138208433 684.0863766520356L432.8924686010623 685.6750348877074L428.6479987252105 684.6175389800719L426.52334941306526 686.2061972157437L420.690221301541 684.8782913956532L417.50807608176 679.8419067761827L412.73244387787145 679.3107444481466L409.0191363300537 676.1285992283658L403.7123417981293 675.5974369003297L401.59252123442093 672.1497105165311L397.3480513585682 673.7383687522031L394.697068466824 671.8841293525131L392.0412568266429 679.3107444481466L387.27045337119034 681.6961461758726L381.43249651122915 678.5140009560923L378.25035129144817 678.2484197920742L376.1257019793038 668.9675652967508L371.35489852385126 673.4727875881849L373.4747190875596 680.373069104219L369.76141153974277 681.9617273398908L367.11042864799856 681.4305650118547L365.51694166389007 680.373069104219L366.0481039919259 677.982838628056L362.3347964441091 674.8006934082755L362.3347964441091 672.1497105165311L359.152651224329 668.4364029687147L355.4393436765122 666.0461724925517L353.3146943643669 658.8851385609364L348.0127285808794 664.988676584916L346.9504039248068 662.5984461087533L343.23709637698994 661.2753690370994L338.99262650113724 661.5361214526806L337.39913951702783 663.9263519288436L324.1393963098699 660.7442067090631L323.608233981834 655.4374121771377L327.8527038576867 651.458523465303L328.3838661857226 647.2140535894503L324.67055863790665 644.2974895336877L321.4884134181257 644.828651861724L317.7702771218728 648.8075405735588L311.93714901034764 649.604284065613L305.57285857078705 647.2140535894503L301.3283886949339 642.1728402215429L292.8394489432285 641.1153443139074L289.65730372344797 635.808549781982L281.6995262997784 633.9543103822921L282.76185095585015 627.5851911942943L279.57487698763316 625.9965329586223L280.1060393156695 623.0751401544235L278.5173810799979 620.1585760986609L280.1060393156695 617.2420120428985L276.39273176785264 617.2420120428985L275.33040711178046 614.8517815667358L266.3151337804752 613.2631233310638L261.5395015765862 614.3254479871362L260.47717692051356 616.9764308788806L256.7638693726972 617.2420120428985L253.0505618248808 621.2209007547335L250.39957893313613 620.424157262679L244.03045974513861 614.3254479871362L242.4418015094666 608.7530722911929L240.31715219732178 607.9563287991384L238.7284939616493 605.0397647433763L235.54634874186922 604.7741835793581L234.48402408579705 602.9199441796682L236.07751106990554 601.5920383595776L229.17722955387126 598.9410554678334L225.99508433409073 599.4673890474328L223.87526377038284 597.3475684837247L220.16195622256646 596.8164061556886L219.09963156649383 594.9621667559986L215.38632401867744 596.0196626636341L210.61069181478842 593.6342609359081L210.07952948675165 592.0407739517993L207.4285465950079 592.3063551158175L209.02203357911594 588.858628732019L207.95970892304376 587.7963040759464L204.24640137522738 588.5930475680009L204.7775637032637 587.0043893323291L201.0642561554464 583.0255006204943L198.40844451526573 583.2910817845122L186.20619721574303 577.1875437605327L182.49288966792665 577.4531249245508L183.55521432399928 573.7398173767342L180.90423143225507 570.8232533209718Z" stroke="#FFFFFF" stroke-opacity="0.75" stroke-width="1" stroke-linecap="round" stroke-linejoin="round" fill="#D3D3D3"/>
		<path name="林芝地区" d="M681.6985605500904 576.3908002684784L683.2872187857629 575.8644666888788L686.469364005543 569.7609286648992L687.0005263335788 565.5164587890465L690.1875003017967 566.5787834451189L690.1875003017967 564.4541341329741L692.8384831935409 564.7197152969923L692.8384831935409 562.8654758973023L694.9583037572484 559.4177495135036L693.9008078496136 557.0275190373407L694.9583037572484 555.4388608016689L699.202773633102 554.6421173096146L699.7339359611378 551.1943909258159L706.6293887287356 552.783049161488L706.6293887287356 556.2356042937231L709.2852003689159 557.0275190373407L711.4050209326242 561.0064077491757L717.2429777925854 556.2356042937231L725.1959264678189 560.2144930055579L724.6695928882191 563.1310570613202L726.2582511238907 565.2508776250284L732.6273703118886 566.8443646091371L742.1738059712297 567.109945773155L747.480600503156 564.4541341329741L752.7825662866435 566.0476211170826L754.3760532707529 563.1310570613202L758.6205231466056 561.8031512412297L758.6205231466056 558.0898436934131L760.740343710313 557.0275190373407L769.2292834620193 551.4599720898341L770.8227704461278 551.9911344178702L771.8802663537635 554.6421173096146L775.0672403219805 554.3765361455964L775.5935739015804 552.783049161488L777.7182232137247 554.3765361455964L781.4315307615416 554.1109549815783L783.0250177456501 551.4599720898341L786.7383252934669 550.3976474337617L800.5292308286607 552.2567155818883L802.1227178127701 553.5797926535422L805.8360253605861 552.783049161488L806.3671876886228 548.8089891980899L807.9558459242944 548.2778268700536L811.6691534721112 550.928809761798L814.3249651122924 548.8089891980899L816.4447856759998 549.6009039417074L817.5071103320724 550.3976474337617L816.9759480040366 552.2567155818883L819.6269308957808 553.5797926535422L822.8090761155609 550.6632285977798L836.0736480711566 554.1109549815783L835.5424857431199 557.558681365377L838.1934686348641 558.6210060214494L841.3804426030811 563.1310570613202L844.562587822862 563.9278005533745L843.5002631667894 566.3132022811008L847.2135707146062 568.698604008827L854.1090234822032 568.698604008827L855.7025104663117 571.0888344849898L859.9469803421653 570.2920909929355L861.004476249801 566.5787834451189L866.3112707817263 564.9852964610104L873.7378858773591 567.3755269371732L877.9823557532118 566.0476211170826L881.1645009729928 569.2297663368631L880.1070050653561 572.94307388468L882.2268256290654 575.0677231968248L880.633338644956 580.104107816295L877.4511934251759 581.6975948004037L877.9823557532118 584.6141588561661L873.2067235493232 590.9832780441639L880.1070050653561 597.3475684837247L881.1645009729928 601.5920383595776L879.5758427373203 604.50860241534L882.7579879571012 610.0809781112832L876.92003109714 610.3465592753014L876.3936975175402 611.9352175109732L881.6956633010286 615.3829438947719L884.3466461927728 620.6897384266972L890.1846030527349 620.424157262679L893.8979106005509 623.0751401544235L894.4290729285876 619.6274137706248L897.6112181483677 618.0387555349528L897.6112181483677 613.5287044950819L896.0177311642592 612.7319610030277L898.1423804764045 609.8153969472653L897.6112181483677 605.5709270714124L900.7933633681487 605.5709270714124L901.3245256961845 602.65436301565L905.5689955720372 606.8988328915029L912.4644483396341 607.1595853070844L915.6465935594151 610.6121404393195L915.1202599798162 613.5287044950819L917.2400805435236 614.8517815667358L917.7712428715595 624.9342083025501L925.1978579671932 623.8718836464777L924.6666956391573 620.424157262679L927.8488408589374 619.0962514425887L925.729020295229 616.1796873868261L927.3176785309015 615.1173627307539L934.2179600469353 617.5075932069167L938.9887635023879 623.8718836464777L945.8890450184217 622.5488065748239L948.5400279101659 625.1997894665683L948.5400279101659 626.7884477022401L951.722173129946 628.3819346863486L951.1910108019101 631.032917578093L953.3156601140545 635.0118062899278L956.4978053338355 635.0118062899278L958.086463569507 632.6264045622015L960.7422752096882 635.0118062899278L962.3309334453606 638.9906950017626L964.9867450855409 640.0530196578347L967.6377279772851 638.9906950017626L969.7575485409934 646.1517289333776L972.9445225092104 650.3961988092308L972.9445225092104 653.0520104494117L979.8399752768082 656.234155669192L983.0221204965883 661.0097878730812L981.4286335124798 662.0672837807169L980.3711376048441 666.577334820588L976.1266677289905 668.9675652967508L972.4133601811745 668.4364029687147L966.5754033212124 671.8841293525131L964.455582757505 668.1708218046963L964.455582757505 664.7230954208981L960.2111128816514 658.0883950688822L956.4978053338355 660.7442067090631L959.1487882255797 665.5150101645154L954.904318349727 666.842915984606L953.3156601140545 670.0250612043865L950.6598484738734 667.6396594766602L947.4777032540933 667.3740783126423L946.9465409260574 663.9263519288436L942.1757374706049 659.4163008889725L936.3377806106428 660.7442067090631L933.6867977188986 658.0883950688822L932.6244730628268 653.0520104494117L929.9734901710826 651.458523465303L927.3176785309015 652.2552669573572L926.2601826232658 650.9273611372669L922.546875075449 654.1095063570474L923.6043709830847 655.7029933411559L921.4845504193763 658.6195573969185L922.546875075449 662.0672837807169L920.9533880913405 662.3328649447351L920.9533880913405 664.1919330928615L918.3024051995963 663.1296084367893L917.7712428715595 665.2542577489342L915.1202599798162 665.7805913285335L915.6465935594151 669.2283177123322L912.9956106676709 673.4727875881849L917.7712428715595 676.1285992283658L916.7089182154878 682.4928896679271L911.4021236835624 681.9617273398908L901.8556880242204 689.6539235995422L900.2622010401119 685.9406160517256L898.6735428044403 686.4717783797619L894.9602352566235 683.2896331599813L891.2469277088076 683.2896331599813L882.2268256290654 679.0451632841284L879.5758427373203 675.3318557363118L874.2690482053958 674.0039499162212L871.0869029856149 669.4938988763502L868.4359200938707 671.352967024477L864.191450218017 670.2906423684046L863.1291255619453 666.0461724925517L849.3333912783137 667.6396594766602L844.0314254948262 662.8640272727712L840.8492802750452 663.3951896008073L821.2204178798893 670.0250612043865L814.8512986918913 680.6386502682371L799.466906172589 686.73735954378L795.2224362967363 689.9195047635603L779.3117101978341 696.2886239515581L770.8227704461278 697.8772821872299L767.6406252263469 697.0805386951756L765.5159759142025 698.4084445152662L763.9273176785309 695.7574616235217L769.7604457900552 691.5129917476688L768.6981211339826 689.1227612715061L770.8227704461278 685.6750348877074L769.2292834620193 684.6175389800719L768.6981211339826 680.1074879402008L763.3961553504951 676.6597615564024L761.2715060383498 673.207206424167L760.2091813822772 663.6607707648254L754.3760532707529 659.6818820529907L750.1315833948993 659.6818820529907L748.5380964107908 657.0308991612465L748.5380964107908 650.3961988092308L742.1738059712297 644.2974895336877L736.3406778597046 645.6253953537782L734.747190875597 644.2974895336877L729.4403963436716 645.0942330257421L725.7270887958548 642.7040025495792L722.5449435760747 642.9695837135973L720.9562853404022 640.5841819858713L708.75403804088 642.4384213855612L701.8537565248462 640.0530196578347L696.5517907413569 643.5007460416334L693.9008078496136 641.1153443139074L688.0628509896515 640.3186008218529L683.8183811137988 638.1939515097081L681.1673982220545 642.4384213855612L678.5164153303103 640.5841819858713L677.9852530022736 637.9331990941268L680.6362358940178 635.5429686179639L685.4118680979072 637.4020367660905L689.1251756457241 636.8708744380544L690.1875003017967 633.6887292182739L693.3696455215768 632.0952422341652L694.9583037572484 625.4653706305862L701.3274229452463 622.8095589904053L705.571892821099 617.5075932069167L707.1605510567715 612.9975421670458L710.3426962765516 611.6696363469553L708.75403804088 607.6907476351205L709.2852003689159 603.1806965952494L706.0982264006989 601.3264571955594L704.5095681650264 596.8164061556886L701.3274229452463 594.6965855919805L699.7339359611378 594.1654232639441L692.3073208655051 597.6131496477428L689.65633797376 595.2277479200166L685.4118680979072 596.5508249916704L680.6362358940178 602.3887818516318L679.573911237946 599.9985513754689L681.6985605500904 593.899842099926L681.1673982220545 590.4521157161275L675.8606036901292 589.1242098960372L672.6784584703482 589.1242098960372L671.0849714862397 590.7176968801457L668.9651509225323 587.5355516603652L665.2518433747155 586.2076458402746L665.2518433747155 583.5566629485304L668.9651509225323 583.5566629485304L672.1472961423124 581.1664324723674L673.7407831264209 581.6975948004037L677.9852530022736 579.3121930726775L677.4540906742377 577.1875437605327L680.1050735659819 575.8644666888788L681.6985605500904 576.3908002684784Z" stroke="#FFFFFF" stroke-opacity="0.75" stroke-width="1" stroke-linecap="round" stroke-linejoin="round" fill="#D3D3D3"/>
		<path name="昌都地区" d="M802.653880140806 524.1389134350268L800.5292308286607 522.2798452869001L801.0603931566975 517.2434606674296L799.9980685006249 514.5876490272487L795.2224362967363 512.4678284635406L796.8159232808448 509.2856832437601L796.2847609528089 506.6298716035792L790.4516328412838 505.0412133679072L788.8581458571753 501.32790582009056L786.207162965431 501.32790582009056L786.207162965431 499.4688376719639L790.4516328412838 497.8801794362919L789.920470513247 494.43245305249343L784.6136759813216 492.3078037403486L783.5513513252499 490.1879831766403L785.1448383093584 487.0010092084233L784.0825136532858 483.81886398864276L785.1448383093584 481.9646245889526L783.5513513252499 478.51689820515435L783.5513513252499 475.3299242369369L784.6136759813216 472.6789413451929L787.7958212011026 471.09028310952067L788.3269835291394 467.9033091413037L784.0825136532858 461.00785637370655L787.2646588730668 459.41919813803474L789.3893081852111 456.49780533383546L790.9827951693196 457.2945488258897L792.5714534049912 460.47669404567023L797.8782479369165 462.60134335781527L810.0804952364397 463.9244204294689L811.1379911440754 465.78348857759556L804.7737007045143 467.1113943976859L804.7737007045143 469.4967961254124L811.1379911440754 467.1113943976859L813.7938027842556 474.5380094933196L817.5071103320724 475.5955054009553L818.0382726601092 473.4756848372472L820.6892555518534 474.8035906573375L821.751580207926 479.3088129487717L820.1580932238176 480.63671876886247L821.751580207926 481.9646245889526L818.0382726601092 483.28770166060644L818.0382726601092 485.9435133007876L820.1580932238176 487.0010092084233L823.8714007716335 493.63570956043895L826.5223836633786 494.9587866320928L831.829178195303 492.8389660683847L837.6623063068282 493.9012907244571L841.3804426030811 499.20325650794575L842.4379385107177 494.16687188847504L845.0937501508979 491.7766414123123L847.7447330426421 491.7766414123123L849.3333912783137 496.8178547802195L855.1713481382758 498.14576060031004L855.7025104663117 502.3854017277263L857.82233103002 503.1821452197805L858.8846556860926 503.1821452197805L859.9469803421653 497.8801794362919L856.7648351223843 493.10454723240287L857.82233103002 490.45356434065866L857.82233103002 488.0633338644957L859.9469803421653 486.2090944648055L867.373595437798 486.74025679284205L867.9047577658348 490.7143167562401L877.4511934251759 497.8801794362919L883.289150285138 497.3490171082558L885.4089708488455 499.4688376719639L888.5911160686255 499.73441883598184L890.1846030527349 496.55227361620155L886.4712955049181 491.2454790842762L888.5911160686255 488.594496192532L885.4089708488455 483.55328282462483L889.6534407246982 483.55328282462483L890.7157653807708 485.4123509727515L892.8355859444791 483.55328282462483L896.0177311642592 484.3500263166791L894.9602352566235 482.23020575297096L896.5488934922951 480.9022999328804L906.100157900074 482.76136808100705L907.1624825561466 481.1678810968983L909.2823031198541 481.9646245889526L908.7511407918182 479.04323178475374L912.9956106676709 480.3711376048443L913.5267729957068 477.7201547130999L910.8757901039626 475.3299242369369L912.4644483396341 469.76237728943033L915.6465935594151 470.5591207814848L917.2400805435236 469.4967961254124L917.2400805435236 464.7211639215234L914.0579353237435 462.8669245218332L915.6465935594151 459.94553171763414L913.5267729957068 458.3568734819621L914.5890976517794 456.49780533383546L916.7089182154878 456.76338649785384L918.3024051995963 455.4403094262L922.546875075449 458.3568734819621L935.275455954571 458.3568734819621L943.7643957062764 460.7422752096886L955.9666430057996 466.84581323366797L957.5601299899081 472.94452250921086L967.6377279772851 483.55328282462483L966.5754033212124 491.7766414123123L975.0643430729187 502.65098289174443L988.8600773565495 514.0564866992124L984.6156074806968 519.6288623951557L982.4909581685515 519.6288623951557L980.3711376048441 516.4467171753754L977.1889923850631 515.9155548473391L975.5955054009546 523.0765887789544L979.3088129487714 524.6700757630631L985.1419410602957 532.3622720227145L984.08444515266 537.398656642185L992.5733849043663 544.2989381582188L990.448735592221 547.4810833779993L993.630880812002 561.2719889131936L994.1620431400388 571.6199968130261L996.813026031783 576.9219625965147L997.3441883598189 584.0829965281298L994.1620431400388 597.0819873197067L996.813026031783 601.5920383595776L997.8753506878547 614.3254479871362L999.9999999999991 616.7108497148624L998.9376753439274 618.3043366989709L993.0997184839653 620.1585760986609L995.7555301241473 626.2621141226405L991.5110602482937 629.7098405064391L990.9798979202578 634.4806439618917L993.630880812002 635.5429686179639L990.448735592221 638.4595326737265L987.7977527004778 638.4595326737265L986.7354280444051 637.1364556020726L986.2042657163693 632.6264045622015L983.5532828246241 628.6475158503667L976.6578300570272 630.5017552500569L979.3088129487714 641.1153443139074L975.5955054009546 645.0942330257421L977.1889923850631 650.3961988092308L976.6578300570272 653.0520104494117L979.8399752768082 656.234155669192L972.9445225092104 653.0520104494117L972.9445225092104 650.3961988092308L969.7575485409934 646.1517289333776L967.6377279772851 638.9906950017626L964.9867450855409 640.0530196578347L962.3309334453606 638.9906950017626L960.7422752096882 635.0118062899278L958.086463569507 632.6264045622015L956.4978053338355 635.0118062899278L953.3156601140545 635.0118062899278L951.1910108019101 631.032917578093L951.722173129946 628.3819346863486L948.5400279101659 626.7884477022401L948.5400279101659 625.1997894665683L945.8890450184217 622.5488065748239L938.9887635023879 623.8718836464777L934.2179600469353 617.5075932069167L927.3176785309015 615.1173627307539L925.729020295229 616.1796873868261L927.8488408589374 619.0962514425887L924.6666956391573 620.424157262679L925.1978579671932 623.8718836464777L917.7712428715595 624.9342083025501L917.2400805435236 614.8517815667358L915.1202599798162 613.5287044950819L915.6465935594151 610.6121404393195L912.4644483396341 607.1595853070844L905.5689955720372 606.8988328915029L901.3245256961845 602.65436301565L900.7933633681487 605.5709270714124L897.6112181483677 605.5709270714124L898.1423804764045 609.8153969472653L896.0177311642592 612.7319610030277L897.6112181483677 613.5287044950819L897.6112181483677 618.0387555349528L894.4290729285876 619.6274137706248L893.8979106005509 623.0751401544235L890.1846030527349 620.424157262679L884.3466461927728 620.6897384266972L881.6956633010286 615.3829438947719L876.3936975175402 611.9352175109732L876.92003109714 610.3465592753014L882.7579879571012 610.0809781112832L879.5758427373203 604.50860241534L881.1645009729928 601.5920383595776L880.1070050653561 597.3475684837247L873.2067235493232 590.9832780441639L877.9823557532118 584.6141588561661L877.4511934251759 581.6975948004037L880.633338644956 580.104107816295L882.2268256290654 575.0677231968248L880.1070050653561 572.94307388468L881.1645009729928 569.2297663368631L877.9823557532118 566.0476211170826L873.7378858773591 567.3755269371732L866.3112707817263 564.9852964610104L861.004476249801 566.5787834451189L859.9469803421653 570.2920909929355L855.7025104663117 571.0888344849898L854.1090234822032 568.698604008827L847.2135707146062 568.698604008827L843.5002631667894 566.3132022811008L844.562587822862 563.9278005533745L841.3804426030811 563.1310570613202L838.1934686348641 558.6210060214494L835.5424857431199 557.558681365377L836.0736480711566 554.1109549815783L822.8090761155609 550.6632285977798L819.6269308957808 553.5797926535422L816.9759480040366 552.2567155818883L817.5071103320724 550.3976474337617L816.4447856759998 549.6009039417074L814.3249651122924 548.8089891980899L811.6691534721112 550.928809761798L807.9558459242944 548.2778268700536L806.3671876886228 548.8089891980899L805.8360253605861 552.783049161488L802.1227178127701 553.5797926535422L800.5292308286607 552.2567155818883L786.7383252934669 550.3976474337617L783.0250177456501 551.4599720898341L781.4315307615416 554.1109549815783L777.7182232137247 554.3765361455964L775.5935739015804 552.783049161488L775.0672403219805 554.3765361455964L771.8802663537635 554.6421173096146L770.8227704461278 551.9911344178702L769.2292834620193 551.4599720898341L760.740343710313 557.0275190373407L754.9072155987888 555.4388608016689L754.3760532707529 552.783049161488L742.7049682992665 548.2778268700536L742.7049682992665 546.6843398859451L737.929336095377 544.0333569942006L738.9916607514497 541.9087076820558L737.929336095377 539.5233059543298L734.2160285475602 538.4609812982574L738.4604984234138 535.544417242495L746.4182758470834 537.1379042266035L750.1315833948993 540.0544682823659L754.9072155987888 538.4609812982574L768.6981211339826 539.5233059543298L769.7604457900552 536.0755795705311L763.9273176785309 526.2587339987349L767.109462898311 522.014264122882L767.6406252263469 518.5665377390835L771.3539327741646 517.7746229954657L772.4114286817994 515.384392519303L775.5935739015804 515.6499736833209L781.4315307615416 511.13992264345006L782.4938554176142 512.4678284635406L780.9003684335057 514.0564866992124L783.0250177456501 516.9778795034115L788.8581458571753 515.1188113552848L790.4516328412838 515.9155548473391L787.7958212011026 521.4879305432826L787.7958212011026 524.935656927081L789.920470513247 528.1178021468615L792.5714534049912 528.914545638916L793.6337780610638 526.7898963267712L802.653880140806 524.1389134350268Z" stroke="#FFFFFF" stroke-opacity="0.75" stroke-width="1" stroke-linecap="round" stroke-linejoin="round" fill="#D3D3D3"/>
		<path name="山南地区" d="M569.763343039117 629.9754216704571L572.4143259308621 626.2621141226405L571.8831636028253 621.2209007547335L574.5341464945695 618.8306702785706L577.1899581347507 614.059866823118L581.4344280106034 617.2420120428985L585.1477355584202 616.9764308788806L594.6941712177622 612.4663798390095L607.4275808453203 610.6121404393195L618.5675034887709 603.4462777592676L622.2808110365868 603.1806965952494L628.1187678965489 605.0397647433763L635.5453829921826 601.0608760315415L639.2586905399985 601.0608760315415L638.7275282119626 602.9199441796682L642.4408357597795 603.4462777592676L649.3362885273764 600.7952948675234L662.0696981549345 603.4462777592676L665.7830057027513 601.8576195235955L668.4339885944964 602.3887818516318L675.3294413620933 597.8787308117608L674.2719454544576 591.5144403721999L675.8606036901292 589.1242098960372L681.1673982220545 590.4521157161275L681.6985605500904 593.899842099926L679.573911237946 599.9985513754689L680.6362358940178 602.3887818516318L685.4118680979072 596.5508249916704L689.65633797376 595.2277479200166L692.3073208655051 597.6131496477428L699.7339359611378 594.1654232639441L701.3274229452463 594.6965855919805L704.5095681650264 596.8164061556886L706.0982264006989 601.3264571955594L709.2852003689159 603.1806965952494L708.75403804088 607.6907476351205L710.3426962765516 611.6696363469553L707.1605510567715 612.9975421670458L705.571892821099 617.5075932069167L701.3274229452463 622.8095589904053L694.9583037572484 625.4653706305862L693.3696455215768 632.0952422341652L690.1875003017967 633.6887292182739L689.1251756457241 636.8708744380544L685.4118680979072 637.4020367660905L680.6362358940178 635.5429686179639L677.9852530022736 637.9331990941268L678.5164153303103 640.5841819858713L681.1673982220545 642.4384213855612L683.8183811137988 638.1939515097081L688.0628509896515 640.3186008218529L693.9008078496136 641.1153443139074L696.5517907413569 643.5007460416334L701.8537565248462 640.0530196578347L708.75403804088 642.4384213855612L720.9562853404022 640.5841819858713L722.5449435760747 642.9695837135973L725.7270887958548 642.7040025495792L729.4403963436716 645.0942330257421L734.747190875597 644.2974895336877L736.3406778597046 645.6253953537782L742.1738059712297 644.2974895336877L748.5380964107908 650.3961988092308L748.5380964107908 657.0308991612465L750.1315833948993 659.6818820529907L754.3760532707529 659.6818820529907L760.2091813822772 663.6607707648254L761.2715060383498 673.207206424167L763.3961553504951 676.6597615564024L768.6981211339826 680.1074879402008L769.2292834620193 684.6175389800719L770.8227704461278 685.6750348877074L768.6981211339826 689.1227612715061L769.7604457900552 691.5129917476688L763.9273176785309 695.7574616235217L765.5159759142025 698.4084445152662L747.480600503156 715.9126575982771L745.3559511910107 724.1360161859648L735.2783532036328 727.8493237337814L708.2228757128441 731.0362977019986L699.7339359611378 729.1772295538719L694.9583037572484 730.5051353739625L688.0628509896515 727.5837425697634L662.0696981549345 732.6249559376706L662.6008604829713 726.7918278261459L657.8252282790818 720.4227086381482L660.4762111708269 714.5895805266234L659.4138865147543 712.4649312144786L663.1271940625702 711.9337688864423L659.4138865147543 706.1006407749176L657.2940659510459 702.6529143911191L653.5807584032291 703.4496578831734L648.8051261993396 701.8561708990646L644.5606563234869 703.9808202112094L637.1340412278541 698.9396068433023L635.5453829921826 694.9607181314675L638.7275282119626 691.778572911687L639.7850241195983 688.8571801074879L638.7275282119626 686.4717783797619L635.0142206641458 685.9406160517256L635.0142206641458 685.1438725596713L638.7275282119626 683.2896331599813L632.3584090239647 680.373069104219L630.7697507882931 677.1860951360018L624.4006316002951 674.2695310802394L621.2184863805151 678.2484197920742L616.4476829250616 678.5140009560923L615.9165205970257 682.227308503909L612.2032130492098 684.6175389800719L606.8964185172845 682.227308503909L606.8964185172845 679.8419067761827L601.5896239853591 678.7795821201105L598.9386410936149 675.3318557363118L593.6318465616896 673.4727875881849L588.861043106237 676.1285992283658L584.6165732303834 674.0039499162212L582.4919239182391 675.0662745722937L578.2474540423864 673.7383687522031L574.5341464945695 670.0250612043865L569.2321807110811 669.4938988763502L571.3520012747895 660.7442067090631L566.5763690709 661.0097878730812L566.5763690709 659.1507197249546L564.4565485071926 658.3539762329003L564.4565485071926 654.6406686850837L566.5763690709 653.0520104494117L566.0452067428641 649.604284065613L563.3942238511199 646.417310097396L568.7010183830444 642.7040025495792L568.7010183830444 640.0530196578347L570.8208389467536 638.7251138377444L568.7010183830444 632.3608233981834L569.763343039117 629.9754216704571Z" stroke="#FFFFFF" stroke-opacity="0.75" stroke-width="1" stroke-linecap="round" stroke-linejoin="round" fill="#D3D3D3"/>
		<path name="拉萨市" d="M555.4364464274504 581.6975948004037L561.8055656154474 583.5566629485304L564.4565485071926 582.494338292458L564.4565485071926 579.8433554007136L566.0452067428641 579.3121930726775L571.3520012747895 571.3544156490079L572.4143259308621 567.109945773155L579.309778698459 566.8443646091371L579.8409410264949 564.4541341329741L582.4919239182391 562.0687324052478L587.2675561221286 561.0064077491757L592.0431883260171 558.0898436934131L588.861043106237 553.314211489524L595.2253335457981 534.2165114224044L598.9386410936149 531.0343662026239L602.6519486414318 532.6278531867326L604.2454356255403 531.2999473666421L605.8340938612118 531.8311096946782L608.4899055013921 535.544417242495L612.2032130492098 537.6642378062029L615.9165205970257 534.7476737504408L613.7918712848814 531.8311096946782L614.854195940954 529.7064603825334L619.6298281448435 531.8311096946782L621.7496487085509 529.9720415465515L625.4629562563678 530.2376227105697L627.0564432404763 539.7888871183477L629.7074261322205 544.0333569942006L629.1762638041846 546.6843398859451L634.4830583361099 549.3353227776893L644.029493995451 545.8875963938906L644.5606563234869 548.5434080340717L651.4561090910847 552.783049161488L651.9872714191206 555.4388608016689L648.8051261993396 556.5011854577413L647.216467963668 559.9489118415397L649.3362885273764 561.2719889131936L649.8674508554122 566.8443646091371L652.5184337471574 566.8443646091371L655.1742453873376 571.885577977044L661.0073734988628 570.0265098289174L664.7206810466787 570.2920909929355L667.9028262664597 565.2508776250284L673.209620798385 568.4330228448089L675.8606036901292 567.6411081011913L686.469364005543 569.7609286648992L683.2872187857629 575.8644666888788L681.6985605500904 576.3908002684784L680.1050735659819 575.8644666888788L677.4540906742377 577.1875437605327L677.9852530022736 579.3121930726775L673.7407831264209 581.6975948004037L672.1472961423124 581.1664324723674L668.9651509225323 583.5566629485304L665.2518433747155 583.5566629485304L665.2518433747155 586.2076458402746L668.9651509225323 587.5355516603652L671.0849714862397 590.7176968801457L672.6784584703482 589.1242098960372L675.8606036901292 589.1242098960372L674.2719454544576 591.5144403721999L675.3294413620933 597.8787308117608L668.4339885944964 602.3887818516318L665.7830057027513 601.8576195235955L662.0696981549345 603.4462777592676L649.3362885273764 600.7952948675234L642.4408357597795 603.4462777592676L638.7275282119626 602.9199441796682L639.2586905399985 601.0608760315415L635.5453829921826 601.0608760315415L628.1187678965489 605.0397647433763L622.2808110365868 603.1806965952494L618.5675034887709 603.4462777592676L607.4275808453203 610.6121404393195L594.6941712177622 612.4663798390095L585.1477355584202 616.9764308788806L581.4344280106034 617.2420120428985L577.1899581347507 614.059866823118L567.1075313989359 611.9352175109732L557.0299334115589 612.4663798390095L550.134480643962 608.4874911271747L549.0721559878893 605.0397647433763L551.1919765515968 603.9774400873036L548.5409936598535 600.7952948675234L551.1919765515968 597.6131496477428L550.6608142235609 596.0196626636341L553.316625863742 595.2277479200166L554.9052840994145 593.103098607872L552.7854635357053 590.1865345521094L552.2543012076694 584.8797400201843L552.7854635357053 582.2287571284398L555.4364464274504 581.6975948004037Z" stroke="#FFFFFF" stroke-opacity="0.75" stroke-width="1" stroke-linecap="round" stroke-linejoin="round" fill="#D3D3D3"/>
	</g>
</svg>