<?xml version="1.0" encoding="UTF-8" standalone="no"?><!-- Generator: Adobe Illustrator 19.0.0, SVG Export Plug-In . SVG Version: 6.00 Build 0)  --><svg xmlns="http://www.w3.org/2000/svg" xmlns:xlink="http://www.w3.org/1999/xlink" contentScriptType="text/ecmascript" zoomAndPan="magnify" contentStyleType="text/css" id="图层_1" style="enable-background:new 0 0 1000 1000;" mapName="陕西省" mapType="省市地图" version="1.1" xml:space="preserve" preserveAspectRatio="xMidYMid meet" viewBox="0 0 1000 1000" x="0px" y="0px">
	<g>
		<path name="榆林市" d="M824.969532321129 110.17874371604103L819.3837911948413 122.03574874320839L820.7802264764123 126.21235972172781L823.573097039558 126.91057736251332L822.1766617579851 134.57827654496487L817.9873559132684 135.9747118265368L817.9873559132684 143.65510587518384L815.2071802163191 145.03884629055938L806.8285685268875 144.34062864977386L801.2555222667943 154.10298075458286L797.0662164220776 155.4994160361539L790.0967348804152 161.78337480322898L781.7308180571763 162.4815924440145L780.3343827756053 163.87802772558734L778.9379474940342 172.94216218960992L773.364901233941 174.33859747118186L771.9684659523682 177.81699080891667L773.364901233941 184.78647235058088L770.5720306707972 188.9757781952967L770.5720306707972 196.64347737774824L773.364901233941 201.53100086325048L773.364901233941 206.40582948255724L783.127253338751 211.29335296805948L791.4931701619862 226.62875133296075L802.651957548369 232.2144924592494L802.651957548369 234.30914538160687L795.6697811405065 237.08932107855526L808.2250038084603 244.07149748641677L804.04839282994 247.54989082415068L808.2250038084603 256.61402528817325L805.4321332453146 260.10511349210356L801.2555222667943 270.565683237699L788.7002995988423 273.35855380084286L787.3038643172695 281.0262529832935L795.6697811405065 283.81912354643737L792.889605443559 288.6939521657432L794.2860407251301 292.1850403696744L790.0967348804152 292.88325801045994L787.3038643172695 298.4563042705522L774.7486416493175 310.31330929771957L774.7486416493175 314.5026151424363L764.9862895445094 322.170314324886L760.8096785659873 323.56674960645887L763.602549129133 327.0578378103892L755.2239374396995 325.66140252881723L760.8096785659873 331.2344487889095L752.4437617427502 333.32910171126787L748.2544558980353 329.83801350733665L745.4615853348914 332.63088407048053L732.919057533134 326.35962016960275L721.7602701467531 331.932666429695L718.9673995836074 330.536231148124L716.1745290204653 327.0578378103892L710.6014827603703 323.56674960645887L709.2050474787993 315.89905042400824L710.6014827603703 310.31330929771957L707.8086121972283 308.91687401614763L705.0157416340826 311.0115269385051L703.6193063525116 308.2186563753612L705.0157416340826 305.4384806784128L702.2355659371351 301.2491748336961L709.2050474787993 301.9473924744834L710.6014827603703 297.7580866297667L707.8086121972283 292.88325801045994L705.0157416340826 292.1850403696744L700.8391306555623 294.2796932920319L695.2533895292745 287.9957345249577L692.473213832327 293.58147565124636L686.8874727060374 292.88325801045994L684.0946021428936 295.6761285736038L679.9179911643732 294.2796932920319L679.9179911643732 292.88325801045994L677.1251206012275 293.58147565124636L679.9179911643732 287.9957345249577L682.6981668613225 289.39216980652964L678.5215558828022 278.2333824201487L672.9358147565108 276.83694713857676L674.3322500380855 274.7549890824139L670.1556390595651 272.66033616005643L665.9663332148484 272.66033616005643L664.5698979332756 274.7549890824139L656.2039811100385 274.05677144162837L642.2523231605137 264.2944193368194L636.6792769004223 269.86746559691164L628.3133600771853 273.35855380084286L624.1240542324686 279.62981770172064L621.3438785355211 280.32803534250706L624.1240542324686 283.12090590565185L611.5688315645166 286.61199410958125L603.2029147412795 286.61199410958125L601.8064794597067 289.39216980652964L597.6298684811863 287.2975168841713L594.8369979180425 289.39216980652964L590.6603869395203 287.9957345249577L586.4710810948036 292.1850403696744L582.2817752500905 289.39216980652964L582.2817752500905 292.1850403696744L575.3122937084245 294.2796932920319L573.9158584268534 298.4563042705522L568.3428121667603 297.7580866297667L565.5499416036146 299.85273955212506L562.7570710404707 294.2796932920319L562.7570710404707 297.0598689889812L561.3606357588997 301.9473924744834L562.7570710404707 305.4384806784128L565.5499416036146 305.4384806784128L565.5499416036146 308.2186563753612L557.1840247803775 310.31330929771957L554.3911542172355 313.8043975016499L548.8181079571423 313.10617986086345L547.4216726755694 318.6792261209566L557.1840247803775 324.2649672472444L552.9947189356626 329.83801350733665L550.2018483725187 331.2344487889095L541.8359315492817 327.7433605849783L540.4394962677106 328.4415782257656L536.2628852891885 322.86853196567245L530.6771441629007 324.2649672472444L527.8969684659514 329.13979586655114L520.9147920580926 329.13979586655114L515.3417457979995 327.0578378103892L515.3417457979995 324.2649672472444L518.1346163611433 324.9631848880308L522.3112273396637 322.86853196567245L523.7076626212347 316.59726806479466L520.9147920580926 313.10617986086345L522.3112273396637 307.5204387345757L518.1346163611433 302.64561011526894L519.5183567765198 299.1545219113377L511.15243995328274 296.37434621439024L515.3417457979995 292.1850403696744L508.37226425633526 287.9957345249577L508.37226425633526 278.9316000609351L505.5793936931914 276.15142436398673L504.18295841161853 280.32803534250706L499.9936525669018 278.9316000609351L498.60991215152535 276.83694713857676L495.8170415883833 281.724470624079L480.4689483572838 286.61199410958125L488.84756004671726 295.6761285736038L487.45112476514623 298.4563042705522L484.65825420200053 298.4563042705522L486.05468948357156 300.5509571929106L480.4689483572838 305.4384806784128L474.89590209719245 306.83491595998566L474.89590209719245 302.64561011526894L472.10303153404857 304.0420453968418L469.31016097090287 301.9473924744834L465.13354999238254 311.7097445792915L456.7676331691455 311.7097445792915L447.0052810643374 317.9810084801702L438.62666937490576 315.89905042400824L435.84649367795646 301.2491748336961L430.2607525516687 299.85273955212506L431.65718783323973 297.7580866297667L428.86431727009585 297.0598689889812L420.4984004468606 301.9473924744834L421.89483572843164 304.7402630376273L417.7055298837149 306.83491595998566L420.4984004468606 308.2186563753612L419.10196516528595 310.31330929771957L413.5289189051946 307.5204387345757L414.92535418676744 314.5026151424363L417.7055298837149 317.9810084801702L414.92535418676744 320.773879043315L410.7360483420507 320.07566140252857L410.7360483420507 320.773879043315L413.5289189051946 324.9631848880308L420.4984004468606 325.66140252881723L421.89483572843164 329.13979586655114L414.92535418676744 330.536231148124L417.7055298837149 338.90214797136014L417.7055298837149 345.1861067384343L412.13248362362356 349.36271771695465L406.5594373635304 350.7591529985266L399.5772609556698 348.6645000761682L395.40064997714944 350.0609353577411L394.0042146955766 344.4878890976479L387.0220382877178 338.90214797136014L382.84542730919566 341.695018534504L381.4489920276246 339.60036561214565L371.68663992281654 340.2985832529321L370.29020464124187 337.5184075559846L366.11359366272154 338.90214797136014L363.3207230995795 336.82018991519726L361.92428781800663 315.89905042400824L363.3207230995795 316.59726806479466L363.3207230995795 314.5026151424363L360.5278525364338 311.7097445792915L366.11359366272154 314.5026151424363L370.29020464124187 306.13669831919924L361.92428781800663 298.4563042705522L361.92428781800663 297.0598689889812L366.11359366272154 296.37434621439024L366.11359366272154 292.88325801045994L361.92428781800663 289.39216980652964L359.13141725486275 283.81912354643737L363.3207230995795 265.6908546183922L370.29020464124187 260.80333113288907L373.08307520438757 255.92850251358232L373.08307520438757 254.5320672320113L370.29020464124187 255.2302848727968L364.7171583811505 250.34276138729456L371.68663992281654 248.9463261057217L374.4795104859586 243.37327984562944L377.2596861829079 244.07149748641677L374.4795104859586 239.88219164170005L385.63829787234135 239.88219164170005L389.81490885085987 229.42162189610463L399.5772609556698 228.02518661453269L399.5772609556698 226.62875133296075L400.9736962372426 225.93053369217432L403.7665668003847 228.7234042553191L409.33961306047786 222.4521403544395L407.94317777890683 216.86639922815175L413.5289189051946 215.4699639465789L420.4984004468606 220.35748743208205L449.7854567612867 227.32696897374626L456.7676331691455 239.18397400091362L456.7676331691455 245.4679327679878L462.34067942923866 245.4679327679878L470.7065962524757 249.64454374650904L483.2618189204295 244.07149748641677L490.2313004620919 244.7697151272023L495.8170415883833 247.54989082415068L511.15243995328274 244.7697151272023L513.9453105164266 242.67506220484393L520.9147920580926 240.58040928248556L525.1040979028094 241.27862692327108L526.5005331843804 245.4679327679878L541.8359315492817 244.7697151272023L544.6288021124255 240.58040928248556L554.3911542172355 240.58040928248556L552.9947189356626 209.89691768648663L558.5804600619522 205.0093942009844L552.9947189356626 195.2470420961763L559.9768953435232 195.94525973696182L561.3606357588997 200.13456558167854L571.1229878637077 209.89691768648663L580.8853399685158 205.0093942009844L583.6782105316615 200.13456558167854L589.2639516579493 196.64347737774824L589.2639516579493 191.7686487584424L573.9158584268534 179.91164373127503L572.5194231452806 175.0241202457728L576.7087289899955 170.14929162646604L575.3122937084245 166.65820342253573L579.5015995531412 156.19763367694122L587.8675163763783 151.32280505763447L587.8675163763783 145.7370639313458L594.8369979180425 140.86223531203905L596.2334331996135 138.06936474889517L601.8064794597067 135.2764941857513L614.3617021276586 122.03574874320839L621.3438785355211 124.81592444015678L625.5204895140414 122.03574874320839L621.3438785355211 116.45000761691881L622.7276189508957 112.27339663839848L629.7097953587581 110.87696135682745L636.6792769004223 101.81282689280397L645.0451937236594 95.52886812572888L649.2344995683761 97.62352104808724L658.9968516731842 93.43421520337051L663.1734626517027 87.86116894327915L663.1734626517027 84.37008073934885L665.9663332148484 81.58990504240046L665.9663332148484 79.4952521200421L675.7286853196565 67.63824709287564L681.3144264459443 64.84537652973177L686.8874727060374 57.17767734728022L689.6803432691813 57.87589498806665L702.2355659371351 50.208195805615105L691.0767785507542 41.82958411618347L695.2533895292745 39.74762606002059L702.2355659371351 46.71710760168571L707.8086121972283 47.415325242471226L734.3027979485087 38.351190778448654L727.3333164068445 25.097750469709354L723.1567054283241 23.701315188137414L723.1567054283241 19.524704209617084L725.9368811252734 16.03361600568678L728.7297516884173 14.637180724114842L731.5226222515612 17.43005128725963L735.6992332300833 16.731833646472296L738.4921037932254 18.82648656883066L739.8885390747982 22.304879906565475L756.6203727212724 34.86010257451835L760.8096785659873 30.68349159599802L760.8096785659873 29.28705631442608L763.602549129133 24.39953282892384L769.1755953892261 28.588838673639657L774.7486416493175 25.795968110495778L783.127253338751 39.04940841923508L787.3038643172695 40.44584370080702L795.6697811405065 39.74762606002059L801.2555222667943 29.28705631442608L817.9873559132684 11.158787386380027L829.1461432996493 7.667699182450633L837.5120601228864 2.0819580561610564L840.3049306860303 3.4783933377339054L845.8906718123199 3.4783933377339054L851.4637180724112 -9.094947017729282e-13L854.2565886355551 2.0819580561610564L852.8601533539841 6.271263900877784L840.3049306860303 19.524704209617084L841.7013659676031 22.304879906565475L845.8906718123199 23.00309754735099L844.494236530747 25.795968110495778L847.2744122276945 28.588838673639657L852.8601533539841 27.192403392067718L854.2565886355551 31.381709236784445L858.4331996140754 29.985273955212506L857.0367643325044 32.06723201137447L857.0367643325044 34.161884933732836L865.4153760219378 35.558320215303866L864.0189407403632 36.954755496876714L861.2260701772211 39.74762606002059L861.2260701772211 43.92423703854183L854.2565886355551 54.384806784136345L855.6530239171279 57.17767734728022L851.4637180724112 64.84537652973177L845.8906718123199 69.73290001523401L838.9084954044574 71.12933529680504L831.939013862795 76.00416391611179L834.7318844259371 82.28812268318688L836.1156248413154 87.86116894327915L833.3354491443661 90.65403950642303L834.7318844259371 94.13243284415785L827.7497080180783 102.51104453358948L829.1461432996493 105.9894378713243L824.969532321129 110.17874371604103Z" stroke="#FFFFFF" stroke-opacity="0.75" stroke-width="1" stroke-linecap="round" stroke-linejoin="round" fill="#D3D3D3"/>
		<path name="延安市" d="M760.8096785659873 331.2344487889095L760.8096785659873 334.0273193520534L758.0168080028434 342.39323617529044L755.2239374396995 343.09145381607595L760.8096785659873 345.88432437922074L759.4132432844162 349.36271771695465L760.8096785659873 352.15558828009944L759.4132432844162 356.34489412481526L755.2239374396995 357.7413294063872L762.2061138475601 359.12506982176365L759.4132432844162 363.31437566647946L764.9862895445094 361.91794038490843L762.2061138475601 364.7108109480523L762.2061138475601 368.88742192657264L759.4132432844162 366.8054638704107L756.6203727212724 367.5036815111962L770.5720306707972 380.74442695374L769.1755953892261 384.9337327984558L770.5720306707972 387.0283857208142L770.5720306707972 392.60143198090645L767.7791601076515 396.7907378256223L769.1755953892261 400.9673488041435L764.9862895445094 412.82435383130996L766.3827248260804 417.7118773168122L767.7791601076515 422.58670593611896L764.9862895445094 426.07779414004926L763.602549129133 437.9347991672166L769.1755953892261 451.1755446097595L769.1755953892261 456.06306809526177L771.9684659523682 458.15772101762013L770.5720306707972 460.9378967145676L773.364901233941 465.12720255928434L771.9684659523682 470.0147260447866L776.1450769308885 470.7002488193766L777.5415122124614 473.4931193825205L759.4132432844162 479.07886050881007L753.8401970243231 485.35012440968785L748.2544558980353 487.4447773320462L744.0651500533186 490.92317066978103L730.1261869699883 490.92317066978103L724.5404458437006 495.11247651449685L724.5404458437006 497.2071294368552L735.6992332300833 501.38374041537554L739.8885390747982 505.57304626009227L738.4921037932254 507.66769918245063L742.6814096379421 510.4605697455945L741.2849743563711 513.2407454425429L737.0956685116544 515.3353983649013L730.1261869699883 522.3048799065655L724.5404458437006 524.3995328289238L717.5709643020364 530.683491595998L714.7780937388925 527.1924033920677L709.2050474787993 529.9852739552116L706.4121769156554 526.4941857512822L705.0157416340826 529.9852739552116L695.2533895292745 529.9852739552116L691.0767785507542 526.4941857512822L688.2839079876103 527.8906210328532L682.6981668613225 525.7959681104958L675.7286853196565 526.4941857512822L670.1556390595651 529.9852739552116L658.9968516731842 525.7959681104958L649.2344995683761 525.7959681104958L646.4416290052304 528.5888386736397L643.6487584420847 536.2565378560912L642.2523231605137 534.1618849337328L642.2523231605137 531.3817092367844L639.4721474635662 528.5888386736397L640.8685827451391 526.4941857512822L638.0757121819934 523.7013151881374L640.8685827451391 522.3048799065655L639.4721474635662 520.921139491189L639.4721474635662 517.4300512872587L633.8864063372766 518.8264865688307L631.1062306403292 516.0336160056868L608.7886558675673 515.3353983649013L607.3922205859963 513.9389630833284L607.3922205859963 509.06413446402166L603.2029147412795 508.36591682323615L594.8369979180425 509.762352104809L592.0441273548986 513.2407454425429L586.4710810948036 512.5425278017565L571.1229878637077 534.8601025745184L562.7570710404707 538.3511907784487L561.3606357588997 537.6529731376622L558.5804600619522 533.4636672929455L554.3911542172355 532.76544965216L551.5982836540898 520.921139491189L539.0557558523342 517.4300512872587L537.6593205707613 513.9389630833284L532.0735794444718 513.2407454425429L530.6771441629007 510.4605697455945L522.3112273396637 504.87482861930584L519.5183567765198 499.3017823592136L519.5183567765198 478.38064286802364L516.7381810795723 470.7002488193766L526.5005331843804 461.63611435535404L534.8664500076175 462.33433199614046L540.4394962677106 451.87376225054504L540.4394962677106 444.90428070888083L543.2323668308527 436.5383638856438L537.6593205707613 428.1724470624067L534.8664500076175 421.88848829533345L537.6593205707613 417.7118773168122L540.4394962677106 417.7118773168122L543.2323668308527 410.0314832681661L543.2323668308527 407.2513075712177L536.2628852891885 406.55308993043127L530.6771441629007 399.57091352257066L529.2934037475261 400.9673488041435L523.7076626212347 399.57091352257066L515.3417457979995 392.60143198090645L511.15243995328274 400.2691311633571L505.5793936931914 398.1871731071951L502.7865231300457 390.506779058549L499.9936525669018 389.11034377697615L497.2134768699543 384.9337327984558L491.62773574366656 382.83907987609746L490.2313004620919 384.9337327984558L486.05468948357156 383.5372975168839L486.05468948357156 384.9337327984558L479.0725130757128 381.4426445945255L479.0725130757128 375.1713806936468L473.4994668156196 383.5372975168839L467.92642055552824 379.34799167216715L466.5299852739554 380.74442695374L463.7371147108115 377.9642512567907L460.9442441476658 379.34799167216715L456.7676331691455 377.9642512567907L453.9747626060034 373.7749454120749L456.7676331691455 370.9820748489301L453.9747626060034 368.2018991519817L451.1818920428577 371.6802924897165L445.60884578276637 371.6802924897165L445.60884578276637 366.10724622962425L441.41953993804964 359.82328746255007L433.0536231148126 355.64667648402883L424.6877062915755 354.9484588432433L421.89483572843164 351.457370639313L414.92535418676744 352.15558828009944L412.13248362362356 349.36271771695465L417.7055298837149 345.1861067384343L417.7055298837149 338.90214797136014L414.92535418676744 330.536231148124L421.89483572843164 329.13979586655114L420.4984004468606 325.66140252881723L413.5289189051946 324.9631848880308L410.7360483420507 320.773879043315L410.7360483420507 320.07566140252857L414.92535418676744 320.773879043315L417.7055298837149 317.9810084801702L414.92535418676744 314.5026151424363L413.5289189051946 307.5204387345757L419.10196516528595 310.31330929771957L420.4984004468606 308.2186563753612L417.7055298837149 306.83491595998566L421.89483572843164 304.7402630376273L420.4984004468606 301.9473924744834L428.86431727009585 297.0598689889812L431.65718783323973 297.7580866297667L430.2607525516687 299.85273955212506L435.84649367795646 301.2491748336961L438.62666937490576 315.89905042400824L447.0052810643374 317.9810084801702L456.7676331691455 311.7097445792915L465.13354999238254 311.7097445792915L469.31016097090287 301.9473924744834L472.10303153404857 304.0420453968418L474.89590209719245 302.64561011526894L474.89590209719245 306.83491595998566L480.4689483572838 305.4384806784128L486.05468948357156 300.5509571929106L484.65825420200053 298.4563042705522L487.45112476514623 298.4563042705522L488.84756004671726 295.6761285736038L480.4689483572838 286.61199410958125L495.8170415883833 281.724470624079L498.60991215152535 276.83694713857676L499.9936525669018 278.9316000609351L504.18295841161853 280.32803534250706L505.5793936931914 276.15142436398673L508.37226425633526 278.9316000609351L508.37226425633526 287.9957345249577L515.3417457979995 292.1850403696744L511.15243995328274 296.37434621439024L519.5183567765198 299.1545219113377L518.1346163611433 302.64561011526894L522.3112273396637 307.5204387345757L520.9147920580926 313.10617986086345L523.7076626212347 316.59726806479466L522.3112273396637 322.86853196567245L518.1346163611433 324.9631848880308L515.3417457979995 324.2649672472444L515.3417457979995 327.0578378103892L520.9147920580926 329.13979586655114L527.8969684659514 329.13979586655114L530.6771441629007 324.2649672472444L536.2628852891885 322.86853196567245L540.4394962677106 328.4415782257656L541.8359315492817 327.7433605849783L550.2018483725187 331.2344487889095L552.9947189356626 329.83801350733665L557.1840247803775 324.2649672472444L547.4216726755694 318.6792261209566L548.8181079571423 313.10617986086345L554.3911542172355 313.8043975016499L557.1840247803775 310.31330929771957L565.5499416036146 308.2186563753612L565.5499416036146 305.4384806784128L562.7570710404707 305.4384806784128L561.3606357588997 301.9473924744834L562.7570710404707 297.0598689889812L562.7570710404707 294.2796932920319L565.5499416036146 299.85273955212506L568.3428121667603 297.7580866297667L573.9158584268534 298.4563042705522L575.3122937084245 294.2796932920319L582.2817752500905 292.1850403696744L582.2817752500905 289.39216980652964L586.4710810948036 292.1850403696744L590.6603869395203 287.9957345249577L594.8369979180425 289.39216980652964L597.6298684811863 287.2975168841713L601.8064794597067 289.39216980652964L603.2029147412795 286.61199410958125L611.5688315645166 286.61199410958125L624.1240542324686 283.12090590565185L621.3438785355211 280.32803534250706L624.1240542324686 279.62981770172064L628.3133600771853 273.35855380084286L636.6792769004223 269.86746559691164L642.2523231605137 264.2944193368194L656.2039811100385 274.05677144162837L664.5698979332756 274.7549890824139L665.9663332148484 272.66033616005643L670.1556390595651 272.66033616005643L674.3322500380855 274.7549890824139L672.9358147565108 276.83694713857676L678.5215558828022 278.2333824201487L682.6981668613225 289.39216980652964L679.9179911643732 287.9957345249577L677.1251206012275 293.58147565124636L679.9179911643732 292.88325801045994L679.9179911643732 294.2796932920319L684.0946021428936 295.6761285736038L686.8874727060374 292.88325801045994L692.473213832327 293.58147565124636L695.2533895292745 287.9957345249577L700.8391306555623 294.2796932920319L705.0157416340826 292.1850403696744L707.8086121972283 292.88325801045994L710.6014827603703 297.7580866297667L709.2050474787993 301.9473924744834L702.2355659371351 301.2491748336961L705.0157416340826 305.4384806784128L703.6193063525116 308.2186563753612L705.0157416340826 311.0115269385051L707.8086121972283 308.91687401614763L710.6014827603703 310.31330929771957L709.2050474787993 315.89905042400824L710.6014827603703 323.56674960645887L716.1745290204653 327.0578378103892L718.9673995836074 330.536231148124L721.7602701467531 331.932666429695L732.919057533134 326.35962016960275L745.4615853348914 332.63088407048053L748.2544558980353 329.83801350733665L752.4437617427502 333.32910171126787L760.8096785659873 331.2344487889095Z" stroke="#FFFFFF" stroke-opacity="0.75" stroke-width="1" stroke-linecap="round" stroke-linejoin="round" fill="#D3D3D3"/>
		<path name="汉中市" d="M272.66668359315554 761.5015487736755L275.446859290103 762.199766414461L278.2397298532469 760.1051134921026L278.2397298532469 757.3122429289588L282.4290356979636 754.5320672320113L281.0326004163926 752.4374143096529L288.0020819580568 750.3427613872946L285.2092113949111 746.8516731833643L300.5573046260106 750.3427613872946L301.9537399075816 748.2481084649362L301.9537399075816 732.2144924592494L306.13035088610195 729.4216218961046L308.92322144924583 724.5467932767979L313.11252729396256 728.7234042553182L325.65505509571994 735.0073630223933L331.2407962220077 734.3091453816069L331.2407962220077 729.4216218961046L332.63723150357873 724.5467932767979L335.43010206672443 730.119839536891L343.7960188899615 734.3091453816069L345.1924541715325 732.2144924592494L347.9726298684818 737.0893210785553L356.33854669171706 737.7875387193417L360.5278525364338 735.6928857969833L364.7171583811505 737.7875387193417L361.92428781800663 742.6750622048439L363.3207230995795 746.1534555425778L374.4795104859586 748.9463261057217L377.2596861829079 753.8338495912249L384.2418625907685 751.7391966688665L388.41847356928884 748.9463261057217L394.0042146955766 748.9463261057217L398.1808256740969 746.1534555425778L399.5772609556698 746.8516731833643L405.16300208195935 744.0714974864168L410.7360483420507 746.8516731833643L417.7055298837149 743.3732798456294L434.45005839638543 747.5498908241507L441.41953993804964 741.2786269232711L442.81597521962067 742.6750622048439L447.0052810643374 741.9768445640584L459.5478088660948 745.4679327679878L459.5478088660948 755.9158076473868L462.34067942923866 760.8033311328891L460.9442441476658 771.2639008784845L470.7065962524757 775.4532067232012L472.10303153404857 778.2333824201487L470.7065962524757 783.120905905651L459.5478088660948 792.8832580104599L459.5478088660948 799.1545219113377L456.7676331691455 802.6456101152689L462.34067942923866 808.2186563753612L467.92642055552824 809.6150916569331L465.13354999238254 813.8043975016499L466.5299852739554 820.773879043315L465.13354999238254 825.6614025288172L470.7065962524757 834.7255369928389L467.92642055552824 838.9021479713601L467.92642055552824 843.091453816076L466.5299852739554 846.5825420200063L463.7371147108115 847.2807596607927L462.34067942923866 850.7591529985266L465.13354999238254 852.1555882800994L467.92642055552824 858.4268521809772L472.10303153404857 861.2197227441211L470.7065962524757 864.0125933072659L477.6887726603363 866.1072462296243L484.65825420200053 873.0767277712885L486.05468948357156 880.74442695374L486.05468948357156 886.3301680800278L476.2923373787635 884.9337327984549L484.65825420200053 890.5067790585481L488.84756004671726 900.2691311633571L476.2923373787635 908.6477428527896L467.92642055552824 907.2513075712177L470.7065962524757 914.9190067536683L466.5299852739554 914.9190067536683L469.31016097090287 919.0956177321887L469.31016097090287 921.1902706545461L476.2923373787635 928.1724470624067L476.2923373787635 930.2544051185696L473.4994668156196 932.349058040927L470.7065962524757 935.1419286040723L462.34067942923866 933.0472756817139L456.7676331691455 935.1419286040723L456.7676331691455 940.0167572233781L452.57832732442876 944.2060630680944L449.7854567612867 944.2060630680944L441.41953993804964 936.5383638856438L435.84649367795646 937.2365815264307L433.0536231148126 934.4437109632854L421.89483572843164 920.4920530137606L416.32178946833847 920.4920530137606L413.5289189051946 914.9190067536683L409.33961306047786 910.7297009089516L402.37013151881365 910.0314832681661L394.0042146955766 913.5225714720955L388.41847356928884 909.3332656273797L382.84542730919566 908.6477428527896L384.2418625907685 905.1566546488593L381.4489920276246 903.062001726501L381.4489920276246 895.3943025440503L378.65612146448075 893.9978672624784L373.08307520438757 893.9978672624784L370.29020464124187 897.4889554664087L363.3207230995795 900.9673488041426L364.7171583811505 903.062001726501L361.92428781800663 903.7602193672874L360.5278525364338 911.4279185497371L356.33854669171706 910.0314832681661L349.36906515005285 902.3637840857155L342.39958360838864 900.9673488041426L339.60671304524476 897.4889554664087L335.43010206672443 895.3943025440503L339.60671304524476 887.7266033616006L338.21027776367373 882.8390798760975L338.21027776367373 880.0462093129527L334.0336667851534 876.5678159752188L334.0336667851534 873.0767277712885L327.051490377291 870.9820748489301L315.89270299091004 873.0767277712885L313.11252729396256 870.9820748489301L308.92322144924583 870.9820748489301L299.1608693444359 873.7749454120749L297.7644340628649 868.8874219265726L292.19138780277353 868.8874219265726L276.84329457167587 877.9642512567916L267.0809424668678 877.2660336160052L261.5078962067746 880.0462093129527L257.3185903620579 878.6497740313816L255.92215508048503 881.4426445945255L250.34910882039367 884.2355151576694L243.37962727872946 877.9642512567916L233.61727517391955 877.2660336160052L232.2208398923467 874.4731630528604L222.45848778753862 874.4731630528604L212.6961356827287 870.9820748489301L207.11039455644095 865.4090285888378L211.29970040115768 861.9179403849084L211.29970040115768 858.4268521809772L205.71395927486992 851.4573706393121L200.14091301477674 857.0431117656017L194.55517188848899 854.9484588432433L190.37856090996866 857.7413294063872L186.18925506525193 856.3448941248153L179.2197735235859 858.4268521809772L177.82333824201487 857.7413294063872L176.42690296044384 864.7108109480523L170.85385670035066 867.5036815111962L170.85385670035066 865.4090285888378L162.47524501091902 866.8054638704107L158.29863403239688 870.2838572081446L148.5362819275888 873.7749454120749L147.13984664601776 870.2838572081446L142.95054080130103 870.2838572081446L144.34697608287206 865.4090285888378L142.95054080130103 862.616158025694L138.7739298227807 860.5215051033356L138.7739298227807 855.6466764840288L134.58462397806397 851.4573706393121L135.981059259635 846.5825420200063L144.34697608287206 847.9662824353827L147.13984664601776 851.4573706393121L152.71289290610912 850.7591529985266L155.505763469253 847.9662824353827L162.47524501091902 846.5825420200063L165.26811557406108 847.9662824353827L176.42690296044384 841.695018534504L182.0126440867316 843.091453816076L188.9821256283958 836.8201899151973L190.37856090996866 831.2344487889095L188.9821256283958 827.7433605849783L190.37856090996866 826.3596201696027L188.9821256283958 822.8685319656724L191.77499619153969 820.773879043315L188.9821256283958 819.3774437617421L190.37856090996866 816.5972680647938L186.18925506525193 817.2827908393838L190.37856090996866 810.3133092977196L194.55517188848899 818.6792261209566L195.95160717006183 815.8990504240082L194.55517188848899 808.9168740161476L191.77499619153969 808.9168740161476L188.9821256283958 804.7402630376273L180.61620880516057 806.1366983191983L173.63403239729814 802.6456101152689L172.2502919819235 799.8527395521251L168.06098613720678 799.1545219113377L166.66455085563393 796.3743462143902L168.06098613720678 795.6761285736038L168.06098613720678 793.5814756512455L162.47524501091902 786.5992992433848L176.42690296044384 787.2975168841713L179.2197735235859 773.3585538008429L186.18925506525193 764.9926369776058L188.9821256283958 765.6908546183922L193.15873660691614 761.5015487736755L193.15873660691614 758.0104605697452L202.93378357792062 760.1051134921026L209.90326511958665 757.3122429289588L214.07987609810698 759.4068958513171L212.6961356827287 762.8979840552474L218.2691819428219 761.5015487736755L216.87274666125086 762.199766414461L218.2691819428219 764.9926369776058L223.84222820291507 766.3763773929822L235.001015589296 758.7086782105316L243.37962727872946 760.8033311328891L247.5562382572498 757.3122429289588L254.525719798914 756.6140252881733L255.92215508048503 758.0104605697452L257.3185903620579 766.3763773929822L258.7150256436307 768.4710303153406L262.90433148834563 767.7728126745533L264.3007667699185 771.96211851927L269.87381303000984 768.4710303153406L269.87381303000984 763.5962016960339L272.66668359315554 761.5015487736755Z" stroke="#FFFFFF" stroke-opacity="0.75" stroke-width="1" stroke-linecap="round" stroke-linejoin="round" fill="#D3D3D3"/>
		<path name="安康市" d="M459.5478088660948 745.4679327679878L463.7371147108115 743.3732798456294L476.2923373787635 745.4679327679878L498.60991215152535 735.0073630223933L504.18295841161853 738.4857563601272L515.3417457979995 733.6109277408204L526.5005331843804 738.4857563601272L530.6771441629007 730.8180571776766L536.2628852891885 728.7234042553182L543.2323668308527 730.8180571776766L548.8181079571423 729.4216218961046L550.2018483725187 733.6109277408204L559.9768953435232 732.2144924592494L558.5804600619522 737.0893210785553L568.3428121667603 737.0893210785553L572.5194231452806 739.1839740009127L573.9158584268534 743.3732798456294L571.1229878637077 749.6445437465081L568.3428121667603 750.3427613872946L565.5499416036146 746.8516731833643L558.5804600619522 753.8338495912249L554.3911542172355 752.4374143096529L554.3911542172355 754.5320672320113L557.1840247803775 755.9158076473868L557.1840247803775 757.3122429289588L548.8181079571423 767.7728126745533L534.8664500076175 767.0745950337678L534.8664500076175 771.2639008784845L527.8969684659514 777.5351647793623L529.2934037475261 783.8191235464374L526.5005331843804 787.9957345249577L526.5005331843804 797.7580866297667L534.8664500076175 795.6761285736038L539.0557558523342 796.3743462143902L543.2323668308527 801.9473924744834L547.4216726755694 800.5509571929106L554.3911542172355 804.0420453968409L566.9463768851874 815.8990504240082L572.5194231452806 820.0756614025277L576.7087289899955 817.9810084801693L576.7087289899955 814.5026151424354L585.0746458132326 812.4079622200779L587.8675163763783 808.9168740161476L596.2334331996135 815.8990504240082L608.7886558675673 811.7097445792915L612.9652668460876 814.5026151424354L621.3438785355211 815.8990504240082L622.7276189508957 820.0756614025277L626.9169247956124 817.2827908393838L635.2828416188495 817.2827908393838L657.6004163916114 822.170314324886L667.3627684964194 821.4720966841005L681.3144264459443 827.7433605849783L677.1251206012275 847.2807596607927L679.9179911643732 851.4573706393121L686.8874727060374 850.0609353577411L689.6803432691813 847.2807596607927L695.2533895292745 847.9662824353827L699.4426953739912 850.0609353577411L710.6014827603703 852.1555882800994L718.9673995836074 856.3448941248153L724.5404458437006 859.8232874625501L723.1567054283241 864.7108109480523L727.3333164068445 866.8054638704107L728.7297516884173 871.6802924897165L725.9368811252734 876.5678159752188L728.7297516884173 877.9642512567916L732.919057533134 882.8390798760975L725.9368811252734 887.7266033616006L723.1567054283241 884.9337327984549L717.5709643020364 884.2355151576694L718.9673995836074 888.4248210023861L710.6014827603703 893.9978672624784L693.8569542477017 887.7266033616006L684.0946021428936 889.8085614177617L675.7286853196565 888.4248210023861L672.9358147565108 886.3301680800278L658.9968516731842 887.7266033616006L661.7897222363281 893.9978672624784L654.8075458284675 897.4889554664087L646.4416290052304 907.9495252120032L647.8380642868015 912.1261361905244L643.6487584420847 914.2207891128828L646.4416290052304 920.4920530137606L642.2523231605137 925.3795764992628L646.4416290052304 926.7760117808357L650.6309348499472 934.4437109632854L657.6004163916114 936.5383638856438L654.8075458284675 942.8096277865229L658.9968516731842 949.0935865535967L654.8075458284675 958.8559386584061L654.8075458284675 963.0325496369264L658.9968516731842 966.5236378408567L660.3932869547552 970.014726044787L654.8075458284675 976.2859899456653L657.6004163916114 977.6824252272372L661.7897222363281 986.7465596912602L657.6004163916114 988.1429949728322L654.8075458284675 990.9231706697806L656.2039811100385 994.4142588737109L652.0273701315182 997.2071294368552L636.6792769004223 997.9053470776412L628.3133600771853 999.9999999999995L617.1545726908043 998.6035647184272L615.7581374092333 995.1124765144968L612.9652668460876 993.0178235921385L615.7581374092333 990.9231706697806L615.7581374092333 988.8412126136186L604.5993500228506 986.0483420504738L604.5993500228506 980.4626009241856L590.6603869395203 971.398466460163L578.1051642715684 965.1272025592843L565.5499416036146 963.7307672777124L561.3606357588997 958.1577210176201L554.3911542172355 956.7612857360477L548.8181079571423 953.2701975321179L546.0252373939984 949.0935865535967L537.6593205707613 949.0935865535967L526.5005331843804 940.7149748641646L518.1346163611433 937.2365815264307L518.1346163611433 931.6508404001415L512.5488752348556 928.1724470624067L497.2134768699543 930.2544051185696L494.4206063068086 933.0472756817139L484.65825420200053 928.1724470624067L476.2923373787635 934.4437109632854L473.4994668156196 932.349058040927L476.2923373787635 930.2544051185696L476.2923373787635 928.1724470624067L469.31016097090287 921.1902706545461L469.31016097090287 919.0956177321887L466.5299852739554 914.9190067536683L470.7065962524757 914.9190067536683L467.92642055552824 907.2513075712177L476.2923373787635 908.6477428527896L488.84756004671726 900.2691311633571L484.65825420200053 890.5067790585481L476.2923373787635 884.9337327984549L486.05468948357156 886.3301680800278L486.05468948357156 880.74442695374L484.65825420200053 873.0767277712885L477.6887726603363 866.1072462296243L470.7065962524757 864.0125933072659L472.10303153404857 861.2197227441211L467.92642055552824 858.4268521809772L465.13354999238254 852.1555882800994L462.34067942923866 850.7591529985266L463.7371147108115 847.2807596607927L466.5299852739554 846.5825420200063L467.92642055552824 843.091453816076L467.92642055552824 838.9021479713601L470.7065962524757 834.7255369928389L465.13354999238254 825.6614025288172L466.5299852739554 820.773879043315L465.13354999238254 813.8043975016499L467.92642055552824 809.6150916569331L462.34067942923866 808.2186563753612L456.7676331691455 802.6456101152689L459.5478088660948 799.1545219113377L459.5478088660948 792.8832580104599L470.7065962524757 783.120905905651L472.10303153404857 778.2333824201487L470.7065962524757 775.4532067232012L460.9442441476658 771.2639008784845L462.34067942923866 760.8033311328891L459.5478088660948 755.9158076473868L459.5478088660948 745.4679327679878Z" stroke="#FFFFFF" stroke-opacity="0.75" stroke-width="1" stroke-linecap="round" stroke-linejoin="round" fill="#D3D3D3"/>
		<path name="商洛市" d="M559.9768953435232 732.2144924592494L566.9463768851874 729.4216218961046L569.7392474483313 725.2450109175843L580.8853399685158 723.1503579952259L586.4710810948036 718.9610521505101L593.4405626364696 721.0557050728685L594.8369979180425 724.5467932767979L597.6298684811863 725.2450109175843L607.3922205859963 725.9305336921743L612.9652668460876 723.8485756360124L619.9474432539464 727.3269689737463L625.5204895140414 725.9305336921743L636.6792769004223 729.4216218961046L643.6487584420847 728.0251866145327L656.2039811100385 721.0557050728685L656.2039811100385 716.1681815873653L647.8380642868015 710.595135327273L652.0273701315182 700.8327832224641L660.3932869547552 699.4363479408921L664.5698979332756 695.9452597369618L674.3322500380855 696.6434773777482L674.3322500380855 693.1650840400134L679.9179911643732 688.2775605545112L679.9179911643732 690.3722134768695L684.0946021428936 689.6739958360831L675.7286853196565 684.1009495759909L675.7286853196565 682.0062966536334L675.7286853196565 677.1187731681302L678.5215558828022 676.4205555273438L681.3144264459443 680.6098613720605L681.3144264459443 675.0241202457728L684.0946021428936 672.2439445488235L688.2839079876103 675.0241202457728L691.0767785507542 674.3259026049855L692.473213832327 677.8169908089167L696.6498248108455 679.911643731275L700.8391306555623 677.8169908089167L702.2355659371351 682.0062966536334L706.4121769156554 680.6098613720605L709.2050474787993 678.5152084497022L707.8086121972283 670.8475092672516L711.997918041945 669.4510739856796L707.8086121972283 662.4815924440145L711.997918041945 660.386939521657L714.7780937388925 656.1976336769403L720.3638348651803 654.1029807545829L728.7297516884173 654.1029807545829L744.0651500533186 658.9905042400851L762.2061138475601 656.8958513177267L767.7791601076515 656.8958513177267L770.5720306707972 665.2617681409629L770.5720306707972 667.3564210633212L767.7791601076515 668.0546387041077L763.602549129133 671.545726908038L762.2061138475601 672.2439445488235L762.2061138475601 677.1187731681302L776.1450769308885 681.3080790128461L777.5415122124614 684.1009495759909L788.7002995988423 688.2775605545112L787.3038643172695 692.4668663992279L781.7308180571763 696.6434773777482L783.127253338751 700.1345655816776L780.3343827756053 703.6256537856088L783.127253338751 705.7076118417699L785.9074290356984 705.0093942009844L790.0967348804152 711.991570608845L792.889605443559 715.4699639465789L781.7308180571763 721.753922713654L781.7308180571763 723.8485756360124L784.523688620322 728.0251866145327L791.4931701619862 727.3269689737463L797.0662164220776 729.4216218961046L801.2555222667943 734.3091453816069L805.4321332453146 734.3091453816069L811.0178743716042 739.8821916417L813.8107449347481 751.0409790280801L834.7318844259371 762.199766414461L834.7318844259371 768.4710303153406L837.5120601228864 774.7549890824139L836.1156248413154 778.2333824201487L833.3354491443661 780.3280353425071L838.9084954044574 789.3921698065296L838.9084954044574 793.5814756512455L834.7318844259371 794.9779109328183L831.939013862795 801.9473924744834L833.3354491443661 804.0420453968409L829.1461432996493 803.3438277560545L823.573097039558 809.6150916569331L817.9873559132684 808.9168740161476L812.414309653177 810.3133092977196L811.0178743716042 816.5972680647938L804.04839282994 816.5972680647938L799.8590869852233 818.6792261209566L797.0662164220776 823.5667496064589L790.0967348804152 815.8990504240082L787.3038643172695 817.2827908393838L783.127253338751 815.8990504240082L781.7308180571763 805.4384806784128L774.7486416493175 803.3438277560545L774.7486416493175 806.8349159599857L771.9684659523682 806.1366983191983L766.3827248260804 813.8043975016499L752.4437617427502 812.4079622200779L749.6508911796082 814.5026151424354L735.6992332300833 815.2008327832218L728.7297516884173 808.9168740161476L716.1745290204653 809.6150916569331L714.7780937388925 811.0115269385051L709.2050474787993 809.6150916569331L705.0157416340826 810.3133092977196L689.6803432691813 804.0420453968409L674.3322500380855 806.1366983191983L670.1556390595651 805.4384806784128L668.7592037779923 803.3438277560545L663.1734626517027 804.0420453968409L658.9968516731842 801.2491748336961L657.6004163916114 806.1366983191983L646.4416290052304 804.7402630376273L643.6487584420847 807.5204387345748L643.6487584420847 808.9168740161476L635.2828416188495 817.2827908393838L626.9169247956124 817.2827908393838L622.7276189508957 820.0756614025277L621.3438785355211 815.8990504240082L612.9652668460876 814.5026151424354L608.7886558675673 811.7097445792915L596.2334331996135 815.8990504240082L587.8675163763783 808.9168740161476L585.0746458132326 812.4079622200779L576.7087289899955 814.5026151424354L576.7087289899955 817.9810084801693L572.5194231452806 820.0756614025277L566.9463768851874 815.8990504240082L554.3911542172355 804.0420453968409L547.4216726755694 800.5509571929106L543.2323668308527 801.9473924744834L539.0557558523342 796.3743462143902L534.8664500076175 795.6761285736038L526.5005331843804 797.7580866297667L526.5005331843804 787.9957345249577L529.2934037475261 783.8191235464374L527.8969684659514 777.5351647793623L534.8664500076175 771.2639008784845L534.8664500076175 767.0745950337678L548.8181079571423 767.7728126745533L557.1840247803775 757.3122429289588L557.1840247803775 755.9158076473868L554.3911542172355 754.5320672320113L554.3911542172355 752.4374143096529L558.5804600619522 753.8338495912249L565.5499416036146 746.8516731833643L568.3428121667603 750.3427613872946L571.1229878637077 749.6445437465081L573.9158584268534 743.3732798456294L572.5194231452806 739.1839740009127L568.3428121667603 737.0893210785553L558.5804600619522 737.0893210785553L559.9768953435232 732.2144924592494Z" stroke="#FFFFFF" stroke-opacity="0.75" stroke-width="1" stroke-linecap="round" stroke-linejoin="round" fill="#D3D3D3"/>
		<path name="宝鸡市" d="M430.2607525516687 585.0682983801344L430.2607525516687 589.2576042248511L434.45005839638543 595.5288681257289L434.45005839638543 601.1146092520185L441.41953993804964 601.812826892804L447.0052810643374 599.7181739704456L447.0052810643374 606.6876555121107L453.9747626060034 610.178743716041L456.7676331691455 629.703447925659L452.57832732442876 631.7981008480165L451.1818920428577 635.9747118265368L453.9747626060034 640.1640176712535L452.57832732442876 646.4352815721322L456.7676331691455 647.8317168537033L453.9747626060034 652.7192403392055L459.5478088660948 668.0546387041077L447.0052810643374 668.0546387041077L447.0052810643374 671.545726908038L449.7854567612867 672.9421621896099L459.5478088660948 672.9421621896099L459.5478088660948 679.2134260904877L456.7676331691455 680.6098613720605L455.37119788757445 687.5793429137257L453.9747626060034 689.6739958360831L452.57832732442876 695.9452597369618L445.60884578276637 704.3238714263944L447.0052810643374 710.595135327273L442.81597521962067 710.595135327273L440.0231046564768 708.5004824049156L433.0536231148126 711.991570608845L428.86431727009585 709.1987000457011L423.2912710100027 715.4699639465789L414.92535418676744 718.2628345097237L413.5289189051946 726.6287513329598L416.32178946833847 728.0251866145327L412.13248362362356 732.9127101000349L412.13248362362356 737.0893210785553L405.16300208195935 744.0714974864168L399.5772609556698 746.8516731833643L398.1808256740969 746.1534555425778L394.0042146955766 748.9463261057217L388.41847356928884 748.9463261057217L384.2418625907685 751.7391966688665L377.2596861829079 753.8338495912249L374.4795104859586 748.9463261057217L363.3207230995795 746.1534555425778L361.92428781800663 742.6750622048439L364.7171583811505 737.7875387193417L360.5278525364338 735.6928857969833L356.33854669171706 737.7875387193417L347.9726298684818 737.0893210785553L345.1924541715325 732.2144924592494L343.7960188899615 734.3091453816069L335.43010206672443 730.119839536891L332.63723150357873 724.5467932767979L331.2407962220077 729.4216218961046L331.2407962220077 734.3091453816069L325.65505509571994 735.0073630223933L313.11252729396256 728.7234042553182L308.92322144924583 724.5467932767979L306.13035088610195 729.4216218961046L301.9537399075816 732.2144924592494L301.9537399075816 748.2481084649362L300.5573046260106 750.3427613872946L285.2092113949111 746.8516731833643L288.0020819580568 750.3427613872946L281.0326004163926 752.4374143096529L282.4290356979636 754.5320672320113L278.2397298532469 757.3122429289588L278.2397298532469 760.1051134921026L275.446859290103 762.199766414461L272.66668359315554 761.5015487736755L272.66668359315554 755.9158076473868L269.87381303000984 750.3427613872946L260.11146092520175 745.4679327679878L260.11146092520175 737.7875387193417L257.3185903620579 733.6109277408204L257.3185903620579 730.8180571776766L261.5078962067746 729.4216218961046L262.90433148834563 727.3269689737463L258.7150256436307 724.5467932767979L253.14197938353755 725.2450109175843L251.74554410196652 719.6592697912956L258.7150256436307 712.6897882496305L258.7150256436307 705.7076118417699L264.3007667699185 699.4363479408921L262.90433148834563 694.5615193215863L271.2702483115845 694.5615193215863L272.66668359315554 691.0704311176551L269.87381303000984 679.911643731275L265.6845071852931 676.4205555273438L261.5078962067746 677.1187731681302L264.3007667699185 672.9421621896099L265.6845071852931 671.545726908038L272.66668359315554 673.6403798303963L274.06311887472657 677.1187731681302L278.2397298532469 675.7223378865583L281.0326004163926 677.8169908089167L285.2092113949111 676.4205555273438L288.0020819580568 672.9421621896099L288.0020819580568 668.0546387041077L286.60564667648396 666.6582034225357L289.39851723962784 661.783374803229L281.0326004163926 658.9905042400851L278.2397298532469 652.02102269842L274.06311887472657 650.624587416848L275.446859290103 649.9263697760616L269.87381303000984 647.1334992129177L267.0809424668678 647.8317168537033L261.5078962067746 642.258670593611L257.3185903620579 641.5604529528255L248.95267353882082 644.3406286497739L241.9831919971548 642.9568882343974L241.9831919971548 637.3711471081087L239.19032143401273 634.5782765449649L247.5562382572498 629.0052302848717L250.34910882039367 629.0052302848717L253.14197938353755 625.5141420809423L255.92215508048503 628.3070126440862L258.7150256436307 626.9105773625133L255.92215508048503 623.4194891585839L257.3185903620579 618.5446605392772L261.5078962067746 617.1482252577052L262.90433148834563 613.6571370537749L268.4773777484388 613.6571370537749L267.0809424668678 610.178743716041L271.2702483115845 606.6876555121107L271.2702483115845 603.1965673081804L264.3007667699185 595.5288681257289L265.6845071852931 592.050474787995L261.5078962067746 588.5593865840647L260.11146092520175 584.3700807393489L262.90433148834563 580.1934697608285L260.11146092520175 578.0988168384702L265.6845071852931 578.0988168384702L269.87381303000984 570.4311176560195L282.4290356979636 573.2112933529679L288.0020819580568 571.8275529375915L289.39851723962784 569.0346823744467L303.35017518915265 571.8275529375915L314.5089625755354 570.4311176560195L321.4784441171996 573.9095109937534L325.65505509571994 573.2112933529679L324.2713146803435 573.9095109937534L327.051490377291 577.4005991976837L332.63723150357873 576.7023815568973L332.63723150357873 578.7970344792557L336.81384248209906 579.4952521200421L338.21027776367373 585.7665160209208L347.9726298684818 589.9558218656366L350.7655004316257 596.9253034073017L360.5278525364338 594.1324328441578L364.7171583811505 589.9558218656366L368.89376935967084 589.9558218656366L371.68663992281654 592.735997562585L377.2596861829079 589.9558218656366L384.2418625907685 592.735997562585L392.60777941400556 592.735997562585L398.1808256740969 585.7665160209208L402.37013151881365 587.8611689432782L403.7665668003847 585.7665160209208L406.5594373635304 586.4647336617072L406.5594373635304 592.050474787995L412.13248362362356 587.8611689432782L430.2607525516687 585.0682983801344Z" stroke="#FFFFFF" stroke-opacity="0.75" stroke-width="1" stroke-linecap="round" stroke-linejoin="round" fill="#D3D3D3"/>
		<path name="渭南市" d="M576.7087289899955 604.5930025897524L576.7087289899955 596.2270857665162L587.8675163763783 595.5288681257289L592.0441273548986 592.050474787995L590.6603869395203 587.1629513024927L597.6298684811863 582.973645457776L607.3922205859963 582.973645457776L604.5993500228506 578.0988168384702L612.9652668460876 575.3059462753254L615.7581374092333 569.0346823744467L618.5510079723754 570.4311176560195L629.7097953587581 569.732900015234L633.8864063372766 573.2112933529679L635.2828416188495 571.129335296805L635.2828416188495 561.366983191996L625.5204895140414 560.6687655512105L619.9474432539464 555.7812420657083L618.5510079723754 550.2081958056151L615.7581374092333 549.5099781648296L626.9169247956124 545.3206723201129L631.1062306403292 540.4458437008061L642.2523231605137 538.3511907784487L643.6487584420847 536.2565378560912L646.4416290052304 528.5888386736397L649.2344995683761 525.7959681104958L658.9968516731842 525.7959681104958L670.1556390595651 529.9852739552116L675.7286853196565 526.4941857512822L682.6981668613225 525.7959681104958L688.2839079876103 527.8906210328532L691.0767785507542 526.4941857512822L695.2533895292745 529.9852739552116L705.0157416340826 529.9852739552116L706.4121769156554 526.4941857512822L709.2050474787993 529.9852739552116L714.7780937388925 527.1924033920677L717.5709643020364 530.683491595998L724.5404458437006 524.3995328289238L730.1261869699883 522.3048799065655L737.0956685116544 515.3353983649013L741.2849743563711 513.2407454425429L742.6814096379421 510.4605697455945L738.4921037932254 507.66769918245063L739.8885390747982 505.57304626009227L735.6992332300833 501.38374041537554L724.5404458437006 497.2071294368552L724.5404458437006 495.11247651449685L730.1261869699883 490.92317066978103L744.0651500533186 490.92317066978103L748.2544558980353 487.4447773320462L753.8401970243231 485.35012440968785L759.4132432844162 479.07886050881007L777.5415122124614 473.4931193825205L778.9379474940342 479.07886050881007L780.3343827756053 493.0178235921385L784.523688620322 499.3017823592136L783.127253338751 505.57304626009227L759.4132432844162 541.1440613415934L755.2239374396995 552.290153861778L755.2239374396995 564.1471588889444L744.0651500533186 585.7665160209208L734.3027979485087 593.4342152033705L738.4921037932254 599.7181739704456L739.8885390747982 605.2912202305379L737.0956685116544 625.5141420809423L742.6814096379421 630.4016655664445L755.2239374396995 633.1945361295884L753.8401970243231 637.3711471081087L758.0168080028434 637.3711471081087L752.4437617427502 642.9568882343974L758.0168080028434 654.1029807545829L762.2061138475601 656.8958513177267L744.0651500533186 658.9905042400851L728.7297516884173 654.1029807545829L720.3638348651803 654.1029807545829L714.7780937388925 656.1976336769403L711.997918041945 660.386939521657L707.8086121972283 662.4815924440145L711.997918041945 669.4510739856796L707.8086121972283 670.8475092672516L709.2050474787993 678.5152084497022L706.4121769156554 680.6098613720605L702.2355659371351 682.0062966536334L700.8391306555623 677.8169908089167L696.6498248108455 679.911643731275L692.473213832327 677.8169908089167L691.0767785507542 674.3259026049855L688.2839079876103 675.0241202457728L684.0946021428936 672.2439445488235L681.3144264459443 675.0241202457728L681.3144264459443 680.6098613720605L678.5215558828022 676.4205555273438L675.7286853196565 677.1187731681302L675.7286853196565 682.0062966536334L671.5520743411362 678.5152084497022L660.3932869547552 678.5152084497022L653.4111105468946 675.7223378865583L646.4416290052304 676.4205555273438L638.0757121819934 670.149291626466L638.0757121819934 658.9905042400851L629.7097953587581 648.5299344944906L632.4899710557056 645.0388462905594L629.7097953587581 641.5604529528255L636.6792769004223 638.7675823896807L632.4899710557056 615.0535723353469L625.5204895140414 615.7517899761333L624.1240542324686 619.94109582085L617.1545726908043 621.337531102421L601.8064794597067 620.6393134616355L601.8064794597067 619.2428781800627L592.0441273548986 619.94109582085L590.6603869395203 617.8464428984917L585.0746458132326 621.337531102421L583.6782105316615 619.2428781800627L585.0746458132326 611.575178997613L576.7087289899955 604.5930025897524Z" stroke="#FFFFFF" stroke-opacity="0.75" stroke-width="1" stroke-linecap="round" stroke-linejoin="round" fill="#D3D3D3"/>
		<path name="咸阳市" d="M532.0735794444718 513.2407454425429L537.6593205707613 513.9389630833284L539.0557558523342 517.4300512872587L551.5982836540898 520.921139491189L554.3911542172355 532.76544965216L558.5804600619522 533.4636672929455L561.3606357588997 537.6529731376622L562.7570710404707 538.3511907784487L564.1535063220435 540.4458437008061L548.8181079571423 544.6224546793273L543.2323668308527 552.290153861778L539.0557558523342 554.3848067841354L533.4700147260446 560.6687655512105L537.6593205707613 565.5435941705173L530.6771441629007 567.6382470928756L532.0735794444718 569.0346823744467L532.0735794444718 571.129335296805L527.8969684659514 576.7023815568973L532.0735794444718 580.1934697608285L540.4394962677106 596.9253034073017L544.6288021124255 599.0199563296601L550.2018483725187 598.3217386888737L557.1840247803775 605.9894378713243L561.3606357588997 604.5930025897524L566.9463768851874 605.9894378713243L569.7392474483313 603.1965673081804L576.7087289899955 604.5930025897524L585.0746458132326 611.575178997613L583.6782105316615 619.2428781800627L585.0746458132326 621.337531102421L590.6603869395203 617.8464428984917L592.0441273548986 619.94109582085L601.8064794597067 619.2428781800627L601.8064794597067 620.6393134616355L597.6298684811863 628.3070126440862L597.6298684811863 635.2764941857504L587.8675163763783 633.1945361295884L573.9158584268534 636.6729294673232L576.7087289899955 640.1640176712535L576.7087289899955 646.4352815721322L573.9158584268534 655.4994160361539L555.7875894988065 662.4815924440145L554.3911542172355 671.545726908038L550.2018483725187 671.545726908038L547.4216726755694 673.6403798303963L541.8359315492817 674.3259026049855L540.4394962677106 678.5152084497022L536.2628852891885 675.7223378865583L532.0735794444718 675.7223378865583L525.1040979028094 679.911643731275L513.9453105164266 682.7045142944189L495.8170415883833 684.1009495759909L490.2313004620919 682.0062966536334L484.65825420200053 683.4027319352044L477.6887726603363 680.6098613720605L469.31016097090287 681.3080790128461L459.5478088660948 679.2134260904877L459.5478088660948 672.9421621896099L449.7854567612867 672.9421621896099L447.0052810643374 671.545726908038L447.0052810643374 668.0546387041077L459.5478088660948 668.0546387041077L453.9747626060034 652.7192403392055L456.7676331691455 647.8317168537033L452.57832732442876 646.4352815721322L453.9747626060034 640.1640176712535L451.1818920428577 635.9747118265368L452.57832732442876 631.7981008480165L456.7676331691455 629.703447925659L453.9747626060034 610.178743716041L447.0052810643374 606.6876555121107L447.0052810643374 599.7181739704456L441.41953993804964 601.812826892804L434.45005839638543 601.1146092520185L434.45005839638543 595.5288681257289L430.2607525516687 589.2576042248511L430.2607525516687 585.0682983801344L434.45005839638543 582.973645457776L433.0536231148126 579.4952521200421L427.4805768547194 577.4005991976837L423.2912710100027 573.2112933529679L423.2912710100027 571.129335296805L417.7055298837149 567.6382470928756L416.32178946833847 558.5741126288522L409.33961306047786 550.9064134464015L410.7360483420507 549.5099781648296L416.32178946833847 550.9064134464015L420.4984004468606 546.7171076016857L419.10196516528595 543.9242370385409L417.7055298837149 543.2260193977545L421.89483572843164 542.527801756969L435.84649367795646 549.5099781648296L444.2124105011935 550.2081958056151L447.0052810643374 548.1135428832577L449.7854567612867 550.9064134464015L458.16406845071833 549.5099781648296L474.89590209719245 542.527801756969L480.4689483572838 543.9242370385409L484.65825420200053 548.8117605240441L491.62773574366656 548.1135428832577L497.2134768699543 543.2260193977545L499.9936525669018 546.0188899608993L509.7560046717099 546.7171076016857L515.3417457979995 546.7171076016857L523.7076626212347 543.2260193977545L526.5005331843804 545.3206723201129L533.4700147260446 529.9852739552116L532.0735794444718 520.921139491189L529.2934037475261 518.8264865688307L532.0735794444718 513.2407454425429Z" stroke="#FFFFFF" stroke-opacity="0.75" stroke-width="1" stroke-linecap="round" stroke-linejoin="round" fill="#D3D3D3"/>
		<path name="西安市" d="M405.16300208195935 744.0714974864168L412.13248362362356 737.0893210785553L412.13248362362356 732.9127101000349L416.32178946833847 728.0251866145327L413.5289189051946 726.6287513329598L414.92535418676744 718.2628345097237L423.2912710100027 715.4699639465789L428.86431727009585 709.1987000457011L433.0536231148126 711.991570608845L440.0231046564768 708.5004824049156L442.81597521962067 710.595135327273L447.0052810643374 710.595135327273L445.60884578276637 704.3238714263944L452.57832732442876 695.9452597369618L453.9747626060034 689.6739958360831L455.37119788757445 687.5793429137257L456.7676331691455 680.6098613720605L459.5478088660948 679.2134260904877L469.31016097090287 681.3080790128461L477.6887726603363 680.6098613720605L484.65825420200053 683.4027319352044L490.2313004620919 682.0062966536334L495.8170415883833 684.1009495759909L513.9453105164266 682.7045142944189L525.1040979028094 679.911643731275L532.0735794444718 675.7223378865583L536.2628852891885 675.7223378865583L540.4394962677106 678.5152084497022L541.8359315492817 674.3259026049855L547.4216726755694 673.6403798303963L550.2018483725187 671.545726908038L554.3911542172355 671.545726908038L555.7875894988065 662.4815924440145L573.9158584268534 655.4994160361539L576.7087289899955 646.4352815721322L576.7087289899955 640.1640176712535L573.9158584268534 636.6729294673232L587.8675163763783 633.1945361295884L597.6298684811863 635.2764941857504L597.6298684811863 628.3070126440862L601.8064794597067 620.6393134616355L617.1545726908043 621.337531102421L624.1240542324686 619.94109582085L625.5204895140414 615.7517899761333L632.4899710557056 615.0535723353469L636.6792769004223 638.7675823896807L629.7097953587581 641.5604529528255L632.4899710557056 645.0388462905594L629.7097953587581 648.5299344944906L638.0757121819934 658.9905042400851L638.0757121819934 670.149291626466L646.4416290052304 676.4205555273438L653.4111105468946 675.7223378865583L660.3932869547552 678.5152084497022L671.5520743411362 678.5152084497022L675.7286853196565 682.0062966536334L675.7286853196565 684.1009495759909L684.0946021428936 689.6739958360831L679.9179911643732 690.3722134768695L679.9179911643732 688.2775605545112L674.3322500380855 693.1650840400134L674.3322500380855 696.6434773777482L664.5698979332756 695.9452597369618L660.3932869547552 699.4363479408921L652.0273701315182 700.8327832224641L647.8380642868015 710.595135327273L656.2039811100385 716.1681815873653L656.2039811100385 721.0557050728685L643.6487584420847 728.0251866145327L636.6792769004223 729.4216218961046L625.5204895140414 725.9305336921743L619.9474432539464 727.3269689737463L612.9652668460876 723.8485756360124L607.3922205859963 725.9305336921743L597.6298684811863 725.2450109175843L594.8369979180425 724.5467932767979L593.4405626364696 721.0557050728685L586.4710810948036 718.9610521505101L580.8853399685158 723.1503579952259L569.7392474483313 725.2450109175843L566.9463768851874 729.4216218961046L559.9768953435232 732.2144924592494L550.2018483725187 733.6109277408204L548.8181079571423 729.4216218961046L543.2323668308527 730.8180571776766L536.2628852891885 728.7234042553182L530.6771441629007 730.8180571776766L526.5005331843804 738.4857563601272L515.3417457979995 733.6109277408204L504.18295841161853 738.4857563601272L498.60991215152535 735.0073630223933L476.2923373787635 745.4679327679878L463.7371147108115 743.3732798456294L459.5478088660948 745.4679327679878L447.0052810643374 741.9768445640584L442.81597521962067 742.6750622048439L441.41953993804964 741.2786269232711L434.45005839638543 747.5498908241507L417.7055298837149 743.3732798456294L410.7360483420507 746.8516731833643L405.16300208195935 744.0714974864168Z" stroke="#FFFFFF" stroke-opacity="0.75" stroke-width="1" stroke-linecap="round" stroke-linejoin="round" fill="#D3D3D3"/>
		<path name="铜川市" d="M562.7570710404707 538.3511907784487L571.1229878637077 534.8601025745184L586.4710810948036 512.5425278017565L592.0441273548986 513.2407454425429L594.8369979180425 509.762352104809L603.2029147412795 508.36591682323615L607.3922205859963 509.06413446402166L607.3922205859963 513.9389630833284L608.7886558675673 515.3353983649013L631.1062306403292 516.0336160056868L633.8864063372766 518.8264865688307L639.4721474635662 517.4300512872587L639.4721474635662 520.921139491189L640.8685827451391 522.3048799065655L638.0757121819934 523.7013151881374L640.8685827451391 526.4941857512822L639.4721474635662 528.5888386736397L642.2523231605137 531.3817092367844L642.2523231605137 534.1618849337328L643.6487584420847 536.2565378560912L642.2523231605137 538.3511907784487L631.1062306403292 540.4458437008061L626.9169247956124 545.3206723201129L615.7581374092333 549.5099781648296L618.5510079723754 550.2081958056151L619.9474432539464 555.7812420657083L625.5204895140414 560.6687655512105L635.2828416188495 561.366983191996L635.2828416188495 571.129335296805L633.8864063372766 573.2112933529679L629.7097953587581 569.732900015234L618.5510079723754 570.4311176560195L615.7581374092333 569.0346823744467L612.9652668460876 575.3059462753254L604.5993500228506 578.0988168384702L607.3922205859963 582.973645457776L597.6298684811863 582.973645457776L590.6603869395203 587.1629513024927L592.0441273548986 592.050474787995L587.8675163763783 595.5288681257289L576.7087289899955 596.2270857665162L576.7087289899955 604.5930025897524L569.7392474483313 603.1965673081804L566.9463768851874 605.9894378713243L561.3606357588997 604.5930025897524L557.1840247803775 605.9894378713243L550.2018483725187 598.3217386888737L544.6288021124255 599.0199563296601L540.4394962677106 596.9253034073017L532.0735794444718 580.1934697608285L527.8969684659514 576.7023815568973L532.0735794444718 571.129335296805L532.0735794444718 569.0346823744467L530.6771441629007 567.6382470928756L537.6593205707613 565.5435941705173L533.4700147260446 560.6687655512105L539.0557558523342 554.3848067841354L543.2323668308527 552.290153861778L548.8181079571423 544.6224546793273L564.1535063220435 540.4458437008061L562.7570710404707 538.3511907784487Z" stroke="#FFFFFF" stroke-opacity="0.75" stroke-width="1" stroke-linecap="round" stroke-linejoin="round" fill="#D3D3D3"/>
	</g>
</svg>