<?xml version="1.0" encoding="UTF-8" standalone="no"?><!-- Generator: Adobe Illustrator 19.0.0, SVG Export Plug-In . SVG Version: 6.00 Build 0)  --><svg xmlns="http://www.w3.org/2000/svg" xmlns:xlink="http://www.w3.org/1999/xlink" contentScriptType="text/ecmascript" zoomAndPan="magnify" contentStyleType="text/css" id="图层_1" style="enable-background:new 0 0 1000 1000;" mapName="青海省" mapType="省市地图" version="1.1" xml:space="preserve" preserveAspectRatio="xMidYMid meet" viewBox="0 0 1000 1000" x="0px" y="0px">
	<g>
		<path name="海西蒙古族藏族自治州" d="M635.8527840784382 253.01821906782834L638.2673593326999 255.8279066364239L639.0722177507869 259.449769517817L643.0891929465142 262.259457086413L646.3013097241528 262.259457086413L647.9110265603285 263.46674471354436L651.1304602326773 262.6618862954565L657.5620106826673 266.67886149118385L668.8153947464698 268.69100753640214L672.0275115241093 271.90312431404163L678.4590619740984 271.90312431404163L680.8736372283602 272.70798273212904L682.4760371698248 275.1225579863908L693.7294212336292 276.32984561352214L699.3561132655304 279.13953318211816L700.9658301017053 281.95653764542385L697.7537133240648 282.3589668544673L695.3391380698031 284.36379600497594L695.3391380698031 285.16865442306334L697.7537133240648 286.3759420501947L695.3391380698031 289.5880588278342L698.5585717421536 290.79534645496506L702.5755469378792 290.3929172459211L704.9828052974326 292.0026340820964L709.8119558059561 291.600204873052L714.6337894197704 288.3880880954125L719.4556230335857 286.3759420501947L721.0653398697596 287.58322967732556L720.2604814516726 288.79051730445644L722.6677398112242 290.79534645496506L728.3017487378356 292.40506329113987L733.9284407697369 291.19777566400853L739.555132801639 292.0026340820964L742.7672495792785 294.8196385454021L744.3769664154534 294.41720933635816L748.3939416111807 295.61718006877936L750.8085168654434 297.2268969049542L757.2400673154316 299.6414721592164L759.6473256749832 304.8657349820742L758.0376088388093 306.87788102729246L752.4109168069072 306.07302260920505L744.3769664154534 308.07785175971367L739.555132801639 308.07785175971367L733.9284407697369 309.687568595888L732.318723933563 308.8827101778011L728.3017487378356 312.5045730591937L728.3017487378356 315.3142606277902L734.7259822931146 318.1312650910959L737.1405575473773 322.55066949586626L739.555132801639 320.9409526596919L750.0036584473546 324.562815541085L750.8085168654434 324.95792785541835L749.1988000292677 326.9700739006371L749.1988000292677 328.5797907368119L750.0036584473546 330.5846198873205L753.215775224995 331.7919075144514L753.215775224995 334.6089119777571L748.3939416111807 336.6137411282657L745.1818248335403 339.4307455915714L743.5721079973664 339.0283163825279L741.9623911611916 340.2356040096588L741.1575327431046 343.04529157825436L737.9454159654642 345.0574376234731L735.5308407112025 348.6719836101561L737.1405575473773 353.0987049096366L735.5308407112025 359.12782615058177L733.1235823516499 365.55937660057134L735.5308407112025 369.97878100534217L735.5308407112025 372.38603936489426L734.7259822931146 377.61030218775204L727.4968903197487 374.800614619156L719.4556230335857 377.61030218775204L719.4556230335857 384.8467110558281L721.8701982878465 388.0661447281782L724.2774566474 397.30738274676287L726.6920319016608 400.12438721006856L725.8871734835739 402.1292163605772L719.4556230335857 412.1826296919594L720.2604814516726 418.61418014194805L718.6507646154969 421.4238677105441L709.8119558059561 425.8432721153149L706.5925221336065 429.0627057876641L700.9658301017053 429.0627057876641L701.7706885197922 443.528206629107L697.7537133240648 445.13792346528226L700.9658301017053 450.7646154971835L708.2022389697813 455.58644911099736L706.5925221336065 458.80588278334744L710.616814224044 464.0301456062052L709.8119558059561 465.6398624423796L711.4143557474208 467.2422623838447L710.616814224044 471.2665544742813L713.8289310016826 471.66166678861555L716.2435062559452 476.49081729714L721.8701982878465 478.0932172386042L719.4556230335857 482.11750932904124L719.4556230335857 484.92719689763726L722.6677398112242 487.74420136094295L709.0070973878683 487.3417721518995L706.5925221336065 490.15145972049504L703.380405355967 490.15145972049504L702.5755469378792 492.96846418380073L694.5342796517161 493.37089339284466L692.9318797102505 493.37089339284466L692.1270212921636 489.74903051145156L688.9075876198149 488.95148898807383L686.5003292602623 494.1757518109316L669.6129362698475 499.40001463378985L664.7911026560332 497.7902977976155L654.3425770103167 498.19272700665897L653.5377185922298 497.7902977976155L655.1474354284046 494.9806102290195L651.1304602326773 494.1757518109316L647.9110265603285 496.58301017048416L647.9110265603285 499.40001463378985L645.503768200776 503.41698982951675L643.8940513646012 504.22184824760416L638.2673593326999 504.22184824760416L637.4625009146121 509.04368186141846L634.2503841369726 510.6533986975933L627.8188336869835 511.0558279066372L626.2091168508096 509.44611107046194L616.56544962318 508.23882344333106L614.1508743689174 506.23399429282244L608.5241823370161 506.23399429282244L606.1096070827543 503.41698982951675L605.3047486646674 503.41698982951675L603.7023487232018 505.4291358747355L603.7023487232018 512.2631155337676L598.8805151093875 511.86068632472416L588.4246725689618 508.641252652375L582.7979805370596 509.44611107046194L581.1955805955959 506.23399429282244L579.585863759421 508.23882344333106L577.1712885051584 505.4291358747355L574.7640301456067 507.0315358161997L571.5445964732571 505.4291358747355L564.308187605181 504.62427745664763L559.4863539913667 501.40484378429846L558.6814955732789 497.7902977976155L555.4693787956394 494.9806102290195L553.0548035413776 494.57818101997555L551.452403599912 495.3757225433533L550.6475451818251 493.77332260188814L545.8257115680108 498.9975854247459L545.8257115680108 500.2048730518768L543.411136313749 500.2048730518768L538.5893026999347 505.4291358747355L534.5650106094972 506.23399429282244L528.1407770542182 514.2679446842762L516.8800760957056 509.84854027950587L514.472817736153 505.0267066656911L507.236408868077 506.6364235018664L495.98302480427355 506.6364235018664L495.98302480427355 508.641252652375L494.37330796809874 510.6533986975933L491.16119119045925 511.0558279066372L492.77090802663406 515.0728031023637L491.9660496085462 518.2922367747128L483.92478232238227 518.2922367747128L480.7126655447437 515.8776615204515L482.31506548620837 520.6994951342654L481.5102070681205 523.1140703885276L478.298090290481 528.3383332113854L474.28111509475366 529.5456208385167L471.8665398404919 527.1310455842545L471.06168142240494 528.3383332113854L463.8252725543289 524.3213580156585L459.00343894051457 522.7116411794836L452.57188849052454 518.2922367747128L453.3767469086115 517.0849491475824L451.7743469671477 515.4752323114071L449.35977171288596 515.8776615204515L444.53793809907165 513.0606570571458L439.71610448525735 513.0606570571458L426.8530035852782 505.0267066656911L417.20201946293946 501.00973146996466L411.5753274310382 501.00973146996466L403.5413770395844 498.59515621570245L402.73651862149745 501.80727299334194L397.91468500768315 499.8024438428333L397.1098265895962 500.6073022609212L395.5001097534205 500.6073022609212L392.2879929757819 498.19272700665897L386.6613009438797 497.3878685885711L381.03460891197847 494.9806102290195L380.2297504938906 492.56603497475726L379.42489207580275 492.1636057657138L378.6200336577158 486.13448452476814L374.60305846198844 486.13448452476814L372.99334162581454 484.92719689763726L372.1884832077267 486.13448452476814L369.7739079534658 485.73205531572466L367.36664959391237 484.5247676885938L366.5617911758254 485.32962610668073L358.5205238896615 483.3247969561721L356.11326553010986 483.7199092705059L355.308407112022 483.3247969561721L354.50354869393414 481.31265091095383L351.29143191629555 482.51993853808517L347.26713982585807 481.31265091095383L344.0550230482195 483.3247969561721L340.83558937586895 483.3247969561721L331.19192214824034 478.49564644764814L324.76037169825213 478.0932172386042L323.95551328016427 476.89324650618346L319.13367966634996 476.0883880880956L318.328821248263 474.47867125192124L315.1167044706226 475.28352967000865L307.88029560254745 474.47867125192124L303.8633204068201 472.86895441574643L300.64388673447047 474.47867125192124L295.0171947025683 473.2713836247899L280.5516938611254 472.86895441574643L278.9419770249506 471.2665544742813L276.5274017706897 472.064095997659L269.29830979732196 471.2665544742813L266.8837345430602 468.0471208019321L260.4521840930711 469.25440842906346L252.41091680690715 466.83983317480124L240.3599912197269 465.6398624423796L232.31872393356298 466.0349747567134L221.8701982878465 464.43257481524915L220.2604814516726 463.2252871881178L214.63378941977135 464.83500402429263L213.02407258359563 463.2252871881178L207.39738055169437 464.0301456062052L189.71244603790183 459.2083119923909L187.30518767834928 456.3913075290852L181.6711787517379 455.58644911099736L171.22265310602143 456.3913075290852L164.79110265603322 453.5816199604892L163.18870271456854 454.3791614838665L158.3595522060441 452.7767615424018L154.34257701031675 453.5816199604892L150.3256018145903 451.16704470622744L142.28433452842637 451.9719031243144L123.79454159654688 445.13792346528226L123.79454159654688 441.1209482695549L119.77756640081952 438.7063730152927L122.1921416550822 435.4942562376532L118.16784956464471 433.079680983391L118.97270798273257 428.25784736957667L120.58242481890738 425.440842906271L118.97270798273257 425.0384136972275L118.97270798273257 417.8093217238611L110.13389917319182 416.19960488768584L103.7023487232018 415.79717567864236L102.89749030511484 414.5898880515115L97.27079827321268 413.7850296334236L96.46593985512573 412.1826296919594L97.27079827321268 408.96319601960977L95.66108143703877 408.56076681056584L95.66108143703877 406.95836686910116L96.46593985512573 404.94622082388287L98.07565669130054 403.33650398770806L96.46593985512573 402.1292163605772L96.46593985512573 398.5146703738942L97.27079827321268 396.50252432867546L100.48291505085308 395.2952367015441L106.10960708275434 389.6685446696424L116.56544962318003 389.6685446696424L118.97270798273257 388.87100314626514L120.58242481890738 386.05399868295945L125.40425843272078 385.65156947391597L126.20911685080955 383.2443111143639L130.2260920465351 382.03702348723255L132.64066730079776 382.8418819053195L139.07221775078688 382.439452696276L137.46250091461206 380.42730665105773L139.07221775078688 377.61030218775204L137.46250091461206 376.00790224628736L137.46250091461206 371.98361015585033L131.03095046462386 368.77149337821083L131.03095046462386 363.94965976439653L126.20911685080955 359.93268456866963L124.59940001463383 352.29384649154963L122.1921416550822 349.0744128192L117.36299114655776 347.8744420867788L111.7362991146565 348.6719836101561L111.7362991146565 347.0695836686914L110.13389917319182 345.86229604156006L106.9144655008422 345.0574376234731L107.71932391892915 341.8453208458336L106.10960708275434 339.83317480061487L103.7023487232018 339.0283163825279L100.48291505085308 336.2186288139319L81.99312211897268 329.3846491548993L82.79798053706054 305.2681641911181L84.40769737323535 296.01960927782284L86.82227262749711 287.58322967732556L75.56888856369369 287.58322967732556L72.34945489134407 293.61235091827075L67.52762127752976 293.61235091827075L60.29121240945369 284.36379600497594L65.113046023268 280.34682080924904L57.0790956318142 279.13953318211816L56.27423721372634 275.9274164044782L57.88395404990206 273.1104119411725L77.17128850515837 274.31769956830385L81.19558059559586 271.90312431404163L81.19558059559586 269.898295163533L91.64410624131142 267.0812907002273L94.85622301895182 263.86917392258783L93.25382307748623 262.6618862954565L94.05136460086305 261.4545986683256L106.10960708275434 261.8570278773691L114.15087436891827 259.449769517817L124.59940001463383 258.64491109973005L134.25038413697257 255.8279066364239L138.26735933269993 255.8279066364239L149.52074339650244 251.0060730226096L160.77412746030586 249.3963561864348L168.01053632838284 246.9890978268827L174.44208677837196 247.39152703592663L180.87363722836017 246.1842394087953L180.87363722836017 244.57452257262048L187.30518767834928 242.5623765274022L197.75371332406485 240.1551181678501L202.57554693787915 240.1551181678501L209.00709738786918 237.3381137045444L218.65076461549688 236.93568449550094L218.65076461549688 230.10902173117802L223.4725982293112 228.90173410404668L223.4725982293112 225.68230043169706L225.0823150654869 224.07990049023283L228.30174873783562 224.8774420136101L251.61337528353033 223.67747128118845L256.43520889734464 221.6653252359706L258.84246725689627 222.0677544450141L260.4521840930711 223.27504207214497L270.0958513206997 221.26289602692623L271.7055681568745 222.0677544450141L271.7055681568745 227.29201726787187L275.72254335260095 231.30899246359877L273.3152849930493 239.35025974976315L274.12014341113627 240.1551181678501L282.154093802591 242.5623765274022L295.0171947025683 241.362405794981L315.1167044706226 241.362405794981L320.7433965025248 244.9769517816644L327.1749469525139 245.78181019975182L326.37008853442603 248.59149776834738L317.52396283017515 249.3963561864348L318.328821248263 252.21336064974048L324.76037169825213 256.23033584546783L331.9967805663282 257.0351942635548L354.50354869393414 255.42547742738043L360.93509914392416 256.6327650545113L371.3836247896397 279.54196239116163L371.3836247896397 283.16382527255473L372.99334162581454 284.76622521401987L374.60305846198844 285.16865442306334L381.03460891197847 282.3589668544673L396.3049681715074 282.76139606351126L400.3219433672348 280.7492500182925L399.51708494914783 279.94439160020556L405.94863539913695 279.94439160020556L416.40447793956264 281.151679227336L420.42145313529 282.76139606351126L422.82871149484254 284.36379600497594L423.6335699129295 287.18080046828163L428.4627204214539 289.99048803687765L434.0894124533552 289.1929465135004L443.7330796809838 290.79534645496506L450.96948854905986 286.77837125923816L456.596180580962 286.3759420501947L461.41801419477633 283.96136679593246L467.84956464476454 285.97351284115075L468.6544230628524 287.18080046828163L471.8665398404919 287.58322967732556L473.4762566766667 289.5880588278342L474.28111509475366 292.40506329113987L478.298090290481 293.2099217092268L479.10294870856796 295.22206775444556L487.1442159947319 300.44633057730334L492.77090802663406 300.8487597863473L499.19514158191305 302.8535889368559L499.19514158191305 301.2438721006806L500 301.2438721006806L503.2194336723496 302.8535889368559L507.236408868077 301.2438721006806L505.62669203190126 298.43418453208506L507.236408868077 296.01960927782284L512.8631008999782 293.61235091827075L532.1577522499456 297.2268969049542L532.9626106680334 296.01960927782284L531.3528938318577 293.2099217092268L532.1577522499456 291.600204873052L529.7431769956829 287.58322967732556L535.3698690275851 282.3589668544673L535.3698690275851 280.34682080924904L532.9626106680334 278.3346747640303L532.9626106680334 277.537133240653L535.3698690275851 276.32984561352214L539.3941611180217 277.13470403160954L540.9965610594863 275.9274164044782L539.3941611180217 273.9152703592599L540.1990195361086 272.3055535230851L543.411136313749 271.90312431404163L542.6062778956621 270.3007243725765L543.411136313749 269.49586595448955L550.6475451818251 272.3055535230851L554.6645203775524 272.70798273212904L561.9009292456285 269.49586595448955L560.2912124094537 265.4788907587622L561.9009292456285 263.46674471354436L557.0790956318142 261.8570278773691L558.6814955732789 258.2424818906861L554.6645203775524 254.62061900929257L554.6645203775524 251.810931440697L553.8596619594646 251.0060730226096L554.6645203775524 250.20121460452265L554.6645203775524 247.7939562449701L552.2499451232898 246.1842394087953L553.0548035413776 243.76966415453307L555.4693787956394 242.5623765274022L553.8596619594646 241.76483500402446L554.6645203775524 236.93568449550094L552.2499451232898 234.12599692690446L553.0548035413776 232.11385088168663L556.2742372137263 226.8895880588284L553.0548035413776 222.8726128631015L556.2742372137263 223.27504207214497L559.4863539913667 222.0677544450141L570.7397380551693 223.27504207214497L577.9761469232453 225.68230043169706L581.1955805955959 224.4823296992763L581.9931221189727 226.48715884978492L585.2125557913223 226.48715884978492L588.4246725689618 228.90173410404668L589.2295309870497 228.49930489500275L591.6441062413114 231.7114216726427L605.3047486646674 236.93568449550094L605.3047486646674 239.35025974976315L615.7605912050931 242.16726421306885L622.1921416550822 246.1842394087953L629.4212336284481 247.7939562449701L635.8527840784382 253.01821906782834Z  M30.548035413770776 537.177142020927L32.96261066803345 537.177142020927L36.17472744567203 539.5917172751888L38.589302699934706 539.5917172751888L40.19901953610952 537.177142020927L46.623253091387596 536.3722836028392L49.84268676373813 537.5795712299705L52.24994512329067 539.5917172751888L56.27423721372634 538.3844296480579L57.0790956318142 536.3722836028392L60.29121240945369 534.367454452331L65.91790444135495 535.5747420794619L73.15431330943102 534.7698836613745L79.58586375942104 535.9771712885054L86.82227262749711 535.5747420794619L90.03438940513752 535.9771712885054L90.83924782322447 537.5795712299705L94.05136460086305 537.177142020927L96.46593985512573 538.3844296480579L100.48291505085308 538.3844296480579L110.13389917319182 542.006292529451L110.93875759127877 544.4135508890035L112.54115753274345 544.815980098047L112.54115753274345 547.2305553523092L115.76059120509308 548.8329552937735L118.16784956464471 547.2305553523092L120.58242481890738 547.6329845613527L121.38728323699524 546.4256969342214L120.58242481890738 545.2184093070905L123.79454159654688 545.2184093070905L125.40425843272078 546.0232677251779L133.44552571888562 544.4135508890035L135.85278407843816 545.620838516134L140.67461769225156 545.620838516134L142.28433452842637 547.2305553523092L157.56201068266728 551.6499597570792L165.59596107412017 555.6669349528065L168.8153947464698 554.0572181166317L171.22265310602143 555.6669349528065L172.83236994219715 558.0815102070687L185.69547084217447 560.4887685666208L186.50032926026233 562.5009146118396L183.28089558791362 567.7251774346969L197.75371332406485 570.9446111070465L205.78766371551956 575.3640155118169L225.88717348357386 575.7664447208613L227.49689031974867 572.9494402575547L229.90414867930122 572.9494402575547L229.90414867930122 577.7712738713694L237.94541596546424 591.0368039803916L237.94541596546424 595.0610960708282L241.9623911611916 598.2732128484672L248.3939416111807 597.4683544303803L250.80851686544338 597.8707836394237L255.6303504792577 596.6634960122929L256.43520889734464 597.0659252213368L251.61337528353033 600.6877881027294L247.58908319309285 600.6877881027294L241.9623911611916 607.1120216580089L244.37696641545335 610.3314553303585L244.37696641545335 615.5557181532163L245.98668325162907 623.9994146484237L245.1818248335403 624.4018438574672L248.3939416111807 626.8091022170192L246.7842247750059 630.0285358893689L249.19880002926766 631.630935830834L249.19880002926766 635.2527987122266L252.41091680690715 638.4649154898666L248.3939416111807 641.6843491622162L243.5721079973664 642.884319894637L240.3599912197269 642.0867783712597L237.94541596546424 646.1037535669866L238.7502743835521 648.5110119265391L233.9284407697378 650.523157971757L233.9284407697378 654.5401331674843L241.9623911611916 658.5644252579209L241.9623911611916 662.9838296626917L238.7502743835521 665.7935172312873L241.9623911611916 669.0129509036369L243.5721079973664 672.2250676812769L242.76724957927854 673.8347845174512L240.3599912197269 675.8469305626695L240.3599912197269 678.254188922222L237.14055754737728 681.0711933855277L237.14055754737728 683.8808809541233L233.12358235164993 686.2954562083855L233.9284407697378 688.7100314626477L233.12358235164993 689.507572986025L232.31872393356298 695.5366942269707L229.90414867930122 695.9391234360141L222.67505670593437 693.531865076462L220.2604814516726 694.7391527035929L216.24350625594525 693.9342942855055L214.63378941977135 695.5366942269707L212.21921416550867 694.7391527035929L208.20223896978132 696.7439818541015L204.99012219214183 694.7391527035929L204.99012219214183 691.5197190312438L204.18526377405487 691.1172898221998L206.5925221336065 689.1124606716912L206.5925221336065 687.9051730445603L204.99012219214183 686.2954562083855L200.1609716836183 685.0881685812546L196.9488549059779 686.697885417429L192.1270212921636 686.697885417429L191.32216287407664 688.7100314626477L187.30518767834928 689.507572986025L183.28089558791362 685.893026999342L182.47603716982485 683.083339430746L179.26392039218626 683.4784517450798L177.65420355601145 680.2663349674403L173.6372283602841 680.6687641764838L169.62025316455765 677.8517597131781L159.16441062413105 673.4323553084073L151.13046023267725 666.1959464403308L147.91102656032854 666.1959464403308L143.08919294651423 668.610521694593L131.8358088827108 663.7886880807787L127.81883368698345 663.7886880807787L122.1921416550822 668.2080924855495L117.36299114655776 666.5983756493747L93.25382307748623 666.1959464403308L90.83924782322447 664.99597570791L85.2125557913223 658.9668544669644L80.390722177508 657.35713763079L77.97614692324532 654.9425623765278L73.15431330943102 655.3449915855713L69.13733811370548 652.9377332260192L61.09607082754064 644.8964659398557L49.84268676373813 642.0867783712597L49.03782834565027 637.6600570717792L44.21599473183596 636.0576571303145L42.60627789566206 633.6430818760523L42.60627789566206 630.0285358893689L44.21599473183596 626.0042437989323L41.80141947757329 623.1945562303363L36.17472744567203 621.9872686032049L36.17472744567203 620.7799809760741L38.589302699934706 617.5678641984346L34.57232750420735 615.9581473622598L32.15775224994559 613.1411428989541L28.140777054219143 613.1411428989541L25.72620179995647 609.9290261213146L20.904368186143074 606.3144801346311L20.099509768054304 603.8999048803689L16.88739299041572 599.4805004755985L18.4897929318804 598.6756420575111L18.4897929318804 596.6634960122929L20.904368186143074 594.2562376527408L24.92134338186861 594.2562376527408L25.72620179995647 592.244091607522L28.140777054219143 592.244091607522L29.743176995682916 591.0368039803916L28.938318577595965 589.8295163532603L30.548035413770776 588.6295456208386L31.352893831857727 584.2028243213585L30.548035413770776 581.7955659618065L33.7674690861204 578.5761322894568L28.938318577595965 574.5591570937299L30.548035413770776 571.3470403160904L29.743176995682916 568.5300358527847L29.743176995682916 564.1106314480139L27.335918636131282 561.2936269847082L28.140777054219143 557.6790809980253L28.140777054219143 556.4717933708939L23.311626545694708 554.8620765347191L24.11648496378166 552.8572473842105L23.311626545694708 551.6499597570792L24.11648496378166 549.6378137118613L29.743176995682916 548.43052608473L30.548035413770776 545.2184093070905L33.7674690861204 544.0111216799592L32.15775224994559 540.3965756932762L29.743176995682916 539.5917172751888L30.548035413770776 537.177142020927Z" stroke="#FFFFFF" stroke-opacity="0.75" stroke-width="1" stroke-linecap="round" stroke-linejoin="round" fill="#D3D3D3"/>
		<path name="玉树藏族自治州" d="M123.79454159654688 445.13792346528226L142.28433452842637 451.9719031243144L150.3256018145903 451.16704470622744L154.34257701031675 453.5816199604892L158.3595522060441 452.7767615424018L163.18870271456854 454.3791614838665L164.79110265603322 453.5816199604892L171.22265310602143 456.3913075290852L181.6711787517379 455.58644911099736L187.30518767834928 456.3913075290852L189.71244603790183 459.2083119923909L207.39738055169437 464.0301456062052L213.02407258359563 463.2252871881178L214.63378941977135 464.83500402429263L220.2604814516726 463.2252871881178L221.8701982878465 464.43257481524915L232.31872393356298 466.0349747567134L240.3599912197269 465.6398624423796L252.41091680690715 466.83983317480124L260.4521840930711 469.25440842906346L266.8837345430602 468.0471208019321L269.29830979732196 471.2665544742813L276.5274017706897 472.064095997659L278.9419770249506 471.2665544742813L280.5516938611254 472.86895441574643L295.0171947025683 473.2713836247899L300.64388673447047 474.47867125192124L303.8633204068201 472.86895441574643L307.88029560254745 474.47867125192124L315.1167044706226 475.28352967000865L318.328821248263 474.47867125192124L319.13367966634996 476.0883880880956L323.95551328016427 476.89324650618346L324.76037169825213 478.0932172386042L331.19192214824034 478.49564644764814L340.83558937586895 483.3247969561721L344.0550230482195 483.3247969561721L347.26713982585807 481.31265091095383L351.29143191629555 482.51993853808517L354.50354869393414 481.31265091095383L355.308407112022 483.3247969561721L356.11326553010986 483.7199092705059L358.5205238896615 483.3247969561721L366.5617911758254 485.32962610668073L367.36664959391237 484.5247676885938L369.7739079534658 485.73205531572466L372.1884832077267 486.13448452476814L372.99334162581454 484.92719689763726L374.60305846198844 486.13448452476814L378.6200336577158 486.13448452476814L379.42489207580275 492.1636057657138L380.2297504938906 492.56603497475726L381.03460891197847 494.9806102290195L386.6613009438797 497.3878685885711L392.2879929757819 498.19272700665897L395.5001097534205 500.6073022609212L397.1098265895962 500.6073022609212L397.91468500768315 499.8024438428333L402.73651862149745 501.80727299334194L403.5413770395844 498.59515621570245L411.5753274310382 501.00973146996466L417.20201946293946 501.00973146996466L426.8530035852782 505.0267066656911L439.71610448525735 513.0606570571458L444.53793809907165 513.0606570571458L449.35977171288596 515.8776615204515L451.7743469671477 515.4752323114071L453.3767469086115 517.0849491475824L452.57188849052454 518.2922367747128L459.00343894051457 522.7116411794836L463.8252725543289 524.3213580156585L471.06168142240494 528.3383332113854L471.8665398404919 527.1310455842545L474.28111509475366 529.5456208385167L478.298090290481 528.3383332113854L481.5102070681205 523.1140703885276L482.31506548620837 520.6994951342654L480.7126655447437 515.8776615204515L483.92478232238227 518.2922367747128L491.9660496085462 518.2922367747128L492.77090802663406 515.0728031023637L491.16119119045925 511.0558279066372L494.37330796809874 510.6533986975933L495.98302480427355 508.641252652375L495.98302480427355 506.6364235018664L507.236408868077 506.6364235018664L514.472817736153 505.0267066656911L516.8800760957056 509.84854027950587L528.1407770542182 514.2679446842762L534.5650106094972 506.23399429282244L538.5893026999347 505.4291358747355L543.411136313749 500.2048730518768L545.8257115680108 500.2048730518768L545.8257115680108 498.9975854247459L550.6475451818251 493.77332260188814L551.452403599912 495.3757225433533L553.0548035413776 494.57818101997555L555.4693787956394 494.9806102290195L558.6814955732789 497.7902977976155L559.4863539913667 501.40484378429846L564.308187605181 504.62427745664763L571.5445964732571 505.4291358747355L574.7640301456067 507.0315358161997L577.1712885051584 505.4291358747355L579.585863759421 508.23882344333106L581.1955805955959 506.23399429282244L582.7979805370596 509.44611107046194L580.390722177508 515.4752323114071L577.9761469232453 519.089778298091L570.7397380551693 525.1188995390362L570.7397380551693 529.1431916294732L568.3324796956167 531.5504499890253L566.7227628594428 535.1723128704184L564.308187605181 537.177142020927L559.4863539913667 536.7747128118831L557.0790956318142 539.1892880661453L557.0790956318142 542.4014048437848L553.8596619594646 545.620838516134L554.6645203775524 548.0354137703962L557.0790956318142 549.6378137118613L561.9009292456285 550.0402429209048L563.5106460818033 556.06936416185L568.3324796956167 557.2766517889809L572.3494548913441 559.6912270432431L571.5445964732571 563.3057730299265L568.3324796956167 566.517889807566L568.3324796956167 568.1276066437408L573.9591717275198 567.3227482256534L576.3664300870714 567.7251774346969L580.390722177508 572.9494402575547L579.585863759421 575.3640155118169L583.6028389551475 577.3761615570356L587.6198141508748 582.6004243798934L590.0343894051366 583.0028535889373L594.051364600863 589.4270871442163L597.2707982732127 591.4392331894351L602.092631887027 588.6295456208386L604.5072071412887 594.2562376527408L607.7193239189291 593.4513792346529L606.1096070827543 595.4562083851615L608.5241823370161 599.8829296846425L606.9144655008422 601.4853296261067L606.1096070827543 608.7217384941832L602.8974903051148 608.3193092851398L602.092631887027 609.1241677032272L599.6780566327661 608.3193092851398L594.8562230189518 610.3314553303585L592.4489646593984 609.9290261213146L589.2295309870497 611.5387429574889L584.4076973732354 611.5387429574889L584.4076973732354 613.9460013170415L582.7979805370596 615.9581473622598L585.2125557913223 617.5678641984346L586.8222726274971 621.182410185118L587.6198141508748 626.4066730079758L585.2125557913223 630.8260774127466L589.2295309870497 634.0455110850958L593.2465061827761 634.0455110850958L593.2465061827761 638.4649154898666L595.6610814370388 642.4818906855935L598.0756566913005 642.0867783712597L599.6780566327661 643.2867491036804L602.092631887027 642.884319894637L608.5241823370161 645.7013243579427L610.1338991731918 644.8964659398557L612.5411575327435 645.7013243579427L607.7193239189291 649.71829955367L605.3047486646674 650.523157971757L605.3047486646674 651.3280163898448L601.28777346894 652.1328748079318L599.6780566327661 657.35713763079L595.6610814370388 661.3741128265165L594.051364600863 661.3741128265165L593.2465061827761 663.3862588717352L591.6441062413114 664.1911172898222L591.6441062413114 668.2080924855495L594.051364600863 670.2202385307683L594.8562230189518 673.8347845174512L592.4489646593984 675.444501353626L593.2465061827761 677.4493305041347L582.7979805370596 679.8639057583969L581.1955805955959 684.2833101631672L584.4076973732354 686.2954562083855L583.6028389551475 691.1172898221998L586.8222726274971 698.3536986902764L595.6610814370388 704.3828199312215L598.8805151093875 704.785249140265L601.28777346894 707.1925074998176L606.9144655008422 710.4119411721667L602.092631887027 711.6192287992981L594.8562230189518 710.4119411721667L592.4489646593984 710.8143703812102L589.2295309870497 709.2046535450359L588.4246725689618 706.3949659764403L586.0174142094102 706.3949659764403L584.4076973732354 708.3997951269489L581.9931221189727 709.2046535450359L579.585863759421 708.3997951269489L578.7810053413341 710.8143703812102L582.7979805370596 712.8191995317188L579.585863759421 716.8434916221563L579.585863759421 717.6483500402433L582.7979805370596 718.0507792492867L584.4076973732354 721.6653252359706L583.6028389551475 728.9017341040467L580.390722177508 729.3041633130906L579.585863759421 727.2920172678719L577.1712885051584 728.9017341040467L574.7640301456067 736.5332552864566L575.5615716689845 738.9478305407188L578.7810053413341 740.1551181678501L577.1712885051584 742.1599473183583L577.9761469232453 744.172093363577L574.7640301456067 744.172093363577L571.5445964732571 741.7648350040245L570.7397380551693 743.3672349454896L572.3494548913441 744.9769517816644L572.3494548913441 746.1842394087953L569.9348796370823 745.3793809907079L568.3324796956167 747.7939562449701L565.113046023268 746.5866686178388L557.8839540499021 746.1842394087953L555.4693787956394 744.5745225726205L552.2499451232898 744.9769517816644L550.6475451818251 746.5866686178388L553.0548035413776 748.5914977683474L552.2499451232898 751.4085022316531L547.4281115094764 748.9939269773913L545.0208531499238 751.810931440697L544.215994731836 749.7987853954787L540.9965610594863 748.1890685593039L535.3698690275851 747.7939562449701L536.979585863759 750.2012146045222L536.979585863759 753.8230774859153L541.8014194775733 757.0351942635548L540.1990195361086 759.0473403087731L537.7844442818478 760.2473110411943L538.5893026999347 762.6618862954565L544.215994731836 769.898295163533L540.9965610594863 773.9152703592599L536.174727445672 773.1104119411725L532.1577522499456 769.4958659544891L530.5480354137708 771.1055827906644L528.1407770542182 769.0934367454456L524.1164849637817 770.7031535816204L515.27767615424 765.0764615497187L512.0582424818913 761.0521694592817L509.65098412233874 760.2473110411943L508.8461257042509 753.8230774859153L497.59274164044837 753.0182190678279L496.7878832223605 755.4254774273804L494.37330796809874 755.4254774273804L495.1781663861866 759.0473403087731L491.9660496085462 762.6618862954565L491.9660496085462 765.0764615497187L495.98302480427355 767.0812907002269L497.59274164044837 769.898295163533L497.59274164044837 773.1104119411725L495.98302480427355 775.9274164044782L495.98302480427355 778.7371039730742L491.9660496085462 778.7371039730742L491.16119119045925 777.5298163459433L490.3563327723723 771.1055827906644L481.5102070681205 768.2885783273582L479.9078071266549 766.6788614911834L479.9078071266549 761.8570278773695L474.28111509475366 761.8570278773695L469.45928148094026 768.6910075364021L470.2568230043171 769.898295163533L469.45928148094026 772.707982732129L464.6301309724158 765.4788907587622L462.2228726128633 764.6740323406752L459.8082973586015 764.6740323406752L454.9864637447872 763.0643155045L446.9451964586233 766.2764322821399L442.92822126289593 764.2716031316313L437.3015292309947 753.8230774859153L434.0894124533552 752.2133606497405L434.8869539767329 747.3915270359262L439.71610448525735 746.5866686178388L437.3015292309947 744.5745225726205L439.71610448525735 741.7648350040245L437.3015292309947 738.1429721226318L438.10638764908254 736.1381429721232L434.8869539767329 733.723567717861L433.28455403526823 734.1259969269045L433.28455403526823 736.9356844955009L430.0651203629186 736.9356844955009L427.65786200336515 734.9308553449923L427.65786200336515 732.5162800907301L426.04814516719125 731.7114216726422L423.6335699129295 724.0799004902319L415.5996195214748 727.6944464769158L413.9899026853009 728.0968756859593L413.1850442672139 726.8895880588284L413.9899026853009 724.0799004902319L423.6335699129295 722.0677544450141L423.6335699129295 720.4580376088393L421.22631155337695 718.4532084583307L416.40447793956264 719.2507499817084L415.5996195214748 718.0507792492867L413.1850442672139 719.2507499817084L409.9729274895735 719.2507499817084L405.94863539913695 716.4410624131124L405.1437769810491 717.6483500402433L401.9316602034105 717.2459208311998L401.12680178532355 715.233774785981L398.7195434257701 715.636203995025L394.6952513353335 713.2216287407628L393.8903929172466 712.0216580083415L392.2879929757819 711.2167995902546L393.8903929172466 710.0095119631233L390.67827613960617 708.8022243359924L389.06855930343227 705.9925367673959L386.6613009438797 705.5901075583524L381.03460891197847 700.7682739445386L380.2297504938906 701.1633862588724L379.42489207580275 703.1755323040902L377.010316821541 703.9803907221781L375.4079168800772 705.9925367673959L369.7739079534658 705.187678349309L369.7739079534658 707.9973659179045L368.17150801200023 708.3997951269489L364.9520743396497 705.5901075583524L362.54481598009806 711.6192287992981L361.7399575620111 710.4119411721667L358.5205238896615 711.2167995902546L357.72298236628376 712.8191995317188L354.50354869393414 712.0216580083415L350.4865734982077 712.4240872173855L348.8768566620329 716.4410624131124L347.26713982585807 716.4410624131124L346.4622814077711 718.0507792492867L340.83558937586895 715.233774785981L336.8186141801425 716.8434916221563L332.80163898441515 714.0264871588502L329.58220531206643 715.636203995025L326.37008853442603 715.233774785981L323.1506548620764 709.6070827540798L315.92156288871047 707.1925074998176L310.2948708568083 707.9973659179045L308.6851540206344 711.2167995902546L300.64388673447047 714.8313455769376L299.8390283163826 712.8191995317188L298.2366283749179 713.2216287407628L296.6269115387431 709.2046535450359L293.4074778663944 708.8022243359924L291.00021950684095 710.8143703812102L287.78078583449224 707.594936708861L286.17838589302664 707.594936708861L284.56866905685274 704.3828199312215L282.154093802591 703.5779615131346L280.5516938611254 701.1633862588724L278.1371186068636 701.5658154679159L275.72254335260095 700.7682739445386L274.92500182922413 702.3706738860033L271.7055681568745 702.3706738860033L267.68859296114806 703.5779615131346L263.6716177654207 695.5366942269707L260.4521840930711 697.146411063145L254.02063364308196 697.548840272189L253.215775224995 698.3536986902764L250.0036584473546 696.3415526450581L246.7842247750059 696.7439818541015L245.1818248335403 695.1342650179267L240.3599912197269 693.531865076462L237.14055754737728 696.7439818541015L232.31872393356298 695.5366942269707L233.12358235164993 689.507572986025L233.9284407697378 688.7100314626477L233.12358235164993 686.2954562083855L237.14055754737728 683.8808809541233L237.14055754737728 681.0711933855277L240.3599912197269 678.254188922222L240.3599912197269 675.8469305626695L242.76724957927854 673.8347845174512L243.5721079973664 672.2250676812769L241.9623911611916 669.0129509036369L238.7502743835521 665.7935172312873L241.9623911611916 662.9838296626917L241.9623911611916 658.5644252579209L233.9284407697378 654.5401331674843L233.9284407697378 650.523157971757L238.7502743835521 648.5110119265391L237.94541596546424 646.1037535669866L240.3599912197269 642.0867783712597L243.5721079973664 642.884319894637L248.3939416111807 641.6843491622162L252.41091680690715 638.4649154898666L249.19880002926766 635.2527987122266L249.19880002926766 631.630935830834L246.7842247750059 630.0285358893689L248.3939416111807 626.8091022170192L245.1818248335403 624.4018438574672L245.98668325162907 623.9994146484237L244.37696641545335 615.5557181532163L244.37696641545335 610.3314553303585L241.9623911611916 607.1120216580089L247.58908319309285 600.6877881027294L251.61337528353033 600.6877881027294L256.43520889734464 597.0659252213368L255.6303504792577 596.6634960122929L250.80851686544338 597.8707836394237L248.3939416111807 597.4683544303803L241.9623911611916 598.2732128484672L237.94541596546424 595.0610960708282L237.94541596546424 591.0368039803916L229.90414867930122 577.7712738713694L229.90414867930122 572.9494402575547L227.49689031974867 572.9494402575547L225.88717348357386 575.7664447208613L205.78766371551956 575.3640155118169L197.75371332406485 570.9446111070465L183.28089558791362 567.7251774346969L186.50032926026233 562.5009146118396L185.69547084217447 560.4887685666208L172.83236994219715 558.0815102070687L171.22265310602143 555.6669349528065L168.8153947464698 554.0572181166317L165.59596107412017 555.6669349528065L157.56201068266728 551.6499597570792L142.28433452842637 547.2305553523092L140.67461769225156 545.620838516134L135.85278407843816 545.620838516134L133.44552571888562 544.4135508890035L125.40425843272078 546.0232677251779L123.79454159654688 545.2184093070905L120.58242481890738 545.2184093070905L121.38728323699524 546.4256969342214L120.58242481890738 547.6329845613527L118.16784956464471 547.2305553523092L115.76059120509308 548.8329552937735L112.54115753274345 547.2305553523092L112.54115753274345 544.815980098047L110.93875759127877 544.4135508890035L110.13389917319182 542.006292529451L100.48291505085308 538.3844296480579L96.46593985512573 538.3844296480579L94.05136460086305 537.177142020927L90.83924782322447 537.5795712299705L90.03438940513752 535.9771712885054L86.82227262749711 535.5747420794619L79.58586375942104 535.9771712885054L73.15431330943102 534.7698836613745L65.91790444135495 535.5747420794619L60.29121240945369 534.367454452331L57.0790956318142 536.3722836028392L56.27423721372634 538.3844296480579L52.24994512329067 539.5917172751888L49.84268676373813 537.5795712299705L46.623253091387596 536.3722836028392L40.19901953610952 537.177142020927L38.589302699934706 539.5917172751888L36.17472744567203 539.5917172751888L32.96261066803345 537.177142020927L30.548035413770776 537.177142020927L27.335918636131282 535.9771712885054L24.92134338186861 537.177142020927L22.514085022316976 535.9771712885054L17.68493451379254 538.7868588571014L12.863100899978235 537.982000439014L11.253384063804333 534.7698836613745L13.667959318066096 522.7116411794836L8.04126728616393 520.2970659252214L3.2194336723496235 513.8655154752328L4.024292090436575 512.6655447428116L9.650984122338741 509.84854027950587L6.431550449990027 508.641252652375L8.04126728616393 506.23399429282244L7.236408868076978 503.0145606204733L12.863100899978235 502.2097022023854L18.4897929318804 498.9975854247459L20.904368186143074 499.8024438428333L23.311626545694708 495.77815175239675L25.72620179995647 494.9806102290195L24.92134338186861 492.96846418380073L22.514085022316976 492.96846418380073L21.709226604230025 490.55388892953897L22.514085022316976 487.74420136094295L24.92134338186861 487.74420136094295L26.53106021804433 486.5369137338116L23.311626545694708 482.11750932904124L24.92134338186861 481.7150801199973L24.92134338186861 474.47867125192124L27.335918636131282 474.07624204287777L26.53106021804433 471.66166678861555L28.938318577595965 468.0471208019321L27.335918636131282 467.2422623838447L18.4897929318804 468.0471208019321L10.455842540425692 467.2422623838447L9.650984122338741 466.43740396575777L10.455842540425692 465.6398624423796L1.6097168361757213 463.2252871881178L0.8048584180878606 462.01799956098694L1.6097168361757213 460.81071193385606L1.6097168361757213 456.7937367381287L0 455.98887832004175L0.8048584180878606 453.98404916953314L5.6266920319021665 455.1840199019539L8.04126728616393 455.1840199019539L15.277676154239998 451.5694739152709L22.514085022316976 450.3621862881396L25.72620179995647 451.5694739152709L36.979585863759894 451.16704470622744L39.39416111802166 451.9719031243144L39.39416111802166 447.1500695105001L42.60627789566206 444.73549425623787L45.02085314992382 441.5233774785984L45.825711568010774 438.3039438062492L43.41113631374901 436.6942269700744L46.623253091387596 436.6942269700744L47.428111509476366 438.3039438062492L53.859661959464574 439.5112314333801L53.05480354137762 441.9258066876423L61.09607082754064 445.13792346528226L66.72276285944281 445.13792346528226L68.33247969561762 446.3452110924127L77.17128850515837 447.1500695105001L81.99312211897268 445.9427818833692L86.01741420941016 447.55249871954356L91.64410624131142 447.1500695105001L99.67805663276613 450.3621862881396L105.30474866466739 455.58644911099736L111.7362991146565 454.3791614838665L114.95573278700613 449.1548986610087L122.1921416550822 450.3621862881396L124.59940001463383 449.9597570790961L125.40425843272078 448.7524694519652L123.79454159654688 445.13792346528226Z" stroke="#FFFFFF" stroke-opacity="0.75" stroke-width="1" stroke-linecap="round" stroke-linejoin="round" fill="#D3D3D3"/>
		<path name="果洛藏族自治州" d="M582.7979805370596 509.44611107046194L588.4246725689618 508.641252652375L598.8805151093875 511.86068632472416L603.7023487232018 512.2631155337676L603.7023487232018 505.4291358747355L605.3047486646674 503.41698982951675L606.1096070827543 503.41698982951675L608.5241823370161 506.23399429282244L614.1508743689174 506.23399429282244L616.56544962318 508.23882344333106L626.2091168508096 509.44611107046194L627.8188336869835 511.0558279066372L634.2503841369726 510.6533986975933L637.4625009146121 509.04368186141846L638.2673593326999 504.22184824760416L643.8940513646012 504.22184824760416L645.503768200776 503.41698982951675L647.9110265603285 499.40001463378985L647.9110265603285 496.58301017048416L651.1304602326773 494.1757518109316L655.1474354284046 494.9806102290195L653.5377185922298 497.7902977976155L654.3425770103167 498.19272700665897L664.7911026560332 497.7902977976155L669.6129362698475 499.40001463378985L686.5003292602623 494.1757518109316L688.9075876198149 488.95148898807383L692.1270212921636 489.74903051145156L692.9318797102505 493.37089339284466L694.5342796517161 493.37089339284466L702.5755469378792 492.96846418380073L703.380405355967 490.15145972049504L706.5925221336065 490.15145972049504L709.0070973878683 487.3417721518995L722.6677398112242 487.74420136094295L722.6677398112242 489.74903051145156L719.4556230335857 490.55388892953897L723.4725982293112 493.77332260188814L720.2604814516726 498.59515621570245L721.8701982878465 502.2097022023854L718.6507646154969 503.8194190385607L713.8289310016826 509.44611107046194L714.6337894197704 511.4582571156807L721.0653398697596 513.8655154752328L725.8871734835739 519.894636716178L728.3017487378356 519.894636716178L729.9041486793012 525.1188995390362L737.1405575473773 532.7577376161562L740.3526743250159 533.9650252432875L742.7672495792785 533.5625960342431L744.3769664154534 534.7698836613745L749.1988000292677 534.367454452331L750.0036584473546 536.3722836028392L754.020633643082 537.982000439014L755.6303504792577 539.9941464842327L759.6473256749832 540.7990049023197L761.2570425111589 542.4014048437848L766.0788761249723 541.6038633204071L773.3152849930493 544.4135508890035L780.5516938611254 542.8038340528283L782.154093802591 539.1892880661453L784.5686690568527 538.3844296480579L798.2366283749179 538.3844296480579L798.2366283749179 541.6038633204071L799.8390283163826 542.4014048437848L811.092412380186 544.815980098047L815.9215628887105 549.6378137118613L818.328821248263 550.0402429209048L819.9385380844369 552.8572473842105L823.9555132801643 552.0523889661231L826.370088534426 554.0572181166317L831.9967805663282 554.4596473256752L838.4283310163164 550.8451013389922L839.2331894344034 551.6499597570792L840.0380478524921 555.264505743763L842.4453062120438 558.0815102070687L842.4453062120438 561.6960561937517L846.4622814077711 568.1276066437408L844.8598814663064 575.3640155118169L840.835589375869 575.7664447208613L838.4283310163164 578.9785614985008L835.2088973439677 580.1858491256312L833.6064974025021 584.2028243213585L834.4040389258807 585.4101119484894L831.1919221482403 589.8295163532603L838.4283310163164 597.0659252213368L839.2331894344034 600.6877881027294L843.2501646301307 603.8999048803689L843.2501646301307 605.5096217165437L845.6647398843934 607.1120216580089L848.071998243945 610.733884539402L849.6817150801207 610.733884539402L852.0889734396724 613.1411428989541L859.3253823077484 614.7508597351289L859.3253823077484 615.9581473622598L862.5448159800981 618.7678349308558L861.7399575620111 621.9872686032049L860.1302407258354 623.9994146484237L860.9350991439242 626.4066730079758L860.9350991439242 628.4188190531945L865.7569327577385 626.4066730079758L868.9763664300872 628.0163898441506L877.010316821541 629.2236774712815L879.4248920758027 628.0163898441506L880.2297504938906 626.4066730079758L885.0515841077049 625.1993853808449L888.2637008853444 625.6018145898888L889.0685593034314 627.6139606351067L891.4831345576931 627.6139606351067L891.4831345576931 630.0285358893689L893.0855344991587 630.8260774127466L893.8903929172466 638.8673446989101L894.6952513353335 640.4770615350849L895.5001097534205 639.6722031169975L901.9316602034105 640.074632326041L903.5413770395844 637.2576278627353L905.1437769810491 637.2576278627353L905.1437769810491 643.2867491036804L899.5170849491478 644.8964659398557L897.1098265895962 648.5110119265391L896.3049681715074 653.3401624350627L898.7195434257701 655.3449915855713L902.7365186214975 655.3449915855713L903.5413770395844 658.161996048877L902.7365186214975 660.5692544084295L898.7195434257701 664.99597570791L897.1098265895962 669.0129509036369L894.6952513353335 668.610521694593L885.0515841077049 660.971683617473L880.2297504938906 660.5692544084295L877.8151752396288 661.7765420355609L877.8151752396288 666.1959464403308L870.5787663715528 658.161996048877L866.5617911758254 656.9547084217465L865.7569327577385 658.161996048877L864.1472159215627 656.9547084217465L859.3253823077484 662.9838296626917L862.5448159800981 669.4153801126809L860.1302407258354 671.0250969488552L860.9350991439242 674.2372137264947L862.5448159800981 674.6396429355382L862.5448159800981 677.4493305041347L860.1302407258354 678.6566181312655L858.5205238896615 684.2833101631672L864.1472159215627 686.697885417429L867.3666495939124 690.3124314041129L866.5617911758254 697.548840272189L864.9520743396497 699.9634155264507L859.3253823077484 703.1755323040902L857.7229823662838 701.1633862588724L855.308407112022 700.7682739445386L849.6817150801207 704.785249140265L844.8598814663064 706.7973951854838L841.6404477939568 704.785249140265L832.8016389844151 702.7731030950467L831.1919221482403 703.1755323040902L826.370088534426 701.1633862588724L828.7773468939777 703.9803907221781L828.7773468939777 705.5901075583524L824.7603716982521 705.187678349309L824.7603716982521 712.0216580083415L815.1167044706226 708.8022243359924L811.897270798273 705.187678349309L811.092412380186 701.9682446769593L809.4900124387214 699.1585571083638L807.8802956025456 698.3536986902764L804.668178824907 694.3367234945495L799.8390283163826 697.146411063145L794.2123362844814 695.1342650179267L792.6099363430167 697.146411063145L791.000219506841 705.187678349309L788.5856442525792 703.5779615131346L782.9589522206779 702.7731030950467L782.154093802591 700.3658447354946L785.3735274749397 696.7439818541015L782.9589522206779 686.2954562083855L780.5516938611254 684.6857393722107L778.9419770249506 681.4736225945712L772.5104265749624 680.6687641764838L770.9007097387866 677.0542181898004L767.6885929611481 674.2372137264947L766.8837345430602 674.6396429355382L764.4691592887975 680.6687641764838L761.2570425111589 680.6687641764838L759.6473256749832 679.8639057583969L758.0376088388093 680.2663349674403L758.0376088388093 681.8760518036147L759.6473256749832 684.6857393722107L757.2400673154316 693.1294358674186L754.8254920611689 696.7439818541015L753.215775224995 693.531865076462L749.1988000292677 692.7270066583742L748.3939416111807 691.5197190312438L745.9866832516282 692.3245774493307L741.9623911611916 687.9051730445603L734.7259822931146 686.697885417429L730.7090070973882 683.8808809541233L721.8701982878465 685.0881685812546L720.2604814516726 680.6687641764838L718.6507646154969 679.8639057583969L719.4556230335857 677.4493305041347L717.8459061974099 677.4493305041347L716.2435062559452 673.8347845174512L711.4143557474208 673.0299260993638L709.0070973878683 670.6226677398117L704.1852637740549 669.4153801126809L701.7706885197922 670.2202385307683L699.3561132655304 667.805663276506L695.3391380698031 667.4032340674621L691.3221628740766 664.99597570791L687.2978707836392 660.1668251993856L687.2978707836392 656.9547084217465L684.0857540060006 655.7474207946152L684.8906124240875 654.9425623765278L685.6954708421745 649.71829955367L682.4760371698248 646.1037535669866L683.2808955879127 641.6843491622162L681.6711787517379 639.6722031169975L676.0444867198357 636.4527694446483L676.8493451379236 633.6430818760523L674.442086778372 631.2285066217901L674.442086778372 629.6261066803254L676.8493451379236 628.821248262238L673.6372283602841 626.4066730079758L672.8323699421971 624.4018438574672L667.2056779102959 620.7799809760741L666.4008194922071 617.5678641984346L662.3838442964816 614.3484305260849L660.7741274603059 614.7508597351289L658.3595522060441 613.1411428989541L659.9692690422189 610.3314553303585L658.3595522060441 607.5144508670523L660.7741274603059 604.3023340894133L659.9692690422189 601.4853296261067L657.5620106826673 599.0780712665546L657.5620106826673 597.4683544303803L645.503768200776 598.2732128484672L638.2673593326999 595.8586375942054L632.6406673007978 595.8586375942054L627.8188336869835 591.4392331894351L622.1921416550822 589.031974829883L614.9557327870052 589.8295163532603L607.7193239189291 593.4513792346529L604.5072071412887 594.2562376527408L602.092631887027 588.6295456208386L597.2707982732127 591.4392331894351L594.051364600863 589.4270871442163L590.0343894051366 583.0028535889373L587.6198141508748 582.6004243798934L583.6028389551475 577.3761615570356L579.585863759421 575.3640155118169L580.390722177508 572.9494402575547L576.3664300870714 567.7251774346969L573.9591717275198 567.3227482256534L568.3324796956167 568.1276066437408L568.3324796956167 566.517889807566L571.5445964732571 563.3057730299265L572.3494548913441 559.6912270432431L568.3324796956167 557.2766517889809L563.5106460818033 556.06936416185L561.9009292456285 550.0402429209048L557.0790956318142 549.6378137118613L554.6645203775524 548.0354137703962L553.8596619594646 545.620838516134L557.0790956318142 542.4014048437848L557.0790956318142 539.1892880661453L559.4863539913667 536.7747128118831L564.308187605181 537.177142020927L566.7227628594428 535.1723128704184L568.3324796956167 531.5504499890253L570.7397380551693 529.1431916294732L570.7397380551693 525.1188995390362L577.9761469232453 519.089778298091L580.390722177508 515.4752323114071L582.7979805370596 509.44611107046194Z" stroke="#FFFFFF" stroke-opacity="0.75" stroke-width="1" stroke-linecap="round" stroke-linejoin="round" fill="#D3D3D3"/>
		<path name="海南藏族自治州" d="M725.8871734835739 402.1292163605772L726.6920319016608 400.12438721006856L724.2774566474 397.30738274676287L721.8701982878465 388.0661447281782L719.4556230335857 384.8467110558281L719.4556230335857 377.61030218775204L727.4968903197487 374.800614619156L734.7259822931146 377.61030218775204L735.5308407112025 372.38603936489426L739.555132801639 373.19089778298166L753.215775224995 380.82973586010166L758.8424672568963 382.439452696276L762.8667593473338 386.05399868295945L764.4691592887975 384.8467110558281L764.4691592887975 382.439452696276L764.4691592887975 382.03702348723255L763.6716177654207 382.8418819053195L762.8667593473338 380.42730665105773L757.2400673154316 376.00790224628736L757.2400673154316 374.3981854101121L758.8424672568963 369.5763517962978L774.1201434111363 366.3569181239486L782.154093802591 369.97878100534217L787.7807858344922 369.1739225872543L791.8050779249288 369.97878100534217L792.6099363430167 368.77149337821083L795.0171947025683 367.96663496012343L811.092412380186 383.6394234286972L813.5069876344487 389.6685446696424L811.092412380186 389.6685446696424L808.6851540206344 391.2782615058177L807.8802956025456 392.4855491329481L809.4900124387214 394.0952659691234L813.5069876344487 394.0952659691234L810.2948708568083 392.08311992390463L812.7021292163608 390.07097387868635L815.1167044706226 390.4734030877298L819.13367966635 394.49769517816685L827.174946952513 393.69283676007944L830.3870637301534 396.100095119632L831.1919221482403 398.5146703738942L829.5822053120664 400.52681641911204L826.370088534426 400.12438721006856L827.9798053706008 401.72678715153324L831.9967805663282 403.33650398770806L837.6234725982295 401.32435794248977L842.4453062120438 402.53164556962065L844.8598814663064 406.15350845101375L844.8598814663064 408.96319601960977L847.2671398258581 410.97534206482806L848.8768566620329 418.2117509329046L853.6986902758472 421.02143850150014L853.6986902758472 424.24087217384977L856.9181239481968 425.440842906271L858.5205238896615 428.6602765786206L861.7399575620111 429.86756420575193L862.5448159800981 431.8723933562601L865.7569327577385 433.4821101924349L874.6030584619884 427.4529889514897L885.0515841077049 432.274822565304L892.2879929757819 433.079680983391L892.2879929757819 436.2991146557406L895.5001097534205 437.0966561791179L897.1098265895962 439.91366064242357L897.1098265895962 445.13792346528226L895.5001097534205 445.54035267432573L894.6952513353335 448.7524694519652L896.3049681715074 456.7937367381287L893.8903929172466 457.19616594717263L893.8903929172466 459.6107412014344L897.9146850076831 463.62771639716175L897.1098265895962 470.46169605619434L897.9146850076831 474.07624204287777L899.5170849491478 475.6859588790521L902.7365186214975 475.28352967000865L904.3462354576723 478.49564644764814L906.7534938172239 479.30050486573555L904.3462354576723 480.10536328382295L898.7195434257701 486.13448452476814L894.6952513353335 492.56603497475726L888.2637008853444 494.1757518109316L886.6613009438797 495.77815175239675L884.246725689617 494.1757518109316L881.8321504353553 495.3757225433533L880.2297504938906 494.57818101997555L880.2297504938906 499.40001463378985L884.246725689617 505.83156508377897L878.6200336577158 505.0267066656911L876.205458403454 505.83156508377897L856.9181239481968 500.2048730518768L846.4622814077711 500.6073022609212L836.0137557620546 498.59515621570245L834.4040389258807 500.2048730518768L831.1919221482403 499.40001463378985L825.5652301163391 500.2048730518768L826.370088534426 502.6121314114298L842.4453062120438 507.8363942342876L844.0550230482186 510.25096948854934L843.2501646301307 512.2631155337676L827.174946952513 519.4922075071345L825.5652301163391 521.9067827613967L826.370088534426 524.7164703299923L829.5822053120664 527.533474793298L833.6064974025021 528.3383332113854L835.2088973439677 529.9480500475602L842.4453062120438 531.1480207799818L844.8598814663064 534.7698836613745L847.2671398258581 535.9771712885054L850.4865734982077 536.3722836028392L854.5035486939341 543.2062632618722L853.6986902758472 546.0232677251779L855.308407112022 547.2305553523092L855.308407112022 550.0402429209048L852.8938318577593 551.6499597570792L852.0889734396724 554.4596473256752L848.071998243945 556.4717933708939L845.6647398843934 554.8620765347191L840.0380478524921 555.264505743763L839.2331894344034 551.6499597570792L838.4283310163164 550.8451013389922L831.9967805663282 554.4596473256752L826.370088534426 554.0572181166317L823.9555132801643 552.0523889661231L819.9385380844369 552.8572473842105L818.328821248263 550.0402429209048L815.9215628887105 549.6378137118613L811.092412380186 544.815980098047L799.8390283163826 542.4014048437848L798.2366283749179 541.6038633204071L798.2366283749179 538.3844296480579L784.5686690568527 538.3844296480579L782.154093802591 539.1892880661453L780.5516938611254 542.8038340528283L773.3152849930493 544.4135508890035L766.0788761249723 541.6038633204071L761.2570425111589 542.4014048437848L759.6473256749832 540.7990049023197L755.6303504792577 539.9941464842327L754.020633643082 537.982000439014L750.0036584473546 536.3722836028392L749.1988000292677 534.367454452331L744.3769664154534 534.7698836613745L742.7672495792785 533.5625960342431L740.3526743250159 533.9650252432875L737.1405575473773 532.7577376161562L729.9041486793012 525.1188995390362L728.3017487378356 519.894636716178L725.8871734835739 519.894636716178L721.0653398697596 513.8655154752328L714.6337894197704 511.4582571156807L713.8289310016826 509.44611107046194L718.6507646154969 503.8194190385607L721.8701982878465 502.2097022023854L720.2604814516726 498.59515621570245L723.4725982293112 493.77332260188814L719.4556230335857 490.55388892953897L722.6677398112242 489.74903051145156L722.6677398112242 487.74420136094295L719.4556230335857 484.92719689763726L719.4556230335857 482.11750932904124L721.8701982878465 478.0932172386042L716.2435062559452 476.49081729714L713.8289310016826 471.66166678861555L710.616814224044 471.2665544742813L711.4143557474208 467.2422623838447L709.8119558059561 465.6398624423796L710.616814224044 464.0301456062052L706.5925221336065 458.80588278334744L708.2022389697813 455.58644911099736L700.9658301017053 450.7646154971835L697.7537133240648 445.13792346528226L701.7706885197922 443.528206629107L700.9658301017053 429.0627057876641L706.5925221336065 429.0627057876641L709.8119558059561 425.8432721153149L718.6507646154969 421.4238677105441L720.2604814516726 418.61418014194805L719.4556230335857 412.1826296919594L725.8871734835739 402.1292163605772Z" stroke="#FFFFFF" stroke-opacity="0.75" stroke-width="1" stroke-linecap="round" stroke-linejoin="round" fill="#D3D3D3"/>
		<path name="海北藏族自治州" d="M967.0447062266776 376.41033145533083L957.401038999049 378.01273139679597L949.359771712886 376.00790224628736L935.6918123948199 378.41516060583945L934.8869539767329 380.0248774420138L930.8699787810056 379.6224482329703L914.7947611033878 372.78846857393773L906.7534938172239 367.56420575107995L903.5413770395844 367.56420575107995L901.9316602034105 365.55937660057134L900.3219433672348 366.3569181239486L897.9146850076831 365.1569473915274L893.8903929172466 365.55937660057134L889.8734177215192 363.1448013463091L888.2637008853444 363.5472305553526L887.4588424672575 361.5350845101343L887.4588424672575 360.32779688300343L885.0515841077049 359.12782615058177L873.7982000439015 358.3229677324948L868.9763664300872 355.5059632691891L866.5617911758254 357.11568010536394L857.7229823662838 355.9083924782326L855.308407112022 354.29867564205824L848.071998243945 354.7011048511017L844.0550230482186 358.3229677324948L841.6404477939568 359.12782615058177L844.8598814663064 360.7302260920469L844.8598814663064 363.1448013463091L849.6817150801207 367.16177654203557L854.5035486939341 367.16177654203557L857.7229823662838 368.3690641691669L860.9350991439242 374.800614619156L864.1472159215627 375.6054730372434L865.7569327577385 378.01273139679597L872.9933416258145 382.439452696276L872.9933416258145 384.44428184678463L869.773907953464 387.2612863100903L872.9933416258145 391.68069071486116L869.773907953464 393.69283676007944L870.5787663715528 394.9001243872103L868.1715080120002 397.30738274676287L861.7399575620111 393.29040755103597L851.2914319162956 399.31952879198116L845.6647398843934 396.90495353771894L844.0550230482186 397.70981195580634L841.6404477939568 398.9170995829377L842.4453062120438 402.53164556962065L837.6234725982295 401.32435794248977L831.9967805663282 403.33650398770806L827.9798053706008 401.72678715153324L826.370088534426 400.12438721006856L829.5822053120664 400.52681641911204L831.1919221482403 398.5146703738942L830.3870637301534 396.100095119632L827.174946952513 393.69283676007944L819.13367966635 394.49769517816685L815.1167044706226 390.4734030877298L812.7021292163608 390.07097387868635L810.2948708568083 392.08311992390463L813.5069876344487 394.0952659691234L809.4900124387214 394.0952659691234L807.8802956025456 392.4855491329481L808.6851540206344 391.2782615058177L811.092412380186 389.6685446696424L813.5069876344487 389.6685446696424L811.092412380186 383.6394234286972L795.0171947025683 367.96663496012343L792.6099363430167 368.77149337821083L791.8050779249288 369.97878100534217L787.7807858344922 369.1739225872543L782.154093802591 369.97878100534217L774.1201434111363 366.3569181239486L758.8424672568963 369.5763517962978L757.2400673154316 374.3981854101121L757.2400673154316 376.00790224628736L762.8667593473338 380.42730665105773L763.6716177654207 382.8418819053195L764.4691592887975 382.03702348723255L764.4691592887975 382.439452696276L764.4691592887975 384.8467110558281L762.8667593473338 386.05399868295945L758.8424672568963 382.439452696276L753.215775224995 380.82973586010166L739.555132801639 373.19089778298166L735.5308407112025 372.38603936489426L735.5308407112025 369.97878100534217L733.1235823516499 365.55937660057134L735.5308407112025 359.12782615058177L737.1405575473773 353.0987049096366L735.5308407112025 348.6719836101561L737.9454159654642 345.0574376234731L741.1575327431046 343.04529157825436L741.9623911611916 340.2356040096588L743.5721079973664 339.0283163825279L745.1818248335403 339.4307455915714L748.3939416111807 336.6137411282657L753.215775224995 334.6089119777571L753.215775224995 331.7919075144514L750.0036584473546 330.5846198873205L749.1988000292677 328.5797907368119L749.1988000292677 326.9700739006371L750.8085168654434 324.95792785541835L750.0036584473546 324.562815541085L739.555132801639 320.9409526596919L737.1405575473773 322.55066949586626L734.7259822931146 318.1312650910959L728.3017487378356 315.3142606277902L728.3017487378356 312.5045730591937L732.318723933563 308.8827101778011L733.9284407697369 309.687568595888L739.555132801639 308.07785175971367L744.3769664154534 308.07785175971367L752.4109168069072 306.07302260920505L758.0376088388093 306.87788102729246L759.6473256749832 304.8657349820742L757.2400673154316 299.6414721592164L750.8085168654434 297.2268969049542L748.3939416111807 295.61718006877936L744.3769664154534 294.41720933635816L742.7672495792785 294.8196385454021L739.555132801639 292.0026340820964L733.9284407697369 291.19777566400853L728.3017487378356 292.40506329113987L722.6677398112242 290.79534645496506L720.2604814516726 288.79051730445644L721.0653398697596 287.58322967732556L719.4556230335857 286.3759420501947L714.6337894197704 288.3880880954125L709.8119558059561 291.600204873052L704.9828052974326 292.0026340820964L702.5755469378792 290.3929172459211L698.5585717421536 290.79534645496506L695.3391380698031 289.5880588278342L697.7537133240648 286.3759420501947L695.3391380698031 285.16865442306334L695.3391380698031 284.36379600497594L697.7537133240648 282.3589668544673L700.9658301017053 281.95653764542385L699.3561132655304 279.13953318211816L693.7294212336292 276.32984561352214L682.4760371698248 275.1225579863908L680.8736372283602 272.70798273212904L678.4590619740984 271.90312431404163L672.0275115241093 271.90312431404163L668.8153947464698 268.69100753640214L657.5620106826673 266.67886149118385L651.1304602326773 262.6618862954565L647.9110265603285 263.46674471354436L646.3013097241528 262.259457086413L643.0891929465142 262.259457086413L639.0722177507869 259.449769517817L638.2673593326999 255.8279066364239L635.8527840784382 253.01821906782834L647.1061681422407 245.78181019975182L647.1061681422407 244.172093363577L646.3013097241528 243.3672349454896L648.7158849784155 239.35025974976315L650.3256018145903 234.5284261359484L656.7571522645785 235.3332845540358L659.164410624131 237.7405429135879L660.7741274603059 237.3381137045444L661.5789858783928 240.1551181678501L663.9862442379454 241.362405794981L667.2056779102959 240.55754737689358L671.2226531060214 242.5623765274022L674.442086778372 240.55754737689358L673.6372283602841 239.35025974976315L677.6542035560105 237.3381137045444L683.2808955879127 230.9065632545553L688.1027292017279 231.30899246359877L688.9075876198149 232.91870929977358L693.7294212336292 234.5284261359484L695.3391380698031 236.53325528645655L698.5585717421536 238.14297212263182L703.380405355967 238.5454013316753L706.5925221336065 240.55754737689358L709.8119558059561 240.9599765859375L706.5925221336065 244.172093363577L707.3973805516944 244.9769517816644L717.8459061974099 252.21336064974048L727.4968903197487 256.6327650545113L729.9041486793012 261.05216945928214L732.318723933563 261.4545986683256L733.9284407697369 265.0764615497187L735.5308407112025 266.2764322821399L739.555132801639 265.87400307309645L740.3526743250159 270.3007243725765L744.3769664154534 274.31769956830385L750.0036584473546 276.32984561352214L750.0036584473546 278.3346747640303L758.0376088388093 280.7492500182925L762.0619009292459 283.55893758688853L770.9007097387866 285.5710836321068L772.5104265749624 287.58322967732556L780.5516938611254 289.5880588278342L784.5686690568527 293.61235091827075L786.9832443111154 294.8196385454021L788.5856442525792 294.0147801273142L786.9832443111154 290.79534645496506L786.9832443111154 286.77837125923816L784.5686690568527 285.5710836321068L782.154093802591 280.7492500182925L778.1371186068636 278.7371039730747L775.722543352601 276.32984561352214L778.1371186068636 273.1104119411725L780.5516938611254 273.1104119411725L782.154093802591 274.31769956830385L784.5686690568527 274.31769956830385L792.6099363430167 278.3346747640303L794.2123362844814 283.16382527255473L797.4317699568301 282.3589668544673L799.0341698982957 285.16865442306334L798.2366283749179 286.3759420501947L803.8633204068201 288.79051730445644L806.2705787663717 288.3880880954125L807.0754371844587 290.79534645496506L808.6851540206344 291.19777566400853L810.2948708568083 289.5880588278342L815.1167044706226 292.40506329113987L819.13367966635 292.80749250018334L820.7433965025248 291.19777566400853L827.9798053706008 292.40506329113987L831.1919221482403 294.41720933635816L836.8186141801425 299.6414721592164L840.835589375869 297.62932611399765L843.2501646301307 298.43418453208506L842.4453062120438 301.64630130972455L842.4453062120438 303.65844735494284L840.0380478524921 306.47545181824853L840.835589375869 308.8827101778011L839.2331894344034 310.4924270139759L847.2671398258581 310.0899978049324L853.6986902758472 314.50940220970233L856.1132655301099 314.9118314187467L861.7399575620111 321.74581107777885L868.1715080120002 322.95309870490973L873.7982000439015 326.5676446915936L880.2297504938906 319.73366503256057L885.8564425257919 321.3433818687354L890.6782761396062 323.7579571229976L893.0855344991587 326.9700739006371L895.5001097534205 328.5797907368119L894.6952513353335 330.987049096364L904.3462354576723 333.4016243506262L905.1437769810491 337.0161703373092L909.9729274895735 335.4137703958445L913.9899026853009 331.3894783054079L918.0068778810282 332.5967659325388L922.0311699714639 336.2186288139319L922.8287114948425 339.0283163825279L925.2432867491043 339.0283163825279L925.2432867491043 341.04046242774575L927.6578620033652 342.2477500548771L926.0481451671913 343.8501499963422L926.0481451671913 349.0744128192L927.6578620033652 349.0744128192L932.4796956171795 352.6962757005931L943.7330796809838 355.1035340601452L944.5379380990717 357.5181093144074L952.5718884905245 361.1326553010904L952.5718884905245 361.93751371917824L954.9864637447872 365.95448891490514L960.6131557766885 368.3690641691669L963.825272554328 371.18606863247305L965.4349893905028 371.18606863247305L968.6544230628524 375.6054730372434L968.6544230628524 376.41033145533083L967.0447062266776 376.41033145533083Z" stroke="#FFFFFF" stroke-opacity="0.75" stroke-width="1" stroke-linecap="round" stroke-linejoin="round" fill="#D3D3D3"/>
		<path name="黄南藏族自治州" d="M888.2637008853444 494.1757518109316L894.6952513353335 492.56603497475726L898.7195434257701 486.13448452476814L904.3462354576723 480.10536328382295L906.7534938172239 479.30050486573555L904.3462354576723 478.49564644764814L902.7365186214975 475.28352967000865L899.5170849491478 475.6859588790521L897.9146850076831 474.07624204287777L897.1098265895962 470.46169605619434L897.9146850076831 463.62771639716175L893.8903929172466 459.6107412014344L893.8903929172466 457.19616594717263L896.3049681715074 456.7937367381287L894.6952513353335 448.7524694519652L895.5001097534205 445.54035267432573L897.1098265895962 445.13792346528226L901.9316602034105 444.73549425623787L901.9316602034105 445.9427818833692L903.5413770395844 444.73549425623787L903.5413770395844 445.9427818833692L905.1437769810491 445.9427818833692L906.7534938172239 448.7524694519652L910.7704690129513 447.95492792858795L913.9899026853009 449.1548986610087L914.7947611033878 450.7646154971835L913.9899026853009 451.5694739152709L918.8117362991152 452.7767615424018L917.2020194629395 453.98404916953314L918.0068778810282 454.3791614838665L919.6165947172021 454.3791614838665L921.226311553377 457.19616594717263L923.6335699129295 458.40345357430306L924.4384283310164 462.01799956098694L927.6578620033652 468.4495500109756L928.4554035267438 469.25440842906346L926.0481451671913 472.46652520670295L925.2432867491043 476.0883880880956L929.2602619448307 477.29567571522693L932.4796956171795 475.28352967000865L937.3015292309947 478.8980756566916L937.3015292309947 482.11750932904124L939.7161044852564 483.3247969561721L946.9451964586233 485.32962610668073L951.7743469671468 489.74903051145156L951.7743469671468 496.1805809614402L954.9864637447872 497.3878685885711L951.7743469671468 499.8024438428333L943.7330796809838 498.59515621570245L942.123362844809 501.40484378429846L942.123362844809 503.0145606204733L944.5379380990717 505.0267066656911L944.5379380990717 506.6364235018664L942.123362844809 507.8363942342876L946.9451964586233 509.84854027950587L946.9451964586233 512.2631155337676L949.359771712886 512.6655447428116L950.9694885490599 516.6825199385385L949.359771712886 518.2922367747128L946.9451964586233 518.2922367747128L946.1403380405354 519.894636716178L944.5379380990717 520.6994951342654L942.123362844809 525.9237579571231L937.3015292309947 525.9237579571231L937.3015292309947 527.533474793298L930.0651203629186 530.3504792566041L925.2432867491043 536.3722836028392L926.0481451671913 537.982000439014L920.4214531352891 537.5795712299705L915.5996195214748 539.1892880661453L916.4044779395626 541.2014341113636L914.7947611033878 552.454818175167L916.4044779395626 556.06936416185L916.4044779395626 560.0863393575773L919.6165947172021 563.3057730299265L927.6578620033652 564.1106314480139L933.2845540352682 566.517889807566L934.0894124533552 570.1397526889591L940.5136460086342 576.9737323479922L937.3015292309947 578.5761322894568L935.6918123948199 577.7712738713694L932.4796956171795 583.3979659032707L927.6578620033652 581.7955659618065L926.0481451671913 582.6004243798934L926.0481451671913 586.2149703665768L922.8287114948425 587.0198287846642L924.4384283310164 589.4270871442163L922.0311699714639 591.4392331894351L918.8117362991152 590.6343747713472L918.0068778810282 595.0610960708282L913.1850442672139 593.8538084436973L910.7704690129513 592.244091607522L910.7704690129513 593.4513792346529L908.3632106533987 593.8538084436973L905.1437769810491 598.2732128484672L903.5413770395844 598.2732128484672L901.9316602034105 596.6634960122929L900.3219433672348 596.6634960122929L899.5170849491478 594.6586668617842L898.7195434257701 595.4562083851615L896.3049681715074 594.6586668617842L893.8903929172466 590.2319455623037L889.8734177215192 589.4270871442163L887.4588424672575 587.8246872027516L884.246725689617 589.031974829883L883.4418672715301 587.4222579937077L874.6030584619884 585.007682739446L872.1884832077267 585.4101119484894L872.1884832077267 583.3979659032707L868.9763664300872 583.3979659032707L864.9520743396497 580.990707543719L862.5448159800981 581.3931367527625L859.3253823077484 578.9785614985008L852.0889734396724 579.7834199165877L851.2914319162956 578.5761322894568L844.8598814663064 575.3640155118169L846.4622814077711 568.1276066437408L842.4453062120438 561.6960561937517L842.4453062120438 558.0815102070687L840.0380478524921 555.264505743763L845.6647398843934 554.8620765347191L848.071998243945 556.4717933708939L852.0889734396724 554.4596473256752L852.8938318577593 551.6499597570792L855.308407112022 550.0402429209048L855.308407112022 547.2305553523092L853.6986902758472 546.0232677251779L854.5035486939341 543.2062632618722L850.4865734982077 536.3722836028392L847.2671398258581 535.9771712885054L844.8598814663064 534.7698836613745L842.4453062120438 531.1480207799818L835.2088973439677 529.9480500475602L833.6064974025021 528.3383332113854L829.5822053120664 527.533474793298L826.370088534426 524.7164703299923L825.5652301163391 521.9067827613967L827.174946952513 519.4922075071345L843.2501646301307 512.2631155337676L844.0550230482186 510.25096948854934L842.4453062120438 507.8363942342876L826.370088534426 502.6121314114298L825.5652301163391 500.2048730518768L831.1919221482403 499.40001463378985L834.4040389258807 500.2048730518768L836.0137557620546 498.59515621570245L846.4622814077711 500.6073022609212L856.9181239481968 500.2048730518768L876.205458403454 505.83156508377897L878.6200336577158 505.0267066656911L884.246725689617 505.83156508377897L880.2297504938906 499.40001463378985L880.2297504938906 494.57818101997555L881.8321504353553 495.3757225433533L884.246725689617 494.1757518109316L886.6613009438797 495.77815175239675L888.2637008853444 494.1757518109316Z" stroke="#FFFFFF" stroke-opacity="0.75" stroke-width="1" stroke-linecap="round" stroke-linejoin="round" fill="#D3D3D3"/>
		<path name="海东地区" d="M897.1098265895962 445.13792346528226L897.1098265895962 439.91366064242357L899.5170849491478 438.7063730152927L902.7365186214975 435.0918270286097L907.5583522353118 435.4942562376532L911.5753274310382 429.0627057876641L910.7704690129513 424.635984488184L913.9899026853009 420.61900929245667L913.1850442672139 417.8093217238611L914.7947611033878 416.19960488768584L913.9899026853009 414.187458842468L910.7704690129513 410.97534206482806L910.7704690129513 409.7680544376972L906.7534938172239 409.3656252286537L906.7534938172239 407.75590839247843L905.948635399137 408.56076681056584L905.1437769810491 407.35347918343496L905.948635399137 405.34865003292634L905.1437769810491 403.738933196752L907.5583522353118 390.87583229677375L909.1680690714866 388.87100314626514L909.9729274895735 386.05399868295945L909.1680690714866 384.44428184678463L910.7704690129513 381.23216506914514L913.1850442672139 380.42730665105773L913.9899026853009 377.61030218775204L913.1850442672139 374.800614619156L914.7947611033878 374.3981854101121L914.7947611033878 372.78846857393773L930.8699787810056 379.6224482329703L934.8869539767329 380.0248774420138L935.6918123948199 378.41516060583945L949.359771712886 376.00790224628736L957.401038999049 378.01273139679597L958.1985805224258 382.439452696276L955.7913221628742 384.8467110558281L955.7913221628742 386.4564278920029L961.4180141947763 390.07097387868635L963.0277310309502 392.88797834199204L967.8495646447645 395.2952367015441L973.4762566766667 400.52681641911204L971.8665398404919 400.12438721006856L968.6544230628524 402.9340747786641L966.2398478085906 403.33650398770806L965.4349893905028 404.5437916148394L966.2398478085906 407.35347918343496L977.4932318723932 414.99231726055496L975.0859735128415 415.79717567864236L975.8835150362193 417.4068925148172L979.9078071266549 420.2165800834132L977.4932318723932 422.6311553376754L982.3150654862075 428.25784736957667L982.3150654862075 430.6651057291292L983.1199239042953 432.6772517743475L987.1368991000227 432.6772517743475L989.5514743542835 435.4942562376532L995.9830248042736 438.7063730152927L995.9830248042736 439.91366064242357L1000 441.9258066876423L993.5684495500109 442.72334821102004L992.7709080266341 445.54035267432573L991.1611911904592 445.9427818833692L989.5514743542835 449.1548986610087L986.3393575766449 450.3621862881396L987.1368991000227 451.9719031243144L992.7709080266341 453.98404916953314L991.1611911904592 455.58644911099736L992.7709080266341 457.5985951562161L990.3563327723723 462.01799956098694L991.1611911904592 468.8519792200191L978.298090290481 467.2422623838447L973.4762566766667 470.0592668471504L971.8665398404919 473.6738128338334L972.6713982585788 478.0932172386042L975.8835150362193 481.31265091095383L977.4932318723932 482.51993853808517L978.298090290481 486.5369137338116L980.7126655447437 488.95148898807383L975.0859735128415 490.95631813858245L975.0859735128415 492.1636057657138L978.298090290481 490.95631813858245L978.298090290481 492.1636057657138L975.8835150362193 493.77332260188814L971.8665398404919 491.3587473476259L964.6301309724158 490.55388892953897L958.1985805224258 486.9393429428551L956.596180580962 492.56603497475726L955.7913221628742 492.96846418380073L954.9864637447872 495.3757225433533L954.1816053267003 495.3757225433533L953.3767469086115 496.58301017048416L954.9864637447872 497.3878685885711L951.7743469671468 496.1805809614402L951.7743469671468 489.74903051145156L946.9451964586233 485.32962610668073L939.7161044852564 483.3247969561721L937.3015292309947 482.11750932904124L937.3015292309947 478.8980756566916L932.4796956171795 475.28352967000865L929.2602619448307 477.29567571522693L925.2432867491043 476.0883880880956L926.0481451671913 472.46652520670295L928.4554035267438 469.25440842906346L927.6578620033652 468.4495500109756L924.4384283310164 462.01799956098694L923.6335699129295 458.40345357430306L921.226311553377 457.19616594717263L919.6165947172021 454.3791614838665L918.0068778810282 454.3791614838665L917.2020194629395 453.98404916953314L918.8117362991152 452.7767615424018L913.9899026853009 451.5694739152709L914.7947611033878 450.7646154971835L913.9899026853009 449.1548986610087L910.7704690129513 447.95492792858795L906.7534938172239 448.7524694519652L905.1437769810491 445.9427818833692L903.5413770395844 445.9427818833692L903.5413770395844 444.73549425623787L901.9316602034105 445.9427818833692L901.9316602034105 444.73549425623787L897.1098265895962 445.13792346528226Z" stroke="#FFFFFF" stroke-opacity="0.75" stroke-width="1" stroke-linecap="round" stroke-linejoin="round" fill="#D3D3D3"/>
		<path name="西宁市" d="M914.7947611033878 372.78846857393773L914.7947611033878 374.3981854101121L913.1850442672139 374.800614619156L913.9899026853009 377.61030218775204L913.1850442672139 380.42730665105773L910.7704690129513 381.23216506914514L909.1680690714866 384.44428184678463L909.9729274895735 386.05399868295945L909.1680690714866 388.87100314626514L907.5583522353118 390.87583229677375L905.1437769810491 403.738933196752L905.948635399137 405.34865003292634L905.1437769810491 407.35347918343496L905.948635399137 408.56076681056584L906.7534938172239 407.75590839247843L906.7534938172239 409.3656252286537L910.7704690129513 409.7680544376972L910.7704690129513 410.97534206482806L913.9899026853009 414.187458842468L914.7947611033878 416.19960488768584L913.1850442672139 417.8093217238611L913.9899026853009 420.61900929245667L910.7704690129513 424.635984488184L911.5753274310382 429.0627057876641L907.5583522353118 435.4942562376532L902.7365186214975 435.0918270286097L899.5170849491478 438.7063730152927L897.1098265895962 439.91366064242357L895.5001097534205 437.0966561791179L892.2879929757819 436.2991146557406L892.2879929757819 433.079680983391L885.0515841077049 432.274822565304L874.6030584619884 427.4529889514897L865.7569327577385 433.4821101924349L862.5448159800981 431.8723933562601L861.7399575620111 429.86756420575193L858.5205238896615 428.6602765786206L856.9181239481968 425.440842906271L853.6986902758472 424.24087217384977L853.6986902758472 421.02143850150014L848.8768566620329 418.2117509329046L847.2671398258581 410.97534206482806L844.8598814663064 408.96319601960977L844.8598814663064 406.15350845101375L842.4453062120438 402.53164556962065L841.6404477939568 398.9170995829377L844.0550230482186 397.70981195580634L845.6647398843934 396.90495353771894L851.2914319162956 399.31952879198116L861.7399575620111 393.29040755103597L868.1715080120002 397.30738274676287L870.5787663715528 394.9001243872103L869.773907953464 393.69283676007944L872.9933416258145 391.68069071486116L869.773907953464 387.2612863100903L872.9933416258145 384.44428184678463L872.9933416258145 382.439452696276L865.7569327577385 378.01273139679597L864.1472159215627 375.6054730372434L860.9350991439242 374.800614619156L857.7229823662838 368.3690641691669L854.5035486939341 367.16177654203557L849.6817150801207 367.16177654203557L844.8598814663064 363.1448013463091L844.8598814663064 360.7302260920469L841.6404477939568 359.12782615058177L844.0550230482186 358.3229677324948L848.071998243945 354.7011048511017L855.308407112022 354.29867564205824L857.7229823662838 355.9083924782326L866.5617911758254 357.11568010536394L868.9763664300872 355.5059632691891L873.7982000439015 358.3229677324948L885.0515841077049 359.12782615058177L887.4588424672575 360.32779688300343L887.4588424672575 361.5350845101343L888.2637008853444 363.5472305553526L889.8734177215192 363.1448013463091L893.8903929172466 365.55937660057134L897.9146850076831 365.1569473915274L900.3219433672348 366.3569181239486L901.9316602034105 365.55937660057134L903.5413770395844 367.56420575107995L906.7534938172239 367.56420575107995L914.7947611033878 372.78846857393773Z" stroke="#FFFFFF" stroke-opacity="0.75" stroke-width="1" stroke-linecap="round" stroke-linejoin="round" fill="#D3D3D3"/>
	</g>
</svg>