<?xml version="1.0" encoding="UTF-8" standalone="no"?><!-- Generator: Adobe Illustrator 19.0.0, SVG Export Plug-In . SVG Version: 6.00 Build 0)  --><svg xmlns="http://www.w3.org/2000/svg" xmlns:xlink="http://www.w3.org/1999/xlink" contentScriptType="text/ecmascript" zoomAndPan="magnify" contentStyleType="text/css" id="图层_1" style="enable-background:new 0 0 1000 1000;" mapName="香港特别行政区" mapType="省市地图" version="1.1" xml:space="preserve" preserveAspectRatio="xMidYMid meet" viewBox="0 0 1000 1000" x="0px" y="0px">
	<g>
		<path name="中西区" d="M550.9284550511802 634.0415088006339L545.5323869703279 669.4960154859946L524.1565263215161 670.9210721583804L501.9001404340088 655.2106831853016L486.1897514607408 647.3554871898159L461.7695255581348 647.2173683657238L463.13489939193823 636.6357196866447L466.9579471855832 634.0415088036389L475.01365395763423 630.1501924792683L489.4866194064962 623.5281282102442L506.2807216148067 618.3397064443707L524.4401977953967 623.5281282102442L536.4554894228058 630.1501924792683L550.9284550511802 634.0415088006339Z" stroke="#FFFFFF" stroke-opacity="0.75" stroke-width="1" stroke-linecap="round" stroke-linejoin="round" fill="#D3D3D3"/>
		<path name="湾仔区" d="M589.668970496481 667.5738824439177L563.4324987543805 668.3026739960769L545.5323869703279 669.4960154859946L550.9284550511802 634.0415088006339L573.0475157080218 634.0415088006339L585.6888846418005 640.80949178429L600.0900745340041 643.4278899464553L596.1624772906362 653.9014841042954L589.668970496481 667.5738824439177Z" stroke="#FFFFFF" stroke-opacity="0.75" stroke-width="1" stroke-linecap="round" stroke-linejoin="round" fill="#D3D3D3"/>
		<path name="东区" d="M694.8388867594767 685.17476876L660.3132352823741 670.9210721583804L610.5636686916987 666.9934749152089L589.668970496481 667.5738824439177L596.1624772906362 653.9014841042954L600.0900745340041 643.4278899464553L585.6888846418005 640.80949178429L573.0475157080218 634.0415088006339L588.6127812050399 620.933917327231L603.0857466539019 613.0830161475242L619.1971601980622 619.1589304922018L634.6258884340932 623.5281282102442L645.0027319659421 634.0415088036389L655.6526496212755 631.4472979207712L668.6237040358246 636.6357196866447L681.7312955122325 658.8230492533912L694.8388869886403 668.1075929361032L694.8388867594767 685.17476876Z" stroke="#FFFFFF" stroke-opacity="0.75" stroke-width="1" stroke-linecap="round" stroke-linejoin="round" fill="#D3D3D3"/>
		<path name="南区" d="M535.2266525125597 713.9158945726449L528.2632439114677 715.2130000140096L515.292191174638 705.9967248621178L511.4691433808184 698.07755515178L511.4691433808184 696.9169867717283L535.2266525125597 702.0371400069271L535.2266525125597 713.9158945726449Z  M501.9001404340088 655.2106831853016L524.1565263215161 670.9210721583804L545.5323869703279 669.4960154859946L563.4324987543805 668.3026739960769L589.668970496481 667.5738824439177L610.5636686916987 666.9934749152089L660.3132352823741 670.9210721583804L694.8388867594767 685.17476876L684.4620434567914 696.9169867717283L690.7427633940533 712.618789131142L698.6619331047114 726.9552175182253L690.7427633940533 729.6176969320586L702.621519637556 761.15783871249L681.7312955124362 765.0491550367151L676.4063366847695 758.4270907678292L663.4352822700166 747.9137101741508L663.2987452083617 730.3003839181983L657.9737847029464 710.8438022961127L646.5046429999638 702.0371400069271L636.6739493930363 709.6149653855755L646.5046429999638 712.618789131142L646.5046429999638 725.6581120768678L639.814310200105 726.9552175182253L628.2086297575443 740.1310775254606L639.814310200105 757.1299853261808L634.6258884340932 768.9404713612239L641.1796841722971 780.819225926949L621.3817598960304 784.7105422513196L618.6510102739267 758.4270907678292L624.1125078409968 754.5357744431749L619.470235999499 746.4117974624169L601.8569097432774 754.5357744431749L594.0742770945362 750.5079210571566L601.8569097432774 741.4964514979292L590.1146922390617 734.9426557597253L597.8973248878901 724.3610066352194L594.0742770945362 715.2130000140096L579.4647745842813 712.618789131142L581.3762984808418 698.3506292750753L560.0764614929794 711.321683689639L553.5226657547755 720.4696903108488L549.5630808995047 720.4696903108488L545.7400331057725 711.321683689639L543.0092851613008 699.4429291239139L528.2632439114677 691.6602964752237L501.09229984896956 690.4314595644028L489.4866194064962 685.1747692678473L482.659749544895 671.9989092606193L480.2020757238206 664.2162766115944L472.2829060134536 651.108685135332L461.7695255581348 647.2173683657238L486.1897514607408 647.3554871898159L501.9001404340088 655.2106831853016Z" stroke="#FFFFFF" stroke-opacity="0.75" stroke-width="1" stroke-linecap="round" stroke-linejoin="round" fill="#D3D3D3"/>
		<path name="油水旺区" d="M569.0879307735886 614.38012165283L561.305298403342 618.3397064443707L553.5226657544845 609.1916998231536L555.1611155279388 590.2129995947398L550.9284548714932 581.6794114288932L549.563080899301 573.8967787800066L540.5516113397316 573.8967787800066L540.5516116738145 562.0862921919615L567.0942700827727 560.7423284909019L566.050896916684 575.3495362206813L569.9784956687363 592.3691242749119L569.0879307735886 614.38012165283Z" stroke="#FFFFFF" stroke-opacity="0.75" stroke-width="1" stroke-linecap="round" stroke-linejoin="round" fill="#D3D3D3"/>
		<path name="九龙市" d="M617.1298058301327 541.4714909603135L622.3464604214241 559.6391457386562L628.2086297411297 581.6794109551411L633.397051523556 597.4494823190835L629.4374666683725 597.4494823190835L600.9011469558463 568.7766255451061L585.8820315829071 584.7515037054254L594.0742770943325 596.1523768775733L594.0742770943325 601.2725301126266L581.1032226795796 596.1523768775733L577.6897877489391 608.7820869603165L569.0879307735886 614.38012165283L569.9784956687363 592.3691242749119L566.050896916684 575.3495362206813L567.0942700827727 560.7423284909019L568.6692965876719 538.691960441065L558.1957024301519 524.2907705489488L584.3492639840406 518.9062133589832L597.4716763717006 543.9287567653882L617.1298058301327 541.4714909603135Z" stroke="#FFFFFF" stroke-opacity="0.75" stroke-width="1" stroke-linecap="round" stroke-linejoin="round" fill="#D3D3D3"/>
		<path name="深水埗区" d="M506.69732647537603 570.6785978723856L510.10376940862625 572.5996733385036L516.7941022084851 571.2342993663187L519.2517760295596 576.4909896628742L510.10376940862625 581.6794114288932L502.3211369855271 576.4909896434692L506.69732647537603 570.6785978723856Z  M567.0942700827727 560.7423284909019L540.5516116738145 562.0862921919615L528.2632439114677 551.5729121515687L517.3456072749686 545.733245771582L521.7783125566202 534.326723726379L540.4899948106904 529.1701337181221L558.1957024301519 524.2907705489488L568.6692965876719 538.691960441065L567.0942700827727 560.7423284909019Z" stroke="#FFFFFF" stroke-opacity="0.75" stroke-width="1" stroke-linecap="round" stroke-linejoin="round" fill="#D3D3D3"/>
		<path name="黄大仙区" d="M665.5500316064281 543.9287567653882L617.1298058301327 541.4714909603135L597.4716763717006 543.9287567653882L584.3492639840406 518.9062133589832L647.221242962376 505.9619819047657L665.5500316064281 543.9287567653882Z" stroke="#FFFFFF" stroke-opacity="0.75" stroke-width="1" stroke-linecap="round" stroke-linejoin="round" fill="#D3D3D3"/>
		<path name="观塘区" d="M665.5500316064281 543.9287567653882L678.6420224175672 566.185142652801L669.477628849796 597.6059205991405L681.3710169461556 622.5913010152362L673.8121258017491 630.1501924792683L655.6526496212755 613.0830161475242L628.2086297411297 581.6794109551411L622.3464604214241 559.6391457386562L617.1298058301327 541.4714909603135L665.5500316064281 543.9287567653882Z" stroke="#FFFFFF" stroke-opacity="0.75" stroke-width="1" stroke-linecap="round" stroke-linejoin="round" fill="#D3D3D3"/>
		<path name="西贡区" d="M769.5248509921657 675.8902255849898L769.5248509921657 686.4718747092047L773.7575099707465 695.6198813304145L768.1594770197698 704.6996194207532L756.5537965774129 712.618789131142L751.3653748114011 703.402513979112L744.9481161348231 702.0371400069271L747.5423270175525 683.7411267645512L747.5423270175525 685.1747692678473L769.5248509921657 675.8902255849898Z  M860.0491544160759 658.8230492532457L854.587656849093 668.1075929359649L850.7646107334876 661.4172601361133L854.587656849093 651.108685135332L860.0491544160759 658.8230492532457Z  M730.2020765629422 639.36646763116L717.2310221481894 649.8115796936836L718.5963961205562 634.0415088034933L730.2020765629422 639.36646763116Z  M894.046970018011 590.7591495192755L891.4527591346996 590.7591495192755L883.5335894243326 577.7880951045227L887.4931742798071 568.5035514216652L894.046970018011 580.3823059872448L894.046970018011 590.7591495192755Z  M864.0087392715504 577.7880951045227L854.587656849093 582.9765168702506L865.2375761820877 562.086292745109L870.2894592085213 562.086292745109L864.0087392715504 577.7880951045227Z  M828.6455496974522 555.6007655377325L808.9841624828405 559.4920818621031L803.6592036551738 538.4653206751682L815.6744952826703 533.2086303783217L824.6859648423269 537.099946703027L828.6455496974522 555.6007655377325Z  M769.5248509921657 495.2512299214868L769.5248509921657 517.5068280192427L759.0114703984873 509.7241953702178L757.7826334879501 489.9945396246476L757.7826334879501 483.50901241759857L764.1998904865468 479.6176960929006L769.5248509921657 495.2512299214868Z  M824.6859648423269 528.0202086126446L789.3227752682287 528.0202086126446L785.3631904127542 522.6269812541505L784.134353502217 500.4396516873603L781.5401426194876 489.9945396246476L794.5111970342405 471.69852638255543L803.6592036551738 471.69852638255543L808.9841624828405 500.4396516873603L824.6859648423269 514.9126171362368L824.6859648423269 528.0202086126446Z  M939.6504643841763 383.9732394337916L946.2042601223802 410.25669259518327L926.1332617228327 401.58656569007144L913.4352814315644 399.6750417930598L894.046970018011 435.0382313670343L902.102676790033 430.7373038577207L918.7602402590273 452.8563648935451L926.8159487090015 488.7657027141104L921.4909882034117 489.9945396246476L920.1256142312195 481.66575872930844L904.423811871704 480.9148015345927L909.6122336377157 495.2512299214868L903.0584378995118 509.7241953702178L894.046970018011 517.5068280192427L878.3451676584955 522.6269812541505L872.8836700912216 545.0191164133648L864.0087392715504 533.2086303783217L864.0087392715504 512.3184062532309L846.6684871386096 522.6269812541505L841.7531411736563 511.02130081186624L831.2397605805309 499.1425462460029L833.8339714632602 473.0639003547403L810.4860735166585 463.9158937338216L807.4822514489933 449.4429282849451L793.1458230620483 458.86401070735155L776.3517208534759 462.55051976134564L752.7307487835642 446.78044887111173L739.3500831838755 446.78044887111173L723.7848178863933 467.80721005819214L731.5674505351344 492.65701903848094L742.3539052521228 507.1299844872119L736.7558723011462 518.8039334606074L721.1906070032855 505.8328790458472L719.8252330309188 488.7657027141104L706.4445657534525 495.2512299214868L701.6657568503288 505.62807345337933L718.8694702438661 521.6712201446644L730.2020765629422 564.6805036281148L737.9847075339349 567.2064459800167L761.605681281304 571.6439122288793L762.9710552539618 590.7591495192755L769.5248509921657 590.7591495192755L782.7689795300248 588.1649386362697L795.7400339447777 603.9350095263144L785.772801598272 614.9262715133809L772.392135998176 623.5281282100987L760.3768443707668 619.6368118857281L757.7826334879501 620.9339173270928L759.0114703984873 630.1501924791228L758.7383945972251 643.1895154246595L776.3517208534759 637.9328251281477L781.5401426194876 651.108685135332L781.5401426194876 662.9191711702297L770.7536862247507 669.4046983776061L757.7826334879501 658.8230492532457L739.8962314304663 648.9923556458962L742.3539052521228 634.0415088034933L731.5674505351344 606.5292204093275L717.2310221481894 596.152376877435L718.5963961205562 582.9765168702506L719.8252330309188 572.5996733385036L701.6657568503288 561.9497556834613L694.838886988844 590.7591495192755L697.4330978715443 606.5292204093275L681.3710169461556 622.5913010152362L669.477628849796 597.6059205991405L678.6420224175672 566.185142652801L665.5500316064281 543.9287567653882L647.221242962376 505.9619819047657L672.0960270120995 469.3044061250039L694.3524113910389 439.1928272600053L745.4111785715213 431.3376312645196L775.5227574367891 414.3180432100926L806.943536891893 399.9168533181728L831.8183209415292 413.00884412894084L860.6207007253834 426.1008349399999L884.186285693926 411.69964504807285L881.5678875322046 376.3512683496083L889.2681597770134 354.0032785677977L894.046970018011 364.51665948946174L920.1256142312195 365.81376493081916L943.6100492390979 371.0021866968382L939.6504643841763 383.9732394337916Z" stroke="#FFFFFF" stroke-opacity="0.75" stroke-width="1" stroke-linecap="round" stroke-linejoin="round" fill="#D3D3D3"/>
		<path name="沙田区" d="M694.8388867594767 380.08192491330556L695.6616104718996 410.3904459669211L694.3524113910389 439.1928272600053L672.0960270120995 469.3044061250039L647.221242962376 505.9619819047657L584.3492639840406 518.9062133589832L558.1957024301519 524.2907705489488L540.4899948106904 529.1701337181221L532.0117208082229 508.58038006678544L525.4657254025515 487.63319476918696L563.4324987543805 437.8836281786571L559.4463563476165 401.73681108469464L577.8336901553557 401.2260523990408L617.2891697020386 389.9293541213774L628.2086297575443 397.0808309103377L625.2048060119268 410.2566925953215L633.397051523556 416.74221812494943L624.1125078407058 433.87766466526955L634.6258884340932 431.0786465120327L647.7334799105884 406.4336448017784L665.8929544133134 390.11742398705246L672.5832888912119 372.2992921383411L682.0043696355424 372.02621633728995L694.8388867594767 380.08192491330556Z" stroke="#FFFFFF" stroke-opacity="0.75" stroke-width="1" stroke-linecap="round" stroke-linejoin="round" fill="#D3D3D3"/>
		<path name="葵青区" d="M506.69732647537603 570.6785978723856L502.3211369855271 576.4909896434692L490.71545631749905 573.8967787798683L489.4866194064962 572.5996733385036L498.3615519046143 565.9776090694795L506.69732647537603 570.6785978723856Z  M448.7984710049932 555.6007655377325L422.3102139291004 562.086292745109L418.6237031969067 533.2086303783217L405.65264878215385 516.141454046774L405.65264878215385 505.8328790458472L416.02949231417733 500.4396516873603L430.2293836394674 505.8328790458472L444.97542321146466 509.7241953702178L450.1638449773891 520.1010389019648L455.3522667431971 531.9115249370079L448.7984710049932 555.6007655377325Z  M532.0117208082229 508.58038006678544L540.4899948106904 529.1701337181221L521.7783125566202 534.326723726379L517.3456072749686 545.733245771582L504.77881058095954 539.0114705995584L481.5674496960128 528.5663585369912L480.2020757238206 537.099946703027L463.13489939193823 511.02130081186624L461.64972567831865 502.6736013652044L491.42654778496944 498.1067874180808L505.1227845583344 492.4671609553043L497.97254319064086 470.6136052061556L511.0645340019837 465.37680888178147L525.4657254025515 487.63319476918696L532.0117208082229 508.58038006678544Z" stroke="#FFFFFF" stroke-opacity="0.75" stroke-width="1" stroke-linecap="round" stroke-linejoin="round" fill="#D3D3D3"/>
		<path name="荃湾区" d="M359.77607861493016 551.5729121515687L357.1818677316187 565.9776090694795L350.35499787013396 560.5843817109853L337.24740639392985 558.1949764207384L325.64172595145646 558.1949764207384L324.0213388779666 572.2997165543493L265.5924691725231 572.8514197151962L272.1190618747787 562.086292745109L302.02075388183584 539.8306946473531L307.34571270950255 551.5729121515687L346.3954130152124 522.6269812541505L355.67995669780066 528.5663585369912L364.9645003809419 538.4653206751682L359.77607861493016 551.5729121515687Z  M376.57018082303694 533.2086303783217L367.5587112636713 533.2086303783217L364.9645003809419 520.1010389019648L370.15292214640067 512.3184062532309L383.2605136228958 517.5068280192427L378.07209185734973 522.6269812541505L376.57018082303694 533.2086303783217Z  M563.4324987543805 437.8836281786571L525.4657254025515 487.63319476918696L511.0645340019837 465.37680888178147L497.97254319064086 470.6136052061556L505.1227845583344 492.4671609553043L491.42654778496944 498.1067874180808L461.64972567831865 502.6736013652044L459.1753145370458 488.7657027141104L448.7984710049932 482.21190697590646L436.51010357643827 493.6810503566885L405.65264878215385 488.7657027141104L404.2872748099617 493.9541244799839L391.0431462721026 493.9541244799839L385.7181874444359 500.4396516873603L370.15292214640067 496.54833536298975L357.1818677316187 500.4396516873603L339.8416172770085 507.1299844872119L307.34571294867783 514.9126171669486L323.84905936956056 492.86999109385215L309.447869477357 478.4688012016413L333.0134529369825 461.4492116384645L394.5458127663005 440.5020263408733L465.2425646544725 420.864038615764L503.2093395149568 411.69964504807285L530.7025217271876 402.53525148033805L559.4463563476165 401.73681108469464L563.4324987543805 437.8836281786571Z" stroke="#FFFFFF" stroke-opacity="0.75" stroke-width="1" stroke-linecap="round" stroke-linejoin="round" fill="#D3D3D3"/>
		<path name="屯门区" d="M78.23593767327839 466.5101046165437L71.40906613401603 482.21190697590646L64.99180913521559 458.6592034369751L78.23593767327839 466.5101046165437Z  M207.3303366251348 403.84445056120603L253.15230597235495 424.79163585884817L331.70425385583076 424.79163585884817L333.0134529369825 461.4492116384645L309.447869477357 478.4688012016413L323.84905936956056 492.86999109385215L307.34571294867783 514.9126171669486L298.0611690263613 509.7241953702178L298.0611690263613 500.4396516873603L270.61714916321216 500.4396516873603L259.2845445216808 491.9060635215137L243.85581796322367 487.4003287419255L233.88858561671805 466.5101046165437L227.47132861809223 465.212999175179L223.64828082427266 453.33424460931565L213.13490023114718 464.05243247307953L230.33861362413154 478.5253979218105L197.29655913205352 482.21190697590646L180.36592153977836 495.2512299214868L156.60841073084157 483.50901241759857L148.6892410198925 483.50901241759857L129.30092960651382 471.69852638255543L135.85472534471774 452.03713916795095L122.88367092996486 433.87766466512403L100.08192290828447 416.9470253951731L120.9721470332588 400.42599898782646L156.60841073084157 398.3779363517024L173.94866298080888 386.7039885109698L207.3303366251348 403.84445056120603Z" stroke="#FFFFFF" stroke-opacity="0.75" stroke-width="1" stroke-linecap="round" stroke-linejoin="round" fill="#D3D3D3"/>
		<path name="元朗区" d="M507.13693675841205 317.4373081911981L483.5713532985246 344.93049040312326L503.2093395149568 411.69964504807285L465.2425646544725 420.864038615764L394.5458127663005 440.5020263408733L333.0134529369825 461.4492116384645L331.70425385583076 424.79163585884817L253.15230597235495 424.79163585884817L207.3303366251348 403.84445056120603L173.94866298080888 386.7039885109698L195.93118515968672 348.6100498599626L235.25395958888112 332.9082491783556L270.6171491629211 283.0720924778434L281.13052975639584 283.0720924778434L294.2381212328037 287.1682160726341L292.59967313703964 297.3402523341065L291.64391034960863 309.3555456393733L298.0611690261576 305.4642293148645L317.8590933024243 300.3440760798112L323.04751506843604 300.3440760798112L325.64172595145646 293.6537432799669L324.27635197897325 284.5740051896282L324.27635197897325 271.3981451823929L343.80120213193004 262.1818700303629L370.15292214640067 255.69634282312472L376.57018082303694 249.1425470849208L383.2605136228958 237.26379251905746L396.2315680376487 233.37247619473783L404.28727480978705 230.77826531172468L416.0294920648739 225.38503641582065L425.96659071266185 231.0301658209064L435.1309857892047 272.9245379250424L444.2953793570632 313.5097109478811L492.7357468664122 308.27291462365247L507.13693675841205 317.4373081911981Z" stroke="#FFFFFF" stroke-opacity="0.75" stroke-width="1" stroke-linecap="round" stroke-linejoin="round" fill="#D3D3D3"/>
		<path name="北区" d="M804.888040565711 233.37247619454138L797.1054079169699 242.38394407620945L776.3517208534759 253.10213194011885L765.5652661366912 242.38394407620945L773.7575099707465 237.26379251891194L781.5401426194876 239.9262719327453L790.5516121787659 220.19661618736427L804.888040565711 233.37247619454138Z  M1000 190.22665397168748L981.8405254972458 190.22665397168748L987.0289455852471 177.11906249528693L990.8519933790667 182.30748426129867L1000 190.22665397168748Z  M757.7826334879501 169.26816131576925L772.392135998176 179.6450048474726L790.5516121787659 173.1594776401398L803.6592036551738 177.05079396445944L782.7689795300248 183.60458970266336L773.7575099707465 183.60458970266336L768.1594770197698 183.60458970266336L777.5805577641877 204.69961942042573L757.7826334879501 195.41507573756098L752.7307487835642 184.90169514431182L757.7826334879501 169.26816131576925Z  M563.5397346322134 156.57837190586724L580.0116191062261 169.58220662413078L608.2762287236401 169.58220662413078L643.2277451310365 171.3844908050596L658.5199346274894 170.22392242520436L666.7121801389148 169.6095039698921L654.1507385871373 184.90169514431182L645.6854189521109 194.32277588867873L633.397051523556 205.9967248620669L625.2048060121306 205.9967248620669L624.1125078409968 224.0879308339281L638.5854732895677 220.19661618736427L639.814310200105 213.77935751080804L659.475697414804 208.59093574508006L666.029493153299 201.9006029449447L679.0005458898377 179.6450048474726L685.5543416280416 178.34789940615883L690.7427633940533 183.60458970266336L700.0273087548558 178.34789940615883L705.2157288429153 183.60458970266336L697.8427090565092 197.66794228869549L707.8099397256447 195.41507573756098L718.5963961205562 204.69961942042573L717.7771720727324 216.1004925927191L725.9694159064093 220.94757170432422L739.3500831838755 213.77935751080804L742.3539052521228 220.19661618736427L742.3539052521228 230.7782653115355L738.8039332595363 244.29546797317016L751.3653748114011 245.1146936986188L758.1922446728859 255.15019289849442L773.7575099707465 262.1818700302174L820.8629170487111 249.14254708478256L831.2397604170837 243.817588025413L800.3975414862216 266.3785425195165L771.5951601934503 279.4705333305683L746.720377652382 274.23373700619413L707.4444037105422 278.16133424941654L670.7868279312097 279.4705333305683L655.0764389576798 265.06934343835746L632.8200530704635 263.7601443574895L607.9452690208273 275.5429360873968L579.1428892364202 289.9441259793166L569.9784956689982 286.01652873595594L550.3405079436197 289.9441259793166L547.7221097813162 303.0361182989873L507.13693675841205 317.4373081911981L492.7357468664122 308.27291462365247L444.2953793570632 313.5097109478811L435.1309857892047 272.9245379250424L425.96659071266185 231.0301658209064L416.0294920648739 225.38503641582065L411.11414634939865 214.59858155859547L426.3769932965806 206.17013766819582L454.81500397546915 206.17013766819582L464.17874016071437 215.5338738533028L469.38081563278683 217.61470337110222L489.14870108428295 199.92764575933688L504.75492750061676 197.84681624153745L522.4419851122948 199.92764575933688L531.1121120178432 176.86511161387898L544.6375072383962 162.29930163438985L563.5397346322134 156.57837190586724Z" stroke="#FFFFFF" stroke-opacity="0.75" stroke-width="1" stroke-linecap="round" stroke-linejoin="round" fill="#D3D3D3"/>
		<path name="大埔区" d="M831.2397605805309 364.51665948946174L839.022393229272 378.6482806061249L848.0338611108891 368.4079758138323L856.0895695611543 393.1895162636283L864.0087392715504 391.8924108219362L862.7799023610132 362.87820971593464L876.7067178850702 329.01693285398505L890.0873851625365 339.3937747077871L889.2681597770134 354.0032785677977L881.5678875322046 376.3512683496083L884.186285693926 411.69964504807285L860.6207007253834 426.1008349399999L831.8183209415292 413.00884412894084L806.943536891893 399.9168533181728L775.5227574367891 414.3180432100926L745.4111785715213 431.3376312645196L694.3524113910389 439.1928272600053L695.6616104718996 410.3904459669211L694.8388867594767 380.08192491330556L721.1906070032855 380.08192478722776L724.877116057527 388.82031854554225L721.1906070032855 404.8634635590788L730.2020765629422 415.445112683301L736.7558723011462 398.3779363517024L757.7826334879501 388.0010944976093L736.7558723011462 357.82632668961014L757.7826334879501 342.1927928612131L778.9459317362052 336.79956382477394L777.5805577641877 322.5314056466086L816.0841081453837 297.3402523341065L818.268706165487 305.464229314719L827.8263256495993 307.30748300296545L818.268706165487 323.82851108796604L836.1551065449312 328.06117006645945L840.1146914004057 353.86674183427385L831.2397605805309 364.51665948946174Z  M885.9912615676294 306.76133475636743L875.477880974533 321.23430020496016L865.2375761820877 296.3162226936547L874.1125070023409 285.87111063113116L882.1682137743919 287.1682160724449L885.9912615676294 306.76133475636743Z  M803.6592036551738 276.6548354790939L785.3631904127542 292.35663783845666L765.5652661366912 300.34407607967296L743.446205101005 309.3555456393733L723.7848178863933 322.5314056466086L716.0021852373611 334.20535461971303L698.6619331047114 344.78700374388427L685.5543416280416 344.78700374388427L660.8410713872872 314.54396740510856L637.2200993173756 318.640089321947L628.2086297575443 313.24686196374387L624.1125078409968 321.23430020496016L626.8432557853521 335.5024583834165L634.6258884340932 339.3937747077871L637.2200993173756 351.20426074283023L625.2048060121306 348.61004985982436L624.1125078409968 340.8956874195137L612.2337532751262 334.20535461971303L592.708903122344 336.79956382477394L586.1551073841401 344.78700374388427L553.9322786176635 350.99945515035506L569.0879310522578 359.12343213096756L587.5204813563323 371.0021866968382L608.8203166665044 384.3828522965414L617.2891697020386 389.9293541213774L577.8336901553557 401.2260523990408L559.4463563476165 401.73681108469464L530.7025217271876 402.53525148033805L503.2093395149568 411.69964504807285L483.5713532985246 344.93049040312326L507.13693675841205 317.4373081911981L547.7221097813162 303.0361182989873L550.3405079436197 289.9441259793166L569.9784956689982 286.01652873595594L579.1428892364202 289.9441259793166L607.9452690208273 275.5429360873968L632.8200530704635 263.7601443574895L655.0764389576798 265.06934343835746L670.7868279312097 279.4705333305683L707.4444037105422 278.16133424941654L746.720377652382 274.23373700619413L771.5951601934503 279.4705333305683L800.3975414862216 266.3785425195165L831.2397604170837 243.817588025413L835.1993454354524 253.10213194011885L803.6592036551738 276.6548354790939Z" stroke="#FFFFFF" stroke-opacity="0.75" stroke-width="1" stroke-linecap="round" stroke-linejoin="round" fill="#D3D3D3"/>
		<path name="离岛区" d="M110.73184056315222 836.936102564563L100.35499870934291 836.936102564563L104.45112062589033 829.2217384466494L122.88367092996486 823.9650481498029L122.88367092996486 836.936102564563L110.73184056315222 836.936102564563Z  M716.0021852373611 830.3823068263591L702.621519637556 843.42162809414L693.4735130166519 830.3823068263591L702.621519637556 814.7487729976274L719.8252330309188 802.9382869629189L725.0136547969305 814.7487729976274L725.0136547969305 826.6275275636362L716.0021852373611 830.3823068263591Z  M122.88367092996486 802.9382869629189L122.88367092996486 806.8296032872386L110.73184056315222 802.9382869629189L110.73184056315222 789.8306954865111L122.88367092996486 802.9382869629189Z  M690.7427633940533 805.5324978459248L680.365921540244 808.1949772594235L680.365921540244 793.7220118108817L680.365921540244 792.4249063695243L689.6504652228032 792.4249063695243L698.6619331047114 789.8306954865111L702.621519637556 797.6133281352522L694.838886988844 805.5324978459248L690.7427633940533 805.5324978459248Z  M257.37302062514937 780.819225926949L254.64227268021205 789.8306954865111L246.85964003147092 787.2364846035052L235.25395958908484 778.2250150439431L245.6308031209337 768.9404713612239L252.18459885913762 768.9404713612239L257.37302062514937 780.819225926949Z  M310.0764623316354 755.8328798848233L317.8590933025989 758.4270907678292L330.8301477173518 758.4270907678292L325.64172595145646 774.1288931270974L317.8590933025989 768.9404713612239L299.4265429985535 780.819225926949L298.0611690263613 770.2375768027341L310.0764623316354 762.4549441538475L310.0764623316354 755.8328798848233Z  M469.9617709314043 730.5051895106735L483.88858645554865 744.6368123052889L495.76734102139017 740.1310775254606L495.76734102139017 750.5079210571566L483.88858645554865 758.4270907678292L504.77881058095954 757.0617167953606L524.030584932887 757.0617167953606L532.3593675059674 761.15783871249L512.9710544146656 773.7192802643985L506.2807216149813 782.1163313685975L516.7941022084851 802.9382869629189L503.41343660876737 802.8017499012713L458.90224041373585 805.6690349075725L464.36373630247544 791.1278009278758L464.36373630247544 740.1310775254606L447.84270989571814 740.4041516487559L451.39268188830465 729.6176969320586L451.93883181226556 707.1572932418276L462.9983623303124 711.2534151588188L469.9617709314043 730.5051895106735Z  M345.0300390430493 698.07755515178L337.24740639392985 698.07755515178L325.64172595145646 683.7411267645512L307.34571270950255 674.5931201433414L312.6706732143357 673.2960147019767L343.80120213193004 673.2960147019767L345.0300390430493 698.07755515178Z  M353.22228287672624 671.9989092606193L345.0300390430493 671.9989092606193L348.9896238979418 662.9191711702297L357.1818677316187 662.9191711702297L359.77607861493016 664.2162766115944L353.22228287672624 671.9989092606193Z  M396.2315680379397 632.7444033621359L389.81430936136167 632.7444033621359L389.81430936136167 623.5281282100987L393.637357154832 623.5281282100987L397.73347907175776 626.1223390931045L396.2315680379397 632.7444033621359Z  M341.20699124920066 614.3801215888889L337.24740639392985 623.5281282100987L345.0300390430493 623.5281282100987L345.0300390430493 630.1501924791228L330.8301477173518 634.0415088034933L330.8301477173518 618.3397064443707L332.0589846280054 618.3397064443707L341.20699124920066 614.3801215888889Z  M324.0213388779666 572.2997165543493L322.6379038836749 584.3418908427266L294.2381212330947 580.3823059872448L294.2381212330947 602.6379040848115L310.0764623316354 596.2206454082552L302.43036674472387 617.7935565196822L304.61496476456523 658.8230492532457L279.90169452351984 658.8230492532457L265.1556532738905 653.498090425579L285.09011461160844 679.7815419093531L260.2403073089081 698.07755515178L298.0611690263613 721.7667957522135L273.21136004591244 740.1310775254606L242.62698105268646 753.3752060634652L240.44238135492196 741.4964514979292L240.44238135492196 704.6996194207532L221.05406994154328 704.6996194207532L205.07919178079464 704.6996194207532L181.73129551205784 704.6996194207532L152.78536461477051 726.9552175182253L141.17968417238444 726.9552175182253L135.85472534471774 734.9426557597253L152.78536461477051 738.8339720840959L152.78536461477051 749.1425470850227L137.22009931699722 758.7684334219521L115.64718820576672 760.4751517263503L95.16657694333117 741.4964514979292L92.57236606060178 729.6176969320586L78.23593767327839 733.6455503180769L61.03222427974106 745.2512307606521L36.592026484635426 764.8443494442399L15.29219117417233 772.0808321686345L3.140360807243269 758.9732406922267L0.955762787227286 737.0589852488774L0 719.1725848694914L3.140360807243269 709.8197726556609L19.934463015641086 709.8197726556609L19.934463015641086 693.1622075090563L32.63244162936462 690.021846701653L32.63244162936462 679.5084661082583L22.25559809731203 671.9989092606193L22.25559809731203 671.9306407297918L23.07482382300077 671.3844908051105L37.820863395376364 660.7345731501118L49.69961796104326 651.4500294672544L50.79191780992551 648.5144742523189L66.22064436800429 645.920263369313L78.23593767327839 634.0415088034933L92.57236606060178 611.6493736445191L124.11250784050208 611.6493736445191L141.17968417238444 613.0830161475242L152.78536461477051 624.8252336517471L169.98907800830784 618.3397064443707L209.03877663626918 597.4494823190835L233.88858561671805 602.6379040848115L245.6308031209337 584.2736223118991L260.2403073089081 581.6794114288932L265.5924691725231 572.8514197151962L324.0213388779666 572.2997165543493Z  M176.54287374651176 562.086292745109L171.35445198050002 577.7880951045227L165.75641735177487 582.9765168702506L161.79683249638765 598.7465877604409L157.97378470303374 611.6493736445191L155.3795754974999 611.6493736445191L155.3795754974999 597.4494823190835L144.8661932266259 580.3823059872448L144.8661932266259 577.7880951045227L144.8661932266259 576.4909896628742L155.3795754974999 572.5996733385036L160.56799558576313 562.086292745109L165.75641735177487 568.5035514216652L176.54287374651176 562.086292745109Z" stroke="#FFFFFF" stroke-opacity="0.75" stroke-width="1" stroke-linecap="round" stroke-linejoin="round" fill="#D3D3D3"/>
	</g>
</svg>